<svg width="100" height="101" viewBox="0 0 100 101" fill="none" xmlns="http://www.w3.org/2000/svg">
<rect x="2" y="2.63623" width="96" height="96" rx="48" fill="url(#paint0_linear_802_14099)"/>
<rect x="2" y="2.63623" width="96" height="96" rx="48" stroke="url(#paint1_linear_802_14099)" stroke-width="4"/>
<path d="M28.6175 85.7957C27.9493 85.7957 27.2806 85.6457 26.7604 85.3447C26.197 85.0194 25.8867 84.5659 25.8867 84.0667C25.8867 83.5675 26.1965 83.1161 26.759 82.7917C27.7993 82.1917 29.4294 82.1917 30.4706 82.7927C31.0341 83.118 31.3439 83.5714 31.3439 84.0701C31.3439 84.5689 31.0346 85.0208 30.4726 85.3452C29.9524 85.6447 29.2852 85.7952 28.6185 85.7952L28.6175 85.7957ZM28.6131 83.0542C28.0662 83.0542 27.5192 83.1711 27.1126 83.4063C26.7833 83.5953 26.5944 83.8369 26.5944 84.0672C26.5944 84.2976 26.7838 84.5411 27.1145 84.731C27.9298 85.203 29.3052 85.203 30.118 84.732C30.4468 84.543 30.6353 84.3015 30.6353 84.0711C30.6353 83.8408 30.4463 83.5972 30.1161 83.4073C29.7084 83.1711 29.1605 83.0542 28.6131 83.0542Z" fill="white"/>
<path d="M81.4561 84.0689C81.2608 84.0689 81.102 83.9101 81.102 83.7148L81.0991 79.8824C81.0991 79.6871 81.2574 79.5283 81.4527 79.5283C81.648 79.5283 81.8068 79.6871 81.8068 79.8824L81.8097 83.7148C81.8097 83.9101 81.6514 84.0689 81.4561 84.0689Z" fill="white"/>
<path d="M84.7755 82.1544L78.1373 82.1525C77.942 82.1525 77.7832 81.9937 77.7832 81.7984C77.7832 81.6031 77.942 81.4443 78.1373 81.4443L84.7755 81.4463C84.9708 81.4463 85.1296 81.6051 85.1296 81.8004C85.1296 81.9957 84.9708 82.1544 84.7755 82.1544Z" fill="white"/>
<path d="M41.0483 18.3522C40.756 18.3522 40.4409 18.2592 40.12 18.0736C39.0787 17.4736 38.2634 16.0627 38.2634 14.8612C38.2634 14.212 38.4996 13.7171 38.9307 13.4683C39.3617 13.2184 39.9106 13.2603 40.4741 13.5856C41.5153 14.1861 42.3306 15.5976 42.3306 16.7986C42.3306 17.4478 42.0934 17.9421 41.6624 18.191C41.4768 18.2986 41.2694 18.3512 41.0483 18.3512V18.3522ZM39.5458 14.0176C39.4469 14.0176 39.3592 14.0391 39.2852 14.0819C39.085 14.1973 38.9711 14.4818 38.9711 14.8612C38.9711 15.8011 39.6593 16.991 40.4736 17.4609C40.8033 17.6509 41.1057 17.6928 41.3079 17.5788C41.5075 17.4629 41.622 17.1789 41.622 16.7995C41.622 15.8601 40.9338 14.6698 40.1195 14.1993C39.911 14.079 39.7133 14.0176 39.5453 14.0176H39.5458Z" fill="white"/>
<path d="M84.1574 37.3986C84.1487 37.3986 84.1399 37.3986 84.1311 37.3976C83.986 37.3864 83.8623 37.2885 83.8189 37.1492C83.6197 36.5063 83.2959 35.788 82.8819 35.073C82.4718 34.36 82.0116 33.7196 81.5504 33.2199C81.4515 33.1127 81.4281 32.9564 81.4919 32.8254C81.5562 32.6949 81.6994 32.6218 81.8382 32.6267C82.24 32.6608 82.6457 32.5634 83.0129 32.352C83.3782 32.143 83.6626 31.8401 83.8384 31.4748C83.9012 31.3433 84.0371 31.2659 84.1832 31.2752C84.3284 31.2859 84.4526 31.3843 84.4954 31.5231C84.6971 32.1703 85.0209 32.8882 85.433 33.6002C85.846 34.3157 86.3067 34.9556 86.766 35.451C86.8648 35.5576 86.8887 35.7139 86.8254 35.845C86.7621 35.976 86.6276 36.0524 86.4801 36.0446C86.0788 36.0115 85.6682 36.1089 85.3029 36.3203C84.9381 36.5297 84.6527 36.8327 84.4764 37.1979C84.417 37.3211 84.2923 37.3981 84.1574 37.3981V37.3986ZM82.5337 33.2846C82.8697 33.7123 83.196 34.1988 83.4956 34.7189C83.797 35.2401 84.0547 35.7651 84.2558 36.2672C84.4526 36.0476 84.6863 35.8581 84.9503 35.7066C85.2138 35.5552 85.4948 35.448 85.7831 35.3881C85.4476 34.9625 85.1208 34.4769 84.8198 33.9558C84.5188 33.4351 84.2617 32.9101 84.0595 32.406C83.8633 32.6257 83.6295 32.8151 83.3655 32.9661C83.1015 33.1181 82.8205 33.2252 82.5337 33.2846Z" fill="white"/>
<path d="M11.9222 49.0269C11.7995 49.0269 11.6806 48.9631 11.6154 48.8501C11.5175 48.6807 11.5759 48.4644 11.7449 48.3665L15.0655 46.452C15.2345 46.3531 15.4512 46.4135 15.5491 46.5816C15.647 46.751 15.5885 46.9673 15.4195 47.0652L12.099 48.9797C12.043 49.0118 11.9826 49.0269 11.9227 49.0269H11.9222Z" fill="white"/>
<path d="M15.2437 50.9437C15.121 50.9437 15.0022 50.8799 14.9369 50.767L11.6154 45.0181C11.5175 44.8491 11.5759 44.6323 11.7449 44.5344C11.9154 44.4365 12.1306 44.4955 12.2285 44.664L15.5501 50.4129C15.648 50.5819 15.5895 50.7986 15.4205 50.8965C15.3645 50.9287 15.3041 50.9437 15.2442 50.9437H15.2437Z" fill="white"/>
<path d="M64.3062 75.6143C63.8913 75.8488 63.4784 76.0774 63.0549 76.293C61.1006 77.2833 59.0469 78.0528 56.9521 78.5792C56.5455 78.679 56.1314 78.7718 55.7263 78.8559C43.0984 81.4196 30.1946 75.181 24.3486 63.6883C18.8447 52.8691 20.7344 39.723 29.0384 30.8938C29.2091 31.0237 29.4036 31.1278 29.6189 31.1979C29.8193 31.2633 30.0252 31.2953 30.2303 31.2953C30.5359 31.2953 30.8397 31.2229 31.1203 31.0805C31.5888 30.8421 31.9364 30.4358 32.0992 29.936C32.262 29.4362 32.2202 28.9031 31.9822 28.4346C31.7442 27.9661 31.3375 27.6185 30.8377 27.4557C30.3375 27.2929 29.8044 27.3347 29.3363 27.5727C28.8678 27.8107 28.5202 28.2174 28.3574 28.7172C28.1539 29.3419 28.2819 29.9963 28.6431 30.4898C20.1634 39.4921 18.231 52.9055 23.8457 63.9435C28.9116 73.9027 39.1742 79.991 50.0462 79.991C51.9668 79.991 53.9066 79.8008 55.8402 79.4082C56.2535 79.3221 56.6742 79.2285 57.0887 79.1264C59.225 78.589 61.3182 77.805 63.3105 76.7956C63.7418 76.576 64.1618 76.3431 64.5833 76.1055C64.7191 76.0288 64.7673 75.857 64.6906 75.7208C64.6142 75.5858 64.442 75.5372 64.3062 75.6143ZM28.8944 28.8929C29.0103 28.5363 29.2584 28.2467 29.5919 28.0768C29.7919 27.9751 30.0083 27.9238 30.2267 27.9238C30.3727 27.9238 30.5199 27.9469 30.6628 27.9935C31.0193 28.1093 31.309 28.3575 31.4788 28.691C31.6487 29.0252 31.6785 29.4053 31.5622 29.7618C31.4463 30.118 31.1982 30.408 30.8643 30.5779C30.5305 30.7482 30.1504 30.7775 29.7938 30.6613C29.058 30.4217 28.6545 29.6284 28.8944 28.8929ZM76.1646 37.3265C70.1976 25.6043 57.0441 19.2472 44.1791 21.8661C43.7983 21.9373 43.3967 22.0265 42.9152 22.1467C40.7621 22.6884 38.6709 23.4712 36.6998 24.474C36.2677 24.6936 35.8363 24.9292 35.425 25.1652C35.2899 25.2431 35.243 25.4153 35.3208 25.5507C35.3983 25.6858 35.5706 25.7319 35.7064 25.6548C36.1095 25.4231 36.5326 25.1926 36.9557 24.9773C38.8897 23.9937 40.941 23.2254 43.0526 22.6943C43.5227 22.5772 43.9133 22.4903 44.2871 22.4203C56.9083 19.8511 69.8097 26.0854 75.6612 37.5825C81.1005 48.2752 79.2958 61.3297 71.182 70.1417C71.018 70.0212 70.8329 69.9241 70.6289 69.858C69.5976 69.5233 68.4848 70.0877 68.1486 71.1194C67.8132 72.1516 68.3792 73.2639 69.4105 73.6002C69.6121 73.6659 69.8168 73.6972 70.0184 73.6972C70.8473 73.6972 71.6204 73.1684 71.8908 72.3383C72.0979 71.7019 71.9613 71.0353 71.5847 70.5382C79.8684 61.5528 81.7131 48.2345 76.1646 37.3265ZM71.3538 72.1633C71.1143 72.8999 70.3225 73.3035 69.5855 73.0632C68.85 72.824 68.4461 72.0299 68.6856 71.2944C68.9256 70.5586 69.7189 70.1558 70.4544 70.3946C71.1898 70.6337 71.5934 71.4279 71.3538 72.1633ZM74.9747 45.5796C74.9062 45.2121 74.8224 44.8485 74.7308 44.4821C74.2612 42.6139 73.5813 40.799 72.7108 39.0878C72.64 38.9485 72.4689 38.8933 72.3312 38.9641C72.1922 39.035 72.137 39.2048 72.2075 39.3438C73.0588 41.0174 73.7238 42.7928 74.1833 44.6199C74.2721 44.9745 74.3528 45.3268 74.4205 45.6876C76.644 56.6086 71.2489 67.7722 61.3006 72.8365C52.1845 77.4727 40.9888 76.0042 33.3795 69.1894C33.4977 69.0266 33.5928 68.843 33.6586 68.6419C33.9956 67.6066 33.4276 66.4895 32.392 66.1522C31.891 65.9889 31.3552 66.0304 30.8847 66.2696C30.4146 66.5087 30.0651 66.917 29.9019 67.4191C29.5649 68.4544 30.1328 69.5714 31.1685 69.9088C31.3708 69.9746 31.5763 70.0059 31.7786 70.0059C32.219 70.0059 32.6433 69.8576 32.9857 69.5945C37.7421 73.862 43.8714 76.0844 50.0494 76.0844C53.9794 76.0844 57.9295 75.1846 61.557 73.3395C71.7307 68.1612 77.2476 56.7436 74.9747 45.5796ZM31.343 69.3714C30.6037 69.1303 30.1978 68.3327 30.4385 67.5937C30.5551 67.2348 30.8044 66.9436 31.1403 66.7729C31.3411 66.6704 31.5591 66.6187 31.7783 66.6187C31.9254 66.6187 32.0734 66.6426 32.217 66.6892C32.9568 66.9303 33.3623 67.7279 33.1216 68.4669C32.8808 69.2067 32.0836 69.6137 31.343 69.3714ZM69.061 31.5932C68.4281 31.3873 67.7654 31.5196 67.2684 31.8899C59.4669 24.7159 47.9119 23.1228 38.4556 27.9316C28.2854 33.1052 22.7658 44.5232 25.0336 55.6997C25.1084 56.0583 25.1898 56.4234 25.2786 56.7835C25.7452 58.6388 26.4254 60.4553 27.301 62.1825C27.3507 62.2808 27.4497 62.3375 27.5531 62.3375C27.5957 62.3375 27.6396 62.3278 27.6803 62.3074C27.8192 62.2369 27.8748 62.0671 27.8043 61.9281C26.948 60.2377 26.2822 58.4607 25.8262 56.6477C25.7393 56.2958 25.6595 55.9369 25.5863 55.5866C23.3694 44.6594 28.7664 33.4943 38.7112 28.4358C47.9503 23.7362 59.2395 25.2889 66.8679 32.2895C66.7415 32.4582 66.6398 32.6496 66.5709 32.8614C66.4077 33.3631 66.4492 33.8982 66.6887 34.3686C66.9278 34.8387 67.3361 35.1879 67.8378 35.3515C68.039 35.4172 68.2457 35.4497 68.4516 35.4497C68.7584 35.4497 69.0633 35.3773 69.3447 35.234C69.8152 34.9949 70.164 34.5867 70.3276 34.0853C70.665 33.0496 70.097 31.9326 69.061 31.5952V31.5932ZM69.7906 33.9087C69.6739 34.2673 69.4246 34.5585 69.0888 34.7295C68.7529 34.9006 68.3702 34.9303 68.0124 34.8133C67.6539 34.6966 67.3627 34.4473 67.192 34.1115C67.021 33.7757 66.9912 33.3933 67.1079 33.0351C67.3016 32.4402 67.8559 32.0609 68.4504 32.0609C68.5948 32.0609 68.7416 32.0832 68.886 32.1302C69.6258 32.3713 70.0313 33.169 69.7906 33.9087Z" fill="#383838"/>
<path d="M54.7894 50.6359C54.7894 47.8663 52.536 45.6132 49.7664 45.6132C46.9968 45.6132 44.7431 47.8666 44.7431 50.6359C44.7431 53.4052 46.9965 55.6593 49.7664 55.6593C52.5363 55.6593 54.7894 53.4059 54.7894 50.6359ZM45.2054 50.6359C45.2054 48.1212 47.2514 46.0756 49.7664 46.0756C52.2814 46.0756 54.327 48.1215 54.327 50.6359C54.327 53.1503 52.2811 55.1969 49.7664 55.1969C47.2517 55.1969 45.2054 53.151 45.2054 50.6359ZM52.6094 49.2066L49.2938 52.6633C49.2502 52.7088 49.1899 52.7345 49.127 52.7345C49.0642 52.7345 49.0036 52.7088 48.96 52.663L46.8486 50.4593C46.7602 50.3672 46.7634 50.2207 46.8557 50.1325C46.9474 50.0444 47.0942 50.0476 47.1824 50.1396L49.127 52.1689L52.2756 48.8862C52.3641 48.7939 52.5103 48.7913 52.6027 48.8795C52.6947 48.9677 52.6976 49.1142 52.6094 49.2066ZM65.6786 50.7962L61.2761 55.3877C61.2315 55.4338 61.1709 55.4589 61.109 55.4589C61.0798 55.4589 61.0507 55.4534 61.0228 55.4422C60.9352 55.4069 60.8778 55.3219 60.8778 55.2277V53.2266H56.0132C55.8853 53.2266 55.7821 53.1231 55.7821 52.9954C55.7821 52.8678 55.8856 52.7643 56.0132 52.7643H61.109C61.2369 52.7643 61.3402 52.8678 61.3402 52.9954V54.6528L65.191 50.6366L61.3402 46.6203V48.2777C61.3402 48.4056 61.2366 48.5089 61.109 48.5089H56.0132C55.8853 48.5089 55.7821 48.4053 55.7821 48.2777C55.7821 48.1501 55.8856 48.0465 56.0132 48.0465H60.8778V46.0455C60.8778 45.9512 60.9352 45.8662 61.0228 45.831C61.1097 45.7954 61.2103 45.8168 61.2757 45.8855L65.6783 50.4769C65.7643 50.5663 65.7643 50.7077 65.6783 50.7972L65.6786 50.7962ZM57.2159 44.8825V43.2245H49.3521C49.2242 43.2245 49.121 43.121 49.121 42.9934C49.121 42.8658 49.2245 42.7622 49.3521 42.7622H57.4474C57.5753 42.7622 57.6786 42.8658 57.6786 42.9934V44.3073L60.8509 40.9978L57.6786 37.6882V39.0022C57.6786 39.1301 57.5753 39.2333 57.4474 39.2333H47.1019C46.974 39.2333 46.8708 39.1298 46.8708 39.0022C46.8708 38.8745 46.9743 38.771 47.1019 38.771H57.2159V37.113C57.2159 37.0187 57.2733 36.9338 57.3608 36.8985C57.4481 36.8629 57.5484 36.8847 57.6138 36.953L61.3376 40.8381C61.4236 40.9279 61.4236 41.0686 61.3376 41.1584L57.6138 45.0435C57.5693 45.0897 57.509 45.1147 57.4471 45.1147C57.4179 45.1147 57.3887 45.1092 57.3608 45.098C57.2733 45.0627 57.2159 44.9778 57.2159 44.8835V44.8825ZM57.2159 64.1595V62.5012H47.1019C46.974 62.5012 46.8708 62.3976 46.8708 62.27C46.8708 62.1424 46.9743 62.0388 47.1019 62.0388H57.4474C57.5753 62.0388 57.6786 62.1424 57.6786 62.27V63.5843L60.8509 60.2744L57.6786 56.9649V58.2788C57.6786 58.4067 57.5753 58.51 57.4474 58.51H49.3521C49.2242 58.51 49.121 58.4064 49.121 58.2788C49.121 58.1512 49.2245 58.0476 49.3521 58.0476H57.2159V56.3896C57.2159 56.2954 57.2733 56.2104 57.3608 56.1751C57.4481 56.1399 57.5484 56.1614 57.6138 56.2296L61.3376 60.1147C61.4236 60.2042 61.4236 60.3449 61.3376 60.4344L57.6138 64.3195C57.5693 64.366 57.509 64.391 57.4471 64.391C57.4179 64.391 57.3887 64.3855 57.3608 64.3743C57.2733 64.339 57.2159 64.2538 57.2159 64.1595ZM34.4758 41.0026C34.3533 41.009 34.2572 41.1106 34.2572 41.2334V42.9151C34.2572 43.0379 34.3533 43.1396 34.4758 43.146L35.5323 43.2021C35.6599 43.7693 35.8815 44.3044 36.1931 44.7972L35.4858 45.5847C35.4037 45.6761 35.4076 45.8156 35.4945 45.9028L36.6837 47.092C36.7703 47.1786 36.9101 47.1824 37.0018 47.1007L37.7886 46.393C38.2814 46.7047 38.8162 46.9262 39.3837 47.0538L39.4398 48.111C39.4462 48.2334 39.5479 48.3296 39.671 48.3296H41.3527C41.4755 48.3296 41.5772 48.2334 41.5839 48.111L41.64 47.0538C42.2072 46.9262 42.7423 46.7047 43.2351 46.393L44.022 47.1007C44.114 47.1827 44.2535 47.1789 44.34 47.092L45.5289 45.9028C45.6158 45.8159 45.6193 45.6764 45.5376 45.5847L44.8303 44.7972C45.1416 44.3048 45.3635 43.7699 45.4911 43.2021L46.5476 43.146C46.6701 43.1396 46.7662 43.0379 46.7662 42.9151V41.2334C46.7662 41.1106 46.6701 41.009 46.5476 41.0026L45.4911 40.9465C45.3632 40.3789 45.1416 39.8441 44.8303 39.3513L45.5376 38.5639C45.6197 38.4725 45.6158 38.333 45.5289 38.2458L44.34 37.0569C44.2531 36.9703 44.1137 36.9662 44.022 37.0482L43.2348 37.7555C42.742 37.4439 42.2069 37.2223 41.6397 37.0947L41.5836 36.0382C41.5772 35.9158 41.4755 35.8196 41.3524 35.8196H39.6707C39.5479 35.8196 39.4462 35.9158 39.4395 36.0382L39.3834 37.0947C38.8159 37.2227 38.2811 37.4442 37.7883 37.7555L37.0011 37.0482C36.9101 36.9662 36.7703 36.97 36.6831 37.0569L35.4938 38.2458C35.4069 38.3327 35.4031 38.4722 35.4852 38.5639L36.1925 39.3513C35.8805 39.8441 35.6593 40.3793 35.5317 40.9465L34.4752 41.0026H34.4758ZM35.9498 41.2103C36.0684 40.5806 36.3121 39.9916 36.6754 39.4597C36.7353 39.3718 36.7276 39.2542 36.6564 39.175L35.9764 38.418L36.8556 37.5388L37.6122 38.2189C37.6914 38.2897 37.8088 38.2974 37.897 38.2378C38.4282 37.8751 39.0176 37.6311 39.6479 37.5122C39.7524 37.4926 39.83 37.4038 39.8361 37.2974L39.8903 36.2816H41.1337L41.1879 37.2974C41.1937 37.4038 41.2716 37.4923 41.3761 37.5122C42.0062 37.6308 42.5952 37.8748 43.1271 38.2378C43.2146 38.2974 43.3326 38.2897 43.4118 38.2189L44.1685 37.5388L45.0477 38.418L44.3679 39.175C44.2967 39.2542 44.2891 39.3718 44.349 39.4597C44.7116 39.9913 44.9556 40.5803 45.0746 41.2103C45.0942 41.3152 45.183 41.3928 45.2894 41.3986L46.3052 41.4527V42.6961L45.2894 42.7503C45.183 42.7561 45.0945 42.834 45.0746 42.9385C44.956 43.5689 44.7116 44.1582 44.349 44.6892C44.2891 44.777 44.2967 44.8947 44.3679 44.9739L45.0477 45.7309L44.1685 46.6101L43.4121 45.93C43.3323 45.8588 43.2146 45.8512 43.1271 45.9111C42.5952 46.2741 42.0062 46.5181 41.3761 46.6367C41.2713 46.6563 41.1937 46.7451 41.1879 46.8515L41.1337 47.8676H39.8903L39.8361 46.8515C39.8304 46.7451 39.7524 46.6566 39.6479 46.6367C39.0176 46.5181 38.4286 46.2741 37.8973 45.9111C37.8091 45.8512 37.6918 45.8588 37.6122 45.93L36.8559 46.6101L35.9767 45.7309L36.6568 44.9739C36.7279 44.8947 36.7356 44.777 36.6757 44.6892C36.3127 44.1576 36.0687 43.5686 35.9501 42.9385C35.9305 42.8337 35.8417 42.7561 35.7353 42.7503L34.7195 42.6961V41.4527L35.7353 41.3986C35.8417 41.3928 35.9299 41.3149 35.9498 41.2103ZM40.5117 44.9771C42.1123 44.9771 43.4147 43.675 43.4147 42.0744C43.4147 40.4739 42.1126 39.1718 40.5117 39.1718C38.9108 39.1718 37.609 40.4739 37.609 42.0744C37.609 43.675 38.9111 44.9771 40.5117 44.9771ZM40.5117 39.6341C41.8574 39.6341 42.9523 40.7288 42.9523 42.0744C42.9523 43.4201 41.8577 44.5148 40.5117 44.5148C39.1657 44.5148 38.0714 43.4201 38.0714 42.0744C38.0714 40.7288 39.166 39.6341 40.5117 39.6341ZM46.5479 60.2686C46.6704 60.2622 46.7666 60.1606 46.7666 60.0378V58.3561C46.7666 58.2333 46.6704 58.1316 46.5479 58.1252L45.4914 58.0691C45.3635 57.5016 45.1419 56.9668 44.8306 56.4743L45.5379 55.6868C45.62 55.5954 45.6161 55.456 45.5293 55.3688L44.3404 54.1795C44.2535 54.093 44.114 54.0891 44.0223 54.1709L43.2351 54.8782C42.7423 54.5665 42.2072 54.345 41.64 54.2174L41.5839 53.1606C41.5775 53.0381 41.4758 52.9419 41.3527 52.9419H39.671C39.5482 52.9419 39.4466 53.0381 39.4398 53.1606L39.3837 54.2174C38.8162 54.345 38.2814 54.5665 37.7886 54.8782L37.0014 54.1709C36.9101 54.0888 36.7699 54.0926 36.6834 54.1795L35.4942 55.3688C35.4073 55.4556 35.4037 55.5951 35.4855 55.6868L36.1928 56.4743C35.8812 56.9671 35.6596 57.5019 35.532 58.0691L34.4755 58.1252C34.353 58.1316 34.2568 58.2333 34.2568 58.3561V60.0378C34.2568 60.1606 34.353 60.2622 34.4755 60.2686L35.532 60.3251C35.6596 60.8923 35.8812 61.4274 36.1928 61.9202L35.4855 62.7077C35.4034 62.7991 35.4073 62.9389 35.4942 63.0257L36.6834 64.215C36.7699 64.3022 36.9097 64.3054 37.0014 64.2236L37.7883 63.516C38.2804 63.827 38.8156 64.0489 39.3834 64.1768L39.4395 65.2336C39.4459 65.3564 39.5476 65.4526 39.6707 65.4526H41.3524C41.4752 65.4526 41.5768 65.3564 41.5836 65.2336L41.6397 64.1768C42.2072 64.0495 42.7426 63.8276 43.2348 63.516L44.0216 64.2236C44.1137 64.3054 44.2531 64.3022 44.3397 64.215L45.5286 63.0257C45.6155 62.9392 45.619 62.7991 45.5373 62.7077L44.83 61.9202C45.1413 61.428 45.3632 60.8929 45.4908 60.3251L46.5473 60.2686H46.5479ZM45.074 60.0609C44.9553 60.6919 44.711 61.2805 44.3484 61.8118C44.2884 61.9 44.2961 62.0177 44.3673 62.0969L45.047 62.8539L44.1679 63.7331L43.4115 63.0524C43.3316 62.9809 43.2137 62.9728 43.1264 63.0334C42.5955 63.3961 42.0065 63.6404 41.3758 63.759C41.271 63.7786 41.1934 63.8674 41.1876 63.9738L41.1334 64.9896H39.89L39.8358 63.9738C39.83 63.8674 39.7521 63.7789 39.6476 63.759C39.0166 63.6404 38.4276 63.3961 37.897 63.0334C37.8091 62.9728 37.6911 62.9812 37.6119 63.0524L36.8552 63.7331L35.9761 62.8539L36.6561 62.0969C36.7273 62.018 36.735 61.9 36.675 61.8118C36.3121 61.2809 36.0681 60.6912 35.9494 60.0609C35.9299 59.956 35.8411 59.8784 35.7346 59.873L34.7189 59.8188V58.5754L35.7346 58.5212C35.8411 58.5154 35.9296 58.4375 35.9494 58.333C36.0681 57.703 36.3121 57.114 36.675 56.5827C36.735 56.4948 36.7273 56.3771 36.6561 56.2979L35.9761 55.5409L36.8552 54.6618L37.6119 55.3418C37.6911 55.4127 37.8085 55.4204 37.8966 55.3607C38.4279 54.9978 39.0172 54.7538 39.6473 54.6352C39.7521 54.6156 39.8297 54.5268 39.8355 54.4203L39.8897 53.4046H41.1331L41.1873 54.4203C41.193 54.5268 41.271 54.6153 41.3755 54.6352C42.0055 54.7538 42.5945 54.9975 43.1264 55.3607C43.214 55.4204 43.332 55.4127 43.4112 55.3418L44.1679 54.6618L45.047 55.5409L44.3673 56.2979C44.2961 56.3771 44.2884 56.4948 44.3484 56.5827C44.711 57.1136 44.955 57.7026 45.074 58.3333C45.0935 58.4378 45.1823 58.5154 45.2888 58.5215L46.3045 58.5757V59.8191L45.2888 59.8733C45.1823 59.8787 45.0938 59.956 45.074 60.0609ZM40.5117 56.2944C38.9111 56.2944 37.609 57.5965 37.609 59.1968C37.609 60.797 38.9111 62.0998 40.5117 62.0998C42.1123 62.0998 43.4147 60.7974 43.4147 59.1968C43.4147 57.5962 42.1126 56.2944 40.5117 56.2944ZM40.5117 61.6374C39.166 61.6374 38.0714 60.5428 38.0714 59.1968C38.0714 57.8508 39.166 56.7568 40.5117 56.7568C41.8574 56.7568 42.9523 57.8514 42.9523 59.1968C42.9523 60.5421 41.8577 61.6374 40.5117 61.6374Z" fill="white"/>
<defs>
<linearGradient id="paint0_linear_802_14099" x1="50" y1="0.63623" x2="50" y2="100.636" gradientUnits="userSpaceOnUse">
<stop stop-color="#1ACC40"/>
<stop offset="1" stop-color="#82DA48"/>
</linearGradient>
<linearGradient id="paint1_linear_802_14099" x1="50" y1="100.636" x2="50" y2="0.63623" gradientUnits="userSpaceOnUse">
<stop stop-color="#1ABE3C"/>
<stop offset="1" stop-color="#96F557"/>
</linearGradient>
</defs>
</svg>
