<svg width="65" height="92" viewBox="0 0 65 92" fill="none" xmlns="http://www.w3.org/2000/svg">
<path d="M0.72831 78.2605C29.6563 58.2072 44.1203 41.5672 44.1203 28.3405C44.1203 24.3298 43.139 21.1725 41.1763 18.8685C39.299 16.5645 36.3123 15.4125 32.2163 15.4125C23.7683 15.4125 19.2883 21.1725 18.7763 32.6925H1.24031C1.75231 22.0258 4.99498 13.9618 10.9683 8.5005C16.9416 2.95384 24.4936 0.180504 33.6243 0.180504C42.9256 0.180504 50.051 2.6125 55.0003 7.4765C60.035 12.2552 62.5523 18.6552 62.5523 26.6765C62.5523 32.9912 60.675 39.3485 56.9203 45.7485C53.251 52.0632 48.5576 57.9085 42.8403 63.2845C37.123 68.5752 31.107 73.1405 24.7923 76.9805H64.3443V91.7005H0.72831V78.2605Z" fill="#D9D9D9"/>
</svg>
