<svg width="65" height="98" viewBox="0 0 65 98" fill="none" xmlns="http://www.w3.org/2000/svg">
<path d="M2.03231 27.7325C2.45898 19.1992 5.44564 12.6285 10.9923 8.0205C16.6243 3.32717 24.0056 0.980499 33.1363 0.980499C39.3656 0.980499 44.699 2.08983 49.1363 4.3085C53.5736 6.44183 56.9016 9.38583 59.1203 13.1405C61.4243 16.8098 62.5763 20.9912 62.5763 25.6845C62.5763 31.0605 61.1683 35.6258 58.3523 39.3805C55.6216 43.0498 52.3363 45.5245 48.4963 46.8045V47.3165C53.4456 48.8525 57.2856 51.5832 60.0163 55.5085C62.8323 59.4338 64.2403 64.4685 64.2403 70.6125C64.2403 75.7325 63.0456 80.2978 60.6563 84.3085C58.3523 88.3192 54.8963 91.4765 50.2883 93.7805C45.7656 95.9992 40.3043 97.1085 33.9043 97.1085C24.2616 97.1085 16.411 94.6765 10.3523 89.8125C4.29364 84.9485 1.09364 77.7805 0.75231 68.3085H18.1603C18.331 72.4898 19.739 75.8605 22.3843 78.4205C25.115 80.8952 28.827 82.1325 33.5203 82.1325C37.8723 82.1325 41.2003 80.9378 43.5043 78.5485C45.8936 76.0738 47.0883 72.9165 47.0883 69.0765C47.0883 63.9565 45.467 60.2872 42.2243 58.0685C38.9816 55.8498 33.947 54.7405 27.1203 54.7405H23.4083V40.0205H27.1203C39.2376 40.0205 45.2963 35.9672 45.2963 27.8605C45.2963 24.1912 44.187 21.3325 41.9683 19.2845C39.835 17.2365 36.7203 16.2125 32.6243 16.2125C28.6136 16.2125 25.499 17.3218 23.2803 19.5405C21.147 21.6738 19.9096 24.4045 19.5683 27.7325H2.03231Z" fill="#D9D9D9"/>
</svg>
