<svg width="36" height="40" viewBox="0 0 36 40" fill="none" xmlns="http://www.w3.org/2000/svg">
    <path
        d="M17.8556 21.5531C17.8971 21.5531 17.9385 21.5531 17.9882 21.5531C18.0047 21.5531 18.0213 21.5531 18.0379 21.5531C18.0627 21.5531 18.0959 21.5531 18.1207 21.5531C20.5477 21.5117 22.5109 20.6585 23.9604 19.0267C27.1495 15.4318 26.6194 9.269 26.5614 8.68089C26.3543 4.26589 24.2669 2.15366 22.544 1.16794C21.2601 0.430731 19.7608 0.0331332 18.0876 0H18.0296C18.0213 0 18.0047 0 17.9965 0H17.9468C17.0273 0 15.2216 0.149099 13.4904 1.13481C11.7509 2.12052 9.63034 4.23276 9.42326 8.68089C9.36527 9.269 8.83514 15.4318 12.0242 19.0267C13.4655 20.6585 15.4286 21.5117 17.8556 21.5531ZM11.6349 8.88797C11.6349 8.86312 11.6432 8.83827 11.6432 8.8217C11.9165 2.88258 16.1327 2.24477 17.9385 2.24477H17.9716C17.9882 2.24477 18.013 2.24477 18.0379 2.24477C20.2744 2.29447 24.0764 3.20563 24.3332 8.8217C24.3332 8.84655 24.3332 8.8714 24.3415 8.88797C24.3497 8.94595 24.9296 14.5786 22.2955 17.544C21.2518 18.7202 19.8602 19.3001 18.0296 19.3166C18.013 19.3166 18.0047 19.3166 17.9882 19.3166C17.9716 19.3166 17.9633 19.3166 17.9468 19.3166C16.1244 19.3001 14.7246 18.7202 13.6892 17.544C11.0633 14.5952 11.6266 8.93767 11.6349 8.88797Z"
        fill="black" />
    <path
        d="M35.01 31.7749C35.01 31.7666 35.01 31.7583 35.01 31.75C35.01 31.6838 35.0017 31.6175 35.0017 31.5429C34.952 29.9029 34.8443 26.0677 31.2494 24.8418C31.2245 24.8335 31.1914 24.8252 31.1666 24.8169C27.4308 23.8643 24.3246 21.7107 24.2914 21.6858C23.7861 21.3296 23.0904 21.4539 22.7342 21.9592C22.378 22.4645 22.5022 23.1603 23.0075 23.5164C23.1483 23.6158 26.4451 25.9103 30.5702 26.9706C32.5002 27.6581 32.7155 29.7206 32.7735 31.6092C32.7735 31.6838 32.7735 31.75 32.7818 31.8163C32.7901 32.5618 32.7404 33.7132 32.6078 34.3758C31.266 35.1379 26.0061 37.772 18.0044 37.772C10.0359 37.772 4.74287 35.1296 3.39269 34.3675C3.26016 33.7049 3.20217 32.5535 3.21874 31.808C3.21874 31.7417 3.22702 31.6755 3.22702 31.6009C3.28501 29.7123 3.50037 27.6498 5.43038 26.9623C9.55546 25.902 12.8522 23.5993 12.993 23.5082C13.4983 23.152 13.6226 22.4562 13.2664 21.9509C12.9102 21.4456 12.2144 21.3214 11.7091 21.6775C11.676 21.7024 8.58631 23.8561 4.83398 24.8086C4.80085 24.8169 4.776 24.8252 4.75115 24.8335C1.1562 26.0677 1.04852 29.9029 0.998819 31.5347C0.998819 31.6092 0.998819 31.6755 0.990536 31.7417C0.990536 31.75 0.990536 31.7583 0.990536 31.7666C0.982252 32.1973 0.973969 34.409 1.41298 35.5189C1.49582 35.7343 1.64492 35.9165 1.84371 36.0408C2.09221 36.2064 8.0479 40.0002 18.0127 40.0002C27.9775 40.0002 33.9332 36.1982 34.1817 36.0408C34.3722 35.9165 34.5296 35.7343 34.6124 35.5189C35.0266 34.4172 35.0183 32.2056 35.01 31.7749Z"
        fill="black" />
</svg>