<svg width="40" height="40" viewBox="0 0 40 40" fill="none" xmlns="http://www.w3.org/2000/svg">
<g clip-path="url(#clip0_2423_5338)">
<path d="M35.6364 0C33.2298 0 31.2727 1.95709 31.2727 4.36364C31.2727 5.11636 31.464 5.82473 31.8007 6.44364L24.6524 13.592C23.6669 12.8247 22.4335 12.3636 21.0909 12.3636C19.7484 12.3636 18.5149 12.8247 17.5287 13.5913L11.9513 8.01382C12.2073 7.58109 12.3636 7.08364 12.3636 6.54545C12.3636 4.94109 11.0589 3.63636 9.45455 3.63636C7.85018 3.63636 6.54545 4.94109 6.54545 6.54545C6.54545 8.14982 7.85018 9.45455 9.45455 9.45455C9.99273 9.45455 10.4902 9.29818 10.9229 9.04218L16.5004 14.6196C15.7338 15.6058 15.2727 16.8393 15.2727 18.1818C15.2727 19.5244 15.7338 20.7578 16.5004 21.7433L7.29018 30.9542C6.51491 30.2509 5.49018 29.8182 4.36364 29.8182C1.95709 29.8182 0 31.7753 0 34.1818C0 36.5884 1.95709 38.5455 4.36364 38.5455C6.77018 38.5455 8.72727 36.5884 8.72727 34.1818C8.72727 33.4291 8.536 32.7207 8.19927 32.1018L17.5295 22.7716C18.3338 23.3971 19.304 23.816 20.3644 23.9491V31.3382C18.304 31.6858 16.728 33.4778 16.728 35.6364C16.728 38.0429 18.6851 40 21.0916 40C23.4982 40 25.4553 38.0429 25.4553 35.6364C25.4553 33.4785 23.8793 31.6865 21.8189 31.3382V23.9491C22.8793 23.816 23.8495 23.3971 24.6538 22.7716L30.2313 28.3491C29.9745 28.7825 29.8182 29.28 29.8182 29.8182C29.8182 31.4225 31.1229 32.7273 32.7273 32.7273C34.3316 32.7273 35.6364 31.4225 35.6364 29.8182C35.6364 28.2138 34.3316 26.9091 32.7273 26.9091C32.1891 26.9091 31.6916 27.0655 31.2589 27.3215L25.6815 21.744C26.448 20.7578 26.9091 19.5244 26.9091 18.1818C26.9091 16.8393 26.448 15.6058 25.6815 14.6204L32.7105 7.59127C33.4851 8.29455 34.5098 8.72727 35.6364 8.72727C38.0429 8.72727 40 6.77018 40 4.36364C40 1.95709 38.0429 0 35.6364 0ZM8 6.54545C8 5.74327 8.65236 5.09091 9.45455 5.09091C10.2567 5.09091 10.9091 5.74327 10.9091 6.54545C10.9091 7.34764 10.2567 8 9.45455 8C8.65236 8 8 7.34764 8 6.54545ZM4.36364 37.0909C2.75927 37.0909 1.45455 35.7862 1.45455 34.1818C1.45455 32.5775 2.75927 31.2727 4.36364 31.2727C5.968 31.2727 7.27273 32.5775 7.27273 34.1818C7.27273 35.7862 5.968 37.0909 4.36364 37.0909ZM24 35.6364C24 37.2407 22.6953 38.5455 21.0909 38.5455C19.4865 38.5455 18.1818 37.2407 18.1818 35.6364C18.1818 34.032 19.4865 32.7273 21.0909 32.7273C22.6953 32.7273 24 34.032 24 35.6364ZM21.0909 22.5455C18.6844 22.5455 16.7273 20.5884 16.7273 18.1818C16.7273 15.7753 18.6844 13.8182 21.0909 13.8182C23.4975 13.8182 25.4545 15.7753 25.4545 18.1818C25.4545 20.5884 23.4975 22.5455 21.0909 22.5455ZM34.1818 29.8182C34.1818 30.6204 33.5295 31.2727 32.7273 31.2727C31.9251 31.2727 31.2727 30.6204 31.2727 29.8182C31.2727 29.016 31.9251 28.3636 32.7273 28.3636C33.5295 28.3636 34.1818 29.016 34.1818 29.8182ZM35.6364 7.27273C34.032 7.27273 32.7273 5.968 32.7273 4.36364C32.7273 2.75927 34.032 1.45455 35.6364 1.45455C37.2407 1.45455 38.5455 2.75927 38.5455 4.36364C38.5455 5.968 37.2407 7.27273 35.6364 7.27273Z" fill="black"/>
</g>
<defs>
<clipPath id="clip0_2423_5338">
<rect width="40" height="40" fill="white"/>
</clipPath>
</defs>
</svg>
