<svg width="40" height="40" viewBox="0 0 40 40" fill="none" xmlns="http://www.w3.org/2000/svg">
<g clip-path="url(#clip0_2423_5169)">
<path d="M22.4967 39.9997H17.4967C16.3301 39.9997 14.9967 38.9997 14.9967 36.9997V33.4997C14.9967 31.833 14.1634 30.333 12.8301 29.1663C9.83008 26.833 8.33008 23.4997 8.33008 19.833C8.49674 13.4997 13.6634 8.49967 19.8301 8.33301C22.9967 8.33301 25.9967 9.49967 28.1634 11.6663C30.3301 13.833 31.6634 16.833 31.6634 19.9997C31.6634 23.4997 30.1634 26.833 27.3301 28.9997C25.8301 30.1663 24.9967 31.9997 24.9967 33.6663V37.4997C24.9967 38.833 23.8301 39.9997 22.4967 39.9997ZM19.9967 9.99967C14.6634 9.99967 10.1634 14.4997 9.99675 19.833C9.99675 22.9997 11.3301 25.9997 13.8301 27.833C15.6634 29.333 16.6634 31.333 16.6634 33.4997V36.9997C16.6634 37.333 16.6634 38.333 17.4967 38.333H22.4967C22.9967 38.333 23.3301 37.9997 23.3301 37.4997V33.6663C23.3301 31.4997 24.4967 29.1663 26.3301 27.6663C28.6634 25.833 29.9967 22.9997 29.9967 19.9997C29.9967 17.333 28.9967 14.833 26.9967 12.833C25.1634 10.9997 22.6634 9.99967 19.9967 9.99967Z" fill="black"/>
<path d="M24.1667 34.9997H15.8333C15.3333 34.9997 15 34.6663 15 34.1663C15 33.6663 15.3333 33.333 15.8333 33.333H24.1667C24.6667 33.333 25 33.6663 25 34.1663C25 34.6663 24.6667 34.9997 24.1667 34.9997Z" fill="black"/>
<path d="M19.9993 5C19.4993 5 19.166 4.66667 19.166 4.16667V0.833333C19.166 0.333333 19.4993 0 19.9993 0C20.4993 0 20.8327 0.333333 20.8327 0.833333V4.16667C20.8327 4.66667 20.4993 5 19.9993 5Z" fill="black"/>
<path d="M31.1647 9.66618C30.998 9.66618 30.6647 9.66618 30.498 9.49951C30.1647 9.16618 30.1647 8.66618 30.498 8.33285L32.8314 5.99951C33.1647 5.66618 33.6647 5.66618 33.998 5.99951C34.3314 6.33285 34.3314 6.83285 33.998 7.16618L31.6647 9.49951C31.6647 9.49951 31.3314 9.66618 31.1647 9.66618Z" fill="black"/>
<path d="M39.1667 20.8332H35.8333C35.3333 20.8332 35 20.4998 35 19.9998C35 19.4998 35.3333 19.1665 35.8333 19.1665H39.1667C39.6667 19.1665 40 19.4998 40 19.9998C40 20.4998 39.6667 20.8332 39.1667 20.8332Z" fill="black"/>
<path d="M33.498 34.3332C33.3314 34.3332 32.998 34.3332 32.8314 34.1665L30.498 31.8332C30.1647 31.4998 30.1647 30.9998 30.498 30.6665C30.8314 30.3332 31.3314 30.3332 31.6647 30.6665L33.998 32.9998C34.3314 33.3332 34.3314 33.8332 33.998 34.1665C33.998 34.3332 33.8314 34.3332 33.498 34.3332Z" fill="black"/>
<path d="M6.50065 34.3332C6.33398 34.3332 6.00065 34.3332 5.83398 34.1665C5.50065 33.8332 5.50065 33.3332 5.83398 32.9998L8.16732 30.6665C8.50065 30.3332 9.00065 30.3332 9.33398 30.6665C9.66732 30.9998 9.66732 31.4998 9.33398 31.8332L7.00065 34.1665C6.83398 34.3332 6.66732 34.3332 6.50065 34.3332Z" fill="black"/>
<path d="M4.16667 20.8332H0.833333C0.333333 20.8332 0 20.4998 0 19.9998C0 19.4998 0.333333 19.1665 0.833333 19.1665H4.16667C4.66667 19.1665 5 19.4998 5 19.9998C5 20.4998 4.66667 20.8332 4.16667 20.8332Z" fill="black"/>
<path d="M8.83398 9.66683C8.66732 9.66683 8.33398 9.66683 8.16732 9.50016L5.83398 7.00016C5.50065 6.66683 5.50065 6.16683 5.83398 5.8335C6.16732 5.50016 6.66732 5.50016 7.00065 5.8335L9.33398 8.16683C9.66732 8.50016 9.66732 9.00016 9.33398 9.3335C9.16732 9.50016 9.00065 9.66683 8.83398 9.66683Z" fill="black"/>
<path d="M26.666 20.8333C26.166 20.8333 25.8327 20.5 25.8327 20C25.8327 16.8333 23.166 14.1667 19.9993 14.1667C19.4993 14.1667 19.166 13.8333 19.166 13.3333C19.166 12.8333 19.4993 12.5 19.9993 12.5C24.166 12.5 27.4993 15.8333 27.4993 20C27.4993 20.5 27.166 20.8333 26.666 20.8333Z" fill="black"/>
</g>
<defs>
<clipPath id="clip0_2423_5169">
<rect width="40" height="40" fill="white"/>
</clipPath>
</defs>
</svg>
