<svg width="40" height="40" viewBox="0 0 40 40" fill="none" xmlns="http://www.w3.org/2000/svg">
<g clip-path="url(#clip0_2423_5341)">
<path d="M39.8925 15.3171C39.5844 14.3686 38.6636 13.7166 37.3667 13.5281L27.0815 12.0335L22.4818 2.71358C21.9017 1.53825 20.9971 0.864258 19.9999 0.864258C19.0027 0.864258 18.0982 1.53833 17.5182 2.71358L12.9186 12.0334L2.63332 13.5281C1.33627 13.7166 0.415705 14.3685 0.107497 15.317C-0.200633 16.2654 0.160857 17.334 1.09931 18.2488L8.54177 25.5033L6.78479 35.7472C6.55377 37.0947 6.9462 37.9005 7.31605 38.3391C7.74871 38.8523 8.37989 39.1349 9.09334 39.1349C9.6328 39.1349 10.2072 38.9767 10.8004 38.6647L20 33.8282L29.1995 38.6646C29.7929 38.9767 30.3672 39.1349 30.9068 39.1349C31.6203 39.1349 32.2516 38.8522 32.6843 38.3391C33.0541 37.9004 33.4465 37.0946 33.2154 35.7471L31.4581 25.5033L38.9007 18.2488C39.8391 17.334 40.2006 16.2655 39.8925 15.3171ZM37.2646 16.5704L29.3809 24.255C29.1047 24.5242 28.9787 24.9121 29.0439 25.2923L30.9053 36.1432C30.9652 36.4927 30.9349 36.7022 30.9066 36.791C30.8359 36.7909 30.6348 36.7712 30.2903 36.5901L20.5454 31.4669C20.3746 31.3772 20.1873 31.3323 20.0001 31.3323C19.8128 31.3323 19.6255 31.3772 19.4548 31.4669L9.70976 36.5901C9.36569 36.7711 9.16467 36.7909 9.09389 36.791C9.06553 36.7022 9.03514 36.4927 9.09506 36.1432L10.9562 25.2922C11.0213 24.9121 10.8953 24.5242 10.6191 24.2549L2.73543 16.5703C2.48121 16.3225 2.38269 16.135 2.35363 16.0467C2.42902 15.9924 2.61894 15.8986 2.97043 15.8475L13.8656 14.2642C14.2473 14.2087 14.5773 13.9689 14.748 13.6231L19.6202 3.75063C19.7773 3.43235 19.9251 3.2807 20.0002 3.2257C20.0752 3.2807 20.2231 3.43235 20.3802 3.75071L25.2525 13.6231C25.4233 13.9689 25.7531 14.2087 26.1349 14.2642L37.0299 15.8475C37.3813 15.8985 37.5712 15.9923 37.6466 16.0467C37.6174 16.135 37.5189 16.3226 37.2646 16.5704Z" fill="black"/>
</g>
<defs>
<clipPath id="clip0_2423_5341">
<rect width="40" height="40" fill="white"/>
</clipPath>
</defs>
</svg>
