<svg width="40" height="40" viewBox="0 0 40 40" fill="none" xmlns="http://www.w3.org/2000/svg">
<path d="M23.1511 19.9414H33.6546C34.9789 19.9414 36.064 21.0265 36.064 22.3508C36.064 23.6773 34.9789 24.7602 33.6546 24.7602C34.9789 24.7602 36.064 25.8452 36.064 27.1695C36.064 28.496 34.9789 29.5789 33.6546 29.5789C34.9789 29.5789 36.064 30.664 36.064 31.9883C36.064 33.3148 34.9789 34.3999 33.6546 34.3999H31.821C33.1453 34.3999 34.2304 35.4828 34.2304 36.8093C34.2304 38.1336 33.1453 39.2187 31.821 39.2187H20.9234C18.3988 39.2187 13.9366 37.9609 11.9922 36.3177" stroke="black" stroke-width="1.5625" stroke-miterlimit="10" stroke-linecap="round" stroke-linejoin="round"/>
<path d="M11.9922 22.3664C16.6028 19.4255 18.0135 15.9199 18.8993 10.326C19.1784 8.55437 19.6988 6.86695 22.2255 8.12921C23.8842 8.95741 25.3215 11.7522 24.5065 14.8259L23.1512 19.9415" stroke="black" stroke-width="1.5625" stroke-miterlimit="10" stroke-linecap="round" stroke-linejoin="round"/>
<path d="M33.6533 24.7603H30.3691" stroke="black" stroke-width="1.5625" stroke-miterlimit="10" stroke-linecap="round" stroke-linejoin="round"/>
<path d="M33.6533 29.5791H30.3691" stroke="black" stroke-width="1.5625" stroke-miterlimit="10" stroke-linecap="round" stroke-linejoin="round"/>
<path d="M31.8196 34.3999H30.3691" stroke="black" stroke-width="1.5625" stroke-miterlimit="10" stroke-linecap="round" stroke-linejoin="round"/>
<path d="M10.6055 38.5874H5.32383C4.56203 38.5874 3.9375 37.9629 3.9375 37.2011V21.4825C3.9375 20.7207 4.56203 20.0962 5.32383 20.0962H10.6055C11.3673 20.0962 11.9918 20.7207 11.9918 21.4825V37.2012C11.9918 37.963 11.3673 38.5874 10.6055 38.5874Z" stroke="black" stroke-width="1.5625" stroke-miterlimit="10" stroke-linecap="round" stroke-linejoin="round"/>
<path d="M11.9922 22.3662V36.3177" stroke="black" stroke-width="1.5625" stroke-miterlimit="10" stroke-linecap="round" stroke-linejoin="round"/>
<path d="M8.14648 24.4277V24.4321" stroke="black" stroke-width="1.5625" stroke-miterlimit="10" stroke-linecap="round" stroke-linejoin="round"/>
<path d="M14.6073 4.49932L13.2188 3.26807M28.7625 4.49932L30.151 3.26807" stroke="black" stroke-width="1.5625" stroke-miterlimit="10" stroke-linecap="round" stroke-linejoin="round"/>
<path d="M21.6836 2.63703V0.78125" stroke="black" stroke-width="1.5625" stroke-miterlimit="10" stroke-linecap="round" stroke-linejoin="round"/>
<path d="M10.2188 10.0269L12.0745 10.1044" stroke="black" stroke-width="1.5625" stroke-miterlimit="10" stroke-linecap="round" stroke-linejoin="round"/>
<path d="M33.1487 10.0269L31.293 10.1044" stroke="black" stroke-width="1.5625" stroke-miterlimit="10" stroke-linecap="round" stroke-linejoin="round"/>
</svg>
