<svg width="587" height="43" viewBox="0 0 587 43" fill="none" xmlns="http://www.w3.org/2000/svg">
<path d="M0.824989 1.06689H17.9025C17.9463 1.69981 17.9463 2.335 17.9025 2.96793V3.95859C17.9185 4.27969 17.9185 4.6014 17.9025 4.9225H5.18805V13.8386H15.2793C15.3515 14.1464 15.3963 14.46 15.4131 14.7757C15.4131 15.097 15.4131 15.4183 15.4131 15.7396C15.4131 16.0609 15.4131 16.3823 15.4131 16.7303C15.3979 17.055 15.353 17.3777 15.2793 17.6942H5.18805V28.4043H18.1969C18.2399 29.0372 18.2399 29.6724 18.1969 30.3053V31.296C18.213 31.6171 18.213 31.9388 18.1969 32.2599H0.771484L0.824989 1.06689Z" fill="#333232"/>
<path d="M34.6326 20.6387L29.413 9.92862C30.1571 9.81606 30.9089 9.76235 31.6614 9.76798H32.8392H34.0704L38.6744 20.478L33.1336 31.9378H32.0362H29.8145H28.6367L34.6326 20.6387Z" fill="#20448F"/>
<path d="M39.1015 20.693L43.7322 9.98297H44.9368H46.1681C46.885 9.97812 47.6012 10.0319 48.3094 10.1436L43.1701 20.693L49.1928 32.3402H48.015H46.864C46.1382 32.3456 45.413 32.2918 44.6959 32.1796L39.1015 20.693Z" fill="#EB4724"/>
<path d="M61.1577 9.95533H62.041H62.9779H63.8879H64.7981C64.8079 10.1426 64.8079 10.3303 64.7981 10.5176C64.7981 10.8121 64.7981 11.1334 64.7981 11.4815C64.7981 11.8296 64.7981 12.1509 64.9319 12.4722C64.9437 12.6773 64.9437 12.8829 64.9319 13.088C65.2316 12.6061 65.5815 12.1574 65.9758 11.7493C66.4037 11.2946 66.8897 10.8985 67.4212 10.5711C68.0143 10.2098 68.6536 9.93061 69.3217 9.74112C70.0904 9.53927 70.8825 9.44023 71.6772 9.44659C72.9024 9.43517 74.1189 9.65311 75.264 10.0892C76.3651 10.5205 77.3471 11.2091 78.1281 12.0973C78.989 13.1098 79.6192 14.2975 79.975 15.5781C80.4648 17.1734 80.6997 18.8361 80.6709 20.5047C80.7672 22.1264 80.5424 23.7511 80.0096 25.2858C79.4768 26.8204 78.6464 28.2347 77.5659 29.4476C76.4089 30.5602 75.0335 31.4203 73.5268 31.9733C72.0201 32.5264 70.415 32.7605 68.8131 32.6606C68.1628 32.7129 67.5094 32.7129 66.8591 32.6606C66.2783 32.5994 65.7047 32.4828 65.146 32.3125V42.4871H64.0486H61.934H60.8633L61.1577 9.95533ZM65.4404 28.5105C65.9828 28.722 66.5492 28.8658 67.1268 28.9389C67.8748 29.0042 68.6272 29.0042 69.3752 28.9389C70.3423 28.9504 71.3035 28.7872 72.2125 28.4569C73.072 28.1201 73.8416 27.5885 74.461 26.904C75.1239 26.1219 75.6162 25.2099 75.9064 24.2264C76.3039 23.0176 76.494 21.7502 76.4685 20.478C76.5419 18.6086 76.0972 16.7553 75.1837 15.1229C74.7345 14.4399 74.1097 13.8904 73.375 13.5324C72.6402 13.1743 71.8226 13.0208 71.008 13.088C70.3012 13.0845 69.6007 13.221 68.947 13.4896C68.2753 13.7439 67.6644 14.1361 67.1535 14.641C66.6025 15.2029 66.1821 15.8794 65.9223 16.6223C65.5793 17.5189 65.4156 18.4741 65.4404 19.4337V28.5105Z" fill="#333232"/>
<path d="M97.6688 22.1128C97.6121 23.0871 97.7511 24.0629 98.0775 24.9827C98.4039 25.9024 98.9111 26.7474 99.5692 27.4679C101.062 28.7127 102.986 29.3188 104.923 29.1547C106.92 29.1631 108.9 28.7905 110.758 28.0569C111.017 28.555 111.206 29.0866 111.32 29.6367C111.473 30.2416 111.562 30.8607 111.588 31.4841C110.58 31.9018 109.53 32.2071 108.456 32.3945C107.208 32.5952 105.946 32.6937 104.682 32.689C102.914 32.7366 101.153 32.4551 99.4889 31.859C98.1342 31.3503 96.9156 30.5347 95.9289 29.476C94.9724 28.4359 94.2673 27.1901 93.8678 25.8346C93.4242 24.3404 93.2077 22.7879 93.2254 21.2293C93.22 19.6733 93.4271 18.1238 93.841 16.624C94.2373 15.2706 94.8917 14.0067 95.7683 12.9022C96.6562 11.8376 97.7723 10.9865 99.0339 10.4121C100.498 9.75998 102.089 9.43997 103.691 9.47501C105.069 9.45003 106.437 9.71456 107.706 10.2515C108.815 10.7462 109.801 11.4772 110.597 12.3935C111.398 13.3436 111.999 14.4455 112.364 15.6333C112.78 16.9586 112.988 18.3406 112.98 19.7299C112.98 20.1315 112.98 20.5599 112.98 20.9883C112.98 21.4167 112.98 21.8183 112.98 22.1396L97.6688 22.1128ZM108.67 18.9266C108.677 18.1367 108.559 17.3507 108.322 16.5972C108.131 15.9025 107.813 15.2489 107.385 14.6694C106.882 14.1109 106.271 13.6606 105.589 13.3458C104.906 13.0311 104.167 12.8584 103.416 12.8384C102.665 12.8184 101.918 12.9514 101.219 13.2293C100.521 13.5072 99.887 13.9243 99.3551 14.4552C98.3428 15.7368 97.7452 17.2966 97.642 18.9266H108.67Z" fill="#333232"/>
<path d="M126.281 9.95665H127.191H128.101H129.065H129.922C129.922 10.4118 130.082 10.9741 130.189 11.6703C130.265 12.2655 130.31 12.8643 130.323 13.4642C130.928 12.4196 131.738 11.5087 132.705 10.7867C133.834 10.0287 135.175 9.65331 136.533 9.71567H137.256H137.871C137.931 9.98969 137.976 10.2668 138.005 10.5457C138.005 10.8134 138.005 11.1347 138.005 11.4293C138.031 11.7947 138.031 12.1616 138.005 12.5271C138.005 12.9019 138.005 13.25 137.871 13.5981C137.631 13.5718 137.389 13.5718 137.149 13.5981H136.56C135.807 13.5938 135.059 13.7021 134.338 13.9194C133.619 14.1402 132.966 14.5357 132.438 15.0707C131.812 15.6981 131.353 16.4709 131.099 17.3198C130.718 18.5037 130.546 19.745 130.591 20.988V32.0193H129.547H127.432H126.308L126.281 9.95665Z" fill="#333232"/>
<path d="M151.443 13.3289H148.767C148.702 13.0738 148.658 12.8142 148.633 12.5524C148.633 12.2311 148.633 11.9366 148.633 11.642C148.633 11.3475 148.633 11.0797 148.633 10.7584C148.66 10.4881 148.705 10.2198 148.767 9.95521H155.78V32.1518H154.709H152.407H151.336L151.443 13.3289ZM150.507 5.08213C150.464 4.70847 150.464 4.33122 150.507 3.95756C150.507 3.55593 150.507 3.20787 150.507 2.88657C150.507 2.56527 150.507 2.19041 150.507 1.78878C150.463 1.43312 150.463 1.07344 150.507 0.717773H151.711H152.835H153.96H155.11C155.154 1.07344 155.154 1.43312 155.11 1.78878C155.11 2.19041 155.11 2.56527 155.11 2.88657C155.11 3.20787 155.11 3.55593 155.11 3.95756C155.153 4.33122 155.153 4.70847 155.11 5.08213H153.986H151.711H150.507Z" fill="#333232"/>
<path d="M173.58 22.111C173.514 23.084 173.646 24.0603 173.968 24.9808C174.29 25.9013 174.796 26.7468 175.454 27.466C176.953 28.7007 178.872 29.3054 180.808 29.1528C182.804 29.1529 184.783 28.7806 186.643 28.055C186.902 28.5531 187.091 29.0848 187.205 29.6348C187.345 30.2422 187.434 30.8601 187.473 31.4823C186.463 31.8928 185.413 32.1979 184.341 32.3926C183.084 32.5933 181.813 32.6917 180.54 32.6872C178.781 32.7345 177.029 32.453 175.374 31.8571C174.011 31.3487 172.784 30.5333 171.787 29.4741C170.839 28.4325 170.143 27.1866 169.753 25.8327C169.287 24.3428 169.061 22.7883 169.084 21.2274C169.073 19.6693 169.29 18.1179 169.726 16.6221C170.1 15.26 170.757 13.9919 171.653 12.9003C172.541 11.8357 173.657 10.9846 174.919 10.4103C176.373 9.75687 177.955 9.4367 179.55 9.47313C180.927 9.44815 182.295 9.71268 183.565 10.2496C184.673 10.7443 185.659 11.4754 186.455 12.3916C187.274 13.3336 187.885 14.4375 188.249 15.6314C188.656 16.9581 188.855 18.3402 188.838 19.728C188.838 20.1296 188.838 20.558 188.838 20.9864C188.857 21.3699 188.857 21.7542 188.838 22.1378L173.58 22.111ZM184.555 18.9247C184.557 18.1371 184.449 17.353 184.234 16.5953C184.033 15.8991 183.707 15.2457 183.27 14.6675C182.845 14.1206 182.306 13.6729 181.691 13.3555C180.961 13.0223 180.165 12.8575 179.362 12.8736C178.614 12.8297 177.866 12.9482 177.168 13.2209C176.471 13.4935 175.84 13.914 175.32 14.4533C174.304 15.7303 173.714 17.2944 173.634 18.9247H184.555Z" fill="#333232"/>
<path d="M202.197 9.95549H203.134H204.044H204.927H205.838C205.838 10.4107 205.998 10.9729 206.078 11.7226C206.111 12.338 206.111 12.9547 206.078 13.5701C206.394 13.0436 206.762 12.5502 207.176 12.0975C207.637 11.5892 208.158 11.1395 208.728 10.7587C210.048 9.89424 211.594 9.43792 213.172 9.44676C214.214 9.35727 215.263 9.50873 216.238 9.88943C217.213 10.2701 218.087 10.8699 218.793 11.6423C220.135 13.5143 220.779 15.7975 220.613 18.0951V32.1521H219.516H217.374H216.33V19.1929C216.444 17.6237 216.11 16.0544 215.367 14.6679C215.036 14.1801 214.582 13.789 214.05 13.5349C213.519 13.2808 212.929 13.1728 212.342 13.222C211.563 13.2114 210.789 13.3571 210.067 13.6505C209.336 13.9386 208.684 14.3977 208.166 14.9892C207.568 15.6781 207.114 16.479 206.828 17.3454C206.482 18.4725 206.32 19.6476 206.346 20.8262V32.0717H205.275H203.268H202.197V9.95549Z" fill="#333232"/>
<path d="M249.73 28.2961C249.995 28.7786 250.202 29.2909 250.346 29.8223C250.513 30.4251 250.612 31.0449 250.64 31.6698C248.774 32.3631 246.795 32.6991 244.805 32.6605C243.269 32.7695 241.729 32.546 240.288 32.0054C238.846 31.4648 237.539 30.6197 236.453 29.5278C234.53 27.1444 233.574 24.1235 233.777 21.0668C233.769 19.5137 234.004 17.9689 234.473 16.4883C234.905 15.1389 235.606 13.8911 236.534 12.8201C237.473 11.7604 238.634 10.9195 239.933 10.3568C241.42 9.71693 243.027 9.40638 244.644 9.44643C245.71 9.44086 246.774 9.51245 247.83 9.66063C248.742 9.80542 249.639 10.0386 250.506 10.3568C250.491 10.9336 250.42 11.5076 250.292 12.0704C250.195 12.6638 250.014 13.2407 249.757 13.784C248.197 13.2563 246.558 13.0027 244.912 13.0343C243.97 12.9703 243.027 13.1368 242.164 13.5193C241.302 13.9019 240.545 14.489 239.96 15.2298C238.788 16.9435 238.205 18.9925 238.3 21.0668C238.102 23.2604 238.775 25.4438 240.174 27.1448C240.842 27.8016 241.639 28.3122 242.514 28.6441C243.39 28.976 244.325 29.122 245.26 29.0726C246.066 29.077 246.871 29.0233 247.669 28.9119C248.373 28.7687 249.063 28.5626 249.73 28.2961Z" fill="#333232"/>
<path d="M265.954 22.1128C265.887 23.0858 266.019 24.0621 266.341 24.9826C266.663 25.9031 267.169 26.7486 267.827 27.4678C269.322 28.7101 271.244 29.3158 273.181 29.1546C275.177 29.1547 277.156 28.7824 279.016 28.0569C279.252 28.5647 279.441 29.0936 279.578 29.6366C279.709 30.2447 279.79 30.8626 279.819 31.4841C278.812 31.9018 277.762 32.2071 276.687 32.3944C275.419 32.5634 274.139 32.626 272.86 32.5819C271.092 32.627 269.332 32.3456 267.667 31.7518C266.312 31.2432 265.094 30.4275 264.107 29.3689C263.15 28.3287 262.445 27.083 262.046 25.7274C261.602 24.2332 261.386 22.6807 261.403 21.1221C261.441 19.5599 261.694 18.0104 262.153 16.5168C262.549 15.1634 263.204 13.8996 264.08 12.795C264.974 11.7362 266.088 10.8862 267.346 10.305C268.81 9.65281 270.401 9.33279 272.003 9.36783C273.381 9.34285 274.749 9.60738 276.018 10.1443C277.126 10.639 278.113 11.3701 278.909 12.2863C279.71 13.2364 280.311 14.3383 280.676 15.5261C281.092 16.8514 281.3 18.2335 281.291 19.6227C281.291 20.0243 281.291 20.4527 281.291 20.8811C281.291 21.3095 281.291 21.7112 281.291 22.0325L265.954 22.1128ZM276.928 18.9266C276.93 18.1389 276.822 17.3548 276.607 16.5971C276.407 15.9009 276.08 15.2475 275.643 14.6693C275.208 14.1217 274.661 13.6743 274.037 13.3573C272.988 12.9046 271.829 12.7673 270.702 12.9622C269.576 13.1572 268.53 13.6759 267.694 14.4551C266.681 15.7367 266.084 17.2965 265.981 18.9266H276.928Z" fill="#333232"/>
<path d="M313.012 1.06689H314.083H315.207H316.331H317.429V32.1528H316.358H314.056H313.012V1.06689Z" fill="#EB4724"/>
<path d="M338.092 4.9225H330.062C329.988 4.60592 329.943 4.28329 329.928 3.95859C329.928 3.61051 329.928 3.28923 329.928 2.96792C329.928 2.64662 329.928 2.32532 329.928 2.00402C329.942 1.68807 329.987 1.37425 330.062 1.06689H350.485C350.485 1.36142 350.485 1.65594 350.619 1.97724C350.753 2.29854 350.619 2.59306 350.619 2.91436C350.619 3.23566 350.619 3.58375 350.619 3.93183C350.593 4.2643 350.548 4.59503 350.485 4.9225H342.455V32.1528C341.742 32.197 341.027 32.197 340.313 32.1528C339.565 32.1978 338.814 32.1978 338.065 32.1528L338.092 4.9225Z" fill="#EB4724"/>
<path d="M378.4 9.95508H379.605H380.702H381.934H383.031L387.341 28.0818L392.239 9.95508H393.283H394.434H395.638H396.602L401.447 27.7873L405.756 9.95508H406.72H407.764H408.808H410.012L403.374 32.1516H402.25H400.135H399.011L394.273 15.3636L389.295 32.1516H388.117H386.002H384.932L378.4 9.95508Z" fill="#333232"/>
<path d="M423.477 13.3291H420.801C420.782 13.0706 420.782 12.8111 420.801 12.5526C420.775 12.2497 420.775 11.9452 420.801 11.6423C420.775 11.3483 420.775 11.0527 420.801 10.7587C420.784 10.4912 420.784 10.2229 420.801 9.95545H427.814V32.152H426.743H424.682H423.611L423.477 13.3291ZM422.54 5.08238C422.511 4.70809 422.511 4.3321 422.54 3.95781C422.54 3.55618 422.54 3.20812 422.54 2.88682C422.54 2.56552 422.54 2.19065 422.54 1.78903C422.51 1.43267 422.51 1.07437 422.54 0.718018H423.745H424.869H425.993H427.171C427.171 1.03932 427.171 1.3874 427.171 1.78903V3.95781C427.171 4.35943 427.171 4.7343 427.171 5.08238H426.02H423.745H422.54Z" fill="#333232"/>
<path d="M443.232 13.3838H439.86L439.699 12.7679L447.14 4.46765H447.488V9.82268H453.083C453.217 10.3655 453.28 10.9236 453.27 11.4827C453.27 11.804 453.27 12.0986 453.27 12.3931C453.252 12.6822 453.207 12.969 453.136 13.2499H447.542V23.3709C447.521 24.3367 447.566 25.3028 447.676 26.2626C447.727 26.8492 447.91 27.4167 448.211 27.9227C448.429 28.2996 448.784 28.5779 449.202 28.6992C449.714 28.8527 450.246 28.925 450.781 28.9134C451.235 28.942 451.691 28.942 452.146 28.9134L453.324 28.6724C453.518 29.2447 453.643 29.8378 453.698 30.4395C453.698 31.0286 453.698 31.5641 453.698 32.0461C453.097 32.1837 452.49 32.2909 451.878 32.3674C451.263 32.3674 450.567 32.3674 449.844 32.3674C448.096 32.4743 446.37 31.9307 444.999 30.8412C444.355 30.188 443.862 29.4005 443.557 28.5351C443.251 27.6696 443.141 26.7474 443.232 25.8342V13.3838Z" fill="#333232"/>
<path d="M465.582 0.450317H466.626H468.767H469.865V13.3291C470.147 12.8726 470.469 12.4425 470.828 12.0439C471.244 11.5558 471.72 11.1238 472.247 10.7587C473.549 9.89705 475.076 9.44051 476.637 9.44676C477.683 9.36116 478.735 9.51431 479.713 9.89464C480.692 10.275 481.571 10.8725 482.285 11.6423C483.637 13.5092 484.283 15.7963 484.105 18.0951V32.152H483.061H480.946H479.876V19.1929C479.989 17.6173 479.635 16.0434 478.859 14.6679C478.51 14.1855 478.045 13.7997 477.506 13.5467C476.968 13.2938 476.374 13.182 475.78 13.222C475.027 13.2979 474.293 13.5064 473.612 13.8379C472.883 14.1165 472.231 14.5665 471.712 15.1499C471.108 15.8094 470.659 16.5964 470.4 17.4525C470.066 18.5725 469.913 19.7383 469.945 20.9065V32.2859H468.848H466.733H465.662L465.582 0.450317Z" fill="#333232"/>
<path d="M516.44 1.06718C517.189 1.02401 517.939 1.02401 518.688 1.06718C519.41 1.02389 520.134 1.02389 520.856 1.06718V18.712C520.833 20.2456 520.95 21.7781 521.204 23.2905C521.354 24.3857 521.738 25.4358 522.329 26.3697C522.82 27.1548 523.539 27.7713 524.39 28.1368C526.401 28.8857 528.615 28.8857 530.626 28.1368C531.459 27.7545 532.165 27.1413 532.661 26.3697C533.229 25.4247 533.61 24.3794 533.785 23.2905C534.026 21.7765 534.142 20.2451 534.133 18.712V1.06718C535.609 0.888576 537.1 0.888576 538.576 1.06718V19.4885C538.602 21.3617 538.404 23.2314 537.987 25.0577C537.668 26.5646 537.019 27.982 536.087 29.2078C535.197 30.3829 534.016 31.3057 532.661 31.8854C529.326 33.0634 525.689 33.0634 522.355 31.8854C521 31.3057 519.819 30.3829 518.929 29.2078C518.005 27.9771 517.357 26.5616 517.029 25.0577C516.611 23.2314 516.414 21.3617 516.44 19.4885V1.06718Z" fill="#333232"/>
<path d="M552.979 28.1365C553.843 28.4759 554.74 28.7271 555.655 28.8862C556.537 29.0599 557.433 29.1495 558.332 29.1539C558.972 29.1667 559.611 29.0947 560.232 28.9397C560.795 28.8295 561.332 28.6113 561.812 28.2971C562.239 28.0203 562.611 27.6662 562.909 27.2529C563.173 26.8268 563.312 26.3351 563.311 25.8338C563.327 25.341 563.217 24.8522 562.989 24.4147C562.771 24.0397 562.48 23.712 562.133 23.4508C561.738 23.1852 561.316 22.9609 560.875 22.7814L559.322 22.2459L557.823 21.6837C556.335 21.2017 554.966 20.4075 553.808 19.3542C553.378 18.8815 553.045 18.3283 552.829 17.7263C552.613 17.1243 552.518 16.4855 552.55 15.8467C552.515 14.9615 552.684 14.0802 553.047 13.2718C553.409 12.4634 553.954 11.7501 554.638 11.1878C556.426 9.91131 558.603 9.29609 560.795 9.44744C561.909 9.44682 563.02 9.55444 564.114 9.76875C565.073 9.96351 566.02 10.2138 566.951 10.5184C566.951 11.1075 566.764 11.6966 566.63 12.2588C566.475 12.8086 566.278 13.3457 566.041 13.8653C565.296 13.5973 564.537 13.3737 563.766 13.196C562.836 12.976 561.884 12.8681 560.928 12.8747C559.953 12.8563 558.986 13.0481 558.091 13.4369C557.705 13.5978 557.379 13.8752 557.158 14.2304C556.938 14.5856 556.833 15.0009 556.86 15.4183C556.848 15.8594 556.959 16.2951 557.181 16.6767C557.374 17.0314 557.649 17.3345 557.984 17.5603C558.356 17.8183 558.761 18.0254 559.188 18.1761C559.617 18.3636 560.099 18.5242 560.634 18.7116L562.534 19.3542C563.205 19.5821 563.859 19.8595 564.488 20.1843C565.096 20.4673 565.642 20.8676 566.094 21.3624C566.563 21.8708 566.935 22.4606 567.192 23.1027C567.711 24.4259 567.788 25.8814 567.411 27.2519C567.035 28.6224 566.226 29.8344 565.104 30.7069C564.244 31.3567 563.273 31.8464 562.24 32.1527C561.032 32.5068 559.778 32.6782 558.519 32.6615C557.3 32.6788 556.082 32.5892 554.879 32.3937C553.895 32.2181 552.928 31.9583 551.988 31.6172C552.052 31.0255 552.177 30.4422 552.363 29.8769C552.55 29.2878 552.738 28.6987 552.979 28.1365Z" fill="#333232"/>
<path d="M581.189 32.1528C581.189 31.7512 581.189 31.3495 581.189 30.9479C581.189 30.5463 581.189 30.1714 581.189 29.7698C581.189 29.3682 581.189 28.9666 581.189 28.5382C581.189 28.1098 581.189 27.7081 581.189 27.3065H582.394H584.803H586.034C586.034 27.7081 586.034 28.1098 586.168 28.5114C586.302 28.913 586.168 29.3146 586.168 29.7163C586.168 30.1179 586.168 30.5463 586.168 30.9479C586.168 31.3495 586.168 31.7512 586.034 32.1528H584.83H582.421H581.189ZM581.377 1.06689H582.474H583.572H584.803H586.008L585.74 22.8083C585.068 22.925 584.388 22.9877 583.706 22.9957C583.023 22.9953 582.342 22.9325 581.671 22.8083L581.377 1.06689Z" fill="#333232"/>
</svg>
