<svg xmlns="http://www.w3.org/2000/svg" width="587" height="43" fill="none" viewBox="0 0 587 43"><path fill="#333232" d="M.825 1.067h17.078c.043.633.043 1.268 0 1.9v.992c.016.32.016.642 0 .964H5.188v8.916H15.28c.072.307.117.621.134.937v1.954c-.015.325-.06.648-.134.964H5.19v10.71h13.008c.043.633.043 1.268 0 1.901v.991c.016.321.016.643 0 .964H.77L.825 1.067Z"/><path fill="#20448F" d="m34.633 20.639-5.22-10.71a14.316 14.316 0 0 1 2.248-.161h2.409l4.604 10.71-5.54 11.46h-4.497l5.996-11.3Z"/><path fill="#EB4724" d="m39.102 20.693 4.63-10.71h2.436c.717-.005 1.433.049 2.141.16l-5.139 10.55 6.023 11.647H46.864a13.383 13.383 0 0 1-2.168-.16l-5.594-11.487Z"/><path fill="#333232" d="M61.158 9.955h3.64c.01.188.01.375 0 .563v.963c0 .349 0 .67.134.991.012.205.012.41 0 .616.3-.482.65-.93 1.044-1.339.428-.454.914-.85 1.445-1.178a7.682 7.682 0 0 1 1.9-.83c.77-.202 1.561-.3 2.356-.294a9.82 9.82 0 0 1 3.587.642 7.415 7.415 0 0 1 2.864 2.008 9.158 9.158 0 0 1 1.847 3.481c.49 1.595.725 3.258.696 4.927a12.346 12.346 0 0 1-3.105 8.943 11.587 11.587 0 0 1-8.753 3.213c-.65.052-1.304.052-1.954 0a9.172 9.172 0 0 1-1.713-.349v10.175h-4.282l.294-32.532Zm4.282 18.556a7.093 7.093 0 0 0 1.687.428c.748.065 1.5.065 2.248 0a8.028 8.028 0 0 0 2.838-.482 5.97 5.97 0 0 0 2.248-1.553 7.365 7.365 0 0 0 1.445-2.678c.398-1.208.588-2.476.563-3.748a10.15 10.15 0 0 0-1.285-5.355 4.551 4.551 0 0 0-4.176-2.035 5.353 5.353 0 0 0-2.061.402 5.141 5.141 0 0 0-1.794 1.151 5.354 5.354 0 0 0-1.23 1.981 7.338 7.338 0 0 0-.483 2.812v9.076ZM97.669 22.113a7.311 7.311 0 0 0 1.9 5.355 7.387 7.387 0 0 0 5.354 1.687 15.707 15.707 0 0 0 5.835-1.098c.259.498.448 1.03.562 1.58.153.605.242 1.224.268 1.847a14.847 14.847 0 0 1-3.132.91c-1.248.201-2.51.3-3.774.295a14.261 14.261 0 0 1-5.193-.83 9.368 9.368 0 0 1-3.56-2.383 9.237 9.237 0 0 1-2.061-3.641 15.56 15.56 0 0 1-.643-4.606 17.089 17.089 0 0 1 .616-4.605 10.926 10.926 0 0 1 1.927-3.722 9.236 9.236 0 0 1 3.266-2.49 10.864 10.864 0 0 1 4.657-.937 9.846 9.846 0 0 1 4.015.777 8.317 8.317 0 0 1 2.891 2.141 9.235 9.235 0 0 1 1.767 3.24c.416 1.326.624 2.708.616 4.097v2.41l-15.311-.027Zm11.001-3.186a7.541 7.541 0 0 0-.348-2.33 5.861 5.861 0 0 0-.937-1.928 5.544 5.544 0 0 0-6.166-1.44 5.538 5.538 0 0 0-1.864 1.226 8.033 8.033 0 0 0-1.713 4.472h11.028ZM126.281 9.957h3.641c0 .455.16 1.017.267 1.713.076.595.121 1.194.134 1.794a8.92 8.92 0 0 1 2.382-2.677 6.344 6.344 0 0 1 3.828-1.071h1.338c.06.274.105.55.134.83v.883c.026.366.026.733 0 1.098 0 .375 0 .723-.134 1.071a3.313 3.313 0 0 0-.722 0h-.589a7.546 7.546 0 0 0-2.222.321 4.543 4.543 0 0 0-1.9 1.152 5.356 5.356 0 0 0-1.339 2.249 10.71 10.71 0 0 0-.508 3.668v11.031h-4.283l-.027-22.062ZM151.443 13.329h-2.676a5.11 5.11 0 0 1-.134-.777v-1.794a6.24 6.24 0 0 1 .134-.803h7.013v22.197h-4.444l.107-18.823Zm-.936-8.247a4.918 4.918 0 0 1 0-1.124V1.789a4.361 4.361 0 0 1 0-1.071h4.603c.044.355.044.715 0 1.07v2.169c.043.374.043.751 0 1.125h-4.603ZM173.58 22.111a7.213 7.213 0 0 0 1.874 5.355 7.494 7.494 0 0 0 5.354 1.687c1.996 0 3.975-.372 5.835-1.098.259.498.448 1.03.562 1.58a11.4 11.4 0 0 1 .268 1.847c-1.01.41-2.06.716-3.132.91-1.257.201-2.528.3-3.801.295a14.128 14.128 0 0 1-5.166-.83 9.472 9.472 0 0 1-3.587-2.383 9.189 9.189 0 0 1-2.034-3.641 14.702 14.702 0 0 1-.669-4.606c-.011-1.558.206-3.11.642-4.605a10.07 10.07 0 0 1 1.927-3.722 9.233 9.233 0 0 1 3.266-2.49 10.7 10.7 0 0 1 4.631-.937 9.853 9.853 0 0 1 4.015.777 8.324 8.324 0 0 1 2.89 2.142 8.888 8.888 0 0 1 1.794 3.24c.407 1.326.606 2.708.589 4.096v1.258c.019.384.019.768 0 1.152l-15.258-.027Zm10.975-3.186a8.455 8.455 0 0 0-.321-2.33 5.918 5.918 0 0 0-.964-1.927 4.771 4.771 0 0 0-1.579-1.313 5.35 5.35 0 0 0-2.329-.481 5.192 5.192 0 0 0-4.042 1.58 7.796 7.796 0 0 0-1.686 4.47h10.921ZM202.197 9.955h3.641c0 .456.16 1.018.24 1.768.033.615.033 1.232 0 1.847a9.191 9.191 0 0 1 1.098-1.473 8.38 8.38 0 0 1 1.552-1.338 8.03 8.03 0 0 1 4.444-1.312 6.824 6.824 0 0 1 5.621 2.195 9.856 9.856 0 0 1 1.82 6.453v14.057H216.33v-12.96a8.306 8.306 0 0 0-.963-4.524 3.322 3.322 0 0 0-3.025-1.446 5.834 5.834 0 0 0-2.275.428 4.93 4.93 0 0 0-1.901 1.34 6.885 6.885 0 0 0-1.338 2.355 11.03 11.03 0 0 0-.482 3.481v11.246h-4.149V9.955ZM249.73 28.296c.265.483.472.995.616 1.526.167.603.266 1.223.294 1.848a15.868 15.868 0 0 1-5.835.99 10.7 10.7 0 0 1-8.352-3.132 12.189 12.189 0 0 1-2.676-8.461 14.908 14.908 0 0 1 .696-4.579 10.482 10.482 0 0 1 2.061-3.668c.939-1.06 2.1-1.9 3.399-2.463 1.487-.64 3.094-.95 4.711-.91 1.066-.006 2.13.065 3.186.214a14.26 14.26 0 0 1 2.676.696 8.752 8.752 0 0 1-.214 1.713 6.439 6.439 0 0 1-.535 1.714 14.265 14.265 0 0 0-4.845-.75 5.81 5.81 0 0 0-4.952 2.196 9.565 9.565 0 0 0-1.66 5.837 8.382 8.382 0 0 0 1.874 6.078 6.755 6.755 0 0 0 5.086 1.928c.806.004 1.611-.05 2.409-.161.704-.143 1.394-.35 2.061-.616ZM265.954 22.113a7.195 7.195 0 0 0 1.873 5.355 7.414 7.414 0 0 0 5.354 1.687c1.996 0 3.975-.373 5.835-1.098.236.508.425 1.037.562 1.58.131.608.212 1.226.241 1.847a14.806 14.806 0 0 1-3.132.91 22.974 22.974 0 0 1-3.827.188 14.367 14.367 0 0 1-5.193-.83 9.368 9.368 0 0 1-3.56-2.383 9.225 9.225 0 0 1-2.061-3.642 15.571 15.571 0 0 1-.643-4.605c.038-1.562.291-3.112.75-4.605a10.931 10.931 0 0 1 1.927-3.722 9.475 9.475 0 0 1 3.266-2.49 10.863 10.863 0 0 1 4.657-.937 9.846 9.846 0 0 1 4.015.776 8.327 8.327 0 0 1 2.891 2.142 9.235 9.235 0 0 1 1.767 3.24 13.39 13.39 0 0 1 .615 4.097v2.409l-15.337.08Zm10.974-3.186a8.455 8.455 0 0 0-.321-2.33 5.899 5.899 0 0 0-.964-1.928 4.864 4.864 0 0 0-1.606-1.312 5.886 5.886 0 0 0-6.343 1.098 8.026 8.026 0 0 0-1.713 4.472h10.947Z"/><path fill="#EB4724" d="M313.012 1.067H317.429v31.086h-4.417V1.067ZM338.092 4.923h-8.03a5.312 5.312 0 0 1-.134-.964V2.004a4.86 4.86 0 0 1 .134-.937h20.423c0 .294 0 .589.134.91.134.322 0 .616 0 .937v1.018a8.93 8.93 0 0 1-.134.99h-8.03v27.23c-.713.045-1.428.045-2.142 0-.748.046-1.499.046-2.248 0l.027-27.23Z"/><path fill="#333232" d="M378.4 9.955h4.631l4.31 18.127 4.898-18.127H396.602l4.845 17.832 4.309-17.832h4.256l-6.638 22.197h-4.363l-4.738-16.788-4.978 16.788h-4.363L378.4 9.955ZM423.477 13.33h-2.676a5.296 5.296 0 0 1 0-.777 5.322 5.322 0 0 1 0-.91 5.015 5.015 0 0 1 0-.884 6.332 6.332 0 0 1 0-.804h7.013v22.197H423.611l-.134-18.823Zm-.937-8.248a7.279 7.279 0 0 1 0-1.124V1.789a6.384 6.384 0 0 1 0-1.071h4.631V5.082h-4.631ZM443.232 13.384h-3.372l-.161-.616 7.441-8.3h.348v5.355h5.595c.134.543.197 1.1.187 1.66v.91c-.018.29-.063.576-.134.857h-5.594v10.12c-.021.967.024 1.933.134 2.893a3.91 3.91 0 0 0 .535 1.66c.218.377.573.655.991.776a5.109 5.109 0 0 0 1.579.214c.454.029.91.029 1.365 0l1.178-.24c.194.572.319 1.165.374 1.767v1.606c-.601.138-1.208.245-1.82.321h-2.034a7.092 7.092 0 0 1-4.845-1.526 6.24 6.24 0 0 1-1.767-5.007v-12.45ZM465.582.45h4.283v12.88c.282-.457.604-.887.963-1.286.416-.488.892-.92 1.419-1.285a7.896 7.896 0 0 1 4.39-1.312 6.928 6.928 0 0 1 5.648 2.195 9.723 9.723 0 0 1 1.82 6.453v14.057h-4.229v-12.96a8.04 8.04 0 0 0-1.017-4.524 3.511 3.511 0 0 0-3.079-1.446 6.426 6.426 0 0 0-2.168.616 4.87 4.87 0 0 0-1.9 1.312 5.97 5.97 0 0 0-1.312 2.303 11.028 11.028 0 0 0-.455 3.454v11.379h-4.283L465.582.45ZM516.44 1.067a19.526 19.526 0 0 1 2.248 0 18.112 18.112 0 0 1 2.168 0v17.645a25.35 25.35 0 0 0 .348 4.579 7.717 7.717 0 0 0 1.125 3.079 4.547 4.547 0 0 0 2.061 1.767 8.935 8.935 0 0 0 6.236 0 4.799 4.799 0 0 0 2.035-1.767 8.636 8.636 0 0 0 1.124-3.08c.241-1.514.357-3.045.348-4.578V1.067a18.488 18.488 0 0 1 4.443 0v18.421a23.551 23.551 0 0 1-.589 5.57 10.424 10.424 0 0 1-1.9 4.15 8.484 8.484 0 0 1-3.426 2.677 15.47 15.47 0 0 1-10.306 0 8.484 8.484 0 0 1-3.426-2.677 10.715 10.715 0 0 1-1.9-4.15 23.5 23.5 0 0 1-.589-5.57V1.068ZM552.979 28.137c.864.339 1.761.59 2.676.75.882.173 1.778.262 2.677.267.64.013 1.279-.06 1.9-.214.563-.11 1.1-.329 1.58-.643.427-.277.799-.63 1.097-1.044.264-.426.403-.918.402-1.42a2.868 2.868 0 0 0-.322-1.418 3.252 3.252 0 0 0-.856-.964 6.952 6.952 0 0 0-1.258-.67l-1.553-.535-1.499-.562a11.01 11.01 0 0 1-4.015-2.33 4.858 4.858 0 0 1-1.258-3.507 5.731 5.731 0 0 1 2.088-4.66 9.474 9.474 0 0 1 6.157-1.74c1.114 0 2.225.107 3.319.322.959.195 1.906.445 2.837.75 0 .588-.187 1.178-.321 1.74-.155.55-.352 1.087-.589 1.606a19.966 19.966 0 0 0-2.275-.669c-.93-.22-1.882-.328-2.838-.321a6.797 6.797 0 0 0-2.837.562 2.01 2.01 0 0 0-1.231 1.981c-.012.441.099.877.321 1.259.193.354.468.657.803.883.372.258.777.465 1.204.616.429.188.911.348 1.446.536l1.9.642c.671.228 1.325.506 1.954.83a5.076 5.076 0 0 1 1.606 1.178 5.678 5.678 0 0 1 1.098 1.74 6.582 6.582 0 0 1 .219 4.15 6.582 6.582 0 0 1-2.307 3.455 8.993 8.993 0 0 1-2.864 1.446 12.631 12.631 0 0 1-3.721.508 20.848 20.848 0 0 1-3.64-.267 17.474 17.474 0 0 1-2.891-.777 8.487 8.487 0 0 1 .375-1.74c.187-.59.375-1.178.616-1.74ZM581.189 32.153v-4.847h4.845c0 .402 0 .804.134 1.205.134.402 0 .804 0 1.205v1.232c0 .401 0 .803-.134 1.205h-4.845Zm.188-31.086h4.631l-.268 21.741c-.672.117-1.352.18-2.034.188-.683 0-1.364-.063-2.035-.188l-.294-21.741Z"/></svg>