<svg width="484" height="482" viewBox="0 0 484 482" fill="none" xmlns="http://www.w3.org/2000/svg">
<path d="M425.934 413.399C413.391 426.327 402.168 433.927 393.576 439.665C309.773 495.621 213.977 479.493 184.359 473.981C136.574 465.087 96.2377 458.813 61.5812 427.502C-17.1689 356.354 -13.3386 207.935 46.8361 115.996C53.971 105.095 114.055 16.0325 210.058 3.48286C212.406 3.17585 214.158 3.00115 215.692 2.83869C230.544 1.26626 322.576 -7.03281 397.618 55.8381C408.36 64.8377 425.647 81.0707 441.678 105.829C500.293 196.355 500.479 336.561 425.934 413.399Z" fill="url(#paint0_linear_2707_20996)"/>
<path d="M460.762 94.8647L149.941 79.7875C134.043 79.0165 121.422 91.5174 121.896 107.679L127.027 282.476C127.486 298.142 140.617 310.311 156.18 309.701L461.121 297.723C473.132 297.251 482.681 285.892 482.681 272.32V121.202C482.681 107.259 472.975 95.457 460.762 94.8647Z" fill="url(#paint1_linear_2707_20996)"/>
<path d="M447.645 105.294L163.902 91.8992C149.387 91.2142 137.884 102.32 138.316 116.678L143.012 271.97C143.431 285.888 155.424 296.699 169.634 296.156L447.97 285.515C458.937 285.096 467.577 275.005 467.577 262.947V128.692C467.577 116.305 458.796 105.82 447.645 105.294Z" fill="#7D97F4"/>
<g opacity="0.6">
<path d="M167.269 228.595C167.269 230.978 165.338 232.91 162.955 232.91C160.572 232.91 158.641 230.978 158.641 228.595C158.641 226.212 160.572 224.281 162.955 224.281C165.338 224.281 167.269 226.212 167.269 228.595Z" fill="white"/>
<path d="M361.98 241.602C361.98 243.984 360.048 245.916 357.666 245.916C355.283 245.916 353.352 243.984 353.352 241.602C353.352 239.219 355.283 237.288 357.666 237.288C360.049 237.288 361.98 239.219 361.98 241.602Z" fill="white"/>
<path d="M212.877 189.922C212.877 191.994 211.198 193.673 209.126 193.673C207.054 193.673 205.375 191.994 205.375 189.922C205.375 187.851 207.054 186.171 209.126 186.171C211.198 186.171 212.877 187.851 212.877 189.922Z" fill="white"/>
<path d="M271.955 162.112C271.955 163.618 270.734 164.84 269.227 164.84C267.721 164.84 266.5 163.618 266.5 162.112C266.5 160.606 267.721 159.385 269.227 159.385C270.734 159.385 271.955 160.606 271.955 162.112Z" fill="white"/>
<path d="M390.338 164.988C390.338 166.495 389.117 167.716 387.61 167.716C386.104 167.716 384.883 166.495 384.883 164.988C384.883 163.482 386.104 162.261 387.61 162.261C389.117 162.261 390.338 163.482 390.338 164.988Z" fill="white"/>
<path d="M454.377 254.126C454.377 255.632 453.156 256.853 451.649 256.853C450.143 256.853 448.922 255.632 448.922 254.126C448.922 252.619 450.143 251.398 451.649 251.398C453.156 251.398 454.377 252.619 454.377 254.126Z" fill="white"/>
<path d="M325.305 119.723C325.305 120.933 324.324 121.914 323.114 121.914C321.903 121.914 320.922 120.933 320.922 119.723C320.922 118.512 321.903 117.531 323.114 117.531C324.324 117.531 325.305 118.512 325.305 119.723Z" fill="white"/>
<path d="M268.579 234.562C268.579 235.871 267.517 236.933 266.207 236.933C264.898 236.933 263.836 235.871 263.836 234.562C263.836 233.252 264.898 232.19 266.207 232.19C267.517 232.19 268.579 233.252 268.579 234.562Z" fill="white"/>
<path d="M173.664 135.333C173.664 136.643 172.603 137.705 171.293 137.705C169.983 137.705 168.922 136.643 168.922 135.333C168.922 134.024 169.983 132.962 171.293 132.962C172.603 132.962 173.664 134.024 173.664 135.333Z" fill="white"/>
</g>
<mask id="mask0_2707_20996" style="mask-type:luminance" maskUnits="userSpaceOnUse" x="138" y="91" width="330" height="206">
<path d="M447.645 105.294L163.902 91.8992C149.387 91.2142 137.884 102.32 138.316 116.678L143.012 271.97C143.431 285.888 155.424 296.699 169.634 296.156L447.97 285.515C458.937 285.096 467.577 275.005 467.577 262.947V128.692C467.577 116.305 458.796 105.82 447.645 105.294Z" fill="white"/>
</mask>
<g mask="url(#mask0_2707_20996)">
<g opacity="0.5">
<path d="M158.336 74.7507L107.5 294.688L109.134 295.066L159.97 75.1283L158.336 74.7507Z" fill="white"/>
<path d="M200.051 74.7805L163.922 294.722L165.577 294.994L201.706 75.0524L200.051 74.7805Z" fill="white"/>
<path d="M241.728 74.8385L220.359 294.774L222.029 294.936L243.397 75.0007L241.728 74.8385Z" fill="white"/>
<path d="M283.419 74.9055L276.773 294.831L278.45 294.882L285.095 74.9561L283.419 74.9055Z" fill="white"/>
<path d="M485.928 94.0806H120.617V95.7579H485.928V94.0806Z" fill="white"/>
<path d="M502.967 154.062H103.586V155.74H502.967V154.062Z" fill="white"/>
<path d="M519.998 214.044H86.5469V215.722H519.998V214.044Z" fill="white"/>
<path d="M537.03 274.026H69.5078V275.704H537.03V274.026Z" fill="white"/>
<path d="M326.856 74.8851L325.18 74.9463L333.213 294.873L334.889 294.812L326.856 74.8851Z" fill="white"/>
<path d="M368.582 74.8438L366.914 75.0164L389.666 294.952L391.334 294.78L368.582 74.8438Z" fill="white"/>
<path d="M410.294 74.7758L408.641 75.0576L446.122 294.994L447.776 294.712L410.294 74.7758Z" fill="white"/>
<path d="M452.007 74.7538L450.375 75.1411L502.569 295.082L504.201 294.695L452.007 74.7538Z" fill="white"/>
</g>
</g>
<path d="M362.285 120.549L357.284 111.916C356.521 110.593 355.11 109.819 353.584 109.819H343.592C342.065 109.819 340.655 110.593 339.892 111.916L334.891 120.569C334.13 121.89 334.13 123.505 334.891 124.825L339.892 133.659C340.655 134.981 342.065 135.955 343.592 135.955H353.584C355.111 135.955 356.521 134.976 357.284 133.653L362.285 124.897C363.046 123.577 363.046 121.869 362.285 120.549Z" fill="white"/>
<path d="M360.631 120.458L356.314 113.189C355.656 112.047 354.438 111.562 353.12 111.562H344.495C343.178 111.562 341.96 112.047 341.302 113.189L336.985 120.567C336.328 121.707 336.328 123.055 336.985 124.195L341.302 132.025C341.96 133.167 343.178 134.213 344.495 134.213H353.12C354.438 134.213 355.656 133.14 356.314 131.998L360.631 124.325C361.288 123.186 361.288 121.597 360.631 120.458Z" fill="#BDD0FB"/>
<path d="M403.824 120.549L398.823 111.916C398.06 110.593 396.65 109.819 395.123 109.819H385.131C383.604 109.819 382.194 110.593 381.431 111.916L376.43 120.569C375.669 121.89 375.669 123.505 376.43 124.825L381.431 133.659C382.194 134.981 383.604 135.955 385.131 135.955H395.123C396.65 135.955 398.06 134.976 398.823 133.653L403.824 124.897C404.585 123.577 404.585 121.869 403.824 120.549Z" fill="white"/>
<path d="M402.17 120.458L397.853 113.189C397.194 112.047 395.977 111.562 394.659 111.562H386.034C384.717 111.562 383.499 112.047 382.841 113.189L378.524 120.567C377.867 121.707 377.867 123.055 378.524 124.195L382.841 132.025C383.499 133.167 384.717 134.213 386.034 134.213H394.659C395.977 134.213 397.194 133.14 397.853 131.998L402.17 124.325C402.827 123.186 402.827 121.597 402.17 120.458Z" fill="#BDD0FB"/>
<path d="M445.363 120.549L440.362 111.916C439.599 110.593 438.188 109.819 436.662 109.819H426.67C425.143 109.819 423.733 110.593 422.97 111.916L417.969 120.569C417.208 121.89 417.208 123.505 417.969 124.825L422.97 133.659C423.733 134.981 425.143 135.955 426.67 135.955H436.662C438.188 135.955 439.599 134.976 440.362 133.653L445.363 124.897C446.124 123.577 446.124 121.869 445.363 120.549Z" fill="white"/>
<path d="M443.709 120.458L439.392 113.189C438.734 112.047 437.516 111.562 436.198 111.562H427.574C426.256 111.562 425.038 112.047 424.38 113.189L420.063 120.567C419.406 121.707 419.406 123.055 420.063 124.195L424.38 132.025C425.038 133.167 426.256 134.213 427.574 134.213H436.198C437.516 134.213 438.734 133.14 439.392 131.998L443.709 124.325C444.365 123.186 444.365 121.597 443.709 120.458Z" fill="#BDD0FB"/>
<path d="M249.78 264.62C249.78 266.696 248.098 268.378 246.022 268.378H157.125C155.05 268.378 153.367 266.696 153.367 264.62V264.585C153.367 262.51 155.05 260.828 157.125 260.828H246.022C248.098 260.828 249.78 262.51 249.78 264.585V264.62Z" fill="#91B3FA"/>
<path d="M238.164 279.186C238.164 281.216 236.418 282.898 234.593 282.898H156.465C154.64 282.898 153.367 281.216 153.367 279.186V279.024C153.367 276.994 154.64 274.767 156.465 274.767H234.593C236.418 274.767 238.164 276.994 238.164 279.024V279.186Z" fill="#91B3FA"/>
<path d="M272.096 256.774C273.361 256.774 274.386 252.76 274.386 247.807C274.386 242.855 273.361 238.841 272.096 238.841C270.83 238.841 269.805 242.855 269.805 247.807C269.805 252.76 270.83 256.774 272.096 256.774Z" fill="#91B3FA"/>
<path d="M275.334 244.704C275.334 244.948 275.136 245.146 274.892 245.146H269.387C269.143 245.146 268.945 244.948 268.945 244.704V243.846C268.945 243.602 269.143 243.404 269.387 243.404H274.892C275.136 243.404 275.334 243.602 275.334 243.846V244.704Z" fill="url(#paint2_linear_2707_20996)"/>
<path d="M281.517 255.203C282.783 255.203 283.808 251.189 283.808 246.236C283.808 241.284 282.783 237.27 281.517 237.27C280.252 237.27 279.227 241.284 279.227 246.236C279.227 251.189 280.252 255.203 281.517 255.203Z" fill="#91B3FA"/>
<path d="M284.623 242.962C284.623 243.206 284.425 243.404 284.181 243.404H278.676C278.432 243.404 278.234 243.206 278.234 242.962V242.103C278.234 241.859 278.432 241.661 278.676 241.661H284.181C284.425 241.661 284.623 241.859 284.623 242.103V242.962Z" fill="url(#paint3_linear_2707_20996)"/>
<path d="M292.45 264.893H270.585C269.532 264.893 268.542 264.771 267.945 265.651L263.861 271.686C263.704 271.938 263.406 271.863 263.107 271.863H263.092C262.809 271.863 263.137 271.042 263.137 270.728V254.439C263.137 253.151 263.813 252.051 265.101 251.878L275.446 250.37C276.121 250.276 276.683 249.978 277.154 249.491L290.787 235.966L291.713 251.874L292.45 264.893Z" fill="url(#paint4_linear_2707_20996)"/>
<path d="M292.453 264.893H270.587C269.534 264.893 268.544 264.771 267.947 265.651L263.863 271.449C263.706 271.7 263.408 271.646 263.109 271.552L269 259.908C269.895 258.18 271.67 256.762 273.602 256.762H279.163C280.027 256.762 280.875 256.81 281.629 256.402L291.698 251.741L292.453 264.893Z" fill="#91B3FA"/>
<path d="M322.228 256.774C323.494 256.774 324.519 252.76 324.519 247.807C324.519 242.855 323.494 238.841 322.228 238.841C320.963 238.841 319.938 242.855 319.938 247.807C319.938 252.76 320.963 256.774 322.228 256.774Z" fill="#91B3FA"/>
<path d="M325.279 243.846C325.279 243.602 325.082 243.404 324.838 243.404H319.332C319.088 243.404 318.891 243.602 318.891 243.846V244.704C318.891 244.948 319.088 245.146 319.332 245.146H324.838C325.082 245.146 325.279 244.948 325.279 244.704V243.846Z" fill="url(#paint5_linear_2707_20996)"/>
<path d="M312.806 255.203C314.072 255.203 315.097 251.189 315.097 246.236C315.097 241.284 314.072 237.27 312.806 237.27C311.541 237.27 310.516 241.284 310.516 246.236C310.516 251.189 311.541 255.203 312.806 255.203Z" fill="#91B3FA"/>
<path d="M315.99 242.103C315.99 241.859 315.792 241.661 315.548 241.661H310.043C309.799 241.661 309.602 241.859 309.602 242.103V242.962C309.602 243.206 309.799 243.404 310.043 243.404H315.548C315.792 243.404 315.99 243.206 315.99 242.962V242.103Z" fill="url(#paint6_linear_2707_20996)"/>
<path d="M301.875 264.893H323.741C324.794 264.893 325.783 264.771 326.38 265.651L330.464 271.686C330.621 271.938 330.92 271.863 331.218 271.863H331.234C331.517 271.863 330.509 271.042 330.509 270.728V254.439C330.509 253.151 330.172 252.051 328.884 251.878L318.71 250.37C318.034 250.276 317.557 249.978 317.086 249.491L303.496 235.966L302.591 251.874L301.875 264.893Z" fill="url(#paint7_linear_2707_20996)"/>
<path d="M301.875 264.893H323.741C324.794 264.893 325.783 264.771 326.38 265.651L330.464 271.449C330.621 271.7 330.92 271.646 331.218 271.552L325.327 259.908C324.432 258.18 322.657 256.762 320.725 256.762H315.164C314.3 256.762 313.452 256.81 312.698 256.402L302.629 251.741L301.875 264.893Z" fill="#91B3FA"/>
<path d="M291.091 261.404C290.951 261.185 290.717 261.044 290.458 261.023C290.198 261.003 289.945 261.105 289.772 261.3C288.713 262.497 287.804 263.694 287.045 264.89C286.883 265.143 288.182 278.634 289.047 279.272C289.503 279.609 290.752 279.558 290.878 279.466C291.901 278.711 293.275 265.545 293.103 265.152C292.556 263.903 291.885 262.653 291.091 261.404Z" fill="url(#paint8_linear_2707_20996)"/>
<path d="M305.934 261.404C305.795 261.185 305.56 261.044 305.301 261.023C305.042 261.003 304.788 261.105 304.616 261.3C303.557 262.497 302.648 263.694 301.889 264.89C301.727 265.143 303.026 278.634 303.891 279.272C304.347 279.609 305.596 279.558 305.721 279.466C306.745 278.711 308.119 265.545 307.947 265.152C307.4 263.903 306.729 262.653 305.934 261.404Z" fill="url(#paint9_linear_2707_20996)"/>
<path d="M304.266 223.785L298.123 198.717C298.072 198.52 298.051 198.38 297.848 198.373C297.645 198.366 297.538 198.493 297.473 198.686L289.179 222.667C289.033 223.105 288.688 223.564 288.688 224.026V268.163C288.688 269.103 290.067 270.701 291.006 270.701H303.311C304.251 270.701 303.788 269.103 303.788 268.163V224.852C303.788 224.492 304.355 224.134 304.266 223.785Z" fill="#91B3FA"/>
<path d="M296.508 241.197C299.472 241.197 301.875 235.981 301.875 229.546C301.875 223.112 299.472 217.896 296.508 217.896C293.544 217.896 291.141 223.112 291.141 229.546C291.141 235.981 293.544 241.197 296.508 241.197Z" fill="url(#paint10_linear_2707_20996)"/>
<path d="M298.95 259.833C298.811 259.614 298.576 259.473 298.317 259.452C298.058 259.432 297.804 259.534 297.632 259.729C296.572 260.926 295.663 262.123 294.904 263.32C294.743 263.572 296.042 277.063 296.906 277.701C297.363 278.038 298.612 277.987 298.737 277.895C299.761 277.14 301.134 263.974 300.962 263.581C300.415 262.332 299.744 261.083 298.95 259.833Z" fill="#91B3FA"/>
<path d="M303.788 246.308H288.688V256.181H303.788V246.308Z" fill="url(#paint11_linear_2707_20996)"/>
<path d="M223.276 144.898L228.744 133.468C229.032 132.866 228.569 132.41 227.742 132.436L227.424 132.446C226.641 132.471 225.782 132.931 225.469 133.49L221.598 140.398C221.177 141.148 220.336 141.76 219.454 141.957L213.63 143.256L209.359 149.758L220.438 147.161C221.654 146.876 222.749 146 223.276 144.898Z" fill="url(#paint12_linear_2707_20996)"/>
<path d="M188.359 133.468L193.827 144.898C194.354 146 195.45 146.876 196.665 147.161L207.744 149.758L203.473 143.256L197.649 141.957C196.767 141.76 195.926 141.148 195.505 140.398L191.634 133.49C191.32 132.931 190.462 132.471 189.679 132.446L189.361 132.436C188.534 132.41 188.071 132.866 188.359 133.468Z" fill="url(#paint13_linear_2707_20996)"/>
<path d="M216.06 158.254C214.358 162.588 211.105 166.738 208.704 166.738C208.669 166.738 208.635 166.738 208.6 166.738C206.199 166.738 202.946 162.588 201.244 158.254C199.794 154.007 198.345 149.782 196.895 145.535C195.161 141.144 200.2 140.314 208.497 140.362C208.6 140.362 208.704 140.368 208.807 140.367C217.103 140.32 222.143 141.142 220.408 145.532C218.959 149.779 217.51 154.007 216.06 158.254Z" fill="url(#paint14_linear_2707_20996)"/>
<path d="M203.555 158.446C203.555 155.508 205.937 153.126 208.875 153.126C211.813 153.126 214.195 155.508 214.195 158.446C214.195 161.384 211.813 163.766 208.875 163.766C205.937 163.765 203.555 161.384 203.555 158.446Z" fill="url(#paint15_linear_2707_20996)"/>
<path d="M204.875 158.753C204.875 156.568 206.647 154.796 208.832 154.796C211.017 154.796 212.789 156.568 212.789 158.753C212.789 160.939 211.017 162.71 208.832 162.71C206.647 162.711 204.875 160.939 204.875 158.753Z" fill="#91B3FA"/>
<path d="M207.279 135.306C207.293 134.675 207.765 134.092 208.342 133.98C208.929 133.865 209.437 134.271 209.47 134.913L210.03 145.756C210.095 147.025 209.419 148.113 208.536 148.113C207.673 148.113 207.012 147.07 207.04 145.851L207.279 135.306Z" fill="url(#paint16_linear_2707_20996)"/>
<path d="M409.44 161.01L414.382 150.678C414.643 150.133 414.225 149.72 413.477 149.744L413.19 149.754C412.482 149.776 411.706 150.192 411.423 150.697L407.923 156.941C407.543 157.62 406.782 158.173 405.985 158.351L400.72 159.525L396.859 165.403L406.875 163.055C407.973 162.797 408.963 162.006 409.44 161.01Z" fill="url(#paint17_linear_2707_20996)"/>
<path d="M377.875 150.678L382.817 161.01C383.294 162.006 384.284 162.798 385.382 163.055L395.398 165.403L391.537 159.525L386.272 158.351C385.475 158.173 384.715 157.62 384.335 156.941L380.835 150.697C380.552 150.192 379.775 149.776 379.067 149.754L378.78 149.744C378.032 149.72 377.614 150.133 377.875 150.678Z" fill="url(#paint18_linear_2707_20996)"/>
<path d="M402.922 173.336C401.383 177.254 398.442 181.258 396.271 181.258C396.24 181.258 396.209 181.258 396.178 181.258C394.007 181.258 391.067 177.254 389.528 173.336C388.218 169.496 386.907 165.551 385.597 161.712C384.029 157.743 388.585 156.929 396.084 156.972C396.178 156.972 396.272 156.946 396.365 156.946C403.865 156.903 408.42 157.756 406.852 161.725C405.542 165.564 404.232 169.496 402.922 173.336Z" fill="url(#paint19_linear_2707_20996)"/>
<path d="M391.609 173.257C391.609 170.601 393.763 168.448 396.419 168.448C399.074 168.448 401.228 170.601 401.228 173.257C401.228 175.913 399.074 178.066 396.419 178.066C393.762 178.066 391.609 175.913 391.609 173.257Z" fill="url(#paint20_linear_2707_20996)"/>
<path d="M392.805 173.535C392.805 171.559 394.406 169.958 396.382 169.958C398.357 169.958 399.959 171.559 399.959 173.535C399.959 175.51 398.357 177.112 396.382 177.112C394.406 177.112 392.805 175.51 392.805 173.535Z" fill="#91B3FA"/>
<path d="M394.974 152.339C394.987 151.768 395.414 151.241 395.936 151.14C396.466 151.036 396.926 151.403 396.956 151.984L397.462 161.785C397.521 162.932 396.91 163.916 396.111 163.916C395.331 163.916 394.734 162.973 394.759 161.871L394.974 152.339Z" fill="url(#paint21_linear_2707_20996)"/>
<path d="M309.312 124.019L313.213 115.864C313.419 115.434 313.088 115.109 312.498 115.127L312.272 115.135C311.713 115.152 311.1 115.481 310.877 115.88L308.115 120.808C307.815 121.343 307.214 121.78 306.585 121.921L302.43 122.847L299.383 127.487L307.288 125.633C308.154 125.43 308.936 124.805 309.312 124.019Z" fill="url(#paint22_linear_2707_20996)"/>
<path d="M284.397 115.864L288.298 124.019C288.674 124.805 289.456 125.43 290.323 125.633L298.228 127.487L295.181 122.847L291.025 121.921C290.396 121.78 289.796 121.343 289.496 120.808L286.734 115.88C286.51 115.481 285.897 115.153 285.339 115.135L285.112 115.127C284.522 115.109 284.192 115.434 284.397 115.864Z" fill="url(#paint23_linear_2707_20996)"/>
<path d="M304.159 133.758C302.945 136.851 300.624 140.021 298.91 140.021C298.886 140.021 298.861 140.021 298.837 140.021C297.123 140.021 294.802 136.851 293.588 133.758C292.554 130.728 291.52 127.609 290.485 124.579C289.248 121.446 292.843 120.801 298.763 120.835C298.836 120.835 298.91 120.813 298.984 120.813C304.904 120.779 308.499 121.457 307.261 124.59C306.227 127.62 305.193 130.728 304.159 133.758Z" fill="url(#paint24_linear_2707_20996)"/>
<path d="M295.234 133.685C295.234 131.589 296.934 129.889 299.03 129.889C301.126 129.889 302.826 131.589 302.826 133.685C302.826 135.781 301.126 137.481 299.03 137.481C296.934 137.481 295.234 135.781 295.234 133.685Z" fill="url(#paint25_linear_2707_20996)"/>
<path d="M300.997 135.902C302.099 134.799 302.099 133.012 300.997 131.909C299.894 130.807 298.107 130.807 297.004 131.909C295.902 133.012 295.902 134.8 297.004 135.902C298.107 137.005 299.894 137.005 300.997 135.902Z" fill="#91B3FA"/>
<path d="M297.89 117.175C297.9 116.725 298.237 116.309 298.649 116.229C299.067 116.147 299.43 116.437 299.453 116.895L299.853 124.631C299.899 125.536 299.417 126.313 298.787 126.313C298.171 126.313 297.7 125.569 297.719 124.699L297.89 117.175Z" fill="url(#paint26_linear_2707_20996)"/>
<path d="M390.656 215.624L392.469 187.709L399.357 215.624L415.308 211.637L402.982 224.325L409.508 241.727L398.994 231.034L387.393 248.615L390.595 226.615L373.617 228.313L389.569 220.518L376.88 209.824L390.656 215.624Z" fill="url(#paint27_linear_2707_20996)"/>
<path d="M288.002 138.622L289.059 122.338L293.078 138.622L302.383 136.296L295.192 143.697L298.999 153.849L292.866 147.611L286.099 157.867L287.967 145.033L278.062 146.024L287.368 141.477L279.966 135.238L288.002 138.622Z" fill="white"/>
<path d="M297.697 196.753C297.458 196.753 297.406 196.559 297.406 196.32V194.589C297.406 194.35 297.457 194.156 297.697 194.156C297.936 194.156 297.987 194.35 297.987 194.589V196.32C297.987 196.559 297.936 196.753 297.697 196.753Z" fill="#BDD0FB"/>
<path d="M297.697 189.83C297.458 189.83 297.406 189.636 297.406 189.397V185.07C297.406 184.831 297.457 184.637 297.697 184.637C297.936 184.637 297.987 184.831 297.987 185.07V189.397C297.987 189.636 297.936 189.83 297.697 189.83ZM297.697 181.175C297.458 181.175 297.406 180.982 297.406 180.743V176.416C297.406 176.177 297.457 175.983 297.697 175.983C297.936 175.983 297.987 176.176 297.987 176.416V180.743C297.987 180.982 297.936 181.175 297.697 181.175ZM297.697 172.521C297.458 172.521 297.406 172.328 297.406 172.089V167.762C297.406 167.523 297.457 167.329 297.697 167.329C297.936 167.329 297.987 167.523 297.987 167.762V172.089C297.987 172.328 297.936 172.521 297.697 172.521ZM297.697 163.867C297.458 163.867 297.406 163.674 297.406 163.435V159.107C297.406 158.868 297.457 158.675 297.697 158.675C297.936 158.675 297.987 158.868 297.987 159.107V163.435C297.987 163.674 297.936 163.867 297.697 163.867ZM297.697 155.213C297.458 155.213 297.406 155.02 297.406 154.781V150.454C297.406 150.214 297.457 150.021 297.697 150.021C297.936 150.021 297.987 150.214 297.987 150.454V154.781C297.987 155.02 297.936 155.213 297.697 155.213ZM297.697 146.559C297.458 146.559 297.406 146.366 297.406 146.126V145.261C297.406 145.022 297.457 144.828 297.697 144.828C297.936 144.828 297.987 145.022 297.987 145.261V146.126C297.987 146.366 297.936 146.559 297.697 146.559Z" fill="#BDD0FB"/>
<path d="M297.697 143.963C297.458 143.963 297.406 143.769 297.406 143.53V140.934C297.406 140.695 297.457 140.501 297.697 140.501C297.936 140.501 297.987 140.694 297.987 140.934V143.53C297.987 143.769 297.936 143.963 297.697 143.963Z" fill="#BDD0FB"/>
<path d="M173.358 188.499L174.702 167.805L179.808 188.499L191.633 185.543L182.495 194.949L187.333 207.849L179.539 199.922L170.939 212.955L173.313 196.646L160.727 197.905L172.551 192.127L163.145 184.199L173.358 188.499Z" fill="white"/>
<path d="M114.027 267.617C114.027 267.617 122.856 212.635 99.461 194.409C76.0662 176.183 29.0168 160.369 38.0002 80.9162C43.2593 34.4007 44.875 13.9701 45.3105 5.02494C45.4806 1.53551 48.9244 -0.830456 52.2387 0.273881C75.6833 8.0859 151.309 37.3965 160.426 92.9831C171.235 158.882 114.027 267.617 114.027 267.617Z" fill="#BDD0FB"/>
<path d="M67.844 24.8476C91.047 52.004 115.908 97.8569 126.505 141.766C127.658 148.922 131.78 164.367 130.896 190.69C130.316 212.665 126.02 235.384 121.081 250.138C120.769 251.07 119.759 251.573 118.827 251.261C117.223 250.724 117.683 248.983 117.69 249.041C124.5 223.613 127.526 191.22 123.964 161.135C119.215 124.143 102.494 86.6261 84.3202 54.263L82.4323 51.0628C68.2606 26.6611 64.6664 26.0059 66.482 24.6869C66.9108 24.3749 67.5048 24.4526 67.844 24.8476Z" fill="#91B3FA"/>
<path d="M105.898 370.93C108.864 373.406 84.4298 320.428 90.4051 248.061C93.2209 213.96 103.205 172.811 88.3775 152.391C76.0374 135.395 21.0398 130.781 2.93694 129.711C0.674861 129.577 -0.72253 132.135 0.617146 133.962C7.22198 142.972 20.9762 163.779 21.5537 181.502C22.3149 204.862 39.7064 223.852 57.3992 232.165C75.092 240.478 84.5531 246.661 86.3466 278.643C88.1401 310.625 97.4696 363.894 105.898 370.93Z" fill="#91B3FA"/>
<path d="M25.0557 144.907C46.9388 151.236 68.207 167.121 75.6273 188.983L76.3228 191.066C77.9138 195.941 85.4395 229.668 87.6077 256.632C87.6345 256.968 87.384 257.263 87.0479 257.29C86.477 257.336 86.3545 256.69 86.3924 256.753C84.0784 241.255 80.175 221.368 76.8537 206.398C73.3534 190.093 70.8235 179.012 57.0241 165.618C41.5816 151.051 24.707 145.816 24.7557 145.839C24.5007 145.749 24.3674 145.469 24.4582 145.214C24.5452 144.968 24.8089 144.836 25.0557 144.907Z" fill="#7D97F4"/>
<path d="M481.211 421.942L464.234 271.964L464.208 271.978C460.507 220.363 417.492 179.524 364.934 179.524C333.388 179.524 305.289 194.151 287.048 216.997H195.817C177.575 194.151 149.477 179.524 117.931 179.524C65.3732 179.524 22.3576 220.31 18.6565 271.925L18.6308 271.938L1.65348 421.928C-0.330713 439.455 9.41347 456.214 25.6279 463.156L42.4748 470.372C58.2276 477.116 76.5263 473.017 87.9584 460.253L168.399 370.391H314.465L394.906 460.254C406.338 473.018 424.637 477.095 440.39 470.351L457.237 463.151C473.451 456.209 483.195 439.468 481.211 421.942Z" fill="url(#paint28_linear_2707_20996)"/>
<path opacity="0.53" d="M118.705 344.943C154.605 344.943 183.707 315.84 183.707 279.941C183.707 244.041 154.605 214.939 118.705 214.939C82.8055 214.939 53.7031 244.041 53.7031 279.941C53.7031 315.84 82.8055 344.943 118.705 344.943Z" fill="url(#paint29_linear_2707_20996)"/>
<path opacity="0.53" d="M369.057 344.943C404.956 344.943 434.059 315.84 434.059 279.941C434.059 244.041 404.956 214.939 369.057 214.939C333.157 214.939 304.055 244.041 304.055 279.941C304.055 315.84 333.157 344.943 369.057 344.943Z" fill="url(#paint30_linear_2707_20996)"/>
<path d="M369.263 261.206C377.571 261.206 384.307 254.47 384.307 246.162C384.307 237.853 377.571 231.118 369.263 231.118C360.954 231.118 354.219 237.853 354.219 246.162C354.219 254.47 360.954 261.206 369.263 261.206Z" fill="url(#paint31_linear_2707_20996)"/>
<path d="M375.361 324.611C382.959 321.249 386.394 312.365 383.032 304.767C379.67 297.168 370.786 293.734 363.187 297.096C355.589 300.457 352.155 309.342 355.516 316.94C358.878 324.538 367.763 327.973 375.361 324.611Z" fill="#7D97F4"/>
<path d="M401.622 293.564C409.931 293.564 416.666 286.829 416.666 278.521C416.666 270.212 409.931 263.477 401.622 263.477C393.314 263.477 386.578 270.212 386.578 278.521C386.578 286.829 393.314 293.564 401.622 293.564Z" fill="url(#paint32_linear_2707_20996)"/>
<path d="M336.903 293.564C345.212 293.564 351.947 286.829 351.947 278.521C351.947 270.212 345.212 263.477 336.903 263.477C328.595 263.477 321.859 270.212 321.859 278.521C321.859 286.829 328.595 293.564 336.903 293.564Z" fill="#91B3FA"/>
<path d="M148.894 271.664H127.3L124.344 243.503C124.043 240.555 121.56 239.026 118.597 239.026H111.415C109.823 239.026 108.301 238.993 107.21 240.153C106.118 241.312 105.553 242.503 105.648 244.092L107.325 271.664H80.4026C77.2121 271.664 74.0469 274.294 74.0469 277.485V282.962C74.0469 286.153 77.2121 288.798 80.4026 288.798H108.347L110.064 317.532C110.247 320.583 112.775 323.067 115.831 323.067H126.132C127.766 323.067 129.325 322.242 130.42 321.028C131.515 319.815 132.045 318.158 131.879 316.532L129.043 288.798H148.894C152.084 288.798 153.192 286.153 153.192 282.962V277.485C153.192 274.294 152.084 271.664 148.894 271.664Z" fill="url(#paint33_linear_2707_20996)"/>
<path opacity="0.53" d="M229.895 258.609C229.895 260.411 228.434 261.872 226.632 261.872H207.865C206.063 261.872 204.602 260.411 204.602 258.609C204.602 256.806 206.063 255.345 207.865 255.345H226.632C228.434 255.345 229.895 256.806 229.895 258.609Z" fill="url(#paint34_linear_2707_20996)"/>
<path opacity="0.53" d="M273.95 258.609C273.95 260.411 272.489 261.872 270.686 261.872H251.92C250.118 261.872 248.656 260.411 248.656 258.609C248.656 256.806 250.117 255.345 251.92 255.345H270.686C272.489 255.345 273.95 256.806 273.95 258.609Z" fill="url(#paint35_linear_2707_20996)"/>
<path d="M87.9852 109.281C90.9271 107.258 94.1798 105.733 97.6282 104.795C98.9235 104.442 105.917 106.475 110.24 106.375C116.175 106.239 122.215 103.538 127.107 104.757C131.966 105.968 135.943 107.55 138.239 109.183C145.112 114.072 149.148 123.187 151.607 132.216C146.951 136.996 141.091 139.121 141.091 139.121L140.008 183.009L114.056 196.287L84.4348 181.416L85.4958 138.526C85.4958 138.526 76.0897 134.146 75.3995 132.552C74.7093 130.959 79.6864 114.987 87.9852 109.281Z" fill="url(#paint36_linear_2707_20996)"/>
<path d="M89.8513 166.086C89.8513 166.086 85.8861 166.155 82.9442 168.426C80.5144 170.301 78.056 179.495 79.8332 185.577C83.7623 199.024 118.227 192.4 128.004 191.823C137.781 191.247 146.71 186.417 143.801 174.673C140.892 162.929 89.8513 166.086 89.8513 166.086Z" fill="url(#paint37_linear_2707_20996)"/>
<path d="M102.046 68.7471C101.926 68.9733 94.4062 74.5071 94.4062 74.5071C94.4062 74.5071 96.0669 86.3879 102.811 91.0794C110.225 96.2374 120.696 86.8309 120.696 86.8309C120.696 86.8309 129.029 88.8118 133.461 71.4653C134.477 67.4855 128.609 67.1492 121.526 67.8821C112.392 68.8276 102.046 68.7471 102.046 68.7471Z" fill="url(#paint38_linear_2707_20996)"/>
<path d="M75.8379 132.361C75.8379 132.361 63.2331 167.306 91.9765 181.669C97.9447 180.876 95.6492 170.964 95.6492 170.964C95.6492 170.964 83.1601 168.2 86.9109 139.049C83.4576 136.208 75.8379 132.361 75.8379 132.361Z" fill="url(#paint39_linear_2707_20996)"/>
<path d="M151.003 132.361C151.003 132.361 159.677 168.839 134.864 181.669C128.896 180.876 131.192 170.964 131.192 170.964C131.192 170.964 141.257 166.007 139.93 139.049C143.383 136.208 151.003 132.361 151.003 132.361Z" fill="url(#paint40_linear_2707_20996)"/>
<path d="M137.114 180.49H83.6303C83.2794 180.49 82.9922 180.203 82.9922 179.852V144.146C82.9922 143.795 83.2794 143.508 83.6303 143.508H137.114C137.465 143.508 137.753 143.795 137.753 144.146V179.852C137.753 180.203 137.465 180.49 137.114 180.49Z" fill="#91B3FA"/>
<path d="M133.955 181.294H86.7892C84.2521 181.294 82.1875 179.23 82.1875 176.693V147.305C82.1875 144.768 84.2521 142.704 86.7892 142.704H133.955C136.492 142.704 138.557 144.768 138.557 147.305V176.693C138.557 179.23 136.492 181.294 133.955 181.294ZM86.7892 144.312C85.1385 144.312 83.7961 145.655 83.7961 147.305V176.693C83.7961 178.343 85.1385 179.685 86.7892 179.685H133.955C135.606 179.685 136.948 178.343 136.948 176.693V147.305C136.948 145.655 135.606 144.312 133.955 144.312H86.7892Z" fill="white"/>
<path d="M93.3438 269.622C95.3593 263.26 103.699 250.695 103.699 250.695L105.443 251.002L113.081 254.272C113.081 254.272 108.034 267.922 104.44 274.006C104.073 274.627 103.644 275.141 103.176 275.565C102.9 275.654 102.62 275.734 102.331 275.797C97.9783 276.733 94.261 273.569 93.3438 269.622Z" fill="url(#paint41_linear_2707_20996)"/>
<path d="M93.1552 270.26C93.2093 270.056 93.272 269.842 93.3417 269.622C94.2592 273.568 97.9763 276.733 102.329 275.796C102.618 275.734 102.898 275.653 103.174 275.565C99.0564 279.302 91.7057 275.752 93.1552 270.26Z" fill="#7D97F4"/>
<path d="M105.498 246.736L104.298 248.986C103.653 250.196 103.574 251.643 104.079 253.002C104.585 254.362 105.631 255.518 106.984 256.212C108.062 256.765 109.292 256.906 110.402 256.605C111.511 256.303 112.409 255.583 112.895 254.605L114.636 251.105L105.498 246.736Z" fill="url(#paint42_linear_2707_20996)"/>
<path d="M125.964 165.414C118.584 164.732 114.141 170.534 113.969 177.453C114.041 177.615 112.8 214.083 103.945 248.394C107.181 249.049 110.364 250.219 113.307 251.709C113.96 252.045 114.589 252.404 115.195 252.785C126.679 229.05 132.731 207.04 137.782 181.797C139.293 173.94 134.144 166.169 125.964 165.414Z" fill="url(#paint43_linear_2707_20996)"/>
<path d="M150.945 249.057C147.377 243.407 136.129 233.37 136.129 233.37L134.527 234.115L128 239.249C128 239.249 136.351 251.183 141.37 256.158C141.882 256.665 142.426 257.053 142.985 257.345C143.274 257.359 143.565 257.365 143.86 257.351C148.294 257.14 151.068 253.118 150.945 249.057Z" fill="url(#paint44_linear_2707_20996)"/>
<path d="M151.287 249.627C151.182 249.443 151.067 249.252 150.944 249.056C151.068 253.117 148.293 257.14 143.859 257.351C143.564 257.365 143.273 257.359 142.984 257.344C147.908 259.909 154.086 254.578 151.287 249.627Z" fill="#7D97F4"/>
<path d="M133.387 229.993L135.119 231.867C136.049 232.873 136.495 234.256 136.355 235.704C136.215 237.151 135.502 238.542 134.375 239.562C133.478 240.375 132.328 240.828 131.182 240.821C130.035 240.813 128.986 240.346 128.267 239.523L125.695 236.578L133.387 229.993Z" fill="url(#paint45_linear_2707_20996)"/>
<path d="M126.648 237.049C129.252 234.281 132.269 232.291 135.697 231.082C135.835 231.007 135.975 230.943 136.113 230.872C135.149 229.059 133.932 226.69 132.366 223.544C120.943 200.441 113.681 188.623 107.918 169.231C105.679 161.697 98.3347 157.963 91.0177 162.198C84.4855 165.979 83.1739 173.442 86.295 179.622C95.6321 198.11 113.025 222.818 126.094 237.665C126.278 237.459 126.461 237.251 126.648 237.049Z" fill="url(#paint46_linear_2707_20996)"/>
<path d="M97.6328 104.795C97.6328 104.795 100.255 116.159 112.987 115.923C125.956 115.687 127.112 104.757 127.112 104.757L118.64 102.945L117.932 93.5059L105.19 94.4498L104.954 103.417L97.6328 104.795Z" fill="url(#paint47_linear_2707_20996)"/>
<path d="M106.98 66.7627C106.98 66.7627 92.3774 95.0491 109.7 101.912C121.918 106.752 129.579 83.1274 127.294 76.7288C123.761 66.8351 121.434 68.009 121.434 68.009L106.98 66.7627Z" fill="url(#paint48_linear_2707_20996)"/>
<path d="M130.809 64.1889C138.023 66.1717 131.858 81.8174 120.997 78.1175C110.135 74.4175 105.867 74.4716 104.175 77.454C102.482 80.4364 102.119 91.0275 98.4464 85.7927C94.4203 80.0534 92.1754 68.5337 97.1117 64.8201C101.523 61.5012 102.553 56.3557 107.844 56.534C114.868 56.7707 120.299 53.6574 123.47 55.9027C127.111 58.4813 125.501 62.73 130.809 64.1889Z" fill="url(#paint49_linear_2707_20996)"/>
<path d="M103.502 79.8865C103.502 79.8865 100.388 76.5355 99.889 80.5742C99.3904 84.6131 100.991 89.8146 102.866 86.9633C104.741 84.1122 103.502 79.8865 103.502 79.8865Z" fill="url(#paint50_linear_2707_20996)"/>
<path d="M115.905 156.098C116.207 158.137 115.114 159.988 113.075 160.29C111.036 160.591 109.139 159.183 108.837 157.144C108.535 155.105 109.468 153.08 111.507 152.778C113.546 152.477 115.603 154.059 115.905 156.098Z" fill="white"/>
<path d="M202.538 44.6811L195.787 33.0536C194.758 31.2682 192.854 30.25 190.793 30.25H177.305C175.244 30.25 173.34 31.2684 172.311 33.0536L165.56 44.7222C164.532 46.5043 164.532 48.6785 165.56 50.4606L172.311 62.1914C173.34 63.9767 175.244 65.0981 177.305 65.0981H190.793C192.854 65.0981 194.758 63.9666 195.787 62.1812L202.538 50.4559C203.565 48.6736 203.565 46.4633 202.538 44.6811Z" fill="url(#paint51_linear_2707_20996)"/>
<path d="M200.311 44.5577L194.484 34.757C193.595 33.216 191.952 32.573 190.173 32.573H178.53C176.751 32.573 175.108 33.216 174.219 34.757L168.392 44.7111C167.505 46.2494 167.505 48.0671 168.392 49.6055L174.219 60.5792C175.108 62.1203 176.751 63.9363 178.53 63.9363H190.173C191.952 63.9363 193.595 62.0821 194.484 60.541L200.311 49.9812C201.198 48.4429 201.198 46.096 200.311 44.5577Z" fill="#7D97F4"/>
<path d="M328.77 43.7498C328.77 47.2769 326.362 49.4163 323.463 49.4163H216.496C213.597 49.4163 210.867 47.2769 210.867 43.7498V43.6862C210.867 40.159 213.597 37.8003 216.496 37.8003H323.463C326.362 37.8003 328.77 40.159 328.77 43.6862V43.7498Z" fill="url(#paint52_linear_2707_20996)"/>
<path d="M285.619 44.189C285.619 46.4546 284.145 48.8355 282.327 48.8355H217.605C215.787 48.8355 214.312 46.4546 214.312 44.189C214.312 41.9235 215.787 39.5427 217.605 39.5427H282.327C284.145 39.5426 285.619 41.9235 285.619 44.189Z" fill="#7D97F4"/>
<path d="M188.708 41.6757C188.708 44.2357 186.633 46.9993 184.073 46.9993C181.513 46.9993 179.438 44.2357 179.438 41.6757C179.438 39.1158 181.513 37.2996 184.073 37.2996C186.633 37.2996 188.708 39.1158 188.708 41.6757Z" fill="white"/>
<path d="M178.318 56.8552H189.634C190.825 56.8552 191.879 56.0854 192.242 54.9509L192.851 53.0479C193.297 51.6544 192.572 50.1458 191.198 49.6436C186.593 47.9598 181.831 48.1759 176.954 49.7989C175.587 50.2536 174.829 51.7153 175.206 53.1052L175.675 54.8336C175.999 56.0268 177.082 56.8552 178.318 56.8552Z" fill="white"/>
<path d="M304.884 424C307.69 424.558 323.681 434.074 323.681 423.194C323.681 422.17 323.681 411.042 323.681 411.042C323.681 411.042 304.077 423.839 304.884 424Z" fill="url(#paint53_linear_2707_20996)"/>
<path d="M314.887 403.574C314.887 403.574 307.859 391.715 306.98 380.074C306.101 368.434 307.529 363.34 306.211 359.957C304.893 356.575 298.488 343.727 298.195 347.589C297.902 351.45 300.245 355.477 300.245 355.477C300.245 355.477 296.181 358.709 296.877 362.431C297.573 366.153 299 366.531 299 366.531C299 366.531 299.22 374.584 299.586 374.584C299.952 374.584 293.144 414.995 300.757 415.873C308.371 416.752 314.521 422.169 314.887 403.574Z" fill="url(#paint54_linear_2707_20996)"/>
<path d="M294.803 359.568C294.732 359.033 289.81 348.327 290.692 347.109C291.573 345.891 292.463 344.805 293.845 348.415C295.226 352.025 296.874 361.845 296.344 361.904C295.813 361.962 295.058 361.487 294.803 359.568Z" fill="url(#paint55_linear_2707_20996)"/>
<path d="M248.748 476.215C248.748 476.215 245.032 473.131 240.091 473.581C236.647 474.184 232.606 477.231 230.001 479.491C229.546 479.885 229.394 480.513 229.617 481.063C229.841 481.613 230.393 481.97 231.002 481.957C237.462 481.823 250.1 481.44 250.1 480.487C250.1 479.208 248.748 476.215 248.748 476.215Z" fill="url(#paint56_linear_2707_20996)"/>
<path d="M251.309 470.78L248.344 476.38C248.344 476.38 241.645 476.929 241.865 474.294C242.084 471.658 243.732 468.474 243.732 468.474L251.309 470.78Z" fill="url(#paint57_linear_2707_20996)"/>
<path d="M327.018 474.593C322.372 449.231 318.989 432.944 318.989 432.944C318.989 432.944 267.506 399.731 262.235 407.857C256.964 415.983 241.859 471.439 241.859 471.439L251.931 474.184C251.931 474.184 271.185 448.104 272.942 425.839C277.899 442.078 282.518 480.884 320.656 481.997C322.549 482.053 324.366 481.249 325.6 479.812C326.835 478.376 327.359 476.456 327.018 474.593Z" fill="url(#paint58_linear_2707_20996)"/>
<path d="M215.731 473.964L209.582 479.784L204.75 474.953L211.119 467.595L215.731 473.964Z" fill="url(#paint59_linear_2707_20996)"/>
<path d="M351.055 347.648L356.19 366.57C356.425 367.437 356.135 368.376 355.459 368.887C352.987 370.758 346.525 374.479 337.662 370.863C336.648 370.449 335.953 369.403 335.866 368.213L334.648 351.729L351.055 347.648Z" fill="url(#paint60_linear_2707_20996)"/>
<path d="M321 332.384C321 332.384 322.007 350.288 328.337 356.307C334.668 362.326 348.256 359.359 353.865 346.406L346.901 322.846L321 332.384Z" fill="url(#paint61_linear_2707_20996)"/>
<path d="M344.89 338.894C344.359 339.016 343.846 338.639 343.811 338.095C343.705 336.441 343.369 333.157 342.317 330.851C342.317 330.851 343.163 328.585 336.351 331.535C329.538 334.485 319.316 338.801 313.818 335.243C308.458 331.774 304.053 316.242 318.656 320.295C319.212 320.45 319.769 320.044 319.776 319.468C319.805 316.979 320.535 311.311 326.453 309.976C331.99 308.727 334.734 311.413 335.825 312.985C336.146 313.448 336.811 313.496 337.19 313.08C338.985 311.109 343.754 306.995 349.968 310.391C355.087 313.189 355.634 316.535 355.373 318.569C355.288 319.228 355.921 319.734 356.546 319.508C358.239 318.897 360.892 318.731 363.133 322.089C366.232 326.733 360.952 330.079 359.381 330.941C359.123 331.082 358.949 331.337 358.922 331.63C358.715 333.89 357.923 343.959 352.506 349.101C352.037 349.546 350.857 349.099 350.658 348.483L347.626 339.091C347.485 338.655 347.034 338.399 346.587 338.502L344.89 338.894Z" fill="url(#paint62_linear_2707_20996)"/>
<path d="M344.141 340.178C344.141 340.178 347.272 330.911 350.54 334.286C353.808 337.66 348.781 344.044 344.627 344.989L344.141 340.178Z" fill="url(#paint63_linear_2707_20996)"/>
<path d="M321.001 398.523C321.001 398.523 297.54 408.406 293.147 403.355C288.755 398.303 291.171 369.977 291.171 369.977L281.288 367.336C281.288 367.336 269.135 417.338 289.78 424.805C304.767 430.226 333.339 412.579 333.339 412.579L321.001 398.523Z" fill="url(#paint64_linear_2707_20996)"/>
<path d="M343.057 364.335C339.274 365.166 335.128 368.779 331.885 372.245C328.181 376.203 325.701 381.164 324.777 386.505C324.746 386.679 324.716 386.853 324.686 387.028C316.522 395.977 309.33 401.77 304.492 403.912C312.984 415.973 317.579 420.555 317.579 420.555C317.579 420.555 318.558 420.345 320.201 419.92C318.605 434.313 317.741 445.456 317.741 445.456C317.741 445.456 334.329 461.922 354.418 466.607C372.714 453.137 375.513 414.602 375.513 414.602C376.945 368.896 355.836 361.525 343.057 364.335Z" fill="url(#paint65_linear_2707_20996)"/>
<path d="M354.42 466.607C354.42 466.607 346.184 491.095 305.534 477.369C285.823 470.713 258.224 432.126 258.224 432.126C258.224 432.126 251.415 450.794 215.836 475.831L207.93 468.73C207.93 468.73 243.948 406.649 262.397 413.091C280.845 419.534 360.057 450.721 354.42 466.607Z" fill="url(#paint66_linear_2707_20996)"/>
<path d="M212.576 476.946C211.072 476.963 204.745 474.184 204.745 474.184L198.852 475.758C193.716 474.968 189.304 476.717 186.331 478.494C185.682 478.882 185.37 479.656 185.566 480.387C185.761 481.118 186.418 481.63 187.174 481.643C192.991 481.739 202.543 481.837 207.381 481.547C214.628 481.113 215.727 481.322 212.576 476.946Z" fill="url(#paint67_linear_2707_20996)"/>
<path d="M328.314 417.77C328.198 417.77 328.091 417.691 328.062 417.572C328.028 417.433 328.113 417.292 328.252 417.258C328.315 417.242 334.548 415.683 341.247 411.853C347.409 408.33 355.24 402.109 357.553 392.476C357.587 392.336 357.727 392.25 357.866 392.284C358.006 392.317 358.092 392.457 358.058 392.597C355.701 402.415 347.749 408.736 341.493 412.31C334.732 416.173 328.439 417.747 328.377 417.762C328.356 417.768 328.335 417.77 328.314 417.77Z" fill="url(#paint68_linear_2707_20996)"/>
<path d="M276.069 344.447C275.899 344.012 275.931 343.525 276.157 343.116C276.383 342.708 276.779 342.421 277.237 342.333L288.687 340.149C289.131 340.064 289.569 340.326 289.703 340.759L298.509 369.149C298.547 369.272 298.535 369.404 298.475 369.517C298.414 369.63 298.311 369.715 298.189 369.752L288.617 372.625C287.833 372.86 287 372.454 286.702 371.691L276.069 344.447Z" fill="url(#paint69_linear_2707_20996)"/>
<path d="M279.673 344.728C279.58 344.48 279.604 344.203 279.736 343.973C279.869 343.744 280.097 343.585 280.359 343.541L287.959 342.258C288.398 342.184 288.825 342.447 288.957 342.872L296.435 367.059C296.474 367.186 296.459 367.323 296.394 367.438C296.328 367.554 296.218 367.637 296.089 367.668L289.279 369.306C289.042 369.363 288.801 369.234 288.716 369.006L279.673 344.728Z" fill="#91B3FA"/>
<path d="M283.34 342.387C283.359 342.476 283.512 342.519 283.681 342.483L286.18 341.956C286.349 341.921 286.471 341.819 286.453 341.73L286.434 341.644C286.416 341.555 286.263 341.512 286.094 341.547L283.595 342.074C283.426 342.11 283.303 342.211 283.322 342.3L283.34 342.387Z" fill="#91B3FA"/>
<path d="M281.163 367.881C281.016 366.622 276.788 358.606 278.435 355.531C280.082 352.457 280.741 347.186 282.333 348.668C283.926 350.151 281.949 355.312 282.663 356.849C283.377 358.387 286.118 362.293 286.477 365.336C286.836 368.38 288.867 372.717 284.585 373.321C280.302 373.925 281.163 367.881 281.163 367.881Z" fill="url(#paint70_linear_2707_20996)"/>
<path d="M326.424 386.045C326.373 386.045 326.322 386.03 326.277 385.999C326.158 385.918 326.129 385.756 326.21 385.638C326.694 384.931 338.155 368.366 344.754 371.16C344.886 371.216 344.948 371.369 344.892 371.501C344.836 371.633 344.684 371.694 344.551 371.639C338.34 369.003 326.754 385.762 326.638 385.932C326.588 386.005 326.507 386.045 326.424 386.045Z" fill="url(#paint71_linear_2707_20996)"/>
<path d="M300.67 370.561C300.59 370.561 300.51 370.523 300.459 370.453C298.454 367.673 299.72 364.503 300.26 363.15C300.327 362.981 300.402 362.794 300.427 362.706C300.182 362.157 299.225 359.346 299.517 357.593C299.584 357.189 299.794 357.065 299.958 357.033C300.86 356.857 302.819 359.834 303.618 361.123C303.693 361.245 303.655 361.405 303.534 361.481C303.411 361.557 303.251 361.519 303.176 361.397C301.874 359.294 300.46 357.543 300.068 357.543C300.068 357.543 300.065 357.543 300.064 357.543C300.066 357.55 300.045 357.587 300.029 357.679C299.75 359.356 300.769 362.263 300.914 362.522C301.006 362.683 300.94 362.849 300.743 363.342C300.234 364.617 299.043 367.601 300.881 370.149C300.965 370.266 300.938 370.428 300.822 370.512C300.776 370.545 300.723 370.561 300.67 370.561Z" fill="#F8A570"/>
<defs>
<linearGradient id="paint0_linear_2707_20996" x1="527.95" y1="558.508" x2="188.18" y2="196.817" gradientUnits="userSpaceOnUse">
<stop stop-color="#DAE3FE"/>
<stop offset="1" stop-color="#E9EFFD"/>
</linearGradient>
<linearGradient id="paint1_linear_2707_20996" x1="465.046" y1="-67.4493" x2="442.975" y2="-32.6014" gradientUnits="userSpaceOnUse">
<stop stop-color="#09005D"/>
<stop offset="1" stop-color="#1A0F91"/>
</linearGradient>
<linearGradient id="paint2_linear_2707_20996" x1="273.075" y1="243.203" x2="268.479" y2="248.469" gradientUnits="userSpaceOnUse">
<stop stop-color="#2C50FF"/>
<stop offset="0.9964" stop-color="#1A1B80"/>
</linearGradient>
<linearGradient id="paint3_linear_2707_20996" x1="282.364" y1="241.461" x2="277.768" y2="246.726" gradientUnits="userSpaceOnUse">
<stop stop-color="#2C50FF"/>
<stop offset="0.9964" stop-color="#1A1B80"/>
</linearGradient>
<linearGradient id="paint4_linear_2707_20996" x1="288.206" y1="247.168" x2="247.799" y2="293.455" gradientUnits="userSpaceOnUse">
<stop stop-color="#9CFFFB"/>
<stop offset="1" stop-color="#9BFFFA"/>
</linearGradient>
<linearGradient id="paint5_linear_2707_20996" x1="321.15" y1="243.203" x2="325.746" y2="248.469" gradientUnits="userSpaceOnUse">
<stop stop-color="#2C50FF"/>
<stop offset="0.9964" stop-color="#1A1B80"/>
</linearGradient>
<linearGradient id="paint6_linear_2707_20996" x1="311.86" y1="241.461" x2="316.457" y2="246.726" gradientUnits="userSpaceOnUse">
<stop stop-color="#2C50FF"/>
<stop offset="0.9964" stop-color="#1A1B80"/>
</linearGradient>
<linearGradient id="paint7_linear_2707_20996" x1="305.973" y1="247.265" x2="346.397" y2="293.572" gradientUnits="userSpaceOnUse">
<stop stop-color="#9CFFFB"/>
<stop offset="1" stop-color="#9BFFFA"/>
</linearGradient>
<linearGradient id="paint8_linear_2707_20996" x1="287.583" y1="267.487" x2="300.45" y2="282.226" gradientUnits="userSpaceOnUse">
<stop stop-color="#2C50FF"/>
<stop offset="0.9964" stop-color="#1A1B80"/>
</linearGradient>
<linearGradient id="paint9_linear_2707_20996" x1="302.426" y1="267.487" x2="315.293" y2="282.226" gradientUnits="userSpaceOnUse">
<stop stop-color="#2C50FF"/>
<stop offset="0.9964" stop-color="#1A1B80"/>
</linearGradient>
<linearGradient id="paint10_linear_2707_20996" x1="299.944" y1="225.609" x2="283.058" y2="244.954" gradientUnits="userSpaceOnUse">
<stop stop-color="#2C50FF"/>
<stop offset="0.9964" stop-color="#1A1B80"/>
</linearGradient>
<linearGradient id="paint11_linear_2707_20996" x1="293.084" y1="247.631" x2="308.582" y2="265.385" gradientUnits="userSpaceOnUse">
<stop stop-color="#2C50FF"/>
<stop offset="0.9964" stop-color="#1A1B80"/>
</linearGradient>
<linearGradient id="paint12_linear_2707_20996" x1="1037.51" y1="-2313.75" x2="1028.94" y2="-2288.05" gradientUnits="userSpaceOnUse">
<stop stop-color="#09005D"/>
<stop offset="1" stop-color="#1A0F91"/>
</linearGradient>
<linearGradient id="paint13_linear_2707_20996" x1="1018.5" y1="-2320.1" x2="1009.93" y2="-2294.4" gradientUnits="userSpaceOnUse">
<stop stop-color="#09005D"/>
<stop offset="1" stop-color="#1A0F91"/>
</linearGradient>
<linearGradient id="paint14_linear_2707_20996" x1="211.402" y1="112.628" x2="200.724" y2="234.353" gradientUnits="userSpaceOnUse">
<stop stop-color="#E1473D"/>
<stop offset="1" stop-color="#E9605A"/>
</linearGradient>
<linearGradient id="paint15_linear_2707_20996" x1="1033.4" y1="-2315.12" x2="1024.83" y2="-2289.42" gradientUnits="userSpaceOnUse">
<stop stop-color="#09005D"/>
<stop offset="1" stop-color="#1A0F91"/>
</linearGradient>
<linearGradient id="paint16_linear_2707_20996" x1="1027.9" y1="-2316.96" x2="1019.33" y2="-2291.26" gradientUnits="userSpaceOnUse">
<stop stop-color="#09005D"/>
<stop offset="1" stop-color="#1A0F91"/>
</linearGradient>
<linearGradient id="paint17_linear_2707_20996" x1="596.685" y1="-3891.9" x2="595.233" y2="-3861.11" gradientUnits="userSpaceOnUse">
<stop stop-color="#09005D"/>
<stop offset="1" stop-color="#1A0F91"/>
</linearGradient>
<linearGradient id="paint18_linear_2707_20996" x1="577.665" y1="-3892.8" x2="576.213" y2="-3862.02" gradientUnits="userSpaceOnUse">
<stop stop-color="#09005D"/>
<stop offset="1" stop-color="#1A0F91"/>
</linearGradient>
<linearGradient id="paint19_linear_2707_20996" x1="398.759" y1="131.418" x2="388.924" y2="243.536" gradientUnits="userSpaceOnUse">
<stop stop-color="#E1473D"/>
<stop offset="1" stop-color="#E9605A"/>
</linearGradient>
<linearGradient id="paint20_linear_2707_20996" x1="588.189" y1="-3892.31" x2="586.737" y2="-3861.52" gradientUnits="userSpaceOnUse">
<stop stop-color="#09005D"/>
<stop offset="1" stop-color="#1A0F91"/>
</linearGradient>
<linearGradient id="paint21_linear_2707_20996" x1="587.232" y1="-3892.34" x2="585.78" y2="-3861.56" gradientUnits="userSpaceOnUse">
<stop stop-color="#09005D"/>
<stop offset="1" stop-color="#1A0F91"/>
</linearGradient>
<linearGradient id="paint22_linear_2707_20996" x1="1099.47" y1="-1813.65" x2="1092.21" y2="-1795.94" gradientUnits="userSpaceOnUse">
<stop stop-color="#09005D"/>
<stop offset="1" stop-color="#1A0F91"/>
</linearGradient>
<linearGradient id="paint23_linear_2707_20996" x1="1086.55" y1="-1818.94" x2="1079.29" y2="-1801.23" gradientUnits="userSpaceOnUse">
<stop stop-color="#09005D"/>
<stop offset="1" stop-color="#1A0F91"/>
</linearGradient>
<linearGradient id="paint24_linear_2707_20996" x1="300.875" y1="100.646" x2="293.106" y2="189.222" gradientUnits="userSpaceOnUse">
<stop stop-color="#E1473D"/>
<stop offset="1" stop-color="#E9605A"/>
</linearGradient>
<linearGradient id="paint25_linear_2707_20996" x1="1097.46" y1="-1814.47" x2="1090.2" y2="-1796.76" gradientUnits="userSpaceOnUse">
<stop stop-color="#09005D"/>
<stop offset="1" stop-color="#1A0F91"/>
</linearGradient>
<linearGradient id="paint26_linear_2707_20996" x1="1092.91" y1="-1816.34" x2="1085.65" y2="-1798.63" gradientUnits="userSpaceOnUse">
<stop stop-color="#09005D"/>
<stop offset="1" stop-color="#1A0F91"/>
</linearGradient>
<linearGradient id="paint27_linear_2707_20996" x1="393.266" y1="229.92" x2="403.127" y2="147.974" gradientUnits="userSpaceOnUse">
<stop stop-color="#FF928E"/>
<stop offset="1" stop-color="#FE7062"/>
</linearGradient>
<linearGradient id="paint28_linear_2707_20996" x1="247.283" y1="206.383" x2="239.732" y2="490.394" gradientUnits="userSpaceOnUse">
<stop stop-color="#09005D"/>
<stop offset="1" stop-color="#1A0F91"/>
</linearGradient>
<linearGradient id="paint29_linear_2707_20996" x1="53.7031" y1="279.941" x2="183.707" y2="279.941" gradientUnits="userSpaceOnUse">
<stop stop-color="#4F52FF"/>
<stop offset="1" stop-color="#4042E2"/>
</linearGradient>
<linearGradient id="paint30_linear_2707_20996" x1="304.055" y1="279.941" x2="434.059" y2="279.941" gradientUnits="userSpaceOnUse">
<stop stop-color="#4F52FF"/>
<stop offset="1" stop-color="#4042E2"/>
</linearGradient>
<linearGradient id="paint31_linear_2707_20996" x1="263.418" y1="377.752" x2="546.969" y2="25.2293" gradientUnits="userSpaceOnUse">
<stop stop-color="#FF928E"/>
<stop offset="1" stop-color="#FE7062"/>
</linearGradient>
<linearGradient id="paint32_linear_2707_20996" x1="718.998" y1="366.68" x2="657.686" y2="349.649" gradientUnits="userSpaceOnUse">
<stop stop-color="#E1473D"/>
<stop offset="1" stop-color="#E9605A"/>
</linearGradient>
<linearGradient id="paint33_linear_2707_20996" x1="142.593" y1="230.572" x2="58.3048" y2="376.672" gradientUnits="userSpaceOnUse">
<stop stop-color="#09005D"/>
<stop offset="1" stop-color="#1A0F91"/>
</linearGradient>
<linearGradient id="paint34_linear_2707_20996" x1="223.142" y1="248.392" x2="205.48" y2="279.007" gradientUnits="userSpaceOnUse">
<stop stop-color="#4F52FF"/>
<stop offset="1" stop-color="#4042E2"/>
</linearGradient>
<linearGradient id="paint35_linear_2707_20996" x1="267.197" y1="248.392" x2="249.535" y2="279.007" gradientUnits="userSpaceOnUse">
<stop stop-color="#4F52FF"/>
<stop offset="1" stop-color="#4042E2"/>
</linearGradient>
<linearGradient id="paint36_linear_2707_20996" x1="164.545" y1="28.1282" x2="118.081" y2="132.672" gradientUnits="userSpaceOnUse">
<stop stop-color="#FF928E"/>
<stop offset="1" stop-color="#FE7062"/>
</linearGradient>
<linearGradient id="paint37_linear_2707_20996" x1="113.536" y1="164.01" x2="111.481" y2="182.38" gradientUnits="userSpaceOnUse">
<stop stop-color="#2C50FF"/>
<stop offset="0.9964" stop-color="#1A1B80"/>
</linearGradient>
<linearGradient id="paint38_linear_2707_20996" x1="146.965" y1="28.186" x2="116.134" y2="71.9997" gradientUnits="userSpaceOnUse">
<stop stop-color="#09005D"/>
<stop offset="1" stop-color="#1A0F91"/>
</linearGradient>
<linearGradient id="paint39_linear_2707_20996" x1="69.3976" y1="122.965" x2="118.714" y2="242.092" gradientUnits="userSpaceOnUse">
<stop stop-color="#FEBBBA"/>
<stop offset="1" stop-color="#FF928E"/>
</linearGradient>
<linearGradient id="paint40_linear_2707_20996" x1="156.825" y1="122.709" x2="107.509" y2="241.836" gradientUnits="userSpaceOnUse">
<stop stop-color="#FEBBBA"/>
<stop offset="1" stop-color="#FF928E"/>
</linearGradient>
<linearGradient id="paint41_linear_2707_20996" x1="93.3437" y1="263.329" x2="113.081" y2="263.329" gradientUnits="userSpaceOnUse">
<stop stop-color="#4F52FF"/>
<stop offset="1" stop-color="#4042E2"/>
</linearGradient>
<linearGradient id="paint42_linear_2707_20996" x1="59.4358" y1="194.854" x2="113.325" y2="256.896" gradientUnits="userSpaceOnUse">
<stop stop-color="#FEBBBA"/>
<stop offset="1" stop-color="#FF928E"/>
</linearGradient>
<linearGradient id="paint43_linear_2707_20996" x1="214.495" y1="168.248" x2="136.962" y2="201.351" gradientUnits="userSpaceOnUse">
<stop stop-color="#4F52FF"/>
<stop offset="1" stop-color="#4042E2"/>
</linearGradient>
<linearGradient id="paint44_linear_2707_20996" x1="128" y1="245.365" x2="150.949" y2="245.365" gradientUnits="userSpaceOnUse">
<stop stop-color="#4F52FF"/>
<stop offset="1" stop-color="#4042E2"/>
</linearGradient>
<linearGradient id="paint45_linear_2707_20996" x1="177.623" y1="214.561" x2="103.147" y2="249.193" gradientUnits="userSpaceOnUse">
<stop stop-color="#FEBBBA"/>
<stop offset="1" stop-color="#FF928E"/>
</linearGradient>
<linearGradient id="paint46_linear_2707_20996" x1="118.862" y1="264.095" x2="143.255" y2="441.82" gradientUnits="userSpaceOnUse">
<stop stop-color="#4F52FF"/>
<stop offset="1" stop-color="#4042E2"/>
</linearGradient>
<linearGradient id="paint47_linear_2707_20996" x1="112.694" y1="132.801" x2="112.038" y2="75.7095" gradientUnits="userSpaceOnUse">
<stop stop-color="#FEBBBA"/>
<stop offset="1" stop-color="#FF928E"/>
</linearGradient>
<linearGradient id="paint48_linear_2707_20996" x1="110.793" y1="101.11" x2="120.799" y2="52.4047" gradientUnits="userSpaceOnUse">
<stop stop-color="#FEBBBA"/>
<stop offset="1" stop-color="#FF928E"/>
</linearGradient>
<linearGradient id="paint49_linear_2707_20996" x1="148.228" y1="21.518" x2="113.536" y2="70.8179" gradientUnits="userSpaceOnUse">
<stop stop-color="#09005D"/>
<stop offset="1" stop-color="#1A0F91"/>
</linearGradient>
<linearGradient id="paint50_linear_2707_20996" x1="104.158" y1="107.579" x2="96.986" y2="29.9931" gradientUnits="userSpaceOnUse">
<stop stop-color="#FEBBBA"/>
<stop offset="1" stop-color="#FF928E"/>
</linearGradient>
<linearGradient id="paint51_linear_2707_20996" x1="190.944" y1="39.723" x2="157.034" y2="78.5683" gradientUnits="userSpaceOnUse">
<stop stop-color="#09005D"/>
<stop offset="1" stop-color="#1A0F91"/>
</linearGradient>
<linearGradient id="paint52_linear_2707_20996" x1="269.818" y1="-61.5165" x2="269.818" y2="-0.532514" gradientUnits="userSpaceOnUse">
<stop stop-color="#09005D"/>
<stop offset="1" stop-color="#1A0F91"/>
</linearGradient>
<linearGradient id="paint53_linear_2707_20996" x1="320.521" y1="415.136" x2="307.673" y2="434.683" gradientUnits="userSpaceOnUse">
<stop stop-color="#FF928E"/>
<stop offset="1" stop-color="#FE7062"/>
</linearGradient>
<linearGradient id="paint54_linear_2707_20996" x1="305.049" y1="378.494" x2="306.147" y2="407.704" gradientUnits="userSpaceOnUse">
<stop stop-color="#FEBBBA"/>
<stop offset="1" stop-color="#FF928E"/>
</linearGradient>
<linearGradient id="paint55_linear_2707_20996" x1="297.482" y1="347.771" x2="284.002" y2="370.736" gradientUnits="userSpaceOnUse">
<stop stop-color="#FEBBBA"/>
<stop offset="1" stop-color="#FF928E"/>
</linearGradient>
<linearGradient id="paint56_linear_2707_20996" x1="247.236" y1="470.956" x2="232.171" y2="489.897" gradientUnits="userSpaceOnUse">
<stop stop-color="#09005D"/>
<stop offset="1" stop-color="#1A0F91"/>
</linearGradient>
<linearGradient id="paint57_linear_2707_20996" x1="250.03" y1="467.407" x2="241.281" y2="478.407" gradientUnits="userSpaceOnUse">
<stop stop-color="#FEBBBA"/>
<stop offset="1" stop-color="#FF928E"/>
</linearGradient>
<linearGradient id="paint58_linear_2707_20996" x1="288.105" y1="408.029" x2="291.88" y2="339.495" gradientUnits="userSpaceOnUse">
<stop stop-color="#09005D"/>
<stop offset="1" stop-color="#1A0F91"/>
</linearGradient>
<linearGradient id="paint59_linear_2707_20996" x1="207.785" y1="465.842" x2="213.282" y2="485.13" gradientUnits="userSpaceOnUse">
<stop stop-color="#FEBBBA"/>
<stop offset="1" stop-color="#FF928E"/>
</linearGradient>
<linearGradient id="paint60_linear_2707_20996" x1="346.765" y1="373.909" x2="344.115" y2="350.064" gradientUnits="userSpaceOnUse">
<stop stop-color="#FEBBBA"/>
<stop offset="1" stop-color="#FF928E"/>
</linearGradient>
<linearGradient id="paint61_linear_2707_20996" x1="332.297" y1="352.273" x2="345.764" y2="318.504" gradientUnits="userSpaceOnUse">
<stop stop-color="#FEBBBA"/>
<stop offset="1" stop-color="#FF928E"/>
</linearGradient>
<linearGradient id="paint62_linear_2707_20996" x1="345.464" y1="290.607" x2="330.911" y2="345.61" gradientUnits="userSpaceOnUse">
<stop stop-color="#E1473D"/>
<stop offset="1" stop-color="#E9605A"/>
</linearGradient>
<linearGradient id="paint63_linear_2707_20996" x1="340.634" y1="357.161" x2="354.101" y2="323.392" gradientUnits="userSpaceOnUse">
<stop stop-color="#FEBBBA"/>
<stop offset="1" stop-color="#FF928E"/>
</linearGradient>
<linearGradient id="paint64_linear_2707_20996" x1="288.803" y1="350.41" x2="318.863" y2="455.869" gradientUnits="userSpaceOnUse">
<stop stop-color="#FEBBBA"/>
<stop offset="1" stop-color="#FF928E"/>
</linearGradient>
<linearGradient id="paint65_linear_2707_20996" x1="387.921" y1="323.535" x2="345.814" y2="406.88" gradientUnits="userSpaceOnUse">
<stop stop-color="#FF928E"/>
<stop offset="1" stop-color="#FE7062"/>
</linearGradient>
<linearGradient id="paint66_linear_2707_20996" x1="276.009" y1="327.689" x2="277.461" y2="365.731" gradientUnits="userSpaceOnUse">
<stop stop-color="#09005D"/>
<stop offset="1" stop-color="#1A0F91"/>
</linearGradient>
<linearGradient id="paint67_linear_2707_20996" x1="197.582" y1="471.984" x2="202.71" y2="489.974" gradientUnits="userSpaceOnUse">
<stop stop-color="#09005D"/>
<stop offset="1" stop-color="#1A0F91"/>
</linearGradient>
<linearGradient id="paint68_linear_2707_20996" x1="328.055" y1="405.023" x2="358.066" y2="405.023" gradientUnits="userSpaceOnUse">
<stop stop-color="#E1473D"/>
<stop offset="1" stop-color="#E9605A"/>
</linearGradient>
<linearGradient id="paint69_linear_2707_20996" x1="298.524" y1="280.819" x2="293.103" y2="317.216" gradientUnits="userSpaceOnUse">
<stop stop-color="#4F52FF"/>
<stop offset="1" stop-color="#4042E2"/>
</linearGradient>
<linearGradient id="paint70_linear_2707_20996" x1="283.222" y1="369.449" x2="288.932" y2="426.552" gradientUnits="userSpaceOnUse">
<stop stop-color="#FEBBBA"/>
<stop offset="1" stop-color="#FF928E"/>
</linearGradient>
<linearGradient id="paint71_linear_2707_20996" x1="326.164" y1="378.444" x2="344.913" y2="378.444" gradientUnits="userSpaceOnUse">
<stop stop-color="#E1473D"/>
<stop offset="1" stop-color="#E9605A"/>
</linearGradient>
</defs>
</svg>
