<svg width="371" height="265" viewBox="0 0 371 265" fill="none" xmlns="http://www.w3.org/2000/svg">
<path fill-rule="evenodd" clip-rule="evenodd" d="M218.678 218.171C211.926 213.37 205.01 217.849 201.465 222.97C197.925 228.088 200.453 239.607 200.453 239.607C200.453 239.607 201.805 239.607 201.805 239.129C201.805 238.65 198.091 225.529 206.865 219.609C212.354 215.907 216.312 217.691 216.82 219.449C217.326 221.21 214.627 224.41 214.627 224.41L218.679 218.171H218.678Z" fill="#B0C2E4"/>
<path fill-rule="evenodd" clip-rule="evenodd" d="M203.151 208.303C209.903 208.303 212.096 218.223 210.238 223.982C208.385 229.741 205.852 240.46 205.852 240.46L204.165 238.86C204.165 238.86 210.578 223.821 209.059 217.102C207.539 210.383 203.83 209.263 203.153 209.263C202.475 209.263 203.153 208.303 203.153 208.303H203.151Z" fill="#B0C2E4"/>
<path fill-rule="evenodd" clip-rule="evenodd" d="M208.814 224.028C209.291 223.431 209.875 222.938 210.591 222.61C210.498 223.088 210.381 223.546 210.241 223.982C209.395 226.606 208.412 230.259 207.587 233.46C207.515 233.049 207.395 232.417 207.221 231.444C207.176 231.213 207.146 230.964 207.121 230.7C207.785 228.567 208.409 226.244 208.816 224.028H208.814Z" fill="#B0C2E4"/>
<path fill-rule="evenodd" clip-rule="evenodd" d="M210.661 224.075C223.484 218.955 216.727 211.928 228.035 216.57C228.833 216.896 229.8 217.72 230.772 218.857C229.766 219.128 228.549 219.322 227.19 219.13C223.816 218.651 224.997 221.21 230.566 221.851C231.613 221.97 232.467 222.139 233.174 222.373C235.83 227.204 237.024 233.56 231.408 235.769C230.302 236.205 228.934 236.454 227.411 236.547C225.68 235.242 227.836 227.687 225.163 228.729C222.599 229.732 225.97 235.205 225.509 236.584C222.976 236.541 220.171 236.149 217.497 235.52C216.436 234.957 215.623 234.201 215.377 233.21C214.531 229.849 220.1 227.77 220.271 224.89C220.424 222.244 218.227 230.716 212.413 231.962C207.15 229.632 204.662 226.47 210.658 224.076L210.661 224.075Z" fill="#FF7551"/>
<path fill-rule="evenodd" clip-rule="evenodd" d="M201.52 215.024C202.872 212.304 199.327 211.663 199.498 213.743C199.645 215.588 199.662 220.067 197.67 221.287C194.232 220.932 189.556 219.619 186.018 217.617C185.972 217.347 186.018 217.069 186.165 216.784C187.686 213.904 197.472 211.503 194.433 210.545C192.017 209.78 187.774 214.293 184.36 216.566C182.307 215.09 180.934 213.33 180.934 211.367C180.934 208.709 184.342 205.701 188.746 204.263C190.728 204.453 192.572 205.481 195.446 207.026C199.695 209.309 198.712 205.617 194.693 203.425C198.164 203.595 201.62 205.001 204.171 208.358C204.171 208.358 203.93 209.793 205.531 212.011C209.898 218.066 204.856 221.6 198.832 221.371C199.174 219.776 200.59 216.902 201.52 215.024Z" fill="#FF7551"/>
<path fill-rule="evenodd" clip-rule="evenodd" d="M218.27 217.899C221.569 220.316 225.236 223.143 229.734 225.063C234.235 226.984 233.335 233.241 233.335 233.241C233.335 233.241 234.01 227.837 230.259 225.988C226.508 224.14 224.036 221.935 221.186 221.508C218.334 221.081 216.758 220.654 216.758 220.654C216.758 220.654 217.658 218.947 217.135 218.308C216.61 217.668 218.27 217.899 218.27 217.899Z" fill="#B0C2E4"/>
<path fill-rule="evenodd" clip-rule="evenodd" d="M201.205 252.877H205.818C209.098 252.877 211.759 250.357 211.759 247.245V237.196H195.266V247.245C195.266 250.355 197.924 252.877 201.205 252.877Z" fill="#9DB2D9"/>
<path d="M211.759 238.992H195.266V240.093H211.759V238.992Z" fill="white"/>
<path d="M211.759 241H195.266V241.648H211.759V241Z" fill="white"/>
<path fill-rule="evenodd" clip-rule="evenodd" d="M202.091 138.529C206.494 135.06 211.178 130.687 214.204 125.532C217.846 119.336 220.302 111.265 219.999 103.035L119.761 103.041C119.329 124.583 131.897 134.924 147.881 145.888C152.166 148.828 152.823 149.667 156.037 152.142C161.423 156.29 165.828 162.848 166.734 170.019C169.035 188.218 152.771 195.501 142.255 202.501C128.488 211.667 120.513 220.328 119.873 237.51L219.851 237.498C218.262 196.589 169.703 202.446 172.961 170.458C174.558 154.8 191.391 146.958 202.09 138.532L202.091 138.529Z" fill="white"/>
<path fill-rule="evenodd" clip-rule="evenodd" d="M160.836 170.341C162.172 180.494 156.747 185.351 151.699 189.413C146.678 193.454 139.597 197.132 134.399 200.999C124.149 208.623 114.655 218.891 113.878 237.479C101.77 238.018 97.6778 251.684 107.177 257.978C110.428 260.131 113.775 259.753 118.222 259.784C152.726 260.033 187.036 259.533 221.513 259.784C226.262 259.819 229.033 260.277 232.488 258.001C241.956 251.762 238.243 238.068 225.851 237.503C225.784 236.078 225.779 235.243 225.651 234.198C224.818 227.35 223.005 221.453 219.432 215.525C206.426 193.95 175.921 192.326 178.933 170.375C179.675 164.972 182.888 160.364 186.869 157.016C188.243 155.86 189.428 154.86 190.83 153.753C192.188 152.679 193.406 151.777 194.986 150.715L195.204 150.572L214.646 134.35C222.982 124.523 225.279 115.797 226 103.112C229.966 102.645 231.857 101.947 234.087 99.9515C238.8 95.7397 239.057 88.9673 234.802 84.4263C232.087 81.5304 231.461 82.251 227.659 80.6709H111.736C110.428 81.3221 109.201 81.3576 107.698 82.2407C98.184 87.8287 100.724 102.202 113.771 103.033C115.113 122.667 120.588 132.709 136.278 144.635C145.826 151.892 159.274 158.48 160.836 170.338V170.341ZM156.037 152.139C152.825 149.665 152.168 148.825 147.882 145.885C131.898 134.921 119.33 124.579 119.761 103.038L219.999 103.032C220.303 111.262 217.846 119.332 214.205 125.529C211.177 130.684 206.495 135.057 202.091 138.526C191.393 146.952 174.56 154.794 172.963 170.452C169.705 202.44 218.262 196.583 219.853 237.492L119.875 237.504C120.515 220.322 128.488 211.661 142.257 202.495C152.772 195.495 169.037 188.211 166.736 170.013C165.83 162.844 161.425 156.284 156.039 152.136L156.037 152.139ZM160.224 97.4232C148.931 97.4232 137.597 97.3361 126.29 97.4365C122.51 97.469 113.014 98.0966 110.363 96.4471C107.391 94.5967 106.098 88.4933 112.109 86.5779C114.553 85.7997 202.866 86.1866 213.35 86.2206C217.273 86.2324 226.536 85.528 229.397 87.145C233.319 89.3631 232.553 95.8726 227.841 97.1766C225.231 97.8988 168.044 97.4232 160.222 97.4218L160.224 97.4232ZM114.853 243.086H221.095C224.415 243.086 227.721 242.661 229.908 244.464C231.408 245.7 232.721 249.095 230.988 251.687C229.318 254.184 227.253 254.361 223.343 254.318C193.023 253.98 160.875 254.282 130.343 254.287C126.262 254.287 113.162 254.961 110.481 253.455C106.648 251.3 106.285 243.091 114.853 243.088V243.086Z" fill="#302F2F"/>
<path fill-rule="evenodd" clip-rule="evenodd" d="M151.684 202.031C142.777 208.077 129.929 216.082 131.346 232.362L208.328 232.327C209.653 222 203.473 213.124 195.983 207.634C193.906 206.114 190.902 203.533 188.595 202.396C185.531 203.487 182.896 205.786 178.622 205.59C173.974 205.379 167.641 200.653 166.94 196.387C166.742 195.182 165.451 194.198 163.904 194.522C163.32 194.643 152.794 201.276 151.684 202.031ZM167.801 190.52C167.446 187.994 163.158 188.461 163.613 191.257C163.979 193.504 168.227 193.535 167.801 190.52ZM166.694 182.051C167.294 185.307 173.409 185.047 172.736 180.952C172.493 179.462 170.893 178.245 168.979 178.642C167.555 178.939 166.371 180.302 166.694 182.051ZM137.902 226.761L196.303 226.709L201.302 226.705L137.901 226.761H137.902ZM142.681 134.332C158.584 145.414 167.317 147.592 170.705 166.171C171.641 164.764 173.094 159.022 173.829 156.904C175.832 151.14 180.818 147.184 185.71 143.681C187.64 142.431 202.275 135.536 201.185 133.936C197.968 134.113 184.603 134.681 181.404 134.353C173.27 133.517 167.551 128.574 161.345 124.661C151.106 118.203 142.21 118.221 131.754 125.071L142.679 134.334L142.681 134.332ZM169.174 190.158C169.678 193.253 175.527 193.296 174.941 189.145C174.454 185.669 168.547 186.311 169.174 190.158ZM175.116 197.855C174.616 195.14 176.452 193.026 178.661 192.568C181.634 191.949 184.112 193.837 184.492 196.151C185.534 202.507 176.046 202.91 175.116 197.855Z" fill="#FF5225"/>
<path opacity="0.47" fill-rule="evenodd" clip-rule="evenodd" d="M202.091 138.529C206.494 135.06 211.178 130.687 214.204 125.532C217.846 119.336 220.302 111.265 219.999 103.035L119.761 103.041C119.329 124.583 131.897 134.924 147.881 145.888C152.166 148.828 152.823 149.667 156.037 152.142C161.423 156.29 165.828 162.848 166.734 170.019C169.035 188.218 152.771 195.501 142.255 202.501C128.488 211.667 120.513 220.328 119.873 237.51L219.851 237.498C218.262 196.589 169.703 202.446 172.961 170.458C174.558 154.8 191.391 146.958 202.09 138.532L202.091 138.529Z" fill="white" stroke="#231F20" stroke-width="0.5" stroke-miterlimit="2.61"/>
<path fill-rule="evenodd" clip-rule="evenodd" d="M133.561 97.3953C142.452 97.3688 151.35 97.4234 160.224 97.4234C168.046 97.4234 225.232 97.9004 227.843 97.1783C232.553 95.8728 233.321 89.3633 229.399 87.1466C226.537 85.5296 217.275 86.2355 213.351 86.2222C206.057 86.1971 161.071 86.0036 133.563 86.1498C121.54 86.2148 112.853 86.3418 112.112 86.5796C106.099 88.4949 107.394 94.5984 110.364 96.4487C113.015 98.0998 122.512 97.4721 126.292 97.4382C128.714 97.416 131.139 97.4027 133.563 97.3968L133.561 97.3953Z" fill="#3A393C"/>
<path fill-rule="evenodd" clip-rule="evenodd" d="M197.754 90.0529C199.693 90.0469 201.633 90.0588 203.567 90.0588C205.273 90.0588 217.741 90.1636 218.31 90.0056C219.338 89.7206 219.504 88.3014 218.649 87.8185C218.026 87.4656 216.006 87.6192 215.151 87.6162C213.559 87.6103 203.752 87.569 197.754 87.6C195.133 87.6133 193.239 87.6413 193.078 87.6945C191.767 88.1109 192.049 89.4415 192.697 89.8461C193.275 90.2064 195.345 90.0691 196.17 90.0617C196.698 90.0573 197.226 90.0543 197.754 90.0529Z" fill="white"/>
<path fill-rule="evenodd" clip-rule="evenodd" d="M182.087 90.0587C183.792 90.0587 187.144 90.1635 187.713 90.0055C188.741 89.7205 188.907 88.3013 188.052 87.8184C187.429 87.4655 185.409 87.6205 184.554 87.6161C182.964 87.6102 187.92 87.5688 181.923 87.5999C179.3 87.6132 177.408 87.6412 177.246 87.6944C175.934 88.1108 176.218 89.4414 176.864 89.846C177.442 90.2063 179.512 90.069 180.338 90.0616C182.803 90.0395 179.623 90.0587 182.088 90.0587H182.087Z" fill="white"/>
<path fill-rule="evenodd" clip-rule="evenodd" d="M221.095 243.086H114.853C106.283 243.089 106.646 251.3 110.481 253.453C113.161 254.959 126.262 254.286 130.343 254.286C160.875 254.28 193.023 253.977 223.343 254.317C227.252 254.36 229.318 254.183 230.989 251.686C232.723 249.094 231.41 245.699 229.91 244.463C227.723 242.661 224.416 243.085 221.097 243.085L221.095 243.086Z" fill="#3A393C"/>
<path fill-rule="evenodd" clip-rule="evenodd" d="M197.754 252.409C199.693 252.403 201.633 252.417 203.567 252.417C205.273 252.417 217.741 252.521 218.31 252.362C219.338 252.078 219.504 250.658 218.649 250.175C218.026 249.822 216.006 249.977 215.151 249.973C213.559 249.968 203.752 249.925 197.754 249.958C195.133 249.971 193.239 249.999 193.078 250.051C191.767 250.469 192.049 251.799 192.697 252.202C193.275 252.561 195.345 252.425 196.17 252.418C196.698 252.414 197.226 252.411 197.754 252.409Z" fill="white"/>
<path fill-rule="evenodd" clip-rule="evenodd" d="M182.087 252.417C183.792 252.417 187.144 252.52 187.713 252.362C188.741 252.078 188.907 250.658 188.052 250.175C187.429 249.822 185.409 249.977 184.554 249.973C182.964 249.967 187.92 249.925 181.923 249.958C179.3 249.971 177.408 249.999 177.246 250.051C175.934 250.469 176.218 251.799 176.864 252.202C177.442 252.563 179.512 252.425 180.338 252.418C182.803 252.396 179.623 252.415 182.088 252.415L182.087 252.417Z" fill="white"/>
<path d="M216.144 45.9111H194.891V56.5822H216.144V45.9111Z" fill="white"/>
<path d="M216.144 59.6289H194.891V64.2069H216.144V59.6289Z" fill="white"/>
<path fill-rule="evenodd" clip-rule="evenodd" d="M206.17 47.0292C205.733 46.372 205.337 45.8995 204.98 45.613C206.672 44.7432 207.608 43.7877 207.793 42.7466C208.041 42.9533 208.25 43.2014 208.421 43.4923C207.793 44.913 207.043 46.0914 206.17 47.0277V47.0292Z" fill="black"/>
<path fill-rule="evenodd" clip-rule="evenodd" d="M203.79 47.0292C204.226 46.372 204.623 45.8995 204.978 45.613C203.288 44.7432 202.351 43.7877 202.167 42.7466C201.918 42.9533 201.71 43.2014 201.539 43.4923C202.167 44.913 202.918 46.0914 203.79 47.0277V47.0292Z" fill="black"/>
<path fill-rule="evenodd" clip-rule="evenodd" d="M218.736 48.4009C216.912 46.01 213.473 44.3738 208.419 43.4937C207.791 44.9143 207.04 46.0927 206.168 47.029C205.731 46.3719 205.335 45.8993 204.978 45.6128C204.622 45.8978 204.226 46.3719 203.79 47.029C202.918 46.0927 202.167 44.9143 201.539 43.4937C196.485 44.3738 193.046 46.01 191.22 48.4009C189.825 52.273 188.904 55.3402 188.457 57.6056C189.937 57.9068 191.641 58.2627 193.569 58.6732C193.31 63.0415 193.243 66.7747 193.368 69.8686C196.063 70.6128 199.829 71.9375 204.313 73.717C204.545 73.7096 204.768 73.6993 204.977 73.686C205.187 73.6993 205.41 73.7111 205.64 73.717C210.126 71.939 213.891 70.6128 216.585 69.8686C216.71 66.7747 216.643 63.0415 216.384 58.6732C218.313 58.2627 220.017 57.9068 221.498 57.6056C221.049 55.3417 220.129 52.2745 218.733 48.4009H218.736Z" fill="#FF5225"/>
<path fill-rule="evenodd" clip-rule="evenodd" d="M215.58 51.3574C215.936 53.546 216.207 55.9841 216.386 58.6718C216.631 58.6201 216.871 58.5684 217.108 58.5182C216.793 56.8539 216.284 54.466 215.578 51.356L215.58 51.3574Z" fill="#FF5225"/>
<path fill-rule="evenodd" clip-rule="evenodd" d="M194.377 51.3574C194.021 53.546 193.751 55.9841 193.569 58.6718C193.326 58.6201 193.084 58.5684 192.848 58.5182C193.164 56.8539 193.672 54.466 194.377 51.356V51.3574Z" fill="#FF5225"/>
<path fill-rule="evenodd" clip-rule="evenodd" d="M215.43 78.4133C215.975 79.7246 214.975 81.8408 214.298 82.2632C201.952 81.0892 194.245 79.4426 189.489 77.1639C188.071 76.4196 185.596 76.1007 184.088 75.1526C180.441 71.5035 183.171 66.7188 186.788 66.9536C189.317 67.4159 190.507 68.1011 191.707 69.4523C196.034 70.39 204.842 73.7024 215.428 78.4133H215.43Z" fill="white"/>
<path fill-rule="evenodd" clip-rule="evenodd" d="M228.567 80.3699C229.062 83.5656 224.857 84.0721 216.203 82.6795C219.841 81.5395 220.323 80.5353 217.612 78.9345C225.142 77.6408 228.578 77.6526 228.567 80.3713V80.3699ZM181.391 80.3699C180.894 83.5656 185.101 84.0721 193.753 82.6795C190.115 81.5395 189.634 80.5353 192.344 78.9345C184.816 77.6408 181.379 77.6526 181.391 80.3713V80.3699Z" fill="#0E2952"/>
<path fill-rule="evenodd" clip-rule="evenodd" d="M214.458 82.1375C215.184 82.2704 215.765 82.4506 216.203 82.6795C219.841 81.5394 220.322 80.5352 217.612 78.9344C217 78.961 216.302 78.8872 215.525 78.7085C215.808 79.9121 215.069 81.5719 214.458 82.139V82.1375ZM195.496 82.1375C194.77 82.2704 194.189 82.4506 193.752 82.6795C190.113 81.5394 189.632 80.5352 192.342 78.9344C192.956 78.961 193.652 78.8872 194.431 78.7085C194.146 79.9121 194.887 81.5719 195.496 82.139V82.1375Z" fill="#F9AF79"/>
<path fill-rule="evenodd" clip-rule="evenodd" d="M221.049 64.9005C221.346 62.5938 221.271 60.2074 220.826 57.7412C219.706 57.9716 218.465 58.23 217.108 58.518C216.871 58.5682 216.63 58.6184 216.387 58.6716C216.637 62.904 216.708 66.5397 216.6 69.5759C218.81 67.8865 220.295 66.3271 221.05 64.9005H221.049Z" fill="#F9AF79"/>
<path fill-rule="evenodd" clip-rule="evenodd" d="M188.906 64.9005C188.607 62.5938 188.682 60.2074 189.129 57.7412C190.25 57.9716 191.49 58.23 192.847 58.518C193.085 58.5682 193.325 58.6184 193.568 58.6716C193.319 62.904 193.247 66.5397 193.356 69.5759C191.144 67.8865 189.662 66.3271 188.906 64.9005Z" fill="#F9AF79"/>
<path fill-rule="evenodd" clip-rule="evenodd" d="M217.673 64.2909C217.653 62.6384 217.589 60.6876 217.483 58.4399C217.358 58.4665 217.235 58.4916 217.107 58.5197C216.871 58.5699 216.629 58.6201 216.386 58.6733C216.542 61.2827 216.628 63.6647 216.645 65.8208C216.847 65.5978 217.083 65.3379 217.35 65.041C218.117 64.7324 218.883 64.5788 219.649 64.5833C218.769 64.3233 218.111 64.2274 217.674 64.2938L217.673 64.2909ZM192.283 64.2909C192.303 62.6384 192.367 60.6876 192.471 58.4399C192.596 58.4665 192.72 58.4916 192.847 58.5197C193.085 58.5699 193.325 58.6201 193.568 58.6733C193.414 61.2827 193.328 63.6647 193.309 65.8208C193.107 65.5978 192.872 65.3379 192.604 65.041C191.837 64.7324 191.073 64.5788 190.305 64.5833C191.186 64.3233 191.845 64.2274 192.281 64.2938L192.283 64.2909Z" fill="#ED7D57"/>
<path fill-rule="evenodd" clip-rule="evenodd" d="M193.705 59.8623H216.257C216.474 59.8623 216.65 60.0307 216.65 60.2344V69.8526C213.957 70.591 210.181 71.9186 205.678 73.7025H204.283C199.778 71.9171 196.004 70.591 193.312 69.8526V60.2344C193.312 60.0307 193.489 59.8623 193.705 59.8623Z" fill="black"/>
<path fill-rule="evenodd" clip-rule="evenodd" d="M194.361 70.1534C196.948 70.9273 200.337 72.1397 204.281 73.7021L204.314 73.7154L204.585 73.7021H205.371L205.642 73.7154C209.603 72.1456 213.002 70.9287 215.598 70.1534V62.21C214.117 63.9909 211.167 65.4633 207.392 66.3449C207.41 66.4615 207.421 66.5812 207.421 66.7023C207.421 67.9826 206.328 69.0193 204.977 69.0193C203.769 69.0193 202.766 68.1864 202.569 67.0951C201.484 67.1866 200.361 67.2368 199.214 67.2368C197.529 67.2368 195.9 67.132 194.359 66.9356V70.1549L194.361 70.1534Z" fill="black"/>
<path fill-rule="evenodd" clip-rule="evenodd" d="M202.622 31.9189C204.142 33.9244 206.556 35.6862 209.862 37.2057C209.034 39.5538 207.787 41.8457 205.06 42.274C202.446 41.8767 201 40.0839 200.41 37.541C201.815 36.0583 202.552 34.1843 202.622 31.9189Z" fill="#F9AF79"/>
<path fill-rule="evenodd" clip-rule="evenodd" d="M212.532 33.1933C212.532 29.2385 209.119 26 204.945 26C200.77 26 197.359 29.2371 197.359 33.1933V44.5126C198.602 44.1021 199.995 43.7624 201.54 43.4952C201.711 43.2042 201.918 42.9547 202.168 42.7494C202.351 43.7905 203.289 44.7445 204.979 45.6158C206.671 44.746 207.607 43.7905 207.792 42.7494C208.04 42.9561 208.248 43.2042 208.42 43.4952C209.935 43.7595 211.306 44.0903 212.532 44.4905V33.1933ZM202.621 31.9188C204.141 33.9243 206.555 35.6861 209.86 37.2056C209.033 39.5537 207.786 41.8456 205.058 42.2739C202.445 41.8766 200.999 40.0838 200.409 37.5409C201.814 36.0582 202.551 34.1842 202.621 31.9188Z" fill="black"/>
<path fill-rule="evenodd" clip-rule="evenodd" d="M207.792 42.7478C207.602 42.4657 207.468 41.9651 207.392 41.2445C206.761 41.7598 205.998 42.1276 205.06 42.2738C203.964 42.1069 203.074 41.6949 202.366 41.085C202.342 41.7436 202.275 42.2974 202.168 42.7463C202.352 43.7874 203.289 44.7414 204.979 45.6127C206.671 44.7429 207.607 43.7874 207.792 42.7463V42.7478Z" fill="#F9AF79"/>
<path fill-rule="evenodd" clip-rule="evenodd" d="M207.469 41.7894C207.439 41.624 207.414 41.4423 207.393 41.2445C206.762 41.7598 205.999 42.1276 205.061 42.2738C203.964 42.1069 203.075 41.6949 202.366 41.085C202.358 41.3198 202.344 41.5398 202.324 41.748C202.977 42.1689 203.897 42.5263 205.084 42.8231C205.837 42.6311 206.628 42.3653 207.469 41.7894Z" fill="#ED7D57"/>
<path fill-rule="evenodd" clip-rule="evenodd" d="M197.36 39.356H200.787V48.9874H196.523C197.322 45.8758 197.632 42.6713 197.36 39.356Z" fill="black"/>
<path fill-rule="evenodd" clip-rule="evenodd" d="M209.105 39.356H212.532C212.299 42.5531 212.746 45.7695 213.309 48.9874H209.105V39.356Z" fill="black"/>
<path fill-rule="evenodd" clip-rule="evenodd" d="M204.979 65.2036C205.853 65.2036 206.562 65.8755 206.562 66.7025C206.562 67.5295 205.853 68.2014 204.979 68.2014C204.106 68.2014 203.398 67.531 203.398 66.7025C203.398 65.8741 204.107 65.2036 204.979 65.2036Z" fill="white"/>
<path fill-rule="evenodd" clip-rule="evenodd" d="M194.528 78.4133C193.983 79.7246 194.983 81.8408 195.66 82.2632C208.005 81.0892 215.714 79.4426 220.469 77.1639C221.887 76.4196 224.362 76.1007 225.869 75.1526C229.517 71.5035 226.787 66.7188 223.17 66.9536C220.642 67.4159 219.451 68.1011 218.253 69.4523C213.924 70.39 205.116 73.7024 194.529 78.4133H194.528Z" fill="white"/>
<path fill-rule="evenodd" clip-rule="evenodd" d="M204.156 73.6533C197.407 76.1446 192.092 77.1444 188.211 76.6526C188.686 76.8077 189.124 76.9716 189.491 77.1651C190.734 77.7602 192.177 78.3125 193.852 78.8249C194.039 78.7924 194.234 78.754 194.433 78.7083C194.457 78.6064 194.486 78.5089 194.527 78.4144C198.273 76.7471 201.799 75.2541 204.98 73.9812C204.757 73.8911 204.536 73.8039 204.316 73.7168C204.304 73.7124 204.293 73.708 204.284 73.7035C204.24 73.6873 204.199 73.671 204.159 73.6548L204.156 73.6533Z" fill="white"/>
<path fill-rule="evenodd" clip-rule="evenodd" d="M215.575 78.9814C212.729 79.8143 209.242 80.535 204.98 81.1626C207.748 81.5687 210.843 81.9335 214.301 82.2628C214.354 82.2318 214.405 82.189 214.461 82.1373C215.027 81.6116 215.703 80.151 215.575 78.9814Z" fill="white"/>
<path fill-rule="evenodd" clip-rule="evenodd" d="M203.809 34.1117C202.719 33.8842 200.851 34.9948 201.459 35.1114C201.656 35.1484 202.212 34.8308 202.424 34.7747C202.853 34.664 203.678 34.7186 203.91 34.4528C204.005 34.3435 203.946 34.1397 203.807 34.1117H203.809Z" fill="black"/>
<path fill-rule="evenodd" clip-rule="evenodd" d="M206.222 34.4723C206.454 34.7366 207.28 34.679 207.706 34.7927C207.921 34.8488 208.477 35.1649 208.677 35.125C209.281 35.0098 207.411 33.8919 206.326 34.1311C206.171 34.1666 206.126 34.3644 206.224 34.4737L206.222 34.4723Z" fill="black"/>
<path fill-rule="evenodd" clip-rule="evenodd" d="M202.83 36.581C202.516 36.581 202.27 35.4438 203.033 35.4438C203.443 35.4438 203.346 36.581 202.83 36.581Z" fill="black"/>
<path fill-rule="evenodd" clip-rule="evenodd" d="M207.515 36.6254C207.83 36.6254 208.077 35.4897 207.313 35.4897C206.905 35.4897 207 36.6254 207.515 36.6254Z" fill="black"/>
<path fill-rule="evenodd" clip-rule="evenodd" d="M204.647 38.4326C204.616 38.3056 204.844 38.2938 204.984 38.2643C205.504 38.155 205.529 38.3957 205.286 36.3253C205.239 35.9207 205.166 35.7021 205.319 35.6918C205.46 35.6829 205.423 35.8424 205.478 36.3031C205.741 38.5552 205.746 38.2776 204.764 38.4991C204.713 38.5109 204.66 38.4814 204.646 38.4326H204.647Z" fill="#ED7D57"/>
<path fill-rule="evenodd" clip-rule="evenodd" d="M204.001 40.2107C203.872 39.9892 204.208 40.0497 206.27 39.8415C206.887 39.781 205.071 42.0581 204.001 40.2107Z" fill="#ED7D57"/>
<path fill-rule="evenodd" clip-rule="evenodd" d="M260.96 252.313L262.984 257.008C263.063 257.52 263.396 258.802 263.385 259.269C263.34 261.018 254.819 257.586 256.766 256.85C256.943 256.785 257.507 256.237 257.576 255.636C257.691 254.72 256.907 253.548 256.907 253.548L260.96 252.314V252.313Z" fill="#F9AF79"/>
<path fill-rule="evenodd" clip-rule="evenodd" d="M263.86 259.858C263.86 259.858 263.728 257.22 263.011 256.898C262.339 256.594 261.082 257.737 260.127 257.581C259.172 257.423 257.03 256.652 257.03 256.652C253.174 257.813 250.308 258.538 250.851 259.561L263.86 259.858Z" fill="black"/>
<path fill-rule="evenodd" clip-rule="evenodd" d="M247.745 253.404L248.912 256.686C248.991 257.198 249.324 258.48 249.314 258.948C249.27 260.697 240.748 257.265 242.695 256.528C242.873 256.464 243.434 255.916 243.505 255.315C243.617 254.4 242.836 253.226 242.836 253.226L247.747 253.406L247.745 253.404Z" fill="#F9AF79"/>
<path fill-rule="evenodd" clip-rule="evenodd" d="M237.43 191.617L234.128 198.859C234.128 198.859 231.653 216.265 232.572 226.74C232.956 231.126 243.078 254.76 243.078 254.76L248.419 254.194L243.592 226.669L244.884 215.796L249.13 194.936L237.43 191.618V191.617Z" fill="black"/>
<path fill-rule="evenodd" clip-rule="evenodd" d="M241.146 192.561L239.043 200.16C239.043 200.16 239.39 217.717 241.981 227.966C243.066 232.257 256.873 254.336 256.873 254.336L262.064 253.085L252.868 226.457L254.449 200.47L253.251 194.333L241.147 192.561H241.146Z" fill="black"/>
<path fill-rule="evenodd" clip-rule="evenodd" d="M249.79 259.536C249.79 259.536 249.651 256.925 248.885 256.601C248.162 256.278 246.788 257.411 245.754 257.251C244.724 257.093 242.717 256.511 242.717 256.511C238.556 257.666 235.156 258.192 235.747 259.217L249.788 259.536H249.79Z" fill="black"/>
<path fill-rule="evenodd" clip-rule="evenodd" d="M239.984 154.943C237.326 153.742 237.503 155.695 236.777 157.589C237.735 158.236 238.245 158.768 238.53 159.686C239.371 159.217 239.938 159.425 240.553 158.718C241.547 157.805 242.872 155.974 241.771 155.729C241.329 156.548 240.882 156.691 240.321 156.985C240.414 156.563 240.554 156.15 240.741 155.746C240.964 155.218 241.377 154.68 241.981 154.135C243.04 153.988 243.492 153.734 243.33 153.372C242.076 153.029 240.959 153.552 239.984 154.944V154.943Z" fill="#F9AF79"/>
<path fill-rule="evenodd" clip-rule="evenodd" d="M236.834 172.234C234.873 181.86 235.667 185.295 234.13 198.86C238.088 203.366 244.854 199.094 247.237 199.921C248.27 200.015 249.871 200.151 250.809 201.65C252.034 200.175 253.112 198.803 254.056 197.52C257.048 193.454 258.692 190.285 259.402 187.577C263.772 171.601 260.24 165.896 249.985 164.607C249.139 166.134 245.317 166.807 244.25 166.604C243.533 166.112 243.301 164.929 242.804 163.796C239.619 164.037 236.311 165.35 234.445 166.537C236.194 164.408 237.666 162.271 238.86 160.127C238.655 159.085 237.881 158.193 236.533 157.452C224.621 165.252 220.149 170.428 223.12 172.98C226.397 174.621 230.968 174.373 236.837 172.234H236.834Z" fill="#FF5225"/>
<path fill-rule="evenodd" clip-rule="evenodd" d="M247.239 199.921C248.437 196.632 251.301 189.177 253.264 186.619C252.916 183.672 253.328 180.045 253.983 176.629C252.879 179.097 251.842 182.607 251.591 186.424C249.898 189.08 248.116 195.76 247.004 199.847C247.314 199.863 246.923 199.907 247.237 199.921H247.239ZM231.66 169.677C234.176 167.308 236.585 165.602 238.886 164.562C237.119 165.104 235.535 165.841 234.444 166.535C233.584 167.584 232.655 168.632 231.66 169.677Z" fill="#FF5225"/>
<path fill-rule="evenodd" clip-rule="evenodd" d="M244.248 166.602C245.315 166.804 249.137 166.131 249.983 164.606C249.383 163.489 249.103 162.269 249.098 161.614C249.316 161.33 249.564 160.965 249.846 160.518C252.467 159.737 253.094 158.784 251.724 157.662C251.354 157.742 250.791 158.151 250.041 158.889C249.668 158.766 249.438 158.502 249.357 158.095C250.274 156.748 250.947 155.633 251.374 154.75C250.782 152.933 248.341 152 244.891 151.461C244.471 152.255 244.063 153.106 243.667 154.016C242.916 154.361 242.39 156.284 242.236 158.631C241.571 159.8 242.167 160.713 244.022 161.366C243.876 161.952 243.27 163.371 242.801 163.795C243.298 164.927 243.532 166.11 244.247 166.602H244.248Z" fill="#F9AF79"/>
<path fill-rule="evenodd" clip-rule="evenodd" d="M244.891 151.462C248.341 152.001 250.782 152.933 251.374 154.751C250.946 155.634 250.274 156.749 249.357 158.096C249.44 158.502 249.668 158.768 250.041 158.89C250.792 158.15 251.352 157.741 251.725 157.663C253.092 158.787 252.466 159.738 249.846 160.519C249.564 160.967 249.315 161.331 249.098 161.615C251.189 161.757 253.352 160.563 253.812 159.911C257.45 156.293 255.475 153.765 254.319 152.717C255.059 148.32 247.401 150.21 244.801 147.246C242.977 148.566 243.899 151.139 244.891 151.464V151.462Z" fill="black"/>
<path fill-rule="evenodd" clip-rule="evenodd" d="M246.695 161.523C246.047 161.57 244.871 161.559 244.024 161.367C243.945 161.686 243.73 162.25 243.473 162.768C244.417 162.821 246.156 162.039 246.695 161.523Z" fill="#ED7D57"/>
<path fill-rule="evenodd" clip-rule="evenodd" d="M247.477 199.943C246.844 201.356 246.362 202.746 246.027 204.112C246.56 206.128 247.384 207.312 248.496 207.663C249.812 207.711 250.186 206.795 250.58 206.16C249.881 205.498 249.515 204.766 249.485 203.963C250.259 203.514 250.512 202.981 250.241 202.362C250.423 202.05 250.591 201.771 250.745 201.523C250.007 200.418 249.233 200.108 248.446 200C248.125 199.969 247.803 199.959 247.479 199.941L247.477 199.943Z" fill="#F9AF79"/>
<path fill-rule="evenodd" clip-rule="evenodd" d="M251.665 185.53C244.932 184.633 239.717 183.384 236.022 181.774C235.999 181.204 235.979 180.652 235.973 180.089C239.661 181.566 244.961 182.824 251.879 183.864C251.793 184.41 251.721 184.966 251.665 185.53Z" fill="#3A393C"/>
<path fill-rule="evenodd" clip-rule="evenodd" d="M252.359 181.451C244.64 180.638 239.198 179.414 236.031 177.778C236.064 177.271 236.114 176.735 236.182 176.156C239.763 177.943 245.313 179.134 252.831 179.727C252.661 180.279 252.504 180.854 252.359 181.451ZM244.249 166.602C245.316 166.804 249.138 166.132 249.984 164.605C250.23 164.636 250.472 164.669 250.71 164.704C249.892 166.365 247.682 167.244 244.081 167.336C243.135 166.399 242.529 165.237 242.258 163.848C242.441 163.827 242.621 163.811 242.804 163.796C243.3 164.929 243.534 166.111 244.249 166.603V166.602Z" fill="#3A393C"/>
<path fill-rule="evenodd" clip-rule="evenodd" d="M245.558 159.062C244.573 158.495 244.005 158.216 242.995 157.746C242.589 157.559 244.025 156.994 245.645 159.04C245.684 159.088 245.632 159.106 245.556 159.062H245.558Z" fill="#EB795B"/>
<path fill-rule="evenodd" clip-rule="evenodd" d="M248.193 153.29C247.638 153.211 247.57 153.628 247.95 153.815C251.998 155.776 249.566 153.49 248.193 153.29Z" fill="black"/>
<path fill-rule="evenodd" clip-rule="evenodd" d="M245.911 152.423C246.377 152.722 246.126 153.073 245.715 152.965C241.34 151.793 244.762 151.685 245.911 152.423Z" fill="black"/>
<path fill-rule="evenodd" clip-rule="evenodd" d="M244.952 157.029L244.925 157.021C244.473 156.818 244.237 156.702 244.188 156.511C244.145 156.338 244.268 156.18 244.495 155.894C244.749 155.581 245.131 155.099 245.564 154.265C245.595 154.204 245.673 154.182 245.735 154.21C245.799 154.24 245.827 154.312 245.794 154.376C245.352 155.228 244.961 155.72 244.702 156.043C244.551 156.232 244.424 156.393 244.439 156.453C244.461 156.539 244.78 156.684 245.036 156.799C245.1 156.83 245.126 156.902 245.095 156.966C245.068 157.018 245.008 157.043 244.948 157.031L244.952 157.029Z" fill="#EB795B"/>
<path fill-rule="evenodd" clip-rule="evenodd" d="M243.928 154.685C243.628 154.586 243.788 153.413 244.522 153.655C244.914 153.784 244.425 154.847 243.928 154.685Z" fill="black"/>
<path fill-rule="evenodd" clip-rule="evenodd" d="M247.695 155.993C247.393 155.892 247.553 154.723 248.289 154.965C248.681 155.094 248.19 156.157 247.695 155.993Z" fill="black"/>
<path fill-rule="evenodd" clip-rule="evenodd" d="M103.113 257.446C99.1924 257.385 96.2626 257.341 94.9091 256.936C93.4481 256.499 93.7502 255.655 94.5898 254.303C98.2844 255.916 97.3 253.973 99.0273 254.219C100.242 255.145 102.04 255.767 104.421 256.083C105.429 256.787 105.019 257.415 103.113 257.447V257.446Z" fill="black"/>
<path fill-rule="evenodd" clip-rule="evenodd" d="M98.0782 200.814H73.8563C73.3797 200.814 72.886 201.185 72.7613 201.637L68.4515 217.197C68.3254 217.649 68.6135 218.02 69.0917 218.02H93.3136C93.7902 218.02 94.2839 217.649 94.4086 217.197L98.7184 201.637C98.8445 201.185 98.5548 200.814 98.0782 200.814Z" fill="black"/>
<path fill-rule="evenodd" clip-rule="evenodd" d="M72.2394 201.261L69.3143 211.825C65.8004 210.199 61.5669 207.591 57.1294 204.244C57.0095 202.738 56.863 201.538 56.6855 200.64C57.0422 199.971 57.4316 199.254 57.8568 198.492C53.7604 198.469 51.262 197.634 50.3633 195.986C51.4583 192.946 52.9909 189.842 54.9581 186.674C56.335 184.744 59.0296 183.608 63.0451 183.27C63.5139 188.375 71.7722 188.114 69.8299 183.719C72.8267 184.479 75.3655 185.89 77.4449 187.945C79.2345 192.126 80.3264 195.043 80.7189 196.698C78.775 197.989 76.9355 198.825 75.1957 199.204C75.1163 199.566 75.054 199.977 75.0088 200.437H73.336C72.8594 200.437 72.3672 200.808 72.241 201.26L72.2394 201.261Z" fill="#1A120E"/>
<path fill-rule="evenodd" clip-rule="evenodd" d="M69.3141 211.826L72.2392 201.263C72.3654 200.811 72.8576 200.44 73.3358 200.44H97.5577C98.0358 200.44 98.8863 201.025 98.7445 201.474C98.7679 201.099 98.4938 200.816 98.0763 200.816H73.8545C73.3778 200.816 72.8841 201.186 72.7595 201.638L68.4497 217.199C68.3749 217.469 68.4481 217.711 68.621 217.862C68.2223 217.617 67.8422 217.146 67.931 216.824L69.3157 211.828L69.3141 211.826Z" fill="black"/>
<path fill-rule="evenodd" clip-rule="evenodd" d="M69.0917 218.02H93.3136C93.4023 218.02 93.4927 218.007 93.5799 217.983C93.0986 219.167 91.7887 218.992 91.2763 218.987H62.5592C61.0032 218.925 61.0437 217.891 61.0234 216.893H67.9219C67.9001 217.209 68.2537 217.633 68.6244 217.859C68.7397 217.959 68.9017 218.018 69.0917 218.018V218.02Z" fill="black"/>
<path fill-rule="evenodd" clip-rule="evenodd" d="M72.4775 207.213C75.074 208.458 78.1455 208.84 81.3043 208.994C81.2685 209.102 81.242 209.212 81.2233 209.325C81.013 210.586 81.9507 211.661 83.3058 211.661C84.583 211.661 85.7403 210.701 85.9396 209.509C85.9614 209.381 85.9708 209.252 85.9692 209.128C89.2479 209.212 92.416 209.384 95.0359 210.355L93.2338 216.861H69.8047L72.4775 207.213Z" fill="black"/>
<path fill-rule="evenodd" clip-rule="evenodd" d="M83.8327 207.926C82.9636 207.926 82.149 208.594 82.0119 209.416C81.8748 210.24 82.4667 210.906 83.3343 210.906C84.2019 210.906 85.018 210.239 85.1551 209.416C85.2922 208.592 84.7003 207.926 83.8327 207.926Z" fill="white"/>
<path fill-rule="evenodd" clip-rule="evenodd" d="M55.9609 214.227C56.4438 212.83 56.7911 211.382 57.003 209.88C60.2645 211.078 63.9949 212.232 68.7113 214L68.0742 216.299C60.9483 216.521 56.9095 215.83 55.9609 214.227Z" fill="black"/>
<path fill-rule="evenodd" clip-rule="evenodd" d="M68.7131 214C63.9967 212.232 60.2663 211.077 57.0048 209.88C54.131 208.825 51.6187 207.737 49.1172 206.167C49.2215 203.14 49.6966 200.209 51.019 196.812C52.2323 197.914 54.5126 198.473 57.8568 198.494C56.8879 200.229 56.0998 201.725 55.4908 202.982C60.5218 206.937 65.3705 209.999 69.3158 211.825L68.7131 214Z" fill="#F9AF79"/>
<path fill-rule="evenodd" clip-rule="evenodd" d="M80.0902 197.103C80.4531 198.307 80.7895 199.419 81.0995 200.44H75.0078C75.053 199.98 75.1153 199.568 75.1947 199.206C76.7461 198.868 78.3769 198.166 80.0902 197.103Z" fill="#F9AF79"/>
<path fill-rule="evenodd" clip-rule="evenodd" d="M94.8787 253.08C91.2761 240.691 89.988 231.989 91.0128 226.973C88.9646 227.25 86.9086 227.337 84.8448 227.233C85.1579 225.894 85.4757 224.549 85.7965 223.188C85.7607 221.341 84.7638 219.971 81.2344 218.987H91.273C91.6141 218.99 92.3119 219.068 92.8804 218.769C96.1139 219.646 97.6933 221.092 98.2338 222.858C98.6278 227.718 97.5625 233.254 98.4705 253.116C97.3397 253.227 96.1419 253.215 94.8803 253.08H94.8787Z" fill="white"/>
<path fill-rule="evenodd" clip-rule="evenodd" d="M91.1172 218.987H91.2729C91.6141 218.99 92.3119 219.068 92.8804 218.769C96.1139 219.646 97.6933 221.092 98.2338 222.858C98.6278 227.718 97.5624 233.254 98.4705 253.116C97.7961 253.183 97.0967 253.205 96.3756 253.183C94.5143 246.278 90.0861 229.341 95.075 222.043C93.9037 220.866 92.5844 219.847 91.1172 218.987Z" fill="white"/>
<path fill-rule="evenodd" clip-rule="evenodd" d="M63.0509 183.325C63.6927 182.55 64.2581 181.832 64.4247 181.319C64.2955 180.971 64.1599 180.529 64.0182 179.995C61.6133 178.446 61.2862 177.301 63.0323 176.56C63.3843 176.747 63.8204 177.323 64.3437 178.289C64.7596 178.273 65.0774 178.071 65.2923 177.682C64.7954 176.052 64.473 174.729 64.3235 173.711C65.5072 172.042 68.2782 171.803 71.9478 172.255C72.1176 173.181 72.2578 174.162 72.3668 175.197C73.0148 175.762 72.9307 177.864 72.3341 180.284C72.6332 181.662 71.7376 182.412 69.6457 182.538C69.6161 183.027 69.8171 183.648 69.8326 183.722C69.8326 183.722 69.8358 183.732 69.8389 183.738C71.7469 188.101 63.5743 188.369 63.0541 183.326L63.0509 183.325Z" fill="#F9AF79"/>
<path fill-rule="evenodd" clip-rule="evenodd" d="M71.9449 172.254C68.2768 171.803 65.5059 172.042 64.3205 173.71C64.4701 174.727 64.7925 176.05 65.2894 177.681C65.0744 178.069 64.7582 178.271 64.3408 178.288C63.8174 177.322 63.3813 176.744 63.0293 176.558C61.2817 177.3 61.6119 178.446 64.0153 179.993C64.157 180.528 64.2925 180.969 64.4218 181.318C62.2583 180.859 60.45 179.024 60.1945 178.231C57.6712 173.516 60.4842 171.525 61.992 170.799C62.6555 166.129 69.8063 170.257 73.3903 168.006C74.8139 169.871 73.0539 172.211 71.9433 172.252L71.9449 172.254Z" fill="black"/>
<path fill-rule="evenodd" clip-rule="evenodd" d="M66.9258 182.477C67.9382 182.554 68.8432 182.575 69.6438 182.538C69.6235 182.874 69.7123 183.275 69.7746 183.514C68.4787 183.483 67.5286 183.137 66.9258 182.477Z" fill="#ED7D57"/>
<path fill-rule="evenodd" clip-rule="evenodd" d="M78.0053 226.354H56.151C55.3706 226.354 54.7305 226.96 54.7305 227.701C54.7305 228.443 55.3691 229.048 56.151 229.048H78.0053C78.7872 229.048 79.4258 228.443 79.4258 227.701C79.4258 226.96 78.7872 226.354 78.0053 226.354Z" fill="#E9B7AA"/>
<path fill-rule="evenodd" clip-rule="evenodd" d="M57.455 251.855C58.5001 250.866 59.9424 250.25 61.5296 250.25H72.6258C74.2145 250.25 75.6568 250.864 76.7019 251.855C77.7471 252.846 78.395 254.215 78.395 255.72V256.823H78.8389V258.188H75.5649V256.823H76.0104V255.72C76.0104 254.838 75.6288 254.036 75.0151 253.455C74.4014 252.873 73.5556 252.512 72.6258 252.512H61.5296C60.5997 252.512 59.7555 252.873 59.1403 253.455C58.5266 254.036 58.1465 254.838 58.1465 255.72V256.823H58.5904V258.188H55.3164V256.823H55.7603V255.72C55.7603 254.215 56.4098 252.846 57.4534 251.855H57.455Z" fill="#D0A382"/>
<path d="M68.2714 229.047H65.8867V250.25H68.2714V229.047Z" fill="#D0A382"/>
<path fill-rule="evenodd" clip-rule="evenodd" d="M59.4353 226.269C55.2096 224.83 54.6349 220.839 56.4931 214.809C58.021 215.993 61.8807 216.49 68.0752 216.299L67.9304 216.822C67.9241 216.846 67.9194 216.868 67.9179 216.893H61.0194C61.0396 217.891 60.9991 218.925 62.5552 218.987H81.2336C84.7646 219.97 85.7599 221.341 85.7958 223.188C83.5606 232.659 81.5716 241.342 78.863 253.341C77.9502 253.826 76.7011 253.79 75.1155 253.23C73.8445 241.593 74.1934 233.13 76.1606 227.843C70.9349 227.862 65.3603 227.187 59.4353 226.27V226.269Z" fill="white"/>
<path fill-rule="evenodd" clip-rule="evenodd" d="M59.4353 226.269C55.2096 224.83 54.6349 220.84 56.4931 214.809C56.8186 215.06 57.2485 215.282 57.7843 215.472C56.2439 221.669 57.9182 225.064 62.8854 225.39C68.6795 226.204 73.4831 226.597 77.2961 226.566C75.6154 236.895 75.3273 245.902 76.4316 253.587C76.022 253.512 75.5843 253.394 75.1155 253.228C73.8445 241.592 74.1934 233.128 76.1606 227.841C70.9349 227.861 65.3588 227.186 59.4353 226.269Z" fill="white"/>
<path fill-rule="evenodd" clip-rule="evenodd" d="M98.0921 253.149C98.1965 253.522 98.3678 253.874 98.6046 254.202C97.4738 254.302 97.9099 255.683 94.8555 254.417C94.9863 254.051 95.058 253.613 95.0751 253.099C96.1265 253.203 97.1326 253.218 98.0921 253.149Z" fill="#F9AF79"/>
<path fill-rule="evenodd" clip-rule="evenodd" d="M78.8536 259.618C76.7727 258.805 76.4596 257.479 75.3163 256.972C74.1637 256.463 74.0314 255.553 75.1575 254.566C75.9908 255.197 77.0219 255.972 77.5702 255.56C77.9346 255.286 79.1745 255.305 79.419 255.704C80.4984 258.081 81.9984 257.328 82.2943 258.409C82.3286 259.85 80.1635 260.128 78.8536 259.617V259.618Z" fill="black"/>
<path fill-rule="evenodd" clip-rule="evenodd" d="M78.4978 253.502C78.4807 254.134 78.571 254.769 78.772 255.405C78.3265 255.339 77.7891 255.398 77.5695 255.563C77.0618 255.944 76.1397 255.306 75.3438 254.71C75.473 254.367 75.5603 253.929 75.6054 253.391C76.7674 253.735 77.7331 253.774 78.4994 253.503L78.4978 253.502Z" fill="#F9AF79"/>
<path fill-rule="evenodd" clip-rule="evenodd" d="M57.8549 198.494C58.3939 197.573 58.9624 196.331 59.5636 194.773C59.2412 196.588 59.2568 197.896 58.7365 199.389C59.1571 201.501 59.3315 203.655 59.2879 205.828C58.5746 205.321 57.8549 204.794 57.1276 204.246C57.0076 202.74 56.8612 201.539 56.6837 200.641C57.0403 199.972 57.4297 199.256 57.8549 198.494ZM76.4462 198.859C76.0241 199.001 75.6051 199.116 75.1939 199.206C75.3497 196.895 75.4525 194.984 75.5023 193.475C75.9711 195.703 76.2873 197.497 76.4477 198.859H76.4462ZM55.9609 214.227C56.4438 212.83 56.7911 211.382 57.003 209.88C57.6073 210.101 58.2272 210.323 58.8674 210.544C58.6104 212.19 58.2443 213.833 57.7786 215.469C56.8659 215.146 56.26 214.733 55.9609 214.227Z" fill="black"/>
<path fill-rule="evenodd" clip-rule="evenodd" d="M68.5578 173.64C67.4706 173.414 65.6062 174.522 66.2121 174.638C66.4099 174.675 66.9644 174.359 67.1778 174.302C67.6045 174.191 68.4285 174.247 68.6606 173.98C68.7556 173.871 68.6948 173.67 68.5578 173.64Z" fill="black"/>
<path fill-rule="evenodd" clip-rule="evenodd" d="M70.2124 173.965C70.443 174.229 71.2685 174.172 71.6937 174.285C71.9071 174.34 72.4631 174.656 72.6609 174.616C73.2653 174.501 71.3978 173.385 70.3137 173.624C70.1595 173.659 70.1143 173.856 70.2109 173.965H70.2124Z" fill="black"/>
<path fill-rule="evenodd" clip-rule="evenodd" d="M67.5842 176.106C67.2695 176.106 67.0234 174.971 67.7882 174.971C68.1963 174.971 68.0997 176.106 67.5842 176.106Z" fill="black"/>
<path fill-rule="evenodd" clip-rule="evenodd" d="M71.5025 176.114C71.8186 176.114 72.0647 174.979 71.3015 174.979C70.8934 174.979 70.9869 176.114 71.5025 176.114Z" fill="black"/>
<path fill-rule="evenodd" clip-rule="evenodd" d="M70.2193 178.032C70.143 177.924 70.3517 177.838 70.4716 177.763C70.9187 177.488 71.0293 177.705 70.0418 175.849C69.8502 175.486 69.7006 175.306 69.8393 175.244C69.9701 175.189 69.9935 175.35 70.2131 175.764C71.2863 177.784 71.1897 177.521 70.3533 178.053C70.3097 178.081 70.2489 178.072 70.2193 178.03V178.032Z" fill="#ED7D57"/>
<path fill-rule="evenodd" clip-rule="evenodd" d="M68.7504 179.729C68.6227 179.507 68.9575 179.568 71.0167 179.361C71.6319 179.301 69.8189 181.573 68.7504 179.729Z" fill="#ED7D57"/>
<path fill-rule="evenodd" clip-rule="evenodd" d="M236.621 111.677L248.452 116.274L245.203 120.21L236.621 111.677Z" fill="#FF7551"/>
<path fill-rule="evenodd" clip-rule="evenodd" d="M250.123 114.422L236.984 111.702L253.34 112.835L250.123 114.422Z" fill="#FF7551"/>
<path fill-rule="evenodd" clip-rule="evenodd" d="M250.121 114.423L249.814 119.585L248.452 116.274L236.621 111.677L236.982 111.702L250.121 114.423Z" fill="#3A393C"/>
<path fill-rule="evenodd" clip-rule="evenodd" d="M249.814 119.585L247.012 118.018L248.452 116.274L249.814 119.585Z" fill="#3A393C"/>
<path fill-rule="evenodd" clip-rule="evenodd" d="M252.857 119.204C252.472 119.159 252.558 118.627 252.916 118.668L253.483 118.727C253.863 118.772 253.784 119.305 253.419 119.262L252.857 119.204ZM272.254 140.588C272.506 140.588 272.631 140.88 272.459 141.043C272.417 141.091 272.333 141.127 272.254 141.127H271.888C271.522 141.127 271.512 140.588 271.894 140.588H272.255H272.254ZM270.204 140.539C270.539 140.539 270.585 141.077 270.173 141.077L269.601 141.043C269.195 140.995 269.307 140.467 269.643 140.507L270.204 140.539ZM267.972 140.338C268.324 140.38 268.276 140.917 267.888 140.87L267.972 140.338ZM265.805 139.886C266.145 140.006 266.008 140.487 265.628 140.397C265.441 140.341 265.257 140.279 265.076 140.211C264.731 140.071 264.935 139.587 265.287 139.712C265.456 139.777 265.631 139.833 265.805 139.886ZM263.879 138.968C264.174 139.201 263.802 139.607 263.522 139.386C263.361 139.262 263.213 139.132 263.075 138.986C262.823 138.699 263.273 138.371 263.5 138.63C263.617 138.754 263.743 138.861 263.877 138.968H263.879ZM262.818 137.336C262.868 137.718 262.301 137.748 262.259 137.428C262.221 137.236 262.199 137.05 262.192 136.855C262.192 136.482 262.76 136.502 262.76 136.841C262.765 137.01 262.787 137.171 262.818 137.336ZM262.97 135.325C262.885 135.652 262.327 135.542 262.424 135.181C262.474 135.006 262.528 134.824 262.59 134.651C262.729 134.298 263.251 134.512 263.128 134.824C263.069 134.988 263.017 135.158 262.97 135.325ZM263.752 133.353C263.612 133.663 263.083 133.471 263.237 133.129C263.316 132.965 263.399 132.798 263.483 132.635C263.69 132.291 264.156 132.602 263.994 132.872C263.91 133.03 263.832 133.192 263.752 133.352V133.353ZM264.765 131.445C264.569 131.772 264.089 131.482 264.263 131.194L264.53 130.719C264.727 130.392 265.206 130.682 265.03 130.971C264.939 131.125 264.85 131.289 264.765 131.445ZM265.822 129.533C265.617 129.874 265.148 129.568 265.315 129.292L265.562 128.814C265.757 128.492 266.22 128.727 266.075 129.045L265.822 129.531V129.533ZM266.744 127.524C266.617 127.848 266.109 127.718 266.204 127.358C266.262 127.191 266.315 127.03 266.36 126.86C266.45 126.517 267.003 126.646 266.911 126.991C266.863 127.173 266.807 127.349 266.744 127.524ZM267.028 125.293C267.073 125.645 266.512 125.711 266.464 125.359C266.445 125.193 266.411 125.026 266.369 124.863C266.279 124.515 266.829 124.389 266.919 124.729C266.967 124.915 267.005 125.101 267.03 125.292L267.028 125.293ZM266.156 123.186C266.377 123.48 265.91 123.785 265.696 123.503C265.592 123.364 265.48 123.233 265.36 123.106C265.103 122.812 265.561 122.493 265.78 122.744C265.914 122.881 266.04 123.034 266.156 123.186ZM264.441 121.651C264.734 121.849 264.467 122.283 264.125 122.097C263.972 121.998 263.818 121.907 263.659 121.818C263.344 121.647 263.614 121.174 263.949 121.355C264.115 121.449 264.279 121.547 264.441 121.651ZM262.391 120.621C262.74 120.762 262.509 121.254 262.173 121.117C262.002 121.047 261.827 120.982 261.654 120.92C261.309 120.796 261.502 120.291 261.855 120.417C262.034 120.482 262.215 120.55 262.391 120.621ZM260.217 119.901C260.558 119.983 260.447 120.511 260.061 120.42L259.52 120.278C259.167 120.194 259.293 119.67 259.664 119.757L260.217 119.901ZM257.991 119.386C258.383 119.479 258.211 119.991 257.877 119.913L257.324 119.808C256.963 119.723 257.05 119.235 257.43 119.281L257.991 119.386ZM255.743 119.008C256.095 119.049 256.047 119.585 255.658 119.54L255.102 119.463C254.742 119.421 254.796 118.885 255.179 118.931L255.745 119.009L255.743 119.008Z" fill="black"/>
<path fill-rule="evenodd" clip-rule="evenodd" d="M107.458 126.192L97.3164 133.819L101.642 136.779L107.458 126.192Z" fill="#FF7551"/>
<path fill-rule="evenodd" clip-rule="evenodd" d="M95.1441 132.461L107.114 126.313L91.543 131.776L95.1441 132.461Z" fill="#FF7551"/>
<path fill-rule="evenodd" clip-rule="evenodd" d="M95.1445 132.461L96.9747 137.402L97.3173 133.819L107.459 126.192L107.115 126.313L95.1445 132.461Z" fill="#3A393C"/>
<path fill-rule="evenodd" clip-rule="evenodd" d="M96.9727 137.402L99.2311 135.131L97.3153 133.819L96.9727 137.402Z" fill="#3A393C"/>
<path fill-rule="evenodd" clip-rule="evenodd" d="M95.2448 136.263C95.5189 136.116 95.2744 135.77 95.0454 135.893C94.9115 135.957 94.7806 136.025 94.6498 136.096C94.399 136.232 94.6171 136.594 94.8679 136.458C94.9909 136.39 95.1155 136.327 95.2432 136.263H95.2448ZM60.6012 142.324C60.3987 142.093 60.0825 142.383 60.2507 142.575L60.5217 142.907C60.7149 143.129 61.042 142.851 60.866 142.649L60.6012 142.322V142.324ZM61.7102 143.582C61.4952 143.378 61.1977 143.685 61.3924 143.868C61.4937 143.972 61.598 144.072 61.7024 144.173C61.9049 144.365 62.2164 144.072 62.0108 143.877C61.9095 143.781 61.8099 143.682 61.7102 143.583V143.582ZM62.9656 144.709C62.7444 144.535 62.4625 144.852 62.6852 145.029C62.7989 145.119 62.9142 145.208 63.031 145.295C63.2382 145.457 63.5372 145.153 63.3005 144.967C63.1868 144.882 63.0746 144.796 62.9656 144.709ZM64.3565 145.68C64.0808 145.531 63.8923 145.908 64.1197 146.03C64.2443 146.107 64.3705 146.181 64.4982 146.255C64.7583 146.395 64.9655 146.029 64.7241 145.898C64.601 145.827 64.478 145.754 64.3565 145.68ZM65.8627 146.482C65.5776 146.367 65.4281 146.759 65.6742 146.859C65.8082 146.919 65.9421 146.98 66.0792 147.036C66.3502 147.145 66.5168 146.761 66.2552 146.655C66.1228 146.599 65.9935 146.541 65.8627 146.482ZM67.4623 147.103C67.21 147.013 67.034 147.395 67.3237 147.498C67.4639 147.544 67.6056 147.587 67.7473 147.628C68.0542 147.701 68.1289 147.29 67.8751 147.23C67.7364 147.19 67.6009 147.147 67.4639 147.103H67.4623ZM69.1289 147.54C68.8672 147.478 68.738 147.876 69.0386 147.946C69.1834 147.975 69.3298 148.002 69.4747 148.03C69.7924 148.067 69.8111 147.65 69.5541 147.619C69.4124 147.594 69.2706 147.568 69.1289 147.54ZM70.8391 147.795C70.565 147.763 70.4949 148.173 70.7955 148.21C70.9435 148.223 71.093 148.237 71.241 148.247C71.498 148.278 71.5883 147.871 71.2706 147.832L70.8407 147.795H70.8391ZM72.568 147.873C72.283 147.873 72.2783 148.288 72.5712 148.288C72.7191 148.288 72.8671 148.285 73.0151 148.281C73.2861 148.281 73.3079 147.865 72.9995 147.865C72.8562 147.869 72.7113 147.872 72.5665 147.872L72.568 147.873ZM74.2985 147.782C74.0041 147.816 74.068 148.228 74.3468 148.194C74.4948 148.179 74.6412 148.163 74.7876 148.144C75.0679 148.111 75.0212 147.698 74.7284 147.732C74.5851 147.749 74.4418 147.766 74.2985 147.782ZM76.0103 147.523C75.7128 147.594 75.839 147.993 76.1022 147.93C76.247 147.9 76.3919 147.869 76.5352 147.837C76.8202 147.77 76.7081 147.367 76.4324 147.432C76.2922 147.463 76.1505 147.494 76.0103 147.522V147.523ZM77.6831 147.1C77.3934 147.203 77.571 147.584 77.8217 147.495C77.9635 147.451 78.1021 147.407 78.2423 147.36C78.5211 147.261 78.3575 146.875 78.0943 146.968C77.9588 147.014 77.8217 147.058 77.6831 147.101V147.1ZM79.2968 146.509C79.046 146.611 79.2018 147.001 79.4821 146.886C79.6176 146.828 79.7516 146.767 79.884 146.707C80.0101 146.637 80.0273 146.533 79.9899 146.447L80.0615 146.46C80.3808 146.497 80.3964 146.082 80.141 146.051C80.0008 146.025 79.8637 145.995 79.7251 145.961C79.4463 145.895 79.3373 146.298 79.6192 146.366L79.2968 146.509ZM80.8185 145.74C80.5896 145.864 80.7811 146.239 81.0537 146.091C81.1799 146.016 81.306 145.94 81.4291 145.859C81.6705 145.695 81.4088 145.361 81.1799 145.517C81.0615 145.593 80.9416 145.667 80.8185 145.74ZM82.1985 144.768C81.9914 144.932 82.2546 145.267 82.4914 145.078C82.6035 144.983 82.7125 144.886 82.82 144.787C83.0272 144.591 82.7141 144.298 82.5116 144.49C82.4088 144.585 82.306 144.678 82.1985 144.768ZM83.334 143.57C83.172 143.786 83.5225 144.037 83.6954 143.805C83.7826 143.688 83.8636 143.564 83.9399 143.44C84.0832 143.201 83.7016 142.996 83.5583 143.233C83.4882 143.347 83.4134 143.462 83.3325 143.572L83.334 143.57ZM84.0271 142.138C83.9617 142.389 84.3823 142.508 84.4555 142.226C84.4913 142.083 84.5162 141.941 84.5333 141.795C84.5676 141.532 84.1346 141.47 84.0972 141.751C84.0801 141.884 84.0583 142.008 84.0256 142.138H84.0271ZM84.0038 140.595C84.0676 140.84 84.5006 140.764 84.4243 140.476C84.3823 140.333 84.334 140.196 84.2748 140.06C84.1611 139.807 83.7577 139.971 83.8714 140.222C83.9243 140.342 83.9664 140.47 84.0038 140.595ZM83.2374 139.187C83.4321 139.409 83.753 139.155 83.591 138.941C83.5022 138.825 83.4119 138.713 83.3169 138.602C83.1284 138.387 82.7951 138.658 82.9773 138.865C83.0677 138.972 83.1533 139.078 83.2374 139.189V139.187ZM82.0848 138.016C82.292 138.18 82.591 137.874 82.3543 137.688C82.2344 137.598 82.1129 137.515 81.9851 137.434C81.7063 137.282 81.5225 137.662 81.7453 137.781C81.8637 137.857 81.9742 137.933 82.0864 138.016H82.0848ZM80.6129 137.295C80.9011 137.363 80.9976 136.957 80.7251 136.892C80.5755 136.854 80.4213 136.826 80.2687 136.804C79.9743 136.768 79.9291 137.183 80.2095 137.216C80.3435 137.233 80.4821 137.261 80.6129 137.295ZM78.9759 137.251C79.275 137.18 79.1472 136.782 78.884 136.844C78.7345 136.872 78.5818 136.909 78.437 136.954C78.1738 137.047 78.2797 137.418 78.5725 137.35C78.7018 137.309 78.8404 137.276 78.9743 137.251H78.9759ZM77.4479 137.867C77.694 137.7 77.4261 137.369 77.2018 137.523C77.0741 137.604 76.9526 137.688 76.8327 137.778C76.6053 137.959 76.8934 138.273 77.1099 138.102C77.2174 138.019 77.3342 137.939 77.4495 137.867H77.4479ZM76.219 138.952C76.3903 138.756 76.0695 138.472 75.8717 138.697C75.7782 138.811 75.6894 138.927 75.6053 139.05C75.4464 139.314 75.8452 139.488 75.9729 139.276C76.0492 139.165 76.1333 139.056 76.219 138.952ZM75.4075 140.345C75.5056 140.098 75.0991 139.94 74.9932 140.206C74.9418 140.343 74.8982 140.481 74.8592 140.621C74.7876 140.89 75.2144 140.987 75.2845 140.724C75.3203 140.596 75.3608 140.469 75.4075 140.343V140.345ZM75.1458 141.9C75.1458 141.652 74.7081 141.621 74.7081 141.921C74.7144 142.067 74.7284 142.213 74.7533 142.358C74.786 142.612 75.2253 142.582 75.1863 142.291C75.1645 142.163 75.1521 142.03 75.1458 141.9ZM75.5773 143.405C75.4277 143.155 75.0539 143.374 75.191 143.601C75.2626 143.73 75.3468 143.86 75.434 143.978C75.6038 144.202 75.9589 143.959 75.7922 143.737C75.7159 143.632 75.6411 143.517 75.5773 143.405ZM76.6473 144.601C76.4386 144.436 76.1427 144.743 76.3779 144.929C76.4978 145.019 76.6162 145.105 76.7439 145.184C77.0071 145.328 77.2158 144.992 76.9884 144.839C76.8701 144.763 76.7595 144.685 76.6473 144.601ZM78.1083 145.418C77.8342 145.307 77.6722 145.692 77.9308 145.799C78.0663 145.855 78.2033 145.912 78.342 145.965C78.613 146.061 78.7734 145.688 78.504 145.579C78.3716 145.528 78.2392 145.474 78.1083 145.418ZM81.4073 146.18C81.5475 146.18 81.6908 146.18 81.8309 146.169C82.0879 146.138 82.1783 146.546 81.8605 146.584C81.7095 146.595 81.5584 146.596 81.4073 146.596C81.1176 146.596 81.1191 146.181 81.4073 146.181V146.18ZM83.0848 145.971C82.82 146.035 82.9088 146.442 83.2032 146.372C83.3449 146.339 83.4976 146.289 83.6362 146.243C83.915 146.144 83.7514 145.757 83.4882 145.852C83.3589 145.895 83.2172 145.942 83.0848 145.971ZM84.6455 145.342C84.3978 145.477 84.6097 145.841 84.8667 145.703C84.9944 145.632 85.1283 145.558 85.2514 145.48C85.4726 145.36 85.2919 144.98 85.01 145.133C84.8916 145.206 84.7685 145.277 84.6455 145.344V145.342ZM86.0442 144.402C85.8246 144.574 86.1018 144.898 86.3277 144.721C86.4414 144.63 86.5535 144.537 86.6641 144.443C86.8713 144.281 86.608 143.945 86.3713 144.134C86.2638 144.224 86.1563 144.316 86.0458 144.403L86.0442 144.402ZM87.2996 143.272C87.1049 143.456 87.404 143.761 87.6173 143.558L87.9211 143.253C88.1236 143.022 87.7653 142.779 87.5971 142.971C87.499 143.073 87.3993 143.173 87.2996 143.272ZM88.4616 142.04C88.2746 142.254 88.6142 142.517 88.7964 142.311L89.0799 141.992C89.2668 141.78 88.9288 141.513 88.7435 141.723L88.4616 142.04ZM89.583 140.763C89.4008 140.971 89.7356 141.241 89.921 141.027L90.2014 140.705C90.3852 140.497 90.0503 140.228 89.8634 140.441L89.5846 140.763H89.583ZM90.7091 139.483C90.5191 139.698 90.8618 139.958 91.0425 139.753L91.3275 139.44C91.5206 139.22 91.1733 138.966 90.9973 139.165L90.7091 139.483ZM91.8929 138.236C91.6951 138.424 91.9972 138.725 92.2091 138.526L92.5128 138.232C92.72 138.035 92.4069 137.743 92.2044 137.936L91.8929 138.236ZM93.1888 137.08C92.9661 137.256 93.248 137.575 93.4692 137.399C93.5766 137.313 93.6903 137.223 93.804 137.143C94.0439 136.954 93.7417 136.65 93.5377 136.813C93.4193 136.9 93.3025 136.99 93.1888 137.08Z" fill="black"/>
</svg>
