<svg width="371" height="265" viewBox="0 0 371 265" fill="none" xmlns="http://www.w3.org/2000/svg">
<path d="M165.908 52.9673C167.069 52.9673 168.011 51.9682 168.011 50.7356C168.011 49.5031 167.069 48.5039 165.908 48.5039C164.746 48.5039 163.805 49.5031 163.805 50.7356C163.805 51.9682 164.746 52.9673 165.908 52.9673Z" fill="#FF5225"/>
<path d="M115.741 99.2722C114.911 96.8441 114.304 94.0705 114.121 90.9552C113.455 79.59 127.26 68.0209 127.26 68.0209L131.024 67.8086L127.26 94.225L127.853 96.3841C125.586 97.6997 120.495 100.189 115.741 99.2722H115.741Z" fill="#FF5225"/>
<path d="M123.342 111.085C123.364 111.104 123.388 111.117 123.411 111.135H126.283C128.574 110.215 131.025 107.937 131.025 107.937L127.853 96.3828C125.587 97.6984 120.495 100.188 115.742 99.2709C117.941 105.703 121.711 109.7 123.343 111.085H123.342Z" fill="white"/>
<path d="M130.476 108.631C130.419 108.631 130.362 108.605 130.324 108.554C130.257 108.465 130.27 108.336 130.355 108.265C130.557 108.095 130.734 107.938 130.898 107.789C130.978 107.714 131.101 107.723 131.171 107.81C131.241 107.896 131.232 108.025 131.152 108.099C130.984 108.253 130.803 108.412 130.596 108.586C130.56 108.616 130.518 108.631 130.476 108.631Z" fill="black"/>
<path d="M139.623 96.8637C140.422 95.9512 141.254 95.0965 142.112 94.293L140.446 86.2852H117.441L121.946 107.937H132.009C133.804 103.787 136.339 100.094 139.622 96.8646L139.623 96.8637Z" fill="black"/>
<path d="M139.627 96.8686C142.809 93.2394 146.463 90.4695 150.592 88.5562C148.462 82.0482 146.332 75.5393 144.201 69.0313C144.069 68.6282 143.936 68.2251 143.804 67.8219C135.758 67.5417 127.263 68.0239 127.263 68.0239L126.336 111.14H130.807C132.586 105.664 135.524 100.906 139.627 96.8686Z" fill="#FF5225"/>
<path d="M126.821 86.3121C126.729 86.3121 126.647 86.2423 126.63 86.1417L125.669 80.3143L125.262 80.6327C125.176 80.6998 125.055 80.6812 124.991 80.5899C124.927 80.4987 124.946 80.3702 125.032 80.3022L125.69 79.7864C125.744 79.7445 125.815 79.7343 125.877 79.7604C125.94 79.7864 125.984 79.846 125.996 79.9158L127.012 86.071C127.03 86.1827 126.96 86.2888 126.854 86.3084C126.843 86.3102 126.832 86.3112 126.821 86.3112V86.3121Z" fill="#B43818"/>
<path d="M143.806 67.822L162.8 70.3516C162.8 70.3516 162.544 69.4224 162.207 67.9886C166.96 70.6542 170.497 68.8359 172.125 67.3164C174.032 70.2855 175.78 74.0329 175.022 77.0253C173.528 82.9272 161.609 86.5741 144.352 81.2541L141.891 69.1599L143.806 67.821V67.822Z" fill="#FF5225"/>
<path d="M162.215 67.9912C161.579 65.2903 160.653 60.7971 160.6 57.3494C160.518 52.0723 162.864 49.7791 163.717 50.1283C164.569 50.4774 164.069 51.5369 163.717 52.4614C163.364 53.385 163.182 54.1904 163.182 54.1904C163.182 54.1904 164.46 52.684 165.422 54.3868C165.422 54.3868 166.908 52.7817 167.607 54.5628C167.607 54.5628 169.206 53.2715 169.879 55.3244C170.552 57.3773 168.902 57.3494 168.902 57.3494C168.902 57.3494 168.873 60.6835 168.273 62.283C168.273 62.283 170.279 64.4328 172.133 67.3199C170.504 68.8385 166.968 70.6568 162.215 67.9922V67.9912Z" fill="#E8A695"/>
<path d="M162.079 67.6175C161.992 67.6175 161.912 67.5542 161.891 67.4602C161.24 64.6102 160.455 60.5444 160.404 57.3518C160.343 53.3949 161.624 51.0273 162.739 50.2024C163.13 49.9137 163.501 49.8188 163.785 49.9352C164.038 50.0385 164.213 50.2061 164.304 50.4323C164.513 50.9472 164.243 51.6408 163.982 52.3102L163.895 52.5365C163.74 52.9434 163.617 53.3279 163.53 53.6286C163.776 53.4713 164.096 53.3372 164.444 53.3735C164.83 53.4126 165.17 53.6472 165.458 54.0718C165.736 53.8278 166.301 53.42 166.862 53.5355C167.203 53.6053 167.48 53.8493 167.687 54.2617C167.966 54.0913 168.5 53.8418 169.032 54.0122C169.493 54.1593 169.839 54.5773 170.06 55.2551C170.307 56.0056 170.289 56.594 170.008 57.0055C169.748 57.3863 169.334 57.5027 169.091 57.538C169.076 58.254 168.988 60.7911 168.497 62.2324C168.904 62.6811 170.666 64.6717 172.292 67.2023C172.351 67.2963 172.329 67.4239 172.241 67.4872C172.152 67.5514 172.032 67.5263 171.971 67.4332C170.147 64.5944 168.154 62.4465 168.134 62.4251C168.08 62.3674 168.063 62.2808 168.092 62.2044C168.672 60.6598 168.706 57.3779 168.707 57.3453C168.707 57.2904 168.729 57.2383 168.766 57.2001C168.803 57.1619 168.859 57.1442 168.904 57.1414C168.906 57.1451 169.438 57.1414 169.696 56.7616C169.897 56.4655 169.896 56.0037 169.695 55.3892C169.516 54.8436 169.256 54.5122 168.922 54.4051C168.358 54.2235 167.73 54.7198 167.724 54.7244C167.676 54.7626 167.614 54.7756 167.556 54.7589C167.498 54.7421 167.45 54.6984 167.428 54.6397C167.266 54.2282 167.052 53.9926 166.789 53.9386C166.318 53.8437 165.742 54.3315 165.559 54.5289C165.517 54.5745 165.458 54.596 165.398 54.5894C165.338 54.582 165.285 54.5457 165.254 54.4907C165.007 54.0532 164.723 53.8157 164.407 53.7832C163.841 53.7245 163.33 54.3204 163.325 54.326C163.265 54.3958 163.169 54.4135 163.09 54.3706C163.012 54.3269 162.971 54.2319 162.992 54.1407C162.999 54.1072 163.182 53.3102 163.536 52.3829L163.624 52.1538C163.844 51.5896 164.093 50.9509 163.949 50.5943C163.898 50.4714 163.8 50.3811 163.645 50.3187C163.49 50.2554 163.235 50.3374 162.961 50.5394C162.126 51.1567 160.729 53.286 160.791 57.3453C160.84 60.4997 161.621 64.5348 162.267 67.3643C162.292 67.4741 162.228 67.5859 162.124 67.6119C162.109 67.6156 162.093 67.6175 162.079 67.6175H162.079Z" fill="#E8A695"/>
<path d="M168.814 57.0361C168.724 57.0361 168.643 56.9691 168.624 56.8713L168.453 55.9766C168.432 55.8658 168.5 55.7569 168.605 55.7345C168.711 55.7122 168.812 55.7839 168.834 55.8947L169.005 56.7894C169.026 56.9002 168.958 57.0091 168.854 57.0315C168.841 57.0343 168.827 57.0352 168.815 57.0352L168.814 57.0361Z" fill="#E8A695"/>
<path d="M163.448 73.1626C163.359 73.1626 163.279 73.0974 163.259 73.0025L162.774 70.7233C162.751 70.6125 162.817 70.5026 162.921 70.4775C163.025 70.4533 163.129 70.5222 163.153 70.633L163.637 72.9122C163.661 73.023 163.595 73.1328 163.491 73.158C163.477 73.1617 163.462 73.1626 163.448 73.1626Z" fill="#B43818"/>
<path d="M140.199 61.3386L139.299 67.3782L141.531 67.8503C141.531 67.8503 141.162 68.7878 133.028 68.3512C127.096 68.0328 136.271 57.957 136.271 57.957C136.271 57.957 138.159 59.3164 140.199 61.3386Z" fill="#E8A695"/>
<path d="M141.528 68.0178C141.516 68.0178 141.505 68.0168 141.493 68.014L139.26 67.5802C139.157 67.5597 139.088 67.4563 139.104 67.3465L139.897 61.9706C137.898 59.9419 137.37 57.4867 137.348 57.3825C137.325 57.2717 137.391 57.1618 137.496 57.1376C137.6 57.1134 137.703 57.1832 137.727 57.294C137.732 57.3192 138.267 59.7939 140.237 61.7463C140.283 61.7928 140.305 61.8608 140.296 61.9278L139.516 67.2133L141.563 67.6109C141.668 67.6314 141.738 67.7384 141.718 67.8502C141.702 67.9489 141.62 68.0187 141.528 68.0187V68.0178Z" fill="#E8A695"/>
<path d="M147.157 51.8963C146.731 50.4979 145.62 49.7224 143.892 48.9096C142.626 48.3137 139.675 48.2811 138.376 48.7904C135.01 50.1106 134.668 51.8219 134.394 54.7574C134.312 55.6475 134.395 56.64 133.862 57.3318C133.21 58.1772 132.01 58.125 130.982 58.1883C128.659 58.3317 126.373 59.5206 124.99 61.5066C123.606 63.4925 123.222 66.2661 124.172 68.5192C125.124 70.7723 127.203 71.7601 129.521 71.5404C131.564 71.3467 133.598 70.4529 134.704 68.6197C135.809 66.7865 136.32 64.6237 136.677 62.4804C136.85 61.4405 136.826 59.1529 137.536 58.4118C137.981 57.9481 138.779 58.8615 139.36 58.6222C142.16 57.4733 148.552 56.4882 147.156 51.8954L147.157 51.8963Z" fill="black"/>
<path d="M145.442 54.4779C145.442 54.4779 142.411 53.531 141.755 54.9685C141.098 56.4061 140.661 57.0503 139.728 57.1528C139.728 57.1528 138.125 54.8317 136.831 56.1854C135.536 57.5391 136.675 59.3342 138.136 59.7857C138.136 59.7857 138.411 62.1217 141.033 62.6189C143.656 63.1151 144.898 58.9525 145.442 54.4788V54.4779Z" fill="#E8A695"/>
<path d="M141.449 62.862C141.301 62.862 141.151 62.8471 140.997 62.8182C138.635 62.3713 138.075 60.4664 137.965 59.9422C137.064 59.621 136.333 58.8483 136.128 57.987C135.961 57.285 136.161 56.5933 136.693 56.0365C137.031 55.6827 137.42 55.5216 137.847 55.558C138.762 55.6362 139.571 56.6128 139.811 56.9312C140.58 56.8018 140.972 56.2013 141.578 54.8764C142.298 53.3002 145.364 54.2377 145.495 54.2787C145.586 54.3076 145.644 54.4016 145.632 54.5022C145.125 58.6751 144.188 61.3202 142.848 62.362C142.42 62.6944 141.95 62.862 141.449 62.862ZM137.73 55.9648C137.45 55.9648 137.199 56.0849 136.965 56.3298C136.529 56.786 136.37 57.3241 136.504 57.8874C136.682 58.6369 137.375 59.3352 138.188 59.5866C138.262 59.6099 138.317 59.6769 138.326 59.7588C138.337 59.8473 138.622 61.9524 141.066 62.4151C141.639 62.5231 142.147 62.3983 142.618 62.0315C143.834 61.0865 144.734 58.528 145.226 54.6269C144.328 54.3793 142.378 54.0702 141.927 55.0571C141.241 56.557 140.764 57.245 139.746 57.3558C139.679 57.3632 139.61 57.3316 139.569 57.2729C139.56 57.2608 138.709 56.0449 137.814 55.9695C137.785 55.9667 137.757 55.9658 137.729 55.9658L137.73 55.9648Z" fill="#E8A695"/>
<path d="M138.968 58.7801C138.882 58.7801 138.804 58.7196 138.781 58.6274C138.65 58.1032 138.227 57.6685 137.728 57.5465C137.624 57.5213 137.559 57.4106 137.583 57.2998C137.608 57.189 137.711 57.1201 137.816 57.1461C138.451 57.3016 138.989 57.8547 139.156 58.5222C139.184 58.6321 139.122 58.7438 139.018 58.7736C139.002 58.7783 138.985 58.7801 138.968 58.7801Z" fill="#A2756A"/>
<path d="M188.396 59.9281C188.289 59.9281 188.202 59.8359 188.202 59.7223V50.9389H170.757C170.649 50.9389 170.562 50.8467 170.562 50.7331C170.562 50.6195 170.649 50.5273 170.757 50.5273H188.395C188.503 50.5273 188.59 50.6195 188.59 50.7331V59.7223C188.59 59.8359 188.503 59.9281 188.395 59.9281H188.396Z" fill="black"/>
<path d="M188.396 68.1181C189.681 68.1181 190.723 67.0135 190.723 65.6509C190.723 64.2882 189.681 63.1836 188.396 63.1836C187.112 63.1836 186.07 64.2882 186.07 65.6509C186.07 67.0135 187.112 68.1181 188.396 68.1181Z" fill="#E2EAFF"/>
<path d="M188.396 75.3212C189.681 75.3212 190.723 74.2166 190.723 72.854C190.723 71.4913 189.681 70.3867 188.396 70.3867C187.112 70.3867 186.07 71.4913 186.07 72.854C186.07 74.2166 187.112 75.3212 188.396 75.3212Z" fill="#E2EAFF"/>
<path d="M188.396 82.5166C189.681 82.5166 190.723 81.4119 190.723 80.0493C190.723 78.6867 189.681 77.582 188.396 77.582C187.112 77.582 186.07 78.6867 186.07 80.0493C186.07 81.4119 187.112 82.5166 188.396 82.5166Z" fill="#E2EAFF"/>
<path d="M213.637 131.701L212.928 122.474L207.4 122.441C206.628 119.788 205.434 117.363 203.901 115.219L207.108 110.446L200.459 104.456L196.532 108.578C194.285 107.324 191.834 106.462 189.237 106.086L188.313 100.312L179.605 101.064L179.573 106.921C177.081 107.738 174.781 109.003 172.757 110.628L168.252 107.235L162.599 114.28L166.489 118.44C165.3 120.822 164.492 123.418 164.137 126.164L158.688 127.142L159.397 136.369L164.925 136.402C165.696 139.038 166.891 141.474 168.424 143.624L165.222 148.397L171.871 154.381L175.803 150.259C178.051 151.519 180.512 152.37 183.093 152.751L184.016 158.525L192.725 157.773L192.757 151.917C195.255 151.105 197.544 149.834 199.573 148.209L204.078 151.602L209.731 144.557L205.841 140.392C207.025 138.01 207.833 135.402 208.193 132.667L213.648 131.689L213.637 131.701ZM187.437 146.071C178.76 146.823 171.151 139.972 170.447 130.778C169.743 121.584 176.204 113.523 184.882 112.777C193.56 112.031 201.168 118.877 201.872 128.071C202.576 137.264 196.115 145.325 187.437 146.071Z" fill="#222222"/>
<path d="M163.153 136.605L159.216 136.583L158.684 129.627L159.069 129.594L159.575 136.174L163.153 136.196V136.605Z" fill="#101C3A"/>
<path d="M184.207 158.509L183.826 158.575L182.929 152.956C180.024 152.669 177.354 151.282 177.328 151.271L177.5 150.906C177.526 150.923 180.222 152.321 183.111 152.564L183.263 152.575L184.212 158.509H184.207Z" fill="#101C3A"/>
<path d="M199.305 139.011L198.982 138.784C205.787 127.8 198.001 118.701 197.918 118.612L198.2 118.336C198.283 118.43 206.272 127.767 199.3 139.011H199.305Z" fill="#101C3A"/>
<path d="M206.021 119.151C204.916 117.018 203.758 115.361 203.747 115.35L203.664 115.228L204.843 113.477L205.156 113.714L204.139 115.228C204.425 115.648 205.411 117.134 206.355 118.957L206.016 119.156L206.021 119.151Z" fill="#101C3A"/>
<path d="M194.794 156.479L185.735 157.258L184.807 151.445C184.061 151.34 180.588 150.777 177.704 149.025L173.751 153.169L166.831 146.937L170.054 142.13C169.621 141.533 167.728 138.81 166.649 135.102L161.084 135.069L160.344 125.466L165.835 124.483C165.95 123.632 166.586 119.488 168.114 116.952L164.208 112.77L170.09 105.438L174.617 108.847C175.144 108.361 177.412 106.433 181.261 105.245L181.292 99.3493L190.35 98.5703L191.279 104.383C192.035 104.488 195.581 105.051 198.381 106.803L202.334 102.659L209.255 108.891L206.032 113.687C206.485 114.273 208.405 116.908 209.437 120.72L215.001 120.754L215.742 130.351L210.256 131.334C210.178 132.097 209.75 135.467 207.966 138.854L211.878 143.042L205.995 150.374L201.469 146.965C200.926 147.467 198.533 149.539 194.825 150.572L194.794 156.462V156.479ZM186.048 156.827L194.413 156.103L194.444 150.274L194.585 150.235C198.793 149.103 201.297 146.6 201.323 146.578L201.437 146.462L205.933 149.849L211.361 143.08L207.492 138.937L207.565 138.804C209.604 135.014 209.891 131.196 209.891 131.163L209.901 131.003L215.33 130.03L214.647 121.168L209.145 121.14L209.109 120.991C207.977 116.671 205.672 113.875 205.646 113.847L205.547 113.726L208.743 108.969L202.355 103.217L198.444 107.322L198.314 107.239C195.237 105.256 191.138 104.781 191.096 104.775L190.95 104.758L190.032 99.0068L181.673 99.7251L181.642 105.554L181.506 105.598C177.167 106.902 174.789 109.234 174.763 109.261L174.648 109.372L170.158 105.991L164.729 112.759L168.609 116.908L168.521 117.046C166.831 119.72 166.205 124.643 166.2 124.693L166.179 124.842L160.756 125.815L161.439 134.671L166.935 134.704L166.977 134.848C168.161 139.036 170.419 141.975 170.44 142.003L170.534 142.125L167.347 146.876L173.736 152.628L177.647 148.523L177.777 148.6C180.958 150.583 184.958 151.059 185 151.064L185.141 151.081L186.059 156.827H186.048Z" fill="#101C3A"/>
<path d="M193.936 143.645C185.754 147.087 176.45 142.832 173.201 134.158C169.952 125.489 173.968 115.632 182.155 112.19C190.338 108.748 199.641 113.002 202.89 121.677C206.139 130.351 202.123 140.202 193.936 143.645ZM182.296 112.571C174.307 115.931 170.385 125.55 173.556 134.014C176.727 142.479 185.806 146.628 193.795 143.269C201.784 139.91 205.701 130.296 202.53 121.831C199.359 113.367 190.28 109.218 182.296 112.577V112.571Z" fill="#101C3A"/>
<path d="M186.885 163.64C177.969 163.64 169.586 159.961 163.281 153.281C156.977 146.601 153.504 137.72 153.504 128.273C153.504 118.826 156.977 109.945 163.281 103.265C169.586 96.5854 177.969 92.9062 186.885 92.9062C189.668 92.9062 192.434 93.2701 195.107 93.9869C195.188 94.0089 195.238 94.0969 195.217 94.1835C195.197 94.2701 195.113 94.3221 195.032 94.3009C192.384 93.59 189.643 93.2298 186.885 93.2298C168.647 93.2298 153.809 108.95 153.809 128.273C153.809 147.596 168.647 163.316 186.885 163.316C197.086 163.316 206.562 158.441 212.882 149.941C212.935 149.87 213.031 149.858 213.097 149.913C213.163 149.969 213.175 150.07 213.123 150.141C206.744 158.72 197.181 163.64 186.885 163.64Z" fill="black"/>
<path d="M186.884 166.723C177.189 166.723 168.075 162.723 161.22 155.46C154.365 148.198 150.59 138.542 150.59 128.271C150.59 115.661 156.438 103.84 166.232 96.6463C166.301 96.595 166.396 96.6133 166.445 96.6874C166.492 96.7608 166.475 96.862 166.406 96.9126C156.694 104.045 150.895 115.768 150.895 128.271C150.895 149.295 167.04 166.4 186.883 166.4C186.967 166.4 187.036 166.472 187.036 166.562C187.036 166.651 186.967 166.724 186.883 166.724L186.884 166.723Z" fill="black"/>
<path d="M250.227 98.9226L250.286 92.1732L246.27 91.7646C245.877 89.7863 245.159 87.9433 244.176 86.2736L246.802 83.0288L242.342 78.2143L239.233 80.9341C237.678 79.8624 235.948 79.0722 234.091 78.6149L233.78 74.3552L227.409 74.293L227.023 78.5472C225.164 78.9667 223.414 79.7244 221.841 80.7636L218.778 77.9843L214.236 82.7094L216.804 86.0056C215.795 87.6537 215.046 89.4832 214.614 91.456L210.594 91.7862L210.535 98.5356L214.548 98.9443C214.944 100.914 215.659 102.768 216.64 104.435L214.017 107.68L218.477 112.492L221.588 109.772C223.143 110.841 224.878 111.634 226.73 112.091L227.041 116.351L233.414 116.413L233.8 112.159C235.667 111.742 237.407 110.982 238.98 109.942L242.043 112.722L246.587 107.997L244.02 104.7C245.029 103.052 245.777 101.215 246.206 99.2528L250.227 98.9226ZM230.303 107.537C223.953 107.474 218.852 101.97 218.908 95.2421C218.967 88.5143 224.163 83.1099 230.513 83.1722C236.863 83.2344 241.964 88.7362 241.905 95.4667C241.846 102.194 236.651 107.602 230.301 107.539L230.303 107.537Z" fill="#FF5225"/>
<path d="M213.249 98.9687L210.391 98.6764L210.434 93.5859L210.718 93.5886L210.677 98.4058L213.274 98.671L213.249 98.9687Z" fill="#101C3A"/>
<path d="M227.181 116.346L226.9 116.368L226.596 112.222C224.501 111.81 222.649 110.619 222.629 110.606L222.777 110.352C222.795 110.362 224.667 111.569 226.752 111.948L226.859 111.967L227.178 116.343L227.181 116.346Z" fill="#101C3A"/>
<path d="M239.363 103.236L239.141 103.049C244.765 95.5449 239.674 88.3923 239.621 88.3219L239.843 88.1406C239.897 88.2137 245.12 95.5531 239.36 103.239L239.363 103.236Z" fill="#101C3A"/>
<path d="M245.469 89.2797C244.797 87.656 244.061 86.3705 244.054 86.357L244 86.265L244.966 85.0742L245.18 85.2691L244.347 86.2974C244.529 86.6249 245.155 87.7697 245.727 89.1607L245.469 89.2797Z" fill="#101C3A"/>
<path d="M235.006 115.61L228.375 115.545L228.061 111.259C227.527 111.131 225.039 110.476 223.052 109.004L219.923 111.74L215.282 106.731L217.921 103.464C217.642 103.002 216.436 100.891 215.885 98.1196L211.844 97.7083L211.905 90.6829L215.954 90.35C216.092 89.7411 216.809 86.7723 218.076 85.0376L215.496 81.7278L220.225 76.8106L223.3 79.6034C223.714 79.2868 225.481 78.0446 228.35 77.4493L228.738 73.168L235.369 73.2329L235.683 77.5196C236.225 77.6468 238.766 78.3044 240.692 79.7739L243.819 77.0379L248.46 82.0472L245.822 85.3082C246.115 85.7683 247.346 87.8115 247.857 90.6558L251.898 91.0671L251.84 98.0926L247.793 98.4255C247.689 98.9721 247.17 101.394 245.663 103.73L248.246 107.045L243.517 111.962L240.44 109.169C240.013 109.497 238.146 110.834 235.39 111.326L235.001 115.605L235.006 115.61ZM228.633 115.253L234.754 115.312L235.137 111.077L235.244 111.058C238.371 110.531 240.342 108.888 240.363 108.872L240.452 108.796L243.507 111.57L247.87 107.031L245.316 103.751L245.377 103.659C247.094 101.048 247.538 98.2955 247.543 98.2685L247.561 98.1548L251.566 97.8247L251.622 91.3405L247.627 90.9345L247.607 90.8263C247.053 87.6085 245.553 85.4138 245.538 85.3921L245.472 85.2974L248.087 82.0661L243.804 77.4438L240.708 80.1528L240.621 80.0852C238.508 78.4289 235.561 77.7984 235.53 77.793L235.425 77.7713L235.116 73.5333L228.996 73.4738L228.613 77.7064L228.511 77.7253C225.28 78.3721 223.405 79.9011 223.384 79.9147L223.295 79.9877L220.242 77.2165L215.88 81.7522L218.439 85.0376L218.368 85.1323C216.975 86.9563 216.214 90.488 216.207 90.5232L216.184 90.6287L212.186 90.9562L212.13 97.4377L216.12 97.8436L216.14 97.9519C216.74 101.075 218.199 103.367 218.212 103.391L218.273 103.483L215.662 106.712L219.946 111.334L223.042 108.628L223.129 108.693C225.315 110.355 228.192 110.98 228.22 110.988L228.324 111.01L228.633 115.248V115.253Z" fill="#101C3A"/>
<path d="M235.179 106.227C229.02 108.157 222.527 104.417 220.706 97.8922C218.885 91.3674 222.415 84.4881 228.573 82.5585C234.732 80.629 241.225 84.369 243.046 90.8938C244.867 97.4186 241.337 104.298 235.179 106.227ZM228.652 82.8427C222.642 84.7262 219.196 91.4377 220.974 97.8083C222.752 104.176 229.089 107.827 235.099 105.943C241.11 104.06 244.556 97.3482 242.778 90.9777C241 84.6099 234.663 80.9591 228.652 82.8427Z" fill="#101C3A"/>
<path d="M258.079 109.456C258.057 109.456 258.034 109.451 258.013 109.44C257.937 109.401 257.905 109.304 257.942 109.223C261.167 102.186 261.748 94.1907 259.577 86.7113C254.859 70.4468 238.515 61.2802 223.143 66.2776C217.231 68.1997 212.143 71.9691 208.431 77.1779C208.38 77.249 208.284 77.263 208.217 77.2094C208.15 77.1559 208.136 77.0539 208.187 76.9827C211.938 71.7189 217.078 67.9099 223.053 65.968C238.585 60.9185 255.1 70.1813 259.868 86.616C262.061 94.1745 261.474 102.253 258.216 109.365C258.19 109.423 258.135 109.456 258.078 109.456H258.079Z" fill="black"/>
<path d="M263.426 103.25C263.415 103.25 263.403 103.249 263.393 103.247C263.311 103.228 263.259 103.141 263.277 103.054C264.459 97.3425 264.223 91.3517 262.591 85.7292C258.149 70.4192 244.516 60.5189 229.441 61.6538C229.354 61.6596 229.284 61.5929 229.278 61.5041C229.272 61.4153 229.335 61.3376 229.419 61.331C236.652 60.7874 243.96 62.8679 250.001 67.1927C256.131 71.582 260.706 78.131 262.883 85.6346C264.529 91.3106 264.769 97.3579 263.574 103.124C263.559 103.199 263.496 103.25 263.426 103.25Z" fill="black"/>
<path d="M118.382 105.766C119.212 104.329 119.802 102.583 119.342 100.97C118.832 99.1761 117.198 98.0542 115.683 97.0868C112.3 94.9277 108.641 92.6914 104.699 92.9502C100.18 93.2472 96.3353 96.8941 94.3378 101.198C93.0161 104.046 92.3465 107.303 92.8527 110.431C93.3588 113.56 95.1384 116.521 97.8046 117.968C100.558 119.463 103.976 119.199 106.748 117.743C109.469 116.314 111.004 114.042 112.859 111.636C114.541 109.457 116.928 108.283 118.382 105.765V105.766Z" fill="black"/>
<path d="M85.5919 217.427C85.9874 217.509 81.4933 189.484 94.9834 170.584L121.884 164.785L134.365 217.427H85.5919Z" fill="white"/>
<path d="M134.365 217.338C134.278 217.338 134.2 217.276 134.177 217.183L121.741 165.024L95.0937 170.767C87.4484 181.518 84.298 196.612 85.7277 215.633C85.8393 217.117 85.8393 217.179 85.7277 217.283C85.6829 217.326 85.6126 217.345 85.5537 217.334C85.4483 217.313 85.3797 217.205 85.4008 217.093C85.4052 217.071 85.4123 217.049 85.4228 217.031C85.4316 216.869 85.3894 216.308 85.3411 215.666C85.1117 212.61 84.5739 205.455 85.5432 196.949C86.7559 186.305 89.88 177.392 94.8292 170.458C94.8582 170.418 94.8987 170.391 94.9452 170.381L121.845 164.582C121.946 164.56 122.047 164.627 122.072 164.733L134.553 217.082C134.58 217.192 134.517 217.304 134.413 217.332C134.397 217.336 134.381 217.338 134.365 217.338Z" fill="black"/>
<path d="M112.037 217.422C111.935 217.422 111.849 217.338 111.843 217.229L110.534 194.613C110.398 192.259 111.614 190.067 113.559 189.158L116.428 187.818C116.526 187.773 116.64 187.82 116.683 187.923C116.727 188.027 116.683 188.149 116.584 188.194L113.716 189.534C111.918 190.374 110.794 192.404 110.92 194.588L112.23 217.204C112.237 217.317 112.155 217.414 112.048 217.422C112.044 217.422 112.04 217.422 112.036 217.422H112.037Z" fill="black"/>
<path d="M104.084 113.184L97.4492 127.417C97.4492 127.417 105.052 137.346 110.782 136.954C116.512 136.563 115.444 129.692 111.175 127.558L108.115 127.062L112.01 115.959L104.085 113.184H104.084Z" fill="#E8A695"/>
<path d="M107.884 128.194C107.862 128.194 107.841 128.191 107.819 128.182C107.718 128.143 107.666 128.026 107.703 127.919L111.76 116.086L104.185 113.433L98.5 125.629C98.4526 125.731 98.3366 125.773 98.2408 125.723C98.145 125.672 98.1054 125.549 98.1529 125.448L103.912 113.091C103.955 112.999 104.056 112.955 104.147 112.987L112.072 115.762C112.122 115.78 112.162 115.817 112.185 115.867C112.208 115.918 112.211 115.975 112.193 116.028L108.067 128.059C108.038 128.143 107.964 128.194 107.885 128.194H107.884Z" fill="#E8A695"/>
<path d="M110.617 127.666C110.608 127.666 110.598 127.666 110.587 127.664L108.313 127.295C108.208 127.278 108.135 127.173 108.151 127.061C108.166 126.95 108.265 126.872 108.371 126.889L110.645 127.258C110.751 127.274 110.824 127.38 110.808 127.491C110.793 127.593 110.71 127.665 110.616 127.665L110.617 127.666Z" fill="#E8A695"/>
<path d="M116.02 108.624C116.309 110.292 116.317 112.047 115.785 113.646C115.253 115.244 114.134 116.669 112.64 117.274C111.344 117.799 109.861 117.672 108.582 117.106C107.302 116.54 106.212 115.561 105.323 114.433C103.957 114.948 102.291 114.348 101.504 113.057C101.05 112.312 100.89 111.323 101.26 110.528C101.631 109.732 102.608 109.258 103.364 109.637C103.796 109.853 104.102 110.293 104.542 110.489C105.031 110.708 105.616 110.579 106.057 110.265C106.498 109.951 106.815 109.475 107.068 108.98C107.864 107.42 108.102 105.548 107.722 103.82C107.758 103.983 108.577 104.23 108.723 104.282C109.09 104.413 109.468 104.511 109.851 104.574C110.607 104.697 111.381 104.689 112.134 104.551C112.517 104.481 112.893 104.377 113.258 104.24C113.548 104.131 113.925 103.841 114.234 103.837C114.88 103.83 115.072 105.078 115.229 105.56C115.553 106.563 115.84 107.582 116.021 108.625L116.02 108.624Z" fill="#E8A695"/>
<path d="M110.878 117.81C110.093 117.81 109.281 117.638 108.507 117.295C107.339 116.779 106.246 115.896 105.26 114.672C103.844 115.131 102.146 114.488 101.341 113.168C100.807 112.292 100.709 111.245 101.087 110.436C101.524 109.499 102.627 109.039 103.447 109.45C103.676 109.564 103.867 109.731 104.051 109.892C104.238 110.055 104.414 110.208 104.616 110.299C105.011 110.476 105.521 110.396 105.949 110.093C106.303 109.841 106.604 109.456 106.897 108.881C107.668 107.368 107.9 105.54 107.533 103.865C107.508 103.754 107.573 103.645 107.678 103.618C107.768 103.597 107.857 103.644 107.896 103.728C107.951 103.777 108.137 103.871 108.683 104.051C108.728 104.066 108.763 104.078 108.784 104.086C109.137 104.212 109.506 104.307 109.88 104.369C110.616 104.49 111.363 104.482 112.1 104.347C112.473 104.278 112.841 104.176 113.192 104.044C113.282 104.01 113.387 103.954 113.5 103.893C113.727 103.77 113.985 103.631 114.231 103.629H114.24C114.916 103.629 115.163 104.569 115.328 105.192C115.358 105.307 115.385 105.411 115.411 105.492C115.799 106.69 116.053 107.673 116.211 108.586C116.543 110.504 116.461 112.228 115.967 113.712C115.382 115.472 114.164 116.875 112.709 117.464C112.14 117.694 111.518 117.808 110.878 117.808L110.878 117.81ZM105.323 114.228C105.379 114.228 105.434 114.254 105.471 114.301C106.441 115.53 107.512 116.41 108.656 116.917C109.968 117.498 111.395 117.558 112.57 117.082C113.921 116.535 115.054 115.225 115.602 113.577C116.073 112.162 116.149 110.507 115.829 108.661C115.675 107.768 115.425 106.804 115.045 105.626C115.017 105.538 114.988 105.427 114.954 105.304C114.829 104.831 114.621 104.041 114.239 104.041H114.235C114.08 104.043 113.865 104.158 113.676 104.261C113.553 104.327 113.436 104.39 113.322 104.433C112.951 104.573 112.562 104.681 112.167 104.753C111.388 104.897 110.599 104.904 109.821 104.777C109.425 104.712 109.035 104.611 108.661 104.477C108.642 104.469 108.609 104.459 108.568 104.445C108.33 104.366 108.143 104.299 107.998 104.239C108.253 105.878 107.984 107.616 107.239 109.077C106.914 109.713 106.573 110.144 106.165 110.435C105.63 110.814 104.98 110.908 104.466 110.678C104.212 110.564 104.006 110.383 103.805 110.209C103.631 110.058 103.467 109.914 103.281 109.821C102.656 109.508 101.775 109.887 101.435 110.617C101.122 111.287 101.214 112.201 101.667 112.945C102.403 114.151 103.98 114.719 105.258 114.239C105.279 114.23 105.301 114.227 105.323 114.227V114.228Z" fill="#E8A695"/>
<path d="M103.012 111.729C103.774 111.689 104.538 112.175 104.862 112.907L103.012 111.729Z" fill="#E8A695"/>
<path d="M104.861 113.11C104.788 113.11 104.718 113.066 104.685 112.992C104.392 112.332 103.711 111.897 103.02 111.932C102.911 111.94 102.822 111.85 102.817 111.738C102.811 111.624 102.894 111.528 103 111.522C103.843 111.475 104.678 112.01 105.036 112.818C105.081 112.92 105.039 113.043 104.942 113.09C104.916 113.103 104.888 113.11 104.861 113.11Z" fill="#CB8F80"/>
<path d="M91.046 173.806C88.2436 172.258 86.4711 169.223 85.13 166.191C81.9761 159.065 80.4453 151.168 80.469 143.297C80.4804 139.394 80.9383 135.287 83.0922 132.121C85.4227 128.694 89.4071 126.913 93.3492 126.284C94.9372 126.031 96.6236 125.951 98.0876 126.65C99.9902 127.559 101.149 129.581 102.583 131.188C104.25 133.057 106.4 134.437 108.737 135.136C110.228 135.581 112.029 135.692 113.004 134.177C113.44 133.499 113.575 132.658 113.473 131.844C113.259 130.137 112.205 128.82 111.182 127.56C113.145 127.224 115.165 128.054 116.715 129.374C118.265 130.694 119.412 132.463 120.457 134.256C123.65 139.735 126.104 145.671 128.068 151.765C128.763 153.92 129.405 156.173 129.184 158.439C128.934 161.002 128.484 163.448 126.699 165.198C126.121 165.764 125.571 166.27 125.092 166.697C124.18 167.508 122.987 167.847 121.808 167.674C115.32 166.729 99.6263 172.118 98.2985 173.259C96.2993 174.977 93.2807 175.038 91.0468 173.804L91.046 173.806Z" fill="black"/>
<path d="M97.4581 152.891C97.3764 152.891 97.3 152.835 97.2736 152.748L94.1733 142.436C94.1408 142.328 94.197 142.212 94.2989 142.178C94.4009 142.143 94.5098 142.203 94.5424 142.311L97.6427 152.623C97.6752 152.731 97.619 152.847 97.517 152.881C97.4977 152.888 97.4775 152.891 97.4581 152.891Z" fill="#C1C1C1"/>
<path d="M119.366 148.939C119.271 148.939 119.188 148.866 119.174 148.763C118.787 145.905 118.12 143.079 117.195 140.365C117.159 140.257 117.211 140.14 117.311 140.102C117.411 140.064 117.523 140.119 117.559 140.225C118.494 142.966 119.166 145.819 119.557 148.706C119.572 148.818 119.498 148.922 119.393 148.938C119.383 148.94 119.374 148.94 119.365 148.94L119.366 148.939Z" fill="#C1C1C1"/>
<path d="M98.5058 170.821C98.6148 171.198 98.7703 171.624 99.1227 171.747C99.4013 171.844 99.7396 171.778 99.9672 171.58C104.85 167.36 108.743 164.641 114.525 162.005C115.26 161.67 114.099 165.071 118.281 162.034C118.941 161.556 118.389 160.126 117.601 159.986C118.254 159.889 118.81 159.291 118.893 158.599C118.977 157.906 118.579 157.18 117.97 156.913C118.602 157.037 119.19 156.371 119.22 155.69C119.251 155.009 118.871 154.379 118.413 153.902C120.161 154.801 122.613 157.424 124 155.656C124.371 153.865 123.189 152.912 121.878 151.715C120.567 150.519 118.857 149.927 117.157 149.588C113.376 148.834 109.438 149.209 105.743 150.344C102.49 151.342 99.3942 152.911 96.5224 154.801C95.8167 155.266 95.5812 155.366 95.5707 156.228C95.5593 157.154 95.815 158.17 95.9512 159.084C96.235 160.983 96.5778 162.873 96.9802 164.749C97.4188 166.792 97.9276 168.818 98.5049 170.821H98.5058Z" fill="#E8A695"/>
<path d="M114.627 162.14C114.546 162.14 114.469 162.084 114.443 161.997C114.41 161.889 114.467 161.773 114.568 161.739L116.24 161.174C116.341 161.139 116.451 161.199 116.483 161.307C116.516 161.415 116.46 161.53 116.358 161.565L114.686 162.13C114.667 162.137 114.647 162.14 114.627 162.14Z" fill="#E8A695"/>
<path d="M89.585 159.462C89.5287 159.462 89.4734 159.437 89.4347 159.387C89.367 159.3 89.3784 159.17 89.461 159.097C91.1413 157.636 92.992 156.398 94.9595 155.418C95.0553 155.37 95.1713 155.414 95.217 155.517C95.2627 155.619 95.2205 155.742 95.1239 155.789C93.1844 156.755 91.3618 157.975 89.7062 159.414C89.6702 159.446 89.6263 159.461 89.5832 159.461L89.585 159.462Z" fill="#C1C1C1"/>
<path d="M119.808 163.68C119.834 164.848 120.15 166.101 121.02 166.819C122.139 167.743 123.745 167.481 125.108 167.066C131.582 165.093 137.421 161.29 140.778 155.102C140.917 154.847 142.148 151.719 141.644 151.012C141.17 150.347 139.991 151.61 139.222 151.78C135.888 152.521 132.598 153.485 129.378 154.662C127.722 155.267 126.086 155.928 124.47 156.644C123.236 157.192 122.185 157.34 121.36 158.526C120.333 160.001 119.765 161.844 119.807 163.68H119.808Z" fill="#E8A695"/>
<path d="M125.108 167.27C125.024 167.27 124.946 167.211 124.922 167.121C124.892 167.012 124.952 166.898 125.054 166.867C132.2 164.69 137.578 160.585 140.61 154.998C140.799 154.65 141.892 151.697 141.489 151.134C141.424 151.044 141.441 150.915 141.527 150.846C141.612 150.777 141.734 150.796 141.799 150.886C142.422 151.759 140.963 155.171 140.946 155.203C137.863 160.885 132.405 165.055 125.163 167.262C125.145 167.267 125.127 167.27 125.109 167.27H125.108Z" fill="#E8A695"/>
<path d="M145.095 145.027H133.192C132.938 145.027 132.699 145.151 132.542 145.363L122.948 158.297C122.521 158.871 122.908 159.715 123.598 159.715H135.088C135.336 159.715 135.57 159.597 135.728 159.394L145.734 146.46C146.177 145.889 145.793 145.028 145.095 145.028V145.027Z" fill="black"/>
<path d="M140.038 146.691C139.895 146.553 139.691 146.416 139.52 146.514C139.372 146.598 139.345 146.809 139.335 146.987C139.24 148.739 139.145 150.49 139.05 152.24C139.07 150.674 138.686 149.054 137.728 147.861C137.493 147.567 137.076 147.29 136.798 147.539C136.63 147.688 136.617 147.953 136.626 148.185C136.708 150.15 137.451 152.183 136.799 154.025C136.683 152.854 136.419 151.699 136.019 150.601C135.855 150.151 135.652 149.688 135.281 149.408C134.91 149.128 134.326 149.111 134.048 149.494C133.754 149.9 133.936 150.479 134.097 150.962C134.567 152.361 134.766 153.861 134.679 155.344C134.499 154.185 134.274 152.937 133.459 152.143C133.22 151.91 132.926 151.723 132.603 151.694C132.279 151.666 131.929 151.827 131.788 152.137C131.634 152.479 131.762 152.879 131.864 153.241C132.262 154.638 132.253 156.155 131.867 157.553C131.578 158.601 130.338 160.013 131.649 160.831C132.099 161.112 132.654 161.134 133.172 161.055C134.633 160.834 135.903 159.899 137.045 158.909C138.211 157.897 139.318 156.787 140.169 155.468C141.019 154.15 141.605 152.607 141.648 151.011C141.691 149.416 141.15 147.77 140.039 146.691H140.038Z" fill="#E8A695"/>
<path d="M98.006 93.5781C98.1018 93.0344 98.1431 92.4823 98.1316 91.9451C98.0754 89.3391 96.7704 86.9836 95.222 85.0433C94.3863 83.9959 93.4671 83.0062 92.4881 82.1086C91.4459 81.1534 90.2701 80.2978 88.9423 79.862C87.8447 79.5027 86.6917 79.4608 85.5757 79.7457C84.5343 80.011 83.5607 80.5305 82.6942 81.1916C80.796 82.6393 79.3074 84.7444 78.4084 87.0227C77.9233 88.2516 77.6254 89.5756 77.6412 90.9135C77.6562 92.1937 77.9866 93.4459 78.5595 94.5706C79.7635 96.9327 81.9068 98.5657 84.2769 99.412C85.5924 99.8822 86.9712 100.135 88.3561 100.216C89.5829 100.286 90.8264 100.217 92.0259 99.926C94.381 99.3553 96.6026 97.8144 97.5771 95.3983C97.8135 94.8127 97.9577 94.1991 98.0069 93.5772L98.006 93.5781Z" fill="black"/>
<path d="M253.541 141.489L258.065 155.501L261.175 156.141C261.175 156.141 256.429 167.056 248.431 165.227C240.432 163.399 242.192 156.141 242.192 156.141L243.883 155.996C244.896 155.91 245.591 154.876 245.337 153.833L243.435 146.03C243.435 146.03 251.186 139.411 253.542 141.49L253.541 141.489Z" fill="#E8A695"/>
<path d="M250.207 165.615C249.607 165.615 249.004 165.546 248.4 165.408C245.791 164.811 243.927 163.581 242.86 161.752C241.322 159.116 242 156.219 242.029 156.096C242.047 156.021 242.109 155.966 242.182 155.959L243.874 155.815C244.306 155.777 244.698 155.542 244.949 155.168C245.201 154.794 245.282 154.325 245.174 153.88L243.272 146.076C243.255 146.007 243.279 145.933 243.331 145.888C243.653 145.614 251.221 139.2 253.657 141.35C253.682 141.372 253.7 141.4 253.711 141.431L258.201 155.342L261.213 155.963C261.265 155.973 261.309 156.009 261.334 156.059C261.358 156.109 261.359 156.168 261.337 156.219C261.325 156.247 260.114 159.004 257.934 161.496C255.556 164.216 252.915 165.616 250.206 165.616L250.207 165.615ZM242.338 156.314C242.23 156.894 241.87 159.362 243.156 161.564C244.172 163.303 245.961 164.476 248.473 165.051C255.631 166.686 260.212 157.777 260.926 156.277L258.038 155.683C257.976 155.67 257.927 155.625 257.907 155.562L253.399 141.602C251.264 139.851 244.484 145.394 243.635 146.101L245.509 153.79C245.643 154.339 245.542 154.919 245.232 155.381C244.921 155.844 244.437 156.135 243.903 156.18L242.338 156.314Z" fill="#E8A695"/>
<path d="M236.273 125.699C235.573 129.363 238.264 132.684 240.593 133.296C240.675 133.318 240.758 133.337 240.839 133.356C240.889 133.537 240.95 133.719 241.027 133.899C241.943 136.022 244.565 137.055 246.766 136.843C247.404 137.567 248.236 138.574 249.118 139.848C251.933 143.915 253.931 142.085 256.855 138.059C257.245 137.524 257.806 136.839 258.097 135.704C258.675 133.449 257.674 131.419 257.547 131.17C256.593 129.299 255.365 129.369 252.664 127.448C248.56 124.527 248.488 122.295 244.96 121.034C244.026 120.7 242.85 120.296 241.383 120.581C239.248 120.996 236.825 122.805 236.272 125.699L236.273 125.699Z" fill="black"/>
<path d="M238.702 132.065C238.873 131.19 240.386 133.311 241.305 133.725C245.047 135.41 248.412 133.201 248.907 132.918C248.016 134.078 248.014 135.654 248.765 136.72C249.179 137.309 249.777 137.734 251.158 137.758C251.158 137.758 252.002 135.425 253.965 136.779C255.927 138.134 255.197 143.849 250.761 143.461C250.761 143.461 248.775 148.32 243.573 147.422C240.306 146.859 238.955 143.778 238.579 139.799C238.579 139.799 238.118 135.049 238.702 132.064L238.702 132.065Z" fill="#E8A695"/>
<path d="M244.812 147.717C244.411 147.717 243.988 147.682 243.543 147.604C240.573 147.092 238.845 144.473 238.406 139.818C238.401 139.771 237.949 135.006 238.533 132.028C238.576 131.806 238.691 131.722 238.78 131.691C239.091 131.583 239.487 131.939 240.161 132.577C240.57 132.964 241.034 133.404 241.374 133.557C242.957 134.27 245.519 134.72 248.725 132.817C248.766 132.792 248.8 132.772 248.826 132.757C248.898 132.715 248.988 132.733 249.041 132.802C249.094 132.869 249.094 132.966 249.042 133.034C248.226 134.097 248.17 135.568 248.904 136.612C249.237 137.084 249.728 137.526 251.046 137.574C251.179 137.274 251.581 136.51 252.317 136.256C252.851 136.073 253.437 136.198 254.059 136.627C255.08 137.332 255.457 139.191 254.918 140.859C254.311 142.739 252.801 143.776 250.866 143.654C250.542 144.336 248.739 147.717 244.813 147.717H244.812ZM238.87 132.103C238.298 135.026 238.745 139.734 238.749 139.781C239.177 144.313 240.763 146.754 243.599 147.243C244.034 147.318 244.446 147.353 244.835 147.353C248.924 147.353 250.529 143.566 250.602 143.39C250.631 143.317 250.7 143.273 250.774 143.28C252.596 143.439 254.025 142.49 254.59 140.74C255.08 139.223 254.763 137.551 253.869 136.934C253.339 136.568 252.852 136.457 252.423 136.604C251.674 136.862 251.322 137.815 251.319 137.824C251.293 137.897 251.221 137.943 251.154 137.942C249.596 137.914 249.002 137.364 248.626 136.83C247.931 135.843 247.861 134.521 248.394 133.416C245.296 135.064 242.809 134.601 241.237 133.894C240.844 133.717 240.379 133.277 239.929 132.851C239.596 132.535 239.041 132.008 238.888 132.039C238.889 132.041 238.879 132.058 238.87 132.103Z" fill="black"/>
<path d="M251.063 141.451C251.044 141.451 251.026 141.448 251.008 141.441C250.917 141.409 250.869 141.304 250.9 141.209C251.022 140.832 251.148 140.442 251.378 140.101C251.65 139.7 252.028 139.454 252.413 139.426C252.507 139.42 252.591 139.495 252.598 139.596C252.604 139.698 252.532 139.785 252.437 139.792C252.154 139.812 251.871 140.003 251.659 140.315C251.458 140.612 251.34 140.976 251.227 141.328C251.203 141.404 251.135 141.451 251.063 141.451Z" fill="black"/>
<path d="M249.801 135.715C249.801 135.715 248.954 139.614 247.119 141.247C245.336 142.833 242.751 139.542 238.771 139.329C238.579 139.319 238.416 139.475 238.415 139.679C238.406 141.114 238.432 146.396 239.235 147.698C240.411 149.606 249.746 150.259 250.839 143.627C250.839 143.627 249.846 140.435 251.237 137.924L249.802 135.717L249.801 135.715Z" fill="black"/>
<path d="M225.072 161.913C227.438 158.527 231.054 156.374 235.014 155.988C237.269 155.768 240.096 155.534 243.251 155.363C243.425 155.964 243.667 156.546 243.982 157.095C244.896 158.689 246.328 159.916 247.923 160.678C249.519 161.44 251.306 161.785 253.051 161.562C254.759 161.343 256.384 160.572 257.564 159.225C258.526 158.127 259.681 156.799 259.977 155.359C262.837 155.531 265.092 155.782 267.778 156.227C272.904 157.078 277.317 160.366 280.117 164.995C286.225 175.091 293.016 185.749 293.016 198.045C293.016 212.025 261.341 210.81 261.341 210.81H230.459L210.711 193.035C210.711 193.035 216.858 173.668 225.072 161.914V161.913Z" fill="#FF5225"/>
<path d="M264.151 208.538C264.384 210.206 261.335 210.811 261.335 210.811H251.886L237.816 208.895C237.816 208.895 236.717 189.687 256.611 192.007C256.611 192.007 262.614 197.54 264.151 208.538Z" fill="#E8A695"/>
<path d="M261.338 210.994H251.889C251.882 210.994 251.874 210.994 251.867 210.992L237.796 209.076C237.714 209.065 237.651 208.993 237.646 208.906C237.641 208.825 237.242 200.777 242.25 195.725C245.539 192.408 250.379 191.095 256.632 191.824C256.727 191.835 256.796 191.926 256.785 192.026C256.775 192.127 256.689 192.198 256.595 192.188C250.449 191.471 245.703 192.75 242.491 195.988C237.974 200.541 237.958 207.612 237.985 208.731L251.9 210.626H261.338C261.434 210.626 261.511 210.708 261.511 210.81C261.511 210.911 261.434 210.993 261.338 210.993V210.994Z" fill="#C5735D"/>
<path d="M248.182 209.152C248.097 209.152 248.023 209.086 248.011 208.995C247.853 207.849 248.103 206.582 248.716 205.426C249.221 204.474 249.963 203.579 250.985 202.693C251.191 202.514 251.414 202.33 251.679 202.207C251.766 202.166 251.869 202.209 251.907 202.302C251.945 202.395 251.905 202.503 251.817 202.542C251.592 202.647 251.391 202.814 251.204 202.976C250.216 203.833 249.501 204.694 249.018 205.605C248.442 206.691 248.205 207.876 248.353 208.942C248.367 209.042 248.301 209.135 248.207 209.149C248.198 209.151 248.19 209.151 248.182 209.151V209.152Z" fill="#C5735D"/>
<path d="M243.634 208.874C243.626 208.874 243.617 208.874 243.609 208.873C243.514 208.858 243.449 208.765 243.463 208.666C243.636 207.371 243.886 205.855 244.424 204.427C244.988 202.928 245.822 201.701 246.833 200.878C246.909 200.816 247.018 200.831 247.075 200.912C247.133 200.992 247.119 201.107 247.043 201.168C246.081 201.951 245.286 203.125 244.745 204.563C244.22 205.955 243.975 207.445 243.805 208.718C243.792 208.809 243.718 208.876 243.634 208.876V208.874Z" fill="#C5735D"/>
<path d="M239.987 208.877C239.901 208.877 239.825 208.809 239.815 208.716C239.182 203.102 242.665 199.596 242.7 199.561C242.771 199.492 242.88 199.496 242.945 199.57C243.01 199.644 243.006 199.76 242.936 199.829C242.903 199.862 239.548 203.248 240.159 208.673C240.17 208.773 240.103 208.865 240.008 208.876C240.001 208.876 239.994 208.878 239.988 208.878L239.987 208.877Z" fill="#C5735D"/>
<path d="M203.458 211.808H254.783C255.087 211.808 255.392 211.725 255.642 211.543C256.229 211.115 256.433 210.35 256.201 209.693C255.595 208.348 254.344 207.875 252.495 207.875H200.09L200.77 209.834C201.189 211.021 202.26 211.809 203.457 211.809L203.458 211.808Z" fill="black"/>
<path d="M200.949 210.425L191.774 186.028C191.586 185.53 191.558 184.971 191.738 184.47C192.036 183.641 192.774 183.121 193.578 183.121H225.122C227.024 183.121 228.718 184.39 229.352 186.288L237.881 211.805H202.871C202.025 211.805 201.263 211.258 200.95 210.424L200.949 210.425Z" fill="black"/>
<path d="M212.228 195.188C212.547 194.374 212.182 193.44 211.413 193.102C210.644 192.765 209.762 193.152 209.444 193.966C209.125 194.781 209.49 195.715 210.259 196.052C211.028 196.39 211.91 196.003 212.228 195.188Z" fill="white"/>
<path d="M280.594 192.538H280.591L257.643 192.077C257.547 192.076 257.471 191.992 257.473 191.89C257.474 191.791 257.552 191.711 257.646 191.711H257.649L280.597 192.172C280.693 192.174 280.769 192.258 280.766 192.359C280.765 192.459 280.687 192.538 280.593 192.538H280.594Z" fill="#C43C18"/>
<path d="M272.932 191.162C272.857 191.162 272.788 191.11 272.766 191.031C271.938 188.109 270.795 185.283 269.37 182.632C269.117 182.16 268.71 181.532 268.179 181.555C268.082 181.56 268.003 181.479 268 181.378C267.997 181.276 268.071 181.192 268.167 181.188C268.899 181.161 269.373 181.897 269.67 182.451C271.109 185.125 272.261 187.977 273.097 190.926C273.124 191.023 273.073 191.125 272.981 191.154C272.964 191.159 272.948 191.162 272.932 191.162Z" fill="#C43C18"/>
<path d="M158.079 189.729H135.585C135.478 189.729 135.391 189.637 135.391 189.523V168.132C135.391 168.018 135.478 167.926 135.585 167.926C135.692 167.926 135.779 168.018 135.779 168.132V189.318H158.079C158.186 189.318 158.273 189.411 158.273 189.524C158.273 189.638 158.186 189.73 158.079 189.73V189.729Z" fill="black"/>
<path d="M163.68 191.988C164.966 191.988 166.009 190.884 166.009 189.523C166.009 188.162 164.966 187.059 163.68 187.059C162.394 187.059 161.352 188.162 161.352 189.523C161.352 190.884 162.394 191.988 163.68 191.988Z" fill="#E2EAFF"/>
<path d="M170.481 191.988C171.767 191.988 172.81 190.884 172.81 189.523C172.81 188.162 171.767 187.059 170.481 187.059C169.195 187.059 168.152 188.162 168.152 189.523C168.152 190.884 169.195 191.988 170.481 191.988Z" fill="#E2EAFF"/>
<path d="M177.274 191.988C178.56 191.988 179.603 190.884 179.603 189.523C179.603 188.162 178.56 187.059 177.274 187.059C175.988 187.059 174.945 188.162 174.945 189.523C174.945 190.884 175.988 191.988 177.274 191.988Z" fill="#E2EAFF"/>
<path d="M193.86 204.583H182.87C182.763 204.583 182.676 204.491 182.676 204.378C182.676 204.264 182.763 204.172 182.87 204.172H193.86C193.967 204.172 194.054 204.264 194.054 204.378C194.054 204.491 193.967 204.583 193.86 204.583Z" fill="black"/>
<path d="M177.274 206.843C178.56 206.843 179.603 205.74 179.603 204.379C179.603 203.017 178.56 201.914 177.274 201.914C175.988 201.914 174.945 203.017 174.945 204.379C174.945 205.74 175.988 206.843 177.274 206.843Z" fill="#E2EAFF"/>
<path d="M170.481 206.843C171.767 206.843 172.81 205.74 172.81 204.379C172.81 203.017 171.767 201.914 170.481 201.914C169.195 201.914 168.152 203.017 168.152 204.379C168.152 205.74 169.195 206.843 170.481 206.843Z" fill="#E2EAFF"/>
<path d="M163.68 206.843C164.966 206.843 166.009 205.74 166.009 204.379C166.009 203.017 164.966 201.914 163.68 201.914C162.394 201.914 161.352 203.017 161.352 204.379C161.352 205.74 162.394 206.843 163.68 206.843Z" fill="#E2EAFF"/>
<path d="M269.625 118.416C269.6 118.416 269.575 118.41 269.551 118.396C269.477 118.352 269.451 118.253 269.492 118.176C273.093 111.37 274.997 103.623 274.997 95.7729C274.997 87.9223 273.147 80.3953 269.647 73.6657C269.607 73.5872 269.634 73.4889 269.708 73.4456C269.782 73.4031 269.875 73.431 269.915 73.5095C273.44 80.2867 275.303 87.9854 275.303 95.7729C275.303 103.56 273.386 111.48 269.76 118.334C269.732 118.387 269.68 118.417 269.626 118.417L269.625 118.416Z" fill="black"/>
<path d="M274.149 126.267C274.12 126.267 274.09 126.258 274.063 126.239C273.994 126.189 273.975 126.089 274.023 126.015C277.009 121.331 279.27 116.214 280.744 110.804C280.768 110.719 280.852 110.669 280.933 110.694C281.014 110.719 281.061 110.808 281.038 110.894C279.555 116.337 277.28 121.485 274.276 126.196C274.246 126.242 274.198 126.267 274.149 126.267H274.149Z" fill="black"/>
<path d="M282.776 92.2435C282.696 92.2435 282.629 92.1782 282.623 92.0924C282.002 82.3044 278.872 72.8809 273.57 64.8404C273.522 64.767 273.539 64.6665 273.609 64.6151C273.678 64.5638 273.773 64.5821 273.821 64.6548C279.154 72.7437 282.304 82.2237 282.929 92.0704C282.934 92.1592 282.871 92.2369 282.787 92.2428C282.783 92.2428 282.78 92.2428 282.777 92.2428L282.776 92.2435Z" fill="black"/>
<path d="M282.575 107.973C283.434 107.596 283.842 106.553 283.487 105.642C283.131 104.732 282.146 104.3 281.286 104.677C280.427 105.054 280.019 106.097 280.375 107.008C280.731 107.918 281.716 108.35 282.575 107.973Z" fill="#E2EAFF"/>
<path d="M283.224 103.337C284.083 102.96 284.491 101.916 284.135 101.005C283.779 100.095 282.794 99.6628 281.935 100.04C281.075 100.417 280.667 101.461 281.023 102.371C281.379 103.281 282.364 103.714 283.224 103.337Z" fill="#E2EAFF"/>
<path d="M282.903 98.916C283.833 98.916 284.587 98.1172 284.587 97.1318C284.587 96.1465 283.833 95.3477 282.903 95.3477C281.973 95.3477 281.219 96.1465 281.219 97.1318C281.219 98.1172 281.973 98.916 282.903 98.916Z" fill="#E2EAFF"/>
<path d="M276.508 141.531C276.47 141.531 276.432 141.516 276.402 141.486C276.342 141.425 276.339 141.322 276.398 141.257C278.334 139.122 280.151 136.827 281.797 134.437C281.846 134.366 281.941 134.349 282.01 134.402C282.078 134.455 282.093 134.556 282.043 134.628C280.389 137.03 278.564 139.336 276.619 141.482C276.588 141.515 276.549 141.532 276.508 141.532V141.531Z" fill="black"/>
<path d="M290.408 117.531C290.391 117.531 290.374 117.528 290.358 117.522C290.278 117.492 290.236 117.4 290.263 117.316C292.527 110.406 293.675 103.157 293.675 95.7735C293.675 88.3895 292.461 80.7297 290.068 73.6421C290.039 73.5578 290.081 73.4653 290.16 73.4352C290.239 73.4052 290.326 73.4492 290.355 73.5328C292.76 80.6556 293.981 88.1379 293.981 95.7727C293.981 103.408 292.827 110.476 290.552 117.421C290.53 117.487 290.471 117.529 290.408 117.529V117.531Z" fill="black"/>
<path d="M286.094 130.967C286.243 129.994 285.62 129.078 284.702 128.92C283.784 128.762 282.919 129.422 282.77 130.395C282.621 131.368 283.244 132.284 284.162 132.442C285.08 132.6 285.945 131.94 286.094 130.967Z" fill="#E2EAFF"/>
<path d="M286.852 128.006C287.782 128.006 288.536 127.207 288.536 126.222C288.536 125.236 287.782 124.438 286.852 124.438C285.922 124.438 285.168 125.236 285.168 126.222C285.168 127.207 285.922 128.006 286.852 128.006Z" fill="#E2EAFF"/>
<path d="M288.95 123.236C289.88 123.236 290.634 122.438 290.634 121.452C290.634 120.467 289.88 119.668 288.95 119.668C288.02 119.668 287.266 120.467 287.266 121.452C287.266 122.438 288.02 123.236 288.95 123.236Z" fill="#E2EAFF"/>
</svg>
