<svg width="372" height="265" viewBox="0 0 372 265" fill="none" xmlns="http://www.w3.org/2000/svg">
<path d="M124.785 58.1904H86.4663C82.798 58.1904 79.8242 61.1642 79.8242 64.8325V88.9854C79.8242 92.6538 82.798 95.6275 86.4663 95.6275H124.785C128.453 95.6275 131.427 92.6538 131.427 88.9854V64.8325C131.427 61.1642 128.453 58.1904 124.785 58.1904Z" fill="#D9956A"/>
<path d="M103.146 84.6849C107.443 80.3873 107.443 73.4194 103.146 69.1217C98.8479 64.8241 91.88 64.8241 87.5824 69.1217C83.2847 73.4194 83.2847 80.3873 87.5824 84.6849C91.88 88.9826 98.8479 88.9826 103.146 84.6849Z" fill="white"/>
<path d="M103.893 69.9545C101.875 67.4794 98.8013 65.9019 95.3633 65.9019V76.9067L103.893 69.9545Z" fill="#FF5225"/>
<path d="M103.893 69.959L95.3633 76.9111L100.803 86.4744C104.127 84.5813 106.368 81.0073 106.368 76.9111C106.368 74.2728 105.438 71.8575 103.893 69.959Z" fill="#4A75C9"/>
<path d="M89.1406 85.9824C90.9086 87.1955 93.0519 87.9081 95.3638 87.9081C97.3439 87.9081 99.1989 87.3805 100.804 86.4666L95.3638 76.9033L89.1406 85.9824Z" fill="black"/>
<path d="M85.1992 81.141C86.0206 83.1102 87.3969 84.7857 89.1377 85.9824L95.3609 76.9033L85.2047 81.141H85.1992Z" fill="#6E9296"/>
<path d="M111.883 65.6377H109.512V68.0095H111.883V65.6377Z" fill="#FF5225"/>
<path d="M125.673 67.4564H113.662C113.314 67.4564 113.031 67.1735 113.031 66.8254C113.031 66.4772 113.314 66.1943 113.662 66.1943H125.673C126.022 66.1943 126.304 66.4772 126.304 66.8254C126.304 67.1735 126.022 67.4564 125.673 67.4564Z" stroke="white" stroke-width="0.440644" stroke-miterlimit="10"/>
<path d="M111.883 70.6812H109.512V73.0529H111.883V70.6812Z" fill="#4A75C9"/>
<path d="M125.673 72.4959H113.662C113.314 72.4959 113.031 72.2131 113.031 71.8649C113.031 71.5168 113.314 71.2339 113.662 71.2339H125.673C126.022 71.2339 126.304 71.5168 126.304 71.8649C126.304 72.2131 126.022 72.4959 125.673 72.4959Z" stroke="white" stroke-width="0.440644" stroke-miterlimit="10"/>
<path d="M111.883 75.7202H109.512V78.092H111.883V75.7202Z" fill="black"/>
<path d="M125.673 77.5394H113.662C113.314 77.5394 113.031 77.2565 113.031 76.9084C113.031 76.5602 113.314 76.2773 113.662 76.2773H125.673C126.022 76.2773 126.304 76.5602 126.304 76.9084C126.304 77.2565 126.022 77.5394 125.673 77.5394Z" stroke="white" stroke-width="0.440644" stroke-miterlimit="10"/>
<path d="M111.883 80.7637H109.512V83.1354H111.883V80.7637Z" fill="#6E9296"/>
<path d="M125.673 82.5828H113.662C113.314 82.5828 113.031 82.3 113.031 81.9518C113.031 81.6037 113.314 81.3208 113.662 81.3208H125.673C126.022 81.3208 126.304 81.6037 126.304 81.9518C126.304 82.3 126.022 82.5828 125.673 82.5828Z" stroke="white" stroke-width="0.440644" stroke-miterlimit="10"/>
<path d="M111.883 85.811H109.512V88.1828H111.883V85.811Z" fill="white"/>
<path d="M125.673 87.6258H113.662C113.314 87.6258 113.031 87.3429 113.031 86.9948C113.031 86.6466 113.314 86.3638 113.662 86.3638H125.673C126.022 86.3638 126.304 86.6466 126.304 86.9948C126.304 87.3429 126.022 87.6258 125.673 87.6258Z" stroke="white" stroke-width="0.440644" stroke-miterlimit="10"/>
<path d="M276.692 53.7827H232.798C229.13 53.7827 226.156 56.7565 226.156 60.4248V82.701C226.156 86.3693 229.13 89.343 232.798 89.343H276.692C280.361 89.343 283.335 86.3693 283.335 82.701V60.4248C283.335 56.7565 280.361 53.7827 276.692 53.7827Z" fill="#6E9296"/>
<path d="M231.531 80.3022H277.96" stroke="#1B2536" stroke-width="0.516183" stroke-miterlimit="10"/>
<path d="M243.691 74.7388V80.3037" stroke="#1B2536" stroke-width="0.591722" stroke-miterlimit="10"/>
<path d="M249.328 70.5508V80.299" stroke="#1B2536" stroke-width="0.591722" stroke-miterlimit="10"/>
<path d="M254.965 71.5728V80.2983" stroke="#1B2536" stroke-width="0.591722" stroke-miterlimit="10"/>
<path d="M260.598 66.9868V80.3036" stroke="#1B2536" stroke-width="0.591722" stroke-miterlimit="10"/>
<path d="M266.234 66.9868V80.3036" stroke="#1B2536" stroke-width="0.591722" stroke-miterlimit="10"/>
<path d="M271.871 64.2822V80.3026" stroke="#1B2536" stroke-width="0.591722" stroke-miterlimit="10"/>
<path d="M269.098 60.6933L270.415 62.309L264.181 67.4605L260.384 65.2846L253.317 71.127L248.438 68.4234L234.207 80.1843H237.993L248.71 71.3282L253.584 74.0318L260.634 68.2058L264.431 70.3871L271.932 64.1803L273.184 65.7143L275.414 59.7305L269.098 60.6933Z" fill="white"/>
<path d="M310.073 84.0332H263.083C259.415 84.0332 256.441 87.007 256.441 90.6753V133.144C256.441 136.813 259.415 139.786 263.083 139.786H310.073C313.741 139.786 316.715 136.813 316.715 133.144V90.6753C316.715 87.007 313.741 84.0332 310.073 84.0332Z" fill="#D9956A"/>
<path d="M272.086 109.142H266.973V128.007H272.086V109.142Z" fill="white"/>
<path d="M272.086 117.586H266.973V128.009H272.086V117.586Z" fill="#FF5225"/>
<path d="M280.61 103.466H275.496V128.005H280.61V103.466Z" fill="white"/>
<path d="M280.61 114.448H275.496V128.004H280.61V114.448Z" fill="#FF5225"/>
<path d="M289.133 111.366H284.02V128.012H289.133V111.366Z" fill="white"/>
<path d="M289.133 118.816H284.02V128.009H289.133V118.816Z" fill="#FF5225"/>
<path d="M297.656 103.466H292.543V128.005H297.656V103.466Z" fill="white"/>
<path d="M297.656 114.448H292.543V128.004H297.656V114.448Z" fill="#FF5225"/>
<path d="M306.184 95.7974H301.07V128.007H306.184V95.7974Z" fill="white"/>
<path d="M306.184 110.211H301.07V128.005H306.184V110.211Z" fill="#FF5225"/>
<path d="M262.168 128.01H310.985" stroke="#FF5225" stroke-width="1.05755" stroke-miterlimit="10"/>
<path d="M210.273 125.984C227.328 108.93 227.328 81.2785 210.273 64.2238C193.219 47.1692 165.568 47.1692 148.513 64.2238C131.458 81.2785 131.458 108.93 148.513 125.984C165.568 143.039 193.219 143.039 210.273 125.984Z" fill="#BEDCE0"/>
<path d="M208.616 124.326C224.755 108.187 224.755 82.0207 208.616 65.8817C192.477 49.7427 166.311 49.7427 150.172 65.8817C134.032 82.0207 134.032 108.187 150.172 124.326C166.311 140.465 192.477 140.465 208.616 124.326Z" fill="#FF5225"/>
<path d="M211.964 100.128C214.743 82.1351 202.409 65.296 184.416 62.517C166.423 59.738 149.584 72.0713 146.805 90.0643C144.026 108.057 156.36 124.896 174.353 127.675C192.346 130.454 209.185 118.121 211.964 100.128Z" fill="white"/>
<path d="M203.693 98.9872C205.84 85.5691 196.703 72.9514 183.285 70.8045C169.867 68.6577 157.249 77.7948 155.102 91.2128C152.955 104.631 162.092 117.249 175.51 119.395C188.928 121.542 201.546 112.405 203.693 98.9872Z" fill="#FF5225"/>
<path d="M185.727 110.056C193.988 106.559 197.851 97.0272 194.354 88.7657C190.858 80.5042 181.326 76.6415 173.064 80.1381C164.803 83.6347 160.94 93.1665 164.437 101.428C167.933 109.69 177.465 113.552 185.727 110.056Z" fill="white"/>
<path d="M179.394 102.986C183.747 102.986 187.276 99.4568 187.276 95.1035C187.276 90.7502 183.747 87.2212 179.394 87.2212C175.041 87.2212 171.512 90.7502 171.512 95.1035C171.512 99.4568 175.041 102.986 179.394 102.986Z" fill="#FF5225"/>
<path d="M141.804 80.6167L138.594 79.4036L138.333 72.4786C138.3 71.6191 139.154 71.0044 139.959 71.3091L141.472 71.8803L141.804 80.6167Z" fill="#1B2536"/>
<path d="M145.014 81.8294L141.804 80.6164L141.473 71.8745L144.682 73.0876L145.014 81.8294Z" fill="black"/>
<path d="M148.221 83.0423L145.012 81.8292L144.68 73.0874L147.889 74.3059L148.221 83.0423Z" fill="#1B2536"/>
<path d="M151.432 84.2581L148.222 83.045L147.891 74.3086L151.1 75.5217L151.432 84.2581Z" fill="black"/>
<path d="M154.643 85.471L151.433 84.2579L151.102 75.5215L152.69 76.1253C153.669 76.4952 154.333 77.42 154.376 78.4699L154.643 85.4764V85.471Z" fill="#1B2536"/>
<path d="M141.803 80.6164L138.594 79.4033L133.812 84.4189C133.219 85.039 133.453 86.0671 134.258 86.3718L135.771 86.943L141.803 80.6164Z" fill="#1B2536"/>
<path d="M145.012 81.8298L141.802 80.6167L135.77 86.9432L138.979 88.1563L145.012 81.8298Z" fill="black"/>
<path d="M148.223 83.0388L145.013 81.8257L138.98 88.1522L142.185 89.3653L148.223 83.0388Z" fill="#1B2536"/>
<path d="M151.431 84.2561L148.222 83.043L142.184 89.3695L145.393 90.588L151.431 84.2561Z" fill="black"/>
<path d="M154.641 85.4729L151.431 84.2598L145.398 90.5863L146.987 91.1901C147.966 91.56 149.076 91.3098 149.799 90.5482L154.641 85.4729Z" fill="#1B2536"/>
<path d="M139.297 79.6616L179.394 94.8388" stroke="#1B2536" stroke-width="2.51797" stroke-linecap="round" stroke-linejoin="round"/>
<path d="M110.623 219.601V214.537H116.144L116.019 219.313L121.002 223.757L123.156 224.965C124.141 225.514 124.843 226.455 125.098 227.554L125.196 227.989H116.394L112.619 225.123L112.162 227.989H109.176L110.628 219.601H110.623Z" fill="#E8A695"/>
<path d="M116.143 214.537H110.621V217.088L116.104 216.098L116.143 214.537Z" fill="#28364F"/>
<path d="M123.15 224.96L120.996 223.752L118.042 221.119L114.642 223.877L110.236 221.799L109.164 227.99H112.151L112.607 225.123L116.383 227.99H125.184L125.087 227.554C124.831 226.456 124.129 225.515 123.144 224.965L123.15 224.96Z" fill="black"/>
<path d="M135.646 219.601L134.77 214.537H140.292L141.043 219.313L146.025 223.757L148.18 224.965C149.164 225.514 149.866 226.455 150.122 227.554L150.22 227.989H141.418L137.643 225.123L137.186 227.989H134.199L135.652 219.601H135.646Z" fill="#E8A695"/>
<path d="M134.77 214.537H140.291L140.53 216.054L135.21 217.061L134.77 214.537Z" fill="#28364F"/>
<path d="M148.177 224.96L146.023 223.752L143.069 221.119L139.669 223.877L135.263 221.799L134.191 227.99H137.178L137.635 225.123L141.41 227.99H150.212L150.114 227.554C149.858 226.456 149.156 225.515 148.172 224.965L148.177 224.96Z" fill="black"/>
<path d="M104.938 146.873H130.592L141.053 215.616H130.01L126.686 188.385L119.805 160.239H118.635L117.64 215.616H106.597L108.256 184.816L104.938 146.873Z" fill="#FF5225"/>
<path d="M131.424 152.346L105.873 157.562L104.938 146.873H130.592L131.424 152.346Z" fill="#FF5225"/>
<path d="M140.583 212.545H129.633" stroke="#1B2536" stroke-width="0.440644" stroke-miterlimit="10"/>
<path d="M117.692 212.545H106.758" stroke="#1B2536" stroke-width="0.440644" stroke-miterlimit="10"/>
<path d="M121.952 147.605L119.379 160.236" stroke="#1B2536" stroke-width="0.440644" stroke-miterlimit="10"/>
<path d="M123.874 147.605L122.596 153.883C122.416 154.764 121.911 155.547 121.182 156.075L120.066 156.88" stroke="#1B2536" stroke-width="0.440644" stroke-miterlimit="10"/>
<path d="M115.48 158.364H125.528" stroke="#1B2536" stroke-width="0.440644" stroke-miterlimit="10"/>
<path d="M107.34 150.27L109.831 184.231L108.586 212.54" stroke="#1B2536" stroke-width="0.440644" stroke-miterlimit="10"/>
<path d="M121.289 158.364L128.1 187.799L131.418 212.539" stroke="#1B2536" stroke-width="0.440644" stroke-miterlimit="10"/>
<path d="M125.09 119.616L135.115 135.739L129.469 144.084L125.09 119.616Z" fill="#FF5225"/>
<path d="M116.105 147.608H127.561V126.654L120.729 117.548L114.043 118.054L116.105 147.608Z" fill="white"/>
<path d="M112.254 103.594C110.633 102.011 107.771 101.706 105.84 102.974C104.328 103.969 103.691 107.364 105.34 109.698C106.988 112.031 107.303 114.773 105.622 116.361C103.941 117.95 104.719 118.945 104.719 118.945H112.781C112.781 118.945 111.846 118.445 112.188 117.324C112.531 116.204 112.689 113.93 111.971 112.407C111.253 110.883 108.984 107.239 111.536 107.271L112.254 103.594Z" fill="black"/>
<path d="M109.496 105.468C109.496 106.344 109.91 107.122 110.551 107.628C110.731 107.399 111.041 107.269 111.536 107.274L112.254 103.597C111.977 103.325 111.656 103.091 111.313 102.895C110.258 103.276 109.502 104.282 109.502 105.474L109.496 105.468Z" fill="#28364F"/>
<path d="M122.615 107.927C125.167 106.279 124.606 102.449 121.462 102.76C121.462 102.76 117.692 99.6479 113.428 101.949C109.163 104.255 110.441 109.951 113.428 111.942L122.61 107.927H122.615Z" fill="black"/>
<path d="M121.618 103.599C121.618 103.599 119.262 106.966 116.025 107.015C116.025 107.015 116.357 109.915 114.562 112.52L114.051 118.053L121.471 125.266L120.736 117.547L120.557 114.56C122.096 114.435 124.789 112.488 123.043 108.887C123.043 108.887 123.19 104.66 121.623 103.599H121.618Z" fill="#E8A695"/>
<path d="M119.009 110.658C119.009 111.229 118.546 111.692 117.975 111.692C117.404 111.692 116.941 111.229 116.941 110.658C116.941 110.087 117.404 109.625 117.975 109.625C118.546 109.625 119.009 110.087 119.009 110.658Z" fill="#FF5225"/>
<path d="M120.157 114.558C120.157 114.558 117.606 114.96 115.969 113.622" stroke="#422424" stroke-width="0.516183" stroke-miterlimit="10"/>
<path d="M115.935 109.516C116.506 110.734 116.093 112.138 114.999 112.649C113.911 113.16 112.562 112.589 111.991 111.371C111.42 110.152 111.833 108.748 112.927 108.237C114.02 107.726 115.364 108.297 115.935 109.516Z" fill="#E8A695"/>
<path d="M112.781 109.704C114.043 108.241 115.169 109.389 115.496 111.156" stroke="#422424" stroke-width="0.465824" stroke-miterlimit="10"/>
<path d="M114.043 110.777L114.135 109.036" stroke="#422424" stroke-width="0.465824" stroke-miterlimit="10"/>
<path d="M118.636 107.723C118.283 107.723 118 108.044 118 108.441C118 108.544 118.022 108.648 118.06 108.735L118.533 108.555L118.234 108.985C118.343 109.088 118.484 109.148 118.636 109.148C118.99 109.148 119.273 108.827 119.273 108.43C119.273 108.033 118.985 107.712 118.636 107.712V107.723Z" fill="#1B2536"/>
<path d="M121.722 107.723C121.369 107.723 121.086 108.044 121.086 108.441C121.086 108.544 121.108 108.648 121.146 108.735L121.619 108.555L121.32 108.985C121.429 109.088 121.57 109.148 121.722 109.148C122.076 109.148 122.359 108.827 122.359 108.43C122.359 108.033 122.071 107.712 121.722 107.712V107.723Z" fill="#1B2536"/>
<path d="M120.534 107.926L120.398 109.156C120.398 109.156 121.345 109.074 121.002 110.222" stroke="#422424" stroke-width="0.516183" stroke-miterlimit="10"/>
<path d="M121.528 111.088C121.528 111.088 119.395 112.073 118.062 110.571" stroke="#422424" stroke-width="0.516183" stroke-miterlimit="10"/>
<path d="M117.742 110.988C117.742 110.988 117.943 110.461 118.64 110.325" stroke="#422424" stroke-width="0.516183" stroke-miterlimit="10"/>
<path d="M117.836 106.839C117.961 106.839 118.897 106.703 119.642 106.975" stroke="black" stroke-width="1.25898" stroke-miterlimit="10"/>
<path d="M121.078 107.09C121.078 107.09 121.758 106.688 122.503 106.976" stroke="black" stroke-width="1.25898" stroke-miterlimit="10"/>
<path d="M114.044 118.053L118.304 129.46C119.179 131.805 119.642 134.285 119.669 136.788L119.805 149.131C119.821 150.757 118.489 152.074 116.862 152.025C113.582 151.932 108.213 151.622 103.98 150.605L105.319 125.892C105.487 122.802 107.544 120.131 110.497 119.19L114.044 118.053Z" fill="#FF5225"/>
<path d="M113.152 146.225L104.062 149.097L103.98 150.604C105.77 151.033 107.767 151.338 109.72 151.55L113.152 146.225Z" fill="#28364F"/>
<path d="M108.636 119.787L111.454 118.884L110.877 127.615L106.922 138.25L109.501 137.565L113.156 146.225L104.975 150.762C102.005 152.41 98.3164 151.98 95.8086 149.696L95.1667 149.114C92.9636 147.106 92.3434 143.886 93.6544 141.209C95.863 136.711 99.5404 129.644 103.653 123.524C104.844 121.751 106.601 120.435 108.636 119.782V119.787Z" fill="#FF5225"/>
<path d="M113.148 146.222L109.493 137.562L97.4922 140.69" stroke="#28364F" stroke-width="0.440644" stroke-miterlimit="10"/>
<path d="M110.371 128.963L106.922 138.249" stroke="#28364F" stroke-width="0.440644" stroke-miterlimit="10"/>
<path d="M120.73 117.549L125.741 127.819C126.35 129.071 126.649 130.458 126.6 131.85L126.007 149.329C125.964 150.645 127.041 151.727 128.357 151.684L132.649 151.553L129.162 138.813L130.517 134.053C131.507 130.577 130.821 126.84 128.662 123.946L126.644 121.237C125.534 119.752 124 118.637 122.243 118.049L120.73 117.543V117.549Z" fill="#FF5225"/>
<path d="M118.577 135.698L119.311 136.574L118.201 136.296L110.199 131.226L110.575 130.633L118.577 135.698Z" fill="white"/>
<path d="M113.826 118.948L111.895 123.871L115.974 127.728L114.87 129.931L118.825 133.973" stroke="#28364F" stroke-width="0.440644" stroke-miterlimit="10"/>
<path d="M121.914 118.387L126.44 123.081L125.814 126.775L128.137 128.962L127.06 132.574" stroke="#28364F" stroke-width="0.440644" stroke-miterlimit="10"/>
<path d="M106.426 117.126C106.426 117.126 105.604 117.637 105.947 118.948" stroke="white" stroke-width="0.440644" stroke-miterlimit="10"/>
<path d="M107.789 117.126C107.789 117.126 106.967 117.637 107.31 118.948" stroke="white" stroke-width="0.440644" stroke-miterlimit="10"/>
<path d="M109.14 117.126C109.14 117.126 108.319 117.637 108.662 118.948" stroke="white" stroke-width="0.440644" stroke-miterlimit="10"/>
<path d="M110.5 117.126C110.5 117.126 109.678 117.637 110.021 118.948" stroke="white" stroke-width="0.440644" stroke-miterlimit="10"/>
<path d="M130.957 130.685C130.957 130.685 131.441 133.133 129.156 138.818L130.07 142.158" stroke="#28364F" stroke-width="0.440644" stroke-miterlimit="10"/>
<path d="M137.773 147.603H125.816L134.449 129.723H146.406L137.773 147.603Z" fill="#4A75C9"/>
<path d="M138.598 139.929V145.891L142.808 137.171L142.319 136.42L141.231 139.042L138.598 139.929Z" fill="#28364F"/>
<path d="M141.086 143.776L142.761 141.812C143.305 141.562 143.632 141.002 143.588 140.409L143.294 136.666C143.267 136.296 142.87 136.073 142.538 136.231C142.337 136.329 142.223 136.541 142.245 136.759L142.582 140.001L141.918 138.695C141.837 138.532 141.717 138.385 141.57 138.276L141.309 138.075C140.857 137.727 140.221 137.754 139.797 138.13L139.008 138.826C138.632 139.158 138.502 139.691 138.692 140.159L139.432 142.019C139.731 142.775 139.704 143.624 139.35 144.358L139.214 144.641C139.938 144.641 140.623 144.326 141.097 143.776H141.086Z" fill="#E8A695"/>
<path d="M140.059 138.176L141.761 141.767" stroke="#422424" stroke-width="0.516183" stroke-miterlimit="10"/>
<path d="M139.227 139.047L140.701 142.159" stroke="#422424" stroke-width="0.516183" stroke-miterlimit="10"/>
<path d="M109.529 137.584L110.22 137.372L111.03 135.223C111.34 134.402 112.009 133.766 112.842 133.499L114.332 133.02C114.773 132.879 115.252 132.933 115.643 133.167L116.04 133.401C116.318 133.564 116.383 133.94 116.176 134.19L116.106 134.277L116.78 136.485C116.78 136.485 116.9 138.123 115.203 137.818C115.203 137.818 114.071 139.222 112.428 139.059L110.834 140.685L109.523 137.579L109.529 137.584Z" fill="#E8A695"/>
<path d="M116.106 134.282C116.106 134.282 115.045 133.417 113.152 134.57" stroke="#422424" stroke-width="0.516183" stroke-miterlimit="10"/>
<path d="M116.411 135.225C116.411 135.225 115.35 134.36 113.457 135.513" stroke="#422424" stroke-width="0.516183" stroke-miterlimit="10"/>
<path d="M116.613 135.946C116.243 135.755 115.281 135.451 113.828 136.337" stroke="#422424" stroke-width="0.516183" stroke-miterlimit="10"/>
<path d="M116.241 136.621C115.746 136.577 115.044 136.675 114.168 137.214" stroke="#422424" stroke-width="0.516183" stroke-miterlimit="10"/>
<path d="M115.203 137.823C115.203 137.823 115.584 137.137 115.72 136.631" stroke="#422424" stroke-width="0.516183" stroke-miterlimit="10"/>
<path d="M116.143 137.216L115.539 137.129" stroke="#422424" stroke-width="0.516183" stroke-miterlimit="10"/>
<path d="M109.812 137.497L111.797 139.706L110.834 140.69L109.496 137.562L109.812 137.497Z" fill="#28364F"/>
<path d="M121.914 125.797L123.252 129.355C123.66 130.443 123.834 131.601 123.764 132.76L122.893 146.882" stroke="#FF5225" stroke-width="0.440644" stroke-miterlimit="10"/>
<path d="M121.438 126.832C121.438 127.153 121.176 127.414 120.855 127.414C120.535 127.414 120.273 127.153 120.273 126.832C120.273 126.511 120.535 126.25 120.855 126.25C121.176 126.25 121.438 126.511 121.438 126.832Z" fill="#28364F"/>
<path d="M122.606 131.848C122.606 132.169 122.344 132.43 122.023 132.43C121.703 132.43 121.441 132.169 121.441 131.848C121.441 131.527 121.703 131.266 122.023 131.266C122.344 131.266 122.606 131.527 122.606 131.848Z" fill="#28364F"/>
<path d="M122.496 139.349C122.496 139.67 122.235 139.931 121.914 139.931C121.593 139.931 121.332 139.67 121.332 139.349C121.332 139.028 121.593 138.767 121.914 138.767C122.235 138.767 122.496 139.028 122.496 139.349Z" fill="#28364F"/>
<path d="M185.886 158.011H179.488L180.342 153.056C180.647 151.288 182.328 149.857 184.09 149.857C185.858 149.857 187.039 151.288 186.734 153.056L185.88 158.011H185.886Z" fill="#D9956A"/>
<path d="M184.29 153.211C184.214 153.635 183.811 153.983 183.387 153.983C182.963 153.983 182.674 153.635 182.75 153.211C182.827 152.787 183.229 152.438 183.654 152.438C184.078 152.438 184.366 152.787 184.29 153.211Z" stroke="white" stroke-width="0.516183" stroke-miterlimit="10"/>
<path d="M179.492 158.014H185.884L186.499 154.451L180.009 155.016L179.492 158.014Z" fill="#1B2536"/>
<path d="M196.868 227.981H144.297L156.738 155.974H209.309L196.868 227.981Z" fill="#4A75C9"/>
<path d="M194.469 221.77H148.84L159.692 158.945H205.327L194.469 221.77Z" fill="white"/>
<path d="M181.07 169.608H164.152L164.56 167.241H181.478L181.07 169.608Z" fill="#FF5225"/>
<path d="M196.73 172.225H163.699L163.873 171.219H196.904L196.73 172.225Z" fill="#6E9296"/>
<path d="M196.278 174.842H163.242L163.416 173.836H196.452L196.278 174.842Z" fill="#6E9296"/>
<path d="M195.829 177.464H162.793L162.967 176.453H196.003L195.829 177.464Z" fill="#6E9296"/>
<path d="M175.036 180.081H162.34L162.514 179.074H175.211L175.036 180.081Z" fill="#6E9296"/>
<path d="M177.922 187.84H161.004L161.412 185.479H178.33L177.922 187.84Z" fill="#FF5225"/>
<path d="M183.519 189.457H193.757L193.583 190.463H160.547L160.721 189.457H183.519Z" fill="#6E9296"/>
<path d="M193.125 193.081H160.094L160.268 192.074H193.299L193.125 193.081Z" fill="#6E9296"/>
<path d="M192.675 195.697H159.645L159.819 194.691H192.849L192.675 195.697Z" fill="#6E9296"/>
<path d="M171.888 198.319H159.191L159.365 197.312H172.062L171.888 198.319Z" fill="#6E9296"/>
<path d="M174.766 206.085H157.848L158.256 203.718H175.179L174.766 206.085Z" fill="#FF5225"/>
<path d="M190.425 208.702H157.395L157.569 207.696H190.599L190.425 208.702Z" fill="#6E9296"/>
<path d="M189.976 211.323H156.945L157.119 210.317H190.15L189.976 211.323Z" fill="#6E9296"/>
<path d="M189.523 213.94H156.492L156.666 212.934H189.697L189.523 213.94Z" fill="#6E9296"/>
<path d="M168.737 216.558H156.035L156.209 215.551H168.911L168.737 216.558Z" fill="#6E9296"/>
<path d="M187.417 161.843H176.668C174.546 161.843 173.126 160.124 173.491 158.002L173.953 155.326H192.378L191.915 158.002C191.551 160.124 189.533 161.843 187.417 161.843Z" fill="#D9956A"/>
<path d="M174.742 156.404H191.225" stroke="white" stroke-width="0.516183" stroke-miterlimit="10"/>
<path d="M174.477 157.947H190.959" stroke="white" stroke-width="0.516183" stroke-miterlimit="10"/>
<path d="M43 227.985H322.494" stroke="#28364F" stroke-width="1.57373" stroke-miterlimit="10"/>
<path d="M211.433 123.162L208.3 117.586C208.3 117.586 207.947 115.252 206.217 114.621C204.487 113.99 201.941 112.853 201.751 113.256C201.56 113.658 203.894 115.176 203.894 115.176L201.843 115.617L199.656 115.693C199.656 115.693 197.747 115.296 197.66 115.693C197.573 116.09 197.246 117.227 197.023 117.716C196.795 118.206 198.617 118.978 200.858 119.006C200.858 119.006 199.634 119.539 199.058 119.626C198.481 119.713 197.535 119.462 197.382 119.805C197.23 120.142 199.379 120.681 201.386 120.028C201.386 120.028 202.588 121.198 205.096 120.567L206.01 125.637L211.428 123.156L211.433 123.162Z" fill="#D68D8D"/>
<path d="M197.621 116.278C197.621 116.278 199.084 116.702 201.647 116.871" stroke="#422424" stroke-width="0.516183" stroke-miterlimit="10"/>
<path d="M197.258 117.137C197.258 117.137 198.661 117.947 201.446 118.045" stroke="#422424" stroke-width="0.516183" stroke-miterlimit="10"/>
<path d="M201.989 116.409L201.473 118.617" stroke="#422424" stroke-width="0.516183" stroke-miterlimit="10"/>
<path d="M202.07 118.34C202.93 117.431 205.307 117.246 206.455 118.225" stroke="#422424" stroke-width="0.516183" stroke-miterlimit="10"/>
<path d="M205.852 124.735L206.015 125.643L211.433 123.163L210.443 121.4L205.852 124.735Z" fill="#1B2536"/>
<path d="M236.275 216.219V220.577C236.275 220.577 237.831 223.938 237.94 227.986H218.215L218.389 227.605C219.069 226.114 220.385 225.005 221.974 224.591L224.509 223.933L229.802 221.012L229.584 216.214H236.281L236.275 216.219Z" fill="#D68D8D"/>
<path d="M237.428 224.138H231.347C230.786 222.919 229.579 222.103 228.681 221.635L224.509 223.942L221.974 224.6C220.385 225.013 219.069 226.118 218.389 227.614L218.215 227.994H237.94C237.902 226.591 237.69 225.275 237.428 224.143V224.138Z" fill="black"/>
<path d="M240.45 216.219V220.577C240.45 220.577 238.894 223.938 238.785 227.986H258.51L258.336 227.605C257.656 226.114 256.34 225.005 254.751 224.591L252.216 223.933L246.923 221.012L247.141 216.214H240.444L240.45 216.219Z" fill="#D68D8D"/>
<path d="M239.297 224.138H245.378C245.939 222.919 247.146 222.103 248.044 221.635L252.216 223.942L254.751 224.6C256.34 225.013 257.656 226.118 258.336 227.614L258.51 227.994H238.785C238.823 226.591 239.035 225.275 239.297 224.143V224.138Z" fill="black"/>
<path d="M252.75 148.527L248.267 217.488H239.052L237.556 157.15V217.488H228.466L223.141 152.357L225.975 144.426H244.16L252.75 148.527Z" fill="black"/>
<path d="M252.097 158.564L252.75 148.527L244.155 144.426H231.159L230.414 149.05L243.486 157.634C245.58 159.01 248.143 159.467 250.585 158.912L252.092 158.564H252.097Z" fill="#1B2536"/>
<path d="M232.992 156.553L241.582 157.793" stroke="#28364F" stroke-width="0.516183" stroke-miterlimit="10"/>
<path d="M237.554 159.141L236.227 144.426" stroke="#28364F" stroke-width="0.516183" stroke-miterlimit="10"/>
<path d="M233.906 144.426L237.018 153.184" stroke="#28364F" stroke-width="0.516183" stroke-miterlimit="10"/>
<path d="M224.73 153.327L230.421 217.49" stroke="#1B2536" stroke-width="0.516183" stroke-miterlimit="10"/>
<path d="M250.889 152.73L246.406 217.492" stroke="#1B2536" stroke-width="0.516183" stroke-miterlimit="10"/>
<path d="M245.945 153.021L252.277 155.812L249.345 152.015L245.945 153.021Z" fill="#D68D8D"/>
<path d="M244.672 115.422H232.797V141.735H244.672V115.422Z" fill="#FF5225"/>
<path d="M235.434 117.363C237.468 118.457 240.727 118.179 242.516 117.157" stroke="#496163" stroke-width="0.516183" stroke-miterlimit="10"/>
<path d="M235.139 117.363L234.132 141.734H232.457L235.139 117.363Z" fill="#1B2536"/>
<path d="M240.716 141.737H230.418V144.43H240.716V141.737Z" fill="#D9956A"/>
<path d="M241.561 108.379C241.561 108.379 246.718 102.504 245.249 100.861C244.221 99.708 241.963 99.7406 241.963 99.7406C241.963 99.7406 237.051 93.8819 231.503 99.6264C230.942 100.208 231.231 101.182 232.014 101.383C232.237 101.438 232.498 101.498 232.797 101.547C234.854 101.911 237.715 107.074 237.715 107.074L241.561 108.379Z" fill="black"/>
<path d="M232.789 101.549C232.789 101.549 231.919 105.297 231.576 107.571C231.234 109.845 232.322 111.983 235.406 111.95L235.281 115.53C235.281 115.53 237.43 117.771 242.347 115.53L241.477 107.685C241.477 107.685 239.268 106.657 240.198 102.86L232.789 101.555V101.549Z" fill="#D68D8D"/>
<path d="M238.068 108.853C238.768 108.853 239.336 108.286 239.336 107.586C239.336 106.886 238.768 106.318 238.068 106.318C237.368 106.318 236.801 106.886 236.801 107.586C236.801 108.286 237.368 108.853 238.068 108.853Z" fill="#E8A695"/>
<path d="M243.664 108.268C243.038 109.356 241.782 109.807 240.862 109.274C239.943 108.741 239.709 107.43 240.335 106.347C240.96 105.26 242.217 104.808 243.136 105.341C244.056 105.874 244.29 107.185 243.664 108.268Z" fill="#D68D8D"/>
<path d="M240.775 107.992C240.264 106.49 242.347 105.125 243.217 106.653" stroke="#422424" stroke-width="0.516183" stroke-miterlimit="10"/>
<path d="M242.244 107.585L241.961 106.008" stroke="#422424" stroke-width="0.516183" stroke-miterlimit="10"/>
<path d="M233.976 104.603L234.341 104.755C234.351 104.722 234.368 104.7 234.373 104.668C234.428 104.347 234.21 104.042 233.884 103.988C233.563 103.933 233.258 104.151 233.204 104.477C233.149 104.798 233.367 105.103 233.693 105.157C233.889 105.19 234.069 105.114 234.199 104.983L233.976 104.603Z" fill="#1B2536"/>
<path d="M237.175 105.199L237.54 105.351C237.551 105.319 237.567 105.297 237.572 105.264C237.627 104.943 237.404 104.639 237.083 104.584C236.762 104.53 236.457 104.753 236.403 105.074C236.348 105.395 236.566 105.7 236.892 105.754C237.088 105.787 237.268 105.71 237.398 105.58L237.175 105.199Z" fill="#1B2536"/>
<path d="M235.242 103.983L235.057 105.757L234.627 106.736C234.54 106.937 234.687 107.16 234.904 107.16H235.759" stroke="#422424" stroke-width="0.516183" stroke-miterlimit="10"/>
<path d="M234.133 107.996C234.133 107.996 236.015 108.757 237.582 107.452" stroke="#422424" stroke-width="0.516183" stroke-miterlimit="10"/>
<path d="M237.195 107.074L237.913 107.83" stroke="#422424" stroke-width="0.516183" stroke-miterlimit="10"/>
<path d="M236.184 103.752C236.184 103.752 237.701 103.546 238.425 104.269" stroke="#1B2536" stroke-width="1.25898" stroke-miterlimit="10"/>
<path d="M234.703 103.464C234.703 103.464 233.735 102.953 232.957 103.143" stroke="#1B2536" stroke-width="1.25898" stroke-miterlimit="10"/>
<path d="M235.855 111.932C235.855 111.932 237.46 111.991 239.049 111.246" stroke="#422424" stroke-width="0.516183" stroke-miterlimit="10"/>
<path d="M235.433 113.589L232.555 151.069C232.332 153.947 229.656 155.987 226.827 155.432L219.064 153.914L222.241 141.087L222.932 135.343C222.932 135.343 219.662 138.367 216.491 141.033C214.174 142.98 210.654 142.279 209.267 139.591C207.472 136.104 205.274 131.176 204.219 126.247L211.606 122.554L214.968 128.238L223.465 118.365C224.771 116.853 226.511 115.781 228.453 115.302L235.427 113.589H235.433Z" fill="black"/>
<path d="M242.138 113.589L238.091 144.634C238.026 145.129 238.091 145.63 238.287 146.087L241.061 152.729C241.779 154.453 243.846 155.155 245.467 154.23L254.742 148.937L249.825 142.649L252.882 122.206C253.312 119.344 251.598 116.597 248.84 115.721L242.133 113.589H242.138Z" fill="black"/>
<path d="M247.457 129.184L250.356 139.074L251.096 134.129L247.457 129.184Z" fill="#1B2536"/>
<path d="M247.035 153.331L250.669 143.729L254.743 148.935L247.035 153.331Z" fill="#1B2536"/>
<path d="M233.444 114.643L228.281 122.536L232.943 138.257" stroke="#1B2536" stroke-width="0.516183" stroke-miterlimit="10"/>
<path d="M239.422 138.257L245.961 123.472L243.97 114.643" stroke="#1B2536" stroke-width="0.516183" stroke-miterlimit="10"/>
<path d="M247.204 128.816L256.169 142.018L249.336 152.011L253.302 157.146C253.302 157.146 261.26 150.096 263.513 147.931C266.624 144.945 266.385 141.703 263.948 136.725C262.147 133.042 258.388 126.041 255.935 121.51C254.45 118.768 251.964 116.712 248.994 115.765L246.758 115.053L247.198 128.81L247.204 128.816Z" fill="black"/>
<path d="M256.176 142.027L258.977 138.257" stroke="#1B2536" stroke-width="0.516183" stroke-miterlimit="10"/>
<path d="M247.933 145.393L241.738 143.515L241.405 144.613L247.6 146.492L247.933 145.393Z" stroke="#1B2536" stroke-width="0.516183" stroke-miterlimit="10"/>
<path d="M222.797 135.291L224.293 124.025" stroke="#1B2536" stroke-width="0.516183" stroke-miterlimit="10"/>
<path d="M214.977 128.238L217.599 132.927" stroke="#1B2536" stroke-width="0.516183" stroke-miterlimit="10"/>
<path d="M219.723 138.259L222.927 135.348L223.966 126.726L219.723 138.259Z" fill="#1B2536"/>
<path d="M232.556 151.068C232.333 153.946 229.657 155.985 226.828 155.431" stroke="#1B2536" stroke-width="0.516183" stroke-miterlimit="10"/>
<path d="M289.409 190.334C291.436 181.629 286.023 172.928 277.318 170.901C268.613 168.874 259.913 174.287 257.886 182.992C255.858 191.697 261.272 200.397 269.977 202.425C278.682 204.452 287.382 199.039 289.409 190.334Z" fill="#4A75C9"/>
<path d="M278.687 198.6C285.279 195.822 288.371 188.226 285.593 181.634C282.815 175.042 275.219 171.95 268.627 174.728C262.035 177.506 258.943 185.102 261.721 191.694C264.499 198.286 272.095 201.378 278.687 198.6Z" fill="white"/>
<path d="M275.152 186.675C275.152 187.502 274.483 188.171 273.656 188.171C272.829 188.171 272.16 187.502 272.16 186.675C272.16 185.848 272.829 185.179 273.656 185.179C274.483 185.179 275.152 185.848 275.152 186.675Z" fill="#BEDCE0"/>
<path d="M274.388 174.677H273.109V177.267H274.388V174.677Z" fill="#D9956A"/>
<path d="M274.388 196.092H273.109V198.681H274.388V196.092Z" fill="#D9956A"/>
<path d="M268.248 175.975L267.141 176.614L268.435 178.857L269.542 178.218L268.248 175.975Z" fill="#D9956A"/>
<path d="M278.959 194.529L277.852 195.168L279.146 197.411L280.253 196.772L278.959 194.529Z" fill="#D9956A"/>
<path d="M263.592 180.173L262.953 181.28L265.196 182.575L265.835 181.468L263.592 180.173Z" fill="#D9956A"/>
<path d="M282.139 190.896L281.5 192.003L283.742 193.298L284.382 192.191L282.139 190.896Z" fill="#D9956A"/>
<path d="M261.656 186.148V187.427H264.246V186.148H261.656Z" fill="#D9956A"/>
<path d="M283.066 186.14V187.418H285.656V186.14H283.066Z" fill="#D9956A"/>
<path d="M262.955 192.274L263.594 193.381L265.836 192.087L265.197 190.98L262.955 192.274Z" fill="#D9956A"/>
<path d="M281.494 181.563L282.133 182.67L284.375 181.376L283.736 180.269L281.494 181.563Z" fill="#D9956A"/>
<path d="M267.162 196.919L268.27 197.558L269.564 195.316L268.457 194.676L267.162 196.919Z" fill="#D9956A"/>
<path d="M277.866 178.384L278.973 179.023L280.267 176.781L279.16 176.142L277.866 178.384Z" fill="#D9956A"/>
<path d="M267.312 182.432L273.655 186.669L281.761 180.06" stroke="#4A75C9" stroke-width="1.2338" stroke-miterlimit="10"/>
<path d="M267.314 183.095C267.678 183.095 267.973 182.8 267.973 182.437C267.973 182.073 267.678 181.778 267.314 181.778C266.951 181.778 266.656 182.073 266.656 182.437C266.656 182.8 266.951 183.095 267.314 183.095Z" fill="#4A75C9"/>
<path d="M281.76 180.72C282.123 180.72 282.418 180.426 282.418 180.062C282.418 179.699 282.123 179.404 281.76 179.404C281.396 179.404 281.102 179.699 281.102 180.062C281.102 180.426 281.396 180.72 281.76 180.72Z" fill="#4A75C9"/>
</svg>
