<svg width="222" height="222" viewBox="0 0 222 222" fill="none" xmlns="http://www.w3.org/2000/svg">
<path d="M115.062 76.7453C136.696 77.5023 156.213 86.5245 170.603 100.732C171.553 101.671 171.53 103.214 170.552 104.125L135.859 136.365C134.989 137.174 133.646 137.219 132.753 136.439C127.734 132.085 121.27 129.455 114.237 128.801C113.037 128.687 112.103 127.702 112.103 126.495V79.6084C112.103 77.9862 113.446 76.6827 115.062 76.7339V76.7453Z" fill="#E1FF25"/>
<path d="M195.157 162.686H147.332C146.08 162.686 145.062 161.707 144.988 160.454C144.532 152.929 142.581 147.152 138.148 141.801C137.363 140.85 137.477 139.444 138.381 138.608L172.738 106.743C173.7 105.849 175.207 105.917 176.084 106.891C188.909 121.104 196.921 139.752 197.507 160.267C197.547 161.593 196.483 162.686 195.157 162.686Z" fill="#25FF62"/>
<path d="M109.137 79.0844V126.489C109.137 127.713 108.198 128.709 106.986 128.829C99.8335 129.523 93.6769 132.17 88.4762 136.536C87.5714 137.293 86.24 137.236 85.3751 136.433L50.6601 104.164C49.6814 103.253 49.653 101.711 50.6032 100.772C65.1128 86.4273 84.8516 77.3596 106.713 76.7335C108.039 76.6937 109.137 77.7581 109.137 79.0844Z" fill="#F8AE41"/>
<path d="M24.0614 160.25C24.6475 139.753 32.6477 121.122 45.4503 106.914C46.3266 105.941 47.8345 105.873 48.7961 106.766L83.1355 138.682C84.0232 139.508 84.137 140.874 83.3973 141.83C78.8737 147.659 77.3374 152.372 76.5066 160.558C76.3871 161.753 75.3743 162.664 74.1737 162.664H26.4057C25.08 162.664 24.0159 161.571 24.0557 160.244L24.0614 160.25Z" fill="#FF5225"/>
<path d="M110.883 131.339C127.333 131.339 140.818 144.015 142.116 160.141C142.224 161.513 141.148 162.686 139.771 162.686H81.9888C80.6118 162.686 79.5364 161.508 79.6445 160.141C80.9418 144.021 94.4273 131.339 110.877 131.339H110.883Z" fill="#E9EDFD"/>
<path d="M107.407 146.117C108.488 144.335 110.428 143.396 112.374 143.51L128.13 115.743C128.204 115.607 128.295 115.481 128.397 115.368L141.063 100.716C141.28 100.465 141.684 100.71 141.558 101.017L134.378 118.88C134.321 119.016 134.258 119.147 134.178 119.267L116.858 146.43C117.694 148.052 117.7 150.056 116.687 151.735C115.134 154.297 111.8 155.116 109.239 153.568C106.678 152.014 105.859 148.678 107.407 146.117Z" fill="#332771"/>
<path d="M42.8809 155.162L42.7614 159.198L38.4654 158.487L38.4824 155.14L42.8809 155.162Z" fill="#FFBFA9"/>
<path d="M38.4641 158.486C42.9024 158.418 44.359 158.412 49.9296 161.213C50.6807 161.628 50.3734 162.778 49.5142 162.772L39.2778 162.721C37.7927 162.807 38.4641 158.486 38.4641 158.486Z" fill="#222222"/>
<path d="M23.0098 154.888L22.9017 158.941L18.5943 159.265L18.617 155.121L23.0098 154.888Z" fill="#FFBFA9"/>
<path d="M20.9458 158.469C21.5091 158.469 23.2901 158.588 24.2176 159.505C25.4125 160.689 25.2532 162.743 24.7638 162.743L17.1733 162.766C16.8035 162.795 16.9286 160.996 17.7765 159.852C18.5389 158.822 19.1762 158.457 20.9458 158.463V158.469Z" fill="#222222"/>
<path d="M22.2318 105.042C21.7766 108.161 19.7965 122.374 20.0127 133.503C20.0127 133.537 20.0127 133.571 20.0127 133.605L17.4237 155.782C17.3668 156.249 17.731 156.653 18.2033 156.653H23.2446C23.6088 156.653 23.9218 156.402 24.0071 156.05C24.8834 152.281 29.5492 132.12 29.8963 129.444C30.2832 126.49 30.6645 122.511 30.6645 122.511L33.868 135.575C33.868 135.575 33.8737 135.609 33.8793 135.626L37.4356 156.283C37.4982 156.664 37.8339 156.938 38.2209 156.932L43.5069 156.846C43.9564 156.841 44.3092 156.454 44.2751 156.01L42.6022 132.546C42.6022 132.546 42.6022 132.507 42.5965 132.484L38.346 104.091C38.2834 103.687 37.925 103.402 37.521 103.425L22.9601 104.364C22.5903 104.387 22.2887 104.66 22.2375 105.025L22.2318 105.042Z" fill="#222222"/>
<path d="M30.6569 122.518L32.6484 106.683" stroke="#264154" stroke-width="0.284931" stroke-miterlimit="10" stroke-linecap="round"/>
<path d="M31.945 121.266L36.241 135.354L39.1543 155.14" stroke="#264154" stroke-width="0.284931" stroke-miterlimit="10" stroke-linecap="round"/>
<path d="M23.1895 111.27L21.7669 133.407L18.8423 155.139" stroke="#264154" stroke-width="0.284931" stroke-miterlimit="10" stroke-linecap="round"/>
<path d="M34.8184 107.843C34.8184 107.843 34.0559 113.199 31.9449 113.125" stroke="#264154" stroke-width="0.284931" stroke-miterlimit="10" stroke-linecap="round"/>
<path d="M27.1348 106.683C27.1348 106.683 26.3325 110.149 23.8402 113.126" stroke="#264154" stroke-width="0.284931" stroke-miterlimit="10" stroke-linecap="round"/>
<path d="M22.6131 93.7209C22.6245 93.442 22.7952 91.0512 22.5221 91.0342L18.1123 91.6489C17.9359 89.3037 18.7154 78.1072 24.377 77.5323C28.4113 77.1224 30.4198 77.4013 33.5835 77.5323C35.8766 77.6233 38.0047 78.7675 39.3305 80.6345C40.9863 82.9626 43.0745 86.2641 43.7289 88.9167C44.7076 92.8614 40.4286 94.6146 39.1654 95.0415C38.9606 95.1098 38.8241 95.3033 38.8241 95.5196L38.7899 104.348C38.7899 104.781 38.4314 105.134 37.999 105.128L22.6302 104.974C22.3514 104.957 22.1408 104.724 22.1522 104.445L22.6131 93.7152V93.7209Z" fill="#EAEAEA"/>
<path d="M33.2379 76.1208L33.2493 77.9138C33.2493 77.9138 32.8225 80.4355 30.0002 80.5038C27.178 80.5778 26.939 77.4926 26.939 77.4926L27.7754 74.7432V71.7036L26.6716 67.0474L38.2224 63.0742C38.2224 63.0742 38.9393 69.9049 38.2224 72.2956C37.5054 74.6863 35.7017 77.0827 33.2322 76.1208H33.2379Z" fill="#FFBFA9"/>
<path d="M38.5114 64.8782C38.5114 64.8782 34.2097 63.6772 33.0205 66.546C31.8313 69.4149 31.8768 68.766 31.3874 68.2139C30.8924 67.6674 29.1683 67.8268 29.3618 69.3352C29.6121 71.2535 30.0332 72.8587 27.7799 74.7485C27.7799 74.7485 27.8368 71.9195 26.164 69.4775C24.4911 67.0299 24.7301 61.5198 30.2949 60.6091C35.8598 59.6926 32.8839 58.3948 37.2766 59.0779C41.6694 59.7609 41.3905 64.6391 38.5114 64.8839V64.8782Z" fill="#222222"/>
<path d="M36.4063 83.8848L37.5898 89.1045" stroke="#222222" stroke-width="0.284931" stroke-miterlimit="10" stroke-linecap="round"/>
<path d="M49.8681 84.6421L38.3628 83.885C38.1068 83.8679 37.8678 84.033 37.7995 84.2835L32.7524 102.311C32.6557 102.647 32.9004 102.982 33.2475 103.005L44.7698 103.7C45.0259 103.717 45.2592 103.552 45.3331 103.301L50.3631 85.3365C50.4599 85.0007 50.2209 84.6648 49.8738 84.6421H49.8681Z" fill="#222222"/>
<path d="M23.0979 89.1953L22.8987 92.309L34.0853 92.5423C34.0853 92.5423 34.4097 90.8916 35.3258 90.1117C36.2419 89.3319 36.6459 89.3945 36.7028 89.7019C36.7597 90.0093 35.8151 91.068 36.0313 91.6088C36.1224 92.9579 40.5151 89.4572 40.6972 90.3395C41.0955 90.6525 40.3102 91.4779 40.3102 91.4779C40.7825 91.5177 41.2377 92.3203 40.6403 92.6334C41.1296 92.7871 41.1069 93.7946 40.6004 93.9142C41.8067 95.0469 37.5847 97.7336 34.3983 95.6275C34.3983 95.6275 20.8787 97.5742 19.8033 96.6464C18.7336 95.7129 18.6938 90.533 18.6938 90.533L23.1035 89.2067L23.0979 89.1953Z" fill="#FFBFA9"/>
<path d="M24.3594 81.4883L23.7107 90.8463L18.106 91.6489C17.9069 91.6716 18.6067 90.0266 18.6636 89.8331L19.5171 87.9432L24.3537 81.4883H24.3594Z" fill="#EAEAEA"/>
<path d="M49.2255 93.9779C49.4304 93.3176 49.4588 92.3443 48.8158 91.9686C47.5526 91.2343 47.2568 90.9269 46.8073 91.1717C46.3691 91.4164 46.8186 92.0653 46.8186 92.0653C46.3407 92.0426 45.8001 92.7882 46.352 93.1696C45.8456 93.2607 45.7489 94.2682 46.2382 94.4447C45.527 94.9684 46.2951 96.1694 47.8542 96.2833C48.8955 96.3573 49.0491 94.5301 49.2255 93.9779Z" fill="#FFBFA9"/>
<path d="M22.897 92.189L24.3594 84.0605" stroke="#222222" stroke-width="0.284931" stroke-miterlimit="10" stroke-linecap="round"/>
<path d="M36.8164 103.7L23.8488 103.443" stroke="#222222" stroke-width="0.284931" stroke-miterlimit="10" stroke-linecap="round"/>
<path d="M1.20898 162.887H221.209" stroke="#222222" stroke-width="0.569862" stroke-miterlimit="10" stroke-linecap="round"/>
</svg>
