<svg width="222" height="198" viewBox="0 0 222 198" fill="none" xmlns="http://www.w3.org/2000/svg">
<path d="M54.8221 121.718L61.6752 123.509L63.1814 119.299C65.2984 119.383 67.3731 119.082 69.3389 118.454L71.9278 122.11L78.0369 118.545L76.1134 114.504C77.6256 113.104 78.9019 111.452 79.8697 109.57L84.2913 110.324L86.0878 103.49L81.8658 101.988C81.9444 99.8827 81.648 97.8078 81.019 95.8474L84.6784 93.2659L81.1097 87.1738L77.057 89.0919C75.6537 87.5839 73.9964 86.3112 72.1092 85.3462L72.8653 80.9369L66.0121 79.1455L64.506 83.3557C62.395 83.2773 60.3143 83.5728 58.3484 84.2001L55.7596 80.5509L49.6504 84.1157L51.5739 88.157C50.0617 89.5563 48.7855 91.2151 47.8177 93.0909L43.3961 92.337L41.5996 99.1709L45.8216 100.673C45.7369 102.784 46.0394 104.853 46.6684 106.813L43.009 109.395L46.5837 115.487L50.6364 113.569C52.0397 115.077 53.7031 116.349 55.5842 117.314L54.8281 121.724L54.8221 121.718ZM51.4771 98.0913C53.2675 91.2814 60.2598 87.2039 67.0888 88.9893C73.9178 90.7747 78.0067 97.7474 76.2102 104.557C74.4198 111.367 67.4336 115.445 60.5986 113.659C53.7696 111.874 49.6807 104.901 51.4711 98.0913H51.4771Z" fill="#FF5225"/>
<path d="M64.8457 81.9558L65.9163 78.958L71.0879 80.3091L71.0093 80.6107L66.1159 79.332L65.1421 82.0583L64.8457 81.9558Z" fill="#101C3A"/>
<path d="M43.3711 92.4815L43.4255 92.1739L47.7262 92.9098C48.7121 90.7625 50.4299 89.0796 50.4481 89.0615L50.6658 89.2847C50.6658 89.2847 48.9117 91.0098 47.962 93.1511L47.9137 93.2596L43.3711 92.4815Z" fill="#101C3A"/>
<path d="M53.3945 108.936L53.6425 108.749C59.7457 116.717 68.4134 113.074 68.4981 113.038L68.6251 113.321C68.5344 113.357 59.6489 117.097 53.3945 108.936Z" fill="#101C3A"/>
<path d="M65.9336 119.075C67.7724 118.773 69.2785 118.309 69.2906 118.303L69.3995 118.267L70.3491 119.606L70.0951 119.787L69.2785 118.629C68.8975 118.743 67.5607 119.117 65.988 119.376L65.9396 119.069L65.9336 119.075Z" fill="#101C3A"/>
<path d="M41.9922 101.077L43.8612 93.9654L48.307 94.7254C48.5853 94.1826 49.922 91.6733 51.9604 89.9181L50.0309 85.8527L56.3881 82.1432L58.9951 85.8165C59.5455 85.6356 62.0194 84.8816 64.9893 84.9962L66.5075 80.7559L73.6389 82.6197L72.8768 87.059C73.4575 87.3606 76.2822 88.8927 77.7037 90.7022L81.7744 88.7781L85.4944 95.1175L81.8168 97.7111C82.0285 98.2359 82.8088 100.456 82.6333 103.689L86.8856 105.203L85.0165 112.314L80.5707 111.554C80.2925 112.103 78.9316 114.666 76.9173 116.361L78.8469 120.421L72.4836 124.13L69.8827 120.457C69.3383 120.656 66.9188 121.458 63.8885 121.277L62.3702 125.518L55.2388 123.654L56.001 119.22C55.4687 118.967 53.152 117.791 51.1801 115.571L47.1033 117.501L43.3834 111.162L47.061 108.568C46.8432 108.025 45.9904 105.679 46.2384 102.591L41.9922 101.077ZM44.0911 94.3152L42.3672 100.878L46.571 102.374L46.5589 102.494C46.2444 105.993 47.3816 108.532 47.3937 108.556L47.4481 108.671L43.7947 111.246L47.2243 117.097L51.2527 115.191L51.3314 115.282C53.521 117.797 56.2006 118.979 56.2248 118.991L56.3336 119.039L55.5775 123.431L62.1585 125.15L63.6586 120.958H63.7735C67.1971 121.193 69.8404 120.143 69.8646 120.131L69.9795 120.083L72.5562 123.72L78.4235 120.3L76.5121 116.277L76.6089 116.198C78.8711 114.353 80.3106 111.343 80.3288 111.313L80.3772 111.204L84.7746 111.958L86.4985 105.396L82.2946 103.9V103.785C82.5245 100.148 81.4781 97.7413 81.466 97.7172L81.4176 97.6026L85.071 95.027L81.6414 89.1762L77.6008 91.0883L77.5222 90.9857C76.0463 89.0194 72.6591 87.3003 72.6228 87.2822L72.5199 87.2279L73.276 82.8428L66.695 81.1238L65.195 85.3098H65.08C61.7351 85.147 59.0072 86.1302 58.983 86.1422L58.8741 86.1844L56.2973 82.5533L50.4301 85.9733L52.3415 89.9965L52.2508 90.0749C49.9644 91.9991 48.5429 94.9305 48.5308 94.9607L48.4824 95.0632L44.085 94.3092L44.0911 94.3152Z" fill="#101C3A"/>
<path d="M51.4952 103.664C51.2049 96.5466 56.7818 90.5269 63.9132 90.2374C71.0506 89.9478 77.0872 95.5091 77.3776 102.621C77.6679 109.738 72.0971 115.758 64.9596 116.047C57.8222 116.337 51.7856 110.782 51.4952 103.664ZM77.0691 102.639C76.7909 95.6961 70.8934 90.2736 63.9313 90.551C56.9693 90.8285 51.5315 96.7094 51.8098 103.652C52.088 110.595 57.9855 116.017 64.9475 115.74C71.9096 115.462 77.3473 109.581 77.0691 102.639Z" fill="#101C3A"/>
<path d="M21.1315 149.668L25.8918 150.911L26.9383 147.985C28.4141 148.039 29.8537 147.834 31.2147 147.4L33.0111 149.939L37.2573 147.46L35.9206 144.65C36.973 143.678 37.8561 142.526 38.5336 141.217L41.6063 141.742L42.8524 136.989L39.9188 135.946C39.9732 134.48 39.7675 133.038 39.332 131.681L41.8785 129.89L39.3986 125.656L36.5799 126.989C35.606 125.939 34.4507 125.052 33.1382 124.383L33.6644 121.319L28.898 120.076L27.8516 123.002C26.3818 122.947 24.9361 123.152 23.5752 123.587L21.7787 121.047L17.5325 123.52L18.8693 126.331C17.8168 127.302 16.9277 128.46 16.2563 129.763L13.1835 129.238L11.9375 133.991L14.8711 135.035C14.8167 136.507 15.0223 137.942 15.4578 139.299L12.9113 141.091L15.3913 145.325L18.21 143.992C19.1838 145.042 20.3452 145.928 21.6517 146.598L21.1255 149.662L21.1315 149.668ZM18.8088 133.25C20.0548 128.515 24.9119 125.686 29.6602 126.922C34.4084 128.165 37.2452 133.008 35.9992 137.743C34.7532 142.478 29.8961 145.307 25.1478 144.071C20.3996 142.828 17.5628 137.984 18.8028 133.25H18.8088Z" fill="black"/>
<path d="M28.0938 122.03L28.8438 119.943L32.4307 120.884L32.3762 121.095L28.9769 120.209L28.2994 122.103L28.0938 122.03Z" fill="#101C3A"/>
<path d="M13.1721 129.347L13.2084 129.136L16.1964 129.649C16.8799 128.159 18.0776 126.983 18.0897 126.971L18.2409 127.128C18.2409 127.128 17.0251 128.322 16.3597 129.812L16.3234 129.89L13.166 129.353L13.1721 129.347Z" fill="#101C3A"/>
<path d="M20.1387 140.783L20.3141 140.65C24.5603 146.188 30.5787 143.66 30.6392 143.63L30.7239 143.829C30.6634 143.853 24.4816 146.453 20.1387 140.783Z" fill="#101C3A"/>
<path d="M28.8555 147.834C30.1317 147.623 31.1782 147.298 31.1903 147.298L31.2628 147.273L31.9222 148.208L31.7467 148.335L31.1782 147.533C30.912 147.611 29.9866 147.871 28.8918 148.052L28.8555 147.84V147.834Z" fill="#101C3A"/>
<path d="M12.209 135.324L13.5094 130.378L16.6003 130.909C16.7939 130.535 17.7254 128.792 19.1408 127.568L17.798 124.745L22.2196 122.169L24.0281 124.721C24.4092 124.594 26.127 124.069 28.1896 124.148L29.2482 121.204L34.202 122.501L33.6697 125.583C34.075 125.794 36.0408 126.856 37.0268 128.116L39.8576 126.777L42.4403 131.187L39.8818 132.99C40.0269 133.358 40.5713 134.896 40.4503 137.146L43.4021 138.196L42.1016 143.142L39.0107 142.611C38.8172 142.991 37.8736 144.776 36.4703 145.952L37.8131 148.775L33.3915 151.351L31.5829 148.799C31.2019 148.938 29.5264 149.493 27.4154 149.366L26.3629 152.31L21.4091 151.013L21.9413 147.931C21.5724 147.756 19.9574 146.936 18.5904 145.391L15.7596 146.731L13.1768 142.321L15.7354 140.518C15.5842 140.138 14.9914 138.509 15.1668 136.362L12.215 135.312L12.209 135.324ZM13.6667 130.626L12.4691 135.186L15.3906 136.223V136.308C15.1668 138.738 15.9531 140.506 15.9652 140.524L16.0015 140.602L13.4611 142.394L15.8442 146.459L18.6448 145.132L18.6992 145.192C20.2235 146.942 22.0865 147.762 22.1046 147.768L22.1833 147.804L21.657 150.856L26.2299 152.051L27.2702 149.137H27.3489C29.732 149.3 31.5648 148.57 31.5829 148.564L31.6616 148.534L33.452 151.061L37.5288 148.685L36.1981 145.886L36.2646 145.832C37.8373 144.547 38.8414 142.46 38.8474 142.436L38.8837 142.364L41.9383 142.888L43.136 138.328L40.2144 137.291V137.212C40.3717 134.685 39.6459 133.008 39.6398 132.99L39.6035 132.912L42.144 131.126L39.7608 127.061L36.9542 128.388L36.8998 128.316C35.8715 126.952 33.5185 125.752 33.4943 125.74L33.4218 125.704L33.948 122.658L29.3752 121.463L28.3348 124.371H28.2562C25.9335 124.262 24.0342 124.938 24.016 124.95L23.9374 124.98L22.147 122.453L18.0702 124.829L19.4009 127.622L19.3404 127.676C17.7496 129.015 16.7637 131.054 16.7576 131.072L16.7213 131.144L13.6667 130.62V130.626Z" fill="#101C3A"/>
<path d="M18.814 137.122C18.6144 132.176 22.4856 127.99 27.4455 127.791C32.4054 127.592 36.6032 131.452 36.8028 136.398C37.0024 141.344 33.1313 145.53 28.1714 145.729C23.2114 145.928 19.0136 142.068 18.814 137.122ZM36.5851 136.41C36.3915 131.585 32.2905 127.815 27.4516 128.008C22.6126 128.201 18.8322 132.284 19.0257 137.116C19.2193 141.941 23.3203 145.711 28.1593 145.518C32.9982 145.325 36.7786 141.235 36.5851 136.41Z" fill="#101C3A"/>
<path d="M71.6794 35.1772C74.0719 32.8571 74.1253 29.0421 71.7987 26.6563C69.472 24.2705 65.6464 24.2172 63.2539 26.5374C60.8614 28.8575 60.808 32.6724 63.1346 35.0582C65.4612 37.444 69.2868 37.4973 71.6794 35.1772Z" fill="black"/>
<path d="M68.4574 36.0961C65.0822 36.0961 62.3301 33.3577 62.3301 29.992C62.3301 26.6263 65.0762 23.8818 68.4574 23.8818C71.8386 23.8818 74.5787 26.6203 74.5787 29.992C74.5787 33.3638 71.8326 36.0961 68.4574 36.0961ZM68.4574 24.0447C65.173 24.0447 62.4994 26.7107 62.4994 29.986C62.4994 33.2612 65.173 35.9273 68.4574 35.9273C71.7418 35.9273 74.4154 33.2612 74.4154 29.986C74.4154 26.7107 71.7418 24.0447 68.4574 24.0447Z" fill="#101C3A"/>
<path d="M139.945 19.69C138.838 19.0988 138.421 17.7176 139.014 16.6138C139.613 15.51 140.992 15.0938 142.099 15.6849C143.205 16.276 143.623 17.6573 143.03 18.7611C142.437 19.8649 141.052 20.2811 139.945 19.69Z" fill="#FF5225"/>
<path d="M35.8717 54.5354L32.8534 50.3916L32.5873 50.5665C32.2425 50.8199 31.9159 51.1214 31.6135 51.5135C31.2203 52.0202 30.9481 52.5932 30.7969 53.1843L35.8717 54.5354Z" fill="#ACACAC"/>
<path d="M207.541 74.555C206.657 74.1388 206.282 73.0892 206.7 72.2086C207.117 71.328 208.17 70.954 209.053 71.3702C209.936 71.7864 210.311 72.8359 209.893 73.7165C209.476 74.5972 208.424 74.9712 207.541 74.555Z" fill="black"/>
<path d="M46.2344 182.203L46.3916 180.448C46.4098 180.255 46.5791 180.11 46.7788 180.128C46.9723 180.147 47.1175 180.315 47.0993 180.515V180.527L46.936 182.258V182.27C46.9179 182.463 46.7485 182.602 46.555 182.583C46.3614 182.565 46.2223 182.396 46.2404 182.203H46.2344Z" fill="#101C3A"/>
<path d="M47.2681 174.826C47.504 173.662 47.7822 172.51 48.0907 171.364C48.1452 171.165 48.3508 171.05 48.5444 171.104C48.744 171.159 48.8589 171.364 48.8045 171.557C48.496 172.685 48.2177 173.825 47.9758 174.971C47.9335 175.17 47.7399 175.296 47.5463 175.254C47.3467 175.212 47.2197 175.025 47.262 174.826H47.2681Z" fill="#101C3A"/>
<path d="M49.8646 165.954C50.2941 164.85 50.7599 163.752 51.2679 162.678C51.3587 162.485 51.5885 162.401 51.7821 162.491C51.9756 162.582 52.0603 162.811 51.9696 163.004C51.4675 164.06 51.0018 165.133 50.5723 166.225C50.4937 166.418 50.276 166.515 50.0763 166.442C49.8828 166.364 49.78 166.147 49.8586 165.948L49.8646 165.954Z" fill="#101C3A"/>
<path d="M54.0248 157.684C54.666 156.683 55.3555 155.706 56.0935 154.771C56.2326 154.596 56.4867 154.566 56.6621 154.704C56.8375 154.843 56.8677 155.096 56.7286 155.271C56.0028 156.188 55.3253 157.135 54.6902 158.118C54.5692 158.305 54.3273 158.354 54.1398 158.239C53.9523 158.118 53.9039 157.877 54.0188 157.69L54.0248 157.684Z" fill="#101C3A"/>
<path d="M60.0503 150.615C60.9637 149.837 61.9375 149.125 62.9779 148.51C63.1775 148.389 63.4376 148.455 63.5586 148.654C63.6796 148.853 63.613 149.113 63.4134 149.233C62.4214 149.818 61.4778 150.5 60.5947 151.248C60.4193 151.399 60.1592 151.375 60.008 151.2C59.8568 151.025 59.881 150.765 60.0564 150.615H60.0503Z" fill="#101C3A"/>
<path d="M68.4331 146.525C69.6489 146.363 70.8949 146.387 72.1047 146.622C72.3406 146.67 72.4978 146.899 72.4495 147.135C72.4011 147.37 72.1712 147.527 71.9353 147.478C70.8224 147.255 69.6792 147.225 68.548 147.376C68.3121 147.406 68.0944 147.243 68.0642 147.002C68.0339 146.767 68.1972 146.549 68.4331 146.519V146.525Z" fill="#101C3A"/>
<path d="M77.3675 149.125C77.8454 149.499 78.299 149.909 78.7285 150.331C79.1579 150.759 79.545 151.212 79.9564 151.652C80.1257 151.833 80.1197 152.122 79.9322 152.291C79.7446 152.46 79.4604 152.454 79.291 152.267L79.2668 152.237C78.8736 151.815 78.4986 151.375 78.0934 150.964C77.6881 150.56 77.2586 150.174 76.811 149.818C76.6175 149.662 76.5872 149.384 76.7384 149.191C76.8957 148.998 77.174 148.962 77.3675 149.119V149.125Z" fill="#101C3A"/>
<path d="M82.8298 156.719C83.1443 157.926 83.1504 159.253 82.7391 160.465C82.6544 160.718 82.3882 160.845 82.1403 160.767C81.8923 160.682 81.7592 160.417 81.8439 160.169C82.1947 159.144 82.1947 158.016 81.9225 156.948C81.862 156.701 82.0132 156.448 82.2612 156.381C82.5092 156.321 82.7633 156.472 82.8298 156.719Z" fill="#101C3A"/>
<path d="M78.8494 164.868C77.7969 165.495 76.6719 165.971 75.5226 166.351C75.2686 166.436 74.9903 166.297 74.9056 166.044C74.821 165.791 74.9601 165.513 75.2202 165.429C76.315 165.073 77.3795 164.62 78.3594 164.047C78.5893 163.909 78.8857 163.987 79.0188 164.216C79.1579 164.445 79.0792 164.741 78.8494 164.874V164.868Z" fill="#101C3A"/>
<path d="M69.8476 167.455C68.65 167.552 67.4402 167.57 66.2426 167.509C65.9643 167.497 65.7466 167.256 65.7647 166.979C65.7829 166.701 66.0188 166.484 66.297 166.502C67.4523 166.562 68.6197 166.55 69.775 166.466C70.0533 166.448 70.2892 166.653 70.3133 166.924C70.3315 167.202 70.1319 167.437 69.8537 167.461L69.8476 167.455Z" fill="#101C3A"/>
<path d="M60.5402 166.574C59.3789 166.236 58.2417 165.796 57.159 165.229C56.905 165.096 56.8021 164.777 56.9413 164.523C57.0743 164.27 57.3949 164.168 57.6489 164.306C58.6591 164.843 59.7297 165.259 60.8366 165.585C61.1088 165.663 61.2661 165.953 61.1874 166.224C61.1088 166.496 60.8185 166.653 60.5463 166.574H60.5402Z" fill="#101C3A"/>
<path d="M52.7068 161.406C52.0051 160.374 51.5152 159.192 51.2672 157.974C51.2067 157.684 51.3942 157.395 51.6906 157.34C51.9809 157.28 52.2713 157.467 52.3257 157.763C52.5435 158.854 52.9729 159.898 53.5899 160.821C53.7532 161.068 53.6867 161.394 53.4447 161.563C53.2028 161.725 52.8701 161.659 52.7068 161.418V161.406Z" fill="#101C3A"/>
<path d="M51.6051 152.122C51.9318 150.952 52.3794 149.818 52.8935 148.732C53.0266 148.455 53.3593 148.334 53.6375 148.467C53.9158 148.6 54.0367 148.932 53.9036 149.209C53.4077 150.253 52.9782 151.32 52.6697 152.418C52.585 152.707 52.2826 152.882 51.9923 152.798C51.7019 152.713 51.5265 152.412 51.6112 152.122H51.6051Z" fill="#101C3A"/>
<path d="M55.8331 143.793C56.5529 142.84 57.2425 141.863 58.0046 140.952C58.2042 140.705 58.5671 140.668 58.8151 140.867C59.0571 141.067 59.0934 141.428 58.8937 141.676C58.1437 142.574 57.4723 143.521 56.7586 144.45L56.7344 144.48C56.5469 144.728 56.19 144.776 55.9359 144.589C55.6879 144.402 55.6396 144.046 55.8271 143.799L55.8331 143.793Z" fill="#101C3A"/>
<path d="M61.8404 136.705C62.6811 135.861 63.5521 135.047 64.4534 134.263C64.6953 134.045 65.0704 134.07 65.2821 134.317C65.4938 134.564 65.4756 134.932 65.2276 135.149C64.3506 135.915 63.4917 136.711 62.663 137.538C62.4331 137.767 62.0642 137.767 61.8404 137.538C61.6105 137.309 61.6105 136.941 61.8404 136.717V136.705Z" fill="#101C3A"/>
<path d="M68.953 130.722C69.9328 130.034 70.9309 129.383 71.9531 128.767C72.2374 128.592 72.6124 128.689 72.7818 128.972C72.9572 129.256 72.8604 129.63 72.5761 129.799C71.5781 130.402 70.5922 131.035 69.6365 131.699C69.3643 131.886 68.9953 131.819 68.8017 131.554C68.6142 131.283 68.6747 130.915 68.9469 130.722H68.953Z" fill="#101C3A"/>
<path d="M77.0233 126.083C78.1121 125.582 79.213 125.124 80.338 124.708C80.6586 124.587 81.0155 124.75 81.1364 125.07C81.2574 125.389 81.0941 125.745 80.7735 125.866C79.6787 126.27 78.602 126.716 77.5375 127.199C77.229 127.338 76.8661 127.199 76.7269 126.897C76.5878 126.59 76.7209 126.228 77.0294 126.089L77.0233 126.083Z" fill="#101C3A"/>
<path d="M85.8166 123.007C86.978 122.723 88.1514 122.476 89.3309 122.277C89.6757 122.217 90.0023 122.452 90.0628 122.796C90.1233 123.14 89.8874 123.465 89.5426 123.526C88.3934 123.719 87.2502 123.948 86.1191 124.225C85.7803 124.31 85.4416 124.099 85.3569 123.767C85.2723 123.429 85.4779 123.091 85.8166 123.013V123.007Z" fill="#101C3A"/>
<path d="M95.0469 121.674C96.2445 121.626 97.4421 121.62 98.6458 121.668C99.0027 121.68 99.2809 121.982 99.2688 122.344C99.2567 122.7 98.9543 122.977 98.5974 122.965C97.4361 122.917 96.2687 122.917 95.1073 122.965C94.7505 122.977 94.4541 122.706 94.4359 122.35C94.4238 121.994 94.696 121.698 95.0529 121.68L95.0469 121.674Z" fill="#101C3A"/>
<path d="M104.369 122.296C105.555 122.513 106.728 122.79 107.883 123.128C108.234 123.23 108.434 123.598 108.331 123.948C108.228 124.298 107.859 124.503 107.508 124.395C106.401 124.063 105.27 123.797 104.133 123.58C103.776 123.514 103.54 123.17 103.607 122.814C103.673 122.458 104.018 122.223 104.375 122.29L104.369 122.296Z" fill="#101C3A"/>
<path d="M113.26 125.281C114.336 125.842 115.371 126.481 116.35 127.211C116.653 127.434 116.713 127.857 116.49 128.158C116.266 128.46 115.842 128.52 115.54 128.297C114.627 127.615 113.653 127.006 112.637 126.469C112.31 126.294 112.183 125.89 112.358 125.558C112.534 125.233 112.939 125.106 113.266 125.281H113.26Z" fill="#101C3A"/>
<path d="M120.459 131.398C121.154 132.417 121.729 133.527 122.14 134.703C122.267 135.065 122.074 135.457 121.717 135.584C121.354 135.711 120.961 135.518 120.834 135.156C120.471 134.1 119.957 133.099 119.322 132.17C119.11 131.856 119.189 131.428 119.503 131.217C119.818 131.006 120.247 131.084 120.459 131.398Z" fill="#101C3A"/>
<path d="M122.805 140.578C122.678 141.809 122.393 143.015 122 144.173C121.873 144.541 121.474 144.74 121.099 144.613C120.73 144.487 120.53 144.083 120.657 143.715C121.026 142.641 121.286 141.543 121.407 140.427C121.45 140.041 121.795 139.764 122.182 139.806C122.569 139.848 122.847 140.192 122.805 140.578Z" fill="#101C3A"/>
<path d="M119.4 149.385C118.728 150.398 117.978 151.369 117.119 152.256C116.841 152.539 116.381 152.551 116.097 152.274C115.813 151.996 115.801 151.538 116.079 151.254C116.865 150.446 117.567 149.547 118.202 148.6C118.42 148.269 118.867 148.178 119.194 148.395C119.527 148.613 119.617 149.053 119.4 149.385Z" fill="#101C3A"/>
<path d="M112.189 155.567C111.009 156.013 109.751 156.261 108.493 156.303C108.088 156.315 107.743 156.001 107.731 155.597C107.719 155.193 108.033 154.849 108.438 154.837C109.545 154.801 110.634 154.59 111.668 154.204C112.05 154.065 112.467 154.252 112.612 154.632C112.751 155.012 112.564 155.428 112.183 155.567H112.189Z" fill="#101C3A"/>
<path d="M102.657 155.163C101.52 154.687 100.437 154.083 99.4209 153.402C99.0761 153.173 98.9854 152.708 99.2213 152.364C99.4511 152.02 99.9169 151.93 100.262 152.165C101.205 152.805 102.197 153.36 103.232 153.8C103.613 153.957 103.788 154.397 103.625 154.771C103.461 155.151 103.026 155.326 102.651 155.169L102.657 155.163Z" fill="#101C3A"/>
<path d="M95.0352 149.56C94.2186 148.661 93.4625 147.714 92.7669 146.725C92.525 146.381 92.6096 145.904 92.9544 145.663C93.2992 145.422 93.777 145.506 94.019 145.85C94.6783 146.791 95.3921 147.696 96.1602 148.546C96.4385 148.854 96.4143 149.336 96.1058 149.614C95.7973 149.891 95.3195 149.867 95.0352 149.56Z" fill="#101C3A"/>
<path d="M89.8939 141.694C89.3919 140.596 88.9564 139.468 88.5814 138.316C88.4483 137.912 88.6721 137.472 89.0834 137.339C89.4887 137.206 89.9302 137.43 90.0633 137.84C90.4141 138.937 90.8315 140.011 91.3033 141.055C91.4787 141.441 91.3033 141.899 90.9161 142.074C90.529 142.249 90.0693 142.074 89.8939 141.694Z" fill="#101C3A"/>
<path d="M87.3177 132.658C87.1665 131.458 87.0939 130.246 87.1 129.033C87.1 128.599 87.4568 128.249 87.8923 128.249C88.3278 128.249 88.6787 128.605 88.6787 129.039C88.6666 130.185 88.7331 131.331 88.8722 132.465C88.9267 132.893 88.6182 133.286 88.1887 133.334C87.7593 133.382 87.3661 133.08 87.3177 132.652V132.658Z" fill="#101C3A"/>
<path d="M87.764 123.255C88.0362 122.073 88.3931 120.902 88.8286 119.768C88.9858 119.358 89.4516 119.147 89.8689 119.31C90.2803 119.467 90.492 119.931 90.3286 120.347C89.9173 121.415 89.5786 122.507 89.3185 123.617C89.2217 124.045 88.7923 124.31 88.3628 124.214C87.9334 124.117 87.6672 123.689 87.764 123.261V123.255Z" fill="#101C3A"/>
<path d="M91.5324 114.606C92.2099 113.598 92.9599 112.633 93.7644 111.728C94.0608 111.391 94.581 111.36 94.9197 111.656C95.2584 111.952 95.2887 112.47 94.9923 112.808C94.2301 113.665 93.5285 114.569 92.8813 115.516C92.6272 115.884 92.1252 115.981 91.7562 115.733C91.3873 115.48 91.2844 114.979 91.5385 114.612L91.5324 114.606Z" fill="#101C3A"/>
<path d="M97.9931 107.753C98.9427 107.005 99.9347 106.311 100.951 105.66C101.338 105.413 101.852 105.527 102.1 105.913C102.348 106.299 102.233 106.812 101.846 107.053C100.872 107.675 99.9226 108.338 99.0153 109.044C98.6584 109.321 98.1383 109.261 97.86 108.905C97.5818 108.549 97.6423 108.03 97.9991 107.753H97.9931Z" fill="#101C3A"/>
<path d="M106.019 102.885L107.646 102.155C108.07 101.968 108.566 102.155 108.759 102.578C108.947 103 108.759 103.495 108.336 103.688L108.312 103.7L106.733 104.399L106.709 104.411C106.285 104.598 105.789 104.411 105.602 103.989C105.414 103.567 105.602 103.072 106.025 102.885H106.019Z" fill="#101C3A"/>
<path d="M130.37 97.3788C136.576 92.5173 136.987 87.336 134.072 83.6325C131.15 79.929 126.009 79.1087 119.803 83.9703C113.597 88.8319 113.857 99.4779 113.857 99.4779C113.857 99.4779 124.17 102.24 130.376 97.3788H130.37Z" fill="#FF5225"/>
<path d="M131.531 94.0072C136.104 90.4183 136.328 86.4916 134.072 83.6326C131.816 80.7735 127.938 80.0618 123.36 83.6446C118.787 87.2275 119.162 95.3161 119.162 95.3161C119.162 95.3161 126.952 97.5901 131.531 94.0072Z" fill="#101C3A"/>
<path d="M206.854 25.541C206.854 25.541 198.102 27.2721 187.922 30.1975C188.98 32.7007 190.341 35.1255 192.108 37.3271C193.88 39.5347 195.93 41.4045 198.144 42.9849C203.249 33.702 206.872 25.5531 206.872 25.5531L206.86 25.541H206.854Z" fill="#FF5225"/>
<path d="M147.506 41.042C147.506 41.042 144.56 41.7658 141.021 42.6706C141.427 43.5753 141.711 44.4801 142.364 45.2884C143.012 46.0966 143.665 46.3861 144.463 46.9833C146.133 43.7442 147.512 41.048 147.512 41.048L147.506 41.042Z" fill="#FF5225"/>
<path d="M150.82 79.1028C151.201 83.892 152.163 95.6721 152.466 97.4514L162.754 89.2603L167.569 65.7666L150.82 79.0968V79.1028Z" fill="#ACACAC"/>
<path d="M175.536 85.6529C174.931 85.2246 174.356 84.7481 173.902 84.145C173.455 83.5418 172.644 81.871 172.777 81.5332C172.753 81.5453 172.723 81.5513 172.699 81.5634C172.699 81.5634 172.693 81.5634 172.687 81.5634C168.894 82.9507 164.793 84.6697 162.676 86.25C160.746 87.6916 156.736 91.1599 153.669 93.838C152.587 94.785 151.885 95.9551 151.619 97.1132C151.359 98.2713 151.534 99.4174 152.2 100.304C153.53 102.083 156.397 102.27 158.835 100.738C162.277 98.5609 166.753 95.7139 168.688 94.2723C170.812 92.692 173.636 89.2418 176.056 86.0027C175.88 85.8881 175.705 85.7796 175.529 85.6529H175.536Z" fill="black"/>
<path d="M127.684 76.9009L139.176 91.2626C141.577 89.5556 152.913 82.1546 161.423 76.2616L147.287 58.6006C139.636 65.5673 129.885 74.9466 127.684 76.907V76.9009Z" fill="#ACACAC"/>
<path d="M127.442 76.883C126.505 77.2027 124.624 77.7636 122.948 78.3728C122.458 78.5538 122.289 79.1569 122.615 79.5671L135.445 95.5995C135.771 96.0097 136.4 95.9735 136.685 95.5392C137.653 94.0494 138.62 92.3424 139.141 91.504C139.31 91.2325 139.292 90.8827 139.086 90.6293L128.283 77.1363C128.083 76.883 127.745 76.7865 127.442 76.889V76.883Z" fill="black"/>
<path d="M124.484 62.4665C126.16 63.1541 137.465 66.7008 142.062 68.1364L158.811 54.8062L134.773 54.2754L124.484 62.4665Z" fill="#ACACAC"/>
<path d="M135.71 82.2692C133.338 79.3016 132.473 75.5559 133.03 71.8946C133.344 69.8558 134.095 67.8412 135.274 66.0076C135.939 64.9701 136.738 63.993 137.669 63.1003C140.47 60.4101 143.579 57.4365 146.652 54.5412C148.563 52.7377 150.456 50.9704 152.253 49.3117C153.886 47.8098 155.434 46.4044 156.838 45.1618C158.386 43.7926 159.759 42.6225 160.872 41.7358C166.77 37.037 178.123 33.0018 188.073 30.1367V30.1488C189.144 32.6339 190.511 35.0405 192.265 37.2301C194.013 39.4075 196.021 41.2774 198.199 42.8637C198.217 42.8818 198.235 42.8939 198.259 42.906C194.666 49.3961 190.317 56.4533 185.974 61.6527C184.268 63.6974 182.563 65.4527 180.899 66.7797C177.742 69.2949 171.917 73.3 165.765 77.4136C165.536 77.5644 165.312 77.7152 165.082 77.866C161.622 80.1762 158.084 82.5044 154.878 84.5975C153.765 85.3273 152.597 85.9003 151.4 86.3225C149.374 87.0403 147.269 87.3118 145.236 87.167C145 87.1489 144.77 87.1308 144.535 87.1006C141.105 86.6784 137.917 85.0378 135.697 82.2632L135.71 82.2692Z" fill="black"/>
<path d="M137.326 55.4103C139.449 53.842 142.104 50.1988 144.53 46.9718C144.354 46.8572 144.185 46.7366 144.015 46.616C143.423 46.1817 142.872 45.675 142.419 45.0718C141.656 44.0585 141.239 42.4902 141.239 42.4902C137.428 43.8655 133.473 45.7896 131.343 47.3579C129.402 48.7874 125.385 52.2496 122.307 54.9157C120.135 56.7976 119.488 59.5903 120.819 61.3757C122.083 63.0766 124.738 63.336 127.097 62.0331C127.218 61.9668 127.333 61.9004 127.448 61.828C130.896 59.6687 135.384 56.8398 137.32 55.4042L137.326 55.4103Z" fill="black"/>
<path d="M179.116 80.1162C179.116 80.1162 176.158 80.8038 172.613 81.6724C173.006 82.5832 173.285 83.488 173.926 84.3023C174.567 85.1226 175.214 85.4181 176.007 86.0213C177.712 82.8003 179.122 80.1222 179.122 80.1222L179.116 80.1162Z" fill="#FF5225"/>
<path d="M157.83 71.4485C155.519 73.2942 152.144 72.9202 150.293 70.6161C148.442 68.3119 148.817 64.9462 151.128 63.1005C153.439 61.2548 156.814 61.6288 158.665 63.9329C160.516 66.237 160.141 69.6027 157.83 71.4485Z" fill="#101C3A"/>
<path d="M157.141 70.5861C155.308 72.0458 152.635 71.7503 151.165 69.9227C149.695 68.095 149.997 65.429 151.83 63.9633C153.663 62.5036 156.336 62.7991 157.806 64.6268C159.27 66.4544 158.974 69.1204 157.141 70.5861Z" fill="#D9D9D9"/>
<path d="M184.01 50.5608C181.699 52.4065 178.324 52.0325 176.473 49.7284C174.622 47.4242 174.997 44.0585 177.308 42.2128C179.618 40.3671 182.993 40.7411 184.844 43.0452C186.695 45.3493 186.32 48.715 184.01 50.5608Z" fill="#101C3A"/>
<path d="M183.314 49.6984C181.481 51.1581 178.808 50.8626 177.338 49.035C175.874 47.2073 176.171 44.5413 178.003 43.0756C179.836 41.6159 182.51 41.9114 183.979 43.7391C185.449 45.5667 185.147 48.2327 183.314 49.6984Z" fill="#D9D9D9"/>
<path d="M172.353 62.1409C169.274 64.6018 164.774 64.1012 162.306 61.031C159.838 57.9548 160.34 53.4732 163.419 51.0123C166.504 48.5513 170.998 49.052 173.466 52.1221C175.933 55.1983 175.431 59.6799 172.353 62.1409Z" fill="#101C3A"/>
<path d="M171.427 60.9888C168.983 62.9371 165.421 62.545 163.461 60.1082C161.507 57.6714 161.9 54.1187 164.344 52.1644C166.788 50.2161 170.35 50.6082 172.304 53.045C174.258 55.4819 173.865 59.0346 171.421 60.9888H171.427Z" fill="#D9D9D9"/>
</svg>
