<svg width="182" height="182" viewBox="0 0 182 182" fill="none" xmlns="http://www.w3.org/2000/svg">
<path d="M120.767 154.338H80.7867C78.3103 154.338 76.4799 152.331 76.6995 149.859L87.0272 31.8013C87.2426 29.3249 89.4261 27.3223 91.8982 27.3223H131.878C134.355 27.3223 136.181 29.3292 135.965 31.8013L125.638 149.859C125.422 152.336 123.239 154.338 120.767 154.338Z" fill="#FF5225"/>
<path opacity="0.4" d="M120.767 154.338H80.7867C78.3103 154.338 76.4799 152.331 76.6995 149.859L87.0272 31.8013C87.2426 29.3249 89.4261 27.3223 91.8982 27.3223H131.878C134.355 27.3223 136.181 29.3292 135.965 31.8013L125.638 149.859C125.422 152.336 123.239 154.338 120.767 154.338Z" fill="white"/>
<path d="M116.46 154.338H76.48C74.0036 154.338 72.1732 152.331 72.3929 149.859L82.7206 31.8013C82.9359 29.3249 85.1195 27.3223 87.5916 27.3223H127.572C130.048 27.3223 131.874 29.3292 131.659 31.8013L121.331 149.859C121.116 152.336 118.932 154.338 116.46 154.338Z" fill="#263238"/>
<path d="M116.46 154.338H76.48C74.0036 154.338 72.1732 152.331 72.3929 149.859L82.7206 31.8013C82.9359 29.3249 85.1195 27.3223 87.5916 27.3223H127.572C130.048 27.3223 131.874 29.3292 131.659 31.8013L121.331 149.859C121.116 152.336 118.932 154.338 116.46 154.338Z" fill="#263238"/>
<path opacity="0.4" d="M130.026 31.573L119.677 149.855C119.591 150.828 118.983 151.582 118.312 151.582H74.9765C74.3563 151.582 73.9515 150.889 74.029 149.997L84.4041 31.4309C84.473 30.6557 84.9252 29.9795 85.4636 29.9795H96.2952C96.601 29.9795 96.8551 30.268 96.9326 30.6815L97.2427 32.275C97.3202 32.6885 97.5743 32.9727 97.8801 32.9727H116.322C116.628 32.9727 116.929 32.7014 117.08 32.2879L117.67 30.6858C117.821 30.2724 118.122 29.9795 118.428 29.9795H129.104C129.694 29.9795 130.104 30.7203 130.026 31.573Z" fill="white"/>
<path d="M129.523 37.3701L120.643 138.86H75.0078L83.8841 37.3701H129.523Z" fill="#FF5225"/>
<path opacity="0.6" d="M89.1426 34.7464H89.7068L89.8015 33.6611H89.2373L89.1426 34.7464Z" fill="white"/>
<path opacity="0.6" d="M88.2246 34.7469H88.7888L88.9137 33.2998H88.3538L88.2246 34.7469Z" fill="white"/>
<path opacity="0.6" d="M87.3086 34.7473H87.8728L88.0278 32.9385H87.4679L87.3086 34.7473Z" fill="white"/>
<path opacity="0.6" d="M86.3906 34.7468H86.9505L87.1443 32.5762H86.5801L86.3906 34.7468Z" fill="white"/>
<path opacity="0.6" d="M124.623 34.3509H124.287L124.382 33.2656H124.718L124.623 34.3509Z" fill="white"/>
<path opacity="0.6" d="M124.816 34.7469H127.478L127.642 32.8691H124.98L124.816 34.7469Z" fill="white"/>
<path opacity="0.6" d="M107.331 30.1349C107.287 30.6345 106.973 31.0393 106.624 31.0393C106.275 31.0393 106.034 30.6345 106.077 30.1349C106.12 29.6353 106.435 29.2305 106.784 29.2305C107.132 29.2305 107.374 29.6353 107.331 30.1349Z" fill="#263238"/>
<path opacity="0.6" d="M108.598 30.1347C108.568 30.4534 108.37 30.7118 108.146 30.7118C107.922 30.7118 107.767 30.4534 107.797 30.1347C107.823 29.816 108.025 29.5576 108.249 29.5576C108.473 29.5576 108.628 29.816 108.598 30.1347Z" fill="#263238"/>
<path d="M129.517 37.3701L128.286 51.449L128.075 53.8781L127.088 65.1576L126.933 66.9105L125.534 82.9016L125.383 84.6545L124.039 100.008L123.845 102.218L120.641 138.86H75.002L83.8826 37.3701H129.517Z" fill="#263238"/>
<path opacity="0.5" d="M84.4437 68.7234C84.4911 68.7621 84.5471 68.7794 84.6074 68.7794C84.6935 68.7794 84.784 68.7406 84.8443 68.6631C84.9476 68.5382 84.9347 68.3616 84.8184 68.2712L84.0389 67.6596L84.9218 67.048C85.0553 66.9576 85.0984 66.781 85.0122 66.6561C84.9304 66.5312 84.7538 66.5054 84.6203 66.5958L83.4101 67.4356C83.3326 67.4873 83.2852 67.5735 83.2766 67.6639C83.268 67.7543 83.3067 67.8362 83.3713 67.8922L84.4437 68.7277V68.7234Z" fill="white"/>
<path opacity="0.5" d="M88.3539 67.6551L87.471 68.2667C87.3375 68.3571 87.2944 68.5337 87.3806 68.6586C87.4279 68.7318 87.5098 68.7749 87.6002 68.7749C87.6605 68.7749 87.7208 68.7576 87.7725 68.7189L88.9827 67.8791C89.0602 67.8274 89.1076 67.7412 89.1162 67.6508C89.1248 67.5604 89.0861 67.4785 89.0214 67.4225L87.9491 66.587C87.8328 66.4966 87.6519 66.5224 87.5485 66.6473C87.4452 66.7722 87.4581 66.9488 87.5744 67.0392L88.3539 67.6508V67.6551Z" fill="white"/>
<path opacity="0.5" d="M85.7098 68.7615C85.7399 68.7745 85.7701 68.7788 85.8045 68.7788C85.9208 68.7788 86.0371 68.7056 86.0888 68.5893L86.8253 66.9096C86.8899 66.7632 86.8253 66.6038 86.6831 66.5522C86.541 66.5005 86.373 66.578 86.3084 66.7244L85.572 68.4041C85.5074 68.5505 85.572 68.7099 85.7141 68.7615H85.7098Z" fill="white"/>
<path opacity="0.5" d="M90.4142 68.8695H91.9044C92.1111 68.8695 92.2963 68.7015 92.3135 68.4948C92.3307 68.2881 92.1757 68.1201 91.969 68.1201H90.4788C90.2721 68.1201 90.0869 68.2881 90.0697 68.4948C90.0524 68.7015 90.2075 68.8695 90.4142 68.8695Z" fill="white"/>
<path d="M95.6719 78.5983C95.6891 78.3916 95.5341 78.2236 95.3274 78.2236H82.4026C82.1959 78.2236 82.0107 78.3916 81.9935 78.5983C81.9763 78.805 82.1313 78.973 82.338 78.973H95.2628C95.4695 78.973 95.6547 78.805 95.6719 78.5983Z" fill="white"/>
<path opacity="0.5" d="M97.2951 78.973H101.098C101.305 78.973 101.49 78.805 101.507 78.5983C101.524 78.3916 101.369 78.2236 101.163 78.2236H97.3597C97.153 78.2236 96.9678 78.3916 96.9505 78.5983C96.9333 78.805 97.0884 78.973 97.2951 78.973Z" fill="white"/>
<path opacity="0.5" d="M82.5412 76.5961H87.4337C87.6404 76.5961 87.8256 76.4281 87.8428 76.2214C87.8601 76.0146 87.705 75.8467 87.4983 75.8467H82.6058C82.399 75.8467 82.2138 76.0146 82.1966 76.2214C82.1794 76.4281 82.3344 76.5961 82.5412 76.5961Z" fill="white"/>
<path d="M105.469 76.2214C105.487 76.0146 105.332 75.8467 105.125 75.8467H89.9261C89.7193 75.8467 89.5342 76.0146 89.5169 76.2214C89.4997 76.4281 89.6547 76.5961 89.8615 76.5961H105.06C105.267 76.5961 105.452 76.4281 105.469 76.2214Z" fill="white"/>
<path d="M82.7423 74.223H91.61C91.8168 74.223 92.002 74.055 92.0192 73.8483C92.0364 73.6416 91.8814 73.4736 91.6746 73.4736H82.8069C82.6002 73.4736 82.415 73.6416 82.3978 73.8483C82.3806 74.055 82.5356 74.223 82.7423 74.223Z" fill="white"/>
<path opacity="0.5" d="M93.3079 73.8483C93.2907 74.055 93.4458 74.223 93.6525 74.223H95.849C96.0557 74.223 96.2409 74.055 96.2581 73.8483C96.2753 73.6416 96.1203 73.4736 95.9136 73.4736H93.7171C93.5104 73.4736 93.3252 73.6416 93.3079 73.8483Z" fill="white"/>
<path opacity="0.5" d="M82.9455 71.8461H93.4196C93.6263 71.8461 93.8115 71.6781 93.8287 71.4714C93.846 71.2646 93.6909 71.0967 93.4842 71.0967H83.0101C82.8033 71.0967 82.6181 71.2646 82.6009 71.4714C82.5837 71.6781 82.7387 71.8461 82.9455 71.8461Z" fill="white"/>
<path d="M101.197 71.8461H109.23C109.436 71.8461 109.622 71.6781 109.639 71.4714C109.656 71.2646 109.501 71.0967 109.294 71.0967H101.262C101.055 71.0967 100.87 71.2646 100.853 71.4714C100.836 71.6781 100.991 71.8461 101.197 71.8461Z" fill="white"/>
<path opacity="0.5" d="M118.007 90.0977H94.7073C94.5006 90.0977 94.3154 90.2656 94.2982 90.4724C94.281 90.6791 94.436 90.847 94.6427 90.847H117.943C118.149 90.847 118.334 90.6791 118.352 90.4724C118.369 90.2656 118.214 90.0977 118.007 90.0977Z" fill="white"/>
<path d="M123.124 90.0977H120.242C120.036 90.0977 119.851 90.2656 119.833 90.4724C119.816 90.6791 119.971 90.847 120.178 90.847H123.059C123.266 90.847 123.451 90.6791 123.468 90.4724C123.486 90.2656 123.33 90.0977 123.124 90.0977Z" fill="white"/>
<path d="M101.869 88.474H111.249C111.456 88.474 111.641 88.306 111.659 88.0993C111.676 87.8926 111.521 87.7246 111.314 87.7246H101.934C101.727 87.7246 101.542 87.8926 101.525 88.0993C101.508 88.306 101.663 88.474 101.869 88.474Z" fill="white"/>
<path opacity="0.5" d="M118.145 88.474C118.352 88.474 118.537 88.306 118.554 88.0993C118.572 87.8926 118.417 87.7246 118.21 87.7246H112.891C112.684 87.7246 112.499 87.8926 112.482 88.0993C112.465 88.306 112.62 88.474 112.826 88.474H118.145Z" fill="white"/>
<path opacity="0.5" d="M123.326 87.7246H120.496C120.29 87.7246 120.104 87.8926 120.087 88.0993C120.07 88.306 120.225 88.474 120.432 88.474H123.261C123.468 88.474 123.653 88.306 123.671 88.0993C123.688 87.8926 123.533 87.7246 123.326 87.7246Z" fill="white"/>
<path d="M118.446 85.3467H105.901C105.694 85.3467 105.509 85.5146 105.492 85.7214C105.474 85.9281 105.629 86.0961 105.836 86.0961H118.382C118.589 86.0961 118.774 85.9281 118.791 85.7214C118.808 85.5146 118.653 85.3467 118.446 85.3467Z" fill="white"/>
<path d="M123.524 85.3467H120.66C120.454 85.3467 120.269 85.5146 120.251 85.7214C120.234 85.9281 120.389 86.0961 120.596 86.0961H123.46C123.667 86.0961 123.852 85.9281 123.869 85.7214C123.886 85.5146 123.731 85.3467 123.524 85.3467Z" fill="white"/>
<path opacity="0.5" d="M111.702 83.3483C111.72 83.1416 111.565 82.9736 111.358 82.9736H98.5667C98.36 82.9736 98.1748 83.1416 98.1576 83.3483C98.1403 83.555 98.2954 83.723 98.5021 83.723H111.293C111.5 83.723 111.685 83.555 111.702 83.3483Z" fill="white"/>
<path opacity="0.5" d="M113.678 82.9736C113.471 82.9736 113.286 83.1416 113.269 83.3483C113.252 83.555 113.407 83.723 113.613 83.723H118.575C118.782 83.723 118.967 83.555 118.984 83.3483C119.001 83.1416 118.846 82.9736 118.639 82.9736H113.678Z" fill="white"/>
<path d="M123.726 82.9736H120.897C120.69 82.9736 120.505 83.1416 120.488 83.3483C120.47 83.555 120.625 83.723 120.832 83.723H123.662C123.868 83.723 124.054 83.555 124.071 83.3483C124.088 83.1416 123.933 82.9736 123.726 82.9736Z" fill="white"/>
<path d="M114.524 81.3461H116.983C117.19 81.3461 117.375 81.1781 117.392 80.9714C117.409 80.7646 117.254 80.5967 117.047 80.5967H114.588C114.381 80.5967 114.196 80.7646 114.179 80.9714C114.162 81.1781 114.317 81.3461 114.524 81.3461Z" fill="white"/>
<path opacity="0.5" d="M118.735 81.3461H123.864C124.071 81.3461 124.256 81.1781 124.273 80.9714C124.29 80.7646 124.135 80.5967 123.929 80.5967H118.799C118.592 80.5967 118.407 80.7646 118.39 80.9714C118.373 81.1781 118.528 81.3461 118.735 81.3461Z" fill="white"/>
<path d="M86.7875 41.0222C86.8349 41.061 86.8908 41.0782 86.9511 41.0782C87.0373 41.0782 87.1277 41.0394 87.188 40.9619C87.2914 40.837 87.2785 40.6604 87.1622 40.57L86.3826 39.9584L87.2655 39.3469C87.399 39.2564 87.4421 39.0798 87.356 38.9549C87.2741 38.83 87.0976 38.8042 86.9641 38.8946L85.7538 39.7345C85.6763 39.7861 85.6289 39.8723 85.6203 39.9627C85.6117 40.0532 85.6505 40.135 85.7151 40.191L86.7875 41.0265V41.0222Z" fill="white"/>
<path d="M90.6976 39.9539L89.8148 40.5655C89.6812 40.6559 89.6382 40.8325 89.7243 40.9574C89.7717 41.0306 89.8535 41.0737 89.944 41.0737C90.0043 41.0737 90.0645 41.0565 90.1162 41.0177L91.3264 40.1779C91.404 40.1262 91.4513 40.0401 91.4599 39.9496C91.4686 39.8592 91.4298 39.7774 91.3652 39.7214L90.2928 38.8858C90.1765 38.7954 89.9956 38.8212 89.8923 38.9461C89.7889 39.071 89.8018 39.2476 89.9181 39.3381L90.6976 39.9496V39.9539Z" fill="white"/>
<path d="M88.052 41.0604C88.0821 41.0733 88.1123 41.0776 88.1467 41.0776C88.263 41.0776 88.3793 41.0044 88.4267 40.8881L89.1631 39.2085C89.2278 39.062 89.1631 38.9027 89.021 38.851C88.8789 38.7993 88.7109 38.8768 88.6463 39.0233L87.9099 40.7029C87.8453 40.8493 87.9099 41.0087 88.052 41.0604Z" fill="white"/>
<path opacity="0.5" d="M92.756 41.1732H94.2462C94.4529 41.1732 94.6381 41.0052 94.6553 40.7985C94.6725 40.5918 94.5175 40.4238 94.3108 40.4238H92.8206C92.6139 40.4238 92.4287 40.5918 92.4115 40.7985C92.3942 41.0052 92.5493 41.1732 92.756 41.1732Z" fill="white"/>
<path opacity="0.5" d="M111.819 44.1488H113.83C114.037 44.1488 114.222 43.9808 114.239 43.7741C114.256 43.5674 114.101 43.3994 113.894 43.3994H111.883C111.676 43.3994 111.491 43.5674 111.474 43.7741C111.457 43.9808 111.612 44.1488 111.819 44.1488Z" fill="white"/>
<path d="M90.0599 43.7702C90.0427 43.9769 90.1977 44.1449 90.4045 44.1449H109.229C109.436 44.1449 109.621 43.9769 109.639 43.7702C109.656 43.5635 109.501 43.3955 109.294 43.3955H90.4691C90.2623 43.3955 90.0771 43.5635 90.0599 43.7702Z" fill="white"/>
<path opacity="0.5" d="M85.2873 44.1488H88.1685C88.3752 44.1488 88.5604 43.9808 88.5776 43.7741C88.5949 43.5674 88.4398 43.3994 88.2331 43.3994H85.3519C85.1451 43.3994 84.9599 43.5674 84.9427 43.7741C84.9255 43.9808 85.0805 44.1488 85.2873 44.1488Z" fill="white"/>
<path d="M104.596 46.5218C104.803 46.5218 104.988 46.3539 105.005 46.1472C105.022 45.9404 104.867 45.7725 104.661 45.7725H97.1624C96.9557 45.7725 96.7705 45.9404 96.7533 46.1472C96.736 46.3539 96.8911 46.5218 97.0978 46.5218H104.596Z" fill="white"/>
<path d="M90.2013 46.5218H95.5202C95.727 46.5218 95.9121 46.3539 95.9294 46.1472C95.9466 45.9404 95.7916 45.7725 95.5848 45.7725H90.2659C90.0592 45.7725 89.874 45.9404 89.8568 46.1472C89.8395 46.3539 89.9946 46.5218 90.2013 46.5218Z" fill="white"/>
<path opacity="0.5" d="M85.0861 46.5218H87.9157C88.1224 46.5218 88.3076 46.3539 88.3248 46.1472C88.342 45.9404 88.187 45.7725 87.9803 45.7725H85.1507C84.944 45.7725 84.7588 45.9404 84.7415 46.1472C84.7243 46.3539 84.8794 46.5218 85.0861 46.5218Z" fill="white"/>
<path d="M101.038 48.5241C101.055 48.3174 100.9 48.1494 100.693 48.1494H90.0296C89.8229 48.1494 89.6377 48.3174 89.6204 48.5241C89.6032 48.7308 89.7583 48.8988 89.965 48.8988H100.629C100.835 48.8988 101.021 48.7308 101.038 48.5241Z" fill="white"/>
<path opacity="0.5" d="M84.883 48.8988H87.747C87.9537 48.8988 88.1389 48.7308 88.1561 48.5241C88.1734 48.3174 88.0183 48.1494 87.8116 48.1494H84.9476C84.7408 48.1494 84.5556 48.3174 84.5384 48.5241C84.5212 48.7308 84.6762 48.8988 84.883 48.8988Z" fill="white"/>
<path d="M97.049 51.2718H107.958C108.165 51.2718 108.35 51.1039 108.367 50.8972C108.384 50.6904 108.229 50.5225 108.023 50.5225H97.1136C96.9068 50.5225 96.7217 50.6904 96.7044 50.8972C96.6872 51.1039 96.8422 51.2718 97.049 51.2718Z" fill="white"/>
<path d="M89.8323 50.5225C89.6256 50.5225 89.4404 50.6904 89.4232 50.8972C89.406 51.1039 89.561 51.2718 89.7677 51.2718H94.7292C94.9359 51.2718 95.1211 51.1039 95.1383 50.8972C95.1555 50.6904 95.0005 50.5225 94.7938 50.5225H89.8323Z" fill="white"/>
<path opacity="0.5" d="M84.6857 51.2718H87.5153C87.722 51.2718 87.9072 51.1039 87.9244 50.8972C87.9416 50.6904 87.7866 50.5225 87.5799 50.5225H84.7503C84.5436 50.5225 84.3584 50.6904 84.3412 50.8972C84.3239 51.1039 84.479 51.2718 84.6857 51.2718Z" fill="white"/>
<path d="M93.8892 52.9004H91.43C91.2233 52.9004 91.0381 53.0684 91.0208 53.2751C91.0036 53.4818 91.1587 53.6498 91.3654 53.6498H93.8246C94.0313 53.6498 94.2165 53.4818 94.2337 53.2751C94.2509 53.0684 94.0959 52.9004 93.8892 52.9004Z" fill="white"/>
<path d="M89.6766 52.9004H84.5472C84.3404 52.9004 84.1553 53.0684 84.138 53.2751C84.1208 53.4818 84.2758 53.6498 84.4826 53.6498H89.612C89.8187 53.6498 90.0039 53.4818 90.0211 53.2751C90.0383 53.0684 89.8833 52.9004 89.6766 52.9004Z" fill="white"/>
<path d="M105.581 55.6481C105.564 55.8549 105.719 56.0228 105.926 56.0228H126.004C126.211 56.0228 126.396 55.8549 126.413 55.6481C126.431 55.4414 126.276 55.2734 126.069 55.2734H105.991C105.784 55.2734 105.599 55.4414 105.581 55.6481Z" fill="white"/>
<path opacity="0.5" d="M100.159 55.2734C99.9518 55.2734 99.7666 55.4414 99.7494 55.6481C99.7321 55.8549 99.8872 56.0228 100.094 56.0228H103.897C104.104 56.0228 104.289 55.8549 104.306 55.6481C104.323 55.4414 104.168 55.2734 103.961 55.2734H100.159Z" fill="white"/>
<path opacity="0.5" d="M125.867 57.6504H120.975C120.768 57.6504 120.583 57.8184 120.566 58.0251C120.549 58.2318 120.704 58.3998 120.91 58.3998H125.803C126.01 58.3998 126.195 58.2318 126.212 58.0251C126.229 57.8184 126.074 57.6504 125.867 57.6504Z" fill="white"/>
<path d="M118.889 58.0251C118.907 57.8184 118.751 57.6504 118.545 57.6504H98.0745C97.8678 57.6504 97.6826 57.8184 97.6654 58.0251C97.6481 58.2318 97.8032 58.3998 98.0099 58.3998H118.48C118.687 58.3998 118.872 58.2318 118.889 58.0251Z" fill="white"/>
<path d="M125.669 60.0234H116.801C116.594 60.0234 116.409 60.1914 116.392 60.3981C116.375 60.6049 116.53 60.7728 116.736 60.7728H125.604C125.811 60.7728 125.996 60.6049 126.013 60.3981C126.031 60.1914 125.876 60.0234 125.669 60.0234Z" fill="white"/>
<path opacity="0.5" d="M112.559 60.0234C112.352 60.0234 112.167 60.1914 112.15 60.3981C112.133 60.6049 112.288 60.7728 112.494 60.7728H114.691C114.897 60.7728 115.083 60.6049 115.1 60.3981C115.117 60.1914 114.962 60.0234 114.755 60.0234H112.559Z" fill="white"/>
<path d="M125.466 62.4014H107.838C107.631 62.4014 107.446 62.5693 107.429 62.7761C107.412 62.9828 107.567 63.1508 107.774 63.1508H125.401C125.608 63.1508 125.793 62.9828 125.81 62.7761C125.828 62.5693 125.673 62.4014 125.466 62.4014Z" fill="white"/>
<path d="M100.061 62.4014H93.9104C93.7037 62.4014 93.5185 62.5693 93.5013 62.7761C93.4841 62.9828 93.6391 63.1508 93.8458 63.1508H99.996C100.203 63.1508 100.388 62.9828 100.405 62.7761C100.422 62.5693 100.267 62.4014 100.061 62.4014Z" fill="white"/>
<path d="M122.891 112.803L120.574 138.859L120.566 138.95H75.0859L75.0946 138.859L80.0129 83.4824L82.5109 84.1371L94.6948 87.3112L95.371 87.4877L96.2022 87.7031L97.2272 87.9701L97.8646 88.1381L106.026 90.2656L106.078 90.2786C106.672 90.4336 107.253 90.6102 107.822 90.8083C112.112 92.3028 115.729 95.0117 118.348 98.4701C119.511 100.008 120.475 101.696 121.212 103.492C122.405 106.377 123.003 109.539 122.891 112.803Z" fill="#F3F3F3"/>
<path opacity="0.8" d="M122.891 112.803L120.574 138.859L120.566 138.95H75.0859L75.0946 138.859L80.0129 83.4824L82.5109 84.1371L94.6948 87.3112L95.371 87.4877L96.2022 87.7031L97.2272 87.9701L97.8646 88.1381L106.026 90.2656L106.078 90.2786C106.672 90.4336 107.253 90.6102 107.822 90.8083C112.112 92.3028 115.729 95.0117 118.348 98.4701C119.511 100.008 120.475 101.696 121.212 103.492C122.405 106.377 123.003 109.539 122.891 112.803Z" fill="white"/>
<path opacity="0.6" d="M97.8651 88.1377H82.1582L82.2314 87.3108L82.5114 84.1367L94.6953 87.3108L95.3715 87.4874L96.2027 87.7027L97.2277 87.9698L97.8651 88.1377Z" fill="black"/>
<path opacity="0.5" d="M97.8651 88.1375H82.1582L82.2314 87.3105H94.6953L95.3715 87.4871L96.2027 87.7025L97.2277 87.9695L97.8651 88.1375Z" fill="black"/>
<path opacity="0.6" d="M96.2027 87.7025L96.1639 88.1375H82.1582L82.2314 87.3105H94.6953L95.3715 87.4871L96.2027 87.7025Z" fill="white"/>
<path d="M97.2274 87.9697C97.2101 88.0257 97.1886 88.0816 97.1585 88.1376C96.9776 88.4865 96.6072 88.732 96.2023 88.732C95.7975 88.732 95.4745 88.4865 95.3582 88.1376C95.3151 88.017 95.2979 87.8878 95.3108 87.75C95.3194 87.6596 95.341 87.5691 95.3711 87.4873L96.2023 87.7026L97.2274 87.9697Z" fill="white"/>
<path opacity="0.4" d="M102.297 94.2096H82.3951C81.9687 94.2096 81.65 93.8608 81.6887 93.4344C81.7275 93.008 82.1065 92.6592 82.5329 92.6592H102.435C102.861 92.6592 103.18 93.008 103.141 93.4344C103.102 93.8608 102.723 94.2096 102.297 94.2096Z" fill="#FF5225"/>
<path opacity="0.4" d="M107.835 91.0399C107.796 91.4662 107.417 91.8108 106.991 91.8108H82.606C82.1796 91.8108 81.8609 91.4662 81.8997 91.0399C81.9384 90.6092 82.3174 90.2646 82.7438 90.2646H106.026L106.078 90.2776C106.672 90.4326 107.254 90.6092 107.822 90.8073C107.835 90.8805 107.844 90.958 107.835 91.0399Z" fill="#FF5225"/>
<path opacity="0.3" d="M121.212 103.491L120.101 116.007H79.6816L81.2407 98.4697H118.348C119.511 100.007 120.476 101.696 121.212 103.491Z" fill="#FF5225"/>
<path d="M108.025 101.519H104.855C104.467 101.519 104.183 101.205 104.218 100.817C104.252 100.43 104.592 100.115 104.98 100.115H108.15C108.537 100.115 108.822 100.43 108.787 100.817C108.753 101.205 108.412 101.519 108.025 101.519Z" fill="#FF5225"/>
<path d="M116.784 103.776H104.652C104.264 103.776 103.98 103.462 104.015 103.074C104.049 102.686 104.389 102.372 104.777 102.372H116.909C117.297 102.372 117.581 102.686 117.547 103.074C117.512 103.462 117.172 103.776 116.784 103.776Z" fill="#FF5225"/>
<path opacity="0.3" d="M100.109 114.357H81.7363L83.0025 100.119H101.371L100.109 114.357Z" fill="#FF5225"/>
<path d="M82.0163 111.213L87.4299 107.238L90.2681 109.482L96.2675 105.192L100.561 109.249L100.109 114.357H81.7363L82.0163 111.213Z" fill="#263238"/>
<path d="M88.1663 103.474C88.0888 104.314 87.3825 104.995 86.59 104.995C85.7976 104.995 85.2205 104.314 85.298 103.474C85.3755 102.635 86.0818 101.954 86.8743 101.954C87.6667 101.954 88.2438 102.635 88.1663 103.474Z" fill="#263238"/>
<path opacity="0.3" d="M118.344 135.823H77.9199L79.479 118.281H119.903L118.344 135.823Z" fill="#FF5225"/>
<path d="M106.263 121.335H103.093C102.706 121.335 102.421 121.02 102.456 120.633C102.49 120.245 102.831 119.931 103.218 119.931H106.388C106.776 119.931 107.06 120.245 107.025 120.633C106.991 121.02 106.651 121.335 106.263 121.335Z" fill="#FF5225"/>
<path d="M115.023 123.588H102.89C102.503 123.588 102.218 123.273 102.253 122.886C102.287 122.498 102.628 122.184 103.015 122.184H115.147C115.535 122.184 115.819 122.498 115.785 122.886C115.75 123.273 115.41 123.588 115.023 123.588Z" fill="#FF5225"/>
<path opacity="0.3" d="M98.3474 134.169H79.9746L81.2408 119.935H99.6136L98.3474 134.169Z" fill="#FF5225"/>
<path d="M80.2545 131.029L85.6682 127.05L88.5064 129.298L94.5058 125.004L98.7996 129.061L98.3474 134.169H79.9746L80.2545 131.029Z" fill="#263238"/>
<path d="M86.4085 123.285C86.331 124.125 85.6247 124.805 84.8322 124.805C84.0398 124.805 83.4627 124.125 83.5402 123.285C83.6177 122.445 84.324 121.765 85.1165 121.765C85.9089 121.765 86.486 122.445 86.4085 123.285Z" fill="#263238"/>
<path opacity="0.2" d="M114.273 94.8577C102.352 88.9057 83.4884 100.62 82.9371 100.823C81.0378 101.529 78.8284 100.581 76.8301 99.1559L78.3805 81.4076L79.285 81.3516C79.285 81.3516 104.867 87.6352 114.273 94.8577Z" fill="black"/>
<path d="M52.0527 75.8467C52.0527 75.8467 54.8091 77.5048 56.3078 78.224C57.1477 78.6289 60.3218 78.0475 62.8757 79.684C65.3435 81.2646 65.0679 82.8538 66.1144 84.2622C69.267 88.513 76.0115 88.3795 76.0115 88.3795C76.0115 88.3795 104.742 82.9744 119.48 100.12C119.48 100.12 108.575 78.8528 52.0527 75.851V75.8467Z" fill="#FF5225"/>
<path opacity="0.4" d="M52.0527 75.8467C52.0527 75.8467 54.8091 77.5048 56.3078 78.224C57.1477 78.6289 60.3218 78.0475 62.8757 79.684C65.3435 81.2646 65.0679 82.8538 66.1144 84.2622C69.267 88.513 76.0115 88.3795 76.0115 88.3795C76.0115 88.3795 104.742 82.9744 119.48 100.12C119.48 100.12 108.575 78.8528 52.0527 75.851V75.8467Z" fill="white"/>
<path d="M68.0751 35.3154H48.0743C46.9373 35.3154 46.0156 36.2371 46.0156 37.3741V48.1928C46.0156 49.3298 46.9373 50.2514 48.0743 50.2514H61.9896C62.5279 51.5305 64.0525 54.0888 67.9674 55.2731C67.9674 55.2731 65.6202 53.1456 65.7408 50.2514H68.0751C69.2121 50.2514 70.1337 49.3298 70.1337 48.1928V37.3741C70.1337 36.2371 69.2121 35.3154 68.0751 35.3154Z" fill="#FF5225"/>
<path opacity="0.6" d="M68.0751 35.3154H48.0743C46.9373 35.3154 46.0156 36.2371 46.0156 37.3741V48.1928C46.0156 49.3298 46.9373 50.2514 48.0743 50.2514H61.9896C62.5279 51.5305 64.0525 54.0888 67.9674 55.2731C67.9674 55.2731 65.6202 53.1456 65.7408 50.2514H68.0751C69.2121 50.2514 70.1337 49.3298 70.1337 48.1928V37.3741C70.1337 36.2371 69.2121 35.3154 68.0751 35.3154Z" fill="white"/>
<g opacity="0.5">
<path d="M48.4707 38.9203C48.4707 38.1236 48.8885 37.6455 49.4699 37.6455C50.0513 37.6455 50.4734 38.1236 50.4734 38.9203C50.4734 39.7171 50.0513 40.1951 49.4699 40.1951C48.8885 40.1951 48.4707 39.7171 48.4707 38.9203ZM50.2063 38.9203C50.2063 38.2485 49.9049 37.8824 49.4699 37.8824C49.0349 37.8824 48.7334 38.2528 48.7334 38.9203C48.7334 39.5879 49.0349 39.9583 49.4699 39.9583C49.9049 39.9583 50.2063 39.5879 50.2063 38.9203Z" fill="black"/>
<path d="M51.5281 37.667V40.1736H51.2697V37.8953H50.6797V37.667H51.5281Z" fill="black"/>
<path d="M52.127 38.9203C52.127 38.1236 52.5447 37.6455 53.1261 37.6455C53.7075 37.6455 54.1296 38.1236 54.1296 38.9203C54.1296 39.7171 53.7075 40.1951 53.1261 40.1951C52.5447 40.1951 52.127 39.7171 52.127 38.9203ZM53.8626 38.9203C53.8626 38.2485 53.5611 37.8824 53.1261 37.8824C52.6911 37.8824 52.3897 38.2528 52.3897 38.9203C52.3897 39.5879 52.6911 39.9583 53.1261 39.9583C53.5611 39.9583 53.8626 39.5879 53.8626 38.9203Z" fill="black"/>
<path d="M54.4961 38.9203C54.4961 38.1236 54.9139 37.6455 55.4953 37.6455C56.0767 37.6455 56.4988 38.1236 56.4988 38.9203C56.4988 39.7171 56.0767 40.1951 55.4953 40.1951C54.9139 40.1951 54.4961 39.7171 54.4961 38.9203ZM56.2317 38.9203C56.2317 38.2485 55.9303 37.8824 55.4953 37.8824C55.0603 37.8824 54.7588 38.2528 54.7588 38.9203C54.7588 39.5879 55.0603 39.9583 55.4953 39.9583C55.9303 39.9583 56.2317 39.5879 56.2317 38.9203Z" fill="black"/>
<path d="M57.5535 37.667V40.1736H57.2951V37.8953H56.7051V37.667H57.5535Z" fill="black"/>
<path d="M58.8465 37.667V40.1736H58.5881V37.8953H57.998V37.667H58.8465Z" fill="black"/>
<path d="M60.1375 37.667V40.1736H59.8791V37.8953H59.2891V37.667H60.1375Z" fill="black"/>
<path d="M60.7363 38.9203C60.7363 38.1236 61.1541 37.6455 61.7355 37.6455C62.3169 37.6455 62.739 38.1236 62.739 38.9203C62.739 39.7171 62.3169 40.1951 61.7355 40.1951C61.1541 40.1951 60.7363 39.7171 60.7363 38.9203ZM62.472 38.9203C62.472 38.2485 62.1705 37.8824 61.7355 37.8824C61.3005 37.8824 60.999 38.2528 60.999 38.9203C60.999 39.5879 61.3005 39.9583 61.7355 39.9583C62.1705 39.9583 62.472 39.5879 62.472 38.9203Z" fill="black"/>
<path d="M63.1055 38.9203C63.1055 38.1236 63.5232 37.6455 64.1046 37.6455C64.6861 37.6455 65.1081 38.1236 65.1081 38.9203C65.1081 39.7171 64.6861 40.1951 64.1046 40.1951C63.5232 40.1951 63.1055 39.7171 63.1055 38.9203ZM64.8411 38.9203C64.8411 38.2485 64.5396 37.8824 64.1046 37.8824C63.6697 37.8824 63.3682 38.2528 63.3682 38.9203C63.3682 39.5879 63.6697 39.9583 64.1046 39.9583C64.5396 39.9583 64.8411 39.5879 64.8411 38.9203Z" fill="black"/>
<path d="M66.1629 37.667V40.1736H65.9045V37.8953H65.3145V37.667H66.1629Z" fill="black"/>
<path d="M67.4559 37.667V40.1736H67.1975V37.8953H66.6074V37.667H67.4559Z" fill="black"/>
<path d="M49.1648 41.293V43.7995H48.9064V41.5212H48.3164V41.293H49.1648Z" fill="black"/>
<path d="M49.7637 42.5463C49.7637 41.7495 50.1814 41.2715 50.7628 41.2715C51.3443 41.2715 51.7663 41.7495 51.7663 42.5463C51.7663 43.3431 51.3443 43.8211 50.7628 43.8211C50.1814 43.8211 49.7637 43.3431 49.7637 42.5463ZM51.4993 42.5463C51.4993 41.8744 51.1978 41.5084 50.7628 41.5084C50.3279 41.5084 50.0264 41.8787 50.0264 42.5463C50.0264 43.2139 50.3279 43.5842 50.7628 43.5842C51.1978 43.5842 51.4993 43.2139 51.4993 42.5463Z" fill="black"/>
<path d="M52.1328 42.5463C52.1328 41.7495 52.5506 41.2715 53.132 41.2715C53.7134 41.2715 54.1355 41.7495 54.1355 42.5463C54.1355 43.3431 53.7134 43.8211 53.132 43.8211C52.5506 43.8211 52.1328 43.3431 52.1328 42.5463ZM53.8685 42.5463C53.8685 41.8744 53.567 41.5084 53.132 41.5084C52.697 41.5084 52.3955 41.8787 52.3955 42.5463C52.3955 43.2139 52.697 43.5842 53.132 43.5842C53.567 43.5842 53.8685 43.2139 53.8685 42.5463Z" fill="black"/>
<path d="M55.1902 41.293V43.7995H54.9318V41.5212H54.3418V41.293H55.1902Z" fill="black"/>
<path d="M56.4832 41.293V43.7995H56.2248V41.5212H55.6348V41.293H56.4832Z" fill="black"/>
<path d="M57.7742 41.293V43.7995H57.5158V41.5212H56.9258V41.293H57.7742Z" fill="black"/>
<path d="M58.3691 42.5463C58.3691 41.7495 58.7869 41.2715 59.3683 41.2715C59.9497 41.2715 60.3718 41.7495 60.3718 42.5463C60.3718 43.3431 59.9497 43.8211 59.3683 43.8211C58.7869 43.8211 58.3691 43.3431 58.3691 42.5463ZM60.1048 42.5463C60.1048 41.8744 59.8033 41.5084 59.3683 41.5084C58.9333 41.5084 58.6319 41.8787 58.6319 42.5463C58.6319 43.2139 58.9333 43.5842 59.3683 43.5842C59.8033 43.5842 60.1048 43.2139 60.1048 42.5463Z" fill="black"/>
<path d="M60.7383 42.5463C60.7383 41.7495 61.156 41.2715 61.7375 41.2715C62.3189 41.2715 62.7409 41.7495 62.7409 42.5463C62.7409 43.3431 62.3189 43.8211 61.7375 43.8211C61.156 43.8211 60.7383 43.3431 60.7383 42.5463ZM62.4739 42.5463C62.4739 41.8744 62.1724 41.5084 61.7375 41.5084C61.3025 41.5084 61.001 41.8787 61.001 42.5463C61.001 43.2139 61.3025 43.5842 61.7375 43.5842C62.1724 43.5842 62.4739 43.2139 62.4739 42.5463Z" fill="black"/>
<path d="M63.7957 41.293V43.7995H63.5373V41.5212H62.9473V41.293H63.7957Z" fill="black"/>
<path d="M65.0867 41.293V43.7995H64.8283V41.5212H64.2383V41.293H65.0867Z" fill="black"/>
<path d="M65.6855 42.5463C65.6855 41.7495 66.1033 41.2715 66.6847 41.2715C67.2661 41.2715 67.6882 41.7495 67.6882 42.5463C67.6882 43.3431 67.2661 43.8211 66.6847 43.8211C66.1033 43.8211 65.6855 43.3431 65.6855 42.5463ZM67.4212 42.5463C67.4212 41.8744 67.1197 41.5084 66.6847 41.5084C66.2497 41.5084 65.9483 41.8787 65.9483 42.5463C65.9483 43.2139 66.2497 43.5842 66.6847 43.5842C67.1197 43.5842 67.4212 43.2139 67.4212 42.5463Z" fill="black"/>
<path d="M48.4707 46.1772C48.4707 45.3804 48.8885 44.9023 49.4699 44.9023C50.0513 44.9023 50.4734 45.3804 50.4734 46.1772C50.4734 46.9739 50.0513 47.452 49.4699 47.452C48.8885 47.452 48.4707 46.9739 48.4707 46.1772ZM50.2063 46.1772C50.2063 45.5053 49.9049 45.1392 49.4699 45.1392C49.0349 45.1392 48.7334 45.5096 48.7334 46.1772C48.7334 46.8447 49.0349 47.2151 49.4699 47.2151C49.9049 47.2151 50.2063 46.8447 50.2063 46.1772Z" fill="black"/>
<path d="M50.8438 46.1772C50.8438 45.3804 51.2615 44.9023 51.8429 44.9023C52.4243 44.9023 52.8464 45.3804 52.8464 46.1772C52.8464 46.9739 52.4243 47.452 51.8429 47.452C51.2615 47.452 50.8438 46.9739 50.8438 46.1772ZM52.5794 46.1772C52.5794 45.5053 52.2779 45.1392 51.8429 45.1392C51.4079 45.1392 51.1065 45.5096 51.1065 46.1772C51.1065 46.8447 51.4079 47.2151 51.8429 47.2151C52.2779 47.2151 52.5794 46.8447 52.5794 46.1772Z" fill="black"/>
<path d="M53.8973 44.9238V47.4304H53.6389V45.1521H53.0488V44.9238H53.8973Z" fill="black"/>
<path d="M55.1902 44.9238V47.4304H54.9318V45.1521H54.3418V44.9238H55.1902Z" fill="black"/>
<path d="M55.7871 46.1772C55.7871 45.3804 56.2049 44.9023 56.7863 44.9023C57.3677 44.9023 57.7898 45.3804 57.7898 46.1772C57.7898 46.9739 57.3677 47.452 56.7863 47.452C56.2049 47.452 55.7871 46.9739 55.7871 46.1772ZM57.5227 46.1772C57.5227 45.5053 57.2213 45.1392 56.7863 45.1392C56.3513 45.1392 56.0498 45.5096 56.0498 46.1772C56.0498 46.8447 56.3513 47.2151 56.7863 47.2151C57.2213 47.2151 57.5227 46.8447 57.5227 46.1772Z" fill="black"/>
<path d="M58.1562 46.1772C58.1562 45.3804 58.574 44.9023 59.1554 44.9023C59.7368 44.9023 60.1589 45.3804 60.1589 46.1772C60.1589 46.9739 59.7368 47.452 59.1554 47.452C58.574 47.452 58.1562 46.9739 58.1562 46.1772ZM59.8919 46.1772C59.8919 45.5053 59.5904 45.1392 59.1554 45.1392C58.7204 45.1392 58.419 45.5096 58.419 46.1772C58.419 46.8447 58.7204 47.2151 59.1554 47.2151C59.5904 47.2151 59.8919 46.8447 59.8919 46.1772Z" fill="black"/>
<path d="M61.2156 44.9238V47.4304H60.9572V45.1521H60.3672V44.9238H61.2156Z" fill="black"/>
<path d="M62.5066 44.9238V47.4304H62.2482V45.1521H61.6582V44.9238H62.5066Z" fill="black"/>
<path d="M63.7996 44.9238V47.4304H63.5412V45.1521H62.9512V44.9238H63.7996Z" fill="black"/>
<path d="M64.3965 46.1772C64.3965 45.3804 64.8142 44.9023 65.3957 44.9023C65.9771 44.9023 66.3992 45.3804 66.3992 46.1772C66.3992 46.9739 65.9771 47.452 65.3957 47.452C64.8142 47.452 64.3965 46.9739 64.3965 46.1772ZM66.1321 46.1772C66.1321 45.5053 65.8307 45.1392 65.3957 45.1392C64.9607 45.1392 64.6592 45.5096 64.6592 46.1772C64.6592 46.8447 64.9607 47.2151 65.3957 47.2151C65.8307 47.2151 66.1321 46.8447 66.1321 46.1772Z" fill="black"/>
<path d="M67.4559 44.9238V47.4304H67.1975V45.1521H66.6074V44.9238H67.4559Z" fill="black"/>
</g>
</svg>
