<svg width="222" height="201" viewBox="0 0 222 201" fill="none" xmlns="http://www.w3.org/2000/svg">
<path d="M188.462 199.281H12.9766V200.613H188.462V199.281Z" fill="black"/>
<path d="M136.925 92.0386C125.632 78.4203 113.079 85.4509 109.882 89.326C80.7909 124.52 37.1404 131.579 32.8224 153.528C30.4835 165.403 40.5311 195.158 100.72 195.587C163.539 196.03 178.209 159.687 163.857 136.45C149.519 113.241 148.218 105.671 136.925 92.0386Z" fill="#AAB6C2"/>
<path d="M107.018 194.536V193.941C96.9704 193.941 89.9951 187.187 86.8119 180.876C83.4766 174.261 83.02 165.251 89.5108 160.047C94.3962 156.131 100.693 155.48 106.783 154.857C116.069 153.902 125.688 152.92 130.864 140.616C139.334 120.521 125.895 87.3333 125.757 86.9873L125.065 87.1811C125.203 87.5132 138.559 120.521 130.172 140.422C125.148 152.366 116.18 153.28 106.7 154.262C100.486 154.899 94.0779 155.563 89.0126 159.618C83.0892 164.365 81.9681 172.807 86.1477 181.097C89.4277 187.588 96.6383 194.536 107.032 194.536H107.018Z" fill="black"/>
<path d="M56.6278 186.316L56.877 185.748C47.1615 182.883 42.9542 172.407 43.1479 163.895C43.314 156.546 46.6909 147.869 55.6314 145.53C61.9284 143.883 66.5232 143.828 70.9657 143.772C78.8405 143.676 85.6496 143.592 98.6036 134.181C118.519 119.733 118.685 87.9707 118.685 87.6523H117.952C117.952 87.9707 117.772 119.47 98.1193 133.739C85.359 142.997 78.6883 143.08 70.9519 143.177C66.6616 143.233 61.8038 143.288 55.4099 144.963C46.0958 147.398 42.5943 156.339 42.4144 163.882C42.2206 172.601 46.5802 183.326 56.6278 186.302V186.316Z" fill="black"/>
<path d="M115.777 193.347C121.119 192.876 126.379 191.797 131.43 190.288C136.468 188.738 141.298 186.69 145.616 184.046C149.934 181.403 153.657 178.095 156.438 174.317C159.234 170.539 161.019 166.304 161.891 161.958C162.334 159.785 162.528 157.585 162.528 155.384C162.569 154.291 162.473 153.184 162.431 152.091C162.32 150.997 162.251 149.904 162.057 148.811C161.435 144.451 160.244 140.161 158.653 135.981C157.061 131.802 155.124 127.705 152.951 123.719C150.75 119.733 148.315 115.831 145.727 112.011C148.204 115.886 150.543 119.816 152.619 123.844C154.722 127.857 156.604 131.954 158.113 136.133C158.888 138.223 159.511 140.341 160.106 142.458C160.632 144.589 161.13 146.735 161.393 148.894C161.573 149.973 161.642 151.053 161.739 152.146C161.781 153.225 161.864 154.319 161.822 155.398C161.808 157.571 161.601 159.744 161.158 161.875C160.327 166.152 158.584 170.331 155.857 174.054C153.145 177.791 149.463 181.029 145.27 183.7C141.049 186.358 136.288 188.447 131.305 190.039C126.323 191.631 121.106 192.807 115.777 193.361V193.347Z" fill="black"/>
<path d="M58.9806 97.1528C56.3649 97.1528 54.0122 96.6546 52.0055 95.672C51.7425 95.5474 51.5211 95.4229 51.3135 95.2706C45.5423 91.4232 48.5317 62.8995 49.0576 59.8825C50.4139 59.8825 53.1957 59.2458 54.0814 59.0244C54.2475 59.5503 54.718 61.1419 55.2301 62.941C58.7869 75.2445 60.9737 81.9291 62.413 82.0814C63.1326 82.0814 66.8692 79.3965 68.6822 77.971C69.5957 77.2375 70.5645 76.4625 71.5472 75.6874L72.5436 74.8847C74.9517 73.0164 77.5675 71.065 78.6747 70.7328C79.5327 70.4699 80.3354 70.3453 81.0412 70.3453C82.9096 70.3453 84.2659 71.2587 85.0547 73.0579C87.0061 77.4728 85.027 85.569 83.5738 87.1605C83.1586 87.6034 82.093 88.4892 80.3354 89.6379C74.7856 93.2777 66.2464 97.1667 58.9806 97.1667V97.1528Z" fill="#FFBCB0"/>
<path d="M94.4099 81.959C93.4688 85.9586 83.6286 90.2213 79.1031 94.4839C73.6502 90.9548 71.7819 82.9139 73.6364 72.7971C81.9956 65.6419 89.9534 64.7008 97.8144 65.6558C104.624 66.4862 95.2264 78.5267 94.4099 81.959Z" fill="#FF5225"/>
<path d="M51.978 62.3457C51.3414 62.3457 50.8709 61.8752 50.4141 61.3493C50.1235 61.0171 49.7083 60.4359 49.39 59.7577C48.8364 58.8858 48.2137 57.7786 48.1998 56.5469C48.1998 56.2978 48.2274 56.0625 48.2689 55.8272L48.2966 55.675L48.1998 55.5504C47.5078 54.7062 47.0926 53.7374 46.9404 52.6441C46.9265 52.5195 46.9404 52.4227 47.0096 52.3396C47.0927 52.2427 47.2309 52.1874 47.3693 52.1874H47.7153L47.7569 51.8414C47.7569 51.6338 47.7985 51.4539 47.8677 51.3155C47.9507 51.1632 48.0752 51.0664 48.2828 50.9972L48.4627 50.928L48.5043 50.7342C48.5458 50.5128 48.6288 50.3052 48.7119 50.1529C49.044 49.5717 49.5699 49.2534 50.1788 49.2534H50.9539L50.5525 48.6859C49.819 47.8832 48.8364 47.1912 47.4386 46.5131C47.2863 46.4439 47.2034 46.3332 47.1896 46.1948C47.1619 46.0287 47.2448 45.8626 47.3832 45.7381C47.6184 45.5305 47.8954 45.4336 48.2275 45.4336C49.4177 45.4336 50.8984 46.7484 51.5212 47.6479C52.1025 48.4783 52.5454 49.5302 52.8222 50.7619C52.9053 50.928 52.9329 50.9972 52.9606 51.0664L53.0437 51.2463L53.265 51.6892L53.5972 51.3293L53.7219 51.1909C53.7219 51.1909 53.8187 51.0663 53.8741 51.0248C54.2201 50.7204 54.829 50.4159 55.3687 50.4159C55.7147 50.4159 55.9916 50.5405 56.1854 50.7757C56.6006 51.3016 56.1991 51.8967 55.5902 52.6994C55.4656 52.8655 55.3411 53.0178 55.2442 53.1562C54.7183 53.945 54.0955 54.983 53.8602 56.1594C53.7633 57.0036 53.8879 57.8063 53.9986 58.5813C54.0401 58.8304 54.137 59.5916 54.1508 59.73C54.2477 60.3667 54.3723 61.1694 54.0124 61.5707C53.6664 61.9582 52.6562 62.3042 52.0057 62.3319H51.9365L51.978 62.3457Z" fill="#FFBCB0"/>
<path d="M48.2275 45.7789C49.2378 45.7789 50.6494 46.9968 51.2445 47.841C51.7981 48.6299 52.2272 49.6402 52.4901 50.8442L52.5178 50.9688L52.5869 51.0657C52.5869 51.0657 52.6423 51.1625 52.6562 51.2041C52.6839 51.2733 52.7115 51.3286 52.7391 51.3978L53.1959 52.2697L53.8741 51.5501C53.8741 51.5501 53.9709 51.4532 54.0124 51.3978C54.054 51.3563 54.0816 51.301 54.137 51.2594C54.4968 50.955 55.0089 50.7335 55.4103 50.7335C55.7286 50.7335 55.867 50.8719 55.95 50.9688C56.1853 51.2594 55.95 51.6885 55.3549 52.4635C55.2303 52.6296 55.1057 52.7956 55.0089 52.9479C54.5106 53.6952 53.8326 54.8301 53.5696 56.1449C53.4728 57.0029 53.5973 57.8333 53.708 58.6222C53.7495 58.8713 53.7771 59.1204 53.8048 59.3557C53.8187 59.4802 53.8464 59.6186 53.8602 59.7709C53.9433 60.3106 54.0539 61.0441 53.8048 61.3348C53.5419 61.6254 52.6562 61.9575 51.9919 61.9852C51.549 61.9852 51.1753 61.6669 50.6909 61.1133C50.4141 60.8088 50.0266 60.2414 49.7083 59.6048V59.5633L49.6668 59.5217C49.1547 58.7329 48.5597 57.6811 48.5458 56.5324C48.5458 56.2971 48.5734 56.0618 48.6011 55.868L48.6565 55.5636L48.4627 55.3283C47.8122 54.5394 47.4109 53.6122 47.2725 52.5742C47.2725 52.5742 47.314 52.5465 47.3832 52.5465L48.1167 52.588V51.8545C48.1167 51.7023 48.1306 51.5916 48.186 51.5085C48.2137 51.467 48.2551 51.4117 48.4211 51.3425L48.7948 51.2179L48.878 50.8442C48.9195 50.6505 48.9748 50.4844 49.044 50.3598C49.307 49.9031 49.736 49.6263 50.2065 49.6263H50.2896L51.9919 49.7371L50.8431 48.4776C50.0819 47.6334 49.0578 46.9276 47.6324 46.2356C47.577 46.2079 47.5769 46.1803 47.5769 46.1803C47.5769 46.1387 47.5909 46.0834 47.6601 46.028C47.84 45.8758 48.0337 45.8066 48.2689 45.8066L48.2275 45.7789ZM48.2275 45.0869C47.84 45.0869 47.4802 45.1976 47.1619 45.4883C46.719 45.8758 46.7328 46.5678 47.3002 46.8446C48.4212 47.3843 49.5008 48.0486 50.3035 48.9344C50.262 48.9344 50.2203 48.9344 50.1788 48.9344C49.5283 48.9344 48.8363 49.2665 48.4211 50.0139C48.3104 50.2076 48.2275 50.4429 48.1721 50.7058C47.9368 50.7889 47.7153 50.9273 47.5631 51.1902C47.4524 51.3978 47.4109 51.6331 47.4109 51.8822C47.397 51.8822 47.3832 51.8822 47.3693 51.8822C46.9403 51.8822 46.5113 52.1867 46.5944 52.7264C46.7466 53.889 47.2171 54.9131 47.9229 55.7989C47.8814 56.0618 47.8538 56.3109 47.8538 56.5877C47.8677 57.8195 48.4213 58.9266 49.0856 59.9508C49.4039 60.6289 49.8328 61.2379 50.165 61.6115C50.6632 62.179 51.203 62.7326 51.9919 62.7326C52.0196 62.7326 52.0472 62.7326 52.0749 62.7326C52.7392 62.691 53.874 62.3589 54.3169 61.8468C54.8705 61.2102 54.566 60.0615 54.4829 59.328C54.3584 58.3038 54.1371 57.2936 54.2339 56.2556C54.4415 55.2176 54.9812 54.2488 55.5625 53.3769C56.0607 52.6296 57.2371 51.5362 56.476 50.5813C56.1992 50.2215 55.7978 50.0831 55.3964 50.0831C54.7736 50.0831 54.1093 50.4014 53.6803 50.775C53.5696 50.8719 53.4728 50.9965 53.3759 51.1072C53.3067 50.9826 53.2651 50.8442 53.1821 50.7058C52.9191 49.5295 52.4901 48.4084 51.8258 47.4673C51.1892 46.5539 49.5975 45.1146 48.2412 45.1146L48.2275 45.0869Z" fill="#FFBCB0"/>
<path d="M53.7489 58.7751C53.7489 58.7751 54.5239 61.8475 54.9391 63.0931C55.3543 64.3525 50.5242 64.1034 50.5242 64.1034L49.251 60.8788C49.251 60.8788 49.2233 59.4948 49.0572 58.3876C48.8912 57.2804 51.9773 55.5089 52.2126 56.3116C52.4479 57.1144 53.7489 58.7613 53.7489 58.7613V58.7751Z" fill="#FFBCB0"/>
<path d="M83.4347 91.1926L83.0471 87.3729C83.0471 87.3729 79.0197 81.7262 81.9676 76.9515C84.9016 72.1768 92.8733 79.0136 92.8733 79.0136L89.6902 87.4697L83.4347 91.1926Z" fill="#BE4120"/>
<path d="M124.981 119.357C122.878 119.676 120.691 119.925 118.407 120.077C115.57 120.243 112.595 120.243 109.411 119.939C109.066 119.911 108.844 120.174 108.747 120.423C102.561 120.949 96.3745 121.627 90.2297 122.056C80.5834 122.734 71.1447 123.371 62.3426 119.371C55.2705 116.16 54.6339 114.32 46.3024 116.396C45.2506 116.659 41.4585 124.229 42.4965 123.966C46.773 122.9 45.9425 120.354 50.1913 120.755C49.7207 124.021 52.5026 126.416 54.7723 128.492C58.6751 132.09 63.1177 135.149 67.3941 138.29C72.0028 141.681 76.6667 145.002 81.3722 148.282C84.7629 150.635 87.96 153.777 92.3195 153.555C101.993 153.071 111.197 147.77 119.196 142.76C123.127 140.297 126.905 137.626 130.6 134.83C129.562 129.211 125.715 120.88 124.981 119.344V119.357Z" fill="black"/>
<path d="M125.023 119.454C125.023 119.551 125.438 120.34 125.424 120.423C124.885 126.001 117.107 127.122 112.858 127.205C111.073 127.26 109.26 127.232 107.474 127.191C100.471 128.492 92.9701 129.225 86.0088 127.468C85.1922 127.274 85.0677 126.194 85.8565 125.862C90.0223 124.118 95.226 124.727 99.9868 125.143C101.841 124.88 103.682 124.547 105.523 124.022C109.232 122.984 112.761 121.447 116.525 120.589C117.19 120.437 117.812 120.257 118.394 120.05C121.245 119.87 125.286 119.247 125.009 119.427L125.023 119.454Z" fill="black"/>
<path d="M71.7949 122.249C96.9279 133.21 124.746 119.412 124.857 119.37C124.386 118.47 118.767 108.99 117.231 105.516C116.483 103.828 116.041 101.794 115.847 99.7176C115.487 96.4099 115.653 93.0192 115.888 90.791C115.985 89.7115 116.11 88.8811 116.151 88.5075C116.165 88.4521 116.179 88.4106 116.179 88.3691C118.2 78.3076 122.601 66.3778 110.92 62.6964C109.481 62.2258 107.778 61.9075 105.799 61.7276H105.785C103.668 61.52 101.204 61.5062 98.3811 61.6722C98.3811 61.6722 94.8382 62.904 90.7554 64.9661C89.3715 65.6719 87.8905 66.4746 86.4927 67.3604C82.2854 70.0038 81.3582 75.3044 81.5104 78.9165C81.6073 81.4215 84.5966 86.7498 85.427 87.8432C83.6278 99.7315 73.7325 118.816 71.7949 122.263V122.249Z" fill="#FF5225"/>
<path d="M96.1261 65.0806C95.9738 65.0806 95.8215 65.0806 95.6831 65.039C95.5309 65.0114 95.4756 64.9422 95.4479 64.873C95.268 64.4854 95.614 63.5167 95.9184 62.9631L95.96 62.8801V58.3129L102.077 55.7803V61.4546C101.51 62.0358 98.4511 65.0806 96.1399 65.0806H96.1261Z" fill="#FFBCB0"/>
<path d="M101.716 56.3046V61.3146C100.637 62.4217 97.9934 64.733 96.125 64.733C96.0143 64.733 95.9173 64.733 95.8204 64.733C95.7927 64.733 95.7652 64.733 95.7513 64.733C95.6544 64.5254 95.8896 63.7365 96.208 63.1276L96.2911 62.9753V58.5466L101.716 56.3046ZM102.408 55.2666L95.5991 58.0899V62.8092C95.5991 62.8092 94.3258 65.1343 95.5991 65.3834C95.7652 65.4111 95.9451 65.4388 96.1112 65.4388C98.8514 65.4388 102.394 61.6052 102.394 61.6052V55.2804L102.408 55.2666Z" fill="black"/>
<path d="M102.409 57.8091V55.1934C102.409 55.1934 99.0457 58.4734 95.5996 59.0685C95.5996 59.0685 100.277 61.961 102.409 57.8091Z" fill="black"/>
<path d="M96.5971 58.7239C94.7425 58.7239 92.9573 57.8382 91.8086 56.3573C91.0335 55.347 90.7014 54.2122 90.9228 53.3126C91.9469 49.3129 94.5903 44.123 95.2269 42.9189L105.551 46.3097C105.579 47.5691 105.454 53.7001 100.68 57.2569C99.3788 58.2257 98.0087 58.7239 96.5971 58.7239Z" fill="#FFBCB0"/>
<path d="M95.3925 43.3472L105.205 46.5718C105.205 48.1911 104.873 53.7131 100.472 56.9793C99.2262 57.9065 97.9252 58.3771 96.5966 58.3771C94.8528 58.3771 93.1643 57.5467 92.0848 56.1489C91.3652 55.2355 91.0607 54.2113 91.2683 53.4086C92.2094 49.6857 94.6037 44.8972 95.4064 43.3472H95.3925ZM95.0466 42.5029C95.0466 42.5029 91.7527 48.6063 90.5763 53.2287C89.9674 55.6507 92.8183 59.0552 96.5827 59.0552C97.939 59.0552 99.406 58.6124 100.859 57.5329C106.395 53.4225 105.855 46.0597 105.855 46.0597L95.0327 42.5029H95.0466Z" fill="black"/>
<path d="M114.52 42.8086C113.967 40.3175 112.278 38.7259 109.704 38.5598C108.68 38.4906 107.559 38.7121 106.895 39.5563C106.507 40.0545 106.369 40.6219 106.313 41.217C103.269 38.8504 89.7472 34.5601 91.2419 46.1855C94.4804 42.4349 100.224 44.1787 101.608 47.5833C101.608 48.1646 101.525 48.7874 101.386 49.5209C100.999 51.5276 100.625 53.2714 101.359 55.2782C102.3 57.9077 104.722 58.3506 106.175 56.6207C107.171 55.4443 108.292 52.9254 108.957 50.4481C110.147 51.4446 112.015 51.7906 113.33 50.9325C115.614 49.4378 115.06 45.0091 114.562 42.8086H114.52Z" fill="black"/>
<path d="M100.805 49.9773C100.805 49.9773 102.922 49.2853 103.13 50.9322C103.338 52.593 101.76 53.368 101.026 52.9805C100.293 52.593 100.265 50.5862 100.805 49.9773Z" fill="#FFBCB0"/>
<path d="M91.0194 89.4498C94.7146 92.2592 99.9599 92.2869 104.236 93.9338C108.001 95.387 111.89 98.8608 115.848 99.7327C115.488 96.425 115.654 93.0343 115.889 90.8061C115.848 90.7507 116.014 89.256 116.152 88.5225C116.152 88.4672 118.533 82.2393 116.692 80.537C111.848 75.956 107.807 71.5273 107.807 71.5273C106.7 77.1463 108.181 82.087 110.049 85.5331C110.907 87.0555 111.89 88.4118 111.018 91.1105C111.018 91.1797 110.963 91.2213 110.963 91.3043C111.073 93.145 101.828 89.3391 100.472 88.9931C97.4412 88.1765 94.4793 87.7613 91.3239 87.9413C90.5488 87.9966 90.4658 89.0623 91.0056 89.4636L91.0194 89.4498Z" fill="#BE4120"/>
<path d="M113.938 142.759C113.453 142.676 112.969 142.579 112.485 142.496C112.623 142.344 112.748 142.164 112.844 141.956C113.01 141.638 114.256 128.726 113.966 128.518C112.692 127.549 109.564 129.085 108.014 129.182C106.52 129.265 105.08 129.68 103.558 129.542C101.33 129.334 99.1155 130.137 96.998 129.431C90.784 127.369 84.4453 130.04 78.4112 127.466C74.9789 125.999 71.6712 128.809 68.6957 126.567C66.4813 124.906 64.4884 122.941 62.1218 121.487C61.0008 120.795 56.0739 117.778 55.9355 121.211C55.8109 124.214 61.8312 126.733 63.921 127.854C70.398 131.369 75.7817 136.42 81.3729 141.167C85.2065 144.42 88.7217 149.001 94.1192 148.682C100.901 148.267 102.658 150.911 109.066 148.696C109.855 148.419 114.768 142.897 113.952 142.759H113.938Z" fill="black"/>
<path d="M112.857 161.58C112.76 161.58 112.677 161.58 112.58 161.553C112.373 161.525 111.722 161.027 111.473 160.833C111.307 160.708 111.169 160.612 111.113 160.584C110.463 160.252 109.715 160.141 108.996 160.03C108.747 159.989 108.511 159.961 108.276 159.906C106.823 159.629 105.619 159.255 104.484 158.757C103.335 158.245 102.256 157.456 101.204 156.709C99.5986 155.546 97.938 154.328 95.9451 154.024L95.8758 153.844L95.5852 153.733C95.4883 153.719 95.4744 153.664 95.4744 153.609C95.3221 152.169 96.1802 149.623 97.7164 149.028C97.841 148.972 97.9933 148.959 98.1732 148.959C98.5331 148.959 98.9482 149.055 99.3357 149.166C99.5848 149.235 99.8201 149.291 100.028 149.318C100.65 149.415 101.259 149.457 101.896 149.457C103.363 149.457 104.761 149.208 106.228 148.931C106.56 148.875 106.892 148.834 107.238 148.834C108.345 148.834 109.342 149.152 110.394 149.484C111.487 149.83 112.608 150.19 113.895 150.19H114.546C115.819 150.19 116.386 150.398 116.608 151.754C116.857 153.304 116.262 158.549 114.407 160.722C113.923 161.29 113.397 161.58 112.843 161.58H112.857Z" fill="white"/>
<path d="M107.252 149.179C108.304 149.179 109.273 149.484 110.311 149.816C111.418 150.176 112.581 150.536 113.923 150.536H114.117C114.269 150.536 114.435 150.536 114.573 150.536C115.764 150.536 116.11 150.702 116.29 151.823C116.539 153.373 115.888 158.493 114.172 160.514C113.757 161.012 113.328 161.248 112.871 161.248C112.802 161.248 112.719 161.248 112.664 161.248C112.47 161.192 111.875 160.735 111.681 160.583C111.487 160.431 111.335 160.334 111.28 160.306C110.574 159.947 109.771 159.822 109.051 159.711C108.816 159.67 108.581 159.642 108.346 159.601C106.92 159.324 105.73 158.964 104.623 158.466C103.516 157.968 102.491 157.234 101.412 156.445C99.8065 155.283 98.1596 154.079 96.1252 153.719L96.0421 153.483L95.8067 153.442C95.7375 152.113 96.568 149.857 97.8274 149.373C97.9105 149.345 98.0212 149.318 98.1596 149.318C98.4779 149.318 98.8655 149.415 99.2391 149.511C99.5021 149.581 99.7511 149.636 99.9725 149.678C100.609 149.774 101.246 149.816 101.896 149.816C103.391 149.816 104.803 149.553 106.283 149.29C106.602 149.235 106.92 149.207 107.238 149.207L107.252 149.179ZM107.252 148.487C106.906 148.487 106.547 148.515 106.173 148.584C104.678 148.861 103.336 149.096 101.91 149.096C101.329 149.096 100.72 149.055 100.097 148.958C99.5436 148.875 98.8239 148.598 98.1734 148.598C97.9658 148.598 97.772 148.626 97.5921 148.695C95.9313 149.345 94.9625 152.044 95.1425 153.636C95.1701 153.885 95.3362 154.023 95.53 154.065C95.5854 154.217 95.6961 154.328 95.8899 154.369C99.1007 154.867 101.412 157.788 104.346 159.089C105.591 159.642 106.879 160.002 108.221 160.265C109.121 160.445 110.131 160.486 110.961 160.915C111.114 160.985 112.11 161.856 112.525 161.912C112.636 161.926 112.747 161.939 112.857 161.939C116.137 161.939 117.3 153.857 116.954 151.712C116.691 150.065 115.847 149.844 114.546 149.844C114.394 149.844 114.241 149.844 114.075 149.844C114.02 149.844 113.965 149.844 113.909 149.844C111.46 149.844 109.605 148.487 107.252 148.487Z" fill="black"/>
<path d="M99.8489 148.601C96.126 144.324 78.0791 130.775 73.8164 127.108C69.7337 123.606 65.2912 120.437 60.295 118.361C56.4476 116.783 51.2022 115.192 47.0226 116.216C43.2997 117.115 42.3033 119.094 41.1823 122.43C40.8224 123.523 40.5733 124.658 40.4487 125.793C40.1027 128.921 40.6564 132.118 42.2064 134.872C44.6007 139.134 49.0986 141.709 53.0983 144.227C57.7761 147.175 93.9809 155.991 95.9739 154.676C96.5136 154.316 97.1087 153.597 97.69 152.739C98.9909 150.995 99.5444 150.552 99.8627 148.601H99.8489Z" fill="black"/>
<path d="M111.779 149.458C111.779 149.458 109.509 148.932 109.495 148.932C107.751 149.79 107.336 151.949 107.931 154.122C108.249 155.284 109.135 156.225 109.634 157.319C110.312 158.772 110.865 160.1 111.848 161.387C112.318 162.01 113.163 161.221 112.747 160.612C110.644 157.512 111.128 153.817 111.876 150.357C112.014 149.707 112.111 149.015 111.806 149.444L111.779 149.458Z" fill="black"/>
<path d="M95.4893 150.926C91.5588 148.587 87.0333 147.535 82.5908 146.705C77.3732 145.736 72.2387 144.85 67.1872 143.175C61.2914 141.21 55.3957 138.913 50.3857 135.148C46.732 132.408 43.5488 129.142 40.4487 125.807C40.1027 128.934 40.6564 132.131 42.2064 134.885C44.6007 139.148 49.0986 141.722 53.0983 144.241C57.7761 147.189 93.9809 156.005 95.9739 154.69C96.5136 154.33 97.1087 153.611 97.69 152.753C97.0949 152.033 96.2367 151.382 95.5032 150.94L95.4893 150.926Z" fill="black"/>
<path d="M120.276 198.919C118.353 198.919 116.803 198.725 116.166 198.531C115.599 198.365 115.253 198.172 115.156 197.936C115.017 197.646 115.183 197.189 115.419 196.622C115.848 195.597 115.806 194.67 115.779 193.771C115.737 192.733 115.709 191.764 116.388 190.712C117.356 189.203 118.187 187.903 118.491 186.186C118.519 186.02 118.533 185.827 118.547 185.633C118.574 185.204 118.588 184.775 118.851 184.498C119.584 183.737 121.328 183.377 122.629 183.377C123.114 183.377 123.557 183.418 123.902 183.502L123.875 183.751L124.138 183.834C123.861 185.328 124.553 186.74 125.231 188.096C125.688 188.996 126.103 189.854 126.269 190.74C126.435 191.625 126.449 192.553 126.311 193.632C126.283 193.812 126.255 193.978 126.228 194.172C126.131 194.726 126.02 195.307 126.172 195.86C126.186 195.93 126.228 195.999 126.324 196.165C126.421 196.331 126.698 196.857 126.698 197.009C126.518 198.158 124.069 198.877 120.304 198.877L120.276 198.919Z" fill="white"/>
<path d="M122.615 183.751C122.961 183.751 123.266 183.778 123.543 183.82V183.972L123.723 184.069C123.57 185.605 124.248 186.975 124.913 188.29C125.356 189.176 125.771 190.006 125.923 190.837C126.075 191.695 126.089 192.58 125.965 193.632C125.951 193.798 125.909 193.978 125.882 194.144C125.785 194.712 125.674 195.348 125.84 195.985C125.868 196.096 125.923 196.192 126.02 196.372C126.089 196.511 126.283 196.871 126.338 197.037C126.117 197.784 124.179 198.573 120.304 198.573C118.422 198.573 116.9 198.379 116.291 198.199C115.626 198.005 115.502 197.826 115.488 197.784C115.405 197.604 115.64 197.051 115.765 196.746C116.221 195.653 116.18 194.642 116.152 193.743C116.111 192.719 116.083 191.847 116.706 190.878C117.647 189.411 118.533 188.013 118.851 186.242C118.879 186.062 118.893 185.854 118.906 185.647C118.92 185.287 118.948 184.913 119.114 184.733C119.668 184.152 121.162 183.723 122.643 183.723L122.615 183.751ZM122.615 183.059C121.162 183.059 119.377 183.446 118.588 184.276C118.104 184.789 118.242 185.591 118.145 186.145C117.854 187.778 117.052 189.051 116.097 190.532C114.768 192.622 115.986 194.393 115.1 196.497C114.63 197.646 114.408 198.393 116.069 198.877C116.816 199.099 118.477 199.279 120.276 199.279C123.307 199.279 126.74 198.781 127.016 197.106C127.072 196.801 126.518 195.943 126.491 195.819C126.311 195.155 126.56 194.407 126.643 193.715C126.767 192.691 126.781 191.708 126.601 190.712C126.186 188.387 124.041 186.283 124.456 183.861C124.484 183.709 124.401 183.612 124.276 183.557C124.29 183.405 124.207 183.266 123.986 183.211C123.612 183.114 123.141 183.072 122.629 183.072L122.615 183.059Z" fill="black"/>
<path d="M116.208 194.879C116.208 194.879 116.208 194.866 116.208 194.852C116.803 193.675 117.786 192.457 119.654 192.582C120.651 192.651 121.508 193.094 122.45 193.288C123.723 193.551 124.872 193.745 126.02 194.215C126.574 194.437 125.979 195.046 125.439 194.852C122.685 193.883 119.612 194.589 116.775 195.433C116.236 195.585 115.862 195.101 116.208 194.866V194.879Z" fill="black"/>
<path d="M131.861 144.239C131.459 139.755 131.196 134.814 128.941 130.967C127.487 128.476 125.328 126.649 122.907 125.625C122.021 125.251 121.107 124.988 120.166 124.836C117.966 124.49 115.696 124.338 113.869 125.583C113.329 125.943 112.817 126.441 112.347 127.078C110.091 130.22 109.344 135.396 109.122 139.354C108.832 144.516 109.537 149.651 110.645 154.633C111.793 159.837 116.028 180.956 117.827 185.952C117.869 186.091 118.256 186.174 118.838 186.201C119.613 186.243 120.747 186.201 121.965 186.008C122.796 185.869 123.557 185.662 124 185.371C125.688 184.222 132.317 149.498 131.861 144.253V144.239Z" fill="black"/>
<path d="M118.823 186.203C118.242 186.175 117.868 186.078 117.813 185.954C116.014 180.958 111.779 159.838 110.63 154.635C109.537 149.652 108.817 144.518 109.108 139.355C109.343 135.397 110.076 130.235 112.332 127.08C112.789 126.443 113.301 125.945 113.855 125.585C113.813 125.862 112.346 137.847 113.26 144.158C114.173 150.538 119.529 182.494 118.823 186.203Z" fill="black"/>
<path d="M110.479 48.8982C108.818 46.407 107.752 43.6944 107.309 40.7466C107.143 39.6809 105.524 40.0684 105.676 41.1203C106.147 44.2065 107.268 47.0852 108.998 49.687C109.593 50.5728 111.074 49.7978 110.479 48.912V48.8982Z" fill="black"/>
<path d="M108.76 74.3481C108.304 74.2651 107.875 74.1129 107.792 74.0022C107.667 73.8084 107.501 73.7115 107.321 73.7115C107.21 73.7115 107.114 73.753 107.031 73.8222L105.965 72.978L106.394 67.6636L106.837 64.4528C107.792 64.3836 110.933 64.1621 112.511 64.1621C113.12 64.1621 113.258 64.1898 113.286 64.2036L114.158 64.7295C113.867 66.2519 113.549 67.8712 113.466 68.0649C113.383 68.2172 112.04 70.2654 111.169 71.6079L108.774 74.3481H108.76Z" fill="white"/>
<path d="M112.498 64.5074C112.885 64.5074 113.065 64.5074 113.134 64.5351L113.757 64.9088C113.508 66.2512 113.231 67.6214 113.134 67.9258C112.927 68.258 111.681 70.1817 110.892 71.3996L108.636 73.9876C108.374 73.9323 108.138 73.8492 108.083 73.8215C107.834 73.4617 107.543 73.3787 107.336 73.3787C107.253 73.3787 107.169 73.3925 107.086 73.4202L106.339 72.8251L106.754 67.7459L107.156 64.7981C108.332 64.715 111.086 64.5212 112.526 64.5212L112.498 64.5074ZM112.498 63.8154C110.616 63.8154 106.519 64.1337 106.519 64.1337L106.035 67.6352L105.592 73.1296L107.1 74.3198C107.1 74.3198 107.17 74.0568 107.308 74.0568C107.363 74.0568 107.419 74.0983 107.488 74.1952C107.737 74.5689 108.872 74.7211 108.872 74.7211L111.418 71.801C111.418 71.801 113.605 68.4656 113.73 68.2165C113.868 67.9812 114.491 64.5489 114.491 64.5489C114.491 64.5489 113.813 64.1337 113.384 63.8846C113.301 63.8293 112.954 63.8154 112.47 63.8154H112.498Z" fill="black"/>
<path d="M111.875 114.789C111.308 114.789 110.782 114.789 110.27 114.748C107.433 114.595 104.443 114.291 103.71 114.208C103.419 113.668 102.52 111.62 101.703 109.669C102.257 109.489 103.572 109.129 105.039 108.727C107.806 107.966 111.972 106.804 116.18 105.503C121.923 103.759 126.269 102.195 129.106 100.853C130.877 100.008 133.881 98.0431 134.517 97.1989C134.586 97.102 134.669 96.936 134.614 96.673C134.31 95.0399 128.815 90.0853 125.092 87.7326C124.165 87.1375 123.404 86.7223 122.753 86.4731C122.324 86.2794 121.868 83.1516 122.753 79.1658C123.238 76.9653 124.788 71.8584 128.732 71.8584C129.701 71.8584 130.753 72.1629 131.888 72.758L131.929 72.8133L132.04 72.8549C140.953 77.5604 148.911 88.6598 149.395 97.0882C149.603 100.728 148.371 103.579 145.81 105.337C136.302 111.869 120.235 114.803 111.862 114.803L111.875 114.789Z" fill="#FFBCB0"/>
<path d="M124.663 90.0979C122.947 89.4198 111.696 84.562 107.461 77.4761C105.537 74.2514 101.731 66.6811 105.606 63.9547C111.82 59.5952 125.009 65.8646 134.365 70.833C134.102 78.5556 131.528 84.908 124.663 90.0841V90.0979Z" fill="#FF5225"/>
<path d="M91.0052 118.234C90.8807 118.234 90.7561 118.179 90.6454 118.096C90.3547 117.846 90.2026 117.528 90.1887 117.113C90.1472 115.95 91.1713 114.4 91.8771 113.722C92.6106 113.016 93.5795 112.421 94.7559 111.951C94.9081 111.84 94.9773 111.798 95.0326 111.771L95.1987 111.66L95.6001 111.369L95.1848 111.093L95.0326 110.996C95.0326 110.996 94.8942 110.913 94.8389 110.871C94.4513 110.553 94.0223 109.944 93.9946 109.363C93.9808 109.072 94.0639 108.823 94.2438 108.615C94.3961 108.449 94.5759 108.366 94.8111 108.366C95.2402 108.366 95.7661 108.657 96.2367 108.906C96.4166 109.003 96.5965 109.1 96.7487 109.169C97.5376 109.529 98.714 110.013 99.9319 110.068C100.776 110.027 101.551 109.792 102.312 109.556C102.548 109.487 102.797 109.404 103.032 109.335C103.157 109.307 103.281 109.266 103.419 109.21C103.835 109.072 104.305 108.934 104.72 108.934C104.942 108.934 105.122 108.975 105.26 109.072C105.703 109.349 106.201 110.304 106.326 110.94C106.464 111.605 106.063 112.158 105.592 112.712C105.316 113.044 104.79 113.556 104.181 113.971C103.406 114.663 102.409 115.438 101.191 115.646C100.97 115.687 100.748 115.687 100.541 115.687H100.389L100.223 115.798C99.489 116.615 98.6032 117.182 97.5514 117.487C97.5375 117.487 97.5238 117.487 97.4961 117.487C97.1778 117.487 97.0531 117.293 97.0255 117.099L96.9841 116.739L96.6242 116.795C96.555 116.795 96.4719 116.808 96.4027 116.808C96.292 116.808 96.1814 116.795 96.0983 116.753C95.9461 116.698 95.8215 116.587 95.7246 116.393L95.6278 116.227H95.434C95.1988 116.199 94.9911 116.158 94.825 116.103C94.1745 115.853 93.7456 115.328 93.6902 114.705L93.6071 113.861L93.0673 114.525C92.3892 115.369 91.8495 116.449 91.4066 117.929C91.3236 118.22 91.0883 118.248 91.0052 118.248V118.234Z" fill="#FFBCB0"/>
<path d="M106.699 108.591L103.475 109.546V114.127C103.475 114.127 104.014 113.822 105.08 114.002C106.16 114.182 109.246 113.255 108.886 111.871C108.526 110.487 106.686 108.605 106.686 108.605L106.699 108.591Z" fill="#FFBCB0"/>
<path d="M101.37 49.4517L101.315 50.6142C101.315 50.6142 100.886 52.9946 100.941 53.4375C100.983 53.8804 99.1836 54.1433 99.1005 53.6174C99.0175 53.0915 99.0176 50.7249 99.0176 50.7249C99.0176 50.7249 99.1836 49.6454 99.4465 49.6454C99.7095 49.6454 100.443 49.4102 100.443 49.4102L101.384 49.4655L101.37 49.4517Z" fill="#FFBCB0"/>
<path d="M95.0469 118.042L116.747 119.357L96.0571 125.156L95.0469 118.042Z" fill="white"/>
<path d="M95.4473 118.403L114.671 119.565L96.3329 124.7L95.4335 118.403H95.4473ZM94.6445 117.655L95.7656 125.585L118.822 119.122L94.6445 117.655Z" fill="black"/>
<path d="M96.1113 125.848L118.49 119.579L118.587 121.157L96.1113 128.035V125.848Z" fill="white"/>
<path d="M118.172 120.034L118.228 120.92L96.4578 127.577V126.124L118.172 120.034ZM118.809 119.135L95.752 125.598V128.504L118.933 121.418L118.809 119.135Z" fill="black"/>
<path d="M46.2754 124.853V122.943L95.4202 125.919V128.133L46.2754 124.853Z" fill="white"/>
<path d="M46.6217 123.316L95.0745 126.25V127.772L46.6217 124.533V123.329V123.316ZM45.9297 122.582V125.17L95.7665 128.505V125.599L45.9297 122.582Z" fill="black"/>
<path d="M46.2328 122.251L42.5237 96.2048C42.4683 95.7481 42.6067 95.2775 42.9112 94.9315C43.2157 94.5855 43.6586 94.3779 44.1291 94.3779L90.0632 97.1459C90.8383 97.1874 91.4748 97.7825 91.5717 98.5575L95.3499 125.213L46.2051 122.237L46.2328 122.251Z" fill="white"/>
<path d="M44.1436 94.7232H44.2268L90.0639 97.4912C90.6728 97.5327 91.1849 98.0032 91.2541 98.6122L94.9769 124.852L46.5379 121.918L42.8703 96.1626C42.8288 95.7889 42.9258 95.4291 43.1749 95.1523C43.424 94.8755 43.7699 94.7094 44.1298 94.7094L44.1436 94.7232ZM44.1436 94.0312C42.9673 94.0312 42.0399 95.0692 42.1922 96.2594L45.929 122.583L95.7659 125.6L91.9184 98.5292C91.7938 97.5881 91.0327 96.8684 90.0777 96.813L44.2406 94.0451C44.2406 94.0451 44.1574 94.0451 44.1159 94.0451L44.1436 94.0312Z" fill="black"/>
<path d="M65.0289 5.77062C64.7125 5.69582 64.4766 5.40236 64.4766 5.06288L64.5053 1.00051C64.5053 0.603478 64.8333 0.28125 65.2361 0.28125C65.6331 0.287004 65.9553 0.609232 65.9553 1.01202L65.9265 5.07438C65.9265 5.47141 65.5986 5.79364 65.1958 5.79364C65.1383 5.79364 65.0807 5.78789 65.0289 5.77062Z" fill="#FF5225"/>
<path d="M58.1529 7.0714C57.9745 7.02537 57.8134 6.91604 57.7098 6.74917L55.529 3.23344C55.3161 2.89395 55.4254 2.45089 55.7649 2.23799C56.1044 2.02508 56.5475 2.13441 56.7604 2.4739L58.9412 5.98963C59.1541 6.32912 59.0447 6.77219 58.7052 6.98509C58.5326 7.09441 58.337 7.11743 58.1529 7.0714Z" fill="#FF5225"/>
<path d="M53.5023 12.3996C53.462 12.3881 53.416 12.3766 53.3757 12.3593L49.5895 10.6619C49.227 10.5008 49.0602 10.0692 49.227 9.70672C49.3939 9.34422 49.8196 9.17735 50.1822 9.34422L53.9684 11.0417C54.3309 11.2028 54.4977 11.6343 54.3309 11.9968C54.187 12.3191 53.836 12.4859 53.5023 12.4054V12.3996Z" fill="#FF5225"/>
<path d="M48.4046 21.0521C48.0996 20.9773 47.8637 20.7068 47.8522 20.3731C47.835 19.9761 48.1514 19.6366 48.5485 19.6251L51.9836 19.5042C52.3806 19.4927 52.7144 19.8034 52.7317 20.2005C52.7432 20.5975 52.4325 20.9312 52.0355 20.9485L48.6002 21.0693C48.5312 21.0693 48.4679 21.0693 48.4046 21.0463V21.0521Z" fill="#FF5225"/>
<path d="M72.3878 7.18268C72.313 7.16542 72.2382 7.13089 72.1692 7.09061C71.8354 6.87771 71.7376 6.4289 71.9505 6.09516L74.1831 2.61395C74.396 2.27446 74.8448 2.1824 75.1843 2.3953C75.518 2.6082 75.6158 3.05701 75.4029 3.39075L73.1704 6.87196C72.9977 7.13664 72.6813 7.25748 72.3936 7.18268H72.3878Z" fill="#FF5225"/>
<path d="M76.9552 12.5772C76.7423 12.5255 76.5524 12.3759 76.4603 12.1572C76.305 11.7889 76.4719 11.3631 76.8401 11.2078L80.6493 9.57362C81.0176 9.41826 81.4434 9.58513 81.5987 9.95339C81.7541 10.3217 81.5872 10.7475 81.219 10.9028L77.4098 12.537C77.2602 12.6003 77.099 12.6118 76.9552 12.5772Z" fill="#FF5225"/>
<path d="M78.4869 21.1314C78.1531 21.0509 77.9172 20.7459 77.9345 20.3949C77.9517 19.9979 78.2912 19.6872 78.694 19.7102L82.1291 19.8828C82.5262 19.9058 82.8369 20.2396 82.8139 20.6423C82.7909 21.0394 82.4571 21.3501 82.0543 21.3271L78.6249 21.1545C78.5789 21.1545 78.5329 21.1429 78.4926 21.1372L78.4869 21.1314Z" fill="#FF5225"/>
<path d="M55.215 18.0704C55.2514 12.4815 59.808 7.98396 65.3969 8.01579C70.9858 8.05217 75.4834 12.6088 75.4515 18.1977C75.447 19.1163 75.3151 20.0031 75.0832 20.849C75.0832 20.849 74.6011 24.2323 71.436 26.6107C69.9899 27.6976 69.7853 29.3483 69.6079 30.1441C69.4306 30.9399 68.3937 32.0677 65.2468 32.0496C62.0999 32.0314 61.0767 30.8854 60.9085 30.0896C60.7402 29.2937 60.5583 27.6384 59.1259 26.5334C55.9926 24.1141 55.5515 20.7262 55.5515 20.7262C55.3287 19.8803 55.2104 18.989 55.215 18.0704Z" fill="#FF8160"/>
<path d="M65.1337 34.5565C66.3661 34.5656 67.1574 34.3291 67.6485 34.0244L67.6349 35.8571C67.6258 37.194 66.5389 38.2673 65.2019 38.2582C63.8695 38.2491 62.7917 37.1622 62.8008 35.8252L62.8099 34.0972C63.3011 34.3564 64.0423 34.5474 65.1292 34.5519L65.1337 34.5565Z" fill="black"/>
<path d="M61.0455 30.4609L61.0273 33.2941C61.0273 33.4214 61.0319 33.5442 61.041 33.6669C61.0683 33.9944 61.1319 34.3127 61.232 34.6174C61.4366 35.2495 61.7868 35.8179 62.2415 36.2772C63.001 37.0458 64.0469 37.5233 65.2065 37.5278C67.071 37.5369 68.6581 36.3409 69.2175 34.6674C69.3175 34.3673 69.3857 34.0489 69.4175 33.7215C69.4266 33.5987 69.4357 33.476 69.4357 33.3486L69.4539 30.5155C69.0583 31.2477 67.9078 32.0617 65.2384 32.0435C62.5644 32.0253 61.4275 31.1976 61.041 30.4609H61.0455Z" fill="white"/>
<path d="M60.986 31.2848L61.0406 31.1211C61.4271 31.8578 62.564 32.6855 65.2379 32.7036C67.9073 32.7218 69.0533 31.9078 69.4535 31.1802L69.5035 31.3439C69.5354 31.4349 69.5354 31.5304 69.5081 31.6259L69.449 31.8396C69.0533 32.5763 67.9028 33.3903 65.2334 33.3721C62.5594 33.3539 61.4226 32.5263 61.036 31.7896L60.9769 31.5668C60.9496 31.4758 60.9542 31.3758 60.986 31.2848Z" fill="black"/>
<path d="M60.9821 32.5341L61.0367 32.3704V32.3477C61.4232 33.0844 62.5601 33.912 65.234 33.9302C67.908 33.9484 69.054 33.1344 69.4496 32.4022V32.425L69.4996 32.5841C69.5269 32.6751 69.5315 32.7751 69.5042 32.8661L69.4405 33.0844V33.0707C69.0403 33.8029 67.8898 34.6078 65.2249 34.5941C62.5555 34.576 61.4186 33.7528 61.0321 33.0161V33.0343L60.973 32.8115C60.9457 32.7206 60.9503 32.6205 60.9821 32.5296V32.5341Z" fill="black"/>
<path d="M60.9998 33.8665L61.0452 33.7209C61.0452 33.7209 61.0452 33.6891 61.0407 33.6709C61.4409 34.3985 62.5869 35.2034 65.2199 35.2216C67.8529 35.2398 69.008 34.4485 69.4218 33.7209C69.4218 33.7391 69.4173 33.7573 69.4173 33.7755L69.4627 33.921C69.49 34.012 69.4946 34.112 69.4673 34.203L69.2354 34.6304C69.2354 34.6304 69.2263 34.6577 69.2217 34.6714C68.6897 35.3035 67.5164 35.9037 65.2199 35.8901C62.9552 35.8765 61.791 35.2807 61.2544 34.6486C61.2499 34.6395 61.2408 34.6304 61.2317 34.6213C61.2317 34.6213 61.2226 34.5941 61.2226 34.585L60.9907 34.1484C60.9679 34.0574 60.9679 33.9574 60.9998 33.8665Z" fill="black"/>
</svg>
