<svg width="222" height="198" viewBox="0 0 222 198" fill="none" xmlns="http://www.w3.org/2000/svg">
<path d="M158.168 135.538C144.812 139.231 119.576 164.966 135.22 177.035C150.869 189.105 197.606 124.637 158.168 135.538Z" fill="#ECF2FA"/>
<path d="M161.781 131.637C105.15 143.148 122.139 172.53 84.3512 179.453C33.3699 188.79 9.46359 112.553 41.4236 65.5036C66.9652 27.9031 111.024 16.0265 150.064 31.4691C205.207 53.2817 206.476 122.555 161.776 131.642L161.781 131.637Z" fill="#ECF2FA"/>
<mask id="mask0_1984_10248" style="mask-type:luminance" maskUnits="userSpaceOnUse" x="25" y="64" width="170" height="117">
<path d="M194.714 64.5332H25.2402V180.241H194.714V64.5332Z" fill="white"/>
</mask>
<g mask="url(#mask0_1984_10248)">
<path d="M94.627 166.079H187.272V243.825H94.627V166.079ZM185.928 167.415H95.9667V242.484H185.928V167.415Z" fill="#1A120E"/>
<path d="M57.2773 166.079H161.333V243.825H57.2773V166.079ZM159.989 167.415H58.6222V242.484H159.989V167.415Z" fill="#1A120E"/>
<path d="M192.464 161.142H50.9766V166.155H192.464V161.142Z" fill="#333333"/>
<path d="M192.463 161.142H157.156V166.155H192.463V161.142Z" fill="#1A120E"/>
<path d="M151.695 161.039H137.585L132.47 134.462C131.65 130.205 134.925 126.253 139.276 126.253C142.597 126.253 145.45 128.605 146.076 131.856L151.695 161.034V161.039Z" fill="#757575"/>
<path d="M151.899 161.005L149.933 150.789L149.897 150.586L149.856 150.383L149.601 149.057L149.489 148.483L148.751 144.638L146.285 131.831C145.638 128.489 142.694 126.056 139.281 126.056C137.146 126.056 135.139 126.995 133.779 128.636C132.419 130.277 131.869 132.421 132.271 134.508L134.222 144.632L134.961 148.478L135.073 149.052L135.328 150.378L135.369 150.581L135.404 150.784L136.866 158.383L136.882 158.465L136.922 158.673L136.963 158.876L136.978 158.957L137.34 160.837L137.376 161.04L137.416 161.243H151.945L151.894 161L151.899 161.005ZM137.758 160.837L137.396 158.957L137.381 158.876L137.34 158.673L137.299 158.465L137.284 158.383L135.822 150.784L135.781 150.581L135.741 150.378L135.486 149.052L135.379 148.478L134.635 144.632L132.669 134.432C132.292 132.461 132.806 130.445 134.09 128.9C135.374 127.356 137.259 126.467 139.271 126.467C142.485 126.467 145.261 128.753 145.873 131.903L148.323 144.632L149.067 148.478L149.179 149.052L149.433 150.378L149.469 150.581L149.51 150.784L151.445 160.832H137.758V160.837Z" fill="#1A120E"/>
<path d="M137.386 155.106L137.951 155L133.942 134.188C133.636 132.598 134.054 130.972 135.088 129.723C136.122 128.473 137.646 127.757 139.271 127.757C141.868 127.757 144.11 129.601 144.599 132.146L146.993 144.581L147.559 144.474L145.164 132.039C144.624 129.225 142.144 127.183 139.271 127.183C137.472 127.183 135.786 127.975 134.645 129.357C133.504 130.738 133.04 132.537 133.377 134.294L137.386 155.106Z" fill="#1A120E"/>
<path d="M148.67 158.672H111.305V161.044H148.67V158.672Z" fill="#757575"/>
<path d="M111.096 158.464V161.248H148.873V158.464H111.096ZM148.461 160.836H111.513V158.875H148.461V160.836Z" fill="#1A120E"/>
<path d="M141.95 158.383H111.305V158.957H141.95V158.383Z" fill="#1A120E"/>
<path d="M93.2961 150.58H173.843C175.993 150.58 177.796 148.96 178.02 146.831L183.114 98.3091C183.374 95.8404 181.428 93.6865 178.937 93.6865H98.3902C96.2405 93.6865 94.4372 95.307 94.2131 97.4354L89.119 145.958C88.8592 148.431 90.8051 150.58 93.2961 150.58Z" fill="#757575"/>
<path d="M182.213 94.9313C181.378 94.0119 180.186 93.4785 178.943 93.4785H98.396C96.1342 93.4785 94.2494 95.1701 94.0151 97.4103L88.9211 145.932C88.7886 147.167 89.1961 148.406 90.0316 149.331C90.867 150.255 92.059 150.784 93.3019 150.784H173.849C176.111 150.784 177.996 149.092 178.23 146.847L180.95 120.92L183.324 98.3246C183.451 97.0852 183.049 95.8508 182.219 94.9263L182.213 94.9313ZM182.911 98.2891L180.532 120.925L177.817 146.806C177.608 148.838 175.902 150.377 173.849 150.377H93.3019C92.1711 150.377 91.0911 149.895 90.3372 149.056C89.5833 148.223 89.2165 147.096 89.3337 145.978L94.4277 97.456C94.6366 95.4241 96.3482 93.89 98.396 93.89H178.943C180.074 93.89 181.154 94.3726 181.908 95.2056C182.662 96.0438 183.028 97.1664 182.911 98.284V98.2891Z" fill="#1A120E"/>
<path d="M181.149 98.1067L176.264 144.632H91.2441L96.1803 97.6444C96.2974 96.5116 97.25 95.6582 98.3911 95.6582H178.938C179.575 95.6582 180.161 95.9173 180.589 96.3897C181.011 96.8621 181.215 97.4717 181.149 98.1067Z" fill="#CFE0FA"/>
<path d="M181.149 98.1067L176.264 144.632H124.029L129.19 95.6582H178.938C179.575 95.6582 180.161 95.9173 180.589 96.3897C181.011 96.8621 181.215 97.4717 181.149 98.1067Z" fill="white"/>
<path d="M93.2978 149.051H173.845C173.937 149.051 174.023 149.051 174.11 149.036L174.054 148.467C173.982 148.472 173.916 148.477 173.845 148.477H93.2978C92.6967 148.477 92.1466 148.233 91.7441 147.786C91.3417 147.344 91.1583 146.77 91.2194 146.176L96.3135 97.659C96.4256 96.5922 97.317 95.7947 98.3919 95.7947V95.2207C97.0216 95.2207 95.8856 96.2468 95.743 97.6031L90.6489 146.12C90.5725 146.877 90.8068 147.609 91.3213 148.177C91.8358 148.746 92.5388 149.056 93.3029 149.056L93.2978 149.051Z" fill="#1A120E"/>
<path d="M99.1719 122.022H123.236L125.768 98.0254H101.699L99.1719 122.022Z" fill="#333333"/>
<path d="M121.367 120.382L115.789 106.448L110.664 115.246L108.209 110.593L101.424 120.321L121.367 120.382Z" fill="#FF5225"/>
<path d="M109.9 104.823C109.818 105.681 110.45 106.372 111.311 106.362C112.172 106.352 112.936 105.651 113.017 104.792C113.099 103.934 112.467 103.248 111.606 103.253C110.745 103.263 109.981 103.964 109.9 104.823Z" fill="white"/>
<path d="M121.646 120.499L121.891 120.28L103.287 99.5498L103.043 99.7733L121.646 120.499Z" fill="white"/>
<path d="M101.081 120.499L124.051 99.7733L123.852 99.5498L100.883 120.28L101.081 120.499Z" fill="white"/>
<path d="M101.377 120.692C101.886 120.692 101.968 120.58 101.983 120.463C101.993 120.351 101.937 120.234 101.428 120.234C100.918 120.234 100.832 120.351 100.821 120.463C100.811 120.58 100.867 120.692 101.377 120.692Z" fill="white"/>
<path d="M103.078 120.692C103.587 120.692 103.669 120.58 103.684 120.463C103.694 120.351 103.638 120.234 103.129 120.234C102.619 120.234 102.533 120.351 102.523 120.463C102.512 120.58 102.568 120.692 103.078 120.692Z" fill="white"/>
<path d="M104.779 120.692C105.288 120.692 105.37 120.58 105.385 120.463C105.395 120.351 105.339 120.234 104.83 120.234C104.32 120.234 104.234 120.351 104.224 120.463C104.214 120.58 104.27 120.692 104.779 120.692Z" fill="white"/>
<path d="M106.48 120.692C106.99 120.692 107.071 120.58 107.086 120.463C107.096 120.351 107.04 120.234 106.531 120.234C106.022 120.234 105.935 120.351 105.925 120.463C105.915 120.58 105.971 120.692 106.48 120.692Z" fill="white"/>
<path d="M108.181 120.692C108.691 120.692 108.772 120.58 108.787 120.463C108.798 120.351 108.742 120.234 108.232 120.234C107.723 120.234 107.641 120.351 107.626 120.463C107.616 120.58 107.672 120.692 108.181 120.692Z" fill="white"/>
<path d="M109.884 120.692C110.394 120.692 110.475 120.58 110.491 120.463C110.501 120.351 110.445 120.234 109.935 120.234C109.426 120.234 109.344 120.351 109.329 120.463C109.319 120.58 109.375 120.692 109.884 120.692Z" fill="white"/>
<path d="M111.586 120.692C112.095 120.692 112.176 120.58 112.192 120.463C112.202 120.351 112.146 120.234 111.637 120.234C111.127 120.234 111.046 120.351 111.03 120.463C111.02 120.58 111.076 120.692 111.586 120.692Z" fill="white"/>
<path d="M113.287 120.692C113.796 120.692 113.878 120.58 113.893 120.463C113.903 120.351 113.847 120.234 113.338 120.234C112.828 120.234 112.747 120.351 112.732 120.463C112.721 120.58 112.777 120.692 113.287 120.692Z" fill="white"/>
<path d="M114.994 120.692C115.503 120.692 115.585 120.58 115.6 120.463C115.61 120.351 115.554 120.234 115.045 120.234C114.535 120.234 114.449 120.351 114.439 120.463C114.428 120.58 114.484 120.692 114.994 120.692Z" fill="white"/>
<path d="M116.695 120.692C117.204 120.692 117.286 120.58 117.301 120.463C117.311 120.351 117.255 120.234 116.746 120.234C116.237 120.234 116.155 120.351 116.14 120.463C116.13 120.58 116.186 120.692 116.695 120.692Z" fill="white"/>
<path d="M118.395 120.692C118.905 120.692 118.986 120.58 119.001 120.463C119.012 120.351 118.956 120.234 118.446 120.234C117.937 120.234 117.855 120.351 117.84 120.463C117.825 120.58 117.886 120.692 118.395 120.692Z" fill="white"/>
<path d="M120.097 120.692C120.607 120.692 120.688 120.58 120.703 120.463C120.714 120.351 120.658 120.234 120.148 120.234C119.639 120.234 119.552 120.351 119.542 120.463C119.532 120.58 119.588 120.692 120.097 120.692Z" fill="white"/>
<path d="M121.497 120.778L121.625 120.692C121.66 120.692 121.696 120.692 121.732 120.692H121.961L121.997 120.403C121.997 120.397 121.997 120.392 121.997 120.382L122.17 120.225H122.007C122.022 119.874 121.925 119.818 121.823 119.818C121.717 119.818 121.615 119.874 121.553 120.25C121.385 120.276 121.253 120.331 121.238 120.463C121.222 120.596 121.34 120.651 121.503 120.677L121.492 120.778H121.497Z" fill="white"/>
<path d="M121.885 119.284C121.997 119.284 122.124 119.213 122.175 118.705C122.231 118.192 122.119 118.126 122.007 118.126C121.89 118.126 121.773 118.197 121.717 118.705C121.66 119.213 121.767 119.284 121.885 119.284Z" fill="white"/>
<path d="M122.064 117.588C122.176 117.588 122.299 117.517 122.355 117.009C122.411 116.501 122.299 116.43 122.187 116.43C122.074 116.43 121.952 116.501 121.896 117.009C121.84 117.517 121.947 117.588 122.064 117.588Z" fill="white"/>
<path d="M122.242 115.886C122.354 115.886 122.481 115.815 122.532 115.307C122.588 114.794 122.476 114.728 122.364 114.728C122.252 114.728 122.13 114.799 122.074 115.307C122.018 115.815 122.125 115.886 122.242 115.886Z" fill="white"/>
<path d="M122.42 114.189C122.532 114.189 122.659 114.118 122.71 113.61C122.766 113.102 122.654 113.031 122.542 113.031C122.425 113.031 122.308 113.102 122.252 113.61C122.196 114.118 122.303 114.189 122.42 114.189Z" fill="white"/>
<path d="M122.598 112.493C122.71 112.493 122.832 112.422 122.888 111.914C122.944 111.406 122.832 111.335 122.72 111.335C122.608 111.335 122.485 111.406 122.429 111.914C122.373 112.422 122.48 112.493 122.598 112.493Z" fill="white"/>
<path d="M122.777 110.796C122.889 110.796 123.017 110.725 123.068 110.217C123.124 109.709 123.012 109.638 122.899 109.638C122.782 109.638 122.665 109.709 122.609 110.217C122.553 110.725 122.66 110.796 122.777 110.796Z" fill="white"/>
<path d="M122.961 109.1C123.073 109.1 123.2 109.028 123.251 108.521C123.307 108.007 123.195 107.941 123.083 107.941C122.971 107.941 122.849 108.013 122.793 108.521C122.737 109.028 122.844 109.1 122.961 109.1Z" fill="white"/>
<path d="M123.139 107.402C123.251 107.402 123.373 107.331 123.429 106.823C123.485 106.315 123.373 106.244 123.261 106.244C123.149 106.244 123.026 106.315 122.97 106.823C122.914 107.331 123.021 107.402 123.139 107.402Z" fill="white"/>
<path d="M123.316 105.707C123.428 105.707 123.556 105.636 123.607 105.128C123.663 104.615 123.551 104.549 123.439 104.549C123.321 104.549 123.204 104.62 123.148 105.128C123.092 105.636 123.199 105.707 123.316 105.707Z" fill="white"/>
<path d="M123.494 104.009C123.606 104.009 123.728 103.938 123.784 103.43C123.84 102.922 123.728 102.851 123.616 102.851C123.504 102.851 123.382 102.922 123.326 103.43C123.27 103.938 123.377 104.009 123.494 104.009Z" fill="white"/>
<path d="M123.674 102.308C123.786 102.308 123.913 102.236 123.964 101.729C124.02 101.215 123.908 101.149 123.796 101.149C123.684 101.149 123.562 101.221 123.506 101.729C123.45 102.236 123.557 102.308 123.674 102.308Z" fill="white"/>
<path d="M122.517 99.966C123.027 99.966 123.108 99.8491 123.123 99.7374C123.134 99.6205 123.078 99.5088 122.568 99.5088C122.059 99.5088 121.977 99.6205 121.962 99.7374C121.952 99.8491 122.008 99.966 122.517 99.966Z" fill="white"/>
<path d="M120.816 99.966C121.325 99.966 121.407 99.8491 121.422 99.7374C121.438 99.6205 121.376 99.5088 120.867 99.5088C120.358 99.5088 120.276 99.6205 120.261 99.7374C120.251 99.8491 120.307 99.966 120.816 99.966Z" fill="white"/>
<path d="M119.115 99.966C119.624 99.966 119.706 99.8491 119.721 99.7374C119.731 99.6205 119.675 99.5088 119.166 99.5088C118.656 99.5088 118.575 99.6205 118.56 99.7374C118.549 99.8491 118.605 99.966 119.115 99.966Z" fill="white"/>
<path d="M117.412 99.966C117.921 99.966 118.003 99.8491 118.018 99.7374C118.028 99.6205 117.972 99.5088 117.463 99.5088C116.953 99.5088 116.872 99.6205 116.857 99.7374C116.846 99.8491 116.902 99.966 117.412 99.966Z" fill="white"/>
<path d="M115.707 99.966C116.216 99.966 116.298 99.8491 116.313 99.7374C116.323 99.6205 116.267 99.5088 115.758 99.5088C115.248 99.5088 115.167 99.6205 115.151 99.7374C115.141 99.8491 115.197 99.966 115.707 99.966Z" fill="white"/>
<path d="M114.006 99.966C114.52 99.966 114.596 99.8491 114.612 99.7374C114.622 99.6205 114.566 99.5088 114.056 99.5088C113.547 99.5088 113.466 99.6205 113.45 99.7374C113.44 99.8491 113.496 99.966 114.006 99.966Z" fill="white"/>
<path d="M112.302 99.966C112.812 99.966 112.893 99.8491 112.909 99.7374C112.919 99.6205 112.863 99.5088 112.353 99.5088C111.844 99.5088 111.762 99.6205 111.747 99.7374C111.737 99.8491 111.793 99.966 112.302 99.966Z" fill="white"/>
<path d="M110.601 99.966C111.111 99.966 111.192 99.8491 111.207 99.7374C111.218 99.6205 111.162 99.5088 110.652 99.5088C110.143 99.5088 110.061 99.6205 110.046 99.7374C110.036 99.8491 110.092 99.966 110.601 99.966Z" fill="white"/>
<path d="M108.9 99.966C109.415 99.966 109.496 99.8491 109.506 99.7374C109.516 99.6205 109.46 99.5088 108.951 99.5088C108.442 99.5088 108.36 99.6205 108.345 99.7374C108.335 99.8491 108.391 99.966 108.9 99.966Z" fill="white"/>
<path d="M107.199 99.966C107.713 99.966 107.795 99.8491 107.805 99.7374C107.815 99.6205 107.759 99.5088 107.25 99.5088C106.74 99.5088 106.659 99.6205 106.644 99.7374C106.633 99.8491 106.689 99.966 107.199 99.966Z" fill="white"/>
<path d="M105.498 99.966C106.012 99.966 106.094 99.8491 106.104 99.7374C106.114 99.6205 106.058 99.5088 105.549 99.5088C105.039 99.5088 104.958 99.6205 104.942 99.7374C104.932 99.8491 104.988 99.966 105.498 99.966Z" fill="white"/>
<path d="M103.797 99.966C104.311 99.966 104.387 99.8491 104.403 99.7374C104.413 99.6205 104.357 99.5088 103.847 99.5088C103.338 99.5088 103.257 99.6205 103.241 99.7374C103.231 99.8491 103.287 99.966 103.797 99.966Z" fill="white"/>
<path d="M102.986 101.353C103.103 101.353 103.22 101.281 103.276 100.773C103.332 100.265 103.225 100.194 103.108 100.194C102.991 100.194 102.869 100.265 102.818 100.773C102.767 101.281 102.874 101.353 102.986 101.353Z" fill="white"/>
<path d="M102.808 103.055C102.925 103.055 103.042 102.984 103.098 102.476C103.154 101.968 103.047 101.896 102.93 101.896C102.813 101.896 102.691 101.968 102.64 102.476C102.584 102.984 102.696 103.055 102.808 103.055Z" fill="white"/>
<path d="M102.63 104.751C102.747 104.751 102.865 104.68 102.921 104.172C102.972 103.664 102.87 103.593 102.753 103.593C102.635 103.593 102.513 103.664 102.462 104.172C102.406 104.685 102.518 104.751 102.63 104.751Z" fill="white"/>
<path d="M102.451 106.447C102.568 106.447 102.685 106.376 102.741 105.868C102.797 105.36 102.69 105.289 102.573 105.289C102.456 105.289 102.334 105.36 102.283 105.868C102.232 106.376 102.339 106.447 102.451 106.447Z" fill="white"/>
<path d="M102.273 108.145C102.39 108.145 102.507 108.073 102.563 107.565C102.619 107.057 102.512 106.986 102.395 106.986C102.278 106.986 102.156 107.057 102.105 107.565C102.049 108.078 102.161 108.145 102.273 108.145Z" fill="white"/>
<path d="M102.095 109.842C102.212 109.842 102.329 109.771 102.385 109.263C102.442 108.755 102.335 108.684 102.217 108.684C102.1 108.684 101.978 108.755 101.927 109.263C101.871 109.771 101.983 109.842 102.095 109.842Z" fill="white"/>
<path d="M101.917 111.538C102.035 111.538 102.152 111.467 102.208 110.959C102.259 110.451 102.157 110.38 102.04 110.38C101.922 110.38 101.8 110.451 101.749 110.959C101.693 111.472 101.805 111.538 101.917 111.538Z" fill="white"/>
<path d="M101.734 113.234C101.851 113.234 101.968 113.163 102.024 112.655C102.08 112.147 101.973 112.076 101.856 112.076C101.739 112.076 101.617 112.147 101.566 112.655C101.51 113.163 101.622 113.234 101.734 113.234Z" fill="white"/>
<path d="M101.554 114.937C101.671 114.937 101.788 114.865 101.844 114.357C101.9 113.849 101.794 113.778 101.676 113.778C101.559 113.778 101.437 113.849 101.386 114.357C101.33 114.865 101.442 114.937 101.554 114.937Z" fill="white"/>
<path d="M101.376 116.628C101.494 116.628 101.611 116.557 101.667 116.049C101.723 115.541 101.616 115.47 101.499 115.47C101.381 115.47 101.259 115.541 101.208 116.049C101.152 116.557 101.264 116.628 101.376 116.628Z" fill="white"/>
<path d="M101.199 118.329C101.316 118.329 101.433 118.258 101.489 117.75C101.545 117.242 101.438 117.171 101.321 117.171C101.204 117.171 101.081 117.242 101.031 117.75C100.974 118.258 101.087 118.329 101.199 118.329Z" fill="white"/>
<path d="M101.021 120.025C101.138 120.025 101.255 119.954 101.311 119.446C101.367 118.938 101.26 118.867 101.143 118.867C101.026 118.867 100.904 118.938 100.853 119.446C100.797 119.954 100.909 120.025 101.021 120.025Z" fill="white"/>
<path d="M100.145 121.021H101.683L101.846 119.487H100.308L100.145 121.021Z" fill="white"/>
<path d="M100.17 119.335L99.9766 121.179H101.826L102.019 119.335H100.17ZM101.551 120.869H100.323L100.45 119.645H101.678L101.551 120.869Z" fill="white"/>
<path d="M120.908 121.229H122.452L122.61 119.695H121.071L120.908 121.229Z" fill="white"/>
<path d="M120.928 119.543L120.734 121.387H122.589L122.782 119.543H120.928ZM122.308 121.077H121.081L121.208 119.858H122.436L122.308 121.077Z" fill="white"/>
<path d="M102.326 100.352H103.865L104.028 98.8184H102.489L102.326 100.352Z" fill="white"/>
<path d="M102.346 98.6602L102.152 100.509H104.001L104.195 98.6602H102.346ZM103.726 100.199H102.499L102.626 98.9751H103.854L103.726 100.199Z" fill="white"/>
<path d="M123.094 100.505H124.637L124.795 98.9707H123.257L123.094 100.505Z" fill="white"/>
<path d="M123.113 98.8184L122.92 100.662H124.774L124.968 98.8184H123.113ZM124.494 100.352H123.266L123.394 99.1282H124.621L124.494 100.352Z" fill="white"/>
<path d="M120.373 130.851H98.1581L98.0664 131.709H120.282L120.373 130.851Z" fill="#1A120E"/>
<path d="M105.55 127.817H98.4745L98.3828 128.681H105.464L105.55 127.817Z" fill="#1A120E"/>
<path d="M113.568 127.817H108.617L108.525 128.681H113.477L113.568 127.817Z" fill="#1A120E"/>
<path d="M113.629 124.79H98.7948L98.7031 125.654H113.542L113.629 124.79Z" fill="#1A120E"/>
<path d="M122.946 124.79H115.621L115.529 125.654H122.855L122.946 124.79Z" fill="#1A120E"/>
<path d="M117.035 140.151H97.1737L97.082 141.01H116.944L117.035 140.151Z" fill="#1A120E"/>
<path d="M104.57 137.118H97.494L97.4023 137.982H104.478L104.57 137.118Z" fill="#1A120E"/>
<path d="M120.689 137.118H107.633L107.541 137.982H120.597L120.689 137.118Z" fill="#1A120E"/>
<path d="M112.65 134.091H97.8112L97.7246 134.954H112.558L112.65 134.091Z" fill="#1A120E"/>
<path d="M121.961 134.091H114.635L114.549 134.954H121.874L121.961 134.091Z" fill="#1A120E"/>
<path d="M149.8 161.222C149.8 161.222 148.485 154.126 142.388 154.126C135.618 154.126 132.638 158.109 131.008 161.151L149.8 161.222Z" fill="#1A120E"/>
<path d="M57.3955 202.785C63.7528 204.914 75.3265 203.806 87.3281 203.806C99.3296 203.806 122.721 205.361 129.67 202.242C134.626 200.022 145.966 192.519 138.055 181.775C130.144 171.032 63.8445 168.924 56.8911 168.654C49.9378 168.38 40.3457 197.076 57.3904 202.79L57.3955 202.785Z" fill="#1A120E"/>
<path d="M49.2042 97.5473C49.2042 97.5473 49.194 97.532 49.1889 97.5219C48.5317 96.5415 45.5161 92.6961 45.1951 86.4886C44.9608 81.9523 50.1211 76.5881 60.2022 76.2122C65.4236 76.0191 64.6544 84.6192 65.4338 88.9421C66.31 93.7882 65.8464 101.413 62.1532 102.393C61.6998 102.515 60.9205 102.48 59.9577 102.332L57.7061 108.946C57.7061 108.946 49.5556 110.999 46.0968 105.487L49.2042 97.5524V97.5473Z" fill="#FFBCB0"/>
<path d="M63.1306 79.875C62.6466 80.1442 61.1388 80.8605 61.1388 80.8605C61.1388 80.8605 61.0318 84.8075 60.5581 86.3111C60.0843 87.8147 61.2152 90.8524 58.3727 87.134C55.5302 83.4156 59.1827 91.8988 54.5267 95.409C49.8708 98.9242 48.6787 100.235 48.6787 100.235C48.6787 100.235 47.8535 98.2638 46.417 97.8777C44.9805 97.4917 40.6098 92.9961 39.9781 86.7987C39.3465 80.6014 42.0055 78.2749 47.4409 76.7458C52.8762 75.2168 50.7266 73.0528 54.1141 72.1385C57.5067 71.2241 61.5463 66.7539 61.5463 66.7539C61.5463 66.7539 67.5879 77.4164 63.1306 79.875Z" fill="#1A120E"/>
<path d="M61.3476 107.301C71.1282 110.73 73.935 118.405 79.3093 140.584C84.6835 162.767 87.6686 165.007 89.4872 171.169C89.4872 171.169 74.3833 183.234 63.0796 203.827C63.0796 203.827 26.7896 207.591 29.1533 176.584C31.5169 145.577 27.2939 138.745 28.6846 127.173C30.0753 115.601 38.2003 105.421 44.8888 104.792C50.4005 104.268 53.7983 104.649 61.3476 107.296V107.301Z" fill="#2D2D2D"/>
<path d="M53.2684 91.7508C54.3127 93.5491 56.4115 94.2856 57.9601 93.3916C59.5036 92.4976 59.9111 90.3183 58.8668 88.5201C57.8225 86.7218 55.7238 85.9853 54.1752 86.8793C52.6317 87.7734 52.2242 89.9526 53.2684 91.7508Z" fill="#FFBCB0"/>
<path d="M57.5925 92.3405C57.6689 92.3202 57.7453 92.2897 57.8166 92.2491C58.3057 91.9494 58.4228 91.1518 58.4381 91.0604L57.8676 90.9842C57.8421 91.1823 57.7198 91.6344 57.5161 91.7563C57.4753 91.7817 57.4193 91.802 57.3123 91.7665C57.1187 91.7005 57.1035 91.6243 57.0627 91.3195C57.0169 90.9639 56.9506 90.4762 56.3597 90.0343C55.942 89.7244 55.5243 89.6279 55.1932 89.5568C54.6889 89.445 54.5717 89.4146 54.6023 88.9015C54.6125 88.7288 54.6838 88.5916 54.8162 88.4748C55.2594 88.0887 56.2578 88.0684 56.6042 88.0938L56.645 87.5198C56.5839 87.5198 55.1524 87.4182 54.4393 88.043C54.1897 88.2614 54.0521 88.5408 54.0318 88.8659C53.9706 89.8717 54.5564 90.0038 55.0709 90.1156C55.3664 90.1816 55.7026 90.2578 56.0184 90.4965C56.4158 90.7963 56.4565 91.0858 56.4973 91.3957C56.538 91.7208 56.5941 92.1221 57.1289 92.31C57.2919 92.3659 57.4499 92.3761 57.6027 92.3456L57.5925 92.3405Z" fill="#1A120E"/>
<path d="M121.804 116.988C117.097 117.603 115.202 118.004 113.811 123.754C113.276 125.969 113.103 128.087 113.093 129.86C112.803 130.094 112.492 130.343 112.181 130.597C112.12 130.637 112.064 130.678 112.013 130.734C112.013 130.734 112.013 130.734 112.008 130.739C108.85 133.32 104.795 136.804 101.361 139.817C100.154 140.761 98.9468 141.706 97.765 142.656C94.1176 138.704 89.7418 134.224 89.7418 134.224C79.7218 125.177 64.618 139.4 71.337 148.173C78.0561 156.951 89.263 164.164 95.4726 165.327C96.14 165.454 96.7818 165.409 97.3982 165.236C99.3441 165.088 101.463 163.94 103.598 161.324C109.578 153.979 118.212 136.388 119.272 134.203C119.486 133.878 119.69 133.579 119.883 133.309C119.97 133.193 120.021 133.06 120.056 132.923C120.118 132.827 120.153 132.725 120.158 132.619C120.265 131.156 120.418 130.404 120.668 129.982C121.875 127.955 121.412 126.076 120.576 124.648C121.259 124.775 121.921 124.918 122.441 125.1C124.137 125.705 126.185 125.319 126.587 124.587C126.99 123.861 124.111 122.855 124.111 122.855C124.111 122.855 128.39 124.095 127.535 122.037C126.679 119.975 122.043 120.107 120.169 120.33C119.95 120.356 119.746 120.391 119.552 120.427C120.668 119.863 122.165 119.497 122.777 119.172C123.821 118.619 126.506 116.363 121.799 116.973L121.804 116.988Z" fill="#FFBCB0"/>
<path d="M54.6698 110.801C51.5573 112.838 48.6588 116.363 51.3841 124.968C54.1094 133.573 64.7407 147.167 74.8473 155.909C74.8473 155.909 92.977 146.913 91.5405 134.224C91.5405 134.224 76.0138 116.947 70.0538 112.381C64.0989 107.809 58.1032 108.561 54.6698 110.806V110.801Z" fill="#2D2D2D"/>
<path d="M70.8688 141.839C72.29 141.839 73.2223 141.615 73.2528 141.61L73.1153 141.051C73.0389 141.072 65.0922 142.931 60.3445 135.271L59.8555 135.57C63.1819 140.934 68.011 141.834 70.8739 141.834L70.8688 141.839Z" fill="white"/>
<path d="M74.9583 156.408L75.1315 156.326C75.2028 156.296 82.0848 153.009 86.9395 147.228L86.4963 146.858C82.1511 152.034 76.1452 155.178 75.055 155.722C73.4555 154.264 59.075 140.909 53.2169 128.418L52.6973 128.662C58.9171 141.93 74.6577 156.138 74.8156 156.281L74.9583 156.408Z" fill="white"/>
<path d="M143.031 109.602H135.583C134.982 109.602 134.544 109.114 134.61 108.515L135.395 101.088C135.456 100.489 135.996 100.001 136.597 100.001H144.044C144.645 100.001 145.083 100.489 145.017 101.088L144.233 108.515C144.172 109.114 143.632 109.602 143.025 109.602H143.031Z" fill="#2D2D2D"/>
<path d="M141.477 103.435C141.386 104.39 140.576 105.167 139.669 105.167C138.762 105.167 138.1 104.4 138.197 103.445C138.289 102.49 139.099 101.713 140.005 101.708C140.912 101.708 141.574 102.475 141.477 103.43V103.435Z" fill="white"/>
<path d="M137.26 107.368C137.382 106.088 138.375 106.001 139.593 105.996C140.81 105.996 141.788 106.072 141.661 107.352L137.26 107.368Z" fill="white"/>
<path d="M141.416 124.943H133.968C133.367 124.943 132.929 124.455 132.99 123.856L133.775 116.429C133.836 115.829 134.376 115.342 134.982 115.342H142.429C143.03 115.342 143.469 115.829 143.407 116.429L142.623 123.856C142.562 124.455 142.022 124.943 141.416 124.943Z" fill="#2D2D2D"/>
<path d="M139.856 118.776C139.765 119.731 138.955 120.508 138.048 120.513C137.141 120.513 136.479 119.746 136.576 118.791C136.667 117.836 137.477 117.059 138.384 117.054C139.291 117.054 139.953 117.821 139.856 118.776Z" fill="white"/>
<path d="M135.639 122.713C135.761 121.433 136.754 121.342 137.972 121.342C139.189 121.342 140.162 121.418 140.04 122.698L135.639 122.713Z" fill="white"/>
<path d="M139.796 140.283H132.349C131.748 140.283 131.31 139.796 131.371 139.196L132.155 131.77C132.217 131.17 132.756 130.683 133.363 130.683H140.81C141.411 130.683 141.849 131.17 141.783 131.77L140.999 139.196C140.938 139.796 140.398 140.283 139.791 140.283H139.796Z" fill="#2D2D2D"/>
<path d="M138.243 134.117C138.151 135.072 137.341 135.849 136.435 135.849C135.528 135.849 134.866 135.082 134.963 134.127C135.054 133.172 135.864 132.395 136.771 132.39C137.678 132.39 138.34 133.157 138.243 134.112V134.117Z" fill="white"/>
<path d="M134.025 138.053C134.148 136.773 135.146 136.682 136.358 136.682C137.576 136.682 138.554 136.758 138.427 138.038L134.025 138.053Z" fill="white"/>
<g opacity="0.5">
<path d="M176.055 109.398H146.275V109.805H176.055V109.398Z" fill="#1A120E"/>
</g>
<g opacity="0.5">
<path d="M174.063 124.252H144.283V124.658H174.063V124.252Z" fill="#1A120E"/>
</g>
<g opacity="0.5">
<path d="M173.188 139.38H143.408V139.786H173.188V139.38Z" fill="#1A120E"/>
</g>
<g opacity="0.5">
<path d="M158.767 106.68L158.838 105.862H147.906L147.84 106.68H158.767Z" fill="#1A120E"/>
</g>
<g opacity="0.5">
<path d="M157.192 104.216L157.264 103.398H148.054L147.982 104.216H157.192Z" fill="#1A120E"/>
</g>
<g opacity="0.5">
<path d="M170.655 106.68L170.727 105.862H159.8L159.729 106.68H170.655Z" fill="#1A120E"/>
</g>
<g opacity="0.5">
<path d="M169.087 104.216L169.153 103.398H159.943L159.877 104.216H169.087Z" fill="#1A120E"/>
</g>
<g opacity="0.5">
<path d="M154.722 101.839L154.788 101.021H148.446L148.375 101.839H154.722Z" fill="#1A120E"/>
</g>
<g opacity="0.5">
<path d="M156.393 101.839L156.464 101.021H155.216L155.145 101.839H156.393Z" fill="#1A120E"/>
</g>
<g opacity="0.5">
<path d="M166.612 101.839L166.683 101.021H160.336L160.27 101.839H166.612Z" fill="#1A120E"/>
</g>
<g opacity="0.5">
<path d="M168.283 101.839L168.355 101.021H167.106L167.035 101.839H168.283Z" fill="#1A120E"/>
</g>
<g opacity="0.5">
<path d="M156.748 122.545L156.814 121.728H145.888L145.816 122.545H156.748Z" fill="#1A120E"/>
</g>
<g opacity="0.5">
<path d="M155.175 120.077L155.241 119.259H146.031L145.965 120.077H155.175Z" fill="#1A120E"/>
</g>
<g opacity="0.5">
<path d="M168.637 122.545L168.703 121.728H157.776L157.705 122.545H168.637Z" fill="#1A120E"/>
</g>
<g opacity="0.5">
<path d="M167.064 120.077L167.13 119.259H157.92L157.854 120.077H167.064Z" fill="#1A120E"/>
</g>
<g opacity="0.5">
<path d="M152.698 117.705L152.769 116.887H146.422L146.355 117.705H152.698Z" fill="#1A120E"/>
</g>
<g opacity="0.5">
<path d="M154.369 117.705L154.44 116.887H153.192L153.121 117.705H154.369Z" fill="#1A120E"/>
</g>
<g opacity="0.5">
<path d="M164.593 117.705L164.659 116.887H158.312L158.246 117.705H164.593Z" fill="#1A120E"/>
</g>
<g opacity="0.5">
<path d="M166.264 117.705L166.33 116.887H165.082L165.016 117.705H166.264Z" fill="#1A120E"/>
</g>
<g opacity="0.5">
<path d="M154.727 138.404L154.793 137.586H143.866L143.795 138.404H154.727Z" fill="#1A120E"/>
</g>
<g opacity="0.5">
<path d="M153.153 135.94L153.22 135.122H144.01L143.943 135.94H153.153Z" fill="#1A120E"/>
</g>
<g opacity="0.5">
<path d="M166.616 138.404L166.687 137.586H155.756L155.689 138.404H166.616Z" fill="#1A120E"/>
</g>
<g opacity="0.5">
<path d="M165.042 135.94L165.113 135.122H155.903L155.832 135.94H165.042Z" fill="#1A120E"/>
</g>
<g opacity="0.5">
<path d="M150.681 133.563L150.747 132.745H144.4L144.334 133.563H150.681Z" fill="#1A120E"/>
</g>
<g opacity="0.5">
<path d="M152.354 133.563L152.42 132.745H151.172L151.105 133.563H152.354Z" fill="#1A120E"/>
</g>
<g opacity="0.5">
<path d="M162.572 133.563L162.638 132.745H156.296L156.225 133.563H162.572Z" fill="#1A120E"/>
</g>
<g opacity="0.5">
<path d="M164.242 133.563L164.308 132.745H163.06L162.994 133.563H164.242Z" fill="#1A120E"/>
</g>
<g opacity="0.3">
<path d="M183.319 98.3293L180.945 120.924H132.964C129.551 120.924 127.076 118.166 127.437 114.762L129.419 95.6574L129.602 93.8947L129.623 93.6915L129.643 93.4883H178.943C180.191 93.4883 181.383 94.0166 182.214 94.9411C183.049 95.8656 183.452 97.1 183.319 98.3395V98.3293Z" fill="#1A120E"/>
</g>
</g>
<path d="M127.814 113.506C126.077 113.506 124.508 112.831 123.403 111.607C122.287 110.372 121.773 108.726 121.956 106.984L126.011 67.8797C126.332 64.8116 129.098 62.3174 132.175 62.3174H191.347C192.85 62.3174 194.2 62.9016 195.158 63.9582C196.121 65.0249 196.564 66.4422 196.406 67.9458L192.351 107.05C191.974 110.611 188.765 113.506 185.194 113.506H127.814Z" fill="white"/>
<path d="M191.343 62.6377C194.262 62.6377 196.376 64.9947 196.07 67.9055L192.02 107.01C191.659 110.413 188.602 113.171 185.189 113.171H127.81C124.397 113.171 121.921 110.413 122.278 107.01L126.327 67.9055C126.633 64.9947 129.246 62.6377 132.165 62.6377H191.338H191.343ZM191.343 61.9824H132.17C128.931 61.9824 126.017 64.6087 125.675 67.8394L121.621 106.944C121.427 108.782 121.967 110.515 123.149 111.82C124.32 113.116 125.976 113.832 127.81 113.832H185.189C188.923 113.832 192.28 110.804 192.672 107.081L196.727 67.9766C196.895 66.3764 196.422 64.8728 195.398 63.735C194.379 62.6072 192.937 61.9824 191.343 61.9824Z" fill="#CFE0FA"/>
<path d="M185.19 113.178H127.81C124.397 113.178 121.922 110.42 122.278 107.016L126.328 67.9123C126.634 65.0016 129.247 62.6445 132.166 62.6445H191.338C194.257 62.6445 196.371 65.0016 196.066 67.9123L192.016 107.016C191.654 110.42 188.598 113.178 185.185 113.178H185.19Z" fill="white"/>
<path d="M185.673 64.4365C185.408 64.4365 185.173 64.6499 185.143 64.914C185.117 65.1782 185.306 65.3915 185.571 65.3915C185.836 65.3915 186.07 65.1782 186.101 64.914C186.126 64.6499 185.938 64.4365 185.673 64.4365Z" fill="#3E36C7"/>
<path d="M187.684 64.4365C187.42 64.4365 187.185 64.6499 187.155 64.914C187.129 65.1782 187.318 65.3915 187.583 65.3915C187.847 65.3915 188.082 65.1782 188.112 64.914C188.138 64.6499 187.949 64.4365 187.684 64.4365Z" fill="#FF5225"/>
<path d="M189.696 64.4365C189.431 64.4365 189.197 64.6499 189.166 64.914C189.141 65.1782 189.329 65.3915 189.594 65.3915C189.859 65.3915 190.093 65.1782 190.124 64.914C190.15 64.6499 189.961 64.4365 189.696 64.4365Z" fill="#2D2D2D"/>
<path d="M196.038 67.9062H144.41V68.5615H196.038V67.9062Z" fill="#CFE0FA"/>
<mask id="mask1_1984_10248" style="mask-type:luminance" maskUnits="userSpaceOnUse" x="118" y="53" width="79" height="61">
<path d="M191.343 62.6386H179.942L174.42 55.8266L167.691 53.7998C167.691 53.7998 164.033 59.8549 162.464 62.6386H132.17C129.251 62.6386 126.638 64.9956 126.332 67.9064L124.244 88.0731L118.6 88.6522C118.6 88.6522 121.096 95.769 122.924 100.828L122.283 107.011C121.926 110.414 124.402 113.172 127.815 113.172H185.194C188.607 113.172 191.664 110.414 192.025 107.011L196.075 67.9064C196.381 64.9956 194.267 62.6386 191.348 62.6386H191.343Z" fill="white"/>
</mask>
<g mask="url(#mask1_1984_10248)">
<path d="M182.295 113.462C175.163 111.628 162.214 109.414 152.724 111.319C143.234 113.223 144.064 125.943 151.991 128.28C160.131 130.678 169.27 132.608 179.809 132.984C190.354 133.36 194.001 116.48 182.29 113.467L182.295 113.462Z" fill="#1A120E"/>
<path d="M159.325 114.914C160.069 117.454 159.998 120.298 161.037 122.737C162.117 125.271 165.219 126.409 167.542 124.819C170.247 122.97 170.695 120.4 171.429 117.383C171.841 115.686 172.254 113.949 172.483 112.201C168.54 112.46 163.681 113.029 158.877 114.071C159.071 114.284 159.223 114.563 159.325 114.914Z" fill="#1A120E"/>
<path d="M161.673 97.9436C154.608 99.3862 147.501 104.248 144.017 104.776L144.032 104.725C144.032 104.725 142.825 105.116 139.081 102.983C135.342 100.849 133.681 102.378 133.681 102.378C133.681 102.378 132.056 103.953 131.812 104.888C131.639 105.553 133.544 108.189 134.568 108.723C135.301 109.109 136.325 109.084 136.274 108.261C136.223 107.458 136.829 107.367 137.084 107.306C137.385 107.234 137.772 107.458 138.032 107.646C138.032 107.656 138.042 107.671 138.047 107.682C138.088 107.808 138.139 107.925 138.2 108.027C138.169 108.083 138.128 108.134 138.088 108.184C137.436 108.931 136.402 110.023 136.463 110.719C136.524 111.415 137.008 110.927 137.38 110.684C137.751 110.445 138.679 109.937 139.188 109.708C139.662 109.495 141.501 109.485 142.188 108.88C142.428 108.84 142.616 108.794 142.733 108.769C146.518 108.677 158.174 113.777 164.256 110.16C168.993 107.341 165.565 97.1409 161.673 97.9334V97.9436Z" fill="#FFBCB0"/>
<path d="M134.008 108.174L135.984 105.568C135.984 105.568 134.431 107.016 134.008 108.174Z" fill="#1A120E"/>
<path d="M132.189 106.29L133.886 103.496C133.886 103.496 132.49 105.096 132.189 106.29Z" fill="#1A120E"/>
<path d="M133.029 107.442L134.98 104.12C134.98 104.12 133.33 106.223 133.029 107.442Z" fill="#1A120E"/>
<path d="M171.037 77.1013C176.213 80.9822 175.637 93.0366 168.011 109.119C168.011 109.119 162.622 106.315 155.943 99.2695C155.943 99.2695 157.736 92.1476 161.043 83.9285C164.349 75.7043 168.877 75.4808 171.032 77.1013H171.037Z" fill="#2D2D2D"/>
<path d="M155.448 97.2734C155.301 98.3046 155.117 99.4273 155.117 99.4273C155.117 99.4273 155.576 100.255 156.263 101.007C161.999 107.22 170.537 111.731 170.537 111.731L171.673 108.261C166.823 105.437 158.27 100.306 155.448 97.2785V97.2734Z" fill="#1A120E"/>
<path d="M170.359 111.832C169.437 111.395 161.251 106.656 156.142 101.124C155.444 100.367 154.99 99.5489 154.97 99.5134L154.939 99.4626L154.95 99.4067C154.95 99.4067 155.138 98.2688 155.281 97.2529L155.332 96.9023L155.571 97.1614C156.035 97.6592 156.6 98.1825 157.303 98.7615L157.089 99.0206C156.493 98.5279 155.989 98.0758 155.566 97.6389C155.454 98.4212 155.327 99.1832 155.291 99.3965C155.398 99.5845 155.811 100.27 156.386 100.89C161.46 106.386 169.59 111.09 170.502 111.522L170.354 111.827L170.359 111.832Z" fill="white"/>
<path d="M192.891 127.456C189.86 131.5 179.091 136.717 169.091 137.118C169.091 137.118 149.138 121.798 158.404 117.764C166.004 114.452 177.909 108.539 182.371 106.807C186.834 105.075 199.492 118.648 192.896 127.462L192.891 127.456Z" fill="#1A120E"/>
<path d="M177.547 73.9005C187.231 76.0442 197.47 102.622 194.256 120.528C194.256 120.528 177.69 122.915 162.535 110.719C162.535 110.719 162.606 106.386 166.086 102.18C166.086 102.18 165.362 86.9353 168.454 80.4281C171.547 73.9209 174.99 73.3367 177.542 73.9056L177.547 73.9005Z" fill="white"/>
<path d="M167.767 120.208C168.266 119.563 172.774 118.247 172.29 114.153C172.112 112.674 171.623 103.033 171.526 100.28C171.424 97.5316 170.345 79.5441 171.287 75.5361C169.611 75.8054 167.451 76.6892 166.086 79.5695C162.994 86.0767 166.529 95.8502 164.756 101.55C163.136 106.762 157.467 113.375 157.467 113.375C161.843 111.841 163.997 118.714 167.767 120.208Z" fill="#2D2D2D"/>
<path d="M171.526 114.99L171.195 114.929C171.536 113.004 171.195 111.622 169.717 106.995C168.189 102.22 166.921 87.275 166.906 87.1277L166.875 86.7569L167.176 86.9804C167.726 87.3919 168.444 87.9252 168.969 88.3113C168.648 87.7576 168.276 87.0769 168.169 86.8788L168.143 86.8331V86.7823C168.582 83.0588 170.848 76.4957 170.874 76.4297L171.195 76.5414C171.174 76.6075 168.933 83.074 168.495 86.7671C169.004 87.7068 169.585 88.7228 169.697 88.8294L169.809 88.9361L169.723 89.0682C169.677 89.1241 169.651 89.1546 169.483 89.0682L169.473 89.0784C169.473 89.0784 169.453 89.058 169.442 89.0428C169.172 88.8853 168.597 88.4586 167.288 87.4782C167.496 89.8302 168.668 102.586 170.049 106.898C171.551 111.587 171.893 112.999 171.536 114.995L171.526 114.99Z" fill="white"/>
<path d="M177.547 73.8955C177.547 73.8955 174.582 79.3258 175.138 84.0195C175.785 89.4854 174.037 96.0535 177.736 108.514C181.256 120.365 176.141 124.77 176.06 124.922C184.944 127.436 195.672 129.418 195.672 129.418C198.26 109.713 195.269 76.8265 177.547 73.8955Z" fill="#2D2D2D"/>
<path d="M179.192 120.828L178.861 120.772C179.08 119.492 179.355 118.634 179.595 117.872C180.17 116.048 180.629 114.605 180.165 108.682C179.554 100.819 177.593 86.8139 177.323 84.9039L176.156 85.3966L177.012 83.5831C177.817 78.7777 177.481 74.277 177.476 74.2363L177.812 74.2109C177.812 74.2567 178.158 78.8132 177.338 83.6644L177.323 83.7101L176.834 84.7515L177.593 84.4315L177.623 84.6499C177.644 84.8074 179.844 100.25 180.501 108.667C180.965 114.656 180.501 116.124 179.911 117.983C179.661 118.771 179.406 119.584 179.187 120.838L179.192 120.828Z" fill="white"/>
<path d="M186.09 81.9727L186.706 101.667C186.706 101.667 196.466 95.744 186.09 81.9727Z" fill="#1A120E"/>
<path d="M164.499 60.9368C163.562 63.0043 164.453 67.9723 167.775 71.005C171.101 74.0427 169.843 76.5521 169.843 76.5521C169.843 76.5521 177.199 73.7582 178.579 71.9142C178.579 71.9142 177.637 70.8272 177.285 69.0086C177.285 69.0086 178.1 70.37 179.379 71.0761C179.379 71.0761 181.447 71.391 182.756 68.9121C182.756 68.9121 179.043 67.3119 177.066 62.1915C175.09 57.0711 171.203 56.7816 169.328 57.1981C167.454 57.6096 165.36 59.0421 164.499 60.9368Z" fill="#1A120E"/>
<path d="M168.203 70.065L171.229 76.7399C171.229 76.7399 175.758 77.6847 177.546 73.9053L174.723 67.1035L168.203 70.0701V70.065Z" fill="#FFBCB0"/>
<path d="M169.707 73.3718L170.695 75.5307C175.198 75.0125 173.649 69.5924 173.629 69.6026C169.182 71.7208 169.707 73.3667 169.707 73.3667V73.3718Z" fill="#1A120E"/>
<path d="M169.534 73.7375C171.373 73.3159 174.169 70.0648 174.541 68.2209C174.674 67.5656 174.215 65.9959 173.798 65.2847C172.499 63.0496 171.398 61.0025 169.376 60.7587C168.525 60.6571 167.746 60.8298 167.048 61.1396C164.766 62.1708 163.472 64.1773 164.007 66.6156C164.603 69.3536 166.294 74.4792 169.534 73.7375Z" fill="#FFBCB0"/>
<path d="M166.873 69.5573C166.685 69.5268 165.753 69.3643 165.564 68.9579C165.523 68.8664 165.498 68.7293 165.6 68.5617C166.17 67.6422 165.905 66.5196 165.844 66.291C165.717 66.1792 165.172 65.7932 164.443 66.1386L164.301 65.8338C165.141 65.4427 165.854 65.8237 166.114 66.0827L166.145 66.1132L166.155 66.1538C166.175 66.2097 166.613 67.5914 165.89 68.7445C165.86 68.7903 165.87 68.8106 165.875 68.8207C165.956 69.0036 166.552 69.1712 166.929 69.2322L166.878 69.5624L166.873 69.5573Z" fill="#1A120E"/>
<path d="M173.455 64.7818C173.455 64.7818 170.72 62.5365 168.382 62.4298C168.382 62.4298 164.271 63.6693 163.904 65.8689C163.904 65.8689 162.386 61.4291 167.047 59.8341C171.581 58.2847 173.527 62.8058 173.455 64.7818Z" fill="#1A120E"/>
<path d="M168.657 62.5723L168.326 62.5063C168.591 61.1652 169.432 60.6065 169.467 60.5811L169.651 60.8604C169.651 60.8604 168.887 61.3735 168.657 62.5673V62.5723Z" fill="#2D2D2D"/>
<path d="M172.544 66.2758C172.651 67.2409 173.527 67.9368 174.495 67.8251C175.463 67.7184 176.156 66.8447 176.049 65.8795C175.942 64.9144 175.066 64.2235 174.098 64.3302C173.13 64.4369 172.437 65.3106 172.544 66.2758Z" fill="#FFBCB0"/>
<path d="M174.677 67.3579C174.642 67.3732 174.606 67.3782 174.565 67.3833C174.433 67.4036 174.311 67.3681 174.204 67.2817C173.954 67.0836 174.036 66.8652 174.087 66.7229C174.137 66.5807 174.173 66.474 174.061 66.2912C173.959 66.1388 173.822 66.0524 173.689 65.9661C173.48 65.834 173.164 65.641 173.45 65.1787C173.842 64.5386 174.998 65.0365 175.049 65.0619L174.912 65.3717C174.667 65.2651 173.934 65.0365 173.74 65.3565C173.633 65.5343 173.643 65.5444 173.873 65.6867C174.02 65.7832 174.209 65.8949 174.351 66.1134C174.56 66.4334 174.474 66.6772 174.413 66.8398C174.362 66.9769 174.367 66.982 174.423 67.0227C174.458 67.0481 174.489 67.0582 174.525 67.0531C174.647 67.0379 174.805 66.8804 174.871 66.7839L175.146 66.982C175.121 67.0125 174.932 67.2665 174.683 67.3579H174.677Z" fill="#1A120E"/>
<path d="M169.41 65.5692C167.907 65.0003 167.571 65.6301 167.571 65.6352L167.266 65.493C167.286 65.4524 167.714 64.5634 169.532 65.2542L169.41 65.5692Z" fill="#1A120E"/>
<path d="M166.961 70.8423C167.139 71.5738 167.832 72.0767 168.601 71.9904C169.432 71.8938 170.033 71.1471 169.936 70.3191C169.915 70.1413 169.859 69.9737 169.783 69.8213C168.866 70.2378 167.919 70.6087 166.961 70.8423Z" fill="#1A120E"/>
<path d="M167.919 71.869C167.919 71.869 167.929 71.9045 167.934 71.9198C168.143 71.9909 168.367 72.0214 168.602 71.996C169.432 71.8994 170.033 71.1527 169.936 70.3247C169.906 70.0504 167.624 70.7413 167.919 71.874V71.869Z" fill="#FF5225"/>
<path d="M168.989 66.1794C169.014 66.3978 168.856 66.5959 168.637 66.6213C168.418 66.6467 168.22 66.4892 168.194 66.2708C168.169 66.0524 168.327 65.8543 168.546 65.8289C168.765 65.8035 168.963 65.9609 168.989 66.1794Z" fill="#1A120E"/>
<path d="M165.448 66.9967C165.473 67.2152 165.315 67.4133 165.096 67.4387C164.877 67.4641 164.679 67.3066 164.653 67.0882C164.628 66.8698 164.786 66.6716 165.005 66.6462C165.224 66.6208 165.422 66.7783 165.448 66.9967Z" fill="#1A120E"/>
<path d="M173.353 69.2574C172.782 68.536 172.742 67.7791 172.706 67.0476C172.675 66.4178 172.645 65.8234 172.293 65.2545C171.937 64.6805 171.432 64.3249 170.943 63.9795C170.368 63.5731 169.777 63.1565 169.461 62.3946L169.772 62.2676C170.047 62.9381 170.571 63.3089 171.132 63.7052C171.646 64.0709 172.181 64.4468 172.573 65.0767C172.971 65.7218 173.006 66.3873 173.037 67.0324C173.073 67.7436 173.108 68.4141 173.613 69.0491L173.348 69.2574H173.353Z" fill="#1A120E"/>
<path d="M183.771 98.8676C179.971 97.3285 164.24 95.2813 162.733 95.0832C161.816 94.6616 160.216 93.798 158.107 92.1826C155.952 90.5317 154.277 90.4758 153.329 90.6587C153.202 90.6739 147.522 91.4715 146.213 92.6246C145.922 92.8786 146.111 93.5135 146.518 93.4018C148.113 92.97 152.565 92.4214 152.565 92.4214C152.565 92.4214 149.702 95.3626 149.977 95.7994C150.135 96.0484 151.266 96.8865 152.203 97.5571C152.876 98.0346 153.619 97.684 154.241 97.1405C154.995 96.4852 155.611 96.0585 155.871 96.0331C156.182 96.0026 156.533 96.2769 156.762 96.5005C156.762 96.5106 156.768 96.5259 156.773 96.5411C157.094 98.4409 159.656 98.5425 160.466 98.5273C163.981 99.5432 170.068 109.398 176.155 111.471C180.271 112.873 189.874 101.347 183.771 98.8778V98.8676Z" fill="#FFBCB0"/>
<path d="M152.025 97.3534L154.985 94.6104C154.985 94.6104 152.82 96.119 152.025 97.3534Z" fill="#D17F80"/>
<path d="M150.895 96.607L154.017 93.0918C154.017 93.0918 151.567 95.3015 150.895 96.607Z" fill="#D17F80"/>
<path d="M185.682 113.421C184.602 113.548 183.588 113.569 182.809 113.391L182.885 113.061C185.88 113.741 192.757 111.323 192.829 111.298L192.941 111.613C192.727 111.689 188.891 113.035 185.682 113.416V113.421Z" fill="#1A120E"/>
<path d="M182.167 76.3684C188.096 78.9591 189.813 90.9474 186.115 108.351C186.115 108.351 179.997 105.404 172.605 95.6817C172.605 95.6817 173.614 94.1375 174.933 85.3749C176.253 76.6122 179.691 75.2864 182.167 76.3684Z" fill="#2D2D2D"/>
<path d="M186.323 108.193L185.991 108.127C189.084 93.3808 189.038 84.9737 185.844 80.0159L186.129 79.833C189.379 84.8722 189.435 93.3554 186.323 108.199V108.193Z" fill="white"/>
<path d="M172.686 93.0908C172.431 94.1017 172.131 95.1989 172.131 95.1989C172.131 95.1989 172.498 96.0676 173.109 96.8854C178.167 103.657 186.19 109.026 186.19 109.026L187.678 105.694C183.149 102.387 175.172 96.3978 172.681 93.0908H172.686Z" fill="#1A120E"/>
<path d="M186.003 109.113C185.131 108.579 177.48 103.027 172.972 96.9922C172.356 96.1693 171.989 95.3057 171.974 95.2702L171.953 95.2143L171.968 95.1584C171.968 95.1584 172.274 94.0459 172.524 93.0503L172.61 92.71L172.824 92.9944C173.237 93.538 173.746 94.1171 174.383 94.7673L174.144 95.0009C173.604 94.4523 173.15 93.9494 172.773 93.4719C172.58 94.2339 172.376 94.9857 172.32 95.194C172.406 95.3921 172.748 96.1185 173.257 96.7941C177.735 102.788 185.33 108.3 186.191 108.828L186.013 109.118L186.003 109.113Z" fill="white"/>
<path d="M140.381 156.903C140.381 156.903 145.103 128.375 145.954 118.343C146.804 108.31 163.584 113.74 165.163 121.832C166.783 130.143 158.159 159.301 158.159 159.301L140.381 156.898V156.903Z" fill="#1A120E"/>
<path d="M144.834 155.065L144.508 154.983C145.725 150.092 146.306 142.711 146.866 135.568C147.564 126.659 148.226 118.246 150.086 116.103C153.356 112.334 154.884 111.907 154.951 111.892L155.037 112.217C155.037 112.217 153.519 112.664 150.346 116.321C148.558 118.378 147.906 126.74 147.208 135.594C146.647 142.746 146.067 150.142 144.839 155.06L144.834 155.065Z" fill="#2B173F"/>
<path d="M150.014 113.035C150.014 113.122 150.085 113.193 150.172 113.193L177.425 113.228C177.598 113.228 177.741 113.086 177.741 112.914V112.157L150.014 112.121V113.035Z" fill="#1A120E"/>
<path d="M174.186 111.825V112.145H175.159V111.719H174.293C174.236 111.719 174.186 111.764 174.186 111.825Z" fill="#1A120E"/>
<path d="M173.055 111.825V112.145H174.028V111.719H173.162C173.101 111.719 173.055 111.764 173.055 111.825Z" fill="#1A120E"/>
<path d="M171.924 111.825V112.145H172.897V111.719H172.031C171.97 111.719 171.924 111.764 171.924 111.825Z" fill="#1A120E"/>
<path d="M167.223 111.82V112.14H168.196V111.719H167.33C167.274 111.719 167.223 111.764 167.223 111.825V111.82Z" fill="#1A120E"/>
<path d="M166.092 111.816V112.136H167.065V111.709H166.199C166.143 111.709 166.092 111.755 166.092 111.816Z" fill="#1A120E"/>
<path d="M152.842 111.8V112.12H153.815V111.693H152.949C152.893 111.693 152.842 111.739 152.842 111.8Z" fill="#1A120E"/>
<path d="M151.717 111.8V112.12H152.69V111.693H151.824C151.763 111.693 151.717 111.739 151.717 111.8Z" fill="#1A120E"/>
<path d="M168.385 111.821V112.141H171.732V111.714H168.492C168.431 111.714 168.385 111.76 168.385 111.821Z" fill="#1A120E"/>
<path d="M148.049 111.795V112.115H151.396V111.688H148.156C148.095 111.688 148.049 111.734 148.049 111.795Z" fill="#1A120E"/>
<path d="M154.08 111.8V112.12L165.694 112.135V111.709L154.187 111.693C154.126 111.693 154.08 111.739 154.08 111.8Z" fill="#1A120E"/>
<path d="M148.313 111.689H145.954C145.822 111.689 145.715 111.796 145.715 111.928V112.116H148.42V111.801C148.42 111.745 148.374 111.695 148.313 111.695V111.689Z" fill="url(#paint0_linear_1984_10248)"/>
<path d="M145.059 111.685H142.7C142.568 111.685 142.461 111.791 142.461 111.924V112.106H145.166V111.786C145.166 111.73 145.12 111.68 145.059 111.68V111.685Z" fill="url(#paint1_linear_1984_10248)"/>
<path d="M141.797 111.685H139.439C139.306 111.685 139.199 111.791 139.199 111.923V112.106H141.904V111.791C141.904 111.73 141.858 111.685 141.797 111.685Z" fill="url(#paint2_linear_1984_10248)"/>
<path d="M138.543 111.68H136.185C136.052 111.68 135.945 111.786 135.945 111.918V112.106H138.65V111.786C138.65 111.725 138.604 111.68 138.543 111.68Z" fill="url(#paint3_linear_1984_10248)"/>
<path d="M134.703 111.674H133.47C133.337 111.674 133.23 111.781 133.23 111.913V112.101H134.81V111.786C134.81 111.725 134.764 111.679 134.703 111.679V111.674Z" fill="url(#paint4_linear_1984_10248)"/>
<path d="M132.781 111.669H131.548C131.416 111.669 131.309 111.776 131.309 111.908V112.091H132.888V111.771C132.888 111.715 132.842 111.664 132.781 111.664V111.669Z" fill="url(#paint5_linear_1984_10248)"/>
<path d="M130.978 111.669H129.745C129.613 111.669 129.506 111.776 129.506 111.908V112.091H131.085V111.771C131.085 111.715 131.039 111.664 130.978 111.664V111.669Z" fill="url(#paint6_linear_1984_10248)"/>
<path d="M152.296 91.8227C152.072 90.9642 151.252 90.2937 150.365 90.3038L156.621 113.071C156.621 113.071 157.68 112.716 157.405 111.558C157.171 110.587 153.503 96.4605 152.296 91.8227Z" fill="#1A120E"/>
<path d="M150.427 90.1L121.396 90.0645C120.989 90.0645 120.693 90.4454 120.79 90.8366L126.108 111.892L156.647 111.933L151.278 90.7655C151.181 90.3743 150.83 90.1 150.422 90.1H150.427Z" fill="#959595"/>
<path d="M156.835 112.075L125.991 112.035L125.965 111.923L120.647 90.8671C120.591 90.6385 120.642 90.3947 120.785 90.2067C120.933 90.0188 121.152 89.9121 121.391 89.9121L150.422 89.9477C150.896 89.9477 151.303 90.2677 151.42 90.7249L156.835 112.075ZM126.22 111.74L156.453 111.776L151.13 90.796C151.049 90.4709 150.758 90.2423 150.422 90.2423L121.391 90.2067C121.243 90.2067 121.106 90.2728 121.014 90.3896C120.922 90.5064 120.892 90.6538 120.927 90.796L126.215 111.74H126.22Z" fill="#1A120E"/>
<path d="M125.971 113.005C125.971 113.092 126.042 113.163 126.129 113.163L156.082 113.198C156.255 113.198 156.397 113.056 156.397 112.884V111.923L125.971 111.883V113V113.005Z" fill="#131313"/>
<path d="M156.051 111.944L156.051 112.305L177.395 112.331L177.395 111.97L156.051 111.944Z" fill="#131313"/>
<path d="M125.967 111.906L125.967 112.267L150.872 112.297L150.872 111.936L125.967 111.906Z" fill="#1A120E"/>
</g>
<path d="M118.069 50.1787H140.788C144.762 50.1787 147.986 53.3942 147.986 57.3564C147.986 61.3187 144.762 64.5342 140.788 64.5342H118.069C114.096 64.5342 110.871 61.3187 110.871 57.3564C110.871 53.3942 114.096 50.1787 118.069 50.1787Z" fill="#FF5225"/>
<path d="M128.232 63.8848L140.484 71.8854L139.495 63.8848H128.232Z" fill="#FF5225"/>
<path d="M124.294 57.0307C124.294 56.0503 123.499 55.2578 122.516 55.2578C121.533 55.2578 120.738 56.0503 120.738 57.0307C120.738 58.0111 121.533 58.8035 122.516 58.8035C123.499 58.8035 124.294 58.0111 124.294 57.0307Z" fill="white"/>
<path d="M131.206 57.0307C131.206 56.0503 130.411 55.2578 129.428 55.2578C128.445 55.2578 127.65 56.0503 127.65 57.0307C127.65 58.0111 128.445 58.8035 129.428 58.8035C130.411 58.8035 131.206 58.0111 131.206 57.0307Z" fill="white"/>
<path d="M138.12 57.0307C138.12 56.0503 137.325 55.2578 136.342 55.2578C135.359 55.2578 134.564 56.0503 134.564 57.0307C134.564 58.0111 135.359 58.8035 136.342 58.8035C137.325 58.8035 138.12 58.0111 138.12 57.0307Z" fill="white"/>
<path fill-rule="evenodd" clip-rule="evenodd" d="M60.4358 34.6484L58.5918 24.626L68.2195 28.0498L60.4358 34.6484Z" fill="#2D2D2D"/>
<path d="M60.6649 32.7137L58.7598 22.3408L68.7186 25.8814L60.6649 32.7137ZM59.0247 22.6558L60.8025 32.3277L68.3162 25.9576L59.0297 22.6558H59.0247Z" fill="#1A120E"/>
<path d="M34.7466 64.1176L34.772 64.1735L39.214 61.8927L35.098 59.2461L34.9452 59.4493C34.0894 60.8107 33.957 62.5784 34.7466 64.1176Z" fill="#FF5225"/>
<path d="M41.8223 47.2928C41.6032 47.5925 41.1855 47.6535 40.8849 47.4351C40.5844 47.2166 40.5233 46.8001 40.7423 46.5004C40.9614 46.2007 41.3791 46.1397 41.6796 46.3582C41.9802 46.5766 42.0413 46.9931 41.8223 47.2928Z" fill="#390D9F"/>
<path d="M66.8691 53.2411C66.6501 53.5408 66.2324 53.6017 65.9318 53.3833C65.6313 53.1649 65.5701 52.7483 65.7892 52.4486C66.0082 52.1489 66.4259 52.088 66.7265 52.3064C67.0219 52.5248 67.0882 52.9414 66.8691 53.2411Z" fill="#2D2D2D"/>
<path d="M94.3402 35.3046C93.9021 35.899 93.0667 36.026 92.4707 35.5942C91.8747 35.1573 91.7473 34.3242 92.1803 33.7299C92.6184 33.1356 93.4538 33.0086 94.0498 33.4403C94.6458 33.8772 94.7732 34.7103 94.3402 35.3046Z" fill="#FF5225"/>
<path d="M159.441 30.1677L169.486 31.127L170.448 21.1097L160.403 20.1505L159.441 30.1677Z" fill="#8A8A8A"/>
<path d="M167.476 29.7115L157.252 28.7361L158.23 18.541L168.454 19.5163L167.476 29.7115ZM157.446 28.5736L167.318 29.5184L168.265 19.6738L158.393 18.729L157.446 28.5736Z" fill="#1A120E"/>
<path d="M117.887 17.3579C117.769 17.7491 117.994 18.1605 118.386 18.2825C118.778 18.4044 119.191 18.1758 119.313 17.7846C119.43 17.3935 119.206 16.977 118.814 16.8601C118.421 16.7433 118.009 16.9668 117.887 17.3579Z" fill="#390D9F"/>
<path d="M124.417 42.0912C124.325 42.396 124.499 42.716 124.804 42.8074C125.11 42.8989 125.431 42.7262 125.523 42.4214C125.614 42.1166 125.441 41.7966 125.135 41.7051C124.83 41.6137 124.509 41.7864 124.417 42.0912Z" fill="#390D9F"/>
<path d="M156.8 42.6654C156.708 42.9702 156.881 43.2902 157.187 43.3817C157.493 43.4731 157.814 43.3004 157.905 42.9956C157.997 42.6908 157.824 42.3708 157.518 42.2794C157.213 42.1879 156.892 42.3606 156.8 42.6654Z" fill="#2D2D2D"/>
<path d="M177.344 49.8474C177.161 50.457 177.507 51.0971 178.118 51.2799C178.73 51.4628 179.371 51.1174 179.555 50.5078C179.738 49.8982 179.392 49.2582 178.781 49.0753C178.169 48.8924 177.527 49.2379 177.344 49.8474Z" fill="#FF5225"/>
<path d="M137.283 30.1287C137.1 30.7383 137.446 31.3783 138.058 31.5612C138.669 31.7441 139.311 31.3986 139.494 30.7891C139.678 30.1795 139.331 29.5394 138.72 29.3566C138.109 29.1737 137.467 29.5191 137.283 30.1287Z" fill="#FF5225"/>
<path d="M193.609 180.236H26.8711V181.171H193.609V180.236Z" fill="#1A120E"/>
<defs>
<linearGradient id="paint0_linear_1984_10248" x1="145.717" y1="111.893" x2="148.422" y2="111.896" gradientUnits="userSpaceOnUse">
<stop stop-color="#99CEFF"/>
<stop offset="1" stop-color="#D5E9FF"/>
</linearGradient>
<linearGradient id="paint1_linear_1984_10248" x1="142.458" y1="111.889" x2="145.163" y2="111.893" gradientUnits="userSpaceOnUse">
<stop stop-color="#99CEFF"/>
<stop offset="1" stop-color="#D5E9FF"/>
</linearGradient>
<linearGradient id="paint2_linear_1984_10248" x1="139.201" y1="111.885" x2="141.906" y2="111.889" gradientUnits="userSpaceOnUse">
<stop stop-color="#99CEFF"/>
<stop offset="1" stop-color="#D5E9FF"/>
</linearGradient>
<linearGradient id="paint3_linear_1984_10248" x1="135.942" y1="111.882" x2="138.647" y2="111.885" gradientUnits="userSpaceOnUse">
<stop stop-color="#99CEFF"/>
<stop offset="1" stop-color="#D5E9FF"/>
</linearGradient>
<linearGradient id="paint4_linear_1984_10248" x1="133.232" y1="111.877" x2="134.812" y2="111.879" gradientUnits="userSpaceOnUse">
<stop stop-color="#99CEFF"/>
<stop offset="1" stop-color="#D5E9FF"/>
</linearGradient>
<linearGradient id="paint5_linear_1984_10248" x1="131.305" y1="111.875" x2="132.89" y2="111.877" gradientUnits="userSpaceOnUse">
<stop stop-color="#99CEFF"/>
<stop offset="1" stop-color="#D5E9FF"/>
</linearGradient>
<linearGradient id="paint6_linear_1984_10248" x1="129.498" y1="111.873" x2="131.082" y2="111.875" gradientUnits="userSpaceOnUse">
<stop stop-color="#99CEFF"/>
<stop offset="1" stop-color="#D5E9FF"/>
</linearGradient>
</defs>
</svg>
