<svg width="331" height="212" viewBox="0 0 331 212" fill="none" xmlns="http://www.w3.org/2000/svg">
<g clip-path="url(#clip0_2123_9503)">
<path d="M154.362 148.389C154.362 148.389 154.277 148.558 154.078 148.858C153.855 149.188 153.563 149.618 153.201 150.156C152.433 151.277 151.295 152.882 149.88 154.864C147.052 158.82 143.093 164.242 138.596 170.148C134.099 176.055 129.902 181.301 126.742 185.003C125.151 186.846 123.867 188.328 122.922 189.312C122.476 189.78 122.122 190.156 121.846 190.448C121.6 190.702 121.461 190.832 121.453 190.825C121.446 190.817 121.561 190.663 121.792 190.395C122.053 190.095 122.391 189.696 122.814 189.204C123.721 188.19 124.974 186.677 126.535 184.811C129.633 181.07 133.791 175.794 138.288 169.895C142.785 163.996 146.775 158.605 149.665 154.687C151.087 152.76 152.248 151.185 153.086 150.056C153.478 149.541 153.785 149.119 154.024 148.804C154.239 148.52 154.362 148.374 154.37 148.382L154.362 148.389Z" fill="#D84426"/>
<path d="M176.258 56.2608C176.366 56.2761 175.882 60.393 175.174 65.4545C174.467 70.516 173.806 74.6097 173.691 74.5944C173.583 74.579 174.067 70.4622 174.775 65.4007C175.482 60.3392 176.143 56.2454 176.258 56.2608Z" fill="#D84426"/>
<path d="M253.242 50.9229C253.242 50.9229 253.073 51.0918 252.727 51.376C252.35 51.6755 251.85 52.0903 251.212 52.5972C249.859 53.6725 247.945 55.1856 245.601 57.0443C240.812 60.7847 234.247 65.9154 226.998 71.5837C219.718 77.2136 213.13 82.3135 208.326 86.0309C205.951 87.8435 204.013 89.3259 202.637 90.3704C201.984 90.862 201.461 91.246 201.077 91.5379C200.716 91.799 200.524 91.9296 200.516 91.9219C200.508 91.9142 200.685 91.7606 201.023 91.4764C201.4 91.1769 201.9 90.7698 202.538 90.2552C203.89 89.1799 205.805 87.6745 208.149 85.8158C212.938 82.0754 219.503 76.9447 226.76 71.2764C234.039 65.6466 240.627 60.5466 245.432 56.8292C247.807 55.0166 249.744 53.5343 251.12 52.4897C251.774 51.9981 252.296 51.6141 252.681 51.3299C253.042 51.0688 253.234 50.9382 253.242 50.9459V50.9229Z" fill="#D84426"/>
<path d="M290.439 101.492C290.447 101.599 271.614 103.166 248.368 104.979C225.122 106.799 206.273 108.181 206.266 108.066C206.258 107.959 225.091 106.392 248.337 104.579C271.575 102.767 290.432 101.376 290.439 101.492Z" fill="#D84426"/>
<path d="M238.398 147.729C238.344 147.829 230.357 143.858 220.556 138.858C210.747 133.858 202.845 129.726 202.899 129.626C202.953 129.526 210.939 133.497 220.741 138.497C230.542 143.497 238.452 147.629 238.398 147.729Z" fill="#D84426"/>
<path d="M143.119 83.8263C143.119 83.8263 142.973 83.6727 142.727 83.3501C142.458 82.9968 142.104 82.536 141.658 81.9446C140.736 80.7234 139.421 78.9415 137.814 76.7295C134.594 72.3054 130.212 66.1456 125.492 59.2561C120.772 52.3666 116.606 46.0531 113.639 41.4524C112.155 39.1559 110.971 37.2819 110.156 35.9839C109.772 35.354 109.464 34.8548 109.234 34.4861C109.026 34.1405 108.926 33.9562 108.934 33.9485C108.942 33.9408 109.072 34.1098 109.303 34.4401C109.549 34.801 109.88 35.2926 110.287 35.8994C111.156 37.2051 112.378 39.0407 113.869 41.2988C116.898 45.8611 121.095 52.1438 125.815 59.0333C130.535 65.9152 134.878 72.1057 138.037 76.5682C139.598 78.7802 140.874 80.5774 141.781 81.8601C142.204 82.4669 142.534 82.9431 142.788 83.304C143.011 83.6343 143.126 83.8186 143.119 83.8263Z" fill="#D84426"/>
<path d="M132.969 98.3505C132.923 98.4504 127.688 96.0847 121.277 93.0663C114.866 90.0478 109.708 87.5209 109.754 87.421C109.8 87.3212 115.035 89.6868 121.446 92.7053C127.857 95.7237 133.015 98.2507 132.962 98.3505H132.969Z" fill="#D84426"/>
<path d="M129.988 112.605C129.98 112.713 112.331 111.223 90.5686 109.272C68.8064 107.321 51.1721 105.655 51.1875 105.547C51.1952 105.439 68.8448 106.929 90.607 108.88C112.362 110.831 129.996 112.498 129.988 112.605Z" fill="#D84426"/>
<path d="M136.293 133.673C136.339 133.773 125.861 138.335 112.893 143.85C99.925 149.372 89.3783 153.766 89.3322 153.658C89.2861 153.558 99.7636 148.996 112.732 143.481C125.7 137.959 136.247 133.566 136.293 133.673Z" fill="#D84426"/>
<path d="M168.401 150.986C189.615 150.986 206.813 133.802 206.813 112.606C206.813 91.4089 189.615 74.2256 168.401 74.2256C147.186 74.2256 129.988 91.4089 129.988 112.606C129.988 133.802 147.186 150.986 168.401 150.986Z" fill="#E3E3E3"/>
<path d="M181.325 102.828C178.819 94.7863 170.263 90.3009 162.222 92.8047C154.174 95.3086 149.685 103.857 152.191 111.891C154.005 117.713 158.986 121.668 164.659 122.46C165.197 124.188 165.804 126.131 165.804 126.131L178.573 122.16C178.573 122.16 178.004 120.079 177.466 118.228C181.402 114.349 183.093 108.465 181.332 102.828H181.325Z" fill="#D84426"/>
<path d="M173.928 123.542C173.928 123.542 173.913 123.481 173.89 123.358C173.867 123.228 173.828 123.051 173.782 122.813C173.698 122.337 173.567 121.63 173.421 120.716C173.275 119.802 173.121 118.681 173.013 117.375C172.914 116.069 172.875 114.564 173.075 112.913C173.175 112.091 173.321 111.23 173.598 110.363C173.744 109.932 173.951 109.495 174.313 109.157C174.674 108.819 175.204 108.657 175.712 108.773C175.965 108.826 176.204 108.98 176.35 109.203C176.503 109.418 176.565 109.702 176.519 109.971C176.434 110.501 176.111 110.954 175.696 111.292C174.843 111.929 173.705 112.191 172.598 112.022C171.491 111.853 170.446 111.2 169.785 110.232C169.462 109.748 169.193 109.195 169.178 108.581C169.139 107.974 169.531 107.298 170.185 107.16C170.508 107.083 170.861 107.214 171.084 107.444C171.315 107.674 171.453 107.982 171.484 108.304C171.53 108.957 171.238 109.548 170.907 110.071C170.223 111.115 169.108 111.922 167.817 112.114C166.541 112.298 165.196 111.837 164.342 110.893C163.912 110.432 163.643 109.802 163.697 109.157C163.727 108.842 163.866 108.512 164.135 108.312C164.396 108.104 164.75 108.058 165.057 108.112C165.373 108.174 165.657 108.335 165.872 108.558C166.087 108.78 166.241 109.049 166.356 109.326C166.572 109.886 166.672 110.478 166.656 111.062C166.633 112.229 166.157 113.35 165.365 114.141C164.581 114.933 163.528 115.409 162.482 115.493C161.967 115.539 161.406 115.493 160.952 115.209C160.507 114.925 160.23 114.341 160.437 113.834C160.545 113.588 160.76 113.404 160.991 113.312C161.229 113.22 161.483 113.197 161.729 113.227C162.228 113.304 162.621 113.627 162.928 113.949C163.543 114.625 164.073 115.301 164.596 115.939C166.672 118.512 168.255 120.67 169.331 122.175C169.869 122.928 170.277 123.519 170.554 123.919C170.684 124.119 170.792 124.264 170.861 124.38C170.93 124.487 170.961 124.541 170.961 124.541C170.961 124.541 170.923 124.495 170.846 124.395C170.769 124.288 170.661 124.142 170.523 123.95C170.231 123.55 169.816 122.974 169.27 122.229C168.178 120.739 166.579 118.596 164.488 116.039C163.966 115.409 163.42 114.725 162.813 114.065C162.505 113.75 162.136 113.458 161.69 113.389C161.26 113.32 160.737 113.489 160.56 113.903C160.391 114.318 160.63 114.84 161.022 115.086C161.421 115.347 161.944 115.386 162.451 115.34C163.458 115.255 164.473 114.794 165.226 114.034C165.98 113.274 166.441 112.191 166.464 111.069C166.479 110.509 166.387 109.94 166.18 109.41C165.972 108.888 165.58 108.404 165.019 108.304C164.75 108.25 164.458 108.304 164.242 108.465C164.02 108.627 163.904 108.896 163.874 109.18C163.827 109.756 164.066 110.34 164.473 110.77C165.273 111.661 166.564 112.106 167.779 111.929C169.001 111.753 170.085 110.977 170.738 109.971C171.053 109.464 171.33 108.896 171.284 108.327C171.261 108.051 171.138 107.774 170.946 107.582C170.753 107.39 170.477 107.29 170.208 107.352C169.946 107.406 169.708 107.582 169.554 107.813C169.401 108.035 169.339 108.32 169.339 108.596C169.354 109.157 169.608 109.687 169.916 110.148C170.546 111.069 171.553 111.707 172.606 111.868C173.659 112.037 174.766 111.776 175.573 111.184C175.958 110.877 176.265 110.439 176.342 109.971C176.427 109.502 176.104 109.034 175.65 108.942C175.204 108.842 174.712 108.988 174.389 109.287C174.051 109.595 173.851 110.009 173.705 110.424C173.436 111.277 173.283 112.129 173.183 112.943C172.975 114.579 173.013 116.077 173.098 117.383C173.19 118.688 173.344 119.81 173.475 120.724C173.613 121.63 173.728 122.337 173.798 122.828C173.836 123.066 173.859 123.243 173.882 123.374C173.898 123.496 173.905 123.558 173.905 123.558L173.928 123.542Z" fill="#263238"/>
<path d="M178.318 124.833L167.356 128.243C166.903 128.381 166.418 128.128 166.28 127.675C166.142 127.221 166.395 126.738 166.849 126.599L177.811 123.189C178.264 123.051 178.748 123.304 178.887 123.757C179.025 124.211 178.772 124.694 178.318 124.833Z" fill="#263238"/>
<path d="M178.541 125.547L167.579 128.957C167.126 129.095 166.872 129.579 167.01 130.032C167.149 130.486 167.633 130.739 168.087 130.601L169.293 130.224L171.838 132.767C172.13 133.059 172.561 133.166 172.953 133.043L176.873 131.822C177.273 131.699 177.565 131.361 177.634 130.954L178.241 127.444L179.056 127.191C179.51 127.052 179.763 126.569 179.625 126.115C179.487 125.662 179.002 125.409 178.549 125.547H178.541Z" fill="#263238"/>
<g opacity="0.2">
<path d="M154.503 101C155.203 99.794 156.033 98.8339 156.817 98.158C157.601 97.4744 158.323 97.0366 158.862 96.8062C159.392 96.5758 159.723 96.5297 159.792 96.6372C159.938 96.883 158.954 97.6204 157.778 99.072C156.602 100.508 155.272 102.782 154.903 105.531C154.541 108.281 155.226 110.831 155.987 112.521C156.74 114.233 157.493 115.201 157.293 115.401C157.201 115.485 156.894 115.363 156.44 115.002C155.987 114.641 155.402 114.034 154.826 113.166C154.249 112.298 153.696 111.161 153.342 109.817C152.981 108.473 152.843 106.906 153.05 105.293" fill="white"/>
</g>
<g opacity="0.2">
<path d="M163.484 96.1764C162.561 96.4529 161.662 96.4529 161.416 95.9998C161.301 95.7694 161.393 95.4621 161.662 95.1549C161.931 94.8477 162.384 94.5558 162.938 94.3868C163.491 94.2179 164.03 94.2102 164.422 94.31C164.814 94.4099 165.067 94.6173 165.098 94.8707" fill="white"/>
</g>
<path d="M177.503 131.277C177.503 131.277 177.18 131.269 176.68 131.277C176.173 131.284 175.473 131.377 174.751 131.622C174.021 131.876 173.421 132.237 173.014 132.536C172.606 132.836 172.383 133.066 172.36 133.043C172.345 133.028 172.537 132.775 172.929 132.437C173.321 132.099 173.936 131.707 174.689 131.446C175.443 131.192 176.165 131.123 176.68 131.146C177.195 131.169 177.511 131.254 177.503 131.277Z" fill="#455A64"/>
<path d="M178.274 127.475C178.289 127.521 176.321 128.181 173.877 128.942C171.432 129.702 169.441 130.278 169.426 130.232C169.41 130.186 171.378 129.525 173.823 128.765C176.267 128.005 178.258 127.429 178.274 127.475Z" fill="#455A64"/>
<path d="M177.989 128.988C177.989 128.988 177.597 129.18 176.944 129.433C176.291 129.687 175.376 130.009 174.361 130.34C173.346 130.67 172.416 130.947 171.74 131.131C171.063 131.315 170.64 131.415 170.633 131.392C170.633 131.369 171.033 131.223 171.701 131.008C172.424 130.778 173.316 130.486 174.307 130.163C175.291 129.841 176.191 129.541 176.905 129.311C177.574 129.096 177.989 128.965 177.997 128.988H177.989Z" fill="#455A64"/>
<path d="M98.1721 37.998C108.759 37.998 117.34 29.4084 117.337 18.8125C117.335 8.21662 108.75 -0.373047 98.1623 -0.373047C87.5749 -0.373047 78.9944 8.21662 78.9971 18.8125C78.9998 29.4084 87.5848 37.998 98.1721 37.998Z" fill="white"/>
<path d="M117.138 19.0095C117.138 19.0095 117.123 18.9097 117.1 18.7023C117.084 18.4796 117.061 18.1877 117.038 17.8113C117.023 17.6117 117.008 17.3966 116.992 17.1508C116.969 16.9127 116.915 16.6516 116.869 16.3674C116.777 15.799 116.692 15.1385 116.469 14.4242C116.131 12.9726 115.447 11.2521 114.371 9.43181C113.287 7.61918 111.719 5.72976 109.59 4.12451C107.468 2.53463 104.793 1.18284 101.71 0.637517C98.6431 0.115236 95.1839 0.207403 91.8861 1.45934C91.0482 1.72816 90.2564 2.14292 89.4493 2.53463C88.6806 2.99546 87.8734 3.42558 87.1585 4.0093C86.3975 4.53158 85.7364 5.18443 85.0369 5.80656C84.4065 6.5055 83.7455 7.18139 83.2074 7.97249C82.0927 9.51629 81.1242 11.2291 80.5399 13.1185C79.9327 14.9926 79.6021 16.9818 79.579 19.0095C79.6021 21.0372 79.9327 23.0265 80.5399 24.9005C81.1242 26.79 82.1004 28.5027 83.2074 30.0465C83.7455 30.8376 84.4065 31.5135 85.0369 32.2125C85.7287 32.8423 86.3975 33.4951 87.1585 34.0174C87.8734 34.6011 88.6806 35.0236 89.4493 35.4921C90.2564 35.8838 91.0482 36.2986 91.8861 36.5674C95.1839 37.8193 98.6431 37.9115 101.71 37.3892C104.8 36.8439 107.476 35.4921 109.59 33.9022C111.719 32.297 113.279 30.4075 114.363 28.5949C115.439 26.7746 116.124 25.0618 116.462 23.6102C116.685 22.8959 116.769 22.2354 116.862 21.667C116.908 21.3828 116.961 21.1217 116.985 20.8836C117 20.6455 117.015 20.4228 117.031 20.2231C117.061 19.8467 117.077 19.5472 117.092 19.3321C117.108 19.1324 117.123 19.0249 117.131 19.0249C117.138 19.0249 117.138 19.1247 117.131 19.3321C117.131 19.5548 117.115 19.8544 117.108 20.2307C117.108 20.4304 117.092 20.6532 117.084 20.8913C117.061 21.137 117.015 21.3982 116.977 21.6824C116.9 22.2584 116.823 22.9189 116.608 23.6486C116.293 25.1233 115.624 26.8591 114.548 28.7101C113.464 30.5535 111.896 32.4813 109.751 34.1249C107.606 35.7532 104.9 37.1434 101.756 37.7118C98.6354 38.2648 95.1147 38.1726 91.7477 36.913C90.8945 36.6442 90.0873 36.2218 89.2571 35.8224C88.473 35.3538 87.6505 34.916 86.9125 34.3246C86.1362 33.7947 85.4597 33.1341 84.7448 32.489C84.0991 31.7824 83.4303 31.0834 82.8691 30.2846C81.7314 28.7101 80.7398 26.9589 80.1402 25.0311C79.5175 23.1186 79.1793 21.0833 79.1562 19.0172C79.187 16.9511 79.5175 14.9158 80.1402 13.0033C80.7398 11.0755 81.7314 9.32428 82.8691 7.75744C83.4226 6.95097 84.0991 6.25972 84.7448 5.5531C85.452 4.91561 86.1362 4.2474 86.9125 3.71744C87.6428 3.12603 88.4653 2.68824 89.2571 2.21972C90.0873 1.82801 90.8868 1.40558 91.7477 1.12908C95.1147 -0.138224 98.6354 -0.222711 101.756 0.330293C104.893 0.898657 107.606 2.28885 109.751 3.91713C111.896 5.56078 113.472 7.48861 114.548 9.33196C115.616 11.183 116.293 12.9265 116.608 14.3935C116.815 15.1155 116.892 15.7837 116.977 16.3597C117.015 16.6439 117.061 16.9127 117.084 17.1508C117.092 17.3966 117.1 17.6117 117.108 17.8113C117.115 18.1877 117.131 18.4872 117.131 18.71C117.131 18.9097 117.131 19.0172 117.131 19.0172L117.138 19.0095Z" fill="#D84426"/>
<path d="M102.329 17.0433C102.329 17.0433 102.337 16.5133 102.114 15.607C102.006 15.1538 101.791 14.6162 101.453 14.0478C101.115 13.4795 100.623 12.8957 99.9615 12.3965C99.3004 11.9049 98.4625 11.4825 97.5016 11.3135C96.5484 11.1522 95.4645 11.183 94.4421 11.5747C93.9271 11.7513 93.4274 12.0278 92.9662 12.3658C92.7279 12.5271 92.5203 12.7344 92.3051 12.9265C92.1129 13.1415 91.9054 13.3566 91.7362 13.6023C91.0213 14.5547 90.6139 15.776 90.6062 17.0356C90.6139 18.2952 91.0213 19.5241 91.7362 20.4765C91.9054 20.7223 92.1129 20.9373 92.3051 21.1524C92.5203 21.3444 92.7279 21.5518 92.9662 21.7131C93.4274 22.0587 93.9194 22.3275 94.4421 22.5042C95.4722 22.8959 96.5484 22.9266 97.5016 22.7653C98.4625 22.5963 99.3004 22.1739 99.9615 21.6823C100.623 21.1831 101.115 20.5917 101.453 20.031C101.791 19.4626 102.006 18.925 102.114 18.4719C102.344 17.5655 102.298 17.0356 102.329 17.0356C102.329 17.0356 102.329 17.0663 102.329 17.1277C102.329 17.2046 102.329 17.2967 102.329 17.4119C102.329 17.5348 102.329 17.6884 102.291 17.8651C102.268 18.0417 102.245 18.2568 102.175 18.4795C102.075 18.9404 101.868 19.4857 101.537 20.0694C101.199 20.6455 100.707 21.2522 100.031 21.7745C99.3619 22.2891 98.5086 22.7269 97.5246 22.9036C96.5484 23.0802 95.4337 23.0495 94.3806 22.6578C93.8502 22.4734 93.3352 22.1969 92.8586 21.8436C92.6126 21.6747 92.3973 21.4673 92.1744 21.2676C91.9745 21.0449 91.7593 20.8298 91.5825 20.5763C90.8445 19.5932 90.4217 18.3336 90.4141 17.0356C90.4217 15.7376 90.8445 14.4703 91.5825 13.4948C91.7593 13.2414 91.9669 13.0263 92.1744 12.8036C92.3973 12.6039 92.6126 12.3965 92.8586 12.2275C93.3275 11.8742 93.8425 11.5977 94.3806 11.4134C95.4414 11.014 96.5484 10.9909 97.5246 11.1599C98.5086 11.3366 99.3619 11.7744 100.031 12.289C100.707 12.8036 101.199 13.4103 101.537 13.9941C101.876 14.5778 102.083 15.1231 102.175 15.5839C102.237 15.8144 102.26 16.0217 102.291 16.1984C102.321 16.375 102.329 16.5287 102.329 16.6515C102.329 16.7668 102.329 16.8589 102.329 16.9357C102.329 16.9972 102.329 17.0279 102.329 17.0279V17.0433Z" fill="#263238"/>
<path d="M100.462 21.3442C100.462 21.3442 101.784 22.5347 103.337 24.0862C104.89 25.6377 106.12 26.928 106.081 26.9588C106.043 26.9972 104.759 25.7683 103.206 24.2168C101.653 22.6653 100.423 21.375 100.462 21.3442Z" fill="#263238"/>
<path d="M25.9437 127.728C39.8858 127.728 51.1882 116.436 51.1882 102.505C51.1882 88.575 39.8858 77.2822 25.9437 77.2822C12.0016 77.2822 0.699219 88.575 0.699219 102.505C0.699219 116.436 12.0016 127.728 25.9437 127.728Z" fill="white"/>
<path d="M51.1886 102.505C51.1886 102.505 51.1655 102.367 51.1501 102.098C51.1348 101.814 51.104 101.415 51.0733 100.9C51.0579 100.639 51.0425 100.339 51.0194 100.017C50.9887 99.6942 50.9118 99.3409 50.858 98.9646C50.735 98.2042 50.6197 97.3209 50.3276 96.3608C49.8818 94.4176 48.967 92.1135 47.5295 89.6787C46.0766 87.2516 43.9857 84.717 41.1338 82.5665C38.2973 80.4389 34.7074 78.6186 30.5717 77.889C29.534 77.7431 28.4885 77.528 27.4046 77.5203C26.8665 77.505 26.3208 77.4512 25.7673 77.4589C25.2215 77.4896 24.668 77.5126 24.1069 77.5434C23.8301 77.5664 23.5457 77.5587 23.269 77.5971L22.4311 77.7277C21.8699 77.8199 21.3088 77.889 20.7476 78.0042C19.6407 78.3037 18.4953 78.5265 17.4037 78.9873C16.2814 79.3483 15.2206 79.9013 14.1367 80.4236C13.6063 80.7078 13.0989 81.0457 12.5762 81.3529C12.0458 81.6525 11.5538 82.0211 11.0618 82.3975C10.0471 83.0964 9.15544 83.972 8.21761 84.8092C7.37203 85.7386 6.48801 86.6525 5.76542 87.7125C4.27412 89.7786 2.975 92.0827 2.18323 94.6097C1.36839 97.1212 0.930227 99.7864 0.891792 102.505C0.930227 105.224 1.36839 107.889 2.18323 110.401C2.96731 112.928 4.27412 115.232 5.76542 117.298C6.4957 118.358 7.37971 119.272 8.21761 120.201C9.14775 121.046 10.0395 121.914 11.0618 122.613C11.5538 122.989 12.0381 123.358 12.5762 123.658C13.0989 123.965 13.6063 124.303 14.1367 124.587C15.2206 125.109 16.2814 125.662 17.4037 126.023C18.4953 126.476 19.6407 126.699 20.7476 127.006C21.3088 127.122 21.8776 127.191 22.4311 127.283L23.269 127.414C23.5457 127.452 23.8301 127.452 24.1069 127.467C24.6603 127.498 25.2138 127.529 25.7673 127.552C26.3131 127.559 26.8589 127.506 27.4046 127.49C28.4885 127.49 29.5417 127.268 30.5794 127.122C34.7151 126.392 38.2973 124.579 41.1415 122.444C43.9934 120.294 46.0843 117.759 47.5295 115.332C48.967 112.897 49.8818 110.593 50.3276 108.65C50.6197 107.69 50.735 106.806 50.858 106.046C50.9118 105.662 50.9887 105.316 51.0194 104.994C51.0425 104.671 51.0579 104.379 51.0733 104.111C51.104 103.596 51.1348 103.197 51.1501 102.912C51.1732 102.644 51.1886 102.505 51.1886 102.505C51.1886 102.505 51.1886 102.644 51.1886 102.912C51.1809 103.197 51.1655 103.596 51.1501 104.111C51.1424 104.379 51.1271 104.671 51.1117 104.994C51.0809 105.316 51.0194 105.67 50.9656 106.054C50.858 106.822 50.7504 107.705 50.4737 108.673C50.0509 110.639 49.1515 112.966 47.714 115.432C46.2688 117.89 44.1702 120.463 41.3029 122.659C38.4433 124.833 34.8227 126.684 30.6332 127.437C29.5801 127.59 28.5193 127.805 27.42 127.821C26.8742 127.844 26.3208 127.897 25.7596 127.89C25.2061 127.859 24.645 127.836 24.0761 127.805C23.7917 127.79 23.5073 127.79 23.2229 127.751L22.3773 127.621C21.8084 127.529 21.2319 127.46 20.663 127.344C19.5407 127.045 18.38 126.814 17.273 126.354C16.1276 125.993 15.0591 125.432 13.9522 124.902C13.4141 124.61 12.8991 124.272 12.3686 123.957C11.8229 123.658 11.3309 123.281 10.8312 122.905C9.79347 122.198 8.88639 121.315 7.94087 120.455C7.07992 119.51 6.18052 118.581 5.44256 117.513C3.9282 115.416 2.59833 113.082 1.79887 110.509C0.968663 107.959 0.522811 105.24 0.484375 102.482C0.522811 99.7249 0.968663 97.0137 1.79887 94.4637C2.59833 91.8984 3.9282 89.5635 5.44256 87.459C6.18052 86.3837 7.07992 85.4621 7.94087 84.5173C8.88639 83.6648 9.79347 82.7815 10.8312 82.0672C11.3309 81.6909 11.8229 81.3145 12.3686 81.015C12.8991 80.7001 13.4141 80.3621 13.9522 80.0703C15.0591 79.5403 16.1276 78.9796 17.273 78.6186C18.38 78.1578 19.5407 77.9351 20.663 77.6278C21.2319 77.5126 21.8084 77.4435 22.3773 77.3513L23.2229 77.2208C23.5073 77.1824 23.7917 77.19 24.0684 77.167C24.6296 77.1363 25.1908 77.1132 25.7519 77.0825C26.3054 77.0825 26.8589 77.1286 27.4046 77.1516C28.5039 77.1593 29.5647 77.3821 30.6179 77.5357C34.8073 78.2961 38.428 80.1471 41.2876 82.313C44.1549 84.502 46.2534 87.075 47.6986 89.5405C49.1361 92.0136 50.0278 94.3332 50.4583 96.2994C50.7427 97.2671 50.8426 98.1581 50.9503 98.9185C51.0041 99.3025 51.0656 99.6558 51.0963 99.9784C51.1117 100.301 51.1194 100.601 51.1348 100.862C51.1501 101.376 51.1655 101.776 51.1732 102.06C51.1732 102.329 51.1732 102.467 51.1732 102.467L51.1886 102.505Z" fill="#D84426"/>
<path d="M31.3157 115.495C38.1515 112.576 41.3247 104.673 38.4034 97.843C35.482 91.013 27.5724 87.8424 20.7366 90.7613C13.9009 93.6802 10.7276 101.583 13.6489 108.413C16.5703 115.243 24.48 118.414 31.3157 115.495Z" fill="#F5F5F5"/>
<path d="M39.4811 103.127C39.4811 103.127 39.4581 102.836 39.4196 102.275C39.412 101.991 39.3812 101.645 39.3043 101.246C39.2428 100.839 39.1813 100.37 39.0276 99.8555C38.7893 98.8186 38.305 97.5897 37.5363 96.284C36.7599 94.986 35.6453 93.6342 34.1232 92.4821C32.6089 91.3454 30.6948 90.3699 28.4809 89.9782C26.2901 89.6019 23.8071 89.6633 21.4472 90.5619C20.2557 90.9767 19.1103 91.5988 18.0572 92.3822C17.5114 92.7586 17.0348 93.2194 16.5351 93.6726C16.0816 94.1718 15.6127 94.6557 15.2206 95.2241C13.5756 97.413 12.6454 100.224 12.6147 103.127C12.6377 106.031 13.5679 108.842 15.2206 111.031C15.6127 111.599 16.0816 112.083 16.5351 112.582C17.0348 113.035 17.5114 113.496 18.0572 113.873C19.1103 114.656 20.2557 115.278 21.4472 115.693C23.8071 116.591 26.2901 116.653 28.4809 116.277C30.6871 115.885 32.6012 114.917 34.1232 113.773C35.6453 112.621 36.7599 111.269 37.5363 109.971C38.305 108.665 38.7893 107.444 39.0276 106.399C39.1813 105.885 39.2428 105.416 39.3043 105.009C39.3812 104.602 39.4043 104.256 39.4196 103.98C39.4504 103.419 39.4811 103.127 39.4811 103.127C39.4811 103.127 39.4811 103.419 39.4504 103.988C39.4504 104.272 39.4273 104.617 39.3505 105.025C39.289 105.432 39.2351 105.908 39.0814 106.422C38.8508 107.467 38.3742 108.704 37.6055 110.025C36.8368 111.33 35.7144 112.705 34.1847 113.873C32.6627 115.025 30.7332 116.015 28.5039 116.415C26.2901 116.807 23.7841 116.737 21.3934 115.839C20.1942 115.424 19.0334 114.794 17.9649 114.003C17.4114 113.627 16.9348 113.158 16.4275 112.697C15.9739 112.198 15.4897 111.699 15.0976 111.131C13.4295 108.919 12.484 106.069 12.4609 103.135C12.484 100.201 13.4295 97.3516 15.0976 95.1396C15.4897 94.5712 15.9663 94.072 16.4275 93.5727C16.9348 93.1196 17.4114 92.6434 17.9649 92.267C19.0334 91.4759 20.1942 90.8461 21.3934 90.4314C23.7841 89.5327 26.2824 89.4713 28.5039 89.8553C30.7332 90.2547 32.6627 91.2455 34.1847 92.3976C35.7144 93.565 36.8291 94.9322 37.6055 96.2456C38.3742 97.559 38.8508 98.7955 39.0814 99.8478C39.2351 100.362 39.289 100.839 39.3505 101.246C39.4273 101.653 39.4427 101.998 39.4504 102.283C39.4734 102.843 39.4811 103.143 39.4811 103.143V103.127Z" fill="#263238"/>
<path d="M26.0223 94.3405C26.0223 94.3405 26.8064 94.233 28.1901 94.5402C29.543 94.8397 31.5494 95.7076 33.1252 97.7276C33.8939 98.7261 34.555 100.001 34.8241 101.476C35.0854 102.943 35.047 104.602 34.4551 106.184C34.1784 106.983 33.7632 107.751 33.2405 108.457C32.7255 109.172 32.0798 109.825 31.3341 110.362C29.8659 111.468 27.9749 112.098 26.0223 112.121C24.0698 112.106 22.1788 111.476 20.7105 110.362C19.9649 109.825 19.3269 109.172 18.8041 108.457C18.2737 107.751 17.8586 106.983 17.5896 106.184C16.9977 104.602 16.9592 102.943 17.2206 101.476C17.4973 100.001 18.1507 98.7261 18.9194 97.7276C20.4953 95.7076 22.5016 94.8397 23.8546 94.5402C25.2306 94.233 26.0223 94.3405 26.0223 94.3405C26.0223 94.3943 25.2382 94.3405 23.893 94.6938C22.5785 95.0394 20.6413 95.9227 19.1424 97.9043C18.4121 98.8874 17.7894 100.116 17.5434 101.545C17.3051 102.958 17.3513 104.548 17.9355 106.069C18.2045 106.829 18.6043 107.566 19.1116 108.242C19.6113 108.926 20.2262 109.548 20.9411 110.055C22.3479 111.115 24.1544 111.706 26.0223 111.729C27.8826 111.714 29.6968 111.115 31.1035 110.055C31.8184 109.54 32.4334 108.926 32.933 108.242C33.4404 107.566 33.8401 106.829 34.1092 106.069C34.6934 104.556 34.7395 102.958 34.5012 101.553C34.2552 100.132 33.6326 98.8951 32.9023 97.912C31.4033 95.9304 29.4738 95.0471 28.1517 94.7015C26.8064 94.3559 26.0223 94.4019 26.0223 94.3482V94.3405Z" fill="#D84426"/>
<path d="M26.0215 100.339C26.0215 100.339 26.2752 100.27 26.721 100.354C27.1592 100.439 27.828 100.7 28.3507 101.361C28.8811 101.99 29.1963 103.073 28.8119 104.149C28.466 105.209 27.3437 106.138 26.0215 106.123C24.6993 106.138 23.577 105.209 23.2234 104.149C22.839 103.081 23.1619 101.998 23.6846 101.361C24.215 100.708 24.8761 100.439 25.3143 100.354C25.7678 100.27 26.0138 100.324 26.0138 100.339C26.0138 100.378 25.7678 100.378 25.3527 100.5C24.9453 100.623 24.3611 100.907 23.9076 101.522C23.4617 102.113 23.2157 103.081 23.5616 104.01C23.8845 104.932 24.8684 105.723 26.0138 105.716C27.1592 105.723 28.1355 104.932 28.4583 104.01C28.8119 103.081 28.5659 102.113 28.1124 101.522C27.6666 100.907 27.0746 100.616 26.6672 100.5C26.2521 100.378 26.0061 100.37 26.0061 100.339H26.0215Z" fill="#D84426"/>
<path d="M11.6797 112.82C16.3304 109.579 21.3731 106.369 26.0238 103.127L11.6797 112.82Z" fill="#F5F5F5"/>
<path d="M26.024 103.127C26.024 103.127 22.8569 105.363 18.898 108.043C14.9391 110.724 11.7029 112.859 11.6798 112.82C11.6568 112.782 14.8469 110.585 18.8058 107.905C22.7646 105.232 26.0009 103.089 26.024 103.127Z" fill="#263238"/>
<path d="M13.2544 111.883C13.2544 111.929 12.5088 111.937 11.594 111.906C10.6792 111.876 9.93359 111.806 9.93359 111.768C9.93359 111.722 10.6792 111.714 11.594 111.745C12.5088 111.776 13.2544 111.845 13.2544 111.883Z" fill="#263238"/>
<path d="M12.6932 114.065C12.647 114.057 12.7239 113.542 12.8546 112.928C12.9853 112.306 13.1313 111.814 13.1774 111.822C13.2236 111.83 13.1467 112.344 13.016 112.959C12.8853 113.581 12.7393 114.072 12.6932 114.065Z" fill="#263238"/>
<path d="M13.5076 113.811C13.4615 113.804 13.523 113.274 13.6383 112.621C13.7536 111.976 13.8843 111.453 13.9304 111.461C13.9765 111.469 13.915 111.999 13.7997 112.652C13.6844 113.297 13.5537 113.819 13.5076 113.811Z" fill="#263238"/>
<path d="M11.5938 110.923C11.6015 110.877 12.1242 110.962 12.7469 111.115C13.3772 111.261 13.8769 111.415 13.8692 111.461C13.8615 111.507 13.3388 111.422 12.7162 111.269C12.0858 111.123 11.5862 110.969 11.5938 110.923Z" fill="#263238"/>
<path d="M104.33 91.3513C111.813 88.2957 115.399 79.758 112.341 72.2818C109.283 64.8056 100.738 61.2219 93.2554 64.2775C85.7729 67.333 82.1862 75.8707 85.2443 83.347C88.3025 90.8232 96.8474 94.4069 104.33 91.3513Z" fill="white"/>
<path d="M98.7202 92.4475C106.846 92.4475 113.431 85.8551 113.429 77.723C113.427 69.5909 106.838 62.9985 98.7126 62.9985C90.5871 62.9985 84.0017 69.5909 84.0038 77.723C84.0059 85.8551 90.5946 92.4475 98.7202 92.4475Z" fill="#E6E6E6"/>
<path d="M113.43 77.8199C113.43 77.8199 113.414 77.743 113.399 77.5818C113.383 77.4051 113.368 77.1747 113.345 76.8905C113.33 76.5833 113.299 76.2069 113.214 75.7691C113.145 75.3313 113.076 74.8167 112.899 74.2637C112.638 73.1424 112.1 71.8136 111.269 70.4081C110.424 69.0102 109.217 67.5432 107.572 66.3066C105.927 65.0777 103.859 64.0332 101.476 63.6184C99.1085 63.2113 96.4333 63.2882 93.8812 64.2559C92.5975 64.7014 91.3598 65.3773 90.2298 66.2221C89.6456 66.6215 89.1306 67.1284 88.5925 67.6123C88.1082 68.15 87.5932 68.6723 87.1781 69.2867C85.4023 71.6446 84.403 74.6862 84.3723 77.8122C84.403 80.9382 85.4023 83.9797 87.1781 86.3376C87.5932 86.9444 88.1082 87.4744 88.5925 88.012C89.1306 88.4959 89.6456 89.0028 90.2298 89.4022C91.3675 90.2547 92.6052 90.923 93.8812 91.3684C96.4257 92.3362 99.1008 92.413 101.476 92.0059C103.867 91.5835 105.935 90.5466 107.572 89.3177C109.217 88.0811 110.432 86.6141 111.269 85.2163C112.107 83.8107 112.638 82.482 112.899 81.3606C113.068 80.8076 113.137 80.3007 113.214 79.8552C113.299 79.4174 113.33 79.0411 113.345 78.7338C113.368 78.4497 113.383 78.2192 113.399 78.0426C113.414 77.889 113.422 77.8045 113.43 77.8045C113.437 77.8045 113.437 77.8813 113.437 78.0426C113.437 78.2192 113.43 78.4497 113.422 78.7415C113.422 79.0487 113.399 79.4251 113.33 79.8706C113.268 80.316 113.214 80.8306 113.053 81.3913C112.807 82.5357 112.292 83.8875 111.462 85.3238C110.624 86.7601 109.409 88.2578 107.741 89.5328C106.081 90.8001 103.974 91.883 101.53 92.3208C99.1084 92.7509 96.3642 92.6818 93.7505 91.6987C92.436 91.2455 91.16 90.562 89.9915 89.6941C89.3919 89.2793 88.8615 88.7647 88.3081 88.2655C87.8084 87.7125 87.2857 87.1748 86.8552 86.5527C85.0257 84.1333 83.9956 81.0073 83.9648 77.7891C83.9956 74.5786 85.0257 71.4526 86.8552 69.0332C87.2857 68.4111 87.8084 67.8658 88.3081 67.3205C88.8615 66.8212 89.3919 66.3066 89.9915 65.8919C91.16 65.024 92.4283 64.3404 93.7505 63.8872C96.3642 62.9041 99.1084 62.8427 101.53 63.2651C103.967 63.7106 106.073 64.7935 107.741 66.0532C109.409 67.3281 110.624 68.8335 111.462 70.2621C112.292 71.6984 112.807 73.0579 113.053 74.1946C113.214 74.7553 113.268 75.2776 113.33 75.7154C113.406 76.1608 113.422 76.5372 113.422 76.8444C113.422 77.1363 113.43 77.359 113.437 77.5433C113.437 77.697 113.437 77.7814 113.43 77.7814V77.8199Z" fill="#D84426"/>
<path d="M100 78.043C101.184 77.5437 102.029 76.3225 102.037 74.8786C102.037 72.9891 100.615 71.453 98.8469 71.4453C97.0789 71.4377 95.6337 72.9584 95.626 74.8478C95.626 76.2995 96.4716 77.5361 97.6708 78.0353C92.7356 78.7803 92.9586 84.1414 92.9586 84.1414L104.628 84.1951C104.628 84.1951 104.897 78.7803 100 78.0353V78.043Z" fill="#F5F5F5"/>
<path d="M100.001 78.0428C100.001 78.0889 100.862 78.0428 102.154 78.7955C102.776 79.1872 103.445 79.8401 103.922 80.7771C104.39 81.7141 104.69 82.8893 104.683 84.2026V84.2641H104.621C101.354 84.2564 97.3491 84.241 92.9521 84.2257H92.8752V84.1489C92.8675 83.0506 93.0981 81.9061 93.6055 80.8539C93.9898 80.0551 94.574 79.3485 95.2966 78.8646C96.0192 78.3731 96.8417 78.1196 97.6566 77.966L97.6412 78.1119C96.3728 77.5896 95.6041 76.2916 95.558 75.055C95.4811 73.8031 96.0961 72.6049 97.0262 71.9598C97.9641 71.2916 99.1632 71.2378 100.07 71.6525C100.993 72.0596 101.592 72.843 101.869 73.6265C102.154 74.4099 102.123 75.1933 101.954 75.8231C101.777 76.4529 101.462 76.9368 101.154 77.2671C100.839 77.5973 100.539 77.7893 100.332 77.9045C100.124 78.0198 100.009 78.0428 100.001 78.0505C99.9704 78.0351 100.501 77.8892 101.108 77.2287C101.408 76.8984 101.708 76.4222 101.877 75.8001C102.038 75.1856 102.061 74.4176 101.777 73.6572C101.5 72.9045 100.908 72.1441 100.024 71.7601C99.1479 71.3684 97.9948 71.4298 97.1031 72.0673C96.2191 72.6971 95.6272 73.8415 95.704 75.0474C95.7502 76.2379 96.4881 77.4744 97.695 77.966L97.941 78.0658L97.6796 78.1119C96.8879 78.2579 96.0884 78.5113 95.3889 78.9798C94.6893 79.4484 94.1282 80.1319 93.7515 80.9077C93.2595 81.9369 93.0289 83.0659 93.0366 84.1258L92.9597 84.049C97.3568 84.0798 101.369 84.1028 104.629 84.1182L104.567 84.1796C104.583 82.8969 104.291 81.7295 103.845 80.8078C103.383 79.8861 102.73 79.241 102.123 78.8416C101.808 78.6572 101.531 78.4883 101.262 78.4038C101 78.2963 100.778 78.2118 100.578 78.1734C100.332 78.1119 100.163 78.0658 100.009 78.0274L100.001 78.0428Z" fill="#263238"/>
<path d="M90.7669 166.836C92.9285 152.933 83.4003 139.911 69.485 137.751C55.5696 135.591 42.5367 145.111 40.375 159.015C38.2133 172.918 47.7415 185.94 61.6569 188.1C75.5722 190.26 88.6052 180.74 90.7669 166.836Z" fill="white"/>
<path d="M126.252 202.234C127.223 195.99 122.943 190.142 116.694 189.172C110.445 188.202 104.592 192.478 103.621 198.722C102.65 204.966 106.929 210.814 113.179 211.784C119.428 212.754 125.281 208.478 126.252 202.234Z" fill="white"/>
<path d="M91.0748 162.936C91.0748 162.936 91.0518 162.798 91.0364 162.522C91.0133 162.23 90.9902 161.83 90.9518 161.316C90.9364 161.047 90.9211 160.755 90.898 160.425C90.8596 160.102 90.7904 159.749 90.7366 159.365C90.6136 158.597 90.4983 157.706 90.2062 156.738C89.7526 154.772 88.8302 152.452 87.3773 149.987C85.9091 147.537 83.7951 144.971 80.9201 142.798C78.0528 140.647 74.4322 138.812 70.2504 138.074C69.205 137.928 68.1442 137.713 67.0449 137.706C66.4991 137.69 65.9456 137.637 65.3922 137.644C64.8387 137.675 64.2775 137.706 63.7164 137.729C63.432 137.752 63.1552 137.744 62.8708 137.782L62.0252 137.913C61.4641 138.005 60.8875 138.074 60.3187 138.19C59.2041 138.497 58.0433 138.719 56.944 139.18C55.8063 139.541 54.7378 140.102 53.6463 140.632C53.1082 140.924 52.6008 141.262 52.0704 141.577C51.5323 141.876 51.0403 142.253 50.5407 142.629C49.5106 143.336 48.6112 144.219 47.6734 145.064C46.8201 146.008 45.9284 146.93 45.1904 147.998C43.6838 150.087 42.3693 152.406 41.5698 154.964C40.7473 157.499 40.3014 160.194 40.263 162.936C40.3014 165.678 40.7396 168.374 41.5698 170.917C42.3616 173.474 43.6838 175.794 45.1904 177.883C45.9207 178.95 46.8201 179.872 47.6734 180.817C48.6189 181.669 49.5183 182.553 50.5407 183.259C51.0327 183.636 51.5323 184.012 52.0704 184.312C52.6008 184.626 53.1159 184.964 53.6463 185.256C54.7455 185.786 55.814 186.347 56.944 186.708C58.0433 187.169 59.2041 187.391 60.3187 187.699C60.8875 187.814 61.4564 187.883 62.0252 187.975L62.8708 188.106C63.1552 188.144 63.4396 188.144 63.7164 188.16C64.2775 188.19 64.8387 188.221 65.3922 188.244C65.9456 188.252 66.4991 188.198 67.0449 188.183C68.1442 188.183 69.1973 187.96 70.2504 187.814C74.4322 187.077 78.0528 185.241 80.9201 183.09C83.7951 180.917 85.9091 178.359 87.3773 175.901C88.8302 173.436 89.7526 171.116 90.2062 169.15C90.4983 168.182 90.6136 167.291 90.7366 166.523C90.7981 166.139 90.8673 165.786 90.898 165.463C90.9211 165.141 90.9364 164.841 90.9518 164.572C90.9902 164.05 91.0133 163.651 91.0364 163.367C91.0594 163.098 91.0748 162.952 91.0748 162.952C91.0748 162.952 91.0748 163.09 91.0748 163.367C91.0671 163.658 91.0518 164.058 91.0364 164.58C91.0287 164.849 91.0133 165.148 90.9979 165.471C90.9672 165.801 90.9057 166.155 90.8519 166.539C90.7443 167.314 90.6366 168.213 90.3522 169.188C89.9217 171.17 89.0147 173.52 87.5695 176.016C86.1089 178.497 83.9873 181.101 81.0893 183.313C78.1989 185.502 74.5398 187.376 70.3119 188.136C69.2511 188.29 68.1826 188.513 67.068 188.521C66.5145 188.544 65.9533 188.597 65.3922 188.59C64.831 188.559 64.2622 188.536 63.6933 188.505C63.4089 188.49 63.1168 188.49 62.8324 188.451L61.9791 188.321C61.4103 188.229 60.826 188.16 60.2495 188.044C59.1118 187.737 57.9434 187.514 56.821 187.046C55.668 186.677 54.5841 186.116 53.4695 185.579C52.9237 185.287 52.4086 184.941 51.8705 184.626C51.3248 184.319 50.8251 183.943 50.3177 183.559C49.2723 182.845 48.3575 181.946 47.3966 181.086C46.528 180.133 45.6209 179.196 44.8753 178.113C43.3455 175.993 42.008 173.635 41.1932 171.039C40.3553 168.459 39.9017 165.724 39.8633 162.936C39.9017 160.148 40.3553 157.414 41.1932 154.833C42.0003 152.237 43.3379 149.879 44.8753 147.76C45.6209 146.677 46.528 145.74 47.3966 144.787C48.3499 143.927 49.2723 143.028 50.3177 142.314C50.8174 141.93 51.3248 141.554 51.8705 141.246C52.4086 140.931 52.9314 140.586 53.4695 140.294C54.5841 139.764 55.668 139.196 56.821 138.827C57.9357 138.366 59.1118 138.136 60.2495 137.829C60.826 137.713 61.4026 137.644 61.9791 137.552L62.8324 137.421C63.1168 137.383 63.4089 137.383 63.6933 137.368C64.2622 137.337 64.831 137.314 65.3922 137.283C65.9533 137.283 66.5145 137.329 67.068 137.352C68.1826 137.36 69.2511 137.583 70.3119 137.736C74.5398 138.497 78.1989 140.371 81.0893 142.56C83.9873 144.772 86.1089 147.376 87.5695 149.856C89.0147 152.353 89.9217 154.703 90.3522 156.684C90.6366 157.66 90.7443 158.558 90.8519 159.334C90.9057 159.718 90.9672 160.079 90.9979 160.402C91.0133 160.732 91.021 161.032 91.0364 161.293C91.0518 161.815 91.0671 162.214 91.0748 162.506C91.0748 162.783 91.0748 162.921 91.0748 162.921V162.936Z" fill="#D84426"/>
<path d="M74.5539 172.897C80.1328 167.911 80.6103 159.351 75.6205 153.777C70.6307 148.203 62.0631 147.725 56.4842 152.711C50.9054 157.697 50.4279 166.257 55.4177 171.831C60.4075 177.405 68.9751 177.882 74.5539 172.897Z" fill="#F5F5F5"/>
<path d="M51.9955 161.923C51.9955 161.923 52.0032 162 52.0108 162.145C52.0108 162.307 52.0108 162.522 52.0108 162.791C52.0108 162.937 52.0108 163.09 52.0108 163.267C52.0185 163.443 52.0416 163.628 52.0647 163.835C52.1031 164.25 52.1338 164.718 52.2568 165.241C52.4336 166.301 52.841 167.56 53.5252 168.912C54.217 170.256 55.2471 171.685 56.7 172.929C58.1452 174.166 59.9977 175.256 62.1809 175.794C64.3487 176.316 66.8316 176.408 69.2453 175.663C69.8603 175.51 70.4445 175.249 71.0364 175.01C71.6053 174.711 72.2049 174.45 72.743 174.066C73.3118 173.728 73.8192 173.29 74.3419 172.875C74.8262 172.407 75.3258 171.954 75.7563 171.416C76.625 170.364 77.4014 169.181 77.9087 167.86C78.4314 166.546 78.762 165.141 78.8773 163.689C78.9542 162.238 78.8158 160.801 78.4622 159.427C78.1316 158.052 77.5167 156.777 76.7941 155.617C76.4405 155.026 76.0023 154.511 75.5872 153.981C75.1183 153.497 74.6724 152.998 74.1574 152.591C73.6731 152.145 73.112 151.8 72.5892 151.431C72.0281 151.116 71.4823 150.778 70.8981 150.548C68.5996 149.495 66.1244 149.265 63.9105 149.495C61.6735 149.741 59.698 150.578 58.1067 151.615C56.5078 152.66 55.3009 153.943 54.44 155.187C53.5867 156.439 53.0102 157.637 52.7027 158.658C52.5105 159.158 52.4183 159.626 52.326 160.033C52.2799 160.233 52.2338 160.417 52.203 160.594C52.18 160.763 52.1569 160.924 52.1415 161.062C52.1031 161.331 52.0723 161.539 52.0493 161.7C52.0262 161.846 52.0108 161.915 52.0108 161.915C52.0108 161.915 52.0108 161.838 52.0185 161.692C52.0339 161.531 52.0493 161.316 52.08 161.047C52.0954 160.901 52.1108 160.748 52.1261 160.571C52.1492 160.394 52.1953 160.21 52.2415 160.01C52.326 159.603 52.4106 159.127 52.5951 158.62C52.8872 157.583 53.4483 156.362 54.3016 155.087C55.1626 153.82 56.3771 152.506 57.9914 151.431C59.6057 150.363 61.612 149.495 63.8874 149.234C66.1474 148.989 68.6688 149.211 71.0288 150.279C71.6283 150.517 72.1895 150.855 72.766 151.178C73.3041 151.554 73.8807 151.9 74.3726 152.36C74.9031 152.775 75.3566 153.282 75.8409 153.781C76.2714 154.319 76.7172 154.849 77.0785 155.448C77.8165 156.631 78.4468 157.929 78.7927 159.342C79.1463 160.748 79.2924 162.215 79.2155 163.705C79.1002 165.187 78.762 166.631 78.2239 167.967C77.7012 169.319 76.9094 170.525 76.0177 171.6C75.5795 172.153 75.0645 172.614 74.5725 173.09C74.0344 173.513 73.5117 173.958 72.9352 174.304C72.3817 174.696 71.7744 174.964 71.1825 175.264C70.5675 175.51 69.9756 175.771 69.3453 175.924C66.87 176.677 64.341 176.57 62.1348 176.024C59.9132 175.471 58.0298 174.342 56.577 173.075C55.1164 171.792 54.0787 170.341 53.3945 168.966C52.7181 167.591 52.3183 166.308 52.1646 165.241C52.0493 164.711 52.0262 164.235 51.9955 163.82C51.9801 163.612 51.9647 163.42 51.957 163.244C51.957 163.067 51.9647 162.914 51.9724 162.768C51.9801 162.499 51.9878 162.284 51.9955 162.122C51.9955 161.976 52.0108 161.9 52.0185 161.907L51.9955 161.923Z" fill="#263238"/>
<path d="M71.6744 163.228C71.6744 163.228 71.5053 163.251 71.1978 163.259C70.8596 163.259 70.4137 163.274 69.8833 163.282C68.7687 163.297 67.2082 163.305 65.4478 163.313H65.3633V163.228C65.3633 162.944 65.3633 162.652 65.3633 162.353C65.3633 160.394 65.371 158.612 65.3863 157.329C65.394 156.707 65.4094 156.2 65.4171 155.809C65.4248 155.448 65.4402 155.248 65.4478 155.248C65.4555 155.248 65.4709 155.448 65.4786 155.809C65.4786 156.2 65.494 156.707 65.5093 157.329C65.5247 158.612 65.5324 160.386 65.5324 162.353C65.5324 162.652 65.5324 162.952 65.5324 163.228L65.4478 163.144C67.2082 163.144 68.761 163.159 69.8833 163.174C70.4214 163.182 70.8596 163.197 71.1978 163.197C71.5053 163.205 71.6744 163.221 71.6744 163.228Z" fill="#263238"/>
<path d="M65.483 151.492C65.5291 151.492 65.5676 151.999 65.5676 152.629C65.5676 153.259 65.5291 153.766 65.483 153.766C65.4369 153.766 65.3984 153.259 65.3984 152.629C65.3984 151.999 65.4369 151.492 65.483 151.492Z" fill="#263238"/>
<path d="M71.6559 153.32C71.6559 153.32 71.3638 153.735 70.9256 154.172C70.4874 154.61 70.1031 154.941 70.0723 154.902C70.0416 154.864 70.3644 154.487 70.8026 154.05C71.2408 153.612 71.6251 153.282 71.6559 153.32Z" fill="#263238"/>
<path d="M75.2712 157.26C75.2943 157.306 74.8638 157.56 74.3411 157.882C73.8107 158.205 73.3879 158.466 73.3572 158.42C73.3264 158.381 73.7185 158.051 74.2489 157.729C74.7793 157.406 75.2559 157.214 75.2712 157.252V157.26Z" fill="#263238"/>
<path d="M77.3829 163.105C77.3829 163.151 76.6911 163.189 75.8301 163.189C74.9692 163.189 74.2773 163.151 74.2773 163.105C74.2773 163.059 74.9692 163.021 75.8301 163.021C76.6911 163.021 77.3829 163.059 77.3829 163.105Z" fill="#263238"/>
<path d="M55.8584 162.897C55.8584 162.944 55.2049 162.982 54.3901 162.982C53.5753 162.982 52.9219 162.944 52.9219 162.897C52.9219 162.851 53.5753 162.813 54.3901 162.813C55.2049 162.813 55.8584 162.851 55.8584 162.897Z" fill="#263238"/>
<path d="M57.3809 167.253C57.3809 167.253 56.9196 167.736 56.2739 168.259C55.6282 168.773 55.0824 169.165 55.0594 169.127C55.0363 169.088 55.5283 168.635 56.1663 168.121C56.8043 167.606 57.3501 167.214 57.3809 167.253Z" fill="#263238"/>
<path d="M61.1401 170.624C61.1785 170.655 60.8095 171.216 60.3867 171.93C59.9563 172.637 59.6334 173.228 59.5873 173.205C59.5412 173.182 59.8025 172.552 60.2407 171.838C60.6712 171.116 61.1093 170.594 61.1478 170.624H61.1401Z" fill="#263238"/>
<path d="M65.483 174.964C65.4369 174.964 65.3984 174.273 65.3984 173.412C65.3984 172.552 65.4369 171.861 65.483 171.861C65.5291 171.861 65.5676 172.552 65.5676 173.412C65.5676 174.273 65.5291 174.964 65.483 174.964Z" fill="#263238"/>
<path d="M72.1707 172.898C72.1477 172.936 71.5404 172.591 70.8947 172.022C70.2413 171.462 69.8185 170.901 69.8492 170.878C69.8877 170.847 70.3643 171.339 71.01 171.892C71.648 172.452 72.2015 172.859 72.1707 172.898Z" fill="#263238"/>
<path d="M75.3177 169.518C75.3177 169.518 74.8257 169.15 74.2876 168.612C73.7572 168.082 73.3498 167.621 73.3805 167.583C73.4113 167.552 73.8725 167.951 74.4106 168.489C74.941 169.019 75.3484 169.48 75.3177 169.518Z" fill="#263238"/>
<path d="M57.236 158.735C57.236 158.735 56.7979 158.42 56.329 157.951C55.86 157.483 55.5141 157.076 55.5449 157.045C55.5756 157.014 55.983 157.36 56.4519 157.828C56.9209 158.297 57.2668 158.704 57.236 158.735Z" fill="#263238"/>
<path d="M61.1194 154.649C61.1194 154.649 60.6889 154.342 60.2277 153.888C59.7665 153.435 59.4282 153.036 59.459 152.998C59.4897 152.967 59.8895 153.305 60.3507 153.758C60.8119 154.211 61.1501 154.61 61.1194 154.649Z" fill="#263238"/>
<path d="M126.532 200.349C126.47 200.349 126.539 199.327 126.094 197.561C125.886 196.677 125.463 195.64 124.81 194.534C124.149 193.436 123.196 192.292 121.904 191.324C120.62 190.364 118.998 189.55 117.123 189.219C115.262 188.905 113.172 188.966 111.181 189.726C110.174 190.072 109.213 190.602 108.321 191.27C107.422 191.923 106.607 192.729 105.93 193.674C104.539 195.525 103.755 197.899 103.732 200.349C103.755 202.799 104.539 205.172 105.93 207.023C106.607 207.96 107.422 208.774 108.321 209.427C109.213 210.095 110.181 210.618 111.181 210.971C113.172 211.731 115.27 211.793 117.123 211.478C118.991 211.148 120.613 210.333 121.904 209.373C123.196 208.406 124.149 207.261 124.81 206.163C125.463 205.065 125.886 204.02 126.094 203.137C126.539 201.378 126.463 200.349 126.532 200.349C126.532 200.349 126.539 200.41 126.539 200.533C126.539 200.679 126.539 200.863 126.532 201.078C126.532 201.316 126.516 201.616 126.463 201.969C126.416 202.323 126.37 202.73 126.247 203.167C126.055 204.066 125.655 205.134 125.002 206.27C124.349 207.399 123.388 208.582 122.073 209.588C120.766 210.587 119.106 211.439 117.184 211.793C115.278 212.131 113.118 212.085 111.05 211.309C110.012 210.956 109.013 210.41 108.09 209.727C107.16 209.058 106.315 208.221 105.615 207.254C104.17 205.341 103.355 202.883 103.332 200.349C103.355 197.814 104.17 195.356 105.615 193.444C106.315 192.476 107.16 191.639 108.09 190.971C109.013 190.287 110.012 189.749 111.05 189.388C113.11 188.613 115.27 188.567 117.184 188.905C119.106 189.258 120.766 190.11 122.073 191.109C123.388 192.115 124.341 193.298 125.002 194.427C125.655 195.564 126.055 196.624 126.247 197.53C126.37 197.975 126.416 198.382 126.463 198.728C126.524 199.074 126.532 199.373 126.532 199.619C126.532 199.842 126.532 200.018 126.539 200.164C126.539 200.287 126.539 200.349 126.532 200.349Z" fill="white"/>
<path d="M117.29 202.999C116.652 202.999 116.099 203.345 115.76 203.874C115.345 203.552 114.83 203.183 114.254 202.792C113.939 202.576 113.639 202.377 113.347 202.2C113.7 201.862 113.915 201.386 113.915 200.856C113.915 200.472 113.8 200.111 113.593 199.819C113.939 199.581 114.331 199.297 114.738 198.974C115.099 198.69 115.438 198.421 115.73 198.175C116.068 198.667 116.629 198.99 117.275 198.99C118.305 198.99 119.143 198.152 119.143 197.123C119.143 196.094 118.305 195.257 117.275 195.257C116.245 195.257 115.407 196.094 115.407 197.123C115.407 197.346 115.453 197.561 115.522 197.753C115.184 197.991 114.815 198.26 114.423 198.567C114 198.89 113.623 199.205 113.293 199.481C112.962 199.182 112.524 198.99 112.04 198.99C111.01 198.99 110.172 199.827 110.172 200.856C110.172 201.885 111.01 202.722 112.04 202.722C112.363 202.722 112.663 202.63 112.924 202.492C113.239 202.722 113.585 202.968 113.954 203.214C114.546 203.613 115.099 203.967 115.561 204.243C115.468 204.489 115.414 204.75 115.414 205.034C115.414 206.156 116.252 207.062 117.282 207.062C118.313 207.062 119.15 206.148 119.15 205.027C119.15 203.905 118.313 202.999 117.282 202.999H117.29Z" fill="#F5F5F5"/>
<path d="M117.292 202.999C117.292 202.999 117.553 202.945 117.992 203.122C118.414 203.283 119.029 203.797 119.175 204.688C119.252 205.126 119.191 205.641 118.929 206.109C118.676 206.578 118.184 207 117.553 207.085C116.931 207.192 116.216 206.9 115.801 206.324C115.378 205.756 115.24 204.934 115.524 204.205L115.555 204.281C114.717 203.751 113.817 203.191 112.918 202.53H112.995C112.434 202.86 111.673 202.86 111.089 202.507C110.497 202.169 110.097 201.478 110.135 200.764C110.151 200.049 110.612 199.35 111.296 199.059C111.973 198.751 112.834 198.882 113.387 199.404H113.279C113.625 199.12 114.002 198.813 114.379 198.506C114.763 198.221 115.14 197.945 115.509 197.668L115.478 197.761C115.278 197.254 115.332 196.67 115.578 196.194C115.824 195.717 116.27 195.364 116.769 195.226C117.269 195.08 117.822 195.149 118.261 195.403C118.706 195.648 119.029 196.078 119.168 196.547C119.468 197.507 118.899 198.559 118.038 198.89C117.177 199.251 116.162 198.89 115.709 198.183L115.808 198.198C115.063 198.813 114.34 199.35 113.664 199.842L113.679 199.757C114.256 200.602 114.002 201.678 113.41 202.208V202.131C114.409 202.776 115.186 203.383 115.801 203.82H115.755C116.085 203.321 116.539 203.099 116.839 203.022C117.146 202.945 117.307 202.968 117.307 202.968C117.307 202.976 117.138 202.968 116.846 203.052C116.554 203.137 116.124 203.36 115.808 203.859L115.793 203.89L115.762 203.867C115.14 203.436 114.363 202.845 113.349 202.208L113.295 202.177L113.341 202.131C113.894 201.624 114.117 200.61 113.579 199.819L113.548 199.773L113.595 199.742C114.271 199.251 114.986 198.713 115.724 198.091L115.778 198.045L115.816 198.106C116.247 198.767 117.184 199.089 117.984 198.751C118.783 198.444 119.306 197.469 119.029 196.585C118.799 195.694 117.761 195.08 116.823 195.372C116.362 195.502 115.955 195.825 115.732 196.263C115.509 196.701 115.463 197.231 115.639 197.699L115.662 197.753L115.609 197.791C115.24 198.068 114.863 198.344 114.479 198.628C114.102 198.936 113.733 199.235 113.387 199.519L113.333 199.565L113.279 199.519C112.764 199.035 111.98 198.92 111.358 199.204C110.727 199.473 110.304 200.111 110.289 200.771C110.258 201.432 110.62 202.069 111.165 202.384C111.711 202.714 112.403 202.715 112.926 202.415L112.964 202.392L113.003 202.423C113.894 203.075 114.794 203.644 115.624 204.174L115.67 204.205L115.647 204.258C115.378 204.942 115.501 205.725 115.901 206.255C116.293 206.801 116.954 207.069 117.546 206.977C118.138 206.9 118.614 206.501 118.86 206.056C119.114 205.61 119.183 205.111 119.114 204.688C118.983 203.821 118.407 203.321 117.992 203.145C117.569 202.96 117.3 202.999 117.307 202.983L117.292 202.999Z" fill="#263238"/>
<path d="M261.519 187.54C276.119 187.54 287.952 175.695 287.948 161.083C287.944 146.472 276.106 134.626 261.506 134.626C246.906 134.626 235.073 146.472 235.077 161.083C235.081 175.695 246.919 187.54 261.519 187.54Z" fill="white"/>
<path d="M287.984 161.154C287.984 161.154 287.961 161.008 287.945 160.724C287.922 160.425 287.899 160.01 287.861 159.465C287.845 159.188 287.822 158.881 287.807 158.543C287.769 158.205 287.699 157.836 287.638 157.437C287.515 156.638 287.392 155.717 287.084 154.71C286.615 152.667 285.655 150.256 284.148 147.69C282.626 145.14 280.427 142.483 277.437 140.225C274.454 137.99 270.695 136.085 266.352 135.317C265.261 135.163 264.161 134.94 263.024 134.933C262.455 134.91 261.886 134.856 261.309 134.864C260.733 134.894 260.156 134.925 259.565 134.956C259.272 134.979 258.98 134.971 258.688 135.01L257.812 135.148C257.228 135.248 256.628 135.317 256.044 135.432C254.883 135.747 253.676 135.985 252.538 136.461C251.355 136.838 250.248 137.421 249.11 137.967C248.557 138.266 248.018 138.62 247.473 138.942C246.912 139.257 246.396 139.641 245.889 140.033C244.821 140.762 243.883 141.684 242.907 142.567C242.023 143.543 241.092 144.503 240.331 145.617C238.763 147.79 237.403 150.202 236.572 152.852C235.711 155.486 235.25 158.29 235.212 161.139C235.25 163.989 235.711 166.792 236.565 169.434C237.395 172.092 238.756 174.503 240.324 176.677C241.085 177.791 242.015 178.743 242.899 179.726C243.875 180.609 244.813 181.531 245.881 182.261C246.396 182.652 246.912 183.044 247.473 183.351C248.026 183.674 248.557 184.027 249.11 184.327C250.248 184.872 251.362 185.456 252.538 185.832C253.684 186.308 254.883 186.546 256.044 186.861C256.636 186.984 257.228 187.053 257.812 187.146L258.688 187.284C258.98 187.322 259.272 187.322 259.565 187.338C260.149 187.368 260.733 187.399 261.309 187.43C261.886 187.437 262.455 187.384 263.024 187.361C264.161 187.361 265.261 187.13 266.352 186.977C270.695 186.209 274.454 184.304 277.437 182.069C280.427 179.811 282.626 177.145 284.148 174.603C285.655 172.045 286.615 169.634 287.084 167.583C287.392 166.577 287.507 165.648 287.638 164.856C287.699 164.457 287.769 164.088 287.807 163.75C287.83 163.412 287.845 163.105 287.861 162.829C287.899 162.291 287.922 161.869 287.945 161.569C287.968 161.285 287.984 161.139 287.984 161.139C287.984 161.139 287.984 161.285 287.984 161.569C287.976 161.869 287.961 162.291 287.938 162.829C287.93 163.105 287.915 163.42 287.899 163.758C287.868 164.096 287.799 164.465 287.745 164.872C287.63 165.678 287.523 166.608 287.223 167.621C286.777 169.68 285.831 172.122 284.325 174.711C282.81 177.291 280.604 179.995 277.598 182.291C274.6 184.565 270.795 186.508 266.398 187.307C265.299 187.468 264.184 187.699 263.031 187.706C262.455 187.729 261.878 187.783 261.294 187.775C260.71 187.745 260.118 187.722 259.526 187.691C259.234 187.668 258.934 187.676 258.634 187.637L257.743 187.507C257.151 187.407 256.543 187.338 255.944 187.222C254.768 186.907 253.546 186.669 252.385 186.185C251.186 185.801 250.063 185.218 248.902 184.665C248.341 184.357 247.796 184.004 247.242 183.674C246.673 183.359 246.15 182.967 245.628 182.568C244.544 181.823 243.591 180.894 242.599 180.003C241.7 179.012 240.754 178.036 239.978 176.915C238.387 174.711 236.995 172.261 236.157 169.565C235.289 166.884 234.82 164.042 234.781 161.147C234.82 158.251 235.289 155.409 236.157 152.729C237.003 150.033 238.387 147.583 239.978 145.386C240.754 144.257 241.7 143.289 242.599 142.299C243.591 141.4 244.544 140.471 245.628 139.733C246.15 139.334 246.673 138.942 247.242 138.627C247.803 138.297 248.341 137.944 248.902 137.636C250.063 137.083 251.186 136.492 252.385 136.116C253.546 135.632 254.768 135.394 255.944 135.079C256.543 134.956 257.143 134.887 257.743 134.795L258.634 134.656C258.934 134.618 259.226 134.618 259.526 134.603C260.118 134.572 260.71 134.541 261.294 134.518C261.878 134.518 262.455 134.564 263.031 134.587C264.184 134.595 265.299 134.825 266.398 134.987C270.795 135.778 274.593 137.721 277.591 140.002C280.604 142.299 282.803 145.002 284.317 147.583C285.824 150.171 286.762 152.614 287.215 154.68C287.507 155.693 287.622 156.631 287.738 157.429C287.792 157.829 287.861 158.197 287.891 158.543C287.907 158.881 287.915 159.196 287.93 159.472C287.945 160.018 287.961 160.432 287.976 160.732C287.976 161.016 287.976 161.162 287.976 161.162L287.984 161.154Z" fill="#D84426"/>
<path d="M277.761 174.68C277.761 174.68 277.562 174.703 277.177 174.718C276.754 174.726 276.201 174.741 275.501 174.757C274.002 174.772 271.904 174.795 269.329 174.818C264.086 174.834 256.906 174.849 248.973 174.872C248.474 174.872 247.982 174.872 247.52 174.872H247.328V174.68C247.351 167.084 247.374 160.271 247.39 155.309C247.413 152.875 247.436 150.901 247.451 149.488C247.466 148.827 247.474 148.305 247.49 147.913C247.505 147.552 247.513 147.368 247.528 147.368C247.543 147.368 247.551 147.56 247.566 147.913C247.574 148.312 247.589 148.835 247.605 149.488C247.62 150.901 247.643 152.875 247.666 155.309C247.682 160.271 247.705 167.084 247.728 174.68L247.536 174.488C247.997 174.488 248.489 174.488 248.989 174.488C256.922 174.511 264.101 174.526 269.344 174.542C271.919 174.565 274.018 174.588 275.517 174.603C276.216 174.618 276.777 174.634 277.193 174.642C277.577 174.657 277.777 174.665 277.777 174.68H277.761Z" fill="#263238"/>
<path d="M274.401 153.996C274.401 153.996 274.094 154.319 273.502 154.856C272.849 155.425 271.988 156.185 270.95 157.099C268.782 158.973 265.776 161.554 262.433 164.373L261.925 164.803L261.795 164.91L261.672 164.795C260.334 163.558 259.066 162.376 257.882 161.277H258.12C255.891 163.121 253.977 164.695 252.555 165.87C251.901 166.393 251.363 166.823 250.94 167.161C250.564 167.453 250.348 167.606 250.341 167.591C250.325 167.575 250.51 167.391 250.871 167.068C251.279 166.707 251.794 166.254 252.416 165.701C253.808 164.503 255.699 162.89 257.889 161.008L258.005 160.909L258.12 161.016C259.304 162.107 260.588 163.282 261.925 164.511H261.672L262.179 164.081C265.515 161.254 268.559 158.712 270.765 156.892C271.842 156.016 272.726 155.294 273.394 154.749C274.025 154.25 274.378 153.981 274.394 154.004L274.401 153.996Z" fill="#263238"/>
<path d="M274.403 160.325C274.349 160.325 274.303 159.611 274.273 158.443C274.242 157.276 274.219 155.655 274.211 153.85L274.403 154.042C274.303 154.042 274.188 154.042 274.08 154.042C272.197 154.042 270.498 154.019 269.268 153.988C268.038 153.95 267.277 153.904 267.277 153.85C267.277 153.796 268.038 153.75 269.268 153.712C270.498 153.674 272.205 153.658 274.08 153.658C274.196 153.658 274.303 153.658 274.403 153.658H274.595V153.85C274.595 155.655 274.572 157.276 274.534 158.443C274.503 159.611 274.449 160.325 274.403 160.325Z" fill="#263238"/>
<path d="M310.25 121.001C321.389 121.001 330.417 111.964 330.414 100.816C330.411 89.6677 321.379 80.6304 310.24 80.6304C299.1 80.6304 290.073 89.6677 290.075 100.816C290.078 111.964 299.111 121.001 310.25 121.001Z" fill="white"/>
<path d="M330.49 100.893C330.49 100.893 330.475 100.785 330.452 100.57C330.436 100.34 330.413 100.025 330.383 99.6253C330.367 99.4179 330.352 99.1798 330.336 98.9263C330.306 98.6729 330.252 98.3964 330.206 98.0968C330.106 97.4977 330.014 96.7988 329.783 96.0461C329.429 94.51 328.707 92.6897 327.569 90.7695C326.424 88.8571 324.771 86.8524 322.519 85.155C320.274 83.473 317.445 82.0444 314.178 81.4683C310.934 80.9153 307.275 81.0152 303.785 82.3362C302.901 82.6204 302.063 83.0582 301.21 83.473C300.395 83.9645 299.542 84.4177 298.788 85.0321C297.981 85.5851 297.282 86.2764 296.544 86.9369C295.883 87.6742 295.183 88.3885 294.607 89.2257C293.431 90.8617 292.4 92.6743 291.786 94.6636C291.14 96.6452 290.794 98.7497 290.763 100.893C290.794 103.035 291.14 105.14 291.778 107.122C292.401 109.118 293.423 110.931 294.599 112.567C295.176 113.404 295.867 114.119 296.536 114.856C297.274 115.516 297.974 116.208 298.781 116.761C299.534 117.375 300.395 117.828 301.202 118.32C302.063 118.735 302.893 119.172 303.777 119.457C307.267 120.778 310.926 120.885 314.17 120.324C317.437 119.748 320.266 118.32 322.511 116.638C324.763 114.94 326.416 112.943 327.561 111.023C328.699 109.103 329.422 107.283 329.775 105.747C330.006 104.986 330.098 104.295 330.198 103.696C330.244 103.396 330.298 103.12 330.329 102.866C330.344 102.613 330.359 102.383 330.375 102.168C330.406 101.768 330.429 101.453 330.444 101.223C330.459 101.008 330.475 100.9 330.482 100.9C330.49 100.9 330.49 101.008 330.482 101.223C330.482 101.453 330.467 101.768 330.452 102.175C330.444 102.383 330.436 102.621 330.429 102.874C330.406 103.128 330.359 103.412 330.321 103.711C330.236 104.318 330.152 105.017 329.937 105.785C329.598 107.337 328.891 109.18 327.761 111.138C326.616 113.089 324.963 115.125 322.688 116.861C320.428 118.581 317.56 120.048 314.24 120.647C310.942 121.231 307.221 121.139 303.662 119.802C302.755 119.518 301.909 119.073 301.033 118.65C300.203 118.151 299.334 117.69 298.558 117.068C297.735 116.507 297.02 115.808 296.267 115.132C295.591 114.387 294.876 113.65 294.292 112.797C293.092 111.131 292.039 109.287 291.409 107.252C290.748 105.232 290.394 103.082 290.371 100.893C290.402 98.7113 290.755 96.5607 291.417 94.5407C292.055 92.5053 293.1 90.6543 294.299 88.9953C294.883 88.1428 295.598 87.4131 296.275 86.6604C297.028 85.9845 297.743 85.2856 298.566 84.7249C299.334 84.1028 300.211 83.6419 301.041 83.1427C301.917 82.7279 302.763 82.2825 303.67 81.9906C307.229 80.6542 310.949 80.562 314.247 81.138C317.568 81.7371 320.435 83.2041 322.695 84.9246C324.963 86.6604 326.624 88.7034 327.769 90.6466C328.899 92.6052 329.614 94.4485 329.944 96C330.167 96.7681 330.244 97.467 330.329 98.0738C330.367 98.3733 330.421 98.6575 330.436 98.911C330.444 99.1644 330.452 99.4025 330.459 99.6099C330.475 100.009 330.482 100.324 330.49 100.562C330.49 100.777 330.49 100.885 330.49 100.885V100.893Z" fill="#D84426"/>
<path d="M311.153 90.2321L313.82 95.6393C313.92 95.8467 314.12 95.9849 314.343 96.0156L320.308 96.8835C320.877 96.968 321.108 97.667 320.693 98.0664L316.372 102.275C316.211 102.437 316.134 102.667 316.173 102.89L317.195 108.827C317.295 109.395 316.695 109.825 316.188 109.557L310.845 106.753C310.646 106.646 310.4 106.646 310.2 106.753L304.865 109.557C304.357 109.825 303.758 109.395 303.858 108.827L304.88 102.89C304.919 102.667 304.842 102.437 304.68 102.275L300.36 98.0664C299.945 97.667 300.176 96.968 300.745 96.8835L306.71 96.0156C306.933 95.9849 307.133 95.839 307.232 95.6393L309.9 90.2321C310.154 89.7175 310.892 89.7175 311.145 90.2321H311.153Z" fill="#FAFAFA"/>
<path d="M311.151 90.2319C311.151 90.2319 311.12 90.1781 311.036 90.0859C310.959 90.0014 310.805 89.8862 310.575 89.8709C310.352 89.8555 310.044 89.9784 309.921 90.301C309.767 90.6159 309.598 90.9769 309.398 91.384C308.999 92.2058 308.522 93.1966 307.961 94.341C307.823 94.6328 307.677 94.9247 307.523 95.2319C307.446 95.3855 307.369 95.5468 307.292 95.7081C307.192 95.8848 307.023 96.023 306.831 96.0768C306.093 96.2074 305.347 96.3072 304.54 96.4301C303.741 96.5453 302.903 96.6759 302.034 96.8065C301.604 96.8756 301.158 96.937 300.712 97.0062C300.32 97.0753 300.128 97.6206 300.397 97.9201C301.757 99.2412 303.21 100.647 304.732 102.137C304.963 102.321 305.078 102.705 304.994 102.989C304.948 103.258 304.902 103.527 304.855 103.796C304.763 104.333 304.671 104.879 304.579 105.432C304.394 106.53 304.202 107.659 304.002 108.804C303.941 109.057 304.041 109.287 304.248 109.418C304.348 109.479 304.463 109.51 304.579 109.503C304.694 109.495 304.794 109.441 304.932 109.364C305.455 109.088 305.985 108.811 306.516 108.535C307.577 107.974 308.653 107.413 309.744 106.837L310.159 106.622C310.329 106.538 310.521 106.515 310.705 106.561C310.897 106.607 311.02 106.699 311.159 106.761L311.566 106.976C312.104 107.26 312.642 107.536 313.173 107.82C314.234 108.373 315.279 108.926 316.301 109.464C316.517 109.564 316.778 109.502 316.932 109.326C317.009 109.241 317.063 109.134 317.07 109.019C317.086 108.919 317.047 108.781 317.024 108.635C316.932 108.074 316.832 107.513 316.74 106.968C316.555 105.87 316.371 104.787 316.186 103.734C316.14 103.473 316.094 103.212 316.056 102.951C315.986 102.651 316.14 102.306 316.355 102.137C316.732 101.776 317.093 101.415 317.462 101.069C318.185 100.363 318.892 99.679 319.576 99.0185C319.914 98.6882 320.253 98.3656 320.583 98.043C320.914 97.7896 320.845 97.2596 320.506 97.083C320.36 96.9908 320.122 96.9985 319.907 96.9524C319.692 96.9217 319.484 96.8909 319.276 96.8602C318.861 96.7988 318.446 96.7373 318.046 96.6759C317.247 96.553 316.486 96.4455 315.771 96.3379C315.41 96.2842 315.064 96.2304 314.726 96.1766C314.549 96.1459 314.403 96.1382 314.211 96.0845C314.034 96.023 313.88 95.9078 313.788 95.7542C313.227 94.6021 312.742 93.6113 312.35 92.7895C311.966 91.9907 311.666 91.3609 311.451 90.9154C311.359 90.7081 311.282 90.5468 311.228 90.4239C311.182 90.3163 311.159 90.2549 311.159 90.2549C311.159 90.2549 311.197 90.3087 311.251 90.4162C311.313 90.5391 311.397 90.6927 311.505 90.8924C311.728 91.3302 312.043 91.9523 312.45 92.7434C312.858 93.5499 313.357 94.533 313.926 95.6697C314.003 95.7926 314.118 95.8848 314.257 95.9309C314.387 95.9693 314.58 95.977 314.741 96.0077C315.079 96.0538 315.433 96.1075 315.794 96.1536C316.517 96.2535 317.278 96.361 318.077 96.4762C318.477 96.53 318.884 96.5914 319.307 96.6528C319.515 96.6836 319.73 96.7143 319.945 96.745C320.153 96.7911 320.376 96.7681 320.622 96.8986C320.852 97.0215 321.006 97.2596 321.029 97.5208C321.06 97.7819 320.937 98.0661 320.752 98.2197C320.422 98.5423 320.091 98.8649 319.753 99.1951C319.077 99.8557 318.369 100.547 317.647 101.254C317.285 101.607 316.916 101.968 316.547 102.329C316.363 102.49 316.286 102.69 316.325 102.913C316.371 103.174 316.417 103.435 316.463 103.696C316.647 104.748 316.832 105.823 317.024 106.922C317.116 107.475 317.216 108.028 317.309 108.589C317.324 108.727 317.37 108.865 317.355 109.049C317.339 109.218 317.262 109.387 317.147 109.518C316.924 109.779 316.517 109.879 316.194 109.733C315.164 109.195 314.111 108.642 313.042 108.089C312.512 107.813 311.974 107.529 311.436 107.244L311.028 107.029C310.89 106.96 310.759 106.876 310.651 106.853C310.536 106.83 310.405 106.845 310.298 106.891L309.89 107.106C308.799 107.682 307.723 108.243 306.662 108.804C306.131 109.08 305.601 109.357 305.078 109.633C304.963 109.695 304.794 109.794 304.609 109.802C304.433 109.817 304.248 109.771 304.102 109.671C303.795 109.495 303.649 109.088 303.733 108.765C303.933 107.621 304.125 106.499 304.317 105.393C304.41 104.84 304.509 104.295 304.602 103.757C304.648 103.489 304.694 103.22 304.74 102.951C304.802 102.705 304.74 102.498 304.556 102.336C303.026 100.839 301.581 99.4179 300.22 98.0814C300.043 97.8664 299.997 97.5592 300.089 97.298C300.174 97.0369 300.405 96.8372 300.666 96.7834C301.119 96.7143 301.573 96.6528 302.011 96.5914C302.88 96.4685 303.718 96.3533 304.525 96.2381C305.317 96.1229 306.078 96.0154 306.793 95.9155C306.946 95.8694 307.077 95.7696 307.154 95.639C307.231 95.4854 307.308 95.3318 307.384 95.1782C307.538 94.8709 307.684 94.5791 307.83 94.2872C308.407 93.1428 308.899 92.1597 309.306 91.3455C309.506 90.9462 309.691 90.5852 309.852 90.2779C309.998 89.9323 310.352 89.8017 310.59 89.8325C310.844 89.8555 310.997 89.9861 311.074 90.0859C311.151 90.1858 311.167 90.2472 311.167 90.2472L311.151 90.2319Z" fill="#263238"/>
<path d="M262.712 54.0789C270.838 54.0789 277.423 47.4865 277.421 39.3544C277.419 31.2223 270.83 24.6299 262.705 24.6299C254.579 24.6299 247.994 31.2223 247.996 39.3544C247.998 47.4865 254.587 54.0789 262.712 54.0789Z" fill="white"/>
<path d="M277.183 39.6319C277.183 39.6319 277.168 39.5551 277.153 39.3938C277.137 39.2171 277.122 38.9867 277.099 38.7025C277.084 38.3953 277.053 38.0189 276.968 37.5811C276.899 37.1433 276.83 36.6287 276.653 36.0757C276.392 34.9544 275.854 33.6256 275.023 32.2201C274.178 30.8222 272.971 29.3552 271.326 28.1186C269.681 26.8897 267.613 25.8452 265.23 25.4304C262.862 25.0234 260.187 25.1002 257.635 26.0679C256.351 26.5134 255.114 27.1893 253.984 28.0342C253.4 28.4335 252.884 28.9405 252.346 29.4243C251.862 29.962 251.347 30.4843 250.932 31.0987C249.156 33.4567 248.157 36.4982 248.126 39.6242C248.157 42.7502 249.156 45.7917 250.932 48.1497C251.347 48.7564 251.862 49.2864 252.346 49.824C252.884 50.3079 253.4 50.8148 253.984 51.2142C255.121 52.0668 256.359 52.735 257.635 53.1804C260.18 54.1482 262.855 54.225 265.23 53.8179C267.621 53.3955 269.689 52.3586 271.326 51.1297C272.971 49.8932 274.185 48.4262 275.023 47.0283C275.861 45.6227 276.392 44.294 276.653 43.1726C276.822 42.6196 276.891 42.1127 276.968 41.6672C277.053 41.2294 277.084 40.8531 277.099 40.5459C277.122 40.2617 277.137 40.0313 277.153 39.8546C277.168 39.701 277.176 39.6165 277.183 39.6165C277.191 39.6165 277.191 39.6933 277.191 39.8546C277.191 40.0313 277.183 40.2617 277.176 40.5535C277.176 40.8608 277.153 41.2371 277.083 41.6826C277.022 42.1281 276.968 42.6427 276.807 43.2033C276.561 44.3478 276.046 45.6995 275.216 47.1358C274.378 48.5721 273.163 50.0698 271.495 51.3448C269.835 52.6121 267.728 53.6951 265.284 54.1328C262.862 54.563 260.118 54.4938 257.504 53.5107C256.19 53.0576 254.914 52.374 253.745 51.5061C253.146 51.0913 252.615 50.5767 252.062 50.0775C251.562 49.5245 251.04 48.9868 250.609 48.3647C248.78 45.9453 247.749 42.8193 247.719 39.6011C247.749 36.3907 248.78 33.2646 250.609 30.8453C251.04 30.2231 251.562 29.6778 252.062 29.1325C252.615 28.6332 253.146 28.1186 253.745 27.7039C254.914 26.836 256.182 26.1524 257.504 25.6992C260.118 24.7161 262.862 24.6547 265.284 25.0771C267.721 25.5226 269.827 26.6056 271.495 27.8652C273.163 29.1402 274.378 30.6456 275.216 32.0741C276.046 33.5104 276.561 34.8699 276.807 36.0066C276.968 36.5673 277.022 37.0896 277.083 37.5274C277.16 37.9729 277.176 38.3492 277.176 38.6564C277.176 38.9483 277.183 39.171 277.191 39.3554C277.191 39.509 277.191 39.5935 277.183 39.5935V39.6319Z" fill="#D84426"/>
<path d="M269.039 37.8728C269.039 33.7637 265.327 30.5302 261.068 31.329C258.393 31.8282 256.256 34.0172 255.795 36.6977C255.502 38.3721 255.848 39.9466 256.609 41.2523L256.625 41.2753C256.878 41.7055 257.201 42.0127 257.524 42.4658L261.398 47.5965C261.883 48.234 262.844 48.234 263.32 47.5965L267.133 42.5503C267.133 42.5503 267.848 41.7055 268.102 41.2677L268.117 41.2523C268.701 40.2615 269.039 39.1171 269.039 37.8805V37.8728ZM262.367 40.7761C260.745 40.7761 259.431 39.4627 259.431 37.8421C259.431 36.2215 260.745 34.9081 262.367 34.9081C263.989 34.9081 265.304 36.2215 265.304 37.8421C265.304 39.4627 263.989 40.7761 262.367 40.7761Z" fill="#F5F5F5"/>
<path d="M262.369 40.776C262.369 40.776 262.631 40.776 263.077 40.6531C263.515 40.5379 264.161 40.2384 264.66 39.5855C265.16 38.948 265.437 37.8958 265.06 36.8666C264.714 35.8528 263.63 34.9772 262.369 34.9849C261.109 34.9695 260.025 35.8528 259.679 36.8666C259.302 37.8881 259.579 38.948 260.079 39.5855C260.578 40.2461 261.216 40.5379 261.662 40.6531C262.108 40.7683 262.369 40.753 262.369 40.776C262.369 40.776 262.108 40.8144 261.647 40.7146C261.193 40.6147 260.517 40.3306 259.994 39.6547C259.464 39.0018 259.156 37.8958 259.548 36.8205C259.902 35.7529 261.047 34.8159 262.377 34.8312C263.707 34.8159 264.845 35.7529 265.206 36.8205C265.598 37.9035 265.291 39.0018 264.76 39.6547C264.23 40.3306 263.561 40.6147 263.107 40.7146C262.646 40.8144 262.385 40.776 262.385 40.776H262.369Z" fill="#263238"/>
<path d="M269.041 37.873C269.041 37.873 269.072 38.1956 269.003 38.7946C268.926 39.3937 268.726 40.277 268.157 41.2601L268.119 41.1987H268.203L268.149 41.2678L268.134 41.2832C266.958 42.8423 265.397 44.9238 263.56 47.3739C263.36 47.6811 263.045 48.0344 262.615 48.1035C262.199 48.1957 261.731 48.0651 261.431 47.7425C260.908 47.082 260.408 46.3984 259.87 45.6995C258.809 44.294 257.695 42.827 256.542 41.2985L256.526 41.2832L256.426 41.1526H256.588L256.519 41.2755C256.288 40.8838 256.088 40.446 255.927 39.9851C255.404 38.449 255.496 36.7823 256.065 35.3768C256.626 33.9559 257.656 32.8115 258.848 32.0972C260.047 31.3598 261.4 31.0987 262.638 31.1448C263.883 31.2139 265.005 31.6133 265.889 32.1663C267.696 33.303 268.495 34.962 268.787 36.068C268.88 36.3445 268.91 36.6057 268.941 36.8284C268.987 37.0511 268.995 37.2432 268.995 37.3968C269.01 37.704 269.003 37.8653 269.003 37.8653C268.964 37.8653 269.026 37.2048 268.718 36.0834C268.418 34.9851 267.603 33.3645 265.82 32.2585C264.944 31.7131 263.837 31.3291 262.622 31.2677C261.408 31.2293 260.085 31.4904 258.917 32.2124C257.749 32.919 256.742 34.0404 256.203 35.4305C255.658 36.8054 255.565 38.4337 256.073 39.9314C256.227 40.3845 256.426 40.8146 256.649 41.191L256.719 41.3139H256.572L256.634 41.1833L256.649 41.2064C257.795 42.7348 258.902 44.2018 259.962 45.5997C260.493 46.2986 261.008 46.9745 261.5 47.635C261.769 47.9192 262.184 48.0344 262.553 47.9576C262.945 47.8885 263.199 47.6043 263.414 47.2817C265.267 44.847 266.835 42.7809 268.019 41.2294L268.034 41.2064L268.065 41.2755H267.988L268.026 41.214C268.595 40.2463 268.803 39.3784 268.895 38.787C268.941 38.4874 268.956 38.257 268.964 38.1034C268.964 37.9498 268.979 37.8653 268.979 37.8653L269.041 37.873Z" fill="#263238"/>
<path d="M180.003 56.667C194.362 56.667 205.998 45.018 205.995 30.6482C205.991 16.2784 194.348 4.62939 179.99 4.62939C165.632 4.62939 153.995 16.2784 153.999 30.6482C154.003 45.018 165.645 56.667 180.003 56.667Z" fill="white"/>
<path d="M206.083 30.7457C206.083 30.7457 206.06 30.6074 206.045 30.3309C206.022 30.0391 205.999 29.632 205.96 29.102C205.945 28.8332 205.922 28.5337 205.906 28.2034C205.868 27.8731 205.799 27.5122 205.745 27.1281C205.622 26.3524 205.507 25.4461 205.207 24.463C204.753 22.4737 203.816 20.1157 202.34 17.6195C200.856 15.131 198.711 12.5427 195.798 10.3383C192.892 8.15703 189.225 6.29833 184.99 5.55331C183.929 5.3997 182.853 5.18464 181.746 5.17696C181.192 5.1616 180.631 5.10783 180.07 5.11551C179.509 5.14624 178.94 5.17696 178.371 5.2C178.087 5.22304 177.802 5.21536 177.51 5.25377L176.657 5.38434C176.088 5.4765 175.504 5.54563 174.927 5.66852C173.797 5.97574 172.621 6.20616 171.507 6.67468C170.354 7.04335 169.277 7.61171 168.163 8.14167C167.625 8.43354 167.102 8.77916 166.564 9.09407C166.018 9.40129 165.518 9.77764 165.019 10.1617C163.973 10.876 163.066 11.7746 162.113 12.6348C161.252 13.5872 160.345 14.5243 159.599 15.6072C158.07 17.7271 156.74 20.0773 155.933 22.6657C155.095 25.2387 154.649 27.9653 154.61 30.7457C154.649 33.5261 155.095 36.2604 155.933 38.8334C156.74 41.4217 158.07 43.7797 159.599 45.8918C160.345 46.9748 161.252 47.9118 162.113 48.8642C163.066 49.7245 163.981 50.6231 165.026 51.3374C165.526 51.7214 166.026 52.0978 166.572 52.405C167.11 52.7199 167.625 53.0655 168.17 53.3574C169.285 53.8873 170.369 54.4557 171.514 54.8244C172.629 55.2929 173.805 55.5233 174.935 55.8305C175.512 55.9458 176.088 56.0149 176.665 56.1147L177.518 56.2453C177.802 56.2837 178.095 56.2837 178.379 56.2991C178.948 56.3298 179.517 56.3605 180.078 56.3835C180.639 56.3912 181.2 56.3375 181.754 56.3221C182.868 56.3221 183.937 56.0994 184.998 55.9457C189.233 55.193 192.9 53.342 195.806 51.153C198.719 48.9487 200.864 46.3527 202.347 43.8718C203.823 41.3756 204.753 39.0254 205.215 37.0284C205.514 36.0453 205.63 35.1467 205.753 34.3633C205.814 33.9715 205.883 33.6182 205.914 33.288C205.937 32.9577 205.953 32.6582 205.968 32.3893C206.006 31.8671 206.029 31.4523 206.053 31.1681C206.076 30.8916 206.091 30.7534 206.091 30.7534C206.091 30.7534 206.091 30.8916 206.091 31.1681C206.083 31.46 206.068 31.8671 206.053 32.397C206.045 32.6658 206.03 32.9731 206.014 33.3033C205.983 33.6336 205.922 33.9946 205.868 34.3863C205.753 35.1697 205.653 36.076 205.361 37.0668C204.923 39.0791 204.008 41.4601 202.54 43.987C201.064 46.5063 198.911 49.1407 195.975 51.3835C193.046 53.6032 189.341 55.5003 185.051 56.276C183.975 56.4296 182.891 56.6524 181.761 56.6677C181.2 56.6908 180.639 56.7445 180.062 56.7369C179.494 56.7061 178.917 56.6831 178.341 56.6524C178.048 56.6293 177.756 56.637 177.472 56.5986L176.603 56.468C176.027 56.3759 175.435 56.3067 174.851 56.1838C173.698 55.8766 172.514 55.6462 171.376 55.17C170.208 54.8013 169.108 54.2253 167.978 53.6876C167.425 53.3881 166.902 53.0425 166.356 52.7199C165.803 52.4127 165.296 52.0286 164.78 51.6369C163.72 50.915 162.797 50.0086 161.821 49.1331C160.945 48.1653 160.022 47.2206 159.269 46.1223C157.716 43.9717 156.363 41.583 155.541 38.9563C154.687 36.3448 154.234 33.5645 154.195 30.7457C154.234 27.9269 154.687 25.1465 155.541 22.5351C156.363 19.9084 157.716 17.5197 159.269 15.3691C160.022 14.2708 160.945 13.3261 161.821 12.3583C162.79 11.4827 163.72 10.5764 164.78 9.85445C165.288 9.47042 165.795 9.08639 166.356 8.77916C166.902 8.45658 167.433 8.11095 167.978 7.81141C169.108 7.27376 170.208 6.69772 171.376 6.32905C172.506 5.86053 173.698 5.63012 174.851 5.31521C175.435 5.19232 176.019 5.13088 176.603 5.03103L177.472 4.90046C177.764 4.86206 178.056 4.86205 178.341 4.84669C178.917 4.81597 179.494 4.79293 180.062 4.76221C180.631 4.76221 181.2 4.80829 181.761 4.83133C182.884 4.83901 183.975 5.06175 185.051 5.22304C189.341 5.99878 193.046 7.88821 195.975 10.1156C198.911 12.3583 201.056 14.9928 202.54 17.512C204.008 20.0389 204.93 22.4199 205.361 24.4322C205.653 25.423 205.753 26.3293 205.868 27.1128C205.922 27.5045 205.983 27.8655 206.014 28.1957C206.03 28.526 206.037 28.8332 206.053 29.102C206.068 29.632 206.083 30.0391 206.091 30.3309C206.091 30.6074 206.091 30.7457 206.091 30.7457H206.083Z" fill="#D84426"/>
<path d="M179.189 25.4845C179.189 25.4845 179.297 25.4461 179.52 25.4154C179.735 25.377 180.065 25.3616 180.48 25.3923C181.303 25.4538 182.564 25.7917 183.671 26.8593C184.77 27.8885 185.592 29.7626 185.162 31.7749C184.962 32.7657 184.447 33.7565 183.648 34.5169C182.863 35.3003 181.787 35.8226 180.627 35.9916C179.466 36.1375 178.282 35.9147 177.313 35.3771C176.337 34.8548 175.584 34.033 175.123 33.1344C174.169 31.3141 174.461 29.2787 175.246 28.0037C176.022 26.6827 177.152 26.0221 177.928 25.7456C178.32 25.5997 178.643 25.5306 178.859 25.5075C179.074 25.4768 179.189 25.4768 179.197 25.4845C179.204 25.5306 178.743 25.5767 177.99 25.8916C177.252 26.2065 176.206 26.8747 175.507 28.1497C174.8 29.3786 174.561 31.2757 175.468 32.9577C175.907 33.7872 176.614 34.5399 177.513 35.0161C178.405 35.5154 179.497 35.715 180.573 35.5768C181.641 35.4232 182.641 34.9393 183.371 34.225C184.116 33.5261 184.593 32.6121 184.793 31.6981C185.216 29.8394 184.485 28.0728 183.471 27.0744C182.456 26.0375 181.265 25.6688 180.473 25.5613C179.666 25.4538 179.204 25.5382 179.204 25.4922L179.189 25.4845Z" fill="#263238"/>
<path d="M181.156 18.8253C181.156 18.8253 181.125 18.7715 181.079 18.664C181.025 18.5334 180.956 18.3645 180.872 18.1494C180.679 17.6655 180.41 16.982 180.072 16.1064L180.141 16.1525C178.904 16.3291 177.289 16.5595 175.345 16.8437L175.437 16.7515C175.368 17.6348 175.283 18.6179 175.199 19.6702V19.747L175.122 19.7777C174.215 20.1617 173.3 20.684 172.431 21.3599L172.37 21.4137L172.293 21.3753C171.463 20.9989 170.556 20.5918 169.618 20.1694L169.802 20.1233C168.88 21.3369 167.903 22.6349 166.881 23.9867V23.7793C167.458 24.4705 168.103 25.2386 168.764 26.022L168.834 26.0988L168.795 26.1987C168.426 27.0973 168.142 28.1265 168.011 29.2095L167.996 29.317L167.896 29.3554C167.043 29.678 166.112 30.0236 165.151 30.3846L165.274 30.1849C165.482 31.6903 165.705 33.3186 165.936 34.9853L165.759 34.8163C166.666 34.8931 167.665 34.9853 168.68 35.0698H168.803L168.849 35.1927C169.226 36.0913 169.756 37.0207 170.417 37.8732L170.494 37.973L170.44 38.0883C170.064 38.9254 169.648 39.8318 169.226 40.7534L169.164 40.5076C170.386 41.437 171.693 42.4278 173.023 43.4416H172.762C173.469 42.8502 174.238 42.2127 175.006 41.5676L175.106 41.4831L175.222 41.5292C176.136 41.9055 177.166 42.1897 178.22 42.3203C178.296 42.3817 178.05 42.182 178.389 42.4585V42.4662L178.396 42.4969L178.412 42.543L178.442 42.6275L178.504 42.7965L178.635 43.1421L178.888 43.8333C179.057 44.2942 179.227 44.7473 179.396 45.2005L179.173 45.0699C180.795 44.8472 182.401 44.6321 183.977 44.4171L183.8 44.6014C183.885 43.6183 183.977 42.6505 184.062 41.6828V41.5599L184.185 41.5138C185.153 41.1144 186.06 40.5844 186.868 39.9546L186.968 39.8778L187.083 39.9316C187.982 40.3464 188.874 40.7457 189.75 41.1451L189.512 41.2066C190.519 39.8932 191.495 38.6105 192.456 37.3586V37.5967C191.826 36.8363 191.195 36.0836 190.58 35.3463L190.504 35.2618L190.55 35.1543C190.957 34.1711 191.218 33.1573 191.349 32.1511L191.365 32.0436L191.464 32.0052C192.402 31.6596 193.317 31.314 194.209 30.9837L194.093 31.168C193.871 29.4783 193.655 27.8807 193.455 26.3677L193.601 26.5059C192.579 26.4137 191.611 26.3216 190.688 26.2371H190.596L190.557 26.1449C190.135 25.1157 189.597 24.2248 188.997 23.4413L188.943 23.3722L188.982 23.2954C189.427 22.3277 189.827 21.4597 190.211 20.6379L190.25 20.7915C188.766 19.6471 187.498 18.6717 186.406 17.8345H186.522C185.622 18.5718 184.877 19.1786 184.262 19.6932L184.231 19.7163L184.192 19.7009C183.216 19.2861 182.44 19.1018 181.932 18.9866C181.694 18.9405 181.502 18.9021 181.356 18.8714C181.225 18.8483 181.164 18.833 181.164 18.8253C181.164 18.8253 181.233 18.8253 181.356 18.833C181.487 18.8483 181.679 18.8714 181.94 18.9098C182.455 19.002 183.239 19.1632 184.239 19.5626H184.169C184.777 19.0557 185.507 18.4259 186.399 17.6732L186.452 17.6271L186.514 17.6732C187.613 18.495 188.889 19.4551 190.388 20.5842L190.465 20.6456L190.427 20.7378C190.058 21.5673 189.658 22.4352 189.228 23.4106L189.212 23.2724C189.835 24.0635 190.388 24.9775 190.834 26.0297L190.711 25.9375C191.641 26.0143 192.602 26.0988 193.632 26.1833H193.763L193.778 26.3216C193.986 27.8423 194.209 29.4322 194.447 31.1219L194.462 31.2602L194.332 31.3063C193.44 31.6442 192.533 31.9822 191.587 32.3355L191.703 32.1896C191.572 33.2264 191.303 34.2787 190.888 35.2925L190.857 35.1005C191.472 35.8378 192.103 36.5829 192.741 37.3432L192.84 37.4584L192.748 37.5813C191.795 38.8333 190.819 40.1236 189.819 41.437L189.719 41.5676L189.573 41.4984C188.697 41.099 187.805 40.6997 186.906 40.2849L187.114 40.2619C186.276 40.9147 185.338 41.46 184.339 41.8825L184.462 41.7135C184.377 42.6736 184.292 43.649 184.208 44.6321L184.192 44.8011L184.031 44.8241C182.455 45.0392 180.849 45.2543 179.227 45.477L179.057 45.5L178.996 45.3464C178.827 44.8933 178.658 44.4401 178.481 43.9793L178.227 43.288L178.097 42.9424L178.035 42.7734L178.004 42.6889L177.989 42.6429V42.6198L177.974 42.6121V42.6045C178.312 42.8733 178.066 42.6813 178.143 42.7427C177.043 42.6045 175.983 42.3126 175.037 41.9209L175.252 41.8902C174.484 42.5353 173.715 43.1728 173.008 43.7719L172.877 43.8794L172.746 43.7796C171.416 42.7657 170.11 41.7749 168.887 40.8456L168.757 40.7457L168.826 40.5998C169.249 39.6781 169.664 38.7718 170.04 37.9346L170.064 38.142C169.379 37.2587 168.834 36.2987 168.449 35.3693L168.618 35.4922C167.611 35.4 166.612 35.3156 165.705 35.2311L165.551 35.2157L165.528 35.0621C165.305 33.3954 165.09 31.7671 164.882 30.2617L164.859 30.1158L164.998 30.062C165.951 29.7087 166.889 29.3554 167.742 29.0405L167.627 29.1864C167.765 28.0727 168.073 27.0051 168.457 26.0912L168.488 26.2678C167.834 25.4844 167.196 24.7163 166.612 24.0174L166.527 23.9175L166.604 23.81C167.642 22.4582 168.626 21.1756 169.556 19.962L169.633 19.8699L169.741 19.9159C170.671 20.3461 171.57 20.7608 172.4 21.1448L172.262 21.1602C173.161 20.4689 174.099 19.9467 175.029 19.5626L174.953 19.6625C175.052 18.6102 175.145 17.6348 175.229 16.7515V16.6671L175.322 16.6594C177.274 16.4136 178.896 16.2062 180.134 16.0449H180.187L180.203 16.091C180.518 16.9666 180.756 17.6502 180.933 18.134C181.01 18.3568 181.072 18.5258 181.118 18.664C181.156 18.7869 181.179 18.8483 181.171 18.856L181.156 18.8253Z" fill="#263238"/>
</g>
<defs>
<clipPath id="clip0_2123_9503">
<rect width="330" height="212" fill="white" transform="translate(0.5)"/>
</clipPath>
</defs>
</svg>
