<svg width="371" height="266" viewBox="0 0 371 266" fill="none" xmlns="http://www.w3.org/2000/svg">
<path d="M263.462 232.781H87.9766V234.113H263.462V232.781Z" fill="black"/>
<path d="M211.925 125.539C200.632 111.92 188.079 118.951 184.882 122.826C155.791 158.02 112.14 165.079 107.822 187.028C105.483 198.903 115.531 228.658 175.72 229.087C238.539 229.53 253.209 193.187 238.857 169.95C224.519 146.741 223.218 139.171 211.925 125.539Z" fill="#AAB6C2"/>
<path d="M182.018 228.036V227.441C171.97 227.441 164.995 220.687 161.812 214.376C158.477 207.761 158.02 198.751 164.511 193.547C169.396 189.631 175.693 188.98 181.783 188.357C191.069 187.402 200.688 186.42 205.864 174.116C214.334 154.021 200.895 120.833 200.757 120.487L200.065 120.681C200.203 121.013 213.559 154.021 205.172 173.922C200.148 185.866 191.18 186.78 181.7 187.762C175.486 188.399 169.078 189.063 164.013 193.118C158.089 197.865 156.968 206.307 161.148 214.597C164.428 221.088 171.638 228.036 182.032 228.036H182.018Z" fill="black"/>
<path d="M131.628 219.816L131.877 219.248C122.162 216.383 117.954 205.907 118.148 197.395C118.314 190.046 121.691 181.369 130.631 179.03C136.928 177.383 141.523 177.328 145.966 177.272C153.841 177.176 160.65 177.092 173.604 167.681C193.519 153.233 193.685 121.471 193.685 121.152H192.952C192.952 121.471 192.772 152.97 173.119 167.239C160.359 176.497 153.688 176.58 145.952 176.677C141.662 176.733 136.804 176.788 130.41 178.463C121.096 180.898 117.594 189.839 117.414 197.382C117.221 206.101 121.58 216.826 131.628 219.802V219.816Z" fill="black"/>
<path d="M190.777 226.847C196.119 226.376 201.379 225.297 206.43 223.788C211.468 222.238 216.298 220.19 220.616 217.546C224.934 214.903 228.657 211.595 231.438 207.817C234.234 204.039 236.019 199.804 236.891 195.458C237.334 193.285 237.528 191.085 237.528 188.884C237.569 187.791 237.473 186.684 237.431 185.591C237.32 184.497 237.251 183.404 237.057 182.311C236.435 177.951 235.244 173.661 233.653 169.481C232.061 165.302 230.124 161.205 227.951 157.219C225.75 153.233 223.315 149.331 220.727 145.511C223.204 149.386 225.543 153.316 227.619 157.344C229.722 161.357 231.604 165.454 233.113 169.633C233.888 171.723 234.511 173.841 235.106 175.958C235.632 178.089 236.13 180.235 236.393 182.394C236.573 183.473 236.642 184.553 236.739 185.646C236.781 186.725 236.864 187.819 236.822 188.898C236.808 191.071 236.601 193.244 236.158 195.375C235.327 199.652 233.584 203.831 230.857 207.554C228.145 211.291 224.463 214.529 220.27 217.2C216.049 219.858 211.288 221.947 206.305 223.539C201.323 225.131 196.106 226.307 190.777 226.861V226.847Z" fill="black"/>
<path d="M133.981 130.653C131.365 130.653 129.012 130.155 127.005 129.172C126.743 129.047 126.521 128.923 126.314 128.771C120.542 124.923 123.532 96.3995 124.058 93.3825C125.414 93.3825 128.196 92.7458 129.081 92.5244C129.248 93.0503 129.718 94.6419 130.23 96.441C133.787 108.745 135.974 115.429 137.413 115.581C138.133 115.581 141.869 112.896 143.682 111.471C144.596 110.737 145.565 109.962 146.547 109.187L147.544 108.385C149.952 106.516 152.567 104.565 153.675 104.233C154.533 103.97 155.335 103.845 156.041 103.845C157.91 103.845 159.266 104.759 160.055 106.558C162.006 110.973 160.027 119.069 158.574 120.661C158.159 121.103 157.093 121.989 155.335 123.138C149.786 126.778 141.246 130.667 133.981 130.667V130.653Z" fill="#FFBCB0"/>
<path d="M169.41 115.459C168.469 119.459 158.629 123.721 154.103 127.984C148.65 124.455 146.782 116.414 148.636 106.297C156.996 99.1419 164.953 98.2008 172.814 99.1558C179.624 99.9862 170.226 112.027 169.41 115.459Z" fill="#FF5225"/>
<path d="M126.978 95.8457C126.341 95.8457 125.871 95.3752 125.414 94.8493C125.124 94.5171 124.708 93.9359 124.39 93.2577C123.836 92.3858 123.214 91.2786 123.2 90.0469C123.2 89.7978 123.227 89.5625 123.269 89.3272L123.297 89.175L123.2 89.0504C122.508 88.2062 122.093 87.2374 121.94 86.1441C121.927 86.0195 121.94 85.9227 122.01 85.8396C122.093 85.7427 122.231 85.6874 122.369 85.6874H122.715L122.757 85.3414C122.757 85.1338 122.798 84.9539 122.868 84.8155C122.951 84.6632 123.075 84.5664 123.283 84.4972L123.463 84.428L123.504 84.2342C123.546 84.0128 123.629 83.8052 123.712 83.6529C124.044 83.0717 124.57 82.7534 125.179 82.7534H125.954L125.553 82.1859C124.819 81.3832 123.836 80.6912 122.439 80.0131C122.286 79.9439 122.203 79.8332 122.19 79.6948C122.162 79.5287 122.245 79.3626 122.383 79.2381C122.618 79.0305 122.895 78.9336 123.228 78.9336C124.418 78.9336 125.898 80.2484 126.521 81.1479C127.102 81.9783 127.545 83.0302 127.822 84.2619C127.905 84.428 127.933 84.4972 127.961 84.5664L128.044 84.7463L128.265 85.1892L128.597 84.8293L128.722 84.6909C128.722 84.6909 128.819 84.5663 128.874 84.5248C129.22 84.2204 129.829 83.9159 130.369 83.9159C130.715 83.9159 130.992 84.0405 131.185 84.2757C131.601 84.8016 131.199 85.3967 130.59 86.1994C130.466 86.3655 130.341 86.5178 130.244 86.6562C129.718 87.445 129.095 88.483 128.86 89.6594C128.763 90.5036 128.888 91.3063 128.999 92.0813C129.04 92.3304 129.137 93.0916 129.151 93.23C129.248 93.8667 129.372 94.6694 129.012 95.0707C128.666 95.4582 127.656 95.8042 127.006 95.8319H126.936L126.978 95.8457Z" fill="#FFBCB0"/>
<path d="M123.228 79.2789C124.238 79.2789 125.649 80.4968 126.245 81.341C126.798 82.1299 127.227 83.1402 127.49 84.3442L127.518 84.4688L127.587 84.5657C127.587 84.5657 127.642 84.6625 127.656 84.7041C127.684 84.7733 127.711 84.8286 127.739 84.8978L128.196 85.7697L128.874 85.0501C128.874 85.0501 128.971 84.9532 129.012 84.8978C129.054 84.8563 129.082 84.801 129.137 84.7594C129.497 84.455 130.009 84.2335 130.41 84.2335C130.729 84.2335 130.867 84.3719 130.95 84.4688C131.185 84.7594 130.95 85.1885 130.355 85.9635C130.23 86.1296 130.106 86.2956 130.009 86.4479C129.511 87.1952 128.833 88.3301 128.57 89.6449C128.473 90.5029 128.597 91.3333 128.708 92.1222C128.75 92.3713 128.777 92.6204 128.805 92.8557C128.819 92.9802 128.846 93.1186 128.86 93.2709C128.943 93.8106 129.054 94.5441 128.805 94.8348C128.542 95.1254 127.656 95.4575 126.992 95.4852C126.549 95.4852 126.175 95.1669 125.691 94.6133C125.414 94.3088 125.027 93.7414 124.708 93.1048V93.0633L124.667 93.0217C124.155 92.2329 123.56 91.1811 123.546 90.0324C123.546 89.7971 123.573 89.5618 123.601 89.368L123.656 89.0636L123.463 88.8283C122.812 88.0394 122.411 87.1122 122.273 86.0742C122.273 86.0742 122.314 86.0465 122.383 86.0465L123.117 86.088V85.3545C123.117 85.2023 123.131 85.0916 123.186 85.0085C123.214 84.967 123.255 84.9117 123.421 84.8425L123.795 84.7179L123.878 84.3442C123.919 84.1505 123.975 83.9844 124.044 83.8598C124.307 83.4031 124.736 83.1263 125.207 83.1263H125.29L126.992 83.2371L125.843 81.9776C125.082 81.1334 124.058 80.4276 122.632 79.7356C122.577 79.7079 122.577 79.6803 122.577 79.6803C122.577 79.6387 122.591 79.5834 122.66 79.528C122.84 79.3758 123.034 79.3066 123.269 79.3066L123.228 79.2789ZM123.228 78.5869C122.84 78.5869 122.48 78.6976 122.162 78.9883C121.719 79.3758 121.733 80.0678 122.3 80.3446C123.421 80.8843 124.501 81.5486 125.303 82.4344C125.262 82.4344 125.22 82.4344 125.179 82.4344C124.528 82.4344 123.836 82.7665 123.421 83.5139C123.31 83.7076 123.227 83.9429 123.172 84.2058C122.937 84.2889 122.715 84.4273 122.563 84.6902C122.452 84.8978 122.411 85.1331 122.411 85.3822C122.397 85.3822 122.383 85.3822 122.369 85.3822C121.94 85.3822 121.511 85.6867 121.594 86.2264C121.747 87.389 122.217 88.4131 122.923 89.2989C122.881 89.5618 122.854 89.8109 122.854 90.0877C122.868 91.3195 123.421 92.4266 124.086 93.4508C124.404 94.1289 124.833 94.7379 125.165 95.1115C125.663 95.679 126.203 96.2326 126.992 96.2326C127.02 96.2326 127.047 96.2326 127.075 96.2326C127.739 96.191 128.874 95.8589 129.317 95.3468C129.87 94.7102 129.566 93.5615 129.483 92.828C129.358 91.8038 129.137 90.7936 129.234 89.7556C129.442 88.7176 129.981 87.7488 130.562 86.8769C131.061 86.1296 132.237 85.0362 131.476 84.0813C131.199 83.7215 130.798 83.5831 130.396 83.5831C129.774 83.5831 129.109 83.9014 128.68 84.275C128.57 84.3719 128.473 84.4965 128.376 84.6072C128.307 84.4826 128.265 84.3442 128.182 84.2058C127.919 83.0295 127.49 81.9084 126.826 80.9673C126.189 80.0539 124.598 78.6146 123.241 78.6146L123.228 78.5869Z" fill="#FFBCB0"/>
<path d="M128.749 92.2751C128.749 92.2751 129.524 95.3475 129.939 96.5931C130.354 97.8525 125.524 97.6034 125.524 97.6034L124.251 94.3788C124.251 94.3788 124.223 92.9948 124.057 91.8876C123.891 90.7804 126.977 89.0089 127.213 89.8116C127.448 90.6144 128.749 92.2613 128.749 92.2613V92.2751Z" fill="#FFBCB0"/>
<path d="M158.435 124.693L158.047 120.873C158.047 120.873 154.02 115.226 156.968 110.452C159.902 105.677 167.873 112.514 167.873 112.514L164.69 120.97L158.435 124.693Z" fill="#BE4120"/>
<path d="M199.981 152.857C197.878 153.176 195.691 153.425 193.407 153.577C190.57 153.743 187.595 153.743 184.411 153.439C184.066 153.411 183.844 153.674 183.747 153.923C177.561 154.449 171.375 155.127 165.23 155.556C155.583 156.234 146.145 156.871 137.343 152.871C130.27 149.66 129.634 147.82 121.302 149.896C120.251 150.159 116.459 157.729 117.496 157.466C121.773 156.4 120.942 153.854 125.191 154.255C124.721 157.521 127.503 159.916 129.772 161.992C133.675 165.59 138.118 168.649 142.394 171.79C147.003 175.181 151.667 178.502 156.372 181.782C159.763 184.135 162.96 187.277 167.319 187.055C176.993 186.571 186.197 181.27 194.196 176.26C198.127 173.797 201.905 171.126 205.6 168.33C204.562 162.711 200.715 154.38 199.981 152.844V152.857Z" fill="black"/>
<path d="M200.023 152.954C200.023 153.051 200.438 153.84 200.424 153.923C199.885 159.501 192.107 160.622 187.858 160.705C186.073 160.76 184.26 160.732 182.474 160.691C175.471 161.992 167.97 162.725 161.009 160.968C160.192 160.774 160.068 159.694 160.857 159.362C165.022 157.618 170.226 158.227 174.987 158.643C176.841 158.38 178.682 158.047 180.523 157.522C184.232 156.484 187.761 154.947 191.525 154.089C192.19 153.937 192.812 153.757 193.394 153.55C196.245 153.37 200.286 152.747 200.009 152.927L200.023 152.954Z" fill="black"/>
<path d="M146.795 155.749C171.928 166.71 199.746 152.912 199.857 152.87C199.386 151.97 193.767 142.49 192.231 139.016C191.483 137.328 191.041 135.294 190.847 133.218C190.487 129.91 190.653 126.519 190.888 124.291C190.985 123.212 191.11 122.381 191.151 122.007C191.165 121.952 191.179 121.911 191.179 121.869C193.2 111.808 197.601 99.8778 185.92 96.1964C184.481 95.7258 182.778 95.4075 180.799 95.2276H180.785C178.668 95.02 176.204 95.0062 173.381 95.1722C173.381 95.1722 169.838 96.404 165.755 98.4661C164.371 99.1719 162.891 99.9746 161.493 100.86C157.285 103.504 156.358 108.804 156.51 112.417C156.607 114.922 159.597 120.25 160.427 121.343C158.628 133.231 148.732 152.316 146.795 155.763V155.749Z" fill="#FF5225"/>
<path d="M171.126 98.5806C170.974 98.5806 170.821 98.5806 170.683 98.539C170.531 98.5114 170.476 98.4422 170.448 98.373C170.268 97.9854 170.614 97.0167 170.918 96.4631L170.96 96.3801V91.8129L177.077 89.2803V94.9546C176.51 95.5358 173.451 98.5806 171.14 98.5806H171.126Z" fill="#FFBCB0"/>
<path d="M176.716 89.8046V94.8146C175.637 95.9217 172.993 98.233 171.125 98.233C171.014 98.233 170.917 98.233 170.82 98.233C170.793 98.233 170.765 98.233 170.751 98.233C170.654 98.0254 170.89 97.2365 171.208 96.6276L171.291 96.4753V92.0466L176.716 89.8046ZM177.408 88.7666L170.599 91.5899V96.3092C170.599 96.3092 169.326 98.6343 170.599 98.8834C170.765 98.9111 170.945 98.9388 171.111 98.9388C173.851 98.9388 177.394 95.1052 177.394 95.1052V88.7804L177.408 88.7666Z" fill="black"/>
<path d="M177.409 91.3091V88.6934C177.409 88.6934 174.046 91.9734 170.6 92.5685C170.6 92.5685 175.277 95.461 177.409 91.3091Z" fill="black"/>
<path d="M171.597 92.2239C169.743 92.2239 167.957 91.3382 166.809 89.8573C166.034 88.847 165.701 87.7122 165.923 86.8126C166.947 82.8129 169.59 77.623 170.227 76.4189L180.551 79.8097C180.579 81.0691 180.454 87.2001 175.68 90.7569C174.379 91.7257 173.009 92.2239 171.597 92.2239Z" fill="#FFBCB0"/>
<path d="M170.393 76.8472L180.205 80.0718C180.205 81.6911 179.873 87.2131 175.472 90.4793C174.226 91.4065 172.925 91.8771 171.597 91.8771C169.853 91.8771 168.164 91.0467 167.085 89.6489C166.365 88.7355 166.061 87.7113 166.268 86.9086C167.209 83.1857 169.604 78.3972 170.406 76.8472H170.393ZM170.047 76.0029C170.047 76.0029 166.753 82.1063 165.576 86.7287C164.967 89.1507 167.818 92.5552 171.583 92.5552C172.939 92.5552 174.406 92.1124 175.859 91.0329C181.395 86.9225 180.855 79.5597 180.855 79.5597L170.033 76.0029H170.047Z" fill="black"/>
<path d="M189.52 76.3086C188.967 73.8175 187.278 72.2259 184.704 72.0598C183.68 71.9906 182.559 72.2121 181.895 73.0563C181.507 73.5545 181.369 74.1219 181.313 74.717C178.269 72.3504 164.747 68.0601 166.242 79.6855C169.48 75.9349 175.224 77.6787 176.608 81.0833C176.608 81.6646 176.525 82.2874 176.386 83.0209C175.999 85.0276 175.625 86.7714 176.359 88.7782C177.3 91.4077 179.722 91.8506 181.175 90.1207C182.171 88.9443 183.292 86.4254 183.957 83.9481C185.147 84.9446 187.015 85.2906 188.33 84.4325C190.614 82.9378 190.06 78.5091 189.562 76.3086H189.52Z" fill="black"/>
<path d="M175.805 83.4773C175.805 83.4773 177.922 82.7853 178.13 84.4322C178.338 86.093 176.76 86.868 176.026 86.4805C175.293 86.093 175.265 84.0862 175.805 83.4773Z" fill="#FFBCB0"/>
<path d="M166.019 122.95C169.715 125.759 174.96 125.787 179.236 127.434C183.001 128.887 186.89 132.361 190.848 133.233C190.488 129.925 190.654 126.534 190.889 124.306C190.848 124.251 191.014 122.756 191.152 122.023C191.152 121.967 193.533 115.739 191.692 114.037C186.848 109.456 182.807 105.027 182.807 105.027C181.7 110.646 183.181 115.587 185.049 119.033C185.907 120.556 186.89 121.912 186.018 124.611C186.018 124.68 185.963 124.721 185.963 124.804C186.073 126.645 176.828 122.839 175.472 122.493C172.441 121.677 169.479 121.261 166.324 121.441C165.549 121.497 165.466 122.562 166.006 122.964L166.019 122.95Z" fill="#BE4120"/>
<path d="M188.938 176.259C188.453 176.176 187.969 176.079 187.485 175.996C187.623 175.844 187.748 175.664 187.844 175.456C188.01 175.138 189.256 162.226 188.966 162.018C187.692 161.049 184.564 162.585 183.014 162.682C181.52 162.765 180.08 163.18 178.558 163.042C176.33 162.834 174.115 163.637 171.998 162.931C165.784 160.869 159.445 163.54 153.411 160.966C149.979 159.499 146.671 162.309 143.696 160.067C141.481 158.406 139.488 156.441 137.122 154.987C136.001 154.295 131.074 151.278 130.935 154.711C130.811 157.714 136.831 160.233 138.921 161.354C145.398 164.869 150.782 169.92 156.373 174.667C160.207 177.92 163.722 182.501 169.119 182.182C175.901 181.767 177.658 184.411 184.066 182.196C184.855 181.919 189.768 176.397 188.952 176.259H188.938Z" fill="black"/>
<path d="M187.857 195.08C187.76 195.08 187.677 195.08 187.58 195.053C187.373 195.025 186.722 194.527 186.473 194.333C186.307 194.208 186.169 194.112 186.113 194.084C185.463 193.752 184.715 193.641 183.996 193.53C183.747 193.489 183.511 193.461 183.276 193.406C181.823 193.129 180.619 192.755 179.484 192.257C178.335 191.745 177.256 190.956 176.204 190.209C174.599 189.046 172.938 187.828 170.945 187.524L170.876 187.344L170.585 187.233C170.488 187.219 170.474 187.164 170.474 187.109C170.322 185.669 171.18 183.123 172.716 182.528C172.841 182.472 172.993 182.459 173.173 182.459C173.533 182.459 173.948 182.555 174.336 182.666C174.585 182.735 174.82 182.791 175.028 182.818C175.65 182.915 176.259 182.957 176.896 182.957C178.363 182.957 179.761 182.708 181.228 182.431C181.56 182.375 181.892 182.334 182.238 182.334C183.345 182.334 184.342 182.652 185.394 182.984C186.487 183.33 187.608 183.69 188.895 183.69H189.546C190.819 183.69 191.386 183.898 191.608 185.254C191.857 186.804 191.262 192.049 189.407 194.222C188.923 194.79 188.397 195.08 187.843 195.08H187.857Z" fill="white"/>
<path d="M182.252 182.679C183.304 182.679 184.273 182.984 185.311 183.316C186.418 183.676 187.581 184.036 188.923 184.036H189.117C189.269 184.036 189.435 184.036 189.573 184.036C190.764 184.036 191.11 184.202 191.29 185.323C191.539 186.873 190.888 191.993 189.172 194.014C188.757 194.512 188.328 194.748 187.871 194.748C187.802 194.748 187.719 194.748 187.664 194.748C187.47 194.692 186.875 194.235 186.681 194.083C186.487 193.931 186.335 193.834 186.28 193.806C185.574 193.447 184.771 193.322 184.051 193.211C183.816 193.17 183.581 193.142 183.346 193.101C181.92 192.824 180.73 192.464 179.623 191.966C178.516 191.468 177.491 190.734 176.412 189.945C174.806 188.783 173.16 187.579 171.125 187.219L171.042 186.983L170.807 186.942C170.738 185.613 171.568 183.357 172.827 182.873C172.91 182.845 173.021 182.818 173.16 182.818C173.478 182.818 173.865 182.915 174.239 183.011C174.502 183.081 174.751 183.136 174.973 183.178C175.609 183.274 176.246 183.316 176.896 183.316C178.391 183.316 179.803 183.053 181.283 182.79C181.602 182.735 181.92 182.707 182.238 182.707L182.252 182.679ZM182.252 181.987C181.906 181.987 181.547 182.015 181.173 182.084C179.678 182.361 178.336 182.596 176.91 182.596C176.329 182.596 175.72 182.555 175.097 182.458C174.544 182.375 173.824 182.098 173.173 182.098C172.966 182.098 172.772 182.126 172.592 182.195C170.931 182.845 169.963 185.544 170.142 187.136C170.17 187.385 170.336 187.523 170.53 187.565C170.585 187.717 170.696 187.828 170.89 187.869C174.101 188.367 176.412 191.288 179.346 192.589C180.591 193.142 181.879 193.502 183.221 193.765C184.121 193.945 185.131 193.986 185.961 194.415C186.114 194.485 187.11 195.356 187.525 195.412C187.636 195.426 187.747 195.439 187.857 195.439C191.137 195.439 192.3 187.357 191.954 185.212C191.691 183.565 190.847 183.344 189.546 183.344C189.394 183.344 189.241 183.344 189.075 183.344C189.02 183.344 188.965 183.344 188.909 183.344C186.46 183.344 184.605 181.987 182.252 181.987Z" fill="black"/>
<path d="M174.849 182.101C171.126 177.824 153.079 164.275 148.816 160.608C144.734 157.106 140.291 153.937 135.295 151.861C131.448 150.283 126.202 148.692 122.023 149.716C118.3 150.615 117.303 152.594 116.182 155.93C115.822 157.023 115.573 158.158 115.449 159.293C115.103 162.421 115.656 165.618 117.206 168.372C119.601 172.634 124.099 175.209 128.098 177.727C132.776 180.675 168.981 189.491 170.974 188.176C171.514 187.816 172.109 187.097 172.69 186.239C173.991 184.495 174.544 184.052 174.863 182.101H174.849Z" fill="black"/>
<path d="M186.779 182.958C186.779 182.958 184.509 182.432 184.495 182.432C182.751 183.29 182.336 185.449 182.931 187.622C183.249 188.784 184.135 189.725 184.634 190.819C185.312 192.272 185.865 193.6 186.848 194.887C187.318 195.51 188.163 194.721 187.747 194.112C185.644 191.012 186.128 187.317 186.876 183.857C187.014 183.207 187.111 182.515 186.806 182.944L186.779 182.958Z" fill="black"/>
<path d="M170.489 184.426C166.559 182.087 162.033 181.035 157.591 180.205C152.373 179.236 147.239 178.35 142.187 176.675C136.291 174.71 130.396 172.413 125.386 168.648C121.732 165.908 118.549 162.642 115.449 159.307C115.103 162.434 115.656 165.631 117.206 168.385C119.601 172.648 124.099 175.222 128.098 177.741C132.776 180.689 168.981 189.505 170.974 188.19C171.514 187.83 172.109 187.111 172.69 186.253C172.095 185.533 171.237 184.882 170.503 184.44L170.489 184.426Z" fill="black"/>
<path d="M195.276 232.419C193.353 232.419 191.803 232.225 191.166 232.031C190.599 231.865 190.253 231.672 190.156 231.436C190.017 231.146 190.183 230.689 190.419 230.122C190.848 229.097 190.806 228.17 190.779 227.271C190.737 226.233 190.709 225.264 191.388 224.212C192.356 222.703 193.187 221.403 193.491 219.686C193.519 219.52 193.533 219.327 193.547 219.133C193.574 218.704 193.588 218.275 193.851 217.998C194.584 217.237 196.328 216.877 197.629 216.877C198.114 216.877 198.557 216.918 198.902 217.002L198.875 217.251L199.138 217.334C198.861 218.828 199.553 220.24 200.231 221.596C200.688 222.496 201.103 223.354 201.269 224.24C201.435 225.125 201.449 226.053 201.311 227.132C201.283 227.312 201.255 227.478 201.228 227.672C201.131 228.226 201.02 228.807 201.172 229.36C201.186 229.43 201.228 229.499 201.324 229.665C201.421 229.831 201.698 230.357 201.698 230.509C201.518 231.658 199.069 232.377 195.304 232.377L195.276 232.419Z" fill="white"/>
<path d="M197.615 217.251C197.961 217.251 198.266 217.278 198.543 217.32V217.472L198.723 217.569C198.57 219.105 199.248 220.475 199.913 221.79C200.356 222.676 200.771 223.506 200.923 224.337C201.075 225.195 201.089 226.08 200.965 227.132C200.951 227.298 200.909 227.478 200.882 227.644C200.785 228.212 200.674 228.848 200.84 229.485C200.868 229.596 200.923 229.692 201.02 229.872C201.089 230.011 201.283 230.371 201.338 230.537C201.117 231.284 199.179 232.073 195.304 232.073C193.422 232.073 191.9 231.879 191.291 231.699C190.626 231.505 190.502 231.326 190.488 231.284C190.405 231.104 190.64 230.551 190.765 230.246C191.221 229.153 191.18 228.142 191.152 227.243C191.111 226.219 191.083 225.347 191.706 224.378C192.647 222.911 193.533 221.513 193.851 219.742C193.879 219.562 193.893 219.354 193.906 219.147C193.92 218.787 193.948 218.413 194.114 218.233C194.668 217.652 196.162 217.223 197.643 217.223L197.615 217.251ZM197.615 216.559C196.162 216.559 194.377 216.946 193.588 217.776C193.104 218.289 193.242 219.091 193.145 219.645C192.854 221.278 192.052 222.551 191.097 224.032C189.768 226.122 190.986 227.893 190.1 229.997C189.63 231.146 189.408 231.893 191.069 232.377C191.816 232.599 193.477 232.779 195.276 232.779C198.307 232.779 201.74 232.281 202.016 230.606C202.072 230.301 201.518 229.443 201.491 229.319C201.311 228.655 201.56 227.907 201.643 227.215C201.767 226.191 201.781 225.208 201.601 224.212C201.186 221.887 199.041 219.783 199.456 217.361C199.484 217.209 199.401 217.112 199.276 217.057C199.29 216.905 199.207 216.766 198.986 216.711C198.612 216.614 198.141 216.572 197.629 216.572L197.615 216.559Z" fill="black"/>
<path d="M191.208 228.379C191.208 228.379 191.208 228.366 191.208 228.352C191.803 227.175 192.786 225.957 194.654 226.082C195.651 226.151 196.508 226.594 197.45 226.788C198.723 227.051 199.872 227.245 201.02 227.715C201.574 227.937 200.979 228.546 200.439 228.352C197.685 227.383 194.612 228.089 191.775 228.933C191.236 229.085 190.862 228.601 191.208 228.366V228.379Z" fill="black"/>
<path d="M206.861 177.739C206.459 173.255 206.196 168.314 203.941 164.467C202.487 161.976 200.328 160.149 197.907 159.125C197.021 158.751 196.107 158.488 195.166 158.336C192.966 157.99 190.696 157.838 188.869 159.083C188.329 159.443 187.817 159.941 187.347 160.578C185.091 163.72 184.344 168.896 184.122 172.854C183.832 178.016 184.537 183.151 185.645 188.133C186.793 193.337 191.028 214.456 192.827 219.452C192.869 219.591 193.256 219.674 193.838 219.701C194.613 219.743 195.747 219.701 196.965 219.508C197.796 219.369 198.557 219.162 199 218.871C200.688 217.722 207.317 182.998 206.861 177.753V177.739Z" fill="black"/>
<path d="M193.823 219.703C193.242 219.675 192.868 219.578 192.813 219.454C191.014 214.458 186.779 193.338 185.63 188.135C184.537 183.152 183.817 178.018 184.108 172.855C184.343 168.897 185.076 163.735 187.332 160.58C187.789 159.943 188.301 159.445 188.855 159.085C188.813 159.362 187.346 171.347 188.26 177.658C189.173 184.038 194.529 215.994 193.823 219.703Z" fill="black"/>
<path d="M185.479 82.3982C183.818 79.907 182.752 77.1944 182.309 74.2466C182.143 73.1809 180.524 73.5684 180.676 74.6203C181.147 77.7065 182.268 80.5852 183.998 83.187C184.593 84.0728 186.074 83.2978 185.479 82.412V82.3982Z" fill="black"/>
<path d="M183.76 107.848C183.304 107.765 182.875 107.613 182.792 107.502C182.667 107.308 182.501 107.212 182.321 107.212C182.21 107.212 182.114 107.253 182.031 107.322L180.965 106.478L181.394 101.164L181.837 97.9528C182.792 97.8836 185.933 97.6621 187.511 97.6621C188.12 97.6621 188.258 97.6898 188.286 97.7036L189.158 98.2295C188.867 99.7519 188.549 101.371 188.466 101.565C188.383 101.717 187.04 103.765 186.169 105.108L183.774 107.848H183.76Z" fill="white"/>
<path d="M187.498 98.0074C187.885 98.0074 188.065 98.0074 188.134 98.0351L188.757 98.4088C188.508 99.7512 188.231 101.121 188.134 101.426C187.927 101.758 186.681 103.682 185.892 104.9L183.636 107.488C183.374 107.432 183.138 107.349 183.083 107.322C182.834 106.962 182.543 106.879 182.336 106.879C182.253 106.879 182.169 106.893 182.086 106.92L181.339 106.325L181.754 101.246L182.156 98.2981C183.332 98.215 186.086 98.0212 187.526 98.0212L187.498 98.0074ZM187.498 97.3154C185.616 97.3154 181.519 97.6337 181.519 97.6337L181.035 101.135L180.592 106.63L182.1 107.82C182.1 107.82 182.17 107.557 182.308 107.557C182.363 107.557 182.419 107.598 182.488 107.695C182.737 108.069 183.872 108.221 183.872 108.221L186.418 105.301C186.418 105.301 188.605 101.966 188.73 101.716C188.868 101.481 189.491 98.0489 189.491 98.0489C189.491 98.0489 188.813 97.6337 188.384 97.3846C188.301 97.3293 187.954 97.3154 187.47 97.3154H187.498Z" fill="black"/>
<path d="M186.875 148.289C186.308 148.289 185.782 148.289 185.27 148.248C182.433 148.095 179.443 147.791 178.71 147.708C178.419 147.168 177.52 145.12 176.703 143.169C177.257 142.989 178.572 142.629 180.039 142.227C182.806 141.466 186.972 140.304 191.18 139.003C196.923 137.259 201.269 135.695 204.106 134.353C205.877 133.508 208.881 131.543 209.517 130.699C209.586 130.602 209.669 130.436 209.614 130.173C209.31 128.54 203.815 123.585 200.092 121.233C199.165 120.637 198.404 120.222 197.753 119.973C197.324 119.779 196.868 116.652 197.753 112.666C198.238 110.465 199.788 105.358 203.732 105.358C204.701 105.358 205.753 105.663 206.888 106.258L206.929 106.313L207.04 106.355C215.953 111.06 223.911 122.16 224.395 130.588C224.603 134.228 223.371 137.079 220.81 138.837C211.302 145.369 195.235 148.303 186.862 148.303L186.875 148.289Z" fill="#FFBCB0"/>
<path d="M199.663 123.598C197.947 122.92 186.696 118.062 182.461 110.976C180.537 107.751 176.731 100.181 180.606 97.4547C186.82 93.0952 200.009 99.3646 209.365 104.333C209.102 112.056 206.528 118.408 199.663 123.584V123.598Z" fill="#FF5225"/>
<path d="M166.005 151.734C165.881 151.734 165.756 151.679 165.645 151.596C165.355 151.346 165.203 151.028 165.189 150.613C165.147 149.45 166.171 147.9 166.877 147.222C167.611 146.516 168.58 145.921 169.756 145.451C169.908 145.34 169.977 145.298 170.033 145.271L170.199 145.16L170.6 144.869L170.185 144.593L170.033 144.496C170.033 144.496 169.894 144.413 169.839 144.371C169.451 144.053 169.022 143.444 168.995 142.863C168.981 142.572 169.064 142.323 169.244 142.115C169.396 141.949 169.576 141.866 169.811 141.866C170.24 141.866 170.766 142.157 171.237 142.406C171.417 142.503 171.597 142.6 171.749 142.669C172.538 143.029 173.714 143.513 174.932 143.568C175.776 143.527 176.551 143.292 177.312 143.056C177.548 142.987 177.797 142.904 178.032 142.835C178.157 142.807 178.281 142.766 178.419 142.71C178.835 142.572 179.305 142.434 179.72 142.434C179.942 142.434 180.122 142.475 180.26 142.572C180.703 142.849 181.201 143.804 181.326 144.44C181.464 145.105 181.063 145.658 180.592 146.212C180.316 146.544 179.79 147.056 179.181 147.471C178.406 148.163 177.409 148.938 176.191 149.146C175.97 149.187 175.748 149.187 175.541 149.187H175.389L175.223 149.298C174.489 150.115 173.603 150.682 172.551 150.987C172.538 150.987 172.524 150.987 172.496 150.987C172.178 150.987 172.053 150.793 172.025 150.599L171.984 150.239L171.624 150.295C171.555 150.295 171.472 150.308 171.403 150.308C171.292 150.308 171.181 150.295 171.098 150.253C170.946 150.198 170.821 150.087 170.725 149.893L170.628 149.727H170.434C170.199 149.699 169.991 149.658 169.825 149.603C169.175 149.353 168.746 148.828 168.69 148.205L168.607 147.361L168.067 148.025C167.389 148.869 166.849 149.949 166.407 151.429C166.324 151.72 166.088 151.748 166.005 151.748V151.734Z" fill="#FFBCB0"/>
<path d="M181.699 142.091L178.475 143.046V147.627C178.475 147.627 179.014 147.322 180.08 147.502C181.16 147.682 184.246 146.755 183.886 145.371C183.526 143.987 181.686 142.105 181.686 142.105L181.699 142.091Z" fill="#FFBCB0"/>
<path d="M176.37 82.9517L176.315 84.1142C176.315 84.1142 175.886 86.4946 175.941 86.9375C175.983 87.3804 174.184 87.6433 174.101 87.1174C174.017 86.5915 174.018 84.2249 174.018 84.2249C174.018 84.2249 174.184 83.1454 174.447 83.1454C174.709 83.1454 175.443 82.9102 175.443 82.9102L176.384 82.9655L176.37 82.9517Z" fill="#FFBCB0"/>
<path d="M170.047 151.542L191.747 152.857L171.057 158.656L170.047 151.542Z" fill="white"/>
<path d="M170.447 151.903L189.671 153.065L171.333 158.2L170.433 151.903H170.447ZM169.645 151.155L170.766 159.085L193.822 152.622L169.645 151.155Z" fill="black"/>
<path d="M171.111 159.348L193.49 153.079L193.587 154.657L171.111 161.535V159.348Z" fill="white"/>
<path d="M193.172 153.534L193.228 154.42L171.458 161.077V159.624L193.172 153.534ZM193.809 152.635L170.752 159.098V162.004L193.933 154.918L193.809 152.635Z" fill="black"/>
<path d="M121.275 158.353V156.443L170.42 159.419V161.633L121.275 158.353Z" fill="white"/>
<path d="M121.622 156.816L170.075 159.75V161.272L121.622 158.033V156.829V156.816ZM120.93 156.082V158.67L170.767 162.005V159.099L120.93 156.082Z" fill="black"/>
<path d="M121.233 155.751L117.524 129.705C117.468 129.248 117.607 128.778 117.911 128.432C118.216 128.086 118.659 127.878 119.129 127.878L165.063 130.646C165.838 130.687 166.475 131.283 166.572 132.058L170.35 158.713L121.205 155.737L121.233 155.751Z" fill="white"/>
<path d="M119.144 128.223H119.227L165.064 130.991C165.673 131.033 166.185 131.503 166.254 132.112L169.977 158.352L121.538 155.418L117.87 129.663C117.829 129.289 117.926 128.929 118.175 128.652C118.424 128.375 118.77 128.209 119.13 128.209L119.144 128.223ZM119.144 127.531C117.967 127.531 117.04 128.569 117.192 129.759L120.929 156.083L170.766 159.1L166.918 132.029C166.794 131.088 166.033 130.368 165.078 130.313L119.241 127.545C119.241 127.545 119.157 127.545 119.116 127.545L119.144 127.531Z" fill="black"/>
<path d="M140.029 39.2706C139.712 39.1958 139.477 38.9024 139.477 38.5629L139.505 34.5005C139.505 34.1035 139.833 33.7812 140.236 33.7812C140.633 33.787 140.955 34.1092 140.955 34.512L140.927 38.5744C140.927 38.9714 140.599 39.2936 140.196 39.2936C140.138 39.2936 140.081 39.2879 140.029 39.2706Z" fill="#FF5225"/>
<path d="M133.153 40.5714C132.975 40.5254 132.813 40.416 132.71 40.2492L130.529 36.7334C130.316 36.3939 130.425 35.9509 130.765 35.738C131.104 35.5251 131.547 35.6344 131.76 35.9739L133.941 39.4896C134.154 39.8291 134.045 40.2722 133.705 40.4851C133.533 40.5944 133.337 40.6174 133.153 40.5714Z" fill="#FF5225"/>
<path d="M128.502 45.8996C128.462 45.8881 128.416 45.8766 128.376 45.8593L124.59 44.1619C124.227 44.0008 124.06 43.5692 124.227 43.2067C124.394 42.8442 124.82 42.6773 125.182 42.8442L128.968 44.5417C129.331 44.7028 129.498 45.1343 129.331 45.4968C129.187 45.8191 128.836 45.9859 128.502 45.9054V45.8996Z" fill="#FF5225"/>
<path d="M123.405 54.5521C123.1 54.4773 122.864 54.2068 122.852 53.8731C122.835 53.4761 123.151 53.1366 123.548 53.1251L126.984 53.0042C127.381 52.9927 127.714 53.3034 127.732 53.7005C127.743 54.0975 127.432 54.4312 127.035 54.4485L123.6 54.5693C123.531 54.5693 123.468 54.5693 123.405 54.5463V54.5521Z" fill="#FF5225"/>
<path d="M147.388 40.6827C147.313 40.6654 147.238 40.6309 147.169 40.5906C146.835 40.3777 146.738 39.9289 146.951 39.5952L149.183 36.114C149.396 35.7745 149.845 35.6824 150.184 35.8953C150.518 36.1082 150.616 36.557 150.403 36.8908L148.17 40.372C147.998 40.6366 147.681 40.7575 147.394 40.6827H147.388Z" fill="#FF5225"/>
<path d="M151.955 46.0772C151.742 46.0255 151.552 45.8759 151.46 45.6572C151.305 45.2889 151.472 44.8631 151.84 44.7078L155.649 43.0736C156.018 42.9183 156.443 43.0851 156.599 43.4534C156.754 43.8217 156.587 44.2475 156.219 44.4028L152.41 46.037C152.26 46.1003 152.099 46.1118 151.955 46.0772Z" fill="#FF5225"/>
<path d="M153.487 54.6314C153.153 54.5509 152.917 54.2459 152.934 53.8949C152.952 53.4979 153.291 53.1872 153.694 53.2102L157.129 53.3828C157.526 53.4058 157.837 53.7396 157.814 54.1423C157.791 54.5394 157.457 54.8501 157.054 54.8271L153.625 54.6545C153.579 54.6545 153.533 54.6429 153.493 54.6372L153.487 54.6314Z" fill="#FF5225"/>
<path d="M130.215 51.5704C130.251 45.9815 134.808 41.484 140.397 41.5158C145.986 41.5522 150.483 46.1088 150.452 51.6977C150.447 52.6163 150.315 53.5031 150.083 54.349C150.083 54.349 149.601 57.7323 146.436 60.1107C144.99 61.1976 144.785 62.8483 144.608 63.6441C144.431 64.4399 143.394 65.5677 140.247 65.5496C137.1 65.5314 136.077 64.3854 135.908 63.5896C135.74 62.7937 135.558 61.1384 134.126 60.0334C130.993 57.6141 130.551 54.2262 130.551 54.2262C130.329 53.3803 130.21 52.489 130.215 51.5704Z" fill="#FF8160"/>
<path d="M140.134 68.0565C141.366 68.0656 142.157 67.8291 142.649 67.5244L142.635 69.3571C142.626 70.694 141.539 71.7673 140.202 71.7582C138.87 71.7491 137.792 70.6622 137.801 69.3252L137.81 67.5972C138.301 67.8564 139.042 68.0474 140.129 68.0519L140.134 68.0565Z" fill="black"/>
<path d="M136.046 63.9609L136.027 66.7941C136.027 66.9214 136.032 67.0442 136.041 67.1669C136.068 67.4944 136.132 67.8127 136.232 68.1174C136.437 68.7495 136.787 69.3179 137.242 69.7772C138.001 70.5458 139.047 71.0233 140.207 71.0278C142.071 71.0369 143.658 69.8409 144.217 68.1674C144.318 67.8673 144.386 67.5489 144.418 67.2215C144.427 67.0987 144.436 66.976 144.436 66.8486L144.454 64.0155C144.058 64.7477 142.908 65.5617 140.238 65.5435C137.564 65.5253 136.428 64.6976 136.041 63.9609H136.046Z" fill="white"/>
<path d="M135.986 64.7848L136.041 64.6211C136.427 65.3578 137.564 66.1855 140.238 66.2036C142.907 66.2218 144.053 65.4078 144.454 64.6802L144.504 64.8439C144.535 64.9349 144.535 65.0304 144.508 65.1259L144.449 65.3396C144.053 66.0763 142.903 66.8903 140.233 66.8721C137.559 66.8539 136.423 66.0263 136.036 65.2896L135.977 65.0668C135.95 64.9758 135.954 64.8758 135.986 64.7848Z" fill="black"/>
<path d="M135.982 66.0341L136.037 65.8704V65.8477C136.423 66.5844 137.56 67.412 140.234 67.4302C142.908 67.4484 144.054 66.6344 144.45 65.9022V65.925L144.5 66.0841C144.527 66.1751 144.531 66.2751 144.504 66.3661L144.441 66.5844V66.5707C144.04 67.3029 142.89 68.1078 140.225 68.0941C137.556 68.076 136.419 67.2528 136.032 66.5161V66.5343L135.973 66.3115C135.946 66.2206 135.95 66.1205 135.982 66.0296V66.0341Z" fill="black"/>
<path d="M136 67.3665L136.045 67.2209C136.045 67.2209 136.045 67.1891 136.041 67.1709C136.441 67.8985 137.587 68.7034 140.22 68.7216C142.853 68.7398 144.008 67.9485 144.422 67.2209C144.422 67.2391 144.417 67.2573 144.417 67.2755L144.463 67.421C144.49 67.512 144.495 67.612 144.467 67.703L144.235 68.1304C144.235 68.1304 144.226 68.1577 144.222 68.1714C143.69 68.8035 142.516 69.4037 140.22 69.3901C137.955 69.3765 136.791 68.7807 136.254 68.1486C136.25 68.1395 136.241 68.1304 136.232 68.1213C136.232 68.1213 136.223 68.0941 136.223 68.085L135.991 67.6484C135.968 67.5574 135.968 67.4574 136 67.3665Z" fill="black"/>
</svg>
