<svg width="371" height="265" viewBox="0 0 371 265" fill="none" xmlns="http://www.w3.org/2000/svg">
<g clip-path="url(#clip0_1984_11364)">
<rect x="73" y="73.2812" width="223" height="118" rx="10" fill="#E0E0E0"/>
<mask id="mask0_1984_11364" style="mask-type:luminance" maskUnits="userSpaceOnUse" x="137" y="163" width="10" height="16">
<path d="M146.242 178.023V163.576H137.642V178.023H146.242Z" fill="white"/>
</mask>
<g mask="url(#mask0_1984_11364)">
<path d="M148.506 155.417L134.863 164.095L135.114 164.489L148.757 155.811L148.506 155.417Z" fill="#4D4D4D"/>
<path d="M148.506 157.196L134.863 165.874L135.114 166.268L148.757 157.59L148.506 157.196Z" fill="#4D4D4D"/>
<path d="M148.506 158.972L134.863 167.65L135.114 168.045L148.757 159.367L148.506 158.972Z" fill="#4D4D4D"/>
<path d="M148.506 160.75L134.863 169.428L135.114 169.822L148.757 161.144L148.506 160.75Z" fill="#4D4D4D"/>
<path d="M148.506 162.526L134.863 171.204L135.114 171.598L148.757 162.92L148.506 162.526Z" fill="#4D4D4D"/>
<path d="M148.506 164.303L134.863 172.981L135.114 173.376L148.757 164.698L148.506 164.303Z" fill="#4D4D4D"/>
<path d="M148.506 166.08L134.863 174.758L135.114 175.152L148.757 166.474L148.506 166.08Z" fill="#4D4D4D"/>
<path d="M148.506 167.857L134.863 176.535L135.114 176.929L148.757 168.251L148.506 167.857Z" fill="#4D4D4D"/>
<path d="M148.504 169.633L134.861 178.311L135.112 178.705L148.755 170.027L148.504 169.633Z" fill="#4D4D4D"/>
<path d="M148.506 171.408L134.863 180.086L135.114 180.48L148.757 171.802L148.506 171.408Z" fill="#4D4D4D"/>
<path d="M148.506 173.186L134.863 181.864L135.114 182.258L148.757 173.58L148.506 173.186Z" fill="#4D4D4D"/>
<path d="M148.506 174.962L134.863 183.64L135.114 184.034L148.757 175.356L148.506 174.962Z" fill="#4D4D4D"/>
<path d="M148.506 176.738L134.863 185.416L135.114 185.81L148.757 177.132L148.506 176.738Z" fill="#4D4D4D"/>
</g>
<mask id="mask1_1984_11364" style="mask-type:luminance" maskUnits="userSpaceOnUse" x="150" y="171" width="10" height="8">
<path d="M159.594 178.022V171.295H150.993V178.022H159.594Z" fill="white"/>
</mask>
<g mask="url(#mask1_1984_11364)">
<path d="M163.11 162.527L149.467 171.205L149.718 171.599L163.36 162.921L163.11 162.527Z" fill="#FF5225"/>
<path d="M163.11 164.304L149.467 172.982L149.718 173.377L163.36 164.699L163.11 164.304Z" fill="#FF5225"/>
<path d="M163.11 166.081L149.467 174.759L149.718 175.153L163.36 166.475L163.11 166.081Z" fill="#FF5225"/>
<path d="M163.11 167.858L149.467 176.536L149.718 176.93L163.36 168.252L163.11 167.858Z" fill="#FF5225"/>
<path d="M163.11 169.635L149.467 178.312L149.718 178.707L163.36 170.029L163.11 169.635Z" fill="#FF5225"/>
<path d="M163.11 171.409L149.467 180.087L149.718 180.481L163.36 171.803L163.11 171.409Z" fill="#FF5225"/>
<path d="M163.11 173.187L149.467 181.865L149.718 182.259L163.36 173.581L163.11 173.187Z" fill="#FF5225"/>
<path d="M163.111 174.963L149.469 183.641L149.719 184.035L163.362 175.357L163.111 174.963Z" fill="#FF5225"/>
<path d="M163.111 176.739L149.469 185.417L149.719 185.811L163.362 177.133L163.111 176.739Z" fill="#FF5225"/>
</g>
<mask id="mask2_1984_11364" style="mask-type:luminance" maskUnits="userSpaceOnUse" x="164" y="155" width="9" height="24">
<path d="M172.947 178.022V155.467H164.347V178.022H172.947Z" fill="white"/>
</mask>
<g mask="url(#mask2_1984_11364)">
<path d="M174.793 146.535L161.15 155.213L161.401 155.607L175.044 146.929L174.793 146.535Z" fill="#4D4D4D"/>
<path d="M174.795 148.311L161.152 156.989L161.403 157.383L175.046 148.705L174.795 148.311Z" fill="#4D4D4D"/>
<path d="M174.795 150.089L161.152 158.767L161.403 159.161L175.046 150.483L174.795 150.089Z" fill="#4D4D4D"/>
<path d="M174.793 151.865L161.15 160.543L161.401 160.937L175.044 152.259L174.793 151.865Z" fill="#4D4D4D"/>
<path d="M174.793 153.642L161.15 162.32L161.401 162.714L175.044 154.036L174.793 153.642Z" fill="#4D4D4D"/>
<path d="M174.793 155.418L161.15 164.096L161.401 164.49L175.044 155.812L174.793 155.418Z" fill="#4D4D4D"/>
<path d="M174.793 157.197L161.15 165.875L161.401 166.269L175.044 157.591L174.793 157.197Z" fill="#4D4D4D"/>
<path d="M174.793 158.974L161.15 167.652L161.401 168.046L175.044 159.368L174.793 158.974Z" fill="#4D4D4D"/>
<path d="M174.793 160.751L161.15 169.429L161.401 169.823L175.044 161.145L174.793 160.751Z" fill="#4D4D4D"/>
<path d="M174.793 162.528L161.15 171.206L161.401 171.6L175.044 162.922L174.793 162.528Z" fill="#4D4D4D"/>
<path d="M174.793 164.304L161.15 172.982L161.401 173.377L175.044 164.699L174.793 164.304Z" fill="#4D4D4D"/>
<path d="M174.793 166.082L161.15 174.76L161.401 175.154L175.044 166.476L174.793 166.082Z" fill="#4D4D4D"/>
<path d="M174.793 167.858L161.15 176.536L161.401 176.93L175.044 168.252L174.793 167.858Z" fill="#4D4D4D"/>
<path d="M174.793 169.635L161.15 178.312L161.401 178.707L175.044 170.029L174.793 169.635Z" fill="#4D4D4D"/>
<path d="M174.793 171.409L161.15 180.087L161.401 180.481L175.044 171.803L174.793 171.409Z" fill="#4D4D4D"/>
<path d="M174.793 173.188L161.15 181.866L161.401 182.26L175.044 173.582L174.793 173.188Z" fill="#4D4D4D"/>
<path d="M174.793 174.962L161.15 183.64L161.401 184.034L175.044 175.356L174.793 174.962Z" fill="#4D4D4D"/>
<path d="M174.793 176.738L161.15 185.416L161.401 185.81L175.044 177.132L174.793 176.738Z" fill="#4D4D4D"/>
</g>
<mask id="mask3_1984_11364" style="mask-type:luminance" maskUnits="userSpaceOnUse" x="177" y="149" width="10" height="30">
<path d="M186.299 178.024V149.276H177.698V178.024H186.299Z" fill="white"/>
</mask>
<g mask="url(#mask3_1984_11364)">
<path d="M188.985 141.33L175.342 150.008L175.593 150.402L189.235 141.724L188.985 141.33Z" fill="#FF5225"/>
<path d="M188.983 143.109L175.34 151.787L175.591 152.181L189.233 143.503L188.983 143.109Z" fill="#FF5225"/>
<path d="M188.983 144.885L175.34 153.563L175.591 153.958L189.233 145.28L188.983 144.885Z" fill="#FF5225"/>
<path d="M188.983 146.661L175.34 155.339L175.591 155.733L189.233 147.055L188.983 146.661Z" fill="#FF5225"/>
<path d="M188.985 148.437L175.342 157.115L175.593 157.509L189.235 148.831L188.985 148.437Z" fill="#FF5225"/>
<path d="M188.985 150.213L175.342 158.891L175.593 159.285L189.235 150.607L188.985 150.213Z" fill="#FF5225"/>
<path d="M188.985 151.99L175.342 160.668L175.593 161.062L189.235 152.384L188.985 151.99Z" fill="#FF5225"/>
<path d="M188.983 153.769L175.34 162.447L175.591 162.841L189.233 154.163L188.983 153.769Z" fill="#FF5225"/>
<path d="M188.981 155.547L175.338 164.225L175.589 164.619L189.231 155.941L188.981 155.547Z" fill="#FF5225"/>
<path d="M188.981 157.323L175.338 166.001L175.589 166.395L189.231 157.717L188.981 157.323Z" fill="#FF5225"/>
<path d="M188.983 159.1L175.34 167.778L175.591 168.172L189.233 159.494L188.983 159.1Z" fill="#FF5225"/>
<path d="M188.983 160.876L175.34 169.554L175.591 169.948L189.233 161.27L188.983 160.876Z" fill="#FF5225"/>
<path d="M188.981 162.652L175.338 171.33L175.589 171.724L189.231 163.046L188.981 162.652Z" fill="#FF5225"/>
<path d="M188.981 164.429L175.338 173.107L175.589 173.502L189.231 164.824L188.981 164.429Z" fill="#FF5225"/>
<path d="M188.981 166.206L175.338 174.884L175.589 175.278L189.231 166.6L188.981 166.206Z" fill="#FF5225"/>
<path d="M188.981 167.982L175.338 176.66L175.589 177.054L189.231 168.376L188.981 167.982Z" fill="#FF5225"/>
<path d="M188.983 169.76L175.34 178.438L175.591 178.832L189.233 170.154L188.983 169.76Z" fill="#FF5225"/>
<path d="M188.983 171.534L175.34 180.212L175.591 180.606L189.233 171.928L188.983 171.534Z" fill="#FF5225"/>
<path d="M188.983 173.31L175.34 181.988L175.591 182.382L189.233 173.704L188.983 173.31Z" fill="#FF5225"/>
<path d="M188.983 175.088L175.34 183.766L175.591 184.16L189.233 175.482L188.983 175.088Z" fill="#FF5225"/>
<path d="M188.983 176.864L175.34 185.542L175.591 185.936L189.233 177.258L188.983 176.864Z" fill="#FF5225"/>
</g>
<path d="M197.654 154.1L172.27 100.795L147.189 135.688L121.287 153.301L95.5195 124.707L96.2143 124.082L121.436 152.071L146.526 135.008L172.435 98.9668L198.041 152.738L248.701 119.973H274.334V120.907H248.976L197.654 154.1Z" fill="#FF5225"/>
<path d="M95.8713 126.981C95.7474 126.981 95.6223 126.971 95.4983 126.953C94.0874 126.75 93.1042 125.436 93.308 124.024C93.4903 122.761 94.5891 121.808 95.8642 121.808C95.9881 121.808 96.1132 121.817 96.2372 121.835C96.9212 121.934 97.5254 122.293 97.9389 122.846C98.3524 123.399 98.5264 124.08 98.4275 124.763C98.2452 126.027 97.1464 126.981 95.8713 126.981Z" fill="#FF5225"/>
<path d="M95.8626 122.254C95.9651 122.254 96.0688 122.261 96.1725 122.276C97.3403 122.444 98.1543 123.532 97.985 124.7C97.8337 125.747 96.9256 126.535 95.8698 126.535C95.7673 126.535 95.6636 126.528 95.56 126.513C94.9939 126.431 94.4934 126.134 94.1514 125.676C93.8094 125.219 93.6652 124.655 93.7474 124.089C93.8987 123.043 94.8068 122.254 95.8626 122.254ZM95.8626 121.362C94.3802 121.362 93.0836 122.452 92.8655 123.961C92.626 125.619 93.776 127.156 95.4336 127.395C95.5802 127.416 95.7268 127.426 95.8698 127.426C97.3523 127.426 98.6488 126.336 98.8669 124.827C99.1064 123.169 97.9564 121.632 96.2988 121.393C96.1522 121.372 96.0056 121.362 95.8626 121.362Z" fill="#4D4D4D"/>
<path d="M121.365 154.107C121.242 154.107 121.116 154.097 120.992 154.079C119.581 153.876 118.598 152.562 118.802 151.15C118.984 149.887 120.083 148.934 121.358 148.934C121.482 148.934 121.607 148.943 121.731 148.961C122.415 149.06 123.02 149.419 123.433 149.972C123.847 150.524 124.021 151.206 123.922 151.889C123.739 153.153 122.641 154.107 121.365 154.107Z" fill="#FF5225"/>
<path d="M121.359 149.381C121.461 149.381 121.565 149.388 121.669 149.403C122.836 149.571 123.65 150.659 123.481 151.827C123.33 152.873 122.421 153.662 121.366 153.662C121.263 153.662 121.16 153.655 121.056 153.64C120.488 153.558 119.988 153.258 119.647 152.803C119.307 152.348 119.161 151.784 119.243 151.216C119.395 150.17 120.303 149.381 121.359 149.381ZM121.359 148.489C119.876 148.489 118.58 149.578 118.362 151.088C118.122 152.746 119.272 154.283 120.93 154.522C121.076 154.543 121.223 154.553 121.366 154.553C122.848 154.553 124.145 153.463 124.363 151.953C124.603 150.296 123.453 148.759 121.795 148.52C121.648 148.499 121.502 148.489 121.359 148.489Z" fill="#4D4D4D"/>
<path d="M146.862 137.934C146.738 137.934 146.612 137.924 146.489 137.906C145.078 137.703 144.094 136.389 144.298 134.977C144.481 133.714 145.579 132.761 146.854 132.761C146.978 132.761 147.103 132.77 147.227 132.788C147.911 132.887 148.516 133.246 148.929 133.799C149.343 134.352 149.517 135.033 149.418 135.716C149.235 136.981 148.137 137.934 146.862 137.934Z" fill="#FF5225"/>
<path d="M146.855 133.207C146.957 133.207 147.061 133.214 147.165 133.229C148.333 133.397 149.146 134.485 148.977 135.653C148.826 136.7 147.917 137.489 146.862 137.489C146.759 137.489 146.656 137.481 146.552 137.466C145.981 137.384 145.482 137.082 145.144 136.629C144.805 136.176 144.656 135.613 144.738 135.042C144.89 133.996 145.798 133.207 146.854 133.207H146.855ZM146.855 132.315C145.372 132.315 144.076 133.405 143.858 134.914C143.618 136.572 144.768 138.109 146.426 138.348C146.572 138.369 146.719 138.379 146.862 138.379C148.344 138.379 149.641 137.29 149.859 135.78C150.099 134.122 148.949 132.585 147.291 132.346C147.144 132.325 146.998 132.315 146.855 132.315Z" fill="#4D4D4D"/>
<path d="M172.356 102.498C172.232 102.498 172.107 102.489 171.983 102.471C170.572 102.267 169.589 100.954 169.792 99.5417C169.975 98.2786 171.073 97.3252 172.349 97.3252C172.472 97.3252 172.598 97.3347 172.722 97.3526C173.406 97.4515 174.01 97.8102 174.423 98.3632C174.837 98.9161 175.011 99.5977 174.912 100.281C174.73 101.545 173.631 102.498 172.356 102.498Z" fill="#FF5225"/>
<path d="M172.349 97.7713C172.451 97.7713 172.555 97.7784 172.659 97.7939C173.827 97.9619 174.641 99.05 174.471 100.218C174.32 101.264 173.411 102.053 172.356 102.053C172.254 102.053 172.149 102.046 172.046 102.03C171.473 101.948 170.975 101.643 170.638 101.194C170.302 100.745 170.15 100.18 170.233 99.6065C170.384 98.5602 171.292 97.7713 172.348 97.7713H172.349ZM172.349 96.8799C170.867 96.8799 169.57 97.9691 169.352 99.479C169.112 101.137 170.262 102.674 171.92 102.912C172.067 102.934 172.213 102.943 172.356 102.943C173.839 102.943 175.135 101.854 175.353 100.344C175.593 98.6865 174.443 97.1492 172.785 96.9109C172.639 96.8894 172.492 96.8799 172.349 96.8799Z" fill="#4D4D4D"/>
<path d="M197.85 156.006C197.726 156.006 197.601 155.997 197.477 155.979C196.066 155.775 195.083 154.462 195.287 153.05C195.469 151.786 196.568 150.833 197.843 150.833C197.967 150.833 198.092 150.843 198.216 150.86C198.9 150.959 199.504 151.318 199.917 151.871C200.331 152.424 200.505 153.106 200.406 153.788C200.224 155.053 199.125 156.006 197.85 156.006Z" fill="#FF5225"/>
<path d="M197.843 151.279C197.946 151.279 198.049 151.286 198.153 151.302C199.321 151.47 200.135 152.558 199.966 153.726C199.814 154.772 198.905 155.561 197.85 155.561C197.748 155.561 197.643 155.554 197.54 155.538C196.964 155.455 196.467 155.149 196.132 154.702C195.797 154.255 195.644 153.691 195.727 153.114C195.878 152.068 196.787 151.279 197.842 151.279H197.843ZM197.843 150.388C196.361 150.388 195.064 151.477 194.846 152.987C194.606 154.644 195.756 156.182 197.414 156.42C197.561 156.441 197.707 156.451 197.85 156.451C199.333 156.451 200.629 155.362 200.847 153.852C201.087 152.194 199.937 150.657 198.279 150.419C198.133 150.397 197.986 150.388 197.843 150.388Z" fill="#4D4D4D"/>
<path d="M223.344 139.388C223.22 139.388 223.095 139.378 222.971 139.361C221.56 139.157 220.577 137.844 220.781 136.431C220.963 135.168 222.062 134.215 223.337 134.215C223.461 134.215 223.586 134.224 223.71 134.242C224.394 134.341 224.998 134.7 225.412 135.253C225.825 135.806 225.999 136.487 225.9 137.17C225.718 138.435 224.619 139.388 223.344 139.388Z" fill="#FF5225"/>
<path d="M223.337 134.662C223.44 134.662 223.543 134.669 223.647 134.685C224.815 134.853 225.629 135.941 225.46 137.108C225.308 138.155 224.399 138.944 223.344 138.944C223.242 138.944 223.138 138.936 223.035 138.921C222.455 138.838 221.958 138.528 221.626 138.084C221.294 137.64 221.137 137.076 221.221 136.497C221.372 135.451 222.28 134.662 223.336 134.662H223.337ZM223.337 133.771C221.855 133.771 220.558 134.86 220.34 136.37C220.101 138.027 221.251 139.565 222.908 139.803C223.055 139.824 223.201 139.834 223.344 139.834C224.827 139.834 226.123 138.745 226.342 137.235C226.581 135.577 225.431 134.04 223.773 133.801C223.627 133.78 223.48 133.771 223.337 133.771Z" fill="#4D4D4D"/>
<path d="M248.842 123.201C248.718 123.201 248.593 123.192 248.469 123.174C247.058 122.97 246.075 121.657 246.279 120.245C246.461 118.982 247.56 118.028 248.835 118.028C248.959 118.028 249.084 118.038 249.208 118.056C249.892 118.155 250.496 118.513 250.91 119.066C251.323 119.619 251.497 120.301 251.398 120.984C251.216 122.248 250.117 123.201 248.842 123.201Z" fill="#FF5225"/>
<path d="M248.833 118.474C248.936 118.474 249.04 118.482 249.143 118.497C250.311 118.665 251.125 119.753 250.956 120.921C250.804 121.967 249.895 122.756 248.84 122.756C248.738 122.756 248.634 122.749 248.531 122.733C247.949 122.65 247.453 122.338 247.123 121.897C246.793 121.455 246.635 120.891 246.718 120.31C246.869 119.263 247.778 118.474 248.833 118.474ZM248.833 117.583C247.351 117.583 246.054 118.672 245.836 120.182C245.597 121.84 246.747 123.377 248.404 123.615C248.551 123.637 248.697 123.646 248.84 123.646C250.323 123.646 251.62 122.557 251.838 121.047C252.077 119.39 250.927 117.852 249.269 117.614C249.123 117.593 248.976 117.583 248.833 117.583Z" fill="#4D4D4D"/>
<path d="M274.336 123.201C274.212 123.201 274.087 123.192 273.963 123.174C272.552 122.97 271.569 121.657 271.773 120.245C271.955 118.982 273.054 118.028 274.329 118.028C274.453 118.028 274.578 118.038 274.702 118.056C275.386 118.155 275.99 118.513 276.404 119.066C276.817 119.619 276.991 120.301 276.892 120.984C276.71 122.248 275.611 123.201 274.336 123.201Z" fill="#FF5225"/>
<path d="M274.327 118.474C274.43 118.474 274.534 118.482 274.637 118.497C275.805 118.665 276.619 119.753 276.45 120.921C276.299 121.967 275.389 122.756 274.335 122.756C274.232 122.756 274.127 122.749 274.025 122.733C272.857 122.565 272.043 121.477 272.212 120.31C272.364 119.263 273.273 118.474 274.327 118.474ZM274.327 117.583C272.845 117.583 271.548 118.672 271.33 120.182C271.091 121.84 272.241 123.377 273.898 123.615C274.045 123.637 274.192 123.646 274.335 123.646C275.817 123.646 277.114 122.557 277.332 121.047C277.571 119.39 276.421 117.852 274.764 117.614C274.617 117.593 274.47 117.583 274.327 117.583Z" fill="#4D4D4D"/>
<path d="M229.873 107.798C223.59 107.798 218.479 102.685 218.479 96.4027C218.479 90.1202 223.59 85.0078 229.873 85.0078H230.107V88.7438H229.873C225.65 88.7438 222.214 92.1794 222.214 96.4027C222.214 100.626 225.65 104.062 229.873 104.062C234.097 104.062 237.534 100.626 237.534 96.4027V96.1692H241.27V96.4027C241.27 102.687 236.157 107.798 229.875 107.798H229.873ZM229.64 85.4761C223.722 85.6013 218.946 90.4538 218.946 96.4016C218.946 102.349 223.848 107.329 229.873 107.329C235.899 107.329 240.675 102.553 240.8 96.6351H237.997C237.873 101.009 234.277 104.528 229.873 104.528C225.47 104.528 221.747 100.882 221.747 96.4016C221.747 91.9208 225.266 88.4029 229.64 88.279V85.4761Z" fill="#FF5225"/>
<path d="M225.003 93.4814C224.489 94.3347 224.193 95.3345 224.193 96.4035C224.193 97.4724 224.485 98.4579 224.992 99.3076L229.872 96.4035L225.003 93.4814Z" fill="#FF5225"/>
<path d="M234.858 93.6812C233.894 91.9187 232.023 90.7246 229.873 90.7246C227.723 90.7246 225.997 91.8305 225.004 93.4822L229.873 96.4042H235.552C235.552 95.4175 235.3 94.4903 234.858 93.6824V93.6812Z" fill="#4D4D4D"/>
<path d="M229.874 96.4014L224.994 99.3055C225.984 100.967 227.799 102.081 229.874 102.081C233.011 102.081 235.553 99.5391 235.553 96.4026H229.874V96.4014Z" fill="#808080"/>
<path d="M258.765 107.944H258.532C252.248 107.944 247.137 102.832 247.137 96.5492C247.137 90.2666 252.249 85.1543 258.532 85.1543C264.814 85.1543 269.927 90.2666 269.927 96.5492V96.7828H266.191V96.5492C266.191 92.3259 262.755 88.8902 258.53 88.8902C254.306 88.8902 250.871 92.3259 250.871 96.5492C250.871 100.773 254.307 104.208 258.53 104.208H258.764V107.944H258.765ZM258.532 85.6203C252.505 85.6203 247.604 90.5229 247.604 96.548C247.604 102.573 252.38 107.35 258.298 107.473V104.671C253.925 104.547 250.406 100.95 250.406 96.548C250.406 92.1459 254.051 88.4219 258.532 88.4219C263.012 88.4219 266.53 91.9422 266.655 96.3145H269.458C269.333 90.3954 264.481 85.6191 258.532 85.6191V85.6203Z" fill="#4D4D4D"/>
<path d="M261.746 91.5279C260.893 91.0143 259.893 90.7188 258.824 90.7188C257.755 90.7188 256.77 91.0107 255.92 91.5172L258.824 96.3972L261.746 91.5279Z" fill="#FF5225"/>
<path d="M261.543 101.382C263.306 100.418 264.5 98.5474 264.5 96.3976C264.5 94.2478 263.394 92.521 261.742 91.5283L258.82 96.3976L261.542 101.382H261.543Z" fill="#4D4D4D"/>
<path d="M258.822 96.3975V102.076C259.809 102.076 260.736 101.824 261.544 101.382L258.822 96.3975Z" fill="#4D4D4D"/>
<path d="M255.92 91.5176C254.259 92.5079 253.145 94.3228 253.145 96.3975C253.145 99.5341 255.686 102.076 258.823 102.076V96.3975L255.919 91.5176H255.92Z" fill="#808080"/>
<path d="M130.746 96.6328H100.027V97.1H130.746V96.6328Z" fill="#4D4D4D"/>
<path d="M130.745 99.6475H120.945V100.115H130.745V99.6475Z" fill="#4D4D4D"/>
<path d="M118.119 99.6475H105.682V100.115H118.119V99.6475Z" fill="#FF5225"/>
<path d="M101.535 99.6475H100.027V100.115H101.535V99.6475Z" fill="#4D4D4D"/>
<path d="M130.746 102.663H125.846V103.13H130.746V102.663Z" fill="#FF5225"/>
<path d="M121.889 102.663H111.523V103.13H121.889V102.663Z" fill="#4D4D4D"/>
<path d="M108.507 102.663H100.027V103.13H108.507V102.663Z" fill="#FF5225"/>
<path d="M135.136 113.119H95.6367C93.5131 113.119 91.7852 111.391 91.7852 109.267V90.497C91.7852 88.3735 93.5131 86.6455 95.6367 86.6455H135.136C137.26 86.6455 138.988 88.3735 138.988 90.497V109.267C138.988 111.391 137.26 113.119 135.136 113.119ZM95.6367 87.1115C93.7705 87.1115 92.2511 88.6297 92.2511 90.497V109.267C92.2511 111.134 93.7693 112.653 95.6367 112.653H135.136C137.003 112.653 138.522 111.135 138.522 109.267V90.497C138.522 88.6309 137.004 87.1115 135.136 87.1115H95.6367Z" fill="#FF5225"/>
<path d="M166.405 99.6484H138.756V100.116H166.405V99.6484Z" fill="#FF5225"/>
<path d="M167.302 99.9125C167.302 100.263 167.017 100.548 166.666 100.548C166.316 100.548 166.031 100.263 166.031 99.9125C166.031 99.5622 166.316 99.2773 166.666 99.2773C167.017 99.2773 167.302 99.5622 167.302 99.9125Z" fill="#FF5225"/>
</g>
<defs>
<clipPath id="clip0_1984_11364">
<rect width="222" height="222" fill="white" transform="translate(74 21.2812)"/>
</clipPath>
</defs>
</svg>
