<svg width="371" height="265" viewBox="0 0 371 265" fill="none" xmlns="http://www.w3.org/2000/svg">
<path d="M146.197 199.45H92.9695C86.3431 199.45 81.4363 194.03 82.0755 187.403L87.6126 129.89C88.2518 123.264 94.194 117.844 100.82 117.844H154.048C160.674 117.844 165.581 123.264 164.942 129.89L159.405 187.403C158.766 194.03 152.823 199.45 146.197 199.45Z" fill="white"/>
<path d="M146.197 199.954H92.9697C89.6295 199.954 86.6044 198.649 84.4436 196.272C82.2738 193.877 81.2564 190.717 81.5806 187.358L87.1176 129.845C87.7838 122.949 93.9331 117.34 100.83 117.34H154.057C157.397 117.34 160.422 118.645 162.583 121.022C164.753 123.417 165.77 126.577 165.446 129.935L159.909 187.448C159.243 194.345 153.094 199.954 146.197 199.954ZM100.83 118.339C94.4373 118.339 88.7382 123.543 88.1169 129.935L82.5799 187.448C82.2828 190.519 83.2101 193.418 85.1909 195.596C87.1536 197.757 89.9176 198.955 92.9697 198.955H146.197C152.59 198.955 158.289 193.751 158.91 187.358L164.447 129.845C164.744 126.775 163.817 123.876 161.836 121.697C159.873 119.537 157.109 118.339 154.057 118.339H100.83Z" fill="black"/>
<path d="M145.162 169.144L139.256 154.621L137.293 149.795C136.618 148.139 134.754 147.356 132.944 147.968C130.775 148.706 129.568 151.119 130.378 153.109L129.388 150.669C128.713 149.012 126.849 148.229 125.039 148.841C122.87 149.579 121.663 151.992 122.474 153.982L115.874 137.74C115.199 136.083 113.335 135.3 111.525 135.912C109.356 136.651 108.149 139.064 108.96 141.053L109.482 142.341C108.806 140.684 106.943 139.901 105.133 140.513C102.963 141.251 101.757 143.664 102.567 145.654L108.843 161.086L113.065 175.374C112.201 175.572 110.859 175.662 108.861 175.338C104.62 174.645 98.7048 176.805 99.6862 181.046C100.082 182.766 105.601 182.495 107.528 183.549C109.455 184.602 119.755 188.717 124.715 188.582C125.679 189.473 127.083 189.689 128.272 189.122L143.73 181.712C144.523 181.334 145.117 180.641 145.396 179.812C146.584 176.229 146.512 172.448 145.162 169.135V169.144Z" fill="#1E1E1E"/>
<path d="M146.439 140.565C146.394 140.565 146.349 140.565 146.295 140.547L128.901 135.506C128.631 135.434 128.478 135.154 128.559 134.884C128.64 134.614 128.919 134.461 129.18 134.542L146.574 139.584C146.844 139.656 146.998 139.935 146.917 140.205C146.853 140.421 146.655 140.565 146.43 140.565H146.439Z" fill="#FF5225"/>
<path d="M130.729 132.379L124.895 133.81L129.054 138.15L130.729 132.379Z" fill="#FF5225"/>
<path d="M261.404 242.779H182.184C175.558 242.779 170.651 237.359 171.29 230.732L186.605 71.6169C187.244 64.9905 193.186 59.5615 199.813 59.5615H279.033C285.659 59.5615 290.566 64.9815 289.927 71.6169L274.612 230.732C273.973 237.359 268.031 242.779 261.404 242.779Z" fill="white"/>
<path d="M261.395 243.274H182.175C178.835 243.274 175.809 241.969 173.649 239.592C171.479 237.197 170.462 234.037 170.786 230.678L186.1 71.5632C186.766 64.6667 192.916 59.0576 199.812 59.0576H279.032C282.372 59.0576 285.398 60.3631 287.558 62.74C289.728 65.1348 290.746 68.295 290.421 71.6532L275.107 230.768C274.441 237.665 268.291 243.274 261.395 243.274ZM199.812 60.057C193.42 60.057 187.721 65.2609 187.1 71.6532L171.785 230.768C171.488 233.839 172.415 236.738 174.396 238.916C176.359 241.077 179.123 242.275 182.175 242.275H261.395C267.787 242.275 273.486 237.071 274.107 230.678L289.422 71.5632C289.719 68.4931 288.792 65.594 286.811 63.4152C284.848 61.2544 282.084 60.057 279.032 60.057H199.812Z" fill="black"/>
<path opacity="0.1" d="M196.868 242.781H183.102L227.254 59.5547H241.011L196.868 242.781Z" fill="#407BFF"/>
<path opacity="0.1" d="M220.763 242.781H201.352L245.495 59.5547H264.906L220.763 242.781Z" fill="#407BFF"/>
<path d="M220.619 236.694C219.034 236.694 217.603 236.073 216.586 234.957C215.559 233.831 215.082 232.328 215.235 230.734C215.55 227.502 218.431 224.873 221.663 224.873C223.248 224.873 224.68 225.494 225.697 226.611C226.723 227.736 227.2 229.24 227.047 230.833C226.732 234.065 223.851 236.694 220.619 236.694ZM221.663 225.872C218.935 225.872 216.496 228.096 216.234 230.824C216.108 232.13 216.496 233.354 217.333 234.272C218.161 235.182 219.332 235.686 220.628 235.686C223.356 235.686 225.796 233.462 226.057 230.734C226.183 229.429 225.796 228.204 224.959 227.286C224.13 226.377 222.96 225.872 221.663 225.872Z" fill="#263238"/>
<path d="M257.379 243.276V242.268C263.771 242.268 269.47 237.064 270.092 230.672L285.406 71.5566C285.703 68.4864 284.776 65.5874 282.795 63.4086C280.832 61.2478 278.068 60.0504 275.016 60.0504V59.042C278.357 59.042 281.382 60.3475 283.542 62.7243C285.712 65.1192 286.73 68.2794 286.406 71.6376L271.091 230.753C270.425 237.649 264.275 243.258 257.379 243.258V243.276Z" fill="black"/>
<path d="M201.685 103.4H148.458C141.831 103.4 136.925 97.9798 137.564 91.3534L143.101 33.8404C143.74 27.2139 149.682 21.7939 156.309 21.7939H209.536C216.163 21.7939 221.069 27.2139 220.43 33.8404L214.893 91.3534C214.254 97.9798 208.312 103.4 201.685 103.4Z" fill="white"/>
<path d="M201.686 103.904H148.458C145.118 103.904 142.093 102.599 139.932 100.222C137.762 97.8273 136.745 94.6671 137.069 91.2999L142.606 33.7868C143.272 26.8903 149.421 21.2812 156.318 21.2812H209.545C212.886 21.2812 215.911 22.5867 218.071 24.9636C220.241 27.3585 221.259 30.5186 220.935 33.8769L215.397 91.3899C214.731 98.2864 208.582 103.895 201.686 103.895V103.904ZM156.318 22.2806C149.926 22.2806 144.226 27.4845 143.605 33.8769L138.068 91.3899C137.771 94.46 138.698 97.3591 140.679 99.5379C142.642 101.699 145.406 102.896 148.458 102.896H201.686C208.078 102.896 213.777 97.6922 214.398 91.2999L219.935 33.7868C220.232 30.7167 219.305 27.8176 217.324 25.6388C215.362 23.4781 212.597 22.2806 209.545 22.2806H156.318Z" fill="black"/>
<path d="M174.666 47.1544C172.919 47.1544 171.334 46.4701 170.209 45.2367C169.075 43.9942 168.552 42.3376 168.714 40.582C169.057 37.0077 172.244 34.0996 175.818 34.0996C177.565 34.0996 179.149 34.7839 180.275 36.0173C181.409 37.2598 181.931 38.9164 181.769 40.672C181.427 44.2463 178.24 47.1544 174.666 47.1544ZM175.827 35.108C172.757 35.108 170.02 37.6109 169.723 40.681C169.579 42.1486 170.02 43.5351 170.956 44.5614C171.884 45.5878 173.207 46.155 174.666 46.155C177.736 46.155 180.473 43.6521 180.77 40.582C180.914 39.1144 180.473 37.7279 179.536 36.7016C178.609 35.6752 177.286 35.108 175.827 35.108Z" fill="#263238"/>
<path d="M174.279 51.1765C171.461 51.1765 168.913 50.0781 167.103 48.0884C165.285 46.0807 164.429 43.4157 164.699 40.5887C165.257 34.7995 170.416 30.0908 176.206 30.0908C179.024 30.0908 181.571 31.1892 183.381 33.1789C185.2 35.1867 186.055 37.8517 185.785 40.6787C185.227 46.4678 180.068 51.1765 174.279 51.1765ZM176.215 31.0902C170.93 31.0902 166.212 35.3938 165.708 40.6787C165.465 43.2266 166.221 45.6215 167.85 47.4132C169.471 49.1958 171.749 50.1772 174.279 50.1772C179.564 50.1772 184.281 45.8736 184.786 40.5887C185.029 38.0407 184.272 35.6459 182.643 33.8542C181.022 32.0715 178.744 31.0902 176.215 31.0902Z" fill="#FF5225"/>
<path d="M196.184 58.1433C194.005 57.8642 191.881 59.5838 191.674 61.8077L191.935 59.0797C192.115 57.225 190.881 55.6584 189.063 55.4153C186.884 55.1362 184.759 56.8558 184.552 59.0797L184.714 57.396C184.894 55.5414 183.661 53.9748 181.842 53.7317C179.663 53.4526 177.538 55.1722 177.331 57.396L177.304 57.6391L178.781 42.3425C178.961 40.4879 177.728 38.9213 175.909 38.6782C173.73 38.3991 171.605 40.1187 171.398 42.3425L169.733 59.6199L166.843 74.8984C166.014 74.6914 164.835 74.1782 163.286 72.9807C159.991 70.4238 153.986 69.7936 152.905 74.2052C152.464 75.9879 157.281 78.2207 158.442 80.0663C159.604 81.912 166.491 90.3931 170.777 92.4999C171.182 93.7514 172.353 94.6067 173.667 94.6067H190.035C190.89 94.6067 191.701 94.2465 192.286 93.6253C194.942 90.7983 196.616 87.197 196.977 83.4696L198.183 70.982L198.66 66.0122L198.849 64.0495L199.065 61.8167C199.245 59.962 198.012 58.3954 196.193 58.1523L196.184 58.1433Z" fill="#1E1E1E"/>
<path d="M239.219 154.755C238.904 153.251 238.445 151.802 237.842 150.442L239.309 146.796L232.8 139.593L229.045 140.71C227.749 139.98 226.362 139.377 224.904 138.918L223.436 135.551H213.254L211.138 138.918C209.589 139.377 208.086 139.98 206.654 140.71L203.116 139.593L195.22 146.796L195.985 150.442C195.121 151.811 194.383 153.251 193.779 154.755L190.241 156.546L189.26 166.729L192.447 168.521C192.762 170.024 193.221 171.474 193.824 172.833L192.357 176.48L198.866 183.682L202.621 182.566C203.917 183.295 205.304 183.898 206.762 184.358L208.23 187.725H218.412L220.528 184.358C222.077 183.898 223.58 183.295 225.012 182.566L228.55 183.682L236.446 176.48L235.681 172.833C236.545 171.465 237.283 170.024 237.887 168.521L241.425 166.729L242.406 156.546L239.219 154.755ZM214.685 173.599C208.077 173.599 203.242 168.242 203.872 161.642C204.511 155.034 210.382 149.686 216.981 149.686C223.58 149.686 228.424 155.043 227.794 161.642C227.155 168.251 221.285 173.599 214.685 173.599Z" fill="#FF5225"/>
<path d="M267.093 119.24L264.77 119.015C264.23 118.259 263.609 117.575 262.924 116.972V114.631L257.342 112.218L255.38 113.721C254.434 113.622 253.471 113.622 252.49 113.721L250.815 112.227L244.765 114.64L244.315 116.99C243.504 117.602 242.748 118.286 242.073 119.033L239.705 119.258L236.734 125.074L238.057 126.893C237.868 127.847 237.778 128.811 237.778 129.783L236.104 131.602L237.949 137.418L240.272 137.643C240.812 138.399 241.433 139.084 242.118 139.687V142.028L247.7 144.441L249.662 142.937C250.608 143.036 251.571 143.036 252.553 142.937L254.227 144.441L260.277 142.028L260.728 139.678C261.538 139.057 262.294 138.372 262.969 137.634L265.337 137.409L268.308 131.593L266.985 129.774C267.174 128.82 267.264 127.856 267.264 126.884L268.939 125.065L267.093 119.249V119.24ZM255.875 138.868C249.816 141.28 243.405 138.516 241.551 132.691C239.696 126.866 243.108 120.186 249.167 117.773C255.227 115.36 261.637 118.124 263.492 123.949C265.346 129.774 261.934 136.455 255.875 138.868Z" fill="#263238"/>
</svg>
