<svg width="371" height="265" viewBox="0 0 371 265" fill="none" xmlns="http://www.w3.org/2000/svg">
<path d="M232.168 168.539C218.812 172.232 193.576 197.967 209.22 210.036C224.869 222.106 271.606 157.638 232.168 168.539Z" fill="#ECF2FA"/>
<path d="M235.781 164.638C179.15 176.149 196.139 205.531 158.351 212.454C107.37 221.791 83.4636 145.554 115.424 98.5046C140.965 60.904 185.024 49.0275 224.064 64.47C279.207 86.2826 280.476 155.556 235.776 164.643L235.781 164.638Z" fill="#ECF2FA"/>
<mask id="mask0_1984_11669" style="mask-type:luminance" maskUnits="userSpaceOnUse" x="99" y="97" width="170" height="117">
<path d="M268.714 97.5342H99.2402V213.242H268.714V97.5342Z" fill="white"/>
</mask>
<g mask="url(#mask0_1984_11669)">
<path d="M168.627 199.079H261.272V276.825H168.627V199.079ZM259.928 200.415H169.967V275.484H259.928V200.415Z" fill="#1A120E"/>
<path d="M131.277 199.079H235.333V276.825H131.277V199.079ZM233.989 200.415H132.622V275.484H233.989V200.415Z" fill="#1A120E"/>
<path d="M266.464 194.142H124.977V199.155H266.464V194.142Z" fill="#333333"/>
<path d="M266.463 194.142H231.156V199.155H266.463V194.142Z" fill="#1A120E"/>
<path d="M225.695 194.04H211.585L206.47 167.463C205.65 163.206 208.925 159.254 213.276 159.254C216.597 159.254 219.45 161.606 220.076 164.857L225.695 194.035V194.04Z" fill="#757575"/>
<path d="M225.899 194.005L223.933 183.789L223.897 183.586L223.856 183.383L223.601 182.057L223.489 181.483L222.751 177.638L220.285 164.831C219.638 161.489 216.694 159.056 213.281 159.056C211.146 159.056 209.139 159.995 207.779 161.636C206.419 163.277 205.869 165.421 206.271 167.508L208.222 177.632L208.961 181.478L209.073 182.052L209.328 183.378L209.369 183.581L209.404 183.784L210.866 191.383L210.882 191.465L210.922 191.673L210.963 191.876L210.978 191.957L211.34 193.837L211.376 194.04L211.416 194.243H225.945L225.894 194L225.899 194.005ZM211.758 193.837L211.396 191.957L211.381 191.876L211.34 191.673L211.299 191.465L211.284 191.383L209.822 183.784L209.781 183.581L209.741 183.378L209.486 182.052L209.379 181.478L208.635 177.632L206.669 167.432C206.292 165.461 206.806 163.445 208.09 161.9C209.374 160.356 211.259 159.467 213.271 159.467C216.485 159.467 219.261 161.753 219.873 164.903L222.323 177.632L223.067 181.478L223.179 182.052L223.433 183.378L223.469 183.581L223.51 183.784L225.445 193.832H211.758V193.837Z" fill="#1A120E"/>
<path d="M211.386 188.106L211.951 188L207.942 167.188C207.636 165.598 208.054 163.972 209.088 162.723C210.122 161.473 211.646 160.757 213.271 160.757C215.868 160.757 218.11 162.601 218.599 165.146L220.993 177.581L221.559 177.474L219.164 165.039C218.624 162.225 216.144 160.183 213.271 160.183C211.472 160.183 209.786 160.975 208.645 162.357C207.504 163.738 207.04 165.537 207.377 167.294L211.386 188.106Z" fill="#1A120E"/>
<path d="M222.67 191.672H185.305V194.044H222.67V191.672Z" fill="#757575"/>
<path d="M185.096 191.464V194.248H222.873V191.464H185.096ZM222.461 193.836H185.513V191.875H222.461V193.836Z" fill="#1A120E"/>
<path d="M215.95 191.383H185.305V191.957H215.95V191.383Z" fill="#1A120E"/>
<path d="M167.296 183.58H247.843C249.993 183.58 251.796 181.96 252.02 179.831L257.114 131.309C257.374 128.84 255.428 126.687 252.937 126.687H172.39C170.24 126.687 168.437 128.307 168.213 130.435L163.119 178.958C162.859 181.431 164.805 183.58 167.296 183.58Z" fill="#757575"/>
<path d="M256.213 127.931C255.378 127.012 254.186 126.479 252.943 126.479H172.396C170.134 126.479 168.249 128.17 168.015 130.41L162.921 178.932C162.789 180.167 163.196 181.406 164.032 182.331C164.867 183.255 166.059 183.784 167.302 183.784H247.849C250.111 183.784 251.996 182.092 252.23 179.847L254.95 153.92L257.324 131.325C257.451 130.085 257.049 128.851 256.219 127.926L256.213 127.931ZM256.911 131.289L254.532 153.925L251.817 179.806C251.608 181.838 249.902 183.377 247.849 183.377H167.302C166.171 183.377 165.091 182.895 164.337 182.056C163.583 181.223 163.217 180.096 163.334 178.978L168.428 130.456C168.637 128.424 170.348 126.89 172.396 126.89H252.943C254.074 126.89 255.154 127.373 255.908 128.206C256.662 129.044 257.028 130.166 256.911 131.284V131.289Z" fill="#1A120E"/>
<path d="M255.149 131.107L250.264 177.632H165.244L170.18 130.644C170.297 129.512 171.25 128.658 172.391 128.658H252.938C253.575 128.658 254.161 128.917 254.589 129.39C255.011 129.862 255.215 130.472 255.149 131.107Z" fill="#CFE0FA"/>
<path d="M255.149 131.107L250.264 177.632H198.029L203.19 128.658H252.938C253.575 128.658 254.161 128.917 254.589 129.39C255.011 129.862 255.215 130.472 255.149 131.107Z" fill="white"/>
<path d="M167.298 182.051H247.845C247.937 182.051 248.023 182.051 248.11 182.036L248.054 181.467C247.982 181.472 247.916 181.477 247.845 181.477H167.298C166.697 181.477 166.147 181.233 165.744 180.786C165.342 180.344 165.158 179.77 165.219 179.176L170.313 130.659C170.426 129.592 171.317 128.795 172.392 128.795V128.221C171.022 128.221 169.886 129.247 169.743 130.603L164.649 179.12C164.573 179.877 164.807 180.609 165.321 181.177C165.836 181.746 166.539 182.056 167.303 182.056L167.298 182.051Z" fill="#1A120E"/>
<path d="M173.172 155.022H197.236L199.768 131.025H175.699L173.172 155.022Z" fill="#333333"/>
<path d="M195.367 153.381L189.789 139.447L184.664 148.245L182.209 143.592L175.424 153.32L195.367 153.381Z" fill="#FF5225"/>
<path d="M183.9 137.822C183.818 138.68 184.45 139.371 185.311 139.361C186.172 139.351 186.936 138.65 187.017 137.791C187.099 136.933 186.467 136.247 185.606 136.252C184.745 136.262 183.981 136.963 183.9 137.822Z" fill="white"/>
<path d="M195.646 153.498L195.891 153.279L177.287 132.549L177.043 132.772L195.646 153.498Z" fill="white"/>
<path d="M175.081 153.498L198.051 132.772L197.852 132.549L174.883 153.279L175.081 153.498Z" fill="white"/>
<path d="M175.377 153.692C175.886 153.692 175.968 153.58 175.983 153.463C175.993 153.351 175.937 153.234 175.428 153.234C174.918 153.234 174.832 153.351 174.821 153.463C174.811 153.58 174.867 153.692 175.377 153.692Z" fill="white"/>
<path d="M177.078 153.692C177.587 153.692 177.669 153.58 177.684 153.463C177.694 153.351 177.638 153.234 177.129 153.234C176.619 153.234 176.533 153.351 176.523 153.463C176.512 153.58 176.568 153.692 177.078 153.692Z" fill="white"/>
<path d="M178.779 153.692C179.288 153.692 179.37 153.58 179.385 153.463C179.395 153.351 179.339 153.234 178.83 153.234C178.32 153.234 178.234 153.351 178.224 153.463C178.214 153.58 178.27 153.692 178.779 153.692Z" fill="white"/>
<path d="M180.48 153.692C180.99 153.692 181.071 153.58 181.086 153.463C181.096 153.351 181.04 153.234 180.531 153.234C180.022 153.234 179.935 153.351 179.925 153.463C179.915 153.58 179.971 153.692 180.48 153.692Z" fill="white"/>
<path d="M182.181 153.692C182.691 153.692 182.772 153.58 182.787 153.463C182.798 153.351 182.742 153.234 182.232 153.234C181.723 153.234 181.641 153.351 181.626 153.463C181.616 153.58 181.672 153.692 182.181 153.692Z" fill="white"/>
<path d="M183.884 153.692C184.394 153.692 184.475 153.58 184.491 153.463C184.501 153.351 184.445 153.234 183.935 153.234C183.426 153.234 183.344 153.351 183.329 153.463C183.319 153.58 183.375 153.692 183.884 153.692Z" fill="white"/>
<path d="M185.586 153.692C186.095 153.692 186.176 153.58 186.192 153.463C186.202 153.351 186.146 153.234 185.637 153.234C185.127 153.234 185.046 153.351 185.03 153.463C185.02 153.58 185.076 153.692 185.586 153.692Z" fill="white"/>
<path d="M187.287 153.692C187.796 153.692 187.878 153.58 187.893 153.463C187.903 153.351 187.847 153.234 187.338 153.234C186.828 153.234 186.747 153.351 186.732 153.463C186.721 153.58 186.777 153.692 187.287 153.692Z" fill="white"/>
<path d="M188.994 153.692C189.503 153.692 189.585 153.58 189.6 153.463C189.61 153.351 189.554 153.234 189.045 153.234C188.535 153.234 188.449 153.351 188.439 153.463C188.428 153.58 188.484 153.692 188.994 153.692Z" fill="white"/>
<path d="M190.695 153.692C191.204 153.692 191.286 153.58 191.301 153.463C191.311 153.351 191.255 153.234 190.746 153.234C190.237 153.234 190.155 153.351 190.14 153.463C190.13 153.58 190.186 153.692 190.695 153.692Z" fill="white"/>
<path d="M192.395 153.692C192.905 153.692 192.986 153.58 193.001 153.463C193.012 153.351 192.956 153.234 192.446 153.234C191.937 153.234 191.855 153.351 191.84 153.463C191.825 153.58 191.886 153.692 192.395 153.692Z" fill="white"/>
<path d="M194.097 153.692C194.607 153.692 194.688 153.58 194.703 153.463C194.714 153.351 194.658 153.234 194.148 153.234C193.639 153.234 193.552 153.351 193.542 153.463C193.532 153.58 193.588 153.692 194.097 153.692Z" fill="white"/>
<path d="M195.497 153.777L195.625 153.691C195.66 153.691 195.696 153.691 195.732 153.691H195.961L195.997 153.402C195.997 153.396 195.997 153.391 195.997 153.381L196.17 153.224H196.007C196.022 152.873 195.925 152.817 195.823 152.817C195.717 152.817 195.615 152.873 195.553 153.249C195.385 153.275 195.253 153.33 195.238 153.463C195.222 153.595 195.34 153.65 195.503 153.676L195.492 153.777H195.497Z" fill="white"/>
<path d="M195.885 152.284C195.997 152.284 196.124 152.213 196.175 151.705C196.231 151.192 196.119 151.126 196.007 151.126C195.89 151.126 195.773 151.197 195.717 151.705C195.66 152.213 195.767 152.284 195.885 152.284Z" fill="white"/>
<path d="M196.064 150.588C196.176 150.588 196.299 150.517 196.355 150.009C196.411 149.501 196.299 149.43 196.187 149.43C196.074 149.43 195.952 149.501 195.896 150.009C195.84 150.517 195.947 150.588 196.064 150.588Z" fill="white"/>
<path d="M196.242 148.886C196.354 148.886 196.481 148.815 196.532 148.307C196.588 147.794 196.476 147.728 196.364 147.728C196.252 147.728 196.13 147.799 196.074 148.307C196.018 148.815 196.125 148.886 196.242 148.886Z" fill="white"/>
<path d="M196.42 147.189C196.532 147.189 196.659 147.118 196.71 146.61C196.766 146.102 196.654 146.031 196.542 146.031C196.425 146.031 196.308 146.102 196.252 146.61C196.196 147.118 196.303 147.189 196.42 147.189Z" fill="white"/>
<path d="M196.598 145.493C196.71 145.493 196.832 145.422 196.888 144.914C196.944 144.406 196.832 144.335 196.72 144.335C196.608 144.335 196.485 144.406 196.429 144.914C196.373 145.422 196.48 145.493 196.598 145.493Z" fill="white"/>
<path d="M196.777 143.796C196.889 143.796 197.017 143.725 197.068 143.217C197.124 142.709 197.012 142.638 196.899 142.638C196.782 142.638 196.665 142.709 196.609 143.217C196.553 143.725 196.66 143.796 196.777 143.796Z" fill="white"/>
<path d="M196.961 142.1C197.073 142.1 197.2 142.028 197.251 141.521C197.307 141.007 197.195 140.941 197.083 140.941C196.971 140.941 196.849 141.013 196.793 141.521C196.737 142.028 196.844 142.1 196.961 142.1Z" fill="white"/>
<path d="M197.139 140.402C197.251 140.402 197.373 140.331 197.429 139.823C197.485 139.315 197.373 139.244 197.261 139.244C197.149 139.244 197.026 139.315 196.97 139.823C196.914 140.331 197.021 140.402 197.139 140.402Z" fill="white"/>
<path d="M197.316 138.706C197.428 138.706 197.556 138.635 197.607 138.127C197.663 137.614 197.551 137.548 197.439 137.548C197.321 137.548 197.204 137.619 197.148 138.127C197.092 138.635 197.199 138.706 197.316 138.706Z" fill="white"/>
<path d="M197.494 137.01C197.606 137.01 197.728 136.939 197.784 136.431C197.84 135.923 197.728 135.852 197.616 135.852C197.504 135.852 197.382 135.923 197.326 136.431C197.27 136.939 197.377 137.01 197.494 137.01Z" fill="white"/>
<path d="M197.674 135.308C197.786 135.308 197.913 135.236 197.964 134.729C198.02 134.215 197.908 134.149 197.796 134.149C197.684 134.149 197.562 134.221 197.506 134.729C197.45 135.236 197.557 135.308 197.674 135.308Z" fill="white"/>
<path d="M196.517 132.966C197.027 132.966 197.108 132.849 197.123 132.737C197.134 132.621 197.078 132.509 196.568 132.509C196.059 132.509 195.977 132.621 195.962 132.737C195.952 132.849 196.008 132.966 196.517 132.966Z" fill="white"/>
<path d="M194.816 132.966C195.325 132.966 195.407 132.849 195.422 132.737C195.438 132.621 195.376 132.509 194.867 132.509C194.358 132.509 194.276 132.621 194.261 132.737C194.251 132.849 194.307 132.966 194.816 132.966Z" fill="white"/>
<path d="M193.115 132.966C193.624 132.966 193.706 132.849 193.721 132.737C193.731 132.621 193.675 132.509 193.166 132.509C192.656 132.509 192.575 132.621 192.56 132.737C192.549 132.849 192.605 132.966 193.115 132.966Z" fill="white"/>
<path d="M191.412 132.966C191.921 132.966 192.003 132.849 192.018 132.737C192.028 132.621 191.972 132.509 191.463 132.509C190.953 132.509 190.872 132.621 190.857 132.737C190.846 132.849 190.902 132.966 191.412 132.966Z" fill="white"/>
<path d="M189.707 132.966C190.216 132.966 190.298 132.849 190.313 132.737C190.323 132.621 190.267 132.509 189.758 132.509C189.248 132.509 189.167 132.621 189.151 132.737C189.141 132.849 189.197 132.966 189.707 132.966Z" fill="white"/>
<path d="M188.006 132.966C188.52 132.966 188.596 132.849 188.612 132.737C188.622 132.621 188.566 132.509 188.056 132.509C187.547 132.509 187.466 132.621 187.45 132.737C187.44 132.849 187.496 132.966 188.006 132.966Z" fill="white"/>
<path d="M186.302 132.966C186.812 132.966 186.893 132.849 186.909 132.737C186.919 132.621 186.863 132.509 186.353 132.509C185.844 132.509 185.762 132.621 185.747 132.737C185.737 132.849 185.793 132.966 186.302 132.966Z" fill="white"/>
<path d="M184.601 132.966C185.111 132.966 185.192 132.849 185.207 132.737C185.218 132.621 185.162 132.509 184.652 132.509C184.143 132.509 184.061 132.621 184.046 132.737C184.036 132.849 184.092 132.966 184.601 132.966Z" fill="white"/>
<path d="M182.9 132.966C183.415 132.966 183.496 132.849 183.506 132.737C183.516 132.621 183.46 132.509 182.951 132.509C182.442 132.509 182.36 132.621 182.345 132.737C182.335 132.849 182.391 132.966 182.9 132.966Z" fill="white"/>
<path d="M181.199 132.966C181.713 132.966 181.795 132.849 181.805 132.737C181.815 132.621 181.759 132.509 181.25 132.509C180.74 132.509 180.659 132.621 180.644 132.737C180.633 132.849 180.689 132.966 181.199 132.966Z" fill="white"/>
<path d="M179.498 132.966C180.012 132.966 180.094 132.849 180.104 132.737C180.114 132.621 180.058 132.509 179.549 132.509C179.039 132.509 178.958 132.621 178.942 132.737C178.932 132.849 178.988 132.966 179.498 132.966Z" fill="white"/>
<path d="M177.797 132.966C178.311 132.966 178.387 132.849 178.403 132.737C178.413 132.621 178.357 132.509 177.847 132.509C177.338 132.509 177.257 132.621 177.241 132.737C177.231 132.849 177.287 132.966 177.797 132.966Z" fill="white"/>
<path d="M176.986 134.353C177.103 134.353 177.22 134.281 177.276 133.773C177.332 133.265 177.225 133.194 177.108 133.194C176.991 133.194 176.869 133.265 176.818 133.773C176.767 134.281 176.874 134.353 176.986 134.353Z" fill="white"/>
<path d="M176.808 136.055C176.925 136.055 177.042 135.984 177.098 135.476C177.154 134.968 177.047 134.896 176.93 134.896C176.813 134.896 176.691 134.968 176.64 135.476C176.584 135.984 176.696 136.055 176.808 136.055Z" fill="white"/>
<path d="M176.63 137.751C176.747 137.751 176.865 137.68 176.921 137.172C176.972 136.664 176.87 136.593 176.753 136.593C176.635 136.593 176.513 136.664 176.462 137.172C176.406 137.685 176.518 137.751 176.63 137.751Z" fill="white"/>
<path d="M176.451 139.448C176.568 139.448 176.685 139.377 176.741 138.869C176.797 138.361 176.69 138.29 176.573 138.29C176.456 138.29 176.334 138.361 176.283 138.869C176.232 139.377 176.339 139.448 176.451 139.448Z" fill="white"/>
<path d="M176.273 141.145C176.39 141.145 176.507 141.073 176.563 140.565C176.619 140.057 176.512 139.986 176.395 139.986C176.278 139.986 176.156 140.057 176.105 140.565C176.049 141.078 176.161 141.145 176.273 141.145Z" fill="white"/>
<path d="M176.095 142.841C176.212 142.841 176.329 142.77 176.385 142.262C176.442 141.754 176.335 141.683 176.217 141.683C176.1 141.683 175.978 141.754 175.927 142.262C175.871 142.77 175.983 142.841 176.095 142.841Z" fill="white"/>
<path d="M175.917 144.538C176.035 144.538 176.152 144.467 176.208 143.959C176.259 143.451 176.157 143.38 176.04 143.38C175.922 143.38 175.8 143.451 175.749 143.959C175.693 144.472 175.805 144.538 175.917 144.538Z" fill="white"/>
<path d="M175.734 146.234C175.851 146.234 175.968 146.163 176.024 145.655C176.08 145.147 175.973 145.076 175.856 145.076C175.739 145.076 175.617 145.147 175.566 145.655C175.51 146.163 175.622 146.234 175.734 146.234Z" fill="white"/>
<path d="M175.554 147.937C175.671 147.937 175.788 147.865 175.844 147.357C175.9 146.849 175.794 146.778 175.676 146.778C175.559 146.778 175.437 146.849 175.386 147.357C175.33 147.865 175.442 147.937 175.554 147.937Z" fill="white"/>
<path d="M175.376 149.628C175.494 149.628 175.611 149.557 175.667 149.049C175.723 148.541 175.616 148.47 175.499 148.47C175.381 148.47 175.259 148.541 175.208 149.049C175.152 149.557 175.264 149.628 175.376 149.628Z" fill="white"/>
<path d="M175.199 151.329C175.316 151.329 175.433 151.258 175.489 150.75C175.545 150.242 175.438 150.171 175.321 150.171C175.204 150.171 175.081 150.242 175.031 150.75C174.974 151.258 175.087 151.329 175.199 151.329Z" fill="white"/>
<path d="M175.021 153.026C175.138 153.026 175.255 152.955 175.311 152.447C175.367 151.939 175.26 151.868 175.143 151.868C175.026 151.868 174.904 151.939 174.853 152.447C174.797 152.955 174.909 153.026 175.021 153.026Z" fill="white"/>
<path d="M174.145 154.021H175.683L175.846 152.487H174.308L174.145 154.021Z" fill="white"/>
<path d="M174.17 152.335L173.977 154.179H175.826L176.019 152.335H174.17ZM175.551 153.869H174.323L174.45 152.645H175.678L175.551 153.869Z" fill="white"/>
<path d="M194.908 154.229H196.452L196.61 152.695H195.071L194.908 154.229Z" fill="white"/>
<path d="M194.928 152.543L194.734 154.387H196.589L196.782 152.543H194.928ZM196.308 154.077H195.081L195.208 152.858H196.436L196.308 154.077Z" fill="white"/>
<path d="M176.326 133.351H177.865L178.028 131.817H176.489L176.326 133.351Z" fill="white"/>
<path d="M176.346 131.66L176.152 133.509H178.001L178.195 131.66H176.346ZM177.726 133.199H176.499L176.626 131.975H177.854L177.726 133.199Z" fill="white"/>
<path d="M197.094 133.504H198.637L198.795 131.97H197.257L197.094 133.504Z" fill="white"/>
<path d="M197.113 131.817L196.92 133.661H198.774L198.968 131.817H197.113ZM198.494 133.351H197.266L197.394 132.127H198.621L198.494 133.351Z" fill="white"/>
<path d="M194.373 163.851H172.158L172.066 164.709H194.282L194.373 163.851Z" fill="#1A120E"/>
<path d="M179.55 160.817H172.475L172.383 161.681H179.464L179.55 160.817Z" fill="#1A120E"/>
<path d="M187.568 160.817H182.617L182.525 161.681H187.477L187.568 160.817Z" fill="#1A120E"/>
<path d="M187.629 157.79H172.795L172.703 158.654H187.542L187.629 157.79Z" fill="#1A120E"/>
<path d="M196.946 157.79H189.621L189.529 158.654H196.855L196.946 157.79Z" fill="#1A120E"/>
<path d="M191.035 173.152H171.174L171.082 174.011H190.944L191.035 173.152Z" fill="#1A120E"/>
<path d="M178.57 170.119H171.494L171.402 170.983H178.478L178.57 170.119Z" fill="#1A120E"/>
<path d="M194.689 170.119H181.633L181.541 170.983H194.597L194.689 170.119Z" fill="#1A120E"/>
<path d="M186.65 167.092H171.811L171.725 167.955H186.558L186.65 167.092Z" fill="#1A120E"/>
<path d="M195.961 167.092H188.635L188.549 167.955H195.874L195.961 167.092Z" fill="#1A120E"/>
<path d="M223.8 194.222C223.8 194.222 222.485 187.126 216.388 187.126C209.618 187.126 206.638 191.109 205.008 194.151L223.8 194.222Z" fill="#1A120E"/>
<path d="M131.395 235.785C137.753 237.914 149.326 236.806 161.328 236.806C173.33 236.806 196.721 238.361 203.67 235.242C208.626 233.022 219.966 225.519 212.055 214.775C204.144 204.032 137.845 201.924 130.891 201.654C123.938 201.38 114.346 230.076 131.39 235.79L131.395 235.785Z" fill="#1A120E"/>
<path d="M123.204 130.547C123.204 130.547 123.194 130.532 123.189 130.522C122.532 129.541 119.516 125.696 119.195 119.489C118.961 114.952 124.121 109.588 134.202 109.212C139.424 109.019 138.654 117.619 139.434 121.942C140.31 126.788 139.846 134.413 136.153 135.393C135.7 135.515 134.92 135.48 133.958 135.332L131.706 141.946C131.706 141.946 123.556 143.999 120.097 138.487L123.204 130.552V130.547Z" fill="#FFBCB0"/>
<path d="M137.131 112.875C136.647 113.144 135.139 113.86 135.139 113.86C135.139 113.86 135.032 117.807 134.558 119.311C134.084 120.815 135.215 123.852 132.373 120.134C129.53 116.416 133.183 124.899 128.527 128.409C123.871 131.924 122.679 133.235 122.679 133.235C122.679 133.235 121.854 131.264 120.417 130.878C118.98 130.492 114.61 125.996 113.978 119.799C113.346 113.601 116.006 111.275 121.441 109.746C126.876 108.217 124.727 106.053 128.114 105.138C131.507 104.224 135.546 99.7539 135.546 99.7539C135.546 99.7539 141.588 110.416 137.131 112.875Z" fill="#1A120E"/>
<path d="M135.348 140.301C145.128 143.73 147.935 151.405 153.309 173.584C158.683 195.767 161.669 198.007 163.487 204.169C163.487 204.169 148.383 216.234 137.08 236.827C137.08 236.827 100.79 240.591 103.153 209.584C105.517 178.577 101.294 171.745 102.685 160.173C104.075 148.601 112.2 138.421 118.889 137.792C124.401 137.268 127.798 137.649 135.348 140.296V140.301Z" fill="#2D2D2D"/>
<path d="M127.268 124.752C128.313 126.55 130.411 127.287 131.96 126.393C133.504 125.499 133.911 123.319 132.867 121.521C131.823 119.723 129.724 118.986 128.175 119.88C126.632 120.774 126.224 122.954 127.268 124.752Z" fill="#FFBCB0"/>
<path d="M131.592 125.341C131.669 125.32 131.745 125.29 131.817 125.249C132.306 124.949 132.423 124.152 132.438 124.06L131.868 123.984C131.842 124.182 131.72 124.634 131.516 124.756C131.475 124.782 131.419 124.802 131.312 124.766C131.119 124.7 131.103 124.624 131.063 124.319C131.017 123.964 130.951 123.476 130.36 123.034C129.942 122.724 129.524 122.628 129.193 122.557C128.689 122.445 128.572 122.415 128.602 121.901C128.612 121.729 128.684 121.592 128.816 121.475C129.259 121.089 130.258 121.068 130.604 121.094L130.645 120.52C130.584 120.52 129.152 120.418 128.439 121.043C128.19 121.261 128.052 121.541 128.032 121.866C127.971 122.872 128.556 123.004 129.071 123.116C129.366 123.182 129.703 123.258 130.018 123.497C130.416 123.796 130.457 124.086 130.497 124.396C130.538 124.721 130.594 125.122 131.129 125.31C131.292 125.366 131.45 125.376 131.603 125.346L131.592 125.341Z" fill="#1A120E"/>
<path d="M195.804 149.988C191.097 150.603 189.202 151.004 187.811 156.754C187.276 158.969 187.103 161.087 187.093 162.86C186.803 163.094 186.492 163.343 186.181 163.597C186.12 163.637 186.064 163.678 186.013 163.734C186.013 163.734 186.013 163.734 186.008 163.739C182.85 166.32 178.795 169.804 175.361 172.817C174.154 173.761 172.947 174.706 171.765 175.656C168.118 171.704 163.742 167.224 163.742 167.224C153.722 158.177 138.618 172.4 145.337 181.173C152.056 189.951 163.263 197.164 169.473 198.327C170.14 198.454 170.782 198.409 171.398 198.236C173.344 198.088 175.463 196.94 177.598 194.324C183.578 186.979 192.212 169.388 193.272 167.203C193.486 166.878 193.69 166.579 193.883 166.309C193.97 166.193 194.021 166.06 194.056 165.923C194.118 165.827 194.153 165.725 194.158 165.619C194.265 164.156 194.418 163.404 194.668 162.982C195.875 160.955 195.412 159.076 194.576 157.648C195.259 157.775 195.921 157.918 196.441 158.1C198.137 158.705 200.185 158.319 200.587 157.587C200.99 156.861 198.111 155.855 198.111 155.855C198.111 155.855 202.39 157.095 201.535 155.037C200.679 152.975 196.043 153.107 194.169 153.33C193.95 153.356 193.746 153.391 193.552 153.427C194.668 152.863 196.165 152.497 196.777 152.172C197.821 151.619 200.506 149.363 195.799 149.973L195.804 149.988Z" fill="#FFBCB0"/>
<path d="M128.67 143.801C125.557 145.838 122.659 149.363 125.384 157.968C128.109 166.573 138.741 180.167 148.847 188.909C148.847 188.909 166.977 179.913 165.541 167.224C165.541 167.224 150.014 149.947 144.054 145.381C138.099 140.809 132.103 141.561 128.67 143.806V143.801Z" fill="#2D2D2D"/>
<path d="M144.869 174.839C146.29 174.839 147.222 174.615 147.253 174.61L147.115 174.051C147.039 174.072 139.092 175.931 134.345 168.271L133.855 168.57C137.182 173.934 142.011 174.834 144.874 174.834L144.869 174.839Z" fill="white"/>
<path d="M148.958 189.407L149.131 189.325C149.203 189.295 156.085 186.008 160.939 180.227L160.496 179.857C156.151 185.033 150.145 188.177 149.055 188.721C147.456 187.263 133.075 173.908 127.217 161.417L126.697 161.661C132.917 174.929 148.658 189.137 148.816 189.28L148.958 189.407Z" fill="white"/>
<path d="M217.031 142.602H209.583C208.982 142.602 208.544 142.114 208.61 141.515L209.395 134.088C209.456 133.489 209.996 133.001 210.597 133.001H218.044C218.645 133.001 219.083 133.489 219.017 134.088L218.233 141.515C218.172 142.114 217.632 142.602 217.025 142.602H217.031Z" fill="#2D2D2D"/>
<path d="M215.477 136.435C215.386 137.39 214.576 138.167 213.669 138.167C212.762 138.167 212.1 137.4 212.197 136.445C212.289 135.49 213.099 134.713 214.005 134.708C214.912 134.708 215.574 135.475 215.477 136.43V136.435Z" fill="white"/>
<path d="M211.26 140.367C211.382 139.087 212.375 139 213.593 138.995C214.81 138.995 215.788 139.071 215.661 140.351L211.26 140.367Z" fill="white"/>
<path d="M215.416 157.943H207.968C207.367 157.943 206.929 157.455 206.99 156.856L207.775 149.429C207.836 148.829 208.376 148.342 208.982 148.342H216.429C217.03 148.342 217.469 148.829 217.407 149.429L216.623 156.856C216.562 157.455 216.022 157.943 215.416 157.943Z" fill="#2D2D2D"/>
<path d="M213.856 151.776C213.765 152.731 212.955 153.508 212.048 153.513C211.141 153.513 210.479 152.746 210.576 151.791C210.667 150.836 211.477 150.059 212.384 150.054C213.291 150.054 213.953 150.821 213.856 151.776Z" fill="white"/>
<path d="M209.639 155.712C209.761 154.432 210.754 154.341 211.972 154.341C213.189 154.341 214.162 154.417 214.04 155.697L209.639 155.712Z" fill="white"/>
<path d="M213.796 173.283H206.349C205.748 173.283 205.31 172.796 205.371 172.196L206.155 164.77C206.217 164.17 206.756 163.683 207.363 163.683H214.81C215.411 163.683 215.849 164.17 215.783 164.77L214.999 172.196C214.938 172.796 214.398 173.283 213.791 173.283H213.796Z" fill="#2D2D2D"/>
<path d="M212.243 167.117C212.151 168.072 211.341 168.849 210.435 168.849C209.528 168.849 208.866 168.082 208.963 167.127C209.054 166.172 209.864 165.395 210.771 165.39C211.678 165.39 212.34 166.157 212.243 167.112V167.117Z" fill="white"/>
<path d="M208.025 171.053C208.148 169.773 209.146 169.682 210.358 169.682C211.576 169.682 212.554 169.758 212.427 171.038L208.025 171.053Z" fill="white"/>
<g opacity="0.5">
<path d="M250.055 142.398H220.275V142.804H250.055V142.398Z" fill="#1A120E"/>
</g>
<g opacity="0.5">
<path d="M248.063 157.252H218.283V157.657H248.063V157.252Z" fill="#1A120E"/>
</g>
<g opacity="0.5">
<path d="M247.188 172.38H217.408V172.785H247.188V172.38Z" fill="#1A120E"/>
</g>
<g opacity="0.5">
<path d="M232.767 139.681L232.838 138.863H221.906L221.84 139.681H232.767Z" fill="#1A120E"/>
</g>
<g opacity="0.5">
<path d="M231.192 137.217L231.264 136.399H222.054L221.982 137.217H231.192Z" fill="#1A120E"/>
</g>
<g opacity="0.5">
<path d="M244.655 139.681L244.727 138.863H233.8L233.729 139.681H244.655Z" fill="#1A120E"/>
</g>
<g opacity="0.5">
<path d="M243.087 137.217L243.153 136.399H233.943L233.877 137.217H243.087Z" fill="#1A120E"/>
</g>
<g opacity="0.5">
<path d="M228.722 134.84L228.788 134.022H222.446L222.375 134.84H228.722Z" fill="#1A120E"/>
</g>
<g opacity="0.5">
<path d="M230.393 134.84L230.464 134.022H229.216L229.145 134.84H230.393Z" fill="#1A120E"/>
</g>
<g opacity="0.5">
<path d="M240.612 134.84L240.683 134.022H234.336L234.27 134.84H240.612Z" fill="#1A120E"/>
</g>
<g opacity="0.5">
<path d="M242.283 134.84L242.355 134.022H241.106L241.035 134.84H242.283Z" fill="#1A120E"/>
</g>
<g opacity="0.5">
<path d="M230.748 155.545L230.814 154.728H219.888L219.816 155.545H230.748Z" fill="#1A120E"/>
</g>
<g opacity="0.5">
<path d="M229.175 153.077L229.241 152.259H220.031L219.965 153.077H229.175Z" fill="#1A120E"/>
</g>
<g opacity="0.5">
<path d="M242.637 155.545L242.703 154.728H231.776L231.705 155.545H242.637Z" fill="#1A120E"/>
</g>
<g opacity="0.5">
<path d="M241.064 153.077L241.13 152.259H231.92L231.854 153.077H241.064Z" fill="#1A120E"/>
</g>
<g opacity="0.5">
<path d="M226.698 150.705L226.769 149.887H220.422L220.355 150.705H226.698Z" fill="#1A120E"/>
</g>
<g opacity="0.5">
<path d="M228.369 150.705L228.44 149.887H227.192L227.121 150.705H228.369Z" fill="#1A120E"/>
</g>
<g opacity="0.5">
<path d="M238.593 150.705L238.659 149.887H232.312L232.246 150.705H238.593Z" fill="#1A120E"/>
</g>
<g opacity="0.5">
<path d="M240.264 150.705L240.33 149.887H239.082L239.016 150.705H240.264Z" fill="#1A120E"/>
</g>
<g opacity="0.5">
<path d="M228.727 171.404L228.793 170.586H217.866L217.795 171.404H228.727Z" fill="#1A120E"/>
</g>
<g opacity="0.5">
<path d="M227.153 168.94L227.22 168.122H218.01L217.943 168.94H227.153Z" fill="#1A120E"/>
</g>
<g opacity="0.5">
<path d="M240.616 171.404L240.687 170.586H229.756L229.689 171.404H240.616Z" fill="#1A120E"/>
</g>
<g opacity="0.5">
<path d="M239.042 168.94L239.113 168.122H229.903L229.832 168.94H239.042Z" fill="#1A120E"/>
</g>
<g opacity="0.5">
<path d="M224.681 166.563L224.747 165.745H218.4L218.334 166.563H224.681Z" fill="#1A120E"/>
</g>
<g opacity="0.5">
<path d="M226.354 166.563L226.42 165.745H225.172L225.105 166.563H226.354Z" fill="#1A120E"/>
</g>
<g opacity="0.5">
<path d="M236.572 166.563L236.638 165.745H230.296L230.225 166.563H236.572Z" fill="#1A120E"/>
</g>
<g opacity="0.5">
<path d="M238.242 166.563L238.308 165.745H237.06L236.994 166.563H238.242Z" fill="#1A120E"/>
</g>
<g opacity="0.3">
<path d="M257.319 131.33L254.945 153.925H206.964C203.551 153.925 201.076 151.167 201.437 147.763L203.419 128.658L203.602 126.896L203.623 126.692L203.643 126.489H252.943C254.191 126.489 255.383 127.018 256.214 127.942C257.049 128.867 257.452 130.101 257.319 131.34V131.33Z" fill="#1A120E"/>
</g>
</g>
<path d="M201.814 146.508C200.077 146.508 198.508 145.833 197.403 144.608C196.287 143.374 195.773 141.728 195.956 139.986L200.011 100.882C200.332 97.8135 203.098 95.3193 206.175 95.3193H265.347C266.85 95.3193 268.2 95.9035 269.158 96.9601C270.121 98.0269 270.564 99.4441 270.406 100.948L266.351 140.052C265.974 143.613 262.765 146.508 259.194 146.508H201.814Z" fill="white"/>
<path d="M265.343 95.6397C268.262 95.6397 270.376 97.9967 270.07 100.907L266.02 140.012C265.659 143.415 262.602 146.173 259.189 146.173H201.81C198.397 146.173 195.921 143.415 196.278 140.012L200.327 100.907C200.633 97.9967 203.246 95.6397 206.165 95.6397H265.338H265.343ZM265.343 94.9844H206.17C202.931 94.9844 200.017 97.6106 199.675 100.841L195.621 139.946C195.427 141.784 195.967 143.517 197.149 144.822C198.32 146.117 199.976 146.834 201.81 146.834H259.189C262.923 146.834 266.28 143.806 266.672 140.083L270.727 100.979C270.895 99.3784 270.422 97.8748 269.398 96.7369C268.379 95.6092 266.937 94.9844 265.343 94.9844Z" fill="#CFE0FA"/>
<path d="M259.19 146.178H201.81C198.397 146.178 195.922 143.42 196.278 140.016L200.328 100.912C200.634 98.0016 203.247 95.6445 206.166 95.6445H265.338C268.257 95.6445 270.371 98.0016 270.066 100.912L266.016 140.016C265.654 143.42 262.598 146.178 259.185 146.178H259.19Z" fill="white"/>
<path d="M259.673 97.4375C259.408 97.4375 259.173 97.6509 259.143 97.915C259.117 98.1791 259.306 98.3925 259.571 98.3925C259.836 98.3925 260.07 98.1791 260.101 97.915C260.126 97.6509 259.938 97.4375 259.673 97.4375Z" fill="#3E36C7"/>
<path d="M261.684 97.4375C261.42 97.4375 261.185 97.6509 261.155 97.915C261.129 98.1791 261.318 98.3925 261.583 98.3925C261.847 98.3925 262.082 98.1791 262.112 97.915C262.138 97.6509 261.949 97.4375 261.684 97.4375Z" fill="#FF5225"/>
<path d="M263.696 97.4375C263.431 97.4375 263.197 97.6509 263.166 97.915C263.141 98.1791 263.329 98.3925 263.594 98.3925C263.859 98.3925 264.093 98.1791 264.124 97.915C264.15 97.6509 263.961 97.4375 263.696 97.4375Z" fill="#2D2D2D"/>
<path d="M270.038 100.907H218.41V101.563H270.038V100.907Z" fill="#CFE0FA"/>
<mask id="mask1_1984_11669" style="mask-type:luminance" maskUnits="userSpaceOnUse" x="192" y="86" width="79" height="61">
<path d="M265.343 95.6396H253.942L248.42 88.8276L241.691 86.8008C241.691 86.8008 238.033 92.8559 236.464 95.6396H206.17C203.251 95.6396 200.638 97.9966 200.332 100.907L198.244 121.074L192.6 121.653C192.6 121.653 195.096 128.77 196.924 133.829L196.283 140.012C195.926 143.415 198.402 146.173 201.815 146.173H259.194C262.607 146.173 265.664 143.415 266.025 140.012L270.075 100.907C270.381 97.9966 268.267 95.6396 265.348 95.6396H265.343Z" fill="white"/>
</mask>
<g mask="url(#mask1_1984_11669)">
<path d="M256.295 146.463C249.163 144.629 236.214 142.415 226.724 144.319C217.234 146.224 218.064 158.944 225.991 161.281C234.131 163.679 243.27 165.609 253.809 165.985C264.354 166.361 268.001 149.481 256.29 146.468L256.295 146.463Z" fill="#1A120E"/>
<path d="M233.325 147.916C234.069 150.456 233.998 153.3 235.037 155.739C236.117 158.273 239.219 159.411 241.542 157.821C244.247 155.972 244.695 153.402 245.429 150.385C245.841 148.688 246.254 146.951 246.483 145.203C242.54 145.462 237.681 146.031 232.877 147.072C233.071 147.286 233.223 147.565 233.325 147.916Z" fill="#1A120E"/>
<path d="M235.673 130.944C228.608 132.386 221.501 137.248 218.017 137.776L218.032 137.725C218.032 137.725 216.825 138.116 213.081 135.983C209.342 133.849 207.681 135.378 207.681 135.378C207.681 135.378 206.056 136.953 205.812 137.888C205.639 138.553 207.544 141.189 208.568 141.723C209.301 142.109 210.325 142.084 210.274 141.261C210.223 140.458 210.829 140.367 211.084 140.306C211.385 140.234 211.772 140.458 212.032 140.646C212.032 140.656 212.042 140.671 212.047 140.682C212.088 140.808 212.139 140.925 212.2 141.027C212.169 141.083 212.128 141.134 212.088 141.184C211.436 141.931 210.402 143.023 210.463 143.719C210.524 144.415 211.008 143.927 211.38 143.684C211.751 143.445 212.679 142.937 213.188 142.708C213.662 142.495 215.501 142.485 216.188 141.88C216.428 141.84 216.616 141.794 216.733 141.769C220.518 141.677 232.174 146.777 238.256 143.16C242.993 140.341 239.565 130.141 235.673 130.933V130.944Z" fill="#FFBCB0"/>
<path d="M208.008 141.174L209.984 138.568C209.984 138.568 208.431 140.016 208.008 141.174Z" fill="#1A120E"/>
<path d="M206.189 139.29L207.886 136.496C207.886 136.496 206.49 138.096 206.189 139.29Z" fill="#1A120E"/>
<path d="M207.029 140.442L208.98 137.12C208.98 137.12 207.33 139.223 207.029 140.442Z" fill="#1A120E"/>
<path d="M245.037 110.101C250.213 113.982 249.637 126.037 242.011 142.119C242.011 142.119 236.622 139.315 229.943 132.269C229.943 132.269 231.736 125.148 235.043 116.929C238.349 108.704 242.877 108.481 245.032 110.101H245.037Z" fill="#2D2D2D"/>
<path d="M229.448 130.273C229.301 131.305 229.117 132.427 229.117 132.427C229.117 132.427 229.576 133.255 230.263 134.007C235.999 140.22 244.537 144.731 244.537 144.731L245.673 141.261C240.823 138.437 232.27 133.306 229.448 130.279V130.273Z" fill="#1A120E"/>
<path d="M244.359 144.832C243.437 144.395 235.251 139.656 230.142 134.124C229.444 133.367 228.99 132.549 228.97 132.513L228.939 132.463L228.95 132.407C228.95 132.407 229.138 131.269 229.281 130.253L229.332 129.902L229.571 130.161C230.035 130.659 230.6 131.182 231.303 131.762L231.089 132.021C230.493 131.528 229.989 131.076 229.566 130.639C229.454 131.421 229.327 132.183 229.291 132.397C229.398 132.584 229.811 133.27 230.386 133.89C235.46 139.386 243.59 144.09 244.502 144.522L244.354 144.827L244.359 144.832Z" fill="white"/>
<path d="M266.891 160.457C263.86 164.501 253.091 169.718 243.091 170.119C243.091 170.119 223.138 154.799 232.404 150.765C240.004 147.453 251.909 141.54 256.371 139.808C260.834 138.076 273.492 151.649 266.896 160.463L266.891 160.457Z" fill="#1A120E"/>
<path d="M251.547 106.902C261.231 109.045 271.47 135.623 268.256 153.529C268.256 153.529 251.69 155.916 236.535 143.72C236.535 143.72 236.606 139.387 240.086 135.181C240.086 135.181 239.362 119.936 242.454 113.429C245.547 106.922 248.99 106.338 251.542 106.907L251.547 106.902Z" fill="white"/>
<path d="M241.767 153.209C242.266 152.564 246.774 151.248 246.29 147.154C246.112 145.675 245.623 136.034 245.526 133.281C245.424 130.533 244.345 112.545 245.287 108.537C243.611 108.806 241.451 109.69 240.086 112.57C236.994 119.078 240.529 128.851 238.756 134.551C237.136 139.763 231.467 146.376 231.467 146.376C235.843 144.842 237.997 151.715 241.767 153.209Z" fill="#2D2D2D"/>
<path d="M245.526 147.991L245.195 147.93C245.536 146.005 245.195 144.623 243.717 139.996C242.189 135.221 240.921 120.276 240.906 120.129L240.875 119.758L241.176 119.981C241.726 120.393 242.444 120.926 242.969 121.312C242.648 120.759 242.276 120.078 242.169 119.88L242.143 119.834V119.783C242.582 116.06 244.848 109.497 244.874 109.431L245.195 109.542C245.174 109.608 242.933 116.075 242.495 119.768C243.004 120.708 243.585 121.724 243.697 121.83L243.809 121.937L243.723 122.069C243.677 122.125 243.651 122.156 243.483 122.069L243.473 122.079C243.473 122.079 243.453 122.059 243.442 122.044C243.172 121.886 242.597 121.46 241.288 120.479C241.496 122.831 242.668 135.586 244.049 139.899C245.551 144.588 245.893 146 245.536 147.996L245.526 147.991Z" fill="white"/>
<path d="M251.547 106.896C251.547 106.896 248.582 112.327 249.138 117.02C249.785 122.486 248.037 129.055 251.736 141.515C255.256 153.366 250.141 157.771 250.06 157.923C258.944 160.437 269.672 162.419 269.672 162.419C272.26 142.714 269.269 109.828 251.547 106.896Z" fill="#2D2D2D"/>
<path d="M253.192 153.828L252.861 153.772C253.08 152.492 253.355 151.634 253.595 150.872C254.17 149.048 254.629 147.605 254.165 141.682C253.554 133.819 251.593 119.814 251.323 117.904L250.156 118.397L251.012 116.583C251.817 111.778 251.481 107.277 251.476 107.236L251.812 107.211C251.812 107.257 252.158 111.813 251.338 116.664L251.323 116.71L250.834 117.751L251.593 117.431L251.623 117.65C251.644 117.807 253.844 133.25 254.501 141.667C254.965 147.656 254.501 149.124 253.911 150.983C253.661 151.771 253.406 152.584 253.187 153.838L253.192 153.828Z" fill="white"/>
<path d="M260.09 114.974L260.706 134.668C260.706 134.668 270.466 128.745 260.09 114.974Z" fill="#1A120E"/>
<path d="M238.499 93.9378C237.562 96.0053 238.453 100.973 241.775 104.006C245.101 107.044 243.843 109.553 243.843 109.553C243.843 109.553 251.199 106.759 252.579 104.915C252.579 104.915 251.637 103.828 251.285 102.01C251.285 102.01 252.1 103.371 253.379 104.077C253.379 104.077 255.447 104.392 256.756 101.913C256.756 101.913 253.043 100.313 251.066 95.1925C249.09 90.0721 245.203 89.7825 243.328 90.1991C241.454 90.6105 239.36 92.043 238.499 93.9378Z" fill="#1A120E"/>
<path d="M242.203 103.066L245.229 109.741C245.229 109.741 249.758 110.686 251.546 106.906L248.723 100.104L242.203 103.071V103.066Z" fill="#FFBCB0"/>
<path d="M243.707 106.373L244.695 108.532C249.198 108.014 247.649 102.593 247.629 102.604C243.182 104.722 243.707 106.368 243.707 106.368V106.373Z" fill="#1A120E"/>
<path d="M243.534 106.738C245.373 106.317 248.169 103.066 248.541 101.222C248.674 100.567 248.215 98.9969 247.798 98.2857C246.499 96.0506 245.398 94.0035 243.376 93.7596C242.525 93.658 241.746 93.8307 241.048 94.1406C238.766 95.1718 237.472 97.1783 238.007 99.6166C238.603 102.355 240.294 107.48 243.534 106.738Z" fill="#FFBCB0"/>
<path d="M240.873 102.558C240.685 102.528 239.753 102.365 239.564 101.959C239.523 101.867 239.498 101.73 239.6 101.563C240.17 100.643 239.905 99.5206 239.844 99.292C239.717 99.1802 239.172 98.7942 238.443 99.1396L238.301 98.8348C239.141 98.4436 239.854 98.8246 240.114 99.0837L240.145 99.1142L240.155 99.1548C240.175 99.2107 240.613 100.592 239.89 101.746C239.86 101.791 239.87 101.812 239.875 101.822C239.956 102.005 240.552 102.172 240.929 102.233L240.878 102.563L240.873 102.558Z" fill="#1A120E"/>
<path d="M247.455 97.7828C247.455 97.7828 244.72 95.5375 242.382 95.4308C242.382 95.4308 238.271 96.6703 237.904 98.8698C237.904 98.8698 236.386 94.4301 241.047 92.8351C245.581 91.2857 247.527 95.8067 247.455 97.7828Z" fill="#1A120E"/>
<path d="M242.657 95.5733L242.326 95.5073C242.591 94.1662 243.432 93.6074 243.467 93.582L243.651 93.8614C243.651 93.8614 242.887 94.3745 242.657 95.5682V95.5733Z" fill="#2D2D2D"/>
<path d="M246.544 99.2767C246.651 100.242 247.527 100.938 248.495 100.826C249.463 100.719 250.156 99.8457 250.049 98.8805C249.942 97.9154 249.066 97.2245 248.098 97.3312C247.13 97.4379 246.437 98.3116 246.544 99.2767Z" fill="#FFBCB0"/>
<path d="M248.677 100.359C248.642 100.374 248.606 100.379 248.565 100.384C248.433 100.405 248.311 100.369 248.204 100.283C247.954 100.085 248.036 99.8662 248.087 99.7239C248.137 99.5817 248.173 99.475 248.061 99.2921C247.959 99.1398 247.822 99.0534 247.689 98.967C247.48 98.835 247.164 98.6419 247.45 98.1797C247.842 97.5396 248.998 98.0374 249.049 98.0628L248.912 98.3727C248.667 98.266 247.934 98.0374 247.74 98.3575C247.633 98.5353 247.643 98.5454 247.873 98.6877C248.02 98.7842 248.209 98.8959 248.351 99.1144C248.56 99.4344 248.474 99.6782 248.413 99.8408C248.362 99.9779 248.367 99.983 248.423 100.024C248.458 100.049 248.489 100.059 248.525 100.054C248.647 100.039 248.805 99.8814 248.871 99.7849L249.146 99.983C249.121 100.013 248.932 100.267 248.683 100.359H248.677Z" fill="#1A120E"/>
<path d="M243.41 98.5702C241.907 98.0012 241.571 98.6311 241.571 98.6362L241.266 98.494C241.286 98.4533 241.714 97.5644 243.532 98.2552L243.41 98.5702Z" fill="#1A120E"/>
<path d="M240.961 103.843C241.139 104.575 241.832 105.078 242.601 104.991C243.432 104.895 244.033 104.148 243.936 103.32C243.915 103.142 243.859 102.975 243.783 102.822C242.866 103.239 241.919 103.61 240.961 103.843Z" fill="#1A120E"/>
<path d="M241.919 104.869C241.919 104.869 241.929 104.905 241.934 104.92C242.143 104.991 242.367 105.021 242.602 104.996C243.432 104.899 244.033 104.153 243.936 103.325C243.906 103.05 241.624 103.741 241.919 104.874V104.869Z" fill="#FF5225"/>
<path d="M242.989 99.1803C243.014 99.3988 242.856 99.5969 242.637 99.6223C242.418 99.6477 242.22 99.4902 242.194 99.2718C242.169 99.0533 242.327 98.8552 242.546 98.8298C242.765 98.8044 242.963 98.9619 242.989 99.1803Z" fill="#1A120E"/>
<path d="M239.448 99.9977C239.473 100.216 239.315 100.414 239.096 100.44C238.877 100.465 238.679 100.308 238.653 100.089C238.628 99.8707 238.786 99.6726 239.005 99.6472C239.224 99.6218 239.422 99.7793 239.448 99.9977Z" fill="#1A120E"/>
<path d="M247.353 102.258C246.782 101.537 246.742 100.78 246.706 100.049C246.675 99.4187 246.645 98.8244 246.293 98.2555C245.937 97.6814 245.432 97.3259 244.943 96.9804C244.368 96.5741 243.777 96.1575 243.461 95.3955L243.772 95.2686C244.047 95.9391 244.571 96.3099 245.132 96.7061C245.646 97.0719 246.181 97.4478 246.573 98.0777C246.971 98.7228 247.006 99.3883 247.037 100.033C247.073 100.745 247.108 101.415 247.613 102.05L247.348 102.258H247.353Z" fill="#1A120E"/>
<path d="M257.771 131.869C253.971 130.329 238.24 128.282 236.733 128.084C235.816 127.663 234.216 126.799 232.107 125.184C229.952 123.533 228.277 123.477 227.329 123.66C227.202 123.675 221.522 124.472 220.213 125.626C219.922 125.88 220.111 126.515 220.518 126.403C222.113 125.971 226.565 125.422 226.565 125.422C226.565 125.422 223.702 128.364 223.977 128.8C224.135 129.049 225.266 129.888 226.203 130.558C226.876 131.036 227.619 130.685 228.241 130.141C228.995 129.486 229.611 129.059 229.871 129.034C230.182 129.004 230.533 129.278 230.762 129.501C230.762 129.512 230.768 129.527 230.773 129.542C231.094 131.442 233.656 131.544 234.466 131.528C237.981 132.544 244.068 142.399 250.155 144.472C254.271 145.874 263.874 134.348 257.771 131.879V131.869Z" fill="#FFBCB0"/>
<path d="M226.025 130.354L228.985 127.611C228.985 127.611 226.82 129.12 226.025 130.354Z" fill="#D17F80"/>
<path d="M224.895 129.608L228.017 126.093C228.017 126.093 225.567 128.302 224.895 129.608Z" fill="#D17F80"/>
<path d="M259.682 146.422C258.602 146.549 257.588 146.569 256.809 146.392L256.885 146.062C259.88 146.742 266.757 144.324 266.829 144.299L266.941 144.614C266.727 144.69 262.891 146.036 259.682 146.417V146.422Z" fill="#1A120E"/>
<path d="M256.167 109.37C262.096 111.961 263.813 123.949 260.115 141.353C260.115 141.353 253.997 138.406 246.605 128.684C246.605 128.684 247.614 127.139 248.933 118.377C250.253 109.614 253.691 108.288 256.167 109.37Z" fill="#2D2D2D"/>
<path d="M260.323 141.195L259.991 141.129C263.084 126.383 263.038 117.976 259.844 113.018L260.129 112.835C263.379 117.874 263.435 126.357 260.323 141.2V141.195Z" fill="white"/>
<path d="M246.686 126.093C246.431 127.104 246.131 128.201 246.131 128.201C246.131 128.201 246.498 129.07 247.109 129.887C252.167 136.659 260.19 142.028 260.19 142.028L261.678 138.696C257.149 135.389 249.172 129.4 246.681 126.093H246.686Z" fill="#1A120E"/>
<path d="M260.003 142.115C259.131 141.581 251.48 136.029 246.972 129.994C246.356 129.171 245.989 128.308 245.974 128.272L245.953 128.216L245.968 128.16C245.968 128.16 246.274 127.048 246.524 126.052L246.61 125.712L246.824 125.996C247.237 126.54 247.746 127.119 248.383 127.769L248.144 128.003C247.604 127.454 247.15 126.951 246.773 126.474C246.58 127.236 246.376 127.988 246.32 128.196C246.406 128.394 246.748 129.12 247.257 129.796C251.735 135.79 259.33 141.302 260.191 141.83L260.013 142.12L260.003 142.115Z" fill="white"/>
<path d="M214.381 189.905C214.381 189.905 219.103 161.377 219.954 151.345C220.804 141.312 237.584 146.742 239.163 154.834C240.783 163.145 232.159 192.303 232.159 192.303L214.381 189.9V189.905Z" fill="#1A120E"/>
<path d="M218.834 188.067L218.508 187.985C219.725 183.094 220.306 175.713 220.866 168.57C221.564 159.66 222.226 151.248 224.086 149.105C227.356 145.336 228.884 144.909 228.951 144.894L229.037 145.219C229.037 145.219 227.519 145.666 224.346 149.323C222.558 151.38 221.906 159.742 221.208 168.596C220.647 175.748 220.067 183.144 218.839 188.062L218.834 188.067Z" fill="#2B173F"/>
<path d="M224.014 146.036C224.014 146.123 224.085 146.194 224.172 146.194L251.425 146.229C251.598 146.229 251.741 146.087 251.741 145.915V145.158L224.014 145.122V146.036Z" fill="#1A120E"/>
<path d="M248.186 144.827V145.146H249.159V144.721H248.293C248.236 144.721 248.186 144.766 248.186 144.827Z" fill="#1A120E"/>
<path d="M247.055 144.827V145.146H248.028V144.721H247.162C247.101 144.721 247.055 144.766 247.055 144.827Z" fill="#1A120E"/>
<path d="M245.924 144.827V145.146H246.897V144.721H246.031C245.97 144.721 245.924 144.766 245.924 144.827Z" fill="#1A120E"/>
<path d="M241.223 144.822V145.141H242.196V144.721H241.33C241.274 144.721 241.223 144.766 241.223 144.827V144.822Z" fill="#1A120E"/>
<path d="M240.092 144.817V145.137H241.065V144.711H240.199C240.143 144.711 240.092 144.757 240.092 144.817Z" fill="#1A120E"/>
<path d="M226.842 144.802V145.121H227.815V144.695H226.949C226.893 144.695 226.842 144.741 226.842 144.802Z" fill="#1A120E"/>
<path d="M225.717 144.802V145.121H226.69V144.695H225.824C225.763 144.695 225.717 144.741 225.717 144.802Z" fill="#1A120E"/>
<path d="M242.385 144.822V145.142H245.732V144.716H242.492C242.431 144.716 242.385 144.761 242.385 144.822Z" fill="#1A120E"/>
<path d="M222.049 144.797V145.116H225.396V144.69H222.156C222.095 144.69 222.049 144.736 222.049 144.797Z" fill="#1A120E"/>
<path d="M228.08 144.802V145.121L239.694 145.136V144.711L228.187 144.695C228.126 144.695 228.08 144.741 228.08 144.802Z" fill="#1A120E"/>
<path d="M222.313 144.69H219.954C219.822 144.69 219.715 144.797 219.715 144.929V145.116H222.42V144.802C222.42 144.746 222.374 144.695 222.313 144.695V144.69Z" fill="url(#paint0_linear_1984_11669)"/>
<path d="M219.059 144.686H216.7C216.568 144.686 216.461 144.792 216.461 144.924V145.106H219.166V144.787C219.166 144.731 219.12 144.681 219.059 144.681V144.686Z" fill="url(#paint1_linear_1984_11669)"/>
<path d="M215.797 144.686H213.439C213.306 144.686 213.199 144.792 213.199 144.924V145.106H215.904V144.792C215.904 144.731 215.858 144.686 215.797 144.686Z" fill="url(#paint2_linear_1984_11669)"/>
<path d="M212.543 144.681H210.185C210.052 144.681 209.945 144.787 209.945 144.919V145.106H212.65V144.787C212.65 144.726 212.604 144.681 212.543 144.681Z" fill="url(#paint3_linear_1984_11669)"/>
<path d="M208.703 144.675H207.47C207.337 144.675 207.23 144.781 207.23 144.913V145.101H208.81V144.786C208.81 144.725 208.764 144.68 208.703 144.68V144.675Z" fill="url(#paint4_linear_1984_11669)"/>
<path d="M206.781 144.67H205.548C205.416 144.67 205.309 144.777 205.309 144.908V145.091H206.888V144.771C206.888 144.716 206.842 144.665 206.781 144.665V144.67Z" fill="url(#paint5_linear_1984_11669)"/>
<path d="M204.978 144.67H203.745C203.613 144.67 203.506 144.777 203.506 144.908V145.091H205.085V144.771C205.085 144.716 205.039 144.665 204.978 144.665V144.67Z" fill="url(#paint6_linear_1984_11669)"/>
<path d="M226.296 124.823C226.072 123.964 225.252 123.294 224.365 123.304L230.621 146.071C230.621 146.071 231.68 145.716 231.405 144.558C231.171 143.587 227.503 129.461 226.296 124.823Z" fill="#1A120E"/>
<path d="M224.427 123.101L195.396 123.065C194.989 123.065 194.693 123.446 194.79 123.838L200.108 144.893L230.647 144.934L225.278 123.766C225.181 123.375 224.83 123.101 224.422 123.101H224.427Z" fill="#959595"/>
<path d="M230.835 145.076L199.991 145.036L199.965 144.924L194.647 123.868C194.591 123.639 194.642 123.396 194.785 123.208C194.933 123.02 195.152 122.913 195.391 122.913L224.422 122.949C224.896 122.949 225.303 123.269 225.42 123.726L230.835 145.076ZM200.22 144.741L230.453 144.776L225.13 123.797C225.049 123.472 224.758 123.243 224.422 123.243L195.391 123.208C195.243 123.208 195.106 123.274 195.014 123.391C194.922 123.507 194.892 123.655 194.927 123.797L200.215 144.741H200.22Z" fill="#1A120E"/>
<path d="M199.971 146.005C199.971 146.092 200.042 146.163 200.129 146.163L230.082 146.198C230.255 146.198 230.397 146.056 230.397 145.884V144.923L199.971 144.883V146V146.005Z" fill="#131313"/>
<path d="M230.051 144.946L230.051 145.306L251.395 145.332L251.395 144.972L230.051 144.946Z" fill="#131313"/>
<path d="M199.967 144.908L199.967 145.268L224.872 145.298L224.872 144.938L199.967 144.908Z" fill="#1A120E"/>
</g>
<path d="M192.069 83.1787H214.788C218.762 83.1787 221.986 86.3942 221.986 90.3564C221.986 94.3187 218.762 97.5342 214.788 97.5342H192.069C188.096 97.5342 184.871 94.3187 184.871 90.3564C184.871 86.3942 188.096 83.1787 192.069 83.1787Z" fill="#FF5225"/>
<path d="M202.232 96.8838L214.484 104.884L213.495 96.8838H202.232Z" fill="#FF5225"/>
<path d="M198.294 90.0316C198.294 89.0512 197.499 88.2588 196.516 88.2588C195.533 88.2588 194.738 89.0512 194.738 90.0316C194.738 91.012 195.533 91.8045 196.516 91.8045C197.499 91.8045 198.294 91.012 198.294 90.0316Z" fill="white"/>
<path d="M205.206 90.0316C205.206 89.0512 204.411 88.2588 203.428 88.2588C202.445 88.2588 201.65 89.0512 201.65 90.0316C201.65 91.012 202.445 91.8045 203.428 91.8045C204.411 91.8045 205.206 91.012 205.206 90.0316Z" fill="white"/>
<path d="M212.12 90.0316C212.12 89.0512 211.325 88.2588 210.342 88.2588C209.359 88.2588 208.564 89.0512 208.564 90.0316C208.564 91.012 209.359 91.8045 210.342 91.8045C211.325 91.8045 212.12 91.012 212.12 90.0316Z" fill="white"/>
<path fill-rule="evenodd" clip-rule="evenodd" d="M134.436 67.6494L132.592 57.627L142.22 61.0507L134.436 67.6494Z" fill="#2D2D2D"/>
<path d="M134.665 65.7137L132.76 55.3408L142.719 58.8814L134.665 65.7137ZM133.025 55.6558L134.802 65.3277L142.316 58.9576L133.03 55.6558H133.025Z" fill="#1A120E"/>
<path d="M108.747 97.1176L108.772 97.1735L113.214 94.8927L109.098 92.2461L108.945 92.4493C108.089 93.8107 107.957 95.5784 108.747 97.1176Z" fill="#FF5225"/>
<path d="M115.822 80.2928C115.603 80.5925 115.185 80.6535 114.885 80.4351C114.584 80.2166 114.523 79.8001 114.742 79.5004C114.961 79.2007 115.379 79.1397 115.68 79.3582C115.98 79.5766 116.041 79.9931 115.822 80.2928Z" fill="#390D9F"/>
<path d="M140.869 86.2411C140.65 86.5408 140.232 86.6017 139.932 86.3833C139.631 86.1649 139.57 85.7483 139.789 85.4486C140.008 85.1489 140.426 85.088 140.726 85.3064C141.022 85.5248 141.088 85.9414 140.869 86.2411Z" fill="#2D2D2D"/>
<path d="M168.34 68.3046C167.902 68.899 167.067 69.026 166.471 68.5942C165.875 68.1573 165.747 67.3242 166.18 66.7299C166.618 66.1356 167.454 66.0086 168.05 66.4403C168.646 66.8772 168.773 67.7103 168.34 68.3046Z" fill="#FF5225"/>
<path d="M233.441 63.1687L243.486 64.1279L244.448 54.1107L234.403 53.1514L233.441 63.1687Z" fill="#8A8A8A"/>
<path d="M241.476 62.7124L231.252 61.7371L232.23 51.542L242.454 52.5173L241.476 62.7124ZM231.446 61.5746L241.318 62.5194L242.265 52.6748L232.393 51.7299L231.446 61.5746Z" fill="#1A120E"/>
<path d="M191.887 50.3579C191.769 50.7491 191.994 51.1605 192.386 51.2825C192.778 51.4044 193.191 51.1758 193.313 50.7846C193.43 50.3935 193.206 49.977 192.814 49.8601C192.421 49.7433 192.009 49.9668 191.887 50.3579Z" fill="#390D9F"/>
<path d="M198.417 75.0912C198.325 75.396 198.499 75.716 198.804 75.8074C199.11 75.8989 199.431 75.7262 199.523 75.4214C199.614 75.1166 199.441 74.7966 199.135 74.7051C198.83 74.6137 198.509 74.7864 198.417 75.0912Z" fill="#390D9F"/>
<path d="M230.8 75.6654C230.708 75.9702 230.881 76.2902 231.187 76.3817C231.493 76.4731 231.814 76.3004 231.905 75.9956C231.997 75.6908 231.824 75.3708 231.518 75.2794C231.213 75.1879 230.892 75.3606 230.8 75.6654Z" fill="#2D2D2D"/>
<path d="M251.344 82.8484C251.161 83.458 251.507 84.098 252.118 84.2809C252.73 84.4638 253.371 84.1184 253.555 83.5088C253.738 82.8992 253.392 82.2592 252.781 82.0763C252.169 81.8934 251.527 82.2388 251.344 82.8484Z" fill="#FF5225"/>
<path d="M211.283 63.1287C211.1 63.7383 211.446 64.3783 212.058 64.5612C212.669 64.7441 213.311 64.3986 213.494 63.7891C213.678 63.1795 213.331 62.5394 212.72 62.3566C212.109 62.1737 211.467 62.5191 211.283 63.1287Z" fill="#FF5225"/>
<path d="M267.609 213.236H100.871V214.171H267.609V213.236Z" fill="#1A120E"/>
<defs>
<linearGradient id="paint0_linear_1984_11669" x1="219.717" y1="144.894" x2="222.422" y2="144.897" gradientUnits="userSpaceOnUse">
<stop stop-color="#99CEFF"/>
<stop offset="1" stop-color="#D5E9FF"/>
</linearGradient>
<linearGradient id="paint1_linear_1984_11669" x1="216.458" y1="144.89" x2="219.163" y2="144.893" gradientUnits="userSpaceOnUse">
<stop stop-color="#99CEFF"/>
<stop offset="1" stop-color="#D5E9FF"/>
</linearGradient>
<linearGradient id="paint2_linear_1984_11669" x1="213.201" y1="144.886" x2="215.906" y2="144.889" gradientUnits="userSpaceOnUse">
<stop stop-color="#99CEFF"/>
<stop offset="1" stop-color="#D5E9FF"/>
</linearGradient>
<linearGradient id="paint3_linear_1984_11669" x1="209.942" y1="144.882" x2="212.647" y2="144.885" gradientUnits="userSpaceOnUse">
<stop stop-color="#99CEFF"/>
<stop offset="1" stop-color="#D5E9FF"/>
</linearGradient>
<linearGradient id="paint4_linear_1984_11669" x1="207.232" y1="144.878" x2="208.812" y2="144.88" gradientUnits="userSpaceOnUse">
<stop stop-color="#99CEFF"/>
<stop offset="1" stop-color="#D5E9FF"/>
</linearGradient>
<linearGradient id="paint5_linear_1984_11669" x1="205.305" y1="144.876" x2="206.89" y2="144.878" gradientUnits="userSpaceOnUse">
<stop stop-color="#99CEFF"/>
<stop offset="1" stop-color="#D5E9FF"/>
</linearGradient>
<linearGradient id="paint6_linear_1984_11669" x1="203.498" y1="144.874" x2="205.082" y2="144.876" gradientUnits="userSpaceOnUse">
<stop stop-color="#99CEFF"/>
<stop offset="1" stop-color="#D5E9FF"/>
</linearGradient>
</defs>
</svg>
