<svg width="222" height="222" viewBox="0 0 222 222" fill="none" xmlns="http://www.w3.org/2000/svg">
<path d="M130.297 146.714C130.297 173.117 108.895 194.518 82.4921 194.518C56.0895 194.518 34.6875 173.117 34.6875 146.714C34.6875 120.311 56.0895 98.9092 82.4921 98.9092C108.895 98.9092 130.297 120.311 130.297 146.714Z" fill="#E8505B"/>
<path d="M122.13 146.711C122.13 168.607 104.382 186.354 82.4857 186.354C60.589 186.354 42.8418 168.607 42.8418 146.711C42.8418 124.814 60.589 107.067 82.4857 107.067C104.382 107.067 122.13 124.814 122.13 146.711Z" fill="white"/>
<path d="M99.4614 146.711C99.4614 156.085 91.8592 163.687 82.4856 163.687C73.1119 163.687 65.5098 156.085 65.5098 146.711C65.5098 137.337 73.1119 129.735 82.4856 129.735C91.8592 129.735 99.4614 137.337 99.4614 146.711Z" fill="#E6F3F4"/>
<path d="M129.429 131.78C129.189 131.02 128.376 130.599 127.615 130.844C126.854 131.084 126.434 131.897 126.678 132.658C128.12 137.185 128.849 141.92 128.849 146.719C128.849 172.286 108.048 193.082 82.486 193.082C56.9239 193.082 36.1231 172.281 36.1231 146.719C36.1231 121.157 56.9239 100.356 82.486 100.356C94.1153 100.356 105.234 104.681 113.799 112.528C114.389 113.065 115.299 113.028 115.837 112.437C116.374 111.852 116.337 110.937 115.746 110.4C106.644 102.058 94.8335 97.467 82.4807 97.467C69.3246 97.467 56.9558 102.59 47.6566 111.889C38.3521 121.194 33.2344 133.557 33.2344 146.713C33.2344 159.869 38.3574 172.238 47.6566 181.537C56.9611 190.842 69.3246 195.96 82.4807 195.96C95.6368 195.96 108.006 190.837 117.305 181.537C126.609 172.233 131.727 159.869 131.727 146.713C131.727 141.617 130.95 136.595 129.424 131.78H129.429Z" fill="#292E56"/>
<path d="M124.481 127.036C124.726 127.557 125.247 127.866 125.79 127.866C125.997 127.866 126.205 127.823 126.402 127.728C127.125 127.387 127.434 126.531 127.093 125.807C125.322 122.03 123.066 118.482 120.39 115.258C119.88 114.646 118.97 114.561 118.358 115.072C117.746 115.582 117.661 116.492 118.172 117.104C120.693 120.136 122.816 123.477 124.481 127.031V127.036Z" fill="#292E56"/>
<path d="M82.4866 121.88C83.2846 121.88 83.9283 121.236 83.9283 120.438V112.847C83.9283 112.049 83.2846 111.405 82.4866 111.405C81.6886 111.405 81.0449 112.049 81.0449 112.847V120.438C81.0449 121.236 81.6886 121.88 82.4866 121.88Z" fill="#95999E"/>
<path d="M81.0449 172.988V180.579C81.0449 181.377 81.6886 182.021 82.4866 182.021C83.2846 182.021 83.9283 181.377 83.9283 180.579V172.988C83.9283 172.19 83.2846 171.546 82.4866 171.546C81.6886 171.546 81.0449 172.19 81.0449 172.988Z" fill="#95999E"/>
<path d="M117.793 146.714C117.793 145.916 117.15 145.273 116.352 145.273H108.76C107.962 145.273 107.318 145.916 107.318 146.714C107.318 147.512 107.962 148.156 108.76 148.156H116.352C117.15 148.156 117.793 147.512 117.793 146.714Z" fill="#95999E"/>
<path d="M47.1777 146.714C47.1777 147.512 47.8214 148.156 48.6194 148.156H56.2109C57.0089 148.156 57.6526 147.512 57.6526 146.714C57.6526 145.916 57.0089 145.273 56.2109 145.273H48.6194C47.8214 145.273 47.1777 145.916 47.1777 146.714Z" fill="#95999E"/>
<path d="M110.81 128.099L107.576 130.03C106.889 130.44 106.671 131.323 107.076 132.009C107.347 132.461 107.826 132.711 108.315 132.711C108.565 132.711 108.821 132.647 109.055 132.509L112.289 130.578C112.975 130.168 113.194 129.285 112.789 128.599C112.38 127.913 111.496 127.695 110.81 128.099Z" fill="#95999E"/>
<path d="M55.9137 160.916L52.6792 162.847C51.993 163.257 51.7749 164.14 52.1792 164.826C52.4505 165.278 52.9293 165.528 53.4187 165.528C53.6687 165.528 53.9241 165.465 54.1582 165.326L57.3927 163.395C58.0789 162.985 58.2971 162.102 57.8927 161.416C57.4831 160.73 56.6 160.512 55.9137 160.916Z" fill="#95999E"/>
<path d="M97.191 171.31C96.5047 171.719 96.2866 172.602 96.6909 173.289L98.622 176.523C98.8933 176.975 99.3721 177.225 99.8615 177.225C100.112 177.225 100.367 177.161 100.601 177.023C101.287 176.613 101.505 175.73 101.101 175.044L99.17 171.81C98.7603 171.123 97.8772 170.905 97.191 171.31Z" fill="#95999E"/>
<path d="M66.3457 116.906C65.9361 116.22 65.053 116.001 64.3667 116.406C63.6805 116.815 63.4624 117.698 63.8667 118.385L65.7978 121.619C66.0691 122.071 66.5479 122.321 67.0373 122.321C67.2874 122.321 67.5427 122.258 67.7768 122.119C68.4631 121.71 68.6812 120.827 68.2769 120.14L66.3457 116.906Z" fill="#95999E"/>
<path d="M99.9135 116.007C99.2219 115.613 98.3388 115.858 97.9452 116.55L96.0885 119.827C95.6948 120.518 95.9396 121.401 96.6311 121.795C96.8546 121.923 97.0993 121.981 97.344 121.981C97.8494 121.981 98.3335 121.721 98.5995 121.252L100.456 117.975C100.85 117.284 100.605 116.401 99.9135 116.007Z" fill="#95999E"/>
<path d="M66.3787 172.178L64.5221 175.455C64.1284 176.147 64.3731 177.03 65.0647 177.423C65.2882 177.551 65.5329 177.61 65.7776 177.61C66.2777 177.61 66.7671 177.349 67.0331 176.881L68.8897 173.604C69.2834 172.912 69.0387 172.029 68.3471 171.635C67.6555 171.242 66.7724 171.486 66.3787 172.178Z" fill="#95999E"/>
<path d="M109.379 160.312C108.688 159.918 107.804 160.163 107.411 160.855C107.017 161.546 107.262 162.429 107.953 162.823L111.23 164.68C111.454 164.807 111.699 164.866 111.943 164.866C112.449 164.866 112.933 164.605 113.199 164.137C113.593 163.446 113.348 162.562 112.656 162.169L109.379 160.312Z" fill="#95999E"/>
<path d="M57.0214 130.603L53.7444 128.747C53.0528 128.353 52.1697 128.598 51.776 129.289C51.3823 129.981 51.6271 130.864 52.3186 131.258L55.5957 133.114C55.8191 133.242 56.0639 133.301 56.3086 133.301C56.8086 133.301 57.2981 133.04 57.5641 132.572C57.9577 131.88 57.713 130.997 57.0214 130.603Z" fill="#95999E"/>
<path d="M75.7133 145.33L47.7413 152.948C46.5071 153.284 45.6878 154.528 45.991 155.773C46.2996 157.061 47.6083 157.827 48.8797 157.481L76.9476 149.836C78.1924 149.496 78.9266 148.214 78.5861 146.969C78.2456 145.724 76.9635 144.99 75.7187 145.33H75.7133Z" fill="#53575B"/>
<path d="M72.7875 122.725L78.4053 143.355C78.7458 144.6 80.0279 145.334 81.2727 144.994C82.5176 144.653 83.2517 143.371 82.9113 142.126L77.2669 121.4C76.9211 120.134 75.5964 119.394 74.3303 119.777C73.1067 120.15 72.447 121.485 72.7822 122.719L72.7875 122.725Z" fill="#53575B"/>
<path d="M48.7687 155.094L50.0987 159.967C50.4072 161.095 49.3805 162.127 48.2474 161.829L43.3637 160.542L38.48 159.254C37.3522 158.956 36.9692 157.552 37.7884 156.722L41.3474 153.137L44.9065 149.551C45.7257 148.721 47.1408 149.093 47.4441 150.221L48.774 155.094H48.7687Z" fill="#53575B"/>
<path d="M75.3377 123.187L70.4647 124.517C69.3369 124.825 68.3048 123.798 68.6027 122.665L69.8901 117.782L71.1776 112.898C71.4755 111.77 72.8799 111.387 73.7098 112.206L77.2954 115.765L80.8811 119.324C81.711 120.144 81.3386 121.559 80.2107 121.862L75.3377 123.192V123.187Z" fill="#53575B"/>
<path d="M79.6662 139.076C83.571 138.012 87.5981 140.316 88.6621 144.221C89.7261 148.126 87.4226 152.153 83.5178 153.217C79.613 154.281 75.5858 151.977 74.5271 148.072C73.4632 144.168 75.7667 140.14 79.6715 139.076H79.6662Z" fill="#54878C"/>
<path d="M80.7689 143.136C82.434 142.684 84.147 143.663 84.5992 145.328C85.0514 146.993 84.0726 148.706 82.4074 149.158C80.7476 149.61 79.0293 148.631 78.5771 146.966C78.1249 145.301 79.1038 143.588 80.7689 143.136Z" fill="#E8505B"/>
<g style="mix-blend-mode:multiply">
<path d="M81.5449 96.845C108.618 96.845 130.563 118.79 130.563 145.863C130.563 172.936 108.618 194.88 81.5449 194.88V96.845Z" fill="#E6E6E6"/>
</g>
<path d="M138.823 204.72C138.823 205.911 139.796 206.885 140.988 206.885H153.591C154.782 206.885 155.756 205.911 155.756 204.72V197.852C155.756 196.66 156.676 195.367 157.804 194.984L161.033 193.66C162.108 193.138 163.677 193.399 164.523 194.24L169.433 199.113C170.279 199.953 171.663 199.953 172.508 199.113L181.409 190.276C182.254 189.436 182.254 188.063 181.409 187.223L176.498 182.35C175.652 181.509 175.392 179.95 175.918 178.881L177.243 175.694C177.637 174.567 178.93 173.646 180.121 173.646H187.08C188.271 173.646 189.245 172.673 189.245 171.481V159.006C189.245 157.814 188.271 156.841 187.08 156.841H180.121C178.93 156.841 177.631 155.92 177.243 154.792L175.918 151.606C175.392 150.537 175.652 148.978 176.498 148.137L181.409 143.27C182.254 142.429 182.254 141.056 181.409 140.216L172.508 131.38C171.663 130.539 170.279 130.539 169.433 131.38L164.523 136.253C163.677 137.093 162.108 137.354 161.033 136.832L157.804 135.508C156.676 135.119 155.756 133.832 155.756 132.64V125.772C155.756 124.581 154.782 123.607 153.591 123.607H140.988C139.796 123.607 138.823 124.581 138.823 125.772V132.64C138.823 133.832 137.902 135.125 136.775 135.508L133.545 136.832C132.471 137.354 130.901 137.093 130.056 136.253L125.145 131.38C124.299 130.539 122.916 130.539 122.07 131.38L113.17 140.211C112.324 141.051 112.324 142.424 113.17 143.264L118.08 148.137C118.926 148.978 119.187 150.537 118.66 151.606L117.336 154.792C116.947 155.92 115.649 156.841 114.458 156.841H107.499C106.308 156.841 105.334 157.814 105.334 159.006V171.481C105.334 172.673 106.308 173.646 107.499 173.646H114.458C115.649 173.646 116.947 174.567 117.336 175.694L118.66 178.881C119.187 179.95 118.926 181.509 118.08 182.35L113.17 187.223C112.324 188.063 112.324 189.436 113.17 190.276L122.07 199.113C122.916 199.953 124.299 199.953 125.145 199.113L130.056 194.24C130.901 193.399 132.471 193.138 133.545 193.66L136.775 194.984C137.902 195.373 138.823 196.66 138.823 197.852V204.72Z" fill="#39487F"/>
<g style="mix-blend-mode:multiply">
<path d="M173.52 136.415C174.366 137.256 174.366 138.628 173.52 139.469L168.61 144.337C167.764 145.177 167.503 146.736 168.03 147.805L169.355 150.992C169.748 152.12 171.041 153.04 172.233 153.04H176.404L175.93 151.896C175.404 150.827 175.664 149.268 176.51 148.428L181.42 143.56C182.266 142.719 182.266 141.347 181.42 140.506L172.52 131.67C171.674 130.829 170.291 130.829 169.445 131.67L169.094 132.016L173.526 136.41L173.52 136.415Z" fill="#CCCCCC"/>
<path d="M128.87 191.189L125.641 189.864C124.572 189.343 123.002 189.604 122.151 190.444L117.592 194.966L122.066 199.403C122.912 200.244 124.295 200.244 125.141 199.403L130.051 194.53C130.29 194.296 130.588 194.11 130.913 193.971C130.87 192.806 129.971 191.567 128.87 191.189Z" fill="#CCCCCC"/>
<path d="M187.091 157.134H181.362V167.688C181.362 168.88 180.388 169.854 179.197 169.854H172.238C171.047 169.854 169.749 170.774 169.36 171.902L168.036 175.088C167.509 176.158 167.77 177.717 168.615 178.557L173.526 183.43C174.372 184.271 174.372 185.643 173.526 186.484L164.977 194.969L169.445 199.406C170.291 200.246 171.674 200.246 172.52 199.406L181.42 190.569C182.266 189.729 182.266 188.356 181.42 187.516L176.51 182.643C175.664 181.802 175.404 180.243 175.93 179.174L177.255 175.988C177.649 174.86 178.941 173.939 180.133 173.939H187.091C188.283 173.939 189.257 172.966 189.257 171.774V159.299C189.257 158.107 188.283 157.134 187.091 157.134Z" fill="#CCCCCC"/>
<path d="M156.634 190.437C155.788 189.596 154.219 189.336 153.144 189.857L149.915 191.182C148.787 191.57 147.867 192.857 147.867 194.049V200.917C147.867 202.109 146.893 203.082 145.701 203.082H138.828V205.003C138.828 206.194 139.802 207.168 140.993 207.168H153.596C154.788 207.168 155.761 206.194 155.761 205.003V198.135C155.761 196.943 156.682 195.65 157.81 195.267L160.422 194.198L156.629 190.432L156.634 190.437Z" fill="#CCCCCC"/>
</g>
<path d="M143.6 183.984C154.756 183.984 163.8 175.009 163.8 163.939C163.8 152.868 154.756 143.893 143.6 143.893C132.444 143.893 123.4 152.868 123.4 163.939C123.4 175.009 132.444 183.984 143.6 183.984Z" fill="#DCE8FA"/>
<path d="M143.601 187.231C130.673 187.231 120.15 176.783 120.15 163.936C120.15 151.088 130.668 140.64 143.601 140.64C156.533 140.64 167.051 151.088 167.051 163.936C167.051 176.783 156.533 187.231 143.601 187.231ZM143.601 147.146C134.259 147.146 126.657 154.679 126.657 163.941C126.657 173.203 134.259 180.736 143.601 180.736C152.942 180.736 160.544 173.203 160.544 163.941C160.544 154.679 152.942 147.146 143.601 147.146Z" fill="#292E56"/>
<path d="M147.292 173.714C152.008 173.714 155.831 169.92 155.831 165.239C155.831 160.559 152.008 156.765 147.292 156.765C142.577 156.765 138.754 160.559 138.754 165.239C138.754 169.92 142.577 173.714 147.292 173.714Z" fill="#DCE8FA"/>
<path d="M143.599 175.662C137.099 175.662 131.811 170.401 131.811 163.937C131.811 157.473 137.099 152.212 143.599 152.212C150.1 152.212 155.388 157.473 155.388 163.937C155.388 170.401 150.1 175.662 143.599 175.662ZM143.599 158.718C140.684 158.718 138.311 161.059 138.311 163.942C138.311 166.826 140.684 169.166 143.599 169.166C146.515 169.166 148.887 166.826 148.887 163.942C148.887 161.059 146.515 158.718 143.599 158.718Z" fill="#292E56"/>
<path d="M179.676 135.682C183.597 139.198 187.31 142.949 190.779 146.907C190.885 147.029 191.002 147.173 191.002 147.333C191.002 147.577 190.763 147.742 190.539 147.843C188.646 148.7 186.448 147.912 184.533 147.093C180.134 145.21 175.809 143.167 171.558 140.97C171.196 140.784 170.824 140.587 170.585 140.262C170.292 139.874 170.233 139.358 170.228 138.874C170.196 137.145 170.664 135.405 171.569 133.932C174.282 133.517 177.144 134.113 179.463 135.586L179.676 135.682Z" fill="white"/>
<path d="M179.744 135.898C183.229 123.093 184.394 109.299 185.995 96.1214C186.681 90.4557 187.192 84.7262 186.671 79.0392C186.405 76.1186 185.862 73.2246 185.059 70.405C184.559 68.6441 183.883 66.8194 182.447 65.6863C180.106 63.8456 176.728 64.5212 173.855 65.3086C164.29 67.926 154.783 70.7508 145.34 73.7832C133.594 77.555 121.539 81.8907 112.724 90.5249C111.144 92.073 111.043 96.4991 111.043 96.4991C118.129 104.431 129.423 108.357 139.903 106.532C146.564 105.373 152.703 102.08 158.055 97.9515C163.412 93.8286 168.056 88.8704 172.679 83.9442L172.552 84.3166C168.663 100.436 167.556 117.694 171.621 133.77L179.75 135.909L179.744 135.898Z" fill="#3D666B"/>
<g style="mix-blend-mode:multiply">
<path d="M182.352 65.7576C180.011 63.9169 176.633 64.5925 173.76 65.3798C164.195 67.9972 154.688 70.8221 145.245 73.8545C133.499 77.6263 121.444 81.962 112.629 90.5962C111.39 91.8091 111.06 94.7936 110.975 96.0225C119.21 89.761 129.371 86.1594 139.308 82.9674C148.751 79.9351 158.258 77.1102 167.823 74.4928C170.701 73.7055 174.074 73.0299 176.415 74.8706C177.851 75.9984 178.527 77.8284 179.027 79.5893C179.83 82.4089 180.373 85.3029 180.639 88.2235C181.16 93.9105 180.649 99.6347 179.963 105.306C178.777 115.084 177.825 125.202 175.989 135.007L179.649 135.97C183.134 123.165 184.299 109.37 185.9 96.1927C186.586 90.527 187.097 84.7975 186.576 79.1105C186.31 76.1899 185.767 73.2959 184.964 70.4763C184.464 68.7154 183.788 66.8907 182.352 65.7576Z" fill="#E6E6E6"/>
</g>
<g style="mix-blend-mode:multiply">
<path d="M117.911 92.636C120.459 95.5087 122.268 99.7646 120.177 103.409C120.054 103.622 120.379 103.808 120.501 103.6C122.682 99.8019 120.842 95.3757 118.177 92.37C118.017 92.1891 117.751 92.4551 117.911 92.636Z" fill="#CCCCCC"/>
</g>
<g style="mix-blend-mode:multiply">
<path d="M172.834 84.0977C174.457 83.0124 175.202 81.1664 175.755 79.3736C175.824 79.1395 175.462 79.0438 175.393 79.2725C174.872 80.9642 174.175 82.7464 172.643 83.7731C172.44 83.9061 172.632 84.2307 172.834 84.0977Z" fill="#CCCCCC"/>
</g>
<g style="mix-blend-mode:multiply">
<path d="M172.85 83.8676C173.323 82.3461 173.488 80.7449 173.328 79.1595C173.307 78.9201 172.929 78.9201 172.951 79.1595C173.105 80.7129 172.951 82.277 172.483 83.7666C172.408 84.0006 172.775 84.0964 172.844 83.8676H172.85Z" fill="#CCCCCC"/>
</g>
<g style="mix-blend-mode:multiply">
<path d="M172.743 83.7051C172.355 82.2475 171.536 80.9175 170.403 79.9174C170.222 79.7578 169.956 80.0238 170.137 80.1834C171.222 81.141 172.009 82.4018 172.382 83.8062C172.445 84.0403 172.807 83.9392 172.743 83.7051Z" fill="#CCCCCC"/>
</g>
<g style="mix-blend-mode:multiply">
<path d="M182.252 138.171C180.875 138.703 179.8 139.911 179.47 141.358C179.417 141.592 179.779 141.693 179.832 141.459C180.13 140.15 181.087 139.017 182.348 138.533C182.572 138.448 182.476 138.081 182.247 138.171H182.252Z" fill="#CCCCCC"/>
</g>
<g style="mix-blend-mode:multiply">
<path d="M183.943 139.749C182.906 140.526 182.118 141.574 181.655 142.782C181.57 143.01 181.932 143.106 182.017 142.883C182.437 141.771 183.182 140.787 184.129 140.074C184.321 139.93 184.129 139.606 183.938 139.749H183.943Z" fill="#CCCCCC"/>
</g>
<g style="mix-blend-mode:multiply">
<path d="M185.48 141.785C184.9 142.748 184.341 143.727 183.798 144.711C183.681 144.924 184.006 145.116 184.123 144.903C184.666 143.919 185.224 142.94 185.804 141.977C185.932 141.769 185.602 141.578 185.48 141.785Z" fill="#CCCCCC"/>
</g>
<g style="mix-blend-mode:multiply">
<path d="M171.17 134.862C172.883 135.564 174.58 136.33 176.33 136.926C177.932 137.474 179.591 137.809 181.288 137.554C181.528 137.517 181.427 137.155 181.187 137.192C179.437 137.453 177.713 137.027 176.075 136.437C174.436 135.846 172.867 135.155 171.271 134.495C171.048 134.405 170.952 134.766 171.17 134.857V134.862Z" fill="#CCCCCC"/>
</g>
<g style="mix-blend-mode:multiply">
<path d="M170.692 136.948C172.112 137.99 172.99 139.688 173.038 141.443C173.043 141.683 173.421 141.688 173.415 141.443C173.362 139.544 172.41 137.746 170.883 136.623C170.686 136.48 170.5 136.804 170.692 136.948Z" fill="#CCCCCC"/>
</g>
<path d="M131.488 167.935C132.887 173.346 133.956 178.836 134.69 184.374C134.712 184.549 134.733 184.736 134.637 184.885C134.493 185.097 134.185 185.108 133.93 185.065C131.754 184.709 130.275 182.719 129.067 180.873C126.29 176.628 123.673 172.282 121.215 167.84C121.008 167.462 120.795 167.068 120.773 166.637C120.747 166.121 120.997 165.632 121.273 165.201C122.258 163.653 123.694 162.397 125.359 161.626C128.003 162.855 130.174 165.063 131.355 167.728L131.482 167.935H131.488Z" fill="white"/>
<path d="M131.428 168.168C142.031 158.906 151.17 147.415 160.326 136.722C164.263 132.12 168.082 127.364 170.966 122.039C172.445 119.305 173.668 116.427 174.615 113.469C175.206 111.623 175.69 109.612 175.083 107.766C174.099 104.76 170.721 103.377 167.721 102.382C157.74 99.0678 147.686 95.9769 137.567 93.0988C124.981 89.5239 111.787 86.2681 98.929 88.7046C96.6255 89.1408 93.9336 92.9871 93.9336 92.9871C95.5242 104.154 103.19 114.261 113.516 118.81C120.076 121.699 127.433 122.401 134.588 121.906C141.738 121.411 148.755 119.773 155.74 118.134L155.41 118.39C142.504 130.333 131.375 144.92 125.518 161.502L131.439 168.168H131.428Z" fill="#54878C"/>
<g style="mix-blend-mode:multiply">
<path d="M174.962 107.766C173.978 104.761 170.6 103.377 167.599 102.383C157.619 99.0683 147.565 95.9774 137.446 93.0993C124.859 89.5243 111.666 86.2686 98.8078 88.7051C96.999 89.0456 94.9562 91.4874 94.1582 92.5248C105.107 91.8385 116.193 94.6315 126.849 97.6585C136.967 100.531 147.022 103.627 157.002 106.942C160.003 107.937 163.381 109.325 164.365 112.325C164.971 114.166 164.487 116.177 163.897 118.028C162.95 120.992 161.726 123.864 160.247 126.599C157.369 131.924 153.55 136.68 149.608 141.282C142.814 149.219 136.026 157.592 128.642 165.168L131.307 168.168C141.91 158.907 151.049 147.416 160.205 136.723C164.142 132.121 167.961 127.365 170.845 122.04C172.324 119.305 173.547 116.427 174.494 113.469C175.085 111.623 175.569 109.612 174.962 107.766Z" fill="#E6E6E6"/>
</g>
<g style="mix-blend-mode:multiply">
<path d="M102.265 93.6312C102.823 97.669 101.903 102.494 97.9131 104.468C97.6843 104.58 97.8865 104.925 98.1152 104.814C102.275 102.755 103.233 97.7329 102.648 93.5301C102.611 93.2748 102.227 93.3865 102.265 93.6365V93.6312Z" fill="#CCCCCC"/>
</g>
<g style="mix-blend-mode:multiply">
<path d="M155.789 118.369C157.859 118.363 159.604 117.161 161.146 115.905C161.343 115.746 161.061 115.464 160.864 115.624C159.407 116.81 157.747 117.964 155.789 117.97C155.534 117.97 155.534 118.369 155.789 118.369Z" fill="#CCCCCC"/>
</g>
<g style="mix-blend-mode:multiply">
<path d="M155.937 118.158C157.246 117.099 158.336 115.774 159.124 114.285C159.246 114.056 158.9 113.854 158.778 114.082C158.001 115.545 156.942 116.833 155.655 117.876C155.453 118.035 155.74 118.317 155.937 118.158Z" fill="#CCCCCC"/>
</g>
<g style="mix-blend-mode:multiply">
<path d="M155.927 117.961C156.438 116.439 156.491 114.79 156.081 113.237C156.018 112.987 155.629 113.093 155.698 113.343C156.092 114.833 156.039 116.397 155.544 117.854C155.464 118.099 155.847 118.205 155.927 117.961Z" fill="#CCCCCC"/>
</g>
<g style="mix-blend-mode:multiply">
<path d="M132.29 171.643C130.752 171.302 129.109 171.754 127.959 172.834C127.773 173.01 128.055 173.292 128.241 173.116C129.279 172.132 130.784 171.717 132.183 172.026C132.434 172.079 132.54 171.696 132.29 171.643Z" fill="#CCCCCC"/>
</g>
<g style="mix-blend-mode:multiply">
<path d="M132.855 174.031C131.504 174.105 130.195 174.557 129.094 175.345C128.886 175.493 129.083 175.839 129.296 175.69C130.339 174.946 131.573 174.504 132.855 174.435C133.11 174.419 133.11 174.02 132.855 174.036V174.031Z" fill="#CCCCCC"/>
</g>
<g style="mix-blend-mode:multiply">
<path d="M133.012 176.746C131.932 177.257 130.868 177.789 129.81 178.342C129.581 178.459 129.783 178.805 130.012 178.688C131.07 178.135 132.134 177.603 133.214 177.092C133.448 176.98 133.246 176.64 133.012 176.746Z" fill="#CCCCCC"/>
</g>
<g style="mix-blend-mode:multiply">
<path d="M124.437 162.171C125.559 163.831 126.628 165.544 127.857 167.129C128.921 168.507 130.171 169.768 131.767 170.512C131.996 170.619 132.204 170.278 131.97 170.167C130.363 169.422 129.123 168.145 128.065 166.751C126.894 165.214 125.862 163.57 124.782 161.969C124.639 161.756 124.293 161.958 124.437 162.171Z" fill="#CCCCCC"/>
</g>
<g style="mix-blend-mode:multiply">
<path d="M122.799 163.732C123.443 165.514 123.235 167.52 122.235 169.126C122.097 169.345 122.443 169.547 122.581 169.329C123.634 167.637 123.863 165.504 123.187 163.626C123.102 163.386 122.714 163.487 122.804 163.732H122.799Z" fill="#CCCCCC"/>
</g>
<path d="M127.561 66.4694C127.444 62.7987 127.146 59.1652 126.949 55.5051C126.752 51.8184 127.226 45.2377 123.076 43.4928C119.688 42.067 115.027 44.0993 112.873 46.8124C110.591 49.6852 109.846 53.5314 110.075 57.1915C110.309 60.8463 111.426 64.384 112.538 67.8792C112.857 68.8794 113.176 69.8795 113.495 70.885C113.575 71.1403 113.671 71.4116 113.889 71.5659C114.224 71.8053 114.692 71.667 115.075 71.5234C119.182 69.9646 123.295 68.4059 127.402 66.8472L127.561 66.4748V66.4694Z" fill="#E8505B"/>
<path d="M115.689 68.9465C116.779 71.5426 118.109 74.0376 119.658 76.3837C124.834 84.2252 132.383 90.3005 140.655 94.748C148.928 99.2007 157.94 102.111 167.021 104.526L167.265 104.553C167.531 104.675 167.851 104.659 168.106 104.51C167.611 103.425 167.116 102.345 166.616 101.26C166.425 100.839 166.228 100.414 165.962 100.031C164.829 98.4081 162.69 97.9027 160.733 97.5782C159.674 97.4026 158.418 97.3122 157.706 98.1155L157.44 98.19C148.284 88.5237 137.075 80.8471 128.717 70.4786C127.494 68.9624 126.313 67.3398 125.807 65.4619L115.684 68.9411L115.689 68.9465Z" fill="#FFBE9D"/>
<path d="M113.511 71.2727C116.586 67.6498 120.938 65.1229 125.625 64.2345C126.763 64.0163 128.253 64.0802 128.684 65.1442C128.939 65.7826 128.657 66.5327 128.168 67.0168C127.678 67.5009 127.024 67.7828 126.385 68.0488C123.007 69.4639 119.634 70.8737 116.256 72.2888C115.783 72.4856 115.288 72.6878 114.777 72.6346C113.618 72.5175 113.506 71.2674 113.506 71.2674L113.511 71.2727Z" fill="#CC9305"/>
<path d="M123.939 71.5779C124.333 69.0935 124.615 66.5878 124.775 64.0715C125.158 58.1345 125.525 50.559 122.817 45.0263C122.061 43.4835 120.918 42.0844 119.247 41.5098L103.053 35.9824C98.2868 36.5889 94.2543 40.116 91.9934 44.356C89.7324 48.5959 89.0089 53.4849 88.7269 58.2835C88.0354 70.1362 89.8601 82.1326 94.0468 93.2405C102.149 93.3735 110.427 93.4853 118.125 90.9636L118.774 90.82C119.604 89.9901 119.683 88.5643 120.029 87.5057C121.732 82.3081 123.088 76.9776 123.939 71.5726V71.5779Z" fill="#E8505B"/>
<g style="mix-blend-mode:multiply">
<path d="M99.7656 45.2562C100.707 43.4847 101.963 41.8461 103.447 40.4896C102.798 39.798 102.293 38.9574 101.824 38.1116C100.494 38.5584 99.1166 38.8191 97.6802 38.9362C97.3344 38.9628 96.9993 38.8989 96.6907 38.7712C94.7755 40.2661 93.1743 42.2185 92.0305 44.3678C89.7695 48.6077 89.046 53.4967 88.7641 58.2953C88.0725 70.148 89.8972 82.1444 94.084 93.2524C96.5524 93.2949 99.0368 93.3322 101.516 93.2949C97.5525 82.421 95.8289 70.7385 96.5045 59.189C96.7865 54.3905 97.51 49.5015 99.7709 45.2615L99.7656 45.2562Z" fill="#E6E6E6"/>
</g>
<path d="M110.433 19.9899C110.863 19.9899 110.863 19.3196 110.433 19.3196C110.002 19.3196 110.002 19.9899 110.433 19.9899Z" fill="#1D262D"/>
<path d="M130.912 23.5568C131.029 25.1847 132.439 26.4295 132.86 28.0042C133.376 29.9619 132.253 32.0101 130.774 33.388C127.955 36.0213 123.747 36.9948 119.996 36.0958C116.245 35.1967 113.006 32.5208 111.197 29.1107C110.601 27.9829 110.149 26.786 109.755 25.573C109.377 24.4186 109.053 23.2429 108.872 22.0406C108.516 19.636 108.76 17.1516 109.58 14.8641C109.973 13.7735 110.505 12.7042 111.346 11.8955C111.958 11.305 112.708 10.8794 113.49 10.5496C116.352 9.34199 119.656 9.42711 122.603 10.406C125.55 11.3848 128.162 13.1989 130.418 15.3322C131.269 16.1355 132.115 17.0771 132.248 18.2369C132.439 19.9126 131.099 21.4075 131.003 23.0886L130.912 23.5515V23.5568Z" fill="#FFBE9D"/>
<g style="mix-blend-mode:multiply">
<path d="M119.943 23.664C119.889 24.3929 120.251 25.0153 120.751 25.0525C121.251 25.0898 121.698 24.5312 121.746 23.8024C121.799 23.0735 121.438 22.4511 120.938 22.4139C120.437 22.3766 119.991 22.9352 119.943 23.664Z" fill="#332214"/>
</g>
<g style="mix-blend-mode:multiply">
<path d="M126.972 24.5825C126.919 25.3113 127.281 25.9338 127.781 25.971C128.281 26.0082 128.728 25.4496 128.775 24.7208C128.829 23.992 128.467 23.3696 127.967 23.3323C127.467 23.2951 127.02 23.8537 126.972 24.5825Z" fill="#332214"/>
</g>
<g style="mix-blend-mode:multiply" opacity="0.2">
<path d="M122.226 32.0041C122.364 32.6691 122.992 33.1372 123.673 33.084C124.301 33.0361 124.796 32.6265 125.141 32.1264C125.36 31.8072 125.838 32.169 125.62 32.4935C125.104 33.2489 124.237 33.8075 123.29 33.6745C122.444 33.5522 121.801 32.9191 121.63 32.0945C121.551 31.7115 122.152 31.6264 122.226 32.0041Z" fill="#6D432C"/>
</g>
<g style="mix-blend-mode:multiply" opacity="0.2">
<path d="M124.252 29.6325C124.561 29.6325 124.901 29.5953 125.21 29.4304C125.784 29.1165 126.093 28.4515 126.125 27.4514C126.178 25.749 125.71 24.0147 124.805 22.5677C124.715 22.4241 124.523 22.3762 124.374 22.4666C124.231 22.5571 124.183 22.7486 124.273 22.8975C125.114 24.2381 125.55 25.8501 125.497 27.4301C125.481 27.9514 125.364 28.6324 124.901 28.8824C124.646 29.0207 124.316 29.0207 123.917 28.9995C123.662 28.9888 123.417 28.9675 123.289 28.8399C123.167 28.7175 122.97 28.7228 122.848 28.8399C122.725 28.9622 122.731 29.1591 122.848 29.2814C123.156 29.5846 123.592 29.6059 123.88 29.6166C123.991 29.6219 124.114 29.6272 124.236 29.6272L124.252 29.6325Z" fill="#6D432C"/>
</g>
<path d="M121.252 20.1132C120.539 20.0706 119.858 20.2302 119.22 20.5281C118.699 20.7729 118.395 19.9323 118.911 19.6876C119.704 19.3152 120.539 19.1822 121.406 19.2301C121.976 19.262 121.816 20.1398 121.247 20.1079L121.252 20.1132Z" fill="#292E56"/>
<path d="M128.036 20.7354C127.429 20.3631 126.754 20.1822 126.046 20.1449C125.472 20.113 125.599 19.2299 126.174 19.2618C127.046 19.3097 127.85 19.581 128.589 20.0385C129.079 20.3365 128.52 21.0334 128.036 20.7408V20.7354Z" fill="#292E56"/>
<path d="M141.855 97.104L166.008 103.892L188.867 112.479L164.646 108.153L141.855 97.104Z" fill="#1B1F3A"/>
<path d="M165.742 108.615L177.648 82.9041L200.002 87.7558L188.868 112.477L165.742 108.615Z" fill="#292E56"/>
<g style="mix-blend-mode:multiply">
<path d="M196.832 87.0652L187.288 108.26L167.445 104.945L165.742 108.616L188.868 112.478L200.002 87.7568L196.832 87.0652Z" fill="#CCCCCC"/>
</g>
<path d="M177.646 82.9032L175.784 82.5308L164.277 107.183L165.74 108.614L177.646 82.9032Z" fill="#373F6B"/>
<path d="M188.384 98.3937C188.778 100.82 187.129 103.107 184.703 103.495C182.277 103.889 179.989 102.24 179.601 99.8141C179.207 97.3882 180.857 95.1007 183.282 94.7123C185.708 94.324 187.996 95.9678 188.384 98.3937Z" fill="#E8505B"/>
<path d="M186.283 100.754C187.184 99.495 186.895 97.7437 185.636 96.8421C184.377 95.9405 182.626 96.2302 181.724 97.489C180.823 98.7478 181.112 100.499 182.371 101.401C183.63 102.302 185.381 102.013 186.283 100.754Z" fill="white"/>
<path d="M165.742 108.616L141.105 98.2425L141.856 97.104L166.37 107.26L165.742 108.616Z" fill="#292E56"/>
<path d="M108.639 21.5197C109.826 22.5731 111.326 23.1689 113.081 22.9508C114.667 22.754 116.135 21.7804 116.944 20.4026C117.295 19.8014 117.524 19.1364 117.742 18.4768C118.316 16.7371 118.848 14.9071 118.561 13.0983L118.811 13.2313C120.721 15.4497 122.641 17.6788 124.934 19.4982C127.227 21.3176 129.935 22.7114 132.845 23.004C133.983 23.121 135.207 23.0412 136.143 22.3816C137.08 21.7219 137.564 20.3334 136.92 19.3865L137.122 19.5514C140.388 20.5622 144.256 18.9981 145.9 16.003C146.357 15.1678 146.655 14.2474 146.884 13.3218C147.288 11.6673 147.485 9.90639 147.022 8.26786C146.56 6.62933 145.325 5.12912 143.671 4.71949C142.703 4.48009 141.676 4.61841 140.708 4.86312C138.814 5.33659 136.883 6.31546 136.037 8.08166L136.01 7.85291C136.952 7.00172 137.516 5.74091 137.526 4.46945C137.537 3.19799 136.989 1.93186 136.053 1.07003C135.67 0.713598 135.223 0.426324 134.717 0.282686C134.191 0.133729 133.632 0.149689 133.09 0.218847C130.616 0.543362 128.318 2.03825 127.02 4.16622L126.871 4.12366C125.275 2.42129 122.939 1.56478 120.614 1.36263C117.242 1.07003 113.597 2.22977 111.592 4.95356L111.464 5.02272C110.773 3.72998 110.028 2.37873 108.788 1.58606C108.554 1.43711 108.203 1.32007 108.022 1.53818C107.9 1.68182 107.937 1.89994 107.985 2.08613C108.325 3.43739 108.921 4.71949 109.735 5.8473L109.671 5.82071C108.974 5.25148 108.283 4.68225 107.586 4.11302C107.426 3.98534 107.23 3.84702 107.038 3.9215C106.889 3.98002 106.815 4.14494 106.777 4.29921C106.634 4.92164 106.926 5.58131 107.368 6.04414C107.809 6.50697 108.395 6.80489 108.964 7.09748L108.841 7.29964C107.166 8.37958 106.038 10.2043 105.628 12.1514C105.006 15.088 106.144 19.3173 108.639 21.5304V21.5197Z" fill="#292E56"/>
<path d="M106.512 21.8241C106.81 23.6382 108.422 24.8883 110.119 24.6224C111.816 24.351 112.955 22.6646 112.657 20.8505C112.359 19.0365 110.747 17.7863 109.05 18.0523C107.353 18.3236 106.214 20.01 106.512 21.8241Z" fill="#FFBE9D"/>
<g style="mix-blend-mode:multiply" opacity="0.5">
<path d="M111.399 21.1516C110.393 20.1514 108.984 19.811 107.622 20.2419C107.398 20.311 107.542 20.6462 107.765 20.5717C108.239 20.4228 108.728 20.3855 109.196 20.444C109.186 20.46 109.17 20.4706 109.159 20.4919C108.845 21.1463 109.308 22.0347 109.75 22.5241C109.909 22.6944 110.197 22.4762 110.037 22.3007C109.681 21.9123 109.239 21.1675 109.494 20.6302C109.516 20.5824 109.516 20.5345 109.5 20.4972C110.096 20.6302 110.649 20.9282 111.101 21.375C111.266 21.5399 111.553 21.3165 111.388 21.1516H111.399Z" fill="#AF815B"/>
</g>
<g style="mix-blend-mode:multiply">
<path d="M112.454 23.0775C113.028 22.87 113.486 22.2263 113.864 21.7634C114.3 21.2208 114.688 20.6409 115.013 20.0291C115.662 18.8109 116.071 17.4916 116.242 16.1243C116.273 15.869 115.874 15.8743 115.843 16.1243C115.688 17.3798 115.305 18.6087 114.72 19.7312C114.443 20.2685 114.119 20.7793 113.752 21.2634C113.566 21.5134 113.363 21.7528 113.151 21.9816C112.938 22.2103 112.661 22.5774 112.347 22.6891C112.108 22.7742 112.209 23.1626 112.454 23.0721V23.0775Z" fill="#CCCCCC"/>
</g>
<g style="mix-blend-mode:multiply">
<path d="M112.491 23.0275C114.002 21.1229 114.646 18.6545 114.252 16.2552C114.21 15.9999 113.827 16.1116 113.869 16.3616C114.236 18.6066 113.625 20.9633 112.209 22.7455C112.05 22.9423 112.332 23.2296 112.491 23.0275Z" fill="#CCCCCC"/>
</g>
<g style="mix-blend-mode:multiply">
<path d="M109.106 7.33829C110.564 6.98185 111.931 7.80644 113.006 8.71082C113.203 8.87574 113.485 8.59378 113.288 8.42887C112.096 7.42873 110.612 6.5669 109 6.95525C108.75 7.01377 108.856 7.40213 109.106 7.33829Z" fill="#CCCCCC"/>
</g>
<g style="mix-blend-mode:multiply">
<path d="M108.947 7.37422C109.82 7.75194 110.325 8.60844 110.751 9.41175C110.873 9.6405 111.214 9.43835 111.097 9.20959C110.639 8.34777 110.086 7.42742 109.149 7.02843C109.048 6.98587 108.937 6.99651 108.878 7.09759C108.83 7.18271 108.852 7.32634 108.947 7.3689V7.37422Z" fill="#CCCCCC"/>
</g>
<g style="mix-blend-mode:multiply">
<path d="M111.666 5.32374C113.23 5.16415 115.039 4.98859 116.348 6.05789C116.544 6.21749 116.826 5.94085 116.63 5.77594C115.225 4.62684 113.363 4.74919 111.666 4.92475C111.411 4.95135 111.411 5.35034 111.666 5.32374Z" fill="#CCCCCC"/>
</g>
<g style="mix-blend-mode:multiply">
<path d="M111.607 5.27575C112.373 5.74922 113.358 5.88754 113.996 6.55785C114.172 6.74404 114.454 6.46209 114.278 6.27589C113.608 5.57366 112.608 5.42471 111.81 4.93528C111.591 4.80228 111.389 5.14275 111.607 5.28107V5.27575Z" fill="#CCCCCC"/>
</g>
<g style="mix-blend-mode:multiply">
<path d="M136.021 7.64148C134.914 8.73738 134.005 10.0195 133.35 11.4346C133.244 11.6633 133.584 11.8708 133.696 11.6367C134.34 10.2535 135.218 8.99805 136.303 7.92343C136.484 7.74256 136.202 7.4606 136.021 7.64148Z" fill="#CCCCCC"/>
</g>
<g style="mix-blend-mode:multiply">
<path d="M135.967 7.97052C135.845 8.26844 135.797 8.58231 135.733 8.89619C135.669 9.21006 135.579 9.53457 135.478 9.84845C135.275 10.4762 135.02 11.088 134.765 11.6945C134.664 11.9285 135.052 12.0349 135.148 11.8009C135.403 11.1891 135.658 10.5826 135.861 9.95485C135.962 9.64097 136.047 9.32178 136.116 9.00259C136.185 8.68339 136.233 8.37484 136.35 8.07692C136.446 7.83753 136.063 7.73645 135.967 7.97052Z" fill="#CCCCCC"/>
</g>
<g style="mix-blend-mode:multiply">
<path d="M137.093 19.2922C135.343 18.3239 135.184 16.1215 135.098 14.35C135.088 14.0946 134.689 14.0946 134.699 14.35C134.79 16.2704 135.008 18.6006 136.891 19.6379C137.115 19.7603 137.317 19.4198 137.093 19.2922Z" fill="#CCCCCC"/>
</g>
<g style="mix-blend-mode:multiply">
<path d="M137.058 19.1038C136.733 18.2101 136.685 17.2471 136.919 16.3215C136.983 16.0714 136.6 15.9651 136.536 16.2151C136.286 17.1993 136.329 18.2473 136.675 19.2102C136.76 19.4496 137.148 19.3485 137.058 19.1038Z" fill="#CCCCCC"/>
</g>
<g style="mix-blend-mode:multiply">
<path d="M143.334 6.54476C145.053 7.14059 146.01 8.8802 145.936 10.6464C145.899 11.5295 145.665 12.6467 144.787 13.0616C143.909 13.4766 142.925 13.1148 142.159 12.6201C141.941 12.4818 141.744 12.8276 141.957 12.9659C142.818 13.5245 143.898 13.8809 144.893 13.45C145.888 13.0191 146.197 11.9817 146.308 11.0082C146.542 8.94404 145.457 6.85331 143.441 6.15641C143.196 6.07129 143.095 6.45964 143.334 6.53944V6.54476Z" fill="#CCCCCC"/>
</g>
<g style="mix-blend-mode:multiply">
<path d="M141.994 12.9134C142.792 13.8551 143.531 15.2116 142.861 16.4246C142.244 17.5524 140.797 17.8663 139.744 17.1534C139.531 17.0098 139.329 17.3556 139.542 17.4992C140.755 18.3185 142.43 17.9461 143.17 16.6906C143.989 15.2968 143.207 13.738 142.271 12.6315C142.106 12.4346 141.824 12.7166 141.989 12.9134H141.994Z" fill="#CCCCCC"/>
</g>
<g style="mix-blend-mode:multiply">
<path d="M128.849 4.6179C129.327 3.97952 129.928 3.43689 130.609 3.02193C131.29 2.60698 132.126 2.21331 132.924 2.20799C133.722 2.20267 134.317 2.84106 134.376 3.62308C134.434 4.40511 133.924 5.13925 133.307 5.58081C133.099 5.72976 133.296 6.07556 133.509 5.9266C134.222 5.41589 134.802 4.6179 134.78 3.7082C134.759 2.92085 134.27 2.12287 133.493 1.88879C132.583 1.61216 131.487 2.08563 130.7 2.51654C129.838 2.98469 129.104 3.63904 128.513 4.42107C128.359 4.62854 128.705 4.82538 128.859 4.62322L128.849 4.6179Z" fill="#CCCCCC"/>
</g>
<g style="mix-blend-mode:multiply">
<path d="M133.307 5.98841C133.626 5.90329 133.956 6.11077 134.079 6.40868C134.233 6.77576 134.1 7.20135 133.871 7.50458C133.632 7.82378 133.275 8.04189 132.924 8.21745C132.536 8.41429 132.121 8.54196 131.695 8.61644C131.445 8.659 131.552 9.04735 131.802 8.99947C132.334 8.90372 132.844 8.72284 133.318 8.45684C133.738 8.21745 134.153 7.89293 134.371 7.45138C134.589 7.00983 134.627 6.4672 134.345 6.05757C134.095 5.69049 133.642 5.48834 133.201 5.60006C132.951 5.6639 133.057 6.05225 133.307 5.98309V5.98841Z" fill="#CCCCCC"/>
</g>
<g style="mix-blend-mode:multiply">
<path d="M126.715 4.2715C127.529 5.5536 127.784 7.12829 127.407 8.59658C127.343 8.84662 127.726 8.95302 127.79 8.70298C128.189 7.13361 127.923 5.44188 127.056 4.06935C126.917 3.85123 126.571 4.05339 126.71 4.2715H126.715Z" fill="#CCCCCC"/>
</g>
<g style="mix-blend-mode:multiply">
<path d="M126.673 4.2257C126.641 5.26308 126.003 6.15682 125.38 6.93353C125.311 7.01865 125.3 7.13036 125.38 7.21548C125.449 7.28464 125.593 7.3006 125.662 7.21548C126.359 6.34834 127.04 5.38012 127.072 4.2257C127.077 3.97034 126.678 3.97034 126.673 4.2257Z" fill="#CCCCCC"/>
</g>
<path d="M109.41 62.2828C108.883 58.0694 108.154 53.9199 107.537 49.7278C106.915 45.5038 106.755 37.8804 101.818 36.3164C97.7859 35.0396 92.6682 37.8804 90.4923 41.2319C88.1835 44.7856 87.7419 49.2916 88.3963 53.4784C89.0506 57.6651 90.7104 61.6125 92.3596 65.5173C92.8331 66.6345 93.3012 67.7517 93.7747 68.8742C93.8917 69.1561 94.0301 69.4593 94.2961 69.6189C94.7057 69.8583 95.227 69.6509 95.6526 69.4381L109.266 62.735L109.41 62.2881V62.2828Z" fill="#E8505B"/>
<path d="M105.595 35.3091C104.994 35.4687 104.398 35.623 103.797 35.7826C103.616 35.8304 103.425 35.8836 103.297 36.0166C103.185 36.1337 103.138 36.2879 103.095 36.4475C102.536 38.5595 103.26 40.8897 104.712 42.5176C106.814 44.8689 109.968 46.2042 113.102 46.2787C115.48 46.3372 120.699 45.7893 119.672 42.193C119.533 41.7036 119.156 41.2248 118.427 40.9163L105.595 35.3091Z" fill="#CC9305"/>
<path d="M109.815 26.0427C108.543 28.7399 107.267 31.4424 105.995 34.1396C105.809 34.5279 105.623 34.9322 105.596 35.3631C105.564 35.81 105.713 36.2516 105.889 36.6665C106.862 38.9541 108.852 40.7575 111.187 41.6034C113.523 42.4546 116.161 42.3641 118.476 41.4651C118.311 39.651 118.534 37.805 119.13 36.0813C119.263 35.693 119.417 35.3046 119.439 34.895C119.46 34.4588 119.332 34.0278 119.173 33.6182C118.433 31.735 117.087 30.1656 115.762 28.6335C115.044 27.8036 114.31 26.9577 113.353 26.4204C112.4 25.8831 109.82 26.0427 109.82 26.0427H109.815Z" fill="#FFBE9D"/>
<path d="M95.9238 66.4911C97.4187 69.2946 99.1743 71.9546 101.164 74.4284C107.803 82.6902 116.916 88.7229 126.678 92.8565C136.435 96.9901 146.867 99.3149 157.316 101.081H157.592C157.901 101.193 158.262 101.14 158.528 100.948C157.858 99.783 157.188 98.618 156.518 97.4529C156.257 97.0007 155.996 96.5432 155.656 96.1442C154.214 94.4418 151.756 94.096 149.527 93.9418C148.32 93.8566 146.899 93.8886 146.186 94.8621L145.894 94.9738C134.594 85.0735 121.199 77.6309 110.729 66.8581C109.197 65.2834 107.702 63.5864 106.931 61.5276L95.9238 66.4964V66.4911Z" fill="#FFBE9D"/>
<path d="M93.7266 69.3285C96.8015 64.9395 101.424 61.6412 106.595 60.1516C107.851 59.7899 109.532 59.6994 110.128 60.8538C110.484 61.5454 110.24 62.4179 109.745 63.0137C109.25 63.6096 108.542 63.9926 107.856 64.3597C104.212 66.3014 100.568 68.2432 96.9238 70.185C96.4131 70.4563 95.8811 70.7329 95.3013 70.7329C93.9872 70.7276 93.7266 69.3338 93.7266 69.3338V69.3285Z" fill="#CC9305"/>
<g style="mix-blend-mode:multiply">
<path d="M110.234 59.318C109.845 54.9184 108.031 50.7423 105.079 47.4599C104.909 47.2684 104.627 47.5503 104.797 47.7418C107.675 50.9444 109.457 55.0301 109.835 59.318C109.856 59.5733 110.255 59.5733 110.234 59.318Z" fill="#CCCCCC"/>
</g>
<g style="mix-blend-mode:multiply">
<path d="M110.235 58.8772C110.161 56.3183 110.188 53.7595 110.321 51.2059C110.331 50.9506 109.932 50.9506 109.922 51.2059C109.794 53.7595 109.762 56.3183 109.836 58.8772C109.842 59.1326 110.241 59.1326 110.235 58.8772Z" fill="#CCCCCC"/>
</g>
<g style="mix-blend-mode:multiply">
<path d="M105.416 35.8871C104.538 35.9882 103.698 36.2808 102.953 36.7596C102.74 36.8979 102.937 37.2437 103.155 37.1054C103.836 36.6691 104.607 36.3819 105.416 36.2861C105.522 36.2755 105.618 36.201 105.618 36.0839C105.618 35.9882 105.528 35.8711 105.416 35.8818V35.8871Z" fill="#CCCCCC"/>
</g>
<g style="mix-blend-mode:multiply">
<path d="M103.346 39.7296C104.245 38.9263 105.256 38.2666 106.352 37.7719C106.586 37.6655 106.384 37.3197 106.149 37.4261C105.022 37.9368 103.984 38.6231 103.064 39.4477C102.872 39.6179 103.154 39.8998 103.346 39.7296Z" fill="#CCCCCC"/>
</g>
<g style="mix-blend-mode:multiply">
<path d="M105.589 43.4249C106.409 42.2811 107.345 41.2224 108.372 40.2595C108.558 40.084 108.276 39.802 108.09 39.9776C107.036 40.9617 106.084 42.0523 105.244 43.2227C105.095 43.4302 105.44 43.6323 105.589 43.4249Z" fill="#CCCCCC"/>
</g>
<g style="mix-blend-mode:multiply">
<path d="M110.782 41.6726C110.452 43.0239 110.117 44.3751 109.787 45.7317C109.729 45.9817 110.112 46.0881 110.17 45.8381C110.5 44.4868 110.835 43.1356 111.165 41.779C111.224 41.529 110.841 41.4226 110.782 41.6726Z" fill="#CCCCCC"/>
</g>
<g style="mix-blend-mode:multiply">
<path d="M113.661 42.2598C113.826 43.5845 113.794 44.9304 113.549 46.2498C113.501 46.4998 113.889 46.6062 113.932 46.3562C114.182 45.0049 114.225 43.6271 114.054 42.2598C114.022 42.0098 113.623 42.0045 113.655 42.2598H113.661Z" fill="#CCCCCC"/>
</g>
<g style="mix-blend-mode:multiply">
<path d="M116.763 42.2049C117.38 43.1784 117.582 44.3754 117.316 45.4979C117.257 45.7479 117.64 45.8543 117.699 45.6043C117.991 44.3807 117.779 43.0667 117.108 42.0027C116.97 41.7846 116.624 41.9867 116.763 42.2049Z" fill="#CCCCCC"/>
</g>
<g style="mix-blend-mode:multiply">
<path d="M118.369 41.735C118.912 42.3574 119.167 43.1927 119.093 44.0172C119.071 44.2726 119.47 44.2726 119.492 44.0172C119.577 43.0916 119.263 42.1553 118.651 41.4531C118.481 41.2615 118.199 41.5435 118.369 41.735Z" fill="#CCCCCC"/>
</g>
<g style="mix-blend-mode:multiply">
<path d="M110.411 59.2588C110.405 58.397 110.826 57.6362 111.278 56.934C111.778 56.1573 112.31 55.4019 112.831 54.6358C112.975 54.423 112.629 54.2209 112.486 54.4337C111.932 55.2423 111.368 56.0403 110.847 56.8702C110.389 57.5937 110.006 58.3863 110.012 59.2588C110.012 59.5142 110.411 59.5142 110.411 59.2588Z" fill="#CCCCCC"/>
</g>
<g style="mix-blend-mode:multiply">
<path d="M109.783 59.0308C109.815 59.4138 109.847 59.7915 109.879 60.1745C109.89 60.2756 109.964 60.3767 110.081 60.3767C110.182 60.3767 110.289 60.2863 110.283 60.1745C110.252 59.7915 110.22 59.4138 110.188 59.0308C110.177 58.9297 110.103 58.8286 109.986 58.8286C109.884 58.8286 109.778 58.9191 109.783 59.0308Z" fill="#CCCCCC"/>
</g>
<g style="mix-blend-mode:multiply">
<path d="M94.047 68.9821C94.313 69.6896 94.8556 70.2854 95.5525 70.5834C95.6536 70.6259 95.7653 70.6153 95.8238 70.5142C95.8717 70.4291 95.8504 70.2854 95.7547 70.2429C95.4408 70.1099 95.1801 69.929 94.9461 69.6843C94.7279 69.4555 94.5417 69.1683 94.4353 68.8757C94.3981 68.7746 94.3024 68.7054 94.1906 68.7373C94.0949 68.7639 94.0151 68.881 94.0523 68.9821H94.047Z" fill="#CCCCCC"/>
</g>
<g style="mix-blend-mode:multiply">
<path d="M95.3969 67.2407C95.7693 68.2834 96.4662 69.1824 97.3919 69.7942C97.6047 69.9378 97.8068 69.5921 97.594 69.4484C96.7641 68.8951 96.1204 68.0706 95.7853 67.1343C95.7001 66.8949 95.3118 66.9959 95.4022 67.2407H95.3969Z" fill="#CCCCCC"/>
</g>
<g style="mix-blend-mode:multiply">
<path d="M97.1528 65.5314C97.9668 66.5634 98.7435 67.6221 99.4829 68.7127C99.6266 68.9255 99.9724 68.7233 99.8287 68.5105C99.068 67.3933 98.27 66.3081 97.4348 65.2494C97.2752 65.0473 96.9932 65.3345 97.1528 65.5314Z" fill="#CCCCCC"/>
</g>
<g style="mix-blend-mode:multiply">
<path d="M99.6102 63.5463C100.483 64.7858 101.137 66.1637 101.531 67.6267C101.6 67.8767 101.983 67.7703 101.914 67.5203C101.509 66.0254 100.844 64.6103 99.9506 63.3442C99.8017 63.1367 99.4559 63.3335 99.6048 63.5463H99.6102Z" fill="#CCCCCC"/>
</g>
<g style="mix-blend-mode:multiply">
<path d="M102.2 61.9697C102.807 63.4434 103.206 64.9914 103.381 66.5768C103.408 66.8268 103.807 66.8321 103.78 66.5768C103.605 64.9542 103.206 63.3742 102.583 61.8633C102.488 61.6293 102.099 61.7304 102.2 61.9697Z" fill="#CCCCCC"/>
</g>
<g style="mix-blend-mode:multiply">
<path d="M104.702 60.8109C105.484 62.109 105.798 63.6305 105.606 65.1307C105.574 65.386 105.973 65.3807 106.005 65.1307C106.202 63.5666 105.862 61.96 105.048 60.6141C104.915 60.396 104.569 60.5928 104.702 60.8162V60.8109Z" fill="#CCCCCC"/>
</g>
<g style="mix-blend-mode:multiply">
<path d="M106.643 60.2607C107.244 61.6173 107.463 63.1175 107.292 64.5964C107.26 64.8518 107.665 64.8465 107.691 64.5964C107.867 63.0484 107.617 61.4843 106.989 60.0586C106.888 59.8245 106.542 60.0267 106.643 60.2607Z" fill="#CCCCCC"/>
</g>
<g style="mix-blend-mode:multiply">
<path d="M108.581 60.2058C109.107 61.2006 109.336 62.3284 109.256 63.4509C109.24 63.7063 109.639 63.7063 109.655 63.4509C109.74 62.2593 109.485 61.0623 108.927 60.0036C108.804 59.7749 108.464 59.977 108.581 60.2058Z" fill="#CCCCCC"/>
</g>
<g style="mix-blend-mode:multiply">
<path d="M125.023 64.1583C125.268 61.9292 125.406 59.6896 125.432 57.4499C125.459 55.439 125.597 53.2312 124.901 51.3054C124.815 51.066 124.427 51.1671 124.517 51.4118C125.225 53.3695 125.065 55.6464 125.028 57.6946C124.991 59.8545 124.853 62.009 124.619 64.153C124.592 64.4083 124.991 64.4083 125.018 64.153L125.023 64.1583Z" fill="#CCCCCC"/>
</g>
<g style="mix-blend-mode:multiply">
<path d="M124.88 63.9988C126.024 62.1848 126.3 60.0249 126.556 57.9342C126.587 57.6788 126.188 57.6841 126.157 57.9342C125.912 59.9504 125.641 62.0411 124.534 63.7967C124.396 64.0148 124.741 64.217 124.88 63.9988Z" fill="#CCCCCC"/>
</g>
<g style="mix-blend-mode:multiply">
<path d="M125.098 64.5079C125.13 65.7581 125.417 66.9764 125.928 68.1148C126.034 68.3489 126.374 68.1467 126.273 67.9127C125.789 66.8434 125.529 65.6783 125.497 64.5079C125.491 64.2526 125.092 64.2526 125.098 64.5079Z" fill="#CCCCCC"/>
</g>
<g style="mix-blend-mode:multiply">
<path d="M125.976 64.3035C126.274 65.2345 126.566 66.1708 126.864 67.1018C126.944 67.3465 127.327 67.2401 127.247 66.9954C126.949 66.0644 126.657 65.1281 126.359 64.1971C126.279 63.9524 125.896 64.0588 125.976 64.3035Z" fill="#CCCCCC"/>
</g>
<g style="mix-blend-mode:multiply">
<path d="M127.418 64.5049C127.508 65.2124 127.758 65.8934 128.162 66.4839C128.226 66.5743 128.338 66.6116 128.434 66.5531C128.519 66.4999 128.567 66.3669 128.503 66.2817C128.136 65.7551 127.891 65.1433 127.811 64.5049C127.795 64.3985 127.731 64.3027 127.609 64.3027C127.513 64.3027 127.396 64.3932 127.407 64.5049H127.418Z" fill="#CCCCCC"/>
</g>
</svg>
