<svg width="222" height="222" viewBox="0 0 222 222" fill="none" xmlns="http://www.w3.org/2000/svg">
<path d="M222 202.494C222 202.566 172.299 202.627 111.005 202.627C49.7112 202.627 0 202.566 0 202.494C0 202.422 49.6907 202.36 111.005 202.36C172.32 202.36 222 202.422 222 202.494Z" fill="#263238"/>
<path d="M60.1057 25.5955C51.847 38.5829 52.3873 56.5923 61.4126 69.06C67.4278 77.3752 76.448 82.9427 83.6106 90.2906C90.7732 97.6333 96.2172 108.46 92.4352 117.999C88.5863 127.709 77.3124 131.661 68.8686 137.81C59.6734 144.509 53.2158 154.857 51.2347 166.059C49.2537 177.261 51.7802 189.199 58.1246 198.641H145.815C145.815 198.641 161.221 169.285 141.416 146.912C121.611 124.539 110.975 124.174 111.705 109.504C112.441 94.8341 122.707 90.0642 128.578 84.5636C134.444 79.063 163.053 66.2248 146.181 25.5955H60.1057Z" fill="#FAFAFA"/>
<path d="M60.1056 25.5955C60.1056 25.5955 60.615 25.5853 61.6132 25.5853C62.6166 25.5853 64.1037 25.5801 66.059 25.575C69.9748 25.5698 75.7429 25.5595 83.1731 25.5492C98.0489 25.5389 119.573 25.5235 146.186 25.5029H146.253L146.273 25.5595C147.472 28.6006 148.681 31.7342 149.541 35.0531C150.426 38.3565 151.146 41.8041 151.403 45.3699C151.671 48.9307 151.558 52.6097 150.848 56.2631C150.117 59.9061 148.81 63.5132 146.885 66.8526C145.928 68.5249 144.801 70.1149 143.582 71.6432C142.352 73.1662 140.989 74.5967 139.543 75.9654C138.097 77.329 136.558 78.6154 134.958 79.8452C133.363 81.0801 131.696 82.2482 130.07 83.4779C129.257 84.0903 128.511 84.7798 127.734 85.4693C126.952 86.1485 126.149 86.802 125.341 87.4452C123.72 88.7419 122.084 90.0385 120.54 91.4536C117.422 94.2424 114.787 97.726 113.336 101.786C112.631 103.808 112.127 105.928 111.963 108.099C111.921 108.64 111.844 109.18 111.829 109.725C111.818 110.271 111.788 110.816 111.813 111.362C111.818 112.453 111.942 113.549 112.143 114.624C112.554 116.78 113.46 118.843 114.777 120.629C116.074 122.435 117.669 124.025 119.326 125.553C122.655 128.599 126.185 131.501 129.571 134.64C132.972 137.758 136.27 141.052 139.45 144.515C141.03 146.254 142.63 147.998 144.009 149.938C145.434 151.842 146.633 153.915 147.683 156.066C149.757 160.389 151.038 165.128 151.46 169.975C151.913 174.822 151.568 179.762 150.606 184.593C150.132 187.012 149.499 189.41 148.722 191.766C147.945 194.123 147.05 196.449 145.939 198.692L145.903 198.764H143.561C113.625 198.764 84.7425 198.764 58.1297 198.759H58.0628L58.0268 198.702C53.8486 192.43 51.3684 185.226 50.6841 178.002C49.9585 170.777 51.07 163.538 53.7199 157.106C56.3339 150.653 60.3989 144.998 65.3129 140.547C67.7622 138.304 70.4893 136.472 73.2268 134.774C75.9642 133.076 78.7274 131.501 81.3362 129.783C83.9347 128.059 86.4406 126.222 88.473 123.979C90.5158 121.751 92.0749 119.137 92.8879 116.322C93.7061 113.507 93.7164 110.554 93.2378 107.775C92.749 104.986 91.7714 102.347 90.5261 99.918C89.2809 97.4842 87.7681 95.251 86.1112 93.2133C84.4595 91.1706 82.6226 89.3542 80.7702 87.6407C77.0602 84.2241 73.2576 81.2345 69.841 78.1626C68.1275 76.6292 66.5067 75.0855 65.0144 73.4956C63.5325 71.8953 62.1741 70.259 61.0112 68.561C58.6648 65.1752 57.0543 61.6042 55.9943 58.1618C54.9343 54.7143 54.4095 51.3799 54.286 48.3132C54.2139 47.5465 54.2448 46.7953 54.2448 46.0646C54.2551 45.3339 54.2345 44.6135 54.3065 43.9189C54.358 43.2242 54.4146 42.545 54.4609 41.8812C54.5381 41.2226 54.6513 40.5846 54.7388 39.9671C55.5106 35.0016 57.008 31.3689 58.176 29.0482C58.4539 28.4565 58.7008 27.9368 58.9684 27.52C59.2205 27.0929 59.4264 26.7327 59.5962 26.4446C59.9358 25.8683 60.1056 25.5853 60.1056 25.5853C60.0696 25.647 59.9255 25.8991 59.6065 26.4651C59.4418 26.7533 59.236 27.1135 58.989 27.5406C58.7266 27.9574 58.4847 28.4771 58.2069 29.0688C57.0543 31.3946 55.5723 35.0222 54.8108 39.9825C54.7233 40.6 54.6153 41.2381 54.5381 41.8967C54.4866 42.5553 54.4403 43.2345 54.3889 43.9292C54.3168 44.6238 54.3374 45.3391 54.3323 46.0697C54.3323 46.8004 54.3065 47.5516 54.3786 48.3132C54.5072 51.3697 55.0372 54.6937 56.1023 58.1309C57.1623 61.563 58.7729 65.1134 61.1193 68.4838C62.2822 70.1715 63.6354 71.8027 65.1174 73.3978C66.6096 74.9826 68.2304 76.5212 69.9439 78.0494C73.3605 81.111 77.1631 84.0954 80.8885 87.5172C82.7409 89.2307 84.5882 91.0522 86.2553 93.1053C87.9225 95.1532 89.4404 97.3915 90.6959 99.8408C91.9463 102.285 92.9394 104.935 93.4334 107.75C93.9171 110.554 93.917 113.538 93.0886 116.389C92.2653 119.234 90.6856 121.884 88.6326 124.133C86.5795 126.402 84.0633 128.249 81.4597 129.978C78.8406 131.707 76.0825 133.282 73.3503 134.98C70.618 136.678 67.9062 138.499 65.4724 140.733C60.5893 145.158 56.5449 150.792 53.9515 157.209C51.317 163.605 50.2158 170.803 50.9413 177.986C51.6257 185.17 54.0956 192.332 58.248 198.569L58.14 198.512C84.758 198.512 113.64 198.512 143.572 198.507H145.831L145.712 198.579C146.813 196.361 147.709 194.035 148.481 191.694C149.252 189.348 149.88 186.96 150.354 184.552C151.311 179.741 151.655 174.827 151.203 170.011C150.786 165.195 149.515 160.486 147.451 156.195C146.407 154.06 145.218 151.996 143.803 150.108C142.435 148.183 140.839 146.444 139.265 144.71C136.09 141.252 132.797 137.964 129.406 134.846C126.03 131.712 122.506 128.81 119.166 125.754C117.509 124.22 115.899 122.62 114.587 120.788C113.254 118.977 112.333 116.867 111.916 114.681C111.716 113.585 111.592 112.478 111.582 111.377C111.556 110.827 111.587 110.276 111.597 109.725C111.618 109.175 111.69 108.629 111.736 108.084C111.901 105.897 112.41 103.757 113.125 101.709C114.592 97.6128 117.257 94.0881 120.396 91.2838C121.95 89.8584 123.591 88.5566 125.212 87.2651C126.025 86.6167 126.823 85.9684 127.6 85.2943C128.361 84.6151 129.128 83.9102 129.946 83.2927C131.583 82.0578 133.245 80.8949 134.835 79.6599C136.43 78.4353 137.963 77.1541 139.404 75.7956C140.839 74.4372 142.198 73.0119 143.422 71.4991C144.632 69.976 145.753 68.3963 146.71 66.7394C148.625 63.4257 149.926 59.8392 150.657 56.2219C151.367 52.5943 151.48 48.9307 151.218 45.3854C150.966 41.8298 150.245 38.3977 149.371 35.1045C148.517 31.7959 147.313 28.6674 146.119 25.6316L146.206 25.6882C119.609 25.6676 98.0952 25.6521 83.2297 25.6419C75.7944 25.6316 70.0211 25.6213 66.1053 25.6161C64.15 25.611 62.6526 25.6058 61.6493 25.6058C60.6459 25.6058 60.1262 25.5955 60.1262 25.5955H60.1056Z" fill="#263238"/>
<path d="M142.686 49.4186C155.601 51.5437 135.235 74.4158 123.709 83.4411C117.035 88.669 109.867 94.3342 106.698 102.197C103.101 111.119 105.766 121.143 104.022 130.116C103.734 131.609 101.532 131.372 101.552 129.854C101.64 123.962 101.48 118.076 100.502 112.277C99.1183 104.054 95.9538 95.9139 90.1908 89.8885C85.4877 84.9693 79.3182 81.6967 74.2961 77.1017C66.9688 70.3868 59.4409 61.7268 58.7051 51.8113C58.7051 51.8113 72.773 40.4808 80.584 41.9113C89.7122 43.5836 98.6964 57.667 112.836 56.0513C122.711 54.9244 127.692 46.9488 142.675 49.4135L142.686 49.4186Z" fill="#E8505B"/>
<path d="M143.834 171.853C143.51 168.621 142.646 164.968 139.78 163.445C138.046 162.524 135.931 162.627 134.027 163.126C132.123 163.625 130.338 164.489 128.454 165.05C124.744 166.151 120.679 166.023 117.047 164.69C113.542 163.404 110.532 161.078 107.28 159.246C104.028 157.414 100.215 156.056 96.593 156.956C90.3463 158.51 87.0943 166.033 80.9197 167.849C78.1771 168.657 75.2287 168.204 72.4346 167.572C69.6457 166.939 66.8414 166.126 63.9856 166.234C61.7473 166.316 59.4164 167.093 57.8418 168.626L57.8573 168.606C57.8573 168.606 57.8264 168.637 57.8109 168.657C57.5537 168.915 57.317 169.187 57.1009 169.486C55.1867 172.038 54.878 175.475 55.4697 178.593C56.1284 182.087 57.7595 185.313 59.509 188.406C61.5724 192.049 63.9136 195.677 67.3199 198.1C71.5239 201.095 76.8135 199.026 81.9591 199.433C93.9636 200.38 106.884 201.028 118.889 200.097C125.233 199.603 131.176 200.292 136.209 196.402C139.749 193.665 142.054 189.538 143.165 185.2C144.277 180.863 144.272 176.314 143.819 171.858L143.834 171.853Z" fill="#E8505B"/>
<g opacity="0.24">
<path d="M121.172 165.667C120.493 166.707 120.205 168.096 120.858 169.151C121.512 170.206 122.397 171.163 122.68 172.372C123.127 174.266 121.985 176.123 121.131 177.873C119.608 181.006 118.918 184.577 119.428 188.025C119.942 191.472 121.707 194.76 124.465 196.891C125.685 197.832 127.27 198.563 128.741 198.1C130.125 197.668 131.021 196.263 131.293 194.838C131.566 193.412 131.34 191.946 131.16 190.51C130.321 183.831 130.491 177.029 131.669 170.401C131.865 169.295 132.055 168.029 131.35 167.149C130.902 166.589 130.187 166.326 129.503 166.095C126.827 165.204 123.94 166.192 121.167 165.667" fill="black"/>
</g>
<path d="M51.6931 202.627C51.6931 202.627 51.4513 198.604 56.6998 196.36H148.934C148.934 196.36 153.745 198.794 154.337 202.54L51.6931 202.622V202.627Z" fill="#263238"/>
<path d="M146.983 26.0889C146.936 26.1095 146.885 26.1352 146.838 26.1558L60.1101 25.6C60.1101 25.6 59.8014 25.4045 59.3434 25.0443C56.8735 23.1096 58.2577 19.1424 61.3965 19.1681L145.573 19.8473C149.046 19.873 150.127 24.6069 146.988 26.094L146.983 26.0889Z" fill="#263238"/>
<g opacity="0.24">
<path d="M133.099 59.1699C133.274 59.5044 132.621 60.2299 131.381 61.331C130.135 62.4373 128.314 63.9501 125.998 65.818C123.672 67.6704 120.853 69.8984 117.261 71.9823C115.46 73.0217 113.459 73.9634 111.272 74.7301C110.171 75.1006 109.028 75.4453 107.829 75.682C106.636 75.9393 105.39 76.1091 104.109 76.1657C101.557 76.3098 98.9583 75.9393 96.6325 75.1417C94.3222 74.339 92.3463 73.207 90.6225 72.075C88.8936 70.9275 87.4014 69.7955 85.9967 68.7149C84.5971 67.6292 83.321 66.5847 82.1838 65.5967C77.63 61.6501 75.2322 58.748 75.6953 58.1871C76.1738 57.6057 79.4001 59.4529 84.4221 62.5402C85.6777 63.3121 87.0515 64.156 88.5283 65.0616C89.9999 65.9569 91.5848 66.95 93.2005 67.8659C94.8213 68.7818 96.5142 69.6154 98.2688 70.1557C100.013 70.6754 101.871 70.9224 103.847 70.8143C107.798 70.6136 111.632 69.2192 114.951 67.6189C118.29 65.9878 121.275 64.1354 123.878 62.6792C126.477 61.2075 128.705 60.1167 130.321 59.5352C131.941 58.9538 132.934 58.8509 133.099 59.1699Z" fill="black"/>
</g>
<path d="M101.619 140.87C102.571 140.536 103.708 141.493 103.544 142.486C103.374 143.479 101.984 144.014 101.197 143.386C100.41 142.759 100.616 141.287 101.547 140.901" fill="#E8505B"/>
<path d="M70.6017 73.525C70.6017 73.525 70.4885 73.4273 70.293 73.2163C70.0872 72.9899 69.8042 72.6812 69.4543 72.2952C69.0992 71.8887 68.631 71.4153 68.1525 70.8133C67.6688 70.2113 67.1182 69.5269 66.5162 68.7757C65.9553 67.9833 65.3224 67.1342 64.6844 66.1875C64.3808 65.7038 64.0669 65.2047 63.7427 64.6901C63.5832 64.4328 63.4134 64.1755 63.259 63.9028C63.1098 63.6301 62.9606 63.3523 62.8062 63.0693C61.5404 60.8412 60.4135 58.2273 59.6108 55.3766C58.8081 52.5209 58.4325 49.7011 58.3965 47.1335C58.3965 46.4903 58.4274 45.8676 58.4428 45.2605C58.4582 44.9569 58.4531 44.6584 58.484 44.3651C58.5148 44.0718 58.5457 43.7837 58.5766 43.5007C58.6435 42.9347 58.6846 42.3841 58.7618 41.8593C58.8544 41.3396 58.9471 40.8404 59.0345 40.3619C59.1838 39.3997 59.4359 38.561 59.616 37.8148C59.7137 37.4444 59.7909 37.0945 59.8887 36.7806C59.9916 36.4719 60.0842 36.1837 60.1717 35.9213C60.3364 35.4273 60.4701 35.0311 60.5679 34.7378C60.6605 34.4702 60.712 34.3313 60.7223 34.3313C60.7326 34.3313 60.6965 34.4805 60.6194 34.7532C60.5319 35.0517 60.4187 35.4479 60.2695 35.947C60.1923 36.2094 60.1048 36.4976 60.0122 36.8063C59.9196 37.1202 59.8527 37.4752 59.7601 37.8457C59.5903 38.5918 59.3536 39.4357 59.2198 40.3928C59.1374 40.8713 59.0551 41.3653 58.9676 41.885C58.8956 42.4047 58.8596 42.9553 58.7978 43.5161C58.7721 43.7991 58.7412 44.0873 58.7104 44.3754C58.6846 44.6687 58.6898 44.9672 58.6795 45.2656C58.6692 45.8676 58.6383 46.4903 58.6435 47.1283C58.6898 49.6754 59.0705 52.4694 59.8681 55.3046C60.6657 58.1347 61.7771 60.728 63.0223 62.9509C63.1716 63.2339 63.3208 63.5118 63.47 63.7845C63.6192 64.0572 63.789 64.3093 63.9485 64.5718C64.2676 65.0863 64.5763 65.5854 64.8747 66.0691C65.5025 67.0159 66.1251 67.8701 66.6757 68.6625C67.2674 69.424 67.8026 70.1084 68.276 70.7207C68.7391 71.333 69.197 71.8116 69.5366 72.2335C69.8711 72.6348 70.1386 72.9487 70.3393 73.1854C70.5194 73.4067 70.612 73.525 70.6069 73.5302L70.6017 73.525Z" fill="#263238"/>
<path d="M65.7188 149.969C65.7188 149.969 65.7496 149.907 65.8165 149.799C65.8937 149.681 65.9915 149.521 66.1201 149.316C66.259 149.099 66.4288 148.837 66.6244 148.533C66.7273 148.379 66.8353 148.214 66.9485 148.034C67.0772 147.864 67.2212 147.695 67.3705 147.504C67.6741 147.134 68.0137 146.722 68.379 146.269C68.7752 145.842 69.228 145.4 69.7066 144.916C70.6842 143.969 71.8625 142.961 73.2364 141.942C75.9687 139.873 79.4934 137.815 83.3114 135.412C85.205 134.193 87.2015 132.906 89.0899 131.342C90.9783 129.788 92.7998 127.997 94.2766 125.862C97.1838 121.54 98.3622 116.533 98.4702 112.057C98.5886 107.549 97.6264 103.53 96.4995 100.33C95.3572 97.1189 94.045 94.6697 93.0931 93.0231C92.6146 92.1947 92.2235 91.5669 91.9559 91.1398C91.8273 90.934 91.7295 90.7745 91.6524 90.6561C91.5855 90.5481 91.5546 90.4863 91.5546 90.4863C91.5546 90.4863 91.6009 90.5378 91.6729 90.6407C91.7553 90.759 91.8633 90.9134 91.9971 91.1141C92.2801 91.5309 92.6866 92.1535 93.1806 92.9716C94.1634 94.6079 95.5064 97.0469 96.6796 100.268C97.8373 103.479 98.8253 107.518 98.7224 112.067C98.7018 113.199 98.6092 114.362 98.4394 115.535C98.2747 116.713 98.0277 117.902 97.6881 119.09C97.0243 121.468 95.9643 123.835 94.5082 126.016C93.0159 128.183 91.1738 129.989 89.27 131.548C87.3661 133.122 85.3645 134.404 83.4606 135.623C79.6272 138.016 76.1025 140.053 73.3651 142.096C71.9912 143.105 70.8077 144.093 69.8249 145.024C69.3464 145.503 68.8884 145.935 68.4922 146.357C68.1217 146.799 67.777 147.206 67.4682 147.571C67.3139 147.756 67.1647 147.921 67.036 148.091C66.9177 148.266 66.8045 148.43 66.7015 148.58C66.4957 148.878 66.3208 149.135 66.1767 149.346C66.0378 149.542 65.9297 149.696 65.8474 149.815C65.7702 149.918 65.7342 149.974 65.729 149.969H65.7188Z" fill="#263238"/>
<path d="M60.9331 159.061C60.9331 159.061 60.9022 159.149 60.8199 159.298C60.7221 159.473 60.5986 159.689 60.4545 159.951C60.2899 160.229 60.0943 160.579 59.8937 160.996C59.693 161.413 59.4357 161.871 59.2196 162.411C59.1064 162.678 58.9829 162.956 58.8594 163.25C58.7359 163.543 58.633 163.857 58.5146 164.176C58.2625 164.809 58.067 165.514 57.8457 166.249C57.4495 167.731 57.1202 169.388 56.9452 171.153C56.7909 172.918 56.8166 174.611 56.935 176.139C57.0224 176.901 57.0842 177.631 57.218 178.3C57.2797 178.635 57.3209 178.964 57.3878 179.273C57.4598 179.582 57.5267 179.875 57.5936 180.163C57.7068 180.734 57.8766 181.233 58.0001 181.676C58.1184 182.123 58.2471 182.499 58.3603 182.803C58.458 183.086 58.5352 183.322 58.6021 183.513C58.6536 183.677 58.6793 183.765 58.669 183.77C58.6587 183.77 58.6227 183.693 58.5507 183.533C58.4735 183.348 58.3757 183.117 58.2625 182.839C58.1339 182.535 57.9898 182.165 57.856 181.717C57.7171 181.274 57.537 180.775 57.4083 180.204C57.3363 179.921 57.2643 179.623 57.1871 179.314C57.1099 179.005 57.0636 178.676 56.9967 178.336C56.8526 177.662 56.7806 176.926 56.688 176.16C56.5542 174.616 56.5233 172.908 56.6777 171.127C56.8526 169.347 57.1922 167.675 57.6039 166.183C57.8354 165.442 58.0413 164.737 58.3037 164.099C58.4323 163.78 58.5352 163.461 58.669 163.172C58.8028 162.884 58.9263 162.601 59.0498 162.339C59.2813 161.798 59.5489 161.341 59.765 160.934C59.976 160.522 60.1869 160.183 60.367 159.905C60.5317 159.653 60.6655 159.442 60.7787 159.272C60.8765 159.128 60.9279 159.056 60.9382 159.061H60.9331Z" fill="#263238"/>
<path d="M124.549 171.424C124.549 171.424 124.518 171.455 124.446 171.501C124.358 171.553 124.255 171.62 124.127 171.702C123.823 171.887 123.406 172.134 122.876 172.453C122.604 172.618 122.3 172.793 121.971 172.989C121.631 173.174 121.255 173.349 120.854 173.555C120.046 173.946 119.146 174.44 118.086 174.841C117.561 175.057 117.01 175.283 116.439 175.515C115.868 175.747 115.245 175.922 114.618 176.143C113.367 176.601 111.978 176.925 110.532 177.306C107.609 177.954 104.342 178.433 100.884 178.546C97.4264 178.618 94.1332 178.309 91.1797 177.815C89.7132 177.512 88.3136 177.259 87.0375 176.868C86.3994 176.683 85.7717 176.539 85.1851 176.338C84.6036 176.133 84.0428 175.937 83.5076 175.752C82.4271 175.407 81.506 174.959 80.6776 174.609C80.2659 174.429 79.88 174.27 79.5301 174.105C79.1905 173.925 78.8818 173.766 78.5988 173.616C78.0533 173.328 77.6263 173.097 77.3124 172.932C77.1786 172.86 77.0705 172.798 76.9831 172.747C76.911 172.706 76.875 172.68 76.875 172.675C76.875 172.675 76.9162 172.685 76.9985 172.721C77.0911 172.762 77.2043 172.819 77.3432 172.881C77.6623 173.035 78.0996 173.251 78.6502 173.519C78.9332 173.657 79.2471 173.817 79.5919 173.987C79.9418 174.146 80.3328 174.296 80.7445 174.47C81.578 174.805 82.4991 175.237 83.5797 175.572C84.1148 175.752 84.6705 175.942 85.2571 176.143C85.8386 176.338 86.4663 176.477 87.1044 176.657C88.3753 177.038 89.7698 177.28 91.2311 177.573C94.1692 178.052 97.4418 178.35 100.884 178.283C104.321 178.175 107.573 177.707 110.486 177.074C111.927 176.704 113.311 176.39 114.561 175.942C115.189 175.731 115.806 175.556 116.377 175.335C116.949 175.109 117.499 174.887 118.019 174.681C119.079 174.296 119.979 173.812 120.792 173.436C121.194 173.241 121.574 173.071 121.914 172.891C122.249 172.706 122.552 172.531 122.83 172.376C123.365 172.078 123.792 171.841 124.101 171.671C124.235 171.599 124.348 171.543 124.435 171.491C124.513 171.45 124.554 171.435 124.554 171.44L124.549 171.424Z" fill="#263238"/>
<path d="M129.915 62.5254C129.915 62.5254 129.879 62.5614 129.807 62.6283C129.719 62.7003 129.606 62.793 129.467 62.9062C129.153 63.1583 128.711 63.5082 128.155 63.9559C127.007 64.8615 125.356 66.1736 123.261 67.7378C121.167 69.2918 118.625 71.103 115.61 72.7959C114.087 73.6089 112.461 74.4425 110.681 75.0651C108.905 75.6929 106.991 76.1714 104.99 76.3309C100.971 76.6036 97.1581 75.5848 94.0604 74.0566C92.5116 73.2796 91.112 72.41 89.8359 71.5456C88.5804 70.6605 87.433 69.8012 86.4193 68.9779C84.3816 67.3416 82.7865 65.9575 81.6751 65.0107C81.1348 64.5424 80.7077 64.1771 80.4041 63.9095C80.2703 63.7912 80.1623 63.6934 80.08 63.6162C80.0079 63.5494 79.9719 63.5133 79.977 63.5082C79.977 63.5082 80.0234 63.5339 80.1005 63.5957C80.188 63.6677 80.3012 63.7552 80.4453 63.8684C80.7592 64.1205 81.1965 64.4756 81.7471 64.9284C82.874 65.8546 84.4897 67.213 86.5376 68.8287C87.5565 69.6417 88.7091 70.4856 89.9646 71.3603C91.2355 72.2093 92.63 73.0686 94.1685 73.8353C97.2455 75.3378 101.007 76.3309 104.974 76.0634C106.945 75.909 108.833 75.4356 110.593 74.8181C112.358 74.2058 113.974 73.3825 115.492 72.5798C118.502 70.9075 121.044 69.1168 123.153 67.5835C125.258 66.0398 126.93 64.7534 128.093 63.8735C128.664 63.4464 129.117 63.1068 129.436 62.865C129.58 62.7569 129.699 62.6746 129.791 62.6077C129.874 62.5511 129.915 62.5254 129.92 62.5254H129.915Z" fill="#263238"/>
<g opacity="0.24">
<path d="M83.5059 175.748C85.9449 173.865 89.3718 174.323 92.3819 174.956C95.3972 175.589 98.4331 176.618 101.484 176.191C103.785 175.867 105.894 174.74 108.163 174.246C110.433 173.752 113.185 174.117 114.441 176.067C104.459 179.314 93.4162 179.196 83.5059 175.743" fill="black"/>
</g>
<path d="M168.599 161.782L157.515 149.376L157.402 164.458L160.736 174.132L127.589 179.879L126.184 153.724L123.796 133.636C123.503 131.177 124.908 128.825 127.213 127.919L136.336 124.328L149.185 126.685L154.351 128.65C156.522 129.473 158.457 130.822 159.985 132.566L175.545 150.359" fill="#E8505B"/>
<path d="M156.742 146.408C156.742 146.357 157.473 146.465 158.615 146.274C159.747 146.099 161.311 145.544 162.608 144.35C163.905 143.151 164.579 141.638 164.846 140.527C165.124 139.405 165.078 138.669 165.129 138.669C165.145 138.669 165.171 138.849 165.176 139.179C165.181 139.508 165.15 139.986 165.032 140.568C164.805 141.721 164.136 143.3 162.788 144.545C161.44 145.786 159.809 146.326 158.641 146.46C158.054 146.532 157.576 146.526 157.246 146.49C156.917 146.46 156.742 146.418 156.742 146.403V146.408Z" fill="white"/>
<path d="M157.71 163.814C157.788 163.814 157.808 158.586 157.757 152.144C157.705 145.697 157.597 140.474 157.52 140.474C157.443 140.474 157.422 145.697 157.474 152.144C157.525 158.586 157.633 163.809 157.71 163.809V163.814Z" fill="#263238"/>
<path d="M156.496 167.653L136.464 159.59C134.848 158.942 133.742 157.429 133.608 155.695L132.142 136.492C132.142 136.492 132.317 128.326 127.212 127.93L124.31 129.072C120.559 131.063 119.633 136.523 120.142 140.742C120.868 146.732 121.171 155.211 121.984 160.408C122.648 164.664 125.087 168.405 129.25 169.501L153.918 174.842L156.496 167.659V167.653Z" fill="#E8505B"/>
<path d="M132.436 139.414C132.436 139.414 132.467 139.563 132.498 139.851C132.529 140.165 132.575 140.587 132.627 141.117C132.73 142.244 132.874 143.829 133.049 145.774C133.218 147.75 133.419 150.086 133.64 152.684C133.697 153.333 133.754 154.002 133.81 154.681C133.872 155.36 133.913 156.06 134.067 156.734C134.217 157.413 134.541 158.051 135.061 158.535C135.58 159.018 136.229 159.379 136.908 159.682C142.429 162.07 147.523 164.046 151.218 165.43C153.049 166.104 154.542 166.654 155.607 167.046C156.106 167.231 156.502 167.375 156.801 167.483C157.073 167.586 157.212 167.642 157.212 167.653C157.212 167.663 157.063 167.622 156.785 167.534C156.487 167.437 156.085 167.308 155.576 167.143C154.526 166.793 153.019 166.274 151.156 165.605C147.441 164.267 142.341 162.322 136.8 159.924C136.11 159.61 135.436 159.245 134.88 158.725C134.32 158.211 133.959 157.5 133.81 156.79C133.651 156.08 133.615 155.375 133.553 154.696C133.496 154.017 133.445 153.348 133.393 152.7C133.193 150.101 133.013 147.76 132.858 145.784C132.714 143.834 132.601 142.249 132.519 141.122C132.488 140.592 132.462 140.165 132.441 139.851C132.426 139.563 132.421 139.409 132.431 139.409L132.436 139.414Z" fill="#263238"/>
<path d="M120.961 149.854C120.961 149.854 120.982 149.942 121.003 150.112C121.018 150.312 121.044 150.554 121.07 150.853C121.131 151.537 121.208 152.458 121.306 153.58C121.414 154.727 121.553 156.096 121.754 157.609C121.96 159.116 122.202 160.784 122.659 162.471C122.876 163.326 123.179 164.113 123.637 164.792C124.095 165.476 124.605 166.089 125.135 166.629C126.194 167.71 127.327 168.507 128.34 169.032C130.388 170.097 131.88 170.113 131.86 170.185C131.86 170.195 131.767 170.19 131.597 170.179C131.428 170.169 131.175 170.149 130.856 170.082C130.218 169.968 129.297 169.716 128.253 169.202C127.208 168.687 126.045 167.895 124.96 166.804C124.419 166.253 123.894 165.636 123.421 164.941C122.943 164.241 122.618 163.403 122.402 162.549C121.939 160.83 121.702 159.163 121.512 157.645C121.327 156.127 121.203 154.753 121.121 153.6C121.039 152.448 120.992 151.511 120.967 150.868C120.961 150.57 120.956 150.323 120.951 150.122C120.951 149.952 120.951 149.86 120.967 149.86L120.961 149.854Z" fill="#263238"/>
<path d="M129.522 163.295C129.496 163.29 129.579 162.858 129.887 162.23C130.191 161.602 130.752 160.784 131.57 160.084C132.388 159.384 133.283 158.957 133.952 158.757C134.626 158.551 135.059 158.535 135.064 158.561C135.074 158.607 134.652 158.69 134.014 158.932C133.376 159.173 132.532 159.611 131.745 160.28C130.958 160.954 130.392 161.721 130.057 162.312C129.718 162.904 129.568 163.305 129.527 163.29L129.522 163.295Z" fill="#263238"/>
<path d="M133.465 148.692C133.465 148.692 133.511 148.708 133.593 148.749C133.686 148.8 133.804 148.862 133.954 148.939C134.273 149.089 134.746 149.33 135.384 149.546C136.645 149.984 138.616 150.426 140.998 150.025C143.349 149.639 146.082 148.255 147.975 145.687C148.912 144.422 149.637 142.862 149.802 141.149C149.884 140.3 149.817 139.415 149.534 138.581C149.262 137.748 148.757 136.981 148.089 136.374C147.425 135.767 146.601 135.34 145.737 135.232C144.883 135.098 143.972 135.324 143.38 135.895C143.097 136.183 142.917 136.564 142.922 136.96C142.922 137.357 143.072 137.743 143.308 138.062C143.782 138.71 144.584 139.014 145.346 139.127C146.905 139.343 148.438 139.06 149.725 138.499C151.016 137.938 152.071 137.099 152.828 136.178C153.589 135.252 154.057 134.249 154.335 133.343C154.618 132.432 154.701 131.604 154.716 130.935C154.726 130.261 154.654 129.741 154.603 129.391C154.572 129.227 154.551 129.098 154.531 128.995C154.515 128.908 154.51 128.856 154.515 128.856C154.515 128.856 154.798 129.571 154.824 130.935C154.824 131.614 154.757 132.453 154.484 133.389C154.212 134.316 153.749 135.345 152.977 136.302C152.21 137.254 151.135 138.118 149.817 138.705C148.5 139.286 146.931 139.59 145.315 139.374C144.518 139.261 143.648 138.947 143.108 138.221C142.845 137.871 142.665 137.429 142.665 136.966C142.66 136.502 142.871 136.045 143.2 135.715C143.869 135.067 144.862 134.835 145.778 134.974C146.704 135.093 147.579 135.545 148.274 136.183C148.974 136.822 149.504 137.629 149.792 138.504C150.085 139.379 150.157 140.3 150.07 141.18C149.895 142.95 149.143 144.55 148.181 145.842C146.236 148.456 143.432 149.85 141.034 150.215C138.605 150.601 136.614 150.118 135.353 149.649C134.077 149.161 133.475 148.703 133.475 148.703L133.465 148.692Z" fill="white"/>
<path d="M120.343 143.567C120.343 143.567 120.441 143.408 120.672 143.156C120.904 142.909 121.259 142.569 121.753 142.214C122.725 141.484 124.336 140.82 126.183 140.645C127.109 140.547 128.005 140.588 128.792 140.753C129.584 140.918 130.264 141.185 130.804 141.458C131.344 141.731 131.756 142.003 132.029 142.204C132.301 142.405 132.44 142.528 132.43 142.544C132.404 142.585 131.802 142.132 130.722 141.633C129.651 141.123 128.015 140.696 126.209 140.912C124.398 141.082 122.833 141.7 121.856 142.374C120.863 143.032 120.374 143.609 120.338 143.567H120.343Z" fill="white"/>
<path d="M123.549 129.839C123.591 129.792 124.064 130.451 125.17 131.017C125.716 131.3 126.426 131.537 127.234 131.624C128.042 131.712 128.952 131.619 129.817 131.269C130.676 130.904 131.386 130.328 131.896 129.695C132.41 129.062 132.739 128.398 132.93 127.806C133.311 126.623 133.182 125.825 133.244 125.825C133.259 125.825 133.3 126.016 133.311 126.371C133.326 126.726 133.285 127.245 133.11 127.858C132.94 128.47 132.616 129.175 132.091 129.844C131.571 130.508 130.83 131.125 129.92 131.511C129.004 131.882 128.047 131.969 127.208 131.866C126.364 131.763 125.639 131.496 125.083 131.182C124.527 130.868 124.131 130.528 123.889 130.271C123.647 130.009 123.539 129.844 123.549 129.839Z" fill="white"/>
<path d="M141.002 161.411C141.002 161.411 141.007 161.282 141.043 161.03C141.1 160.788 141.177 160.423 141.398 159.996C141.805 159.132 142.808 158.051 144.398 157.392C145.962 156.687 148.118 156.554 150.285 157.181C151.345 157.495 152.559 157.886 153.351 158.921C153.742 159.43 153.871 160.186 153.578 160.804C153.295 161.427 152.739 161.854 152.152 162.152C151.556 162.445 150.907 162.61 150.254 162.62C149.61 162.631 148.936 162.471 148.432 162.054C147.923 161.643 147.655 161.01 147.619 160.403C147.573 159.79 147.696 159.204 147.892 158.669C148.746 156.528 150.47 155.164 152.019 154.49C153.593 153.801 155.018 153.729 155.96 153.811C156.907 153.909 157.401 154.115 157.401 154.115C157.391 154.151 156.891 153.981 155.955 153.914C155.024 153.863 153.629 153.965 152.101 154.66C151.339 155.005 150.557 155.504 149.852 156.183C149.153 156.862 148.52 157.727 148.129 158.746C147.943 159.255 147.835 159.816 147.876 160.377C147.918 160.933 148.154 161.483 148.602 161.843C149.044 162.209 149.652 162.358 150.254 162.342C150.861 162.332 151.473 162.173 152.034 161.9C152.585 161.622 153.094 161.221 153.336 160.686C153.588 160.156 153.485 159.523 153.14 159.065C152.801 158.596 152.307 158.262 151.802 158C151.293 157.742 150.748 157.567 150.218 157.408C148.093 156.78 146.003 156.893 144.47 157.557C142.911 158.18 141.913 159.204 141.491 160.032C141.053 160.866 141.038 161.411 141.002 161.401V161.411Z" fill="white"/>
<path d="M127.666 168.647C127.656 168.595 128.428 168.533 129.585 168.117C130.738 167.715 132.266 166.887 133.522 165.503C134.777 164.113 135.441 162.508 135.729 161.319C136.022 160.126 136.012 159.354 136.064 159.354C136.079 159.354 136.1 159.544 136.095 159.894C136.089 160.244 136.043 160.748 135.92 161.361C135.678 162.58 135.019 164.247 133.728 165.678C132.436 167.108 130.841 167.931 129.652 168.292C129.055 168.477 128.556 168.575 128.212 168.616C127.867 168.657 127.671 168.657 127.671 168.641L127.666 168.647Z" fill="white"/>
<path d="M121.171 153.719C121.171 153.719 121.253 153.678 121.413 153.621C121.573 153.57 121.814 153.492 122.128 153.415C122.751 153.266 123.687 153.055 124.855 153.137C125.437 153.184 126.075 153.317 126.708 153.595C127.341 153.873 127.968 154.316 128.437 154.954C128.895 155.592 129.178 156.42 129.111 157.29C129.08 157.722 128.946 158.154 128.715 158.54C128.478 158.921 128.128 159.266 127.665 159.42C127.207 159.564 126.672 159.492 126.312 159.152C125.957 158.808 125.869 158.324 125.843 157.902C125.812 157.048 125.998 156.23 126.317 155.52C126.955 154.084 128.138 153.142 129.239 152.746C130.346 152.335 131.329 152.365 131.961 152.479C132.28 152.535 132.527 152.607 132.687 152.664C132.846 152.726 132.929 152.762 132.924 152.767C132.913 152.793 132.579 152.659 131.946 152.582C131.318 152.504 130.366 152.51 129.306 152.926C128.257 153.328 127.14 154.244 126.543 155.623C126.245 156.302 126.075 157.084 126.106 157.892C126.126 158.283 126.219 158.7 126.492 158.962C126.764 159.219 127.202 159.286 127.583 159.168C127.963 159.044 128.277 158.746 128.488 158.406C128.699 158.062 128.817 157.665 128.848 157.269C128.915 156.477 128.658 155.695 128.236 155.098C127.804 154.501 127.212 154.074 126.615 153.796C126.013 153.518 125.401 153.379 124.835 153.323C123.698 153.22 122.771 153.395 122.144 153.513C121.516 153.642 121.171 153.734 121.166 153.714L121.171 153.719Z" fill="white"/>
<g opacity="0.3">
<path d="M150.742 165.364C148.602 164.155 146.507 163.224 144.264 162.205C142.026 161.186 139.834 159.879 138.367 157.903C135.604 154.178 135.918 148.801 133.088 145.122C133.273 147.591 133.458 150.066 133.644 152.536C133.813 154.8 133.464 157.044 134.925 158.582C136.155 159.879 138.552 160.872 140.25 161.433C143.662 162.56 147.336 164.227 150.742 165.354" fill="black"/>
</g>
<path d="M185.543 193.585C185.543 193.585 202.302 198.221 202.976 198.458C203.984 198.813 203.815 202.513 202.245 202.456C201.504 202.43 189.371 202.909 187.838 202.811C186.304 202.713 181.684 200.892 181.684 200.892L185.543 193.58V193.585Z" fill="#E8505B"/>
<path d="M192.525 199.982C192.607 199.992 192.72 199.107 193.266 198.181C193.796 197.25 194.501 196.704 194.449 196.637C194.418 196.57 193.59 197.044 193.019 198.042C192.442 199.03 192.453 199.987 192.525 199.982Z" fill="#263238"/>
<path d="M190.777 199.189C190.859 199.205 191.029 198.412 191.476 197.538C191.914 196.658 192.449 196.051 192.387 195.994C192.341 195.937 191.687 196.488 191.224 197.414C190.756 198.335 190.705 199.189 190.777 199.195V199.189Z" fill="#263238"/>
<path d="M189.14 198.748C189.222 198.742 189.16 197.904 189.531 196.977C189.886 196.041 190.503 195.47 190.441 195.408C190.405 195.346 189.654 195.861 189.268 196.875C188.867 197.883 189.068 198.773 189.14 198.748Z" fill="#263238"/>
<path d="M189.437 196.586C189.468 196.591 189.617 196.128 189.617 195.341C189.617 194.95 189.571 194.481 189.447 193.972C189.386 193.72 189.303 193.457 189.2 193.195C189.144 193.061 189.082 192.907 188.933 192.783C188.778 192.644 188.49 192.67 188.356 192.814C188.202 192.948 188.156 193.138 188.135 193.288C188.12 193.442 188.109 193.586 188.115 193.73C188.115 194.018 188.156 194.296 188.218 194.548C188.341 195.058 188.542 195.49 188.732 195.83C189.123 196.509 189.463 196.859 189.483 196.838C189.519 196.812 189.242 196.421 188.907 195.737C188.742 195.397 188.573 194.975 188.47 194.492C188.418 194.25 188.387 193.993 188.387 193.725C188.392 193.468 188.387 193.144 188.542 193.02C188.624 192.953 188.696 192.948 188.763 193C188.835 193.056 188.897 193.169 188.948 193.293C189.051 193.545 189.139 193.792 189.2 194.034C189.334 194.517 189.396 194.965 189.422 195.341C189.473 196.097 189.396 196.576 189.442 196.581L189.437 196.586Z" fill="#263238"/>
<path d="M189.417 196.41C189.423 196.379 189.021 196.24 188.337 196.235C187.997 196.235 187.586 196.271 187.148 196.379C186.932 196.436 186.701 196.493 186.464 196.632C186.232 196.75 185.996 197.069 186.083 197.398C186.155 197.712 186.423 197.928 186.685 197.995C186.953 198.067 187.21 198.041 187.436 197.995C187.894 197.887 188.254 197.661 188.527 197.46C189.062 197.038 189.325 196.714 189.304 196.693C189.273 196.657 188.959 196.935 188.409 197.3C188.136 197.475 187.791 197.666 187.38 197.743C187.174 197.784 186.958 197.794 186.757 197.733C186.562 197.676 186.397 197.527 186.351 197.337C186.304 197.151 186.418 196.976 186.598 196.868C186.778 196.755 186.999 196.693 187.205 196.632C187.622 196.513 188.007 196.457 188.332 196.436C188.985 196.39 189.397 196.457 189.407 196.41H189.417Z" fill="#263238"/>
<path d="M195.103 200.157C195.185 200.147 195.103 199.431 195.432 198.644C195.746 197.852 196.307 197.399 196.25 197.332C196.224 197.265 195.519 197.661 195.169 198.536C194.809 199.411 195.03 200.183 195.097 200.152L195.103 200.157Z" fill="#263238"/>
<path d="M183.407 200.935C183.407 200.935 183.628 201.059 184.055 201.239C184.487 201.403 185.115 201.63 185.918 201.815C187.518 202.216 189.808 202.448 192.314 202.422C194.825 202.396 197.089 202.278 198.73 202.216C199.507 202.175 200.156 202.139 200.67 202.113C201.128 202.083 201.38 202.057 201.38 202.036C201.38 202.016 201.123 202.005 200.665 202.005C200.15 202.005 199.497 202.016 198.72 202.021C197.022 202.052 194.784 202.098 192.309 202.144C189.808 202.17 187.554 201.974 185.954 201.625C184.354 201.295 183.417 200.884 183.396 200.935H183.407Z" fill="#263238"/>
<path d="M182.914 201.315C182.935 201.356 183.398 201.083 184.17 200.744C184.936 200.414 186.084 200.023 187.339 200.219C188.6 200.414 189.495 201.258 190.082 201.85C190.668 202.462 191.013 202.864 191.049 202.838C191.075 202.817 190.787 202.37 190.231 201.716C189.948 201.392 189.588 201.016 189.12 200.677C188.657 200.337 188.06 200.044 187.391 199.941C186.037 199.735 184.849 200.188 184.092 200.564C183.326 200.955 182.904 201.284 182.919 201.31L182.914 201.315Z" fill="#263238"/>
<path d="M167.754 188.962C167.754 188.962 151.895 199.346 151.324 199.773C150.47 200.416 151.447 203.493 152.929 202.958C153.629 202.706 166.936 199.006 168.366 198.445C169.797 197.885 173.651 194.751 173.651 194.751L167.754 188.957V188.962Z" fill="#E8505B"/>
<path d="M163.046 197.175C163.118 197.16 162.835 196.244 161.986 195.477C161.142 194.7 160.205 194.505 160.2 194.577C160.169 194.659 161.013 194.958 161.795 195.688C162.593 196.404 162.968 197.217 163.046 197.18V197.175Z" fill="#263238"/>
<path d="M164.471 195.889C164.537 195.863 164.229 195.065 163.503 194.33C162.783 193.589 161.99 193.264 161.965 193.331C161.923 193.403 162.618 193.82 163.302 194.525C163.992 195.225 164.393 195.925 164.471 195.889Z" fill="#263238"/>
<path d="M165.897 194.972C165.969 194.972 165.892 194.066 165.202 193.228C164.523 192.384 163.653 192.116 163.638 192.188C163.602 192.265 164.358 192.62 164.981 193.403C165.619 194.174 165.809 194.993 165.892 194.972H165.897Z" fill="#263238"/>
<path d="M164.956 193.001C164.997 192.981 164.781 192.554 164.595 191.813C164.503 191.442 164.431 191 164.41 190.501C164.4 190.254 164.405 189.991 164.426 189.718C164.436 189.59 164.456 189.461 164.513 189.384C164.565 189.312 164.631 189.297 164.729 189.333C164.909 189.405 165.007 189.713 165.089 189.955C165.172 190.207 165.223 190.465 165.244 190.712C165.295 191.206 165.254 191.658 165.203 192.034C165.089 192.785 164.94 193.243 164.986 193.259C165.017 193.269 165.233 192.837 165.398 192.07C165.48 191.689 165.537 191.216 165.501 190.691C165.48 190.429 165.434 190.156 165.352 189.878C165.311 189.739 165.259 189.605 165.197 189.461C165.131 189.322 165.028 189.158 164.842 189.075C164.673 188.983 164.39 189.039 164.287 189.224C164.179 189.389 164.168 189.554 164.158 189.698C164.137 189.981 164.137 190.254 164.158 190.516C164.194 191.036 164.292 191.494 164.41 191.869C164.652 192.621 164.935 193.017 164.961 193.001H164.956Z" fill="#263238"/>
<path d="M164.924 192.832C164.944 192.874 165.315 192.683 165.953 192.529C166.272 192.452 166.658 192.385 167.09 192.374C167.306 192.374 167.538 192.364 167.743 192.416C167.949 192.462 168.114 192.591 168.124 192.786C168.14 192.987 168.026 193.177 167.857 193.29C167.687 193.409 167.471 193.46 167.265 193.486C166.848 193.532 166.467 193.46 166.148 193.373C165.515 193.193 165.129 193.023 165.114 193.069C165.104 193.1 165.448 193.326 166.092 193.563C166.411 193.676 166.822 193.779 167.291 193.743C167.522 193.723 167.774 193.671 168.006 193.517C168.237 193.373 168.428 193.085 168.397 192.766C168.381 192.421 168.057 192.194 167.805 192.153C167.538 192.091 167.301 192.112 167.074 192.122C166.622 192.153 166.22 192.241 165.896 192.344C165.248 192.555 164.903 192.812 164.918 192.838L164.924 192.832Z" fill="#263238"/>
<path d="M154.951 202.381C154.951 202.381 155.219 202.222 155.337 201.769C155.471 201.327 155.389 200.642 155.039 200.05C154.874 199.747 154.684 199.49 154.509 199.258C154.334 199.027 154.154 198.821 153.969 198.682C153.783 198.538 153.593 198.476 153.464 198.471C153.331 198.466 153.264 198.497 153.264 198.512C153.264 198.553 153.547 198.533 153.84 198.831C153.989 198.975 154.138 199.171 154.298 199.407C154.463 199.644 154.638 199.901 154.792 200.179C155.111 200.74 155.209 201.316 155.142 201.728C155.085 202.14 154.91 202.356 154.946 202.381H154.951Z" fill="#263238"/>
<path d="M160.648 198.125C160.72 198.131 160.699 197.328 160.087 196.608C159.485 195.877 158.698 195.712 158.692 195.784C158.662 195.861 159.33 196.124 159.871 196.782C160.421 197.431 160.56 198.141 160.643 198.12L160.648 198.125Z" fill="#263238"/>
<path d="M172.024 195.312C172.024 195.312 171.767 195.476 171.329 195.79C170.882 196.099 170.228 196.531 169.374 196.989C168.52 197.447 167.47 197.921 166.266 198.373C165.067 198.821 163.719 199.243 162.294 199.655C159.443 200.478 156.86 201.229 154.992 201.79C154.097 202.063 153.356 202.294 152.79 202.464C152.27 202.629 151.987 202.732 151.992 202.747C151.997 202.768 152.291 202.701 152.821 202.567C153.397 202.413 154.143 202.217 155.049 201.975C156.927 201.461 159.515 200.745 162.371 199.922C163.796 199.511 165.149 199.078 166.354 198.61C167.558 198.142 168.612 197.643 169.461 197.159C170.31 196.675 170.959 196.212 171.386 195.873C171.808 195.528 172.029 195.322 172.019 195.307L172.024 195.312Z" fill="#263238"/>
<path d="M172.611 195.523C172.621 195.492 172.117 195.307 171.268 195.168C170.429 195.034 169.158 194.967 167.933 195.574C167.326 195.873 166.848 196.336 166.508 196.799C166.163 197.267 165.937 197.73 165.767 198.126C165.433 198.919 165.294 199.433 165.325 199.444C165.366 199.459 165.571 198.97 165.947 198.209C166.323 197.473 166.92 196.392 168.062 195.821C169.204 195.255 170.413 195.281 171.242 195.358C172.081 195.446 172.6 195.564 172.611 195.518V195.523Z" fill="#263238"/>
<path d="M200.712 163.636C200.712 163.636 205.472 165.334 205.487 170.67C205.523 180.889 184.843 192.153 184.843 192.153L157.319 173.912L155.596 173.212C155.596 173.212 192.752 159.252 200.717 163.631L200.712 163.636Z" fill="#263238"/>
<path d="M171.259 183.128C171.259 183.128 171.527 182.968 171.974 182.644C172.427 182.315 173.07 181.831 173.858 181.224C175.432 180.004 177.578 178.28 179.883 176.299C182.188 174.318 184.221 172.461 185.661 171.087C186.382 170.403 186.958 169.837 187.349 169.44C187.74 169.044 187.951 168.818 187.936 168.807C187.92 168.792 187.689 168.993 187.272 169.363C186.824 169.77 186.233 170.3 185.523 170.943C184.046 172.276 181.998 174.113 179.693 176.088C177.387 178.064 175.267 179.814 173.724 181.069C172.983 181.677 172.365 182.176 171.897 182.562C171.465 182.917 171.233 183.117 171.249 183.133L171.259 183.128Z" fill="#455A64"/>
<path d="M192.942 167.459C192.952 167.392 191.722 167.268 190.292 167.701C188.851 168.117 187.889 168.889 187.935 168.941C187.982 169.013 188.985 168.375 190.374 167.973C191.758 167.556 192.947 167.551 192.947 167.464L192.942 167.459Z" fill="#455A64"/>
<path d="M190.57 165.849C190.544 165.782 189.664 166.174 188.938 167.079C188.208 167.98 188.012 168.921 188.084 168.932C188.167 168.957 188.465 168.103 189.16 167.254C189.844 166.4 190.616 165.921 190.575 165.849H190.57Z" fill="#455A64"/>
<path d="M202.224 198.199C202.239 198.168 201.895 198.101 201.514 198.415C201.138 198.713 200.819 199.315 200.716 200.01C200.613 200.715 200.768 201.363 200.969 201.77C201.164 202.186 201.375 202.382 201.401 202.367C201.437 202.341 201.288 202.109 201.154 201.698C201.015 201.291 200.902 200.694 200.994 200.051C201.087 199.408 201.349 198.852 201.648 198.559C201.941 198.255 202.229 198.24 202.224 198.199Z" fill="#263238"/>
<path d="M194.383 146.943L184.575 171.796L142.361 172.481L141.584 170.201L156.377 169.661L163.489 147.617L194.383 146.943Z" fill="#455A64"/>
<path d="M174.664 157.704C175.205 157.338 176.208 157.482 176.697 157.92C177.186 158.357 177.34 159.114 177.093 159.721C176.846 160.328 176.223 160.75 175.57 160.786C174.875 160.822 174.15 160.39 173.959 159.721C173.769 159.052 173.98 158.059 174.669 157.704" fill="#EBEBEB"/>
<path d="M187.447 193.394C187.447 193.394 148.556 167.882 146.961 167.352C145.371 166.822 141.522 164.301 137.674 165.361C133.825 166.421 130.377 169.874 128.648 174.916C127.66 177.798 127.197 182.712 126.981 186.401C126.719 190.811 128.082 195.205 130.969 198.55C132.281 200.073 133.897 201.395 135.816 201.992C136.222 202.116 136.639 202.229 137.071 202.322C144.424 203.917 151.983 200.613 156.11 194.325L157.016 192.946C157.016 192.946 182.455 202.291 182.857 202.162L187.441 193.399L187.447 193.394Z" fill="#263238"/>
<path d="M139.336 186.376C139.336 186.376 139.408 186.412 139.547 186.468C139.701 186.53 139.912 186.612 140.185 186.72C140.761 186.942 141.585 187.261 142.65 187.667C144.811 188.48 147.934 189.659 151.814 191.12C155.704 192.571 160.371 194.3 165.599 196.204C170.832 198.102 176.626 200.192 182.821 202.291L182.934 202.327L182.991 202.219C183.963 200.361 184.987 198.406 186.027 196.415C186.557 195.401 187.082 194.392 187.576 193.456L187.637 193.343L187.529 193.276C175.849 185.861 165.403 179.229 157.865 174.443C154.099 172.066 151.063 170.152 148.953 168.824C147.908 168.171 147.095 167.666 146.535 167.311C146.267 167.147 146.056 167.018 145.902 166.925C145.758 166.838 145.68 166.802 145.68 166.802C145.68 166.802 145.747 166.853 145.886 166.951C146.035 167.049 146.241 167.188 146.504 167.363C147.059 167.723 147.862 168.248 148.896 168.917C150.996 170.265 154.016 172.205 157.762 174.613C165.29 179.419 175.72 186.077 187.38 193.518L187.334 193.338C186.84 194.279 186.315 195.283 185.785 196.296C184.745 198.283 183.722 200.243 182.749 202.101L182.919 202.034C176.729 199.945 170.93 197.866 165.697 195.977C160.469 194.073 155.797 192.375 151.891 190.955C148.001 189.53 144.867 188.377 142.701 187.585C141.631 187.194 140.797 186.89 140.216 186.679C139.938 186.582 139.727 186.504 139.573 186.453C139.429 186.401 139.351 186.381 139.351 186.381L139.336 186.376Z" fill="#455A64"/>
<path d="M143.368 95.7801C144.032 93.9895 145.498 93.2074 147.356 92.7597C149.213 92.312 151.282 92.842 152.692 94.1336C153.633 94.998 154.323 96.1918 155.491 96.7166C157.41 97.5862 159.865 96.3153 161.681 97.3804C162.757 98.0082 163.287 99.4386 162.875 100.617C162.463 101.795 161.161 102.588 159.932 102.413C161.182 103.005 161.414 104.883 160.554 105.963C159.695 107.044 158.105 107.337 156.772 106.961C155.445 106.586 154.338 105.66 153.402 104.646C152.46 103.632 151.642 102.511 150.623 101.574C149.604 100.638 148.339 99.8863 146.96 99.8348C145.092 99.7628 143.368 101.023 142.385 102.613C141.402 104.203 141.037 106.092 140.764 107.944C140.492 109.797 140.286 111.68 139.571 113.409C139.488 113.61 139.365 113.836 139.154 113.882C138.845 113.949 138.614 113.604 138.49 113.311C137.085 110.018 136.334 106.442 136.298 102.86C136.278 100.782 136.509 98.8315 137.801 97.2055C139.092 95.5743 142.071 94.5606 143.378 95.7801" fill="#263238"/>
<path d="M138.986 104.083L136.125 124.86C135.641 128.395 138.209 131.617 141.759 131.925C145.073 132.213 148.037 129.846 148.485 126.553C148.701 124.989 148.881 123.687 148.912 123.528C148.912 123.528 154.268 123.759 155.369 118.578C155.899 116.072 156.579 110.823 157.134 106.074C157.731 100.97 154.304 96.2614 149.262 95.2529L148.762 95.1551C143.293 94.3884 139.593 98.6078 138.976 104.093L138.986 104.083Z" fill="#FFBE9D"/>
<path d="M148.936 123.445C148.936 123.445 145.602 123.054 142.551 120.168C142.551 120.168 143.405 124.228 148.684 124.794L148.942 123.445H148.936Z" fill="#EB996E"/>
<path d="M154.932 109.245C154.87 109.641 154.479 109.908 154.067 109.852C153.656 109.79 153.372 109.425 153.434 109.029C153.501 108.632 153.887 108.365 154.299 108.421C154.71 108.483 154.993 108.848 154.932 109.245Z" fill="#263238"/>
<path d="M155.517 108.395C155.404 108.473 154.925 107.948 154.128 107.788C153.33 107.618 152.667 107.912 152.6 107.799C152.564 107.747 152.692 107.593 152.986 107.454C153.274 107.32 153.737 107.222 154.236 107.325C154.735 107.428 155.116 107.696 155.317 107.927C155.522 108.164 155.574 108.354 155.517 108.39V108.395Z" fill="#263238"/>
<path d="M147.049 107.953C146.982 108.349 146.596 108.617 146.184 108.56C145.773 108.499 145.49 108.133 145.551 107.737C145.618 107.341 146.004 107.073 146.416 107.13C146.828 107.192 147.111 107.557 147.049 107.953Z" fill="#263238"/>
<path d="M147.64 106.975C147.527 107.052 147.048 106.528 146.251 106.368C145.453 106.198 144.79 106.492 144.723 106.378C144.687 106.327 144.815 106.173 145.109 106.034C145.397 105.9 145.86 105.802 146.359 105.905C146.858 106.008 147.239 106.275 147.44 106.507C147.645 106.744 147.697 106.934 147.64 106.97V106.975Z" fill="#263238"/>
<path d="M149.354 113.473C149.359 113.426 149.873 113.442 150.696 113.498C150.902 113.519 151.108 113.514 151.17 113.385C151.247 113.246 151.206 113.01 151.154 112.752C151.062 112.222 150.964 111.661 150.861 111.08C150.465 108.703 150.223 106.763 150.321 106.747C150.419 106.732 150.815 108.646 151.211 111.023C151.304 111.61 151.391 112.166 151.479 112.701C151.51 112.948 151.592 113.236 151.422 113.524C151.335 113.663 151.165 113.745 151.026 113.756C150.887 113.771 150.774 113.751 150.671 113.735C149.853 113.617 149.348 113.519 149.359 113.473H149.354Z" fill="#263238"/>
<path d="M146.894 113.554C147.028 113.575 146.853 114.439 147.47 115.201C148.088 115.968 149.029 116.055 149.014 116.174C149.014 116.23 148.772 116.302 148.381 116.235C147.995 116.174 147.46 115.937 147.084 115.469C146.709 115 146.611 114.46 146.657 114.1C146.698 113.729 146.837 113.534 146.894 113.554Z" fill="#263238"/>
<path d="M148.469 103.886C148.345 104.086 147.568 103.824 146.611 103.752C145.654 103.659 144.841 103.783 144.759 103.561C144.723 103.458 144.892 103.278 145.242 103.129C145.587 102.98 146.112 102.877 146.683 102.928C147.259 102.98 147.753 103.17 148.067 103.376C148.381 103.582 148.52 103.788 148.469 103.886Z" fill="#263238"/>
<path d="M155.682 106.02C155.507 106.175 154.993 105.876 154.334 105.732C153.681 105.567 153.089 105.609 152.996 105.393C152.96 105.29 153.084 105.125 153.362 105.001C153.634 104.878 154.067 104.821 154.519 104.924C154.972 105.027 155.332 105.274 155.523 105.506C155.718 105.737 155.76 105.943 155.677 106.015L155.682 106.02Z" fill="#263238"/>
<path d="M138.639 108.018C138.557 107.961 135.279 106.248 134.682 109.824C134.085 113.4 137.795 113.261 137.821 113.158C137.847 113.055 138.639 108.018 138.639 108.018Z" fill="#FFBE9D"/>
<path d="M136.956 111.619C136.956 111.619 136.884 111.65 136.771 111.681C136.663 111.712 136.478 111.712 136.303 111.614C135.948 111.413 135.732 110.76 135.819 110.112C135.865 109.782 135.984 109.484 136.143 109.247C136.298 109.005 136.493 108.851 136.694 108.846C136.889 108.836 137.008 108.969 137.033 109.077C137.064 109.185 137.033 109.252 137.049 109.263C137.059 109.273 137.136 109.216 137.131 109.062C137.131 108.99 137.1 108.897 137.028 108.815C136.956 108.733 136.833 108.676 136.699 108.666C136.421 108.64 136.128 108.851 135.958 109.113C135.768 109.371 135.629 109.705 135.577 110.076C135.479 110.801 135.737 111.537 136.225 111.768C136.467 111.877 136.689 111.835 136.812 111.768C136.936 111.696 136.972 111.624 136.956 111.614V111.619Z" fill="#EB996E"/>
<path d="M158.456 105.206C156.048 105.361 153.588 104.265 152.091 102.371C151.041 101.049 150.372 99.3096 148.89 98.5069C147.892 97.9666 146.657 97.9615 145.577 98.3011C144.491 98.6458 143.539 99.3096 142.68 100.061C143.158 102.901 141.892 105.716 140.663 108.319C140.529 108.608 140.369 108.916 140.086 109.055C139.603 109.292 139.021 108.916 138.733 108.458C138.27 107.728 138.213 106.817 138.234 105.953C138.275 103.982 138.62 102.001 139.417 100.2C140.22 98.3989 141.491 96.7831 143.153 95.7232C145.232 94.4008 147.856 94.0251 150.264 94.5448C152.672 95.0645 154.859 96.4435 156.496 98.2857C157.257 99.1398 157.916 100.123 158.173 101.234" fill="#263238"/>
</svg>
