<svg width="250" height="229" viewBox="0 0 250 229" fill="none" xmlns="http://www.w3.org/2000/svg">
<path d="M171.785 168.831H86.0312V57.5469H171.785V168.831ZM86.281 168.582H171.536V57.7953H86.281V168.582Z" fill="black"/>
<path d="M145.476 46.853V40.1172H113.156V46.853H81.4492V190.547H177.182V46.853H145.476Z" fill="#BD97F8"/>
<path d="M144.659 50.9351V44.1992H112.339V50.9351H80.6328V194.629H176.365V50.9351H144.659Z" fill="#7A8FD3"/>
<path d="M161.842 76.8594H112.34V80.9417H161.842V76.8594Z" fill="#81C4EB"/>
<path d="M106.202 69.5117H94.3379V80.5337H106.202V69.5117Z" fill="#FB9847"/>
<path d="M161.842 96.043H112.34V100.125H161.842V96.043Z" fill="#81C4EB"/>
<path d="M106.202 88.6953H94.3379V99.7173H106.202V88.6953Z" fill="#FB9847"/>
<path d="M161.842 115.23H112.34V119.313H161.842V115.23Z" fill="#81C4EB"/>
<path d="M106.202 107.883H94.3379V118.905H106.202V107.883Z" fill="#FB9847"/>
<path d="M161.842 134.418H112.34V138.5H161.842V134.418Z" fill="#81C4EB"/>
<path d="M106.202 127.07H94.3379V138.092H106.202V127.07Z" fill="#FB9847"/>
<path d="M161.842 153.602H112.34V157.684H161.842V153.602Z" fill="#81C4EB"/>
<path d="M106.202 146.254H94.3379V157.276H106.202V146.254Z" fill="#FB9847"/>
<path d="M168.292 212.78L120.215 203.65L131.093 146.613C131.249 145.796 132.039 145.261 132.858 145.416L177.97 153.983C178.789 154.138 179.326 154.926 179.17 155.744L168.292 212.78H168.292Z" fill="#DCEFF8"/>
<path d="M177.425 164.895L129.348 155.765L131.093 146.613C131.249 145.796 132.039 145.261 132.858 145.416L177.97 153.983C178.789 154.138 179.326 154.926 179.17 155.744L177.424 164.895H177.425Z" fill="#060351"/>
<path d="M141.671 151.914C141.449 153.079 140.323 153.843 139.156 153.622C137.988 153.4 137.223 152.277 137.444 151.112C137.667 149.947 138.792 149.183 139.96 149.405C141.127 149.626 141.893 150.75 141.671 151.914Z" fill="#7A8FD3"/>
<path d="M157.696 154.958C157.474 156.123 156.348 156.886 155.181 156.665C154.014 156.444 153.248 155.32 153.47 154.156C153.692 152.991 154.818 152.227 155.985 152.448C157.152 152.67 157.918 153.793 157.696 154.958Z" fill="#7A8FD3"/>
<path d="M173.722 158.001C173.5 159.166 172.374 159.93 171.207 159.709C170.039 159.487 169.274 158.363 169.495 157.199C169.718 156.034 170.843 155.27 172.011 155.491C173.178 155.713 173.943 156.836 173.722 158.001Z" fill="#7A8FD3"/>
<path d="M143.287 175.426L134.152 173.691L135.924 164.4L145.058 166.135L143.287 175.426ZM134.334 173.568L143.163 175.244L144.877 166.259L136.048 164.582L134.334 173.568Z" fill="#FEC227"/>
<path d="M142.708 177.981L133.727 176.275L131.983 185.413L140.965 187.119L142.708 177.981Z" fill="#FEC227"/>
<path d="M138.796 198.972L129.662 197.237L131.434 187.947L140.568 189.682L138.796 198.972ZM129.845 197.115L138.674 198.791L140.387 189.806L131.558 188.129L129.845 197.115Z" fill="#FEC227"/>
<path d="M155.438 177.734L146.305 175.999L148.076 166.709L157.21 168.443L155.438 177.734ZM146.486 175.875L155.315 177.552L157.028 168.566L148.199 166.89L146.486 175.875Z" fill="#FEC227"/>
<path d="M153.194 189.506L144.061 187.772L145.832 178.482L154.966 180.216L153.194 189.506ZM144.241 187.649L153.07 189.325L154.784 180.34L145.955 178.663L144.241 187.649Z" fill="#FEC227"/>
<path d="M150.948 201.281L141.814 199.547L143.586 190.256L152.72 191.991L150.948 201.281ZM141.996 199.422L150.825 201.099L152.539 192.113L143.71 190.437L141.996 199.422Z" fill="#FEC227"/>
<path d="M167.591 180.041L158.457 178.307L160.229 169.017L169.362 170.751L167.591 180.041ZM158.638 178.183L167.467 179.859L169.181 170.874L160.352 169.197L158.638 178.183Z" fill="#FEC227"/>
<path d="M165.345 191.815L156.211 190.08L157.983 180.79L167.116 182.524L165.345 191.815ZM156.393 189.956L165.222 191.633L166.935 182.647L158.106 180.971L156.393 189.956Z" fill="#FEC227"/>
<path d="M163.098 203.588L153.965 201.854L155.736 192.564L164.87 194.298L163.098 203.588ZM154.146 201.73L162.975 203.406L164.688 194.421L155.859 192.744L154.146 201.73Z" fill="#FEC227"/>
<path d="M139.453 153.017C139.032 152.937 138.756 152.532 138.836 152.111L140.362 144.11C140.442 143.69 140.848 143.414 141.269 143.494C141.691 143.574 141.967 143.98 141.886 144.4L140.36 152.401C140.281 152.821 139.874 153.097 139.453 153.017Z" fill="#FEC227"/>
<path d="M155.199 156.091C154.778 156.012 154.502 155.606 154.582 155.186L156.108 147.185C156.188 146.764 156.594 146.489 157.015 146.569C157.437 146.649 157.713 147.054 157.632 147.474L156.107 155.476C156.027 155.896 155.62 156.172 155.199 156.091Z" fill="#FEC227"/>
<path d="M171.049 159.101C170.628 159.021 170.351 158.616 170.432 158.196L171.958 150.194C172.038 149.774 172.444 149.498 172.865 149.579C173.286 149.659 173.563 150.064 173.482 150.484L171.956 158.486C171.876 158.906 171.47 159.182 171.049 159.101Z" fill="#FEC227"/>
<path d="M139.539 179.918L134.928 183.049L135.19 183.433L139.801 180.302L139.539 179.918Z" fill="#CC4040"/>
<path d="M135.981 179.273L135.596 179.535L138.733 184.137L139.118 183.875L135.981 179.273Z" fill="#CC4040"/>
<path d="M194.812 88.0198C194.812 88.0198 197.264 91.9161 196.538 94.9071C196.538 94.9071 201.805 95.4508 204.167 94.0916C204.167 94.0916 202.532 89.1079 203.168 86.8418L194.812 88.0198Z" fill="#E5959D"/>
<path d="M198.082 81.4049C195.861 82.3751 194.329 77.1484 193.731 74.6323C193.696 74.6839 190.826 76.6274 191.375 80.5175C191.402 80.7057 191.388 80.8979 191.337 81.0807C191.205 81.5424 190.832 82.4329 189.772 83.621C189.736 83.6616 189.711 83.7116 189.706 83.7647C189.685 83.9553 189.757 84.3904 190.727 84.6669C190.727 84.6669 190.908 85.3012 190.636 85.6637L191.272 86.1168L190.999 86.9323L191.519 87.2283C191.583 87.265 191.614 87.3416 191.589 87.4111C191.418 87.9196 191.027 89.8756 195.631 88.9258C195.631 88.9258 201.11 88.0845 203.054 87.3744C200.667 85.1528 202.369 79.4747 198.082 81.4041V81.4049Z" fill="#F9AEAC"/>
<path d="M207.561 76.4321C207.209 76.058 206.573 75.7408 205.438 75.9674C202.762 70.9813 195.658 71.7257 193.73 74.6324C194.329 77.1477 195.861 82.3743 198.082 81.4049C202.369 79.4755 200.667 85.1537 203.054 87.3752C203.127 87.3487 203.196 87.3213 203.259 87.2948C204.968 87.3088 205.348 85.1201 205.802 83.8515C210.877 85.927 212.218 78.0405 208.986 77.2586C208.443 77.1274 207.945 76.8383 207.562 76.4314L207.561 76.4321Z" fill="#100259"/>
<path d="M208.129 197.116V204.733L204.312 209.97L200.018 209.495L200.972 208.067L204.053 203.235C204.222 202.97 204.312 202.663 204.312 202.349V197.592L208.129 197.116Z" fill="#FFC1BB"/>
<path d="M191.907 196.64L191.668 203.543L188.567 210.446L185.704 209.494L184.75 208.541L187.69 204.77C187.949 204.437 188.09 204.028 188.09 203.606V196.64H191.907Z" fill="#FFC1BB"/>
<path d="M207.885 202.493C207.546 202.863 207.145 203.543 206.697 204.733C206.697 204.733 205.266 209.494 200.494 208.066L197.964 209.638C197.665 209.937 197.877 210.446 198.299 210.446H205.742L207.65 205.209H209.082V202.96C209.082 202.332 208.309 202.029 207.884 202.492L207.885 202.493Z" fill="#060351"/>
<path d="M207.651 210.447H209.082V204.258H207.651V210.447Z" fill="#060351"/>
<path d="M191.628 202.385C191.294 202.726 190.886 203.416 190.418 204.733C190.418 204.733 189.188 209.233 184.973 208.17C184.738 208.111 184.488 208.142 184.285 208.276L182.212 209.637C181.93 209.936 182.13 210.445 182.529 210.445H189.516L191.268 205.208H192.622V202.804C192.622 202.286 191.99 202.014 191.627 202.384L191.628 202.385Z" fill="#060351"/>
<path d="M191.27 210.447H192.623V204.258H191.27V210.447Z" fill="#060351"/>
<path d="M192.384 122.849C186.095 145.03 184.293 170.535 185.227 198.068H192.384C192.574 173.528 193.981 152.114 200.496 143.796C198.971 163.087 199.44 181.668 203.358 199.021H209.083C207.175 166.172 217.408 132.574 210.515 126.182L192.384 122.849V122.849Z" fill="#3D4E6A"/>
<path d="M196.621 94.2102C197.835 95.4647 200.374 96.463 204.789 91.4277C209.561 92.8557 220.17 95.8764 211.946 106.662C211.946 106.662 205.718 115.54 212.162 126.438C212.468 126.956 212.103 127.61 211.5 127.61H191.724C190.766 127.61 189.979 126.857 189.94 125.902C189.748 121.083 189.002 107.572 186.658 105.234C185.72 99.0049 188.846 95.6584 193.768 93.586C194.752 93.1713 195.878 93.4431 196.62 94.2102H196.621Z" fill="#E13268"/>
<path d="M187.613 103.806L188.787 115.146L201.439 116.461C202.604 116.582 203.776 116.421 204.878 116.025C206.645 115.39 209.402 114.756 210.038 116.66C210.038 116.66 211.835 122.04 203.658 119.748C203.12 119.598 202.557 119.541 202 119.581L186.588 120.707C184.82 120.836 183.323 119.427 183.35 117.66C183.416 113.487 183.622 106.557 184.274 104.283L187.613 103.807V103.806Z" fill="#FFC1BB"/>
<path d="M162.782 77.2716L162.352 77.5212L174.278 97.9933L174.709 97.7436L162.782 77.2716Z" fill="black"/>
<path d="M198.823 102.551L192.862 106.186L178.072 97.1404C178.072 97.1404 174.732 92.8558 173.3 96.1881C173.3 96.1881 166.143 95.7124 172.346 97.6161C172.346 97.6161 172.822 101.901 178.548 100.948L191.87 112.407C192.179 112.673 192.622 112.717 192.978 112.519L201.783 107.598C203.185 106.816 203.694 105.053 202.925 103.646C202.122 102.178 200.252 101.679 198.823 102.551V102.551Z" fill="#FFC1BB"/>
<path d="M22.2222 173.26L21.2441 173.451L26.3703 199.619L27.3483 199.428L22.2222 173.26Z" fill="#060351"/>
<path d="M11.285 167.254L4.6582 199.438L5.63439 199.639L12.2612 167.454L11.285 167.254Z" fill="#060351"/>
<path d="M48.67 176.878L44.1445 199.436L45.1217 199.631L49.6472 177.073L48.67 176.878Z" fill="#060351"/>
<path d="M61.3927 174.481L60.4258 174.722L66.6594 199.65L67.6263 199.41L61.3927 174.481Z" fill="#060351"/>
<path d="M59.1014 190.805C59.1014 190.805 59.1014 195.017 62.4176 195.919L60.3078 196.821H56.3888L53.6762 196.219C53.6762 196.219 53.0734 193.513 55.786 190.204L59.1022 190.805H59.1014Z" fill="#F9AEAC"/>
<path d="M37.6465 189.749L38.6055 195.017L35.8921 196.22L31.3711 195.317L33.1795 189.603L37.6465 189.749Z" fill="#F9AEAC"/>
<path d="M53.4033 194.503C53.4033 194.503 58.1982 197.423 61.5136 195.017C61.5136 195.017 69.3508 196.22 69.0494 198.927H52.7715L53.4025 194.503L53.4033 194.503Z" fill="#08085C"/>
<path d="M38.0311 193.75C37.0165 194.594 34.3431 196.32 31.8309 193.663C31.7127 193.538 31.506 193.568 31.4262 193.721C30.7419 195.021 28.4983 199.889 33.4091 199.595C33.853 199.568 34.2985 199.603 34.7392 199.661C36.2658 199.864 38.5345 199.546 38.4687 193.956C38.4664 193.731 38.2033 193.605 38.0303 193.75H38.0311Z" fill="#08085C"/>
<path d="M28.3554 103.579C0.322075 106.888 -11.4341 169.45 27.7526 176.669C47.3773 179.781 62.3165 177.54 70.5569 167.646L56.0881 164.337L44.332 158.923L28.6678 150.076L19.9154 132.755L20.8196 117.717L25.3414 111.099L28.3554 103.58V103.579Z" fill="#915293"/>
<path d="M45.7297 170.596C12.0989 168.723 9.28533 135.231 20.3385 112.371C20.5874 111.856 20.8317 111.338 21.0376 110.804C23.9858 103.149 30.673 101.737 37.0102 102.431C47.1647 103.543 55.9201 110.086 60.0904 119.391C64.4259 129.063 67.8086 141.9 72.9747 152.861C73.9196 154.867 74.513 157.03 74.5999 159.245C75.0704 171.233 61.7281 172.989 48.3029 170.863C47.452 170.728 46.5908 170.644 45.7305 170.596L45.7297 170.596Z" fill="#BD97F8"/>
<path d="M35.773 103.579L35.5898 115.009L42.8242 122.528V114.107L41.4362 105.385L35.773 103.579Z" fill="#E5959D"/>
<path d="M50.0587 112.302C50.0587 112.302 55.4847 111.4 60.9107 141.779L51.9376 142.033L49.4567 139.072L45.2363 117.116L50.0595 112.303L50.0587 112.302Z" fill="#18304A"/>
<path d="M60.3069 158.923C60.3069 158.923 40.4121 165.239 32.5749 163.435L28.0532 155.013L25.9434 148.396L47.6465 147.494L56.3879 146.892L61.8139 147.795H63.6223L63.9237 150.802L61.2111 155.915L60.3069 158.923Z" fill="#060351"/>
<path d="M45.8381 148.395H28.9573L29.2587 133.657L21.4216 133.357C20.216 126.74 22.6272 116.212 22.6272 116.212C24.4356 110.196 35.6296 110.769 35.6296 110.769C35.6296 110.769 44.5769 125.112 42.0428 110.586L50.9627 112.302L51.8669 141.177L52.1683 147.794L45.8381 148.395Z" fill="#3D4E6A"/>
<path d="M43.4264 141.417L29.2591 141.706V133.645L21.4219 133.357C21.4219 133.357 22.0247 152.645 30.4647 147.751C30.4647 147.751 40.7138 145.16 43.4264 145.736V141.417Z" fill="#F9AEAC"/>
<path d="M63.9255 148.696C63.9255 148.696 75.6817 149.598 69.0501 163.434L60.6101 192.008H53.9785C54.7199 172.488 54.7175 151.499 63.9263 148.696H63.9255Z" fill="#2B468A"/>
<path d="M30.4652 150.501C34.8241 153.877 36.3977 173.458 38.3024 191.106L30.7666 191.708C30.7666 191.708 11.776 138.47 30.4652 150.5V150.501Z" fill="#2B468A"/>
<path d="M24.7393 148.697H44.0312V147.795H24.7393V148.697Z" fill="#E13268"/>
<path d="M38.002 148.696H63.9255L71.7627 129.146H46.4419L38.002 148.696Z" fill="#E13268"/>
<path d="M54.8814 142.831C55.9636 142.831 56.8409 141.62 56.8409 140.125C56.8409 138.63 55.9636 137.418 54.8814 137.418C53.7992 137.418 52.9219 138.63 52.9219 140.125C52.9219 141.62 53.7992 142.831 54.8814 142.831Z" fill="#FB9847"/>
<path d="M33.5628 100.97C33.3835 100.66 33.2043 100.35 33.025 100.04C32.9733 99.9508 32.9201 99.8594 32.841 99.7938C32.5936 99.5883 32.1764 99.7368 32.0339 100.025C31.8922 100.313 31.9721 100.669 32.1435 100.941C32.2077 101.043 32.2844 101.14 32.3228 101.253C32.387 101.444 32.3353 101.651 32.3102 101.85C32.25 102.329 32.3557 102.831 32.6234 103.233C32.8911 103.635 33.3233 103.931 33.8008 104.011" fill="#E5959D"/>
<path d="M43.7644 100.833C43.7683 100.442 43.8724 100.053 44.0626 99.7118C44.1276 99.5954 44.2083 99.479 44.3273 99.4173C44.5973 99.2775 44.923 99.4743 45.1187 99.7063C45.1798 99.779 45.2369 99.8579 45.2604 99.9501C45.2949 100.085 45.2518 100.227 45.2095 100.359C45.1751 100.467 45.1406 100.576 45.1062 100.684C44.9285 101.238 44.7492 101.808 44.7868 102.389C44.7985 102.574 44.8322 102.762 44.7844 102.941C44.7148 103.201 44.4791 103.393 44.2224 103.475C43.9656 103.558 43.6892 103.55 43.4199 103.525" fill="#E5959D"/>
<path d="M43.8074 101.152C47.2504 92.951 42.6135 87.822 35.1192 90.2155C34.9423 90.2717 34.7701 90.342 34.6057 90.4272C31.1353 92.2285 31.2926 97.1177 33.4846 101.319L36.6826 98.7995L40.1045 99.4713L43.8074 101.151V101.152Z" fill="#100259"/>
<path d="M42.9291 95.7256C43.6876 97.7425 44.7641 101.892 42.9385 106.082C42.8696 106.241 42.7678 106.384 42.6402 106.501L40.4858 108.482C40.1515 108.789 39.7139 108.96 39.2598 108.96H38.0104C37.5712 108.96 37.1477 108.8 36.8181 108.512L34.5243 106.505C33.9614 106.012 33.5966 105.334 33.498 104.593C33.2443 102.686 32.9296 98.8392 33.9622 95.9404C34.2777 95.0546 35.0676 94.4218 35.9992 94.2851C37.2831 94.0969 39.2426 93.8906 40.831 94.0773C41.7845 94.1898 42.5924 94.8288 42.9291 95.7263V95.7256Z" fill="#F9AEAC"/>
</svg>
