<svg width="246" height="222" viewBox="0 0 246 222" fill="none" xmlns="http://www.w3.org/2000/svg">
<path d="M212.705 26.168H164.24C161.76 26.168 159.75 28.178 159.75 30.6575V72.5355C159.75 75.015 161.76 77.025 164.24 77.025H212.705C215.184 77.025 217.194 75.015 217.194 72.5355V30.6575C217.194 28.178 215.184 26.168 212.705 26.168Z" fill="#407BFF"/>
<path opacity="0.7" d="M212.705 26.168H164.24C161.76 26.168 159.75 28.178 159.75 30.6575V72.5355C159.75 75.015 161.76 77.025 164.24 77.025H212.705C215.184 77.025 217.194 75.015 217.194 72.5355V30.6575C217.194 28.178 215.184 26.168 212.705 26.168Z" fill="white"/>
<path d="M191.99 38.2812C191.99 38.2812 190.776 48.8791 194.734 49.7097C199.676 50.7453 198.477 41.3302 198.477 41.3302L194.734 35.8945L191.99 38.2864V38.2812Z" fill="#263238"/>
<path opacity="0.6" d="M191.99 38.2812C191.99 38.2812 190.776 48.8791 194.734 49.7097C199.676 50.7453 198.477 41.3302 198.477 41.3302L194.734 35.8945L191.99 38.2864V38.2812Z" fill="black"/>
<path d="M204.31 40.8867C204.31 40.8867 210.314 45.1553 207.748 48.5408C205.183 51.9262 200.925 47.1477 200.835 44.4877C200.751 41.8277 204.31 40.8867 204.31 40.8867Z" fill="black"/>
<path d="M186.18 66.6445L182.558 66.9915C182.558 66.9915 178.378 65.2777 177.012 65.6825C176.081 65.9611 174.735 68.0691 174.998 69.0048C175.098 69.3518 175.929 69.6304 176.286 69.662C176.759 69.704 177.627 68.6211 178.095 68.579C178.731 68.5265 179.956 69.5831 180.592 69.5989C181.159 69.6094 182.842 69.2519 182.842 69.2519L187.11 69.3571L186.174 66.6445H186.18Z" fill="#FFC3BD"/>
<path d="M184.711 66.5108L185.573 69.6071C185.573 69.6071 191.818 70.4587 194.273 69.3811C196.728 68.3087 194.873 50.1881 192.512 50.3879C190.152 50.5876 191.45 60.6126 191.45 63.7614C191.45 66.1691 184.711 66.5161 184.711 66.5161V66.5108Z" fill="#263238"/>
<path d="M184.711 66.5108L185.573 69.6071C185.573 69.6071 191.818 70.4587 194.273 69.3811C196.728 68.3087 194.873 50.1881 192.512 50.3879C190.152 50.5876 191.45 60.6126 191.45 63.7614C191.45 66.1691 184.711 66.5161 184.711 66.5161V66.5108Z" fill="#E8505B"/>
<path d="M192.047 50.3821C189.681 53.7674 195.117 59.0767 195.232 77.0178H212.785C213.294 72.1711 215.108 53.1839 212.58 49.5988C209.673 45.4828 194.302 47.1597 192.047 50.3821Z" fill="#263238"/>
<path d="M192.047 50.3821C189.681 53.7674 195.117 59.0767 195.232 77.0178H212.785C213.294 72.1711 215.108 53.1839 212.58 49.5988C209.673 45.4828 194.302 47.1597 192.047 50.3821Z" fill="#E8505B"/>
<path d="M197.23 45.6161L200.753 41.7891C201.089 44.7224 202.65 47.1301 202.966 47.2247L202.582 48.5705C198.313 53.37 197.33 48.7597 197.33 48.7597C198.371 47.8871 197.236 45.6108 197.236 45.6108L197.23 45.6161Z" fill="#FFBE9D"/>
<path d="M202.375 40.0722C202.359 40.866 202.044 41.6282 201.492 42.2012C200.761 42.9424 199.925 42.3852 199.736 41.4074C199.568 40.519 199.747 39.0734 200.667 38.7001C201.587 38.3321 202.38 39.0891 202.37 40.0722H202.375Z" fill="#FFC3BD"/>
<path d="M198.386 67.2257L194.764 67.5727C194.764 67.5727 190.669 65.5172 189.218 65.7117C188.283 65.8379 186.49 68.0721 186.653 69.0025C186.716 69.36 187.589 69.5755 187.941 69.6596C188.514 69.7963 190.307 68.6083 190.307 68.6083C190.307 68.6083 192.131 70.1012 192.804 70.1801C193.366 70.2484 195.054 69.8331 195.054 69.8331L199.322 69.9383L198.386 67.2257Z" fill="#FFC3BD"/>
<path d="M211.692 49.3273C210.525 48.5335 209.279 49.3011 208.017 56.5608C206.519 65.1716 205.525 65.5607 196.92 67.1114L197.856 70.2078C197.856 70.2078 205.205 71.112 208.758 68.7989C212.317 66.4859 214.83 51.4669 211.692 49.3273Z" fill="#263238"/>
<path d="M211.692 49.3273C210.525 48.5335 209.279 49.3011 208.017 56.5608C206.519 65.1716 205.525 65.5607 196.92 67.1114L197.856 70.2078C197.856 70.2078 205.205 71.112 208.758 68.7989C212.317 66.4859 214.83 51.4669 211.692 49.3273Z" fill="#E8505B"/>
<path d="M199.104 51.2716C201.963 51.2138 204.539 47.7968 203.13 47.187C201.201 47.2554 199.246 47.5024 197.506 47.8809C196.675 48.5118 196.149 51.3295 199.104 51.2664V51.2716Z" fill="#FFBE9D"/>
<path opacity="0.2" d="M199.34 43.3231L200.98 43.1602C200.98 43.1602 200.906 48.0806 197.542 48.5012C198.168 47.5076 197.227 45.6151 197.227 45.6151L199.34 43.3231Z" fill="#263238"/>
<path d="M200.272 37.5797C201.035 41.0597 201.66 43.0469 200.456 45.3441C199.295 47.6204 196.514 48.5246 194.237 47.368C193.402 46.9422 192.713 46.2693 192.266 45.444C190.668 42.6158 189.685 37.4062 192.603 34.9828C194.542 33.2795 197.502 33.4688 199.205 35.4138C199.747 36.0289 200.115 36.7806 200.278 37.5849L200.272 37.5797Z" fill="#FFBE9D"/>
<path d="M195.426 40.1972C195.51 40.4706 195.426 40.7439 195.237 40.786C195.053 40.8281 194.848 40.6651 194.769 40.3917C194.685 40.1184 194.769 39.8398 194.963 39.803C195.153 39.7609 195.352 39.9239 195.426 40.2025V40.1972Z" fill="black"/>
<path d="M192.326 41.2156C192.41 41.4889 192.326 41.7623 192.136 41.8043C191.947 41.8516 191.747 41.6834 191.663 41.4048C191.579 41.1262 191.663 40.8581 191.858 40.816C192.047 40.7687 192.247 40.9369 192.326 41.2156Z" fill="black"/>
<path d="M196.098 38.8869C196.124 38.8816 196.151 38.8711 196.172 38.8501C196.23 38.7765 196.214 38.6713 196.145 38.6135C196.145 38.6135 196.145 38.6135 196.14 38.6135C195.709 38.2771 195.141 38.1719 194.621 38.3401C194.537 38.3717 194.489 38.4716 194.526 38.5557C194.558 38.6398 194.658 38.6871 194.742 38.6503C195.147 38.5241 195.588 38.603 195.925 38.8606C195.972 38.9026 196.04 38.9131 196.098 38.8816V38.8869Z" fill="black"/>
<path d="M190.682 40.586C190.735 40.565 190.772 40.5177 190.777 40.4598C190.84 40.0235 191.098 39.6398 191.482 39.4242C191.56 39.3717 191.576 39.2613 191.524 39.1877C191.482 39.1298 191.408 39.0983 191.334 39.1193C190.851 39.3822 190.525 39.8606 190.446 40.402C190.43 40.4914 190.488 40.5807 190.583 40.5965C190.614 40.6018 190.646 40.5965 190.677 40.586H190.682Z" fill="black"/>
<path d="M195.642 44.4892C195.505 44.5733 195.358 44.6469 195.211 44.7047C195.164 44.7257 195.106 44.7047 195.085 44.6574C195.069 44.6048 195.095 44.5522 195.142 44.5312C195.91 44.2368 196.494 43.5955 196.714 42.8017C196.725 42.7491 196.772 42.7176 196.825 42.7281C196.877 42.7386 196.909 42.7859 196.898 42.8385C196.72 43.5377 196.267 44.1369 195.642 44.4944V44.4892Z" fill="black"/>
<path d="M193.402 41.0399C193.318 41.9967 193.103 42.9377 192.771 43.8366C193.387 44.1362 194.159 43.6736 194.159 43.6736L193.402 41.0347V41.0399Z" fill="#FFBE9D"/>
<path d="M191.908 40.8516L191.119 40.8726C191.119 40.8726 191.671 41.3247 191.908 40.8516Z" fill="black"/>
<path d="M194.978 39.8555L194.189 39.8765C194.189 39.8765 194.726 40.3076 194.978 39.8555Z" fill="black"/>
<path d="M196.854 35.0804C196.854 35.0804 195.587 39.4383 189.61 38.9021C189.61 38.9021 187.707 32.0576 195.151 31.9946C195.151 31.9946 201.023 29.4292 202.663 35.8479C202.663 35.8479 207.852 41.8145 202.958 43.9383C199.32 45.5153 196.854 35.0856 196.854 35.0856V35.0804Z" fill="black"/>
<path d="M195.391 70.042H167.399C166.978 70.042 166.637 70.3837 166.637 70.8042C166.637 71.2247 166.978 71.5664 167.399 71.5664H195.391C195.811 71.5664 196.153 71.2247 196.153 70.8042C196.153 70.3837 195.811 70.042 195.391 70.042Z" fill="#263238"/>
<path d="M167.81 71.1015H177.378C177.625 71.1015 177.804 70.8544 177.72 70.6179L172.473 55.6252C172.331 55.2099 171.937 54.9365 171.501 54.9365H161.933C161.686 54.9365 161.507 55.1836 161.591 55.4202L166.838 70.4129C166.98 70.8281 167.374 71.1015 167.81 71.1015Z" fill="#263238"/>
<path d="M167.351 71.1015H176.919C177.166 71.1015 177.345 70.8544 177.261 70.6179L172.014 55.6252C171.867 55.2099 171.478 54.9365 171.042 54.9365H161.474C161.227 54.9365 161.048 55.1836 161.132 55.4202L166.379 70.4129C166.521 70.8281 166.915 71.1015 167.351 71.1015Z" fill="black"/>
<path d="M168.956 64.0297H170.165C170.197 64.0297 170.218 63.9981 170.207 63.9666L169.545 62.0689C169.529 62.0163 169.476 61.9795 169.424 61.9795H168.215C168.183 61.9795 168.162 62.011 168.173 62.0426L168.835 63.9403C168.851 63.9929 168.903 64.0297 168.956 64.0297Z" fill="white"/>
<path d="M178.61 71.5704C178.189 71.5704 177.848 71.2287 177.848 70.8081C177.848 70.3876 178.189 70.0459 178.61 70.0459H195.39C195.811 70.0459 196.152 70.3876 196.152 70.8081C196.152 71.2287 195.811 71.5704 195.39 71.5704H178.61Z" fill="black"/>
<path d="M199.66 71.6206H159.75V72.5458C159.75 73.0452 159.834 73.5289 159.987 73.9757H199.66C200.312 73.9757 200.838 73.45 200.838 72.7981C200.838 72.1463 200.312 71.6206 199.66 71.6206Z" fill="#407BFF"/>
<path d="M164.245 77.0239H198.567V73.9644H159.992C160.591 75.7412 162.268 77.0239 164.245 77.0239Z" fill="#407BFF"/>
<path opacity="0.6" d="M199.66 71.6206H159.75V72.5458C159.75 73.0452 159.834 73.5289 159.987 73.9757H199.66C200.312 73.9757 200.838 73.45 200.838 72.7981C200.838 72.1463 200.312 71.6206 199.66 71.6206Z" fill="white"/>
<path opacity="0.4" d="M164.245 77.0239H198.567V73.9644H159.992C160.591 75.7412 162.268 77.0239 164.245 77.0239Z" fill="white"/>
<path d="M54.0377 155.976H47.8556C44.6226 155.976 41.889 153.453 41.6367 150.225L40.5117 135.963L42.8563 135.779L43.9813 150.041C44.139 152.049 45.8422 153.621 47.8556 153.621H54.0377V155.976Z" fill="#263238"/>
<path d="M50.9148 137.477C52.3972 137.324 53.4801 135.999 53.3277 134.517L51.4562 116.26C51.3038 114.777 49.979 113.694 48.4966 113.847H30.6179C29.6296 113.947 28.9094 114.835 29.0093 115.823L31.0594 135.868C31.1593 136.856 32.0477 137.577 33.036 137.477H50.9148Z" fill="#407BFF"/>
<path opacity="0.3" d="M50.9148 137.477C52.3972 137.324 53.4801 135.999 53.3277 134.517L51.4562 116.26C51.3038 114.777 49.979 113.694 48.4966 113.847H30.6179C29.6296 113.947 28.9094 114.835 29.0093 115.823L31.0594 135.868C31.1593 136.856 32.0477 137.577 33.036 137.477H50.9148Z" fill="black"/>
<path d="M31.0594 135.868L29.0093 115.823C28.9094 114.835 29.6296 113.947 30.6179 113.847C32.1003 113.694 33.4303 114.777 33.5775 116.26L35.449 134.517C35.6014 135.999 34.5185 137.329 33.036 137.477C32.0477 137.577 31.1593 136.856 31.0594 135.868Z" fill="#407BFF"/>
<path d="M51.2812 190.541L51.4441 190.052C51.6492 189.431 52.2274 189.011 52.8845 189.011H69.6015C70.3112 189.011 70.9315 189.505 71.0839 190.199L71.126 190.393C71.2732 191.066 71.8725 191.55 72.5611 191.55C73.5021 191.55 74.2013 190.682 73.9963 189.763L73.9542 189.568C73.5021 187.523 71.6937 186.067 69.6015 186.067H52.8845C50.9605 186.067 49.2573 187.302 48.6527 189.126L48.4898 189.615C48.1743 190.567 48.884 191.545 49.8881 191.545C50.5242 191.545 51.0867 191.14 51.2864 190.535L51.2812 190.541Z" fill="#263238"/>
<path opacity="0.7" d="M63.6943 186.071H58.5215V189.009H63.6943V186.071Z" fill="black"/>
<path d="M61.1067 191.228C60.2971 191.228 59.6348 190.571 59.6348 189.756V150.677H62.5734V189.756C62.5734 190.566 61.9162 191.228 61.1014 191.228H61.1067Z" fill="#263238"/>
<path d="M63.1605 193.897C63.1605 195.033 62.2405 195.958 61.0998 195.958C59.959 195.958 59.0391 195.038 59.0391 193.897C59.0391 192.756 59.959 191.836 61.0998 191.836C62.2405 191.836 63.1605 192.756 63.1605 193.897Z" fill="#407BFF"/>
<path d="M50.473 193.897C50.473 195.033 49.553 195.958 48.4123 195.958C47.2715 195.958 46.3516 195.038 46.3516 193.897C46.3516 192.756 47.2715 191.836 48.4123 191.836C49.553 191.836 50.473 192.756 50.473 193.897Z" fill="#407BFF"/>
<path d="M76.0784 193.897C76.0784 195.033 75.1585 195.958 74.0177 195.958C72.877 195.958 71.957 195.038 71.957 193.897C71.957 192.756 72.877 191.836 74.0177 191.836C75.1585 191.836 76.0784 192.756 76.0784 193.897Z" fill="#407BFF"/>
<path opacity="0.7" d="M62.5734 152.938H59.6348V159.893H62.5734V152.938Z" fill="black"/>
<path d="M70.6505 156.291H51.2585C49.6342 156.291 48.2254 155.161 47.8732 153.573L47.2949 150.95H74.9189L73.9412 153.915C73.4733 155.334 72.1486 156.291 70.6505 156.291Z" fill="#263238"/>
<path opacity="0.5" d="M70.6505 156.291H51.2585C49.6342 156.291 48.2254 155.161 47.8732 153.573L47.2949 150.95H74.9189L73.9412 153.915C73.4733 155.334 72.1486 156.291 70.6505 156.291Z" fill="white"/>
<path d="M46.6987 148.29H75.5125C76.8425 148.29 77.9254 149.373 77.9254 150.703V151.392C77.9254 152.28 77.2052 153 76.3168 153H45.8997C45.0112 153 44.291 152.28 44.291 151.392V150.703C44.291 149.373 45.374 148.29 46.704 148.29H46.6987Z" fill="#407BFF"/>
<path d="M81.4343 136.696C81.4343 136.696 93.5362 136.092 94.3983 140.129C95.2605 144.166 93.431 191.638 93.431 191.638L89.6196 191.88C89.6196 191.88 83.0167 153.84 86.2656 147.321L76.6504 147.452L81.4343 136.701V136.696Z" fill="#FFBE9D"/>
<g style="mix-blend-mode:multiply" opacity="0.1">
<path d="M94.1544 170.275C91.794 170.249 89.1445 170.312 86.5371 170.417C86.8052 172.756 87.0996 175.075 87.3992 177.272C89.4652 176.878 91.7204 176.336 93.9914 175.616C94.0492 173.892 94.1018 172.099 94.1544 170.27V170.275Z" fill="black"/>
</g>
<path d="M94.3471 191.513C94.305 191.508 94.2735 191.477 94.263 191.44C94.2524 191.398 94.2682 191.356 94.305 191.335C94.3681 191.293 95.7507 190.362 96.4551 190.504C96.5865 190.53 96.7022 190.604 96.781 190.709C96.8809 190.83 96.8967 190.998 96.8178 191.135C96.6654 191.366 96.1397 191.503 95.6245 191.54C95.1987 191.566 94.7729 191.561 94.3523 191.513H94.3471ZM94.6572 191.361C95.4353 191.403 96.4761 191.319 96.6496 191.035C96.6759 190.998 96.6969 190.94 96.6128 190.819C96.5655 190.751 96.4919 190.704 96.4078 190.698C96.3447 190.688 96.2816 190.683 96.2185 190.688C95.6613 190.809 95.1251 191.04 94.652 191.361H94.6572Z" fill="#407BFF"/>
<path d="M94.2987 191.496C94.2671 191.481 94.2461 191.444 94.2461 191.412C94.2461 191.36 94.2776 190.235 94.7718 189.762C94.9137 189.625 95.1082 189.546 95.308 189.557C95.5814 189.562 95.676 189.693 95.6917 189.804C95.8127 190.261 94.8822 191.234 94.4038 191.486C94.3933 191.491 94.3775 191.496 94.3617 191.491C94.3407 191.502 94.3144 191.502 94.2934 191.491L94.2987 191.496ZM95.2607 189.746C95.1345 189.751 95.0189 189.804 94.9295 189.893C94.6456 190.272 94.4879 190.729 94.4721 191.202C94.961 190.86 95.5656 190.114 95.5183 189.835C95.5078 189.809 95.492 189.741 95.3132 189.741L95.2554 189.751L95.2607 189.746Z" fill="#407BFF"/>
<path d="M93.8883 190.964L89.3726 191.29C89.2044 191.3 89.0624 191.432 89.0361 191.6L88.4842 195.332C88.4316 195.664 88.6576 195.974 88.9888 196.026C89.0309 196.032 89.0729 196.037 89.115 196.032C90.7394 195.884 92.185 195.69 94.2089 195.548C96.6008 195.374 96.0173 195.706 98.8298 195.543C100.528 195.443 100.696 193.492 99.9705 193.45C96.6534 193.277 96.2381 192.304 94.8818 191.222C94.5874 191.016 94.23 190.922 93.8777 190.964H93.8883Z" fill="#263238"/>
<path d="M74.0645 137.086C74.0645 137.086 86.1821 137.664 86.8497 141.744C87.5174 145.818 82.7965 191.938 82.7965 191.938L78.9798 191.996C78.9798 191.996 74.2169 153.683 77.776 147.327L68.166 146.996L74.0645 137.086Z" fill="#FFBE9D"/>
<g style="mix-blend-mode:multiply" opacity="0.1">
<path d="M84.2197 177.494C84.4352 175.244 84.6612 172.858 84.882 170.424C81.996 170.403 79.1836 170.439 76.9336 170.481C77.1071 173.047 77.3068 175.591 77.5171 177.978C78.8892 177.951 81.3073 177.846 84.2144 177.494H84.2197Z" fill="black"/>
</g>
<path d="M83.6415 191.901C83.5995 191.896 83.5679 191.864 83.5574 191.822C83.5469 191.78 83.5679 191.738 83.5995 191.717C83.6626 191.68 85.0819 190.807 85.7811 190.976C85.9125 191.007 86.0229 191.086 86.0965 191.196C86.1911 191.317 86.2017 191.491 86.1175 191.622C85.9546 191.848 85.4236 191.959 84.9085 191.974C84.4826 191.985 84.0568 191.959 83.6363 191.896L83.6415 191.901ZM83.957 191.759C84.7297 191.832 85.7758 191.79 85.9598 191.517C85.9861 191.48 86.0124 191.422 85.9335 191.302C85.8915 191.228 85.8179 191.181 85.739 191.17C85.676 191.154 85.6129 191.149 85.5498 191.149C84.9873 191.249 84.4458 191.454 83.957 191.754V191.759Z" fill="#407BFF"/>
<path d="M83.5903 191.87C83.5587 191.849 83.543 191.817 83.543 191.78C83.543 191.728 83.6218 190.608 84.137 190.156C84.2842 190.025 84.4787 189.956 84.6785 189.972C84.9518 189.993 85.0412 190.124 85.0517 190.235C85.1568 190.697 84.1843 191.628 83.6954 191.864C83.6849 191.87 83.6691 191.875 83.6534 191.864C83.6323 191.87 83.6061 191.87 83.585 191.864L83.5903 191.87ZM84.6206 190.161C84.4945 190.161 84.3788 190.214 84.2842 190.293C83.9846 190.661 83.8058 191.107 83.7743 191.581C84.2789 191.26 84.9098 190.54 84.8782 190.256C84.8677 190.23 84.8572 190.161 84.6785 190.151H84.6206V190.161Z" fill="#407BFF"/>
<path d="M83.2001 191.304L78.6739 191.441C78.5057 191.441 78.3585 191.567 78.3269 191.735L77.6225 195.442C77.5594 195.767 77.7697 196.088 78.1009 196.156C78.1429 196.167 78.185 196.167 78.227 196.167C79.8567 196.088 81.3076 195.957 83.3367 195.894C85.7339 195.82 85.1346 196.125 87.9576 196.078C89.6556 196.046 89.9079 194.106 89.1877 194.033C85.8758 193.717 85.5079 192.734 84.1989 191.594C83.915 191.378 83.5628 191.268 83.2053 191.294L83.2001 191.304Z" fill="#263238"/>
<path d="M47.7775 128.525C47.7775 128.525 47.4936 130.371 46.6104 132.915C45.0649 137.347 44.7179 144.491 47.8405 147.046C52.7611 151.062 71.7178 146.473 74.4725 149.427C76.7645 151.887 75.5449 175.25 75.5449 175.25C75.5449 175.25 86.4426 174.85 95.9157 173.341C95.9157 173.341 94.8643 167.243 95.3269 155.546C95.7896 143.85 96.9356 137.578 89.8229 136.774C82.7154 135.969 70.0461 133.546 68.4742 131.128C67.4176 129.503 67.9117 128.573 67.9117 128.573L47.7722 128.525H47.7775Z" fill="#263238"/>
<path opacity="0.5" d="M89.8704 174.159C89.4341 172.067 88.8874 166.858 89.6549 154.509C90.149 146.561 91.8207 138.166 84.9395 138.166C84.9395 138.166 88.7244 138.823 88.7244 142.949C88.7244 146.503 86.853 168.466 86.3325 174.522C87.4785 174.417 88.6666 174.296 89.8704 174.159Z" fill="black"/>
<path opacity="0.5" d="M68.3636 130.92C67.4752 129.422 67.9273 128.565 67.9273 128.565L47.7881 128.518C47.7881 128.518 47.5831 129.853 46.9785 131.814C49.5754 132.04 54.9532 132.402 58.2914 132.224C62.9648 131.971 69.0523 133.533 69.0523 133.533C69.0523 133.533 66.8969 131.945 68.3689 130.915L68.3636 130.92Z" fill="black"/>
<path d="M75.287 88.658C75.287 88.658 73.9886 91.8805 74.9296 96.8483C75.6813 100.822 68.8316 99.1771 66.5869 96.8483C64.3369 94.5194 73.5943 88.311 73.5943 88.311L75.287 88.658Z" fill="#263238"/>
<path opacity="0.4" d="M75.287 88.658C75.287 88.658 73.9886 91.8805 74.9296 96.8483C75.6813 100.822 68.8316 99.1771 66.5869 96.8483C64.3369 94.5194 73.5943 88.311 73.5943 88.311L75.287 88.658Z" fill="black"/>
<path d="M75.8542 122.215L78.6772 122.978C78.6772 122.978 82.4464 120.864 83.7606 121.164C84.4756 121.327 85.5637 122.515 86.347 123.482C86.8254 124.071 86.531 124.954 85.795 125.143C85.6163 125.185 85.4323 125.185 85.2589 125.133L83.3243 124.576C83.3243 124.576 81.1585 125.538 80.3121 125.59C78.8191 125.685 74.7188 124.544 74.7188 124.544L75.8542 122.215Z" fill="#FFBE9D"/>
<path d="M70.9314 99.3617C72.1352 99.551 74.4955 100.849 71.9512 111.515C71.5464 113.203 70.8368 116.409 71.3887 118.055C72.3823 121.03 77.7756 122.355 77.7756 122.355L77.1659 125.372C77.1659 125.372 67.1886 123.232 66.1741 119.758C65.1911 116.393 65.5643 98.5207 70.9367 99.3617H70.9314Z" fill="#407BFF"/>
<path d="M70.9314 99.3617C72.1352 99.551 74.4955 100.849 71.9512 111.515C71.5464 113.203 70.8368 116.409 71.3887 118.055C72.3823 121.03 77.7756 122.355 77.7756 122.355L77.1659 125.372C77.1659 125.372 67.1886 123.232 66.1741 119.758C65.1911 116.393 65.5643 98.5207 70.9367 99.3617H70.9314Z" fill="#E8505B"/>
<path d="M47.127 129.501C47.127 129.501 56.3054 131.046 68.1492 129.501C68.1492 129.501 67.4079 125.022 68.8483 117.578C69.0271 116.669 70.4885 111.27 70.7513 110.381C73.59 100.824 75.1566 98.3958 62.1353 97.4706C50.9487 96.6715 49.2402 99.4734 48.9511 106.092C48.662 112.705 47.127 129.501 47.127 129.501Z" fill="#407BFF"/>
<path d="M47.127 129.501C47.127 129.501 56.3054 131.046 68.1492 129.501C68.1492 129.501 67.4079 125.022 68.8483 117.578C69.0271 116.669 70.4885 111.27 70.7513 110.381C73.59 100.824 75.1566 98.3958 62.1353 97.4706C50.9487 96.6715 49.2402 99.4734 48.9511 106.092C48.662 112.705 47.127 129.501 47.127 129.501Z" fill="#E8505B"/>
<path d="M58.8204 121.981L61.6802 123.238C61.6802 123.238 65.4967 121.098 66.8267 121.398C67.6783 121.592 69.2869 123.884 69.2869 123.884C69.7916 124.394 69.5498 125.262 68.8559 125.435C68.6982 125.477 68.5299 125.472 68.3775 125.425L66.3904 124.852C66.3904 124.852 64.1983 125.824 63.3414 125.882C61.8326 125.977 57.6797 124.337 57.6797 124.337L58.831 121.976L58.8204 121.981Z" fill="#FFBE9D"/>
<path d="M60.4003 97.0569C58.839 97.4669 57.9033 98.5709 58.5078 102.797C58.5078 102.797 59.6959 101.32 60.9733 102.797C62.2455 104.275 64.5217 106.698 64.5217 106.698C64.5217 106.698 66.451 104.953 67.6601 103.439C68.8692 101.925 69.5789 103.691 69.5789 103.691C69.5789 103.691 70.5935 98.9651 68.0912 97.9085C65.8254 96.9518 62.2875 96.568 60.4056 97.0621L60.4003 97.0569Z" fill="#407BFF"/>
<path opacity="0.6" d="M60.4003 97.0569C58.839 97.4669 57.9033 98.5709 58.5078 102.797C58.5078 102.797 59.6959 101.32 60.9733 102.797C62.2455 104.275 64.5217 106.698 64.5217 106.698C64.5217 106.698 66.451 104.953 67.6601 103.439C68.8692 101.925 69.5789 103.691 69.5789 103.691C69.5789 103.691 70.5935 98.9651 68.0912 97.9085C65.8254 96.9518 62.2875 96.568 60.4056 97.0621L60.4003 97.0569Z" fill="white"/>
<path opacity="0.1" d="M48.9573 106.093C48.7943 109.762 48.2529 116.559 47.8008 121.889C69.348 130.568 55.7542 120.727 55.7542 120.727C55.7542 120.727 51.4437 117.789 53.4623 110.729C55.4861 103.669 54.8711 99.2853 54.8711 99.2853L54.1824 97.7871C50.0244 98.8017 49.157 101.546 48.9573 106.093Z" fill="black"/>
<path d="M53.0556 98.1771C55.8469 98.0299 56.7301 99.1601 52.6088 109.342C51.9517 110.967 50.8951 114.294 51.4523 115.96C52.4616 118.967 61.3349 122.542 61.3349 122.542L60.0313 125.554C60.0313 125.554 45.2231 120.623 45.5806 117.096C45.9433 113.569 48.4613 98.4189 53.0504 98.1771H53.0556Z" fill="#407BFF"/>
<path d="M53.0556 98.1771C55.8469 98.0299 56.7301 99.1601 52.6088 109.342C51.9517 110.967 50.8951 114.294 51.4523 115.96C52.4616 118.967 61.3349 122.542 61.3349 122.542L60.0313 125.554C60.0313 125.554 45.2231 120.623 45.5806 117.096C45.9433 113.569 48.4613 98.4189 53.0504 98.1771H53.0556Z" fill="#E8505B"/>
<path d="M64.7293 105.511C64.7293 105.511 70.4383 100.607 68.2619 98.6775C67.158 97.6997 63.7778 96.8166 60.8024 97.4947C60.0874 97.6577 59.4356 99.7657 64.7293 105.511Z" fill="#FFBE9D"/>
<path d="M68.2201 100.529C68.1938 99.6095 68.0308 98.9682 68.0308 98.9682C67.5051 98.7001 66.5957 97.7065 67.5787 96.1505L64.393 90.5571C63.7885 93.091 63.2733 97.1756 60.934 97.9851C60.934 97.9851 60.198 99.9039 63.5414 104.046L68.2201 100.529Z" fill="#FFBE9D"/>
<path opacity="0.2" d="M64.398 90.5571C64.1982 91.4035 64.0037 92.4286 63.7461 93.4379C63.8355 94.7627 64.419 97.3017 67.4522 98.4425C67.1105 97.9536 66.9318 97.1756 67.5836 96.1505L64.398 90.5571Z" fill="black"/>
<path d="M63.7513 85.7372C63.0574 90.0374 62.6789 91.8352 64.3348 94.49C66.8213 98.4852 72.257 98.3906 74.2178 94.3901C75.9789 90.7838 76.8147 84.3336 73.0297 81.742C70.3434 79.86 66.6426 80.5118 64.7606 83.1981C64.2297 83.9551 63.8827 84.8225 63.7513 85.7372Z" fill="#FFBE9D"/>
<path d="M70.6388 89.1127C70.5336 89.4491 70.6283 89.7803 70.8438 89.8539C71.0593 89.9275 71.3327 89.7067 71.4431 89.3702C71.5535 89.0338 71.4536 88.7026 71.2381 88.629C71.0225 88.5554 70.7597 88.7972 70.6388 89.1127Z" fill="black"/>
<path d="M74.4435 90.3203C74.3383 90.662 74.4329 90.9879 74.6485 91.0615C74.864 91.1351 75.1374 90.9143 75.2478 90.5779C75.3582 90.2415 75.2583 89.9103 75.0375 89.8419C74.8167 89.7788 74.5538 89.9839 74.4435 90.3203Z" fill="black"/>
<path d="M74.9316 89.8188L75.8148 89.8399C75.8148 89.8399 75.1997 90.3445 74.9316 89.8188Z" fill="black"/>
<path d="M73.0701 90.5688C73.1279 91.4362 73.3067 92.2879 73.5958 93.1079C73.17 93.2446 72.7021 93.1868 72.3184 92.9502L73.0701 90.5688Z" fill="#FFBE9D"/>
<path d="M70.0661 93.682C70.2238 93.7609 70.3868 93.824 70.5498 93.8766C70.6023 93.8976 70.6601 93.866 70.6812 93.8135C70.6969 93.7556 70.6601 93.7031 70.6076 93.682C69.7507 93.4297 69.0673 92.7831 68.7624 91.9473C68.7466 91.8894 68.6888 91.8579 68.6362 91.8737C68.5784 91.8894 68.5469 91.9473 68.5626 91.9998C68.815 92.7411 69.3564 93.3456 70.0661 93.682Z" fill="black"/>
<path d="M69.3416 87.8639C69.4204 87.906 69.5203 87.8902 69.5834 87.8271C70.1196 87.4066 70.8083 87.2279 71.4864 87.333C71.602 87.354 71.7072 87.2752 71.7282 87.1648C71.7492 87.0544 71.6756 86.9492 71.56 86.9282C71.56 86.9282 71.56 86.9282 71.5547 86.9282C70.7452 86.7915 69.9146 87.0176 69.2837 87.5433C69.2049 87.6221 69.2102 87.7536 69.2837 87.8324C69.2837 87.8324 69.3153 87.8639 69.3363 87.8692L69.3416 87.8639Z" fill="black"/>
<path d="M76.1396 88.9453C76.2079 88.9768 76.2868 88.9716 76.3499 88.9348C76.4445 88.8717 76.4708 88.7403 76.4129 88.6456C76.0607 88.0621 75.4457 87.6941 74.7675 87.6626C74.6571 87.6626 74.5678 87.7415 74.5625 87.8518C74.5625 87.8571 74.5625 87.8624 74.5625 87.8676C74.5625 87.978 74.6519 88.0726 74.7675 88.0726C75.2932 88.1147 75.7716 88.4091 76.045 88.8612C76.066 88.898 76.0975 88.9243 76.1396 88.9453Z" fill="black"/>
<path d="M71.1113 88.6235L71.9945 88.6446C71.9945 88.6446 71.3899 89.1282 71.1113 88.6235Z" fill="black"/>
<path d="M63.3541 87.7019C63.3541 87.7019 65.7512 90.8035 67.0286 88.0279C68.3061 85.2522 73.2633 84.1693 72.3171 82.5607C72.3171 82.5607 74.3462 83.8013 75.6394 85.7832C75.7919 86.0145 76.1389 85.8988 76.1178 85.6255C75.9864 83.7698 75.2557 80.111 71.5443 80.2529C71.5443 80.2529 67.6595 77.3616 64.3371 79.6589C61.1724 81.8457 63.3488 87.6967 63.3488 87.6967L63.3541 87.7019Z" fill="black"/>
<path d="M70.4828 80.1341C70.4828 80.1341 64.7738 76.3123 61.0992 83.4196C57.4246 90.527 52.0783 92.0462 55.3166 96.2623C58.5496 100.478 64.5162 99.5268 64.5477 97.2611C64.5793 94.9901 63.0863 93.0188 64.0536 89.9382C65.0209 86.8577 70.4828 80.1393 70.4828 80.1393V80.1341Z" fill="black"/>
<path d="M61.8703 88.7657C61.9649 89.5858 62.3802 90.3322 63.0268 90.8474C63.8942 91.515 64.7406 90.8474 64.851 89.8066C64.9403 88.8708 64.6039 87.3936 63.5736 87.115C62.8166 86.9363 62.0596 87.3989 61.8808 88.1559C61.8335 88.3556 61.8283 88.5659 61.8703 88.7657Z" fill="#FFBE9D"/>
<path d="M116.081 193.245L105.768 190.411L104.474 127.93H100.821L99.5279 190.411L89.2142 193.245C87.9631 193.586 87.0957 194.727 87.0957 196.026H118.2C118.2 194.727 117.332 193.592 116.081 193.245Z" fill="#263238"/>
<path opacity="0.5" d="M116.081 193.245L105.768 190.411L104.474 127.93H100.821L99.5279 190.411L89.2142 193.245C87.9631 193.586 87.0957 194.727 87.0957 196.026H118.2C118.2 194.727 117.332 193.592 116.081 193.245Z" fill="white"/>
<path opacity="0.2" d="M98.4264 196.034V194.367C98.4264 193.857 98.6787 193.384 99.0993 193.095L102.642 190.677V130.402H101.602V190.677L96.413 193.137C95.8768 193.39 95.5352 193.936 95.5352 194.53V196.034H98.4264Z" fill="white"/>
<path d="M146.349 129.324H67.1758V131.458H146.349V129.324Z" fill="#263238"/>
<path opacity="0.3" d="M146.349 129.324H67.1758V131.458H146.349V129.324Z" fill="white"/>
<path opacity="0.2" d="M146.342 129.324H106.863V131.459H146.342V129.324Z" fill="black"/>
<path d="M151.121 127.188H62.3965V129.322H151.121V127.188Z" fill="#263238"/>
<path opacity="0.3" d="M151.122 127.188H102.09V129.322H151.122V127.188Z" fill="black"/>
<path d="M169.112 114.743V100.812H169.106V98.2408C169.106 94.645 166.178 91.7168 162.582 91.7168H123.506C119.911 91.7168 116.982 94.645 116.982 98.2408V120.405H118.701V98.2408C118.701 95.5913 120.857 93.4359 123.506 93.4359H162.582C165.232 93.4359 167.387 95.5913 167.387 98.2408V114.748H165.353L168.255 119.458L171.157 114.748H169.112V114.743Z" fill="#407BFF"/>
<path d="M206.306 120.13H94.0508V121.849H206.306V120.13Z" fill="#407BFF"/>
<path d="M123.473 129.49H110.173C109.405 129.49 108.785 128.87 108.785 128.102V109.183C108.785 108.415 109.405 107.795 110.173 107.795H125.534C126.301 107.795 126.921 108.415 126.921 109.183V128.102C126.921 128.87 126.301 129.49 125.534 129.49H123.473Z" fill="#407BFF"/>
<path opacity="0.8" d="M123.473 129.49H110.173C109.405 129.49 108.785 128.87 108.785 128.102V109.183C108.785 108.415 109.405 107.795 110.173 107.795H125.534C126.301 107.795 126.921 108.415 126.921 109.183V128.102C126.921 128.87 126.301 129.49 125.534 129.49H123.473Z" fill="white"/>
<path d="M125.534 107.803H110.173C109.405 107.803 108.785 108.423 108.785 109.191V111.235H126.921V109.191C126.921 108.423 126.301 107.803 125.534 107.803Z" fill="#263238"/>
<path d="M124.86 110.166C125.179 110.166 125.438 109.907 125.438 109.588C125.438 109.269 125.179 109.01 124.86 109.01C124.54 109.01 124.281 109.269 124.281 109.588C124.281 109.907 124.54 110.166 124.86 110.166Z" fill="#407BFF"/>
<path d="M122.555 110.166C122.874 110.166 123.133 109.907 123.133 109.588C123.133 109.269 122.874 109.01 122.555 109.01C122.235 109.01 121.977 109.269 121.977 109.588C121.977 109.907 122.235 110.166 122.555 110.166Z" fill="#407BFF"/>
<path d="M120.248 110.166C120.568 110.166 120.826 109.907 120.826 109.588C120.826 109.269 120.568 109.01 120.248 109.01C119.929 109.01 119.67 109.269 119.67 109.588C119.67 109.907 119.929 110.166 120.248 110.166Z" fill="#407BFF"/>
<path d="M116.281 114.715L114.246 115.461L116.281 116.197V116.96L113.379 115.856V115.062L116.281 113.958V114.715Z" fill="#263238"/>
<path d="M118.465 112.462H119.311L117.298 118.208H116.451L118.465 112.462Z" fill="#263238"/>
<path d="M122.33 115.062V115.856L119.428 116.96V116.197L121.457 115.461L119.428 114.715V113.958L122.33 115.062Z" fill="#263238"/>
<path d="M114.054 120.184H110.816C110.586 120.184 110.4 120.37 110.4 120.599V120.673C110.4 120.902 110.586 121.088 110.816 121.088H114.054C114.283 121.088 114.469 120.902 114.469 120.673V120.599C114.469 120.37 114.283 120.184 114.054 120.184Z" fill="#263238"/>
<path d="M119.944 120.184H115.691C115.461 120.184 115.275 120.37 115.275 120.599V120.673C115.275 120.902 115.461 121.088 115.691 121.088H119.944C120.173 121.088 120.359 120.902 120.359 120.673V120.599C120.359 120.37 120.173 120.184 119.944 120.184Z" fill="#263238"/>
<path d="M124.886 120.184H121.579C121.35 120.184 121.164 120.37 121.164 120.599V120.673C121.164 120.902 121.35 121.088 121.579 121.088H124.886C125.115 121.088 125.301 120.902 125.301 120.673V120.599C125.301 120.37 125.115 120.184 124.886 120.184Z" fill="#263238"/>
<path d="M114.39 122.446H110.816C110.586 122.446 110.4 122.632 110.4 122.861V122.935C110.4 123.164 110.586 123.35 110.816 123.35H114.39C114.62 123.35 114.806 123.164 114.806 122.935V122.861C114.806 122.632 114.62 122.446 114.39 122.446Z" fill="#263238"/>
<path d="M120.629 122.446H116.034C115.805 122.446 115.619 122.632 115.619 122.861V122.935C115.619 123.164 115.805 123.35 116.034 123.35H120.629C120.858 123.35 121.044 123.164 121.044 122.935V122.861C121.044 122.632 120.858 122.446 120.629 122.446Z" fill="#263238"/>
<path d="M124.884 122.446H122.255C122.026 122.446 121.84 122.632 121.84 122.861V122.935C121.84 123.164 122.026 123.35 122.255 123.35H124.884C125.113 123.35 125.299 123.164 125.299 122.935V122.861C125.299 122.632 125.113 122.446 124.884 122.446Z" fill="#263238"/>
<path d="M113.712 124.672H110.816C110.586 124.672 110.4 124.858 110.4 125.088V125.161C110.4 125.391 110.586 125.577 110.816 125.577H113.712C113.942 125.577 114.128 125.391 114.128 125.161V125.088C114.128 124.858 113.942 124.672 113.712 124.672Z" fill="#263238"/>
<path d="M119.608 124.672H115.355C115.125 124.672 114.939 124.858 114.939 125.088V125.161C114.939 125.391 115.125 125.577 115.355 125.577H119.608C119.837 125.577 120.023 125.391 120.023 125.161V125.088C120.023 124.858 119.837 124.672 119.608 124.672Z" fill="#263238"/>
<path d="M124.888 124.672H121.24C121.01 124.672 120.824 124.858 120.824 125.088V125.161C120.824 125.391 121.01 125.577 121.24 125.577H124.888C125.117 125.577 125.303 125.391 125.303 125.161V125.088C125.303 124.858 125.117 124.672 124.888 124.672Z" fill="#263238"/>
<path d="M115.069 126.938H110.816C110.586 126.938 110.4 127.124 110.4 127.353V127.427C110.4 127.656 110.586 127.842 110.816 127.842H115.069C115.298 127.842 115.484 127.656 115.484 127.427V127.353C115.484 127.124 115.298 126.938 115.069 126.938Z" fill="#263238"/>
<path d="M120.627 126.938H116.71C116.481 126.938 116.295 127.124 116.295 127.353V127.427C116.295 127.656 116.481 127.842 116.71 127.842H120.627C120.856 127.842 121.042 127.656 121.042 127.427V127.353C121.042 127.124 120.856 126.938 120.627 126.938Z" fill="#263238"/>
<path d="M124.884 126.938H122.255C122.026 126.938 121.84 127.124 121.84 127.353V127.427C121.84 127.656 122.026 127.842 122.255 127.842H124.884C125.113 127.842 125.299 127.656 125.299 127.427V127.353C125.299 127.124 125.113 126.938 124.884 126.938Z" fill="#263238"/>
<path d="M173.983 101.905H160.683C159.915 101.905 159.295 101.284 159.295 100.517V81.5973C159.295 80.8298 159.915 80.2095 160.683 80.2095H176.043C176.811 80.2095 177.431 80.8298 177.431 81.5973V100.517C177.431 101.284 176.811 101.905 176.043 101.905H173.983Z" fill="#407BFF"/>
<path opacity="0.8" d="M173.983 101.905H160.683C159.915 101.905 159.295 101.284 159.295 100.517V81.5973C159.295 80.8298 159.915 80.2095 160.683 80.2095H176.043C176.811 80.2095 177.431 80.8298 177.431 81.5973V100.517C177.431 101.284 176.811 101.905 176.043 101.905H173.983Z" fill="white"/>
<path d="M176.043 80.2095H160.683C159.915 80.2095 159.295 80.8298 159.295 81.5973V83.6422H177.431V81.5973C177.431 80.8298 176.811 80.2095 176.043 80.2095Z" fill="#263238"/>
<path d="M175.369 82.5808C175.689 82.5808 175.948 82.3219 175.948 82.0026C175.948 81.6832 175.689 81.4243 175.369 81.4243C175.05 81.4243 174.791 81.6832 174.791 82.0026C174.791 82.3219 175.05 82.5808 175.369 82.5808Z" fill="#407BFF"/>
<path d="M173.068 82.5808C173.388 82.5808 173.647 82.3219 173.647 82.0026C173.647 81.6832 173.388 81.4243 173.068 81.4243C172.749 81.4243 172.49 81.6832 172.49 82.0026C172.49 82.3219 172.749 82.5808 173.068 82.5808Z" fill="#407BFF"/>
<path d="M170.758 82.5808C171.077 82.5808 171.336 82.3219 171.336 82.0026C171.336 81.6832 171.077 81.4243 170.758 81.4243C170.439 81.4243 170.18 81.6832 170.18 82.0026C170.18 82.3219 170.439 82.5808 170.758 82.5808Z" fill="#407BFF"/>
<path d="M166.794 87.1256L164.76 87.8721L166.794 88.6081V89.3703L163.893 88.2664V87.4726L166.794 86.3687V87.1256Z" fill="#263238"/>
<path d="M168.978 84.8687H169.825L167.811 90.6144H166.965L168.978 84.8687Z" fill="#263238"/>
<path d="M172.843 87.4726V88.2664L169.941 89.3703V88.6081L171.971 87.8721L169.941 87.1256V86.3687L172.843 87.4726Z" fill="#263238"/>
<path d="M164.568 92.5796H161.329C161.1 92.5796 160.914 92.7655 160.914 92.9949V93.0685C160.914 93.2978 161.1 93.4838 161.329 93.4838H164.568C164.797 93.4838 164.983 93.2978 164.983 93.0685V92.9949C164.983 92.7655 164.797 92.5796 164.568 92.5796Z" fill="#263238"/>
<path d="M170.457 92.5796H166.204C165.975 92.5796 165.789 92.7655 165.789 92.9949V93.0685C165.789 93.2978 165.975 93.4838 166.204 93.4838H170.457C170.687 93.4838 170.872 93.2978 170.872 93.0685V92.9949C170.872 92.7655 170.687 92.5796 170.457 92.5796Z" fill="#263238"/>
<path d="M172.089 92.5796H175.396C175.627 92.5796 175.811 92.7636 175.811 92.9949V93.0685C175.811 93.2998 175.627 93.4838 175.396 93.4838H172.089C171.858 93.4838 171.674 93.2998 171.674 93.0685V92.9949C171.674 92.7636 171.858 92.5796 172.089 92.5796Z" fill="#263238"/>
<path d="M164.904 94.8491H161.329C161.1 94.8491 160.914 95.0351 160.914 95.2644V95.338C160.914 95.5674 161.1 95.7533 161.329 95.7533H164.904C165.133 95.7533 165.319 95.5674 165.319 95.338V95.2644C165.319 95.0351 165.133 94.8491 164.904 94.8491Z" fill="#263238"/>
<path d="M171.135 94.8491H166.54C166.311 94.8491 166.125 95.0351 166.125 95.2644V95.338C166.125 95.5674 166.311 95.7533 166.54 95.7533H171.135C171.364 95.7533 171.55 95.5674 171.55 95.338V95.2644C171.55 95.0351 171.364 94.8491 171.135 94.8491Z" fill="#263238"/>
<path d="M175.393 94.8491H172.765C172.536 94.8491 172.35 95.0351 172.35 95.2644V95.338C172.35 95.5674 172.536 95.7533 172.765 95.7533H175.393C175.623 95.7533 175.809 95.5674 175.809 95.338V95.2644C175.809 95.0351 175.623 94.8491 175.393 94.8491Z" fill="#263238"/>
<path d="M164.226 97.0679H161.329C161.1 97.0679 160.914 97.2538 160.914 97.4832V97.5568C160.914 97.7861 161.1 97.9721 161.329 97.9721H164.226C164.455 97.9721 164.641 97.7861 164.641 97.5568V97.4832C164.641 97.2538 164.455 97.0679 164.226 97.0679Z" fill="#263238"/>
<path d="M170.113 97.0679H165.861C165.631 97.0679 165.445 97.2538 165.445 97.4832V97.5568C165.445 97.7861 165.631 97.9721 165.861 97.9721H170.113C170.343 97.9721 170.529 97.7861 170.529 97.5568V97.4832C170.529 97.2538 170.343 97.0679 170.113 97.0679Z" fill="#263238"/>
<path d="M175.398 97.0679H171.749C171.52 97.0679 171.334 97.2538 171.334 97.4832V97.5568C171.334 97.7861 171.52 97.9721 171.749 97.9721H175.398C175.627 97.9721 175.813 97.7861 175.813 97.5568V97.4832C175.813 97.2538 175.627 97.0679 175.398 97.0679Z" fill="#263238"/>
<path d="M161.329 99.3335H165.582C165.814 99.3335 165.997 99.5175 165.997 99.7488V99.8224C165.997 100.054 165.814 100.238 165.582 100.238H161.329C161.098 100.238 160.914 100.054 160.914 99.8224V99.7488C160.914 99.5175 161.098 99.3335 161.329 99.3335Z" fill="#263238"/>
<path d="M171.136 99.3335H167.22C166.991 99.3335 166.805 99.5194 166.805 99.7488V99.8224C166.805 100.052 166.991 100.238 167.22 100.238H171.136C171.366 100.238 171.552 100.052 171.552 99.8224V99.7488C171.552 99.5194 171.366 99.3335 171.136 99.3335Z" fill="#263238"/>
<path d="M172.765 99.3335H175.393C175.625 99.3335 175.809 99.5175 175.809 99.7488V99.8224C175.809 100.054 175.625 100.238 175.393 100.238H172.765C172.534 100.238 172.35 100.054 172.35 99.8224V99.7488C172.35 99.5175 172.534 99.3335 172.765 99.3335Z" fill="#263238"/>
<path d="M210.358 129.49H197.058C196.29 129.49 195.67 128.87 195.67 128.102V109.183C195.67 108.415 196.29 107.795 197.058 107.795H212.418C213.186 107.795 213.806 108.415 213.806 109.183V128.102C213.806 128.87 213.186 129.49 212.418 129.49H210.358Z" fill="#407BFF"/>
<path opacity="0.8" d="M210.358 129.49H197.058C196.29 129.49 195.67 128.87 195.67 128.102V109.183C195.67 108.415 196.29 107.795 197.058 107.795H212.418C213.186 107.795 213.806 108.415 213.806 109.183V128.102C213.806 128.87 213.186 129.49 212.418 129.49H210.358Z" fill="white"/>
<path d="M212.418 107.803H197.058C196.29 107.803 195.67 108.423 195.67 109.191V111.235H213.806V109.191C213.806 108.423 213.186 107.803 212.418 107.803Z" fill="#263238"/>
<path d="M211.744 110.166C212.064 110.166 212.323 109.907 212.323 109.588C212.323 109.269 212.064 109.01 211.744 109.01C211.425 109.01 211.166 109.269 211.166 109.588C211.166 109.907 211.425 110.166 211.744 110.166Z" fill="#407BFF"/>
<path d="M209.443 110.166C209.763 110.166 210.022 109.907 210.022 109.588C210.022 109.269 209.763 109.01 209.443 109.01C209.124 109.01 208.865 109.269 208.865 109.588C208.865 109.907 209.124 110.166 209.443 110.166Z" fill="#407BFF"/>
<path d="M207.133 110.166C207.452 110.166 207.711 109.907 207.711 109.588C207.711 109.269 207.452 109.01 207.133 109.01C206.814 109.01 206.555 109.269 206.555 109.588C206.555 109.907 206.814 110.166 207.133 110.166Z" fill="#407BFF"/>
<path d="M203.173 114.715L201.139 115.461L203.173 116.197V116.96L200.271 115.856V115.062L203.173 113.958V114.715Z" fill="#263238"/>
<path d="M205.357 112.462H206.204L204.19 118.208H203.344L205.357 112.462Z" fill="#263238"/>
<path d="M209.22 115.062V115.856L206.318 116.96V116.197L208.348 115.461L206.318 114.715V113.958L209.22 115.062Z" fill="#263238"/>
<path d="M197.704 120.184H200.943C201.174 120.184 201.358 120.368 201.358 120.599V120.673C201.358 120.904 201.174 121.088 200.943 121.088H197.704C197.473 121.088 197.289 120.904 197.289 120.673V120.599C197.289 120.368 197.473 120.184 197.704 120.184Z" fill="#263238"/>
<path d="M206.832 120.184H202.579C202.35 120.184 202.164 120.37 202.164 120.599V120.673C202.164 120.902 202.35 121.088 202.579 121.088H206.832C207.062 121.088 207.247 120.902 207.247 120.673V120.599C207.247 120.37 207.062 120.184 206.832 120.184Z" fill="#263238"/>
<path d="M211.771 120.184H208.464C208.235 120.184 208.049 120.37 208.049 120.599V120.673C208.049 120.902 208.235 121.088 208.464 121.088H211.771C212 121.088 212.186 120.902 212.186 120.673V120.599C212.186 120.37 212 120.184 211.771 120.184Z" fill="#263238"/>
<path d="M197.704 122.446H201.279C201.51 122.446 201.694 122.63 201.694 122.861V122.935C201.694 123.166 201.51 123.35 201.279 123.35H197.704C197.473 123.35 197.289 123.166 197.289 122.935V122.861C197.289 122.63 197.473 122.446 197.704 122.446Z" fill="#263238"/>
<path d="M207.51 122.446H202.915C202.686 122.446 202.5 122.632 202.5 122.861V122.935C202.5 123.164 202.686 123.35 202.915 123.35H207.51C207.739 123.35 207.925 123.164 207.925 122.935V122.861C207.925 122.632 207.739 122.446 207.51 122.446Z" fill="#263238"/>
<path d="M211.768 122.446H209.14C208.911 122.446 208.725 122.632 208.725 122.861V122.935C208.725 123.164 208.911 123.35 209.14 123.35H211.768C211.998 123.35 212.184 123.164 212.184 122.935V122.861C212.184 122.632 211.998 122.446 211.768 122.446Z" fill="#263238"/>
<path d="M197.704 124.672H200.601C200.832 124.672 201.016 124.856 201.016 125.088V125.161C201.016 125.393 200.832 125.577 200.601 125.577H197.704C197.473 125.577 197.289 125.393 197.289 125.161V125.088C197.289 124.856 197.473 124.672 197.704 124.672Z" fill="#263238"/>
<path d="M206.488 124.672H202.236C202.006 124.672 201.82 124.858 201.82 125.088V125.161C201.82 125.391 202.006 125.577 202.236 125.577H206.488C206.718 125.577 206.904 125.391 206.904 125.161V125.088C206.904 124.858 206.718 124.672 206.488 124.672Z" fill="#263238"/>
<path d="M211.776 124.672H208.128C207.899 124.672 207.713 124.858 207.713 125.088V125.161C207.713 125.391 207.899 125.577 208.128 125.577H211.776C212.006 125.577 212.192 125.391 212.192 125.161V125.088C212.192 124.858 212.006 124.672 211.776 124.672Z" fill="#263238"/>
<path d="M197.704 126.938H201.957C202.189 126.938 202.372 127.122 202.372 127.353V127.427C202.372 127.658 202.189 127.842 201.957 127.842H197.704C197.473 127.842 197.289 127.658 197.289 127.427V127.353C197.289 127.122 197.473 126.938 197.704 126.938Z" fill="#263238"/>
<path d="M207.513 126.938H203.597C203.368 126.938 203.182 127.124 203.182 127.353V127.427C203.182 127.656 203.368 127.842 203.597 127.842H207.513C207.743 127.842 207.929 127.656 207.929 127.427V127.353C207.929 127.124 207.743 126.938 207.513 126.938Z" fill="#263238"/>
<path d="M211.768 126.938H209.14C208.911 126.938 208.725 127.124 208.725 127.353V127.427C208.725 127.656 208.911 127.842 209.14 127.842H211.768C211.998 127.842 212.184 127.656 212.184 127.427V127.353C212.184 127.124 211.998 126.938 211.768 126.938Z" fill="#263238"/>
<path d="M151.338 129.5H138.038C137.271 129.5 136.65 128.88 136.65 128.113V109.193C136.65 108.425 137.271 107.805 138.038 107.805H153.399C154.166 107.805 154.787 108.425 154.787 109.193V128.113C154.787 128.88 154.166 129.5 153.399 129.5H151.338Z" fill="#407BFF"/>
<path opacity="0.8" d="M151.338 129.5H138.038C137.271 129.5 136.65 128.88 136.65 128.113V109.193C136.65 108.425 137.271 107.805 138.038 107.805H153.399C154.166 107.805 154.787 108.425 154.787 109.193V128.113C154.787 128.88 154.166 129.5 153.399 129.5H151.338Z" fill="white"/>
<path d="M153.399 107.813H138.038C137.271 107.813 136.65 108.433 136.65 109.201V111.246H154.787V109.201C154.787 108.433 154.166 107.813 153.399 107.813Z" fill="#263238"/>
<path d="M152.725 110.173C153.044 110.173 153.303 109.914 153.303 109.594C153.303 109.275 153.044 109.016 152.725 109.016C152.405 109.016 152.146 109.275 152.146 109.594C152.146 109.914 152.405 110.173 152.725 110.173Z" fill="#407BFF"/>
<path d="M150.426 110.173C150.745 110.173 151.004 109.914 151.004 109.594C151.004 109.275 150.745 109.016 150.426 109.016C150.107 109.016 149.848 109.275 149.848 109.594C149.848 109.914 150.107 110.173 150.426 110.173Z" fill="#407BFF"/>
<path d="M148.113 110.173C148.433 110.173 148.692 109.914 148.692 109.594C148.692 109.275 148.433 109.016 148.113 109.016C147.794 109.016 147.535 109.275 147.535 109.594C147.535 109.914 147.794 110.173 148.113 110.173Z" fill="#407BFF"/>
<path d="M144.156 114.729L142.121 115.476L144.156 116.212V116.974L141.254 115.87V115.076L144.156 113.972V114.729Z" fill="#263238"/>
<path d="M146.34 112.476H147.186L145.173 118.222H144.326L146.34 112.476Z" fill="#263238"/>
<path d="M150.205 115.076V115.87L147.303 116.974V116.212L149.332 115.476L147.303 114.729V113.972L150.205 115.076Z" fill="#263238"/>
<path d="M142.938 120.18H138.685C138.455 120.18 138.27 120.366 138.27 120.595V120.669C138.27 120.898 138.455 121.084 138.685 121.084H142.938C143.167 121.084 143.353 120.898 143.353 120.669V120.595C143.353 120.366 143.167 120.18 142.938 120.18Z" fill="#263238"/>
<path d="M148.83 120.18H144.577C144.348 120.18 144.162 120.366 144.162 120.595V120.669C144.162 120.898 144.348 121.084 144.577 121.084H148.83C149.06 121.084 149.246 120.898 149.246 120.669V120.595C149.246 120.366 149.06 120.18 148.83 120.18Z" fill="#263238"/>
<path d="M152.756 120.18H150.464C150.235 120.18 150.049 120.366 150.049 120.595V120.669C150.049 120.898 150.235 121.084 150.464 121.084H152.756C152.985 121.084 153.171 120.898 153.171 120.669V120.595C153.171 120.366 152.985 120.18 152.756 120.18Z" fill="#263238"/>
<path d="M141.923 122.441H138.685C138.455 122.441 138.27 122.627 138.27 122.857V122.93C138.27 123.16 138.455 123.346 138.685 123.346H141.923C142.152 123.346 142.338 123.16 142.338 122.93V122.857C142.338 122.627 142.152 122.441 141.923 122.441Z" fill="#263238"/>
<path d="M148.154 122.441H143.56C143.33 122.441 143.145 122.627 143.145 122.857V122.93C143.145 123.16 143.33 123.346 143.56 123.346H148.154C148.384 123.346 148.57 123.16 148.57 122.93V122.857C148.57 122.627 148.384 122.441 148.154 122.441Z" fill="#263238"/>
<path d="M152.755 122.441H149.784C149.555 122.441 149.369 122.627 149.369 122.857V122.93C149.369 123.16 149.555 123.346 149.784 123.346H152.755C152.984 123.346 153.17 123.16 153.17 122.93V122.857C153.17 122.627 152.984 122.441 152.755 122.441Z" fill="#263238"/>
<path d="M142.938 124.668H138.685C138.455 124.668 138.27 124.854 138.27 125.083V125.157C138.27 125.386 138.455 125.572 138.685 125.572H142.938C143.167 125.572 143.353 125.386 143.353 125.157V125.083C143.353 124.854 143.167 124.668 142.938 124.668Z" fill="#263238"/>
<path d="M148.83 124.668H144.577C144.348 124.668 144.162 124.854 144.162 125.083V125.157C144.162 125.386 144.348 125.572 144.577 125.572H148.83C149.06 125.572 149.246 125.386 149.246 125.157V125.083C149.246 124.854 149.06 124.668 148.83 124.668Z" fill="#263238"/>
<path d="M152.756 124.668H150.464C150.235 124.668 150.049 124.854 150.049 125.083V125.157C150.049 125.386 150.235 125.572 150.464 125.572H152.756C152.985 125.572 153.171 125.386 153.171 125.157V125.083C153.171 124.854 152.985 124.668 152.756 124.668Z" fill="#263238"/>
<path d="M141.245 126.934H138.685C138.455 126.934 138.27 127.12 138.27 127.349V127.422C138.27 127.652 138.455 127.838 138.685 127.838H141.245C141.474 127.838 141.66 127.652 141.66 127.422V127.349C141.66 127.12 141.474 126.934 141.245 126.934Z" fill="#263238"/>
<path d="M147.811 126.934H142.88C142.651 126.934 142.465 127.12 142.465 127.349V127.422C142.465 127.652 142.651 127.838 142.88 127.838H147.811C148.04 127.838 148.226 127.652 148.226 127.422V127.349C148.226 127.12 148.04 126.934 147.811 126.934Z" fill="#263238"/>
<path d="M149.445 126.934H152.751C152.982 126.934 153.166 127.118 153.166 127.349V127.422C153.166 127.654 152.982 127.838 152.751 127.838H149.445C149.213 127.838 149.029 127.654 149.029 127.422V127.349C149.029 127.118 149.213 126.934 149.445 126.934Z" fill="#263238"/>
<path d="M185.116 125.64C187.709 125.64 189.811 123.539 189.811 120.946C189.811 118.353 187.709 116.251 185.116 116.251C182.524 116.251 180.422 118.353 180.422 120.946C180.422 123.539 182.524 125.64 185.116 125.64Z" fill="#263238"/>
<path d="M184.696 123.77L181.779 120.852C181.558 120.632 181.558 120.274 181.779 120.053C182 119.833 182.357 119.833 182.578 120.053L184.696 122.172L189.733 117.136C189.953 116.915 190.311 116.915 190.532 117.136C190.752 117.357 190.752 117.714 190.532 117.935L184.696 123.77Z" fill="#407BFF"/>
<g opacity="0.5">
<path d="M184.7 123.75L181.783 120.832C181.562 120.611 181.562 120.254 181.783 120.033C182.004 119.812 182.361 119.812 182.582 120.033L184.7 122.151L189.736 117.115C189.957 116.895 190.315 116.895 190.536 117.115C190.756 117.336 190.756 117.694 190.536 117.914L184.7 123.75Z" fill="white"/>
</g>
<path d="M185.112 97.2575C187.705 97.2575 189.807 95.1557 189.807 92.5631C189.807 89.9704 187.705 87.8687 185.112 87.8687C182.52 87.8687 180.418 89.9704 180.418 92.5631C180.418 95.1557 182.52 97.2575 185.112 97.2575Z" fill="#263238"/>
<path d="M187.97 89.6944C187.749 89.4736 187.392 89.4736 187.171 89.6944L185.116 91.7499L183.06 89.6944C182.84 89.4736 182.482 89.4736 182.261 89.6944C182.041 89.9152 182.041 90.2727 182.261 90.4935L184.317 92.5489L182.261 94.6044C182.041 94.8251 182.041 95.1826 182.261 95.4034C182.482 95.6242 182.84 95.6242 183.06 95.4034L185.116 93.348L187.171 95.4034C187.392 95.6242 187.749 95.6242 187.97 95.4034C188.191 95.1826 188.191 94.8251 187.97 94.6044L185.915 92.5489L187.97 90.4935C188.191 90.2727 188.191 89.9152 187.97 89.6944Z" fill="#407BFF"/>
<path opacity="0.5" d="M187.97 89.6944C187.749 89.4736 187.392 89.4736 187.171 89.6944L185.116 91.7499L183.06 89.6944C182.84 89.4736 182.482 89.4736 182.261 89.6944C182.041 89.9152 182.041 90.2727 182.261 90.4935L184.317 92.5489L182.261 94.6044C182.041 94.8251 182.041 95.1826 182.261 95.4034C182.482 95.6242 182.84 95.6242 183.06 95.4034L185.116 93.348L187.171 95.4034C187.392 95.6242 187.749 95.6242 187.97 95.4034C188.191 95.1826 188.191 94.8251 187.97 94.6044L185.915 92.5489L187.97 90.4935C188.191 90.2727 188.191 89.9152 187.97 89.6944Z" fill="white"/>
<path d="M182.697 93.1328H177.303C176.988 93.1328 176.73 92.8752 176.73 92.5598C176.73 92.2444 176.988 91.9868 177.303 91.9868H182.697V93.1328Z" fill="#263238"/>
<path d="M62.9505 125.528H94.6599C95.0857 125.528 95.4327 125.875 95.4327 126.301C95.4327 126.726 95.0857 127.073 94.6599 127.073H62.9505C62.5247 127.073 62.1777 126.726 62.1777 126.301C62.1777 125.875 62.5247 125.528 62.9505 125.528Z" fill="#1A2E35"/>
<path d="M94.2388 126.582H81.1123C80.8599 126.582 80.6864 126.335 80.7653 126.098L86.059 110.98C86.2062 110.564 86.5952 110.286 87.0368 110.286H100.163C100.416 110.286 100.589 110.533 100.51 110.769L95.2165 125.888C95.0693 126.303 94.6751 126.582 94.2388 126.582Z" fill="#1A2E35"/>
<path d="M94.7114 126.581H81.5849C81.3326 126.581 81.1591 126.334 81.238 126.097L86.5317 110.979C86.6789 110.563 87.0731 110.285 87.5094 110.285H100.636C100.888 110.285 101.062 110.532 100.983 110.768L95.6892 125.887C95.542 126.302 95.1477 126.581 94.7114 126.581Z" fill="#1A2E35"/>
<path opacity="0.7" d="M94.7114 126.581H81.5849C81.3326 126.581 81.1591 126.334 81.238 126.097L86.5317 110.979C86.6789 110.563 87.0731 110.285 87.5094 110.285H100.636C100.888 110.285 101.062 110.532 100.983 110.768L95.6892 125.887C95.542 126.302 95.1477 126.581 94.7114 126.581Z" fill="black"/>
<path opacity="0.7" d="M79.8725 127.069C80.2983 127.069 80.6452 126.723 80.6452 126.297C80.6452 125.871 80.2983 125.524 79.8725 125.524H62.9505C62.5247 125.524 62.1777 125.871 62.1777 126.297C62.1777 126.723 62.5247 127.069 62.9505 127.069H79.8725Z" fill="black"/>
<path d="M96.5705 110.99H100.219L99.9139 111.868H96.2656L96.5705 110.99Z" fill="#407BFF"/>
</svg>
