<svg width="222" height="222" viewBox="0 0 222 222" fill="none" xmlns="http://www.w3.org/2000/svg">
<g clip-path="url(#clip0_2084_4522)">
<path d="M146.268 166.891L147.41 178.678H153.192L153.475 172.739L153.677 168.538L153.697 168.104L146.268 166.891Z" fill="#F3B8AD"/>
<path d="M147.174 176.228C150.506 176.02 149.094 179.887 149.094 179.887L147.411 178.677L147.174 176.228Z" fill="#032936"/>
<path d="M138.908 186.842V188.279H154.725C154.725 187.589 154.694 186.9 154.637 186.227C154.317 182.181 153.192 178.677 153.192 178.677H147.41L146.021 181.092C145.465 182.057 144.511 182.747 143.406 182.911C140.206 183.389 139.283 185.245 139.016 186.227C138.915 186.596 138.908 186.842 138.908 186.842Z" fill="#22192B"/>
<path d="M148.313 180.811C147.445 180.583 146.569 180.436 145.674 180.368C145.702 180.264 145.73 180.161 145.759 180.056C146.692 180.61 147.626 181.164 148.56 181.717C148.698 181.798 148.646 182.037 148.475 182.028C147.347 181.97 146.227 181.851 145.111 181.674C145.154 181.572 145.197 181.47 145.24 181.368C146.056 181.918 146.889 182.44 147.738 182.937C147.925 183.046 147.756 183.335 147.569 183.226C146.719 182.729 145.887 182.207 145.071 181.657C144.907 181.547 145.014 181.322 145.2 181.352C146.286 181.524 147.377 181.637 148.476 181.694C148.448 181.798 148.42 181.901 148.391 182.006C147.458 181.452 146.524 180.898 145.59 180.345C145.455 180.265 145.503 180.02 145.675 180.034C146.6 180.103 147.506 180.254 148.403 180.488C148.611 180.543 148.523 180.865 148.314 180.811H148.313Z" fill="#3F4042"/>
<path d="M138.908 186.843V188.279H154.725C154.725 187.59 154.694 186.9 154.637 186.227H139.016C138.915 186.597 138.908 186.843 138.908 186.843Z" fill="#3F4042"/>
<path d="M163.752 166.873L164.895 178.661H170.676L170.959 172.722L171.162 168.522L171.181 168.088L163.752 166.873Z" fill="#F3B8AD"/>
<path d="M164.658 176.21C167.99 176.003 166.578 179.869 166.578 179.869L164.895 178.659L164.658 176.21Z" fill="#032936"/>
<path d="M156.393 186.825V188.261H172.209C172.209 187.572 172.179 186.882 172.122 186.209C171.801 182.164 170.676 178.659 170.676 178.659H164.894L163.506 181.074C162.95 182.04 161.996 182.729 160.891 182.894C157.69 183.371 156.767 185.227 156.501 186.209C156.4 186.579 156.393 186.825 156.393 186.825Z" fill="#22192B"/>
<path d="M165.797 180.793C164.929 180.566 164.053 180.419 163.158 180.351C163.187 180.246 163.215 180.143 163.243 180.039C164.176 180.593 165.111 181.146 166.044 181.699C166.182 181.781 166.13 182.019 165.96 182.011C164.831 181.952 163.711 181.833 162.595 181.656C162.638 181.554 162.681 181.452 162.725 181.351C163.541 181.9 164.373 182.423 165.223 182.919C165.409 183.028 165.24 183.317 165.054 183.208C164.204 182.712 163.371 182.189 162.555 181.64C162.392 181.529 162.498 181.304 162.685 181.334C163.771 181.506 164.862 181.619 165.96 181.676C165.932 181.781 165.904 181.884 165.876 181.988C164.942 181.434 164.008 180.881 163.075 180.328C162.939 180.247 162.988 180.003 163.159 180.016C164.084 180.086 164.99 180.236 165.888 180.47C166.096 180.525 166.007 180.848 165.798 180.793H165.797Z" fill="#3F4042"/>
<path d="M156.393 186.829V188.265H172.209C172.209 187.576 172.179 186.886 172.122 186.213H156.501C156.4 186.583 156.393 186.829 156.393 186.829Z" fill="#3F4042"/>
<g opacity="0.6">
<path d="M184.684 34.9077H42.6716C41.3676 34.9077 40.3105 35.9648 40.3105 37.2688V128.829C40.3105 130.133 41.3676 131.19 42.6716 131.19H184.684C185.988 131.19 187.045 130.133 187.045 128.829V37.2688C187.045 35.9648 185.988 34.9077 184.684 34.9077Z" fill="#7BCCC6"/>
</g>
<path d="M180.977 32.1782H38.9646C37.6606 32.1782 36.6035 33.2353 36.6035 34.5393V126.099C36.6035 127.403 37.6606 128.46 38.9646 128.46H180.977C182.281 128.46 183.338 127.403 183.338 126.099V34.5393C183.338 33.2353 182.281 32.1782 180.977 32.1782Z" fill="white"/>
<path d="M38.8905 32.0117H86.7696V128.347H38.7017C37.3963 128.347 36.3359 127.288 36.3359 125.981V34.5663C36.3359 33.1566 37.4801 32.0117 38.8905 32.0117Z" fill="#3C3D88"/>
<path d="M45.163 41.1098C46.1915 41.1098 47.0253 40.2777 47.0253 39.2514C47.0253 38.2251 46.1915 37.3931 45.163 37.3931C44.1345 37.3931 43.3008 38.2251 43.3008 39.2514C43.3008 40.2777 44.1345 41.1098 45.163 41.1098Z" fill="#EE4F50"/>
<path d="M51.3212 41.1098C52.3497 41.1098 53.1835 40.2777 53.1835 39.2514C53.1835 38.2251 52.3497 37.3931 51.3212 37.3931C50.2927 37.3931 49.459 38.2251 49.459 39.2514C49.459 40.2777 50.2927 41.1098 51.3212 41.1098Z" fill="#E8505B"/>
<path d="M57.5517 41.1381C58.5802 41.1381 59.414 40.3061 59.414 39.2797C59.414 38.2534 58.5802 37.4214 57.5517 37.4214C56.5232 37.4214 55.6895 38.2534 55.6895 39.2797C55.6895 40.3061 56.5232 41.1381 57.5517 41.1381Z" fill="#1DA49D"/>
<path d="M67.6742 44.6631H44.2597C43.7398 44.6631 43.3184 45.0845 43.3184 45.6044V46.5097C43.3184 47.0296 43.7398 47.451 44.2597 47.451H67.6742C68.194 47.451 68.6155 47.0296 68.6155 46.5097V45.6044C68.6155 45.0845 68.194 44.6631 67.6742 44.6631Z" fill="#1BB9EC"/>
<path d="M67.7816 55.4863H44.3671C43.8472 55.4863 43.4258 55.9078 43.4258 56.4276V57.3329C43.4258 57.8528 43.8472 58.2742 44.3671 58.2742H67.7816C68.3015 58.2742 68.7229 57.8528 68.7229 57.3329V56.4276C68.7229 55.9078 68.3015 55.4863 67.7816 55.4863Z" fill="#1BB9EC"/>
<path d="M59.8329 80.6875H44.3671C43.8472 80.6875 43.4258 81.1089 43.4258 81.6288V82.5341C43.4258 83.054 43.8472 83.4754 44.3671 83.4754H59.8329C60.3528 83.4754 60.7742 83.054 60.7742 82.5341V81.6288C60.7742 81.1089 60.3528 80.6875 59.8329 80.6875Z" fill="#1BB9EC"/>
<path d="M60.3842 105.563H43.8158C43.6004 105.563 43.4258 105.738 43.4258 105.953V107.961C43.4258 108.177 43.6004 108.351 43.8158 108.351H60.3842C60.5996 108.351 60.7742 108.177 60.7742 107.961V105.953C60.7742 105.738 60.5996 105.563 60.3842 105.563Z" fill="#B2949E"/>
<path d="M73.1104 72.9668H48.9214C48.4966 72.9668 48.1523 73.3111 48.1523 73.7358V73.7523C48.1523 74.177 48.4966 74.5213 48.9214 74.5213H73.1104C73.5351 74.5213 73.8794 74.177 73.8794 73.7523V73.7358C73.8794 73.3111 73.5351 72.9668 73.1104 72.9668Z" fill="#1BB9EC"/>
<path d="M73.2178 86.6943H49.0288C48.6041 86.6943 48.2598 87.0386 48.2598 87.4634V87.4798C48.2598 87.9045 48.6041 88.2488 49.0288 88.2488H73.2178C73.6425 88.2488 73.9868 87.9045 73.9868 87.4798V87.4634C73.9868 87.0386 73.6425 86.6943 73.2178 86.6943Z" fill="#1BB9EC"/>
<path d="M73.1475 92.4819H48.9585C48.5338 92.4819 48.1895 92.8262 48.1895 93.251V93.2674C48.1895 93.6921 48.5338 94.0364 48.9585 94.0364H73.1475C73.5722 94.0364 73.9165 93.6921 73.9165 93.2674V93.251C73.9165 92.8262 73.5722 92.4819 73.1475 92.4819Z" fill="#1BB9EC"/>
<path d="M67.7751 98.2329H49.0288C48.6041 98.2329 48.2598 98.5772 48.2598 99.0019V99.0184C48.2598 99.4431 48.6041 99.7874 49.0288 99.7874H67.7751C68.1998 99.7874 68.5441 99.4431 68.5441 99.0184V99.0019C68.5441 98.5772 68.1998 98.2329 67.7751 98.2329Z" fill="#1BB9EC"/>
<path d="M73.6988 111.505H48.4072C48.2869 111.505 48.1895 111.603 48.1895 111.723V112.842C48.1895 112.962 48.2869 113.06 48.4072 113.06H73.6988C73.819 113.06 73.9165 112.962 73.9165 112.842V111.723C73.9165 111.603 73.819 111.505 73.6988 111.505Z" fill="#B2949E"/>
<path d="M67.1087 117.256H48.4775C48.3572 117.256 48.2598 117.354 48.2598 117.474V118.593C48.2598 118.713 48.3572 118.811 48.4775 118.811H67.1087C67.2289 118.811 67.3264 118.713 67.3264 118.593V117.474C67.3264 117.354 67.2289 117.256 67.1087 117.256Z" fill="#B2949E"/>
<path d="M73.2178 67.2036H49.0288C48.6041 67.2036 48.2598 67.5479 48.2598 67.9726V67.9891C48.2598 68.4138 48.6041 68.7581 49.0288 68.7581H73.2178C73.6425 68.7581 73.9868 68.4138 73.9868 67.9891V67.9726C73.9868 67.5479 73.6425 67.2036 73.2178 67.2036Z" fill="#1BB9EC"/>
<path d="M73.1631 61.4932H48.9741C48.5494 61.4932 48.2051 61.8375 48.2051 62.2622V62.2786C48.2051 62.7034 48.5494 63.0477 48.9741 63.0477H73.1631C73.5878 63.0477 73.9321 62.7034 73.9321 62.2786V62.2622C73.9321 61.8375 73.5878 61.4932 73.1631 61.4932Z" fill="#1BB9EC"/>
<path d="M44.4913 88.642C45.0894 88.642 45.5743 88.1578 45.5743 87.5605C45.5743 86.9632 45.0894 86.479 44.4913 86.479C43.8931 86.479 43.4082 86.9632 43.4082 87.5605C43.4082 88.1578 43.8931 88.642 44.4913 88.642Z" fill="#F9A239"/>
<path d="M44.3838 94.393C44.982 94.393 45.4669 93.9088 45.4669 93.3115C45.4669 92.7142 44.982 92.23 44.3838 92.23C43.7857 92.23 43.3008 92.7142 43.3008 93.3115C43.3008 93.9088 43.7857 94.393 44.3838 94.393Z" fill="#F9A239"/>
<path d="M44.4541 100.152C45.0523 100.152 45.5372 99.668 45.5372 99.0708C45.5372 98.4735 45.0523 97.9893 44.4541 97.9893C43.856 97.9893 43.3711 98.4735 43.3711 99.0708C43.3711 99.668 43.856 100.152 44.4541 100.152Z" fill="#6B9F87"/>
<path d="M44.4541 113.372C45.0523 113.372 45.5372 112.888 45.5372 112.29C45.5372 111.693 45.0523 111.209 44.4541 111.209C43.856 111.209 43.3711 111.693 43.3711 112.29C43.3711 112.888 43.856 113.372 44.4541 113.372Z" fill="#6B9F87"/>
<path d="M44.4913 119.2C45.0894 119.2 45.5743 118.716 45.5743 118.119C45.5743 117.521 45.0894 117.037 44.4913 117.037C43.8931 117.037 43.4082 117.521 43.4082 118.119C43.4082 118.716 43.8931 119.2 44.4913 119.2Z" fill="#6B9F87"/>
<path d="M90.5773 62.9019L89.9375 63.5401L91.0996 64.6991L89.9375 65.8573L90.5773 66.4964L92.3777 64.6991L90.5773 62.9019Z" fill="#76A8A9"/>
<path d="M93.1027 67.3125L92.4629 67.9507L93.6235 69.1098L92.4629 70.268L93.1027 70.907L94.9039 69.1098L93.1027 67.3125Z" fill="#76A8A9"/>
<path d="M90.5773 76.1299L89.9375 76.7689L91.0996 77.9271L89.9375 79.0862L90.5773 79.7244L92.3777 77.9271L90.5773 76.1299Z" fill="#6CB1A9"/>
<path d="M94.3632 71.7148L93.7227 72.3539L94.884 73.5121L93.7227 74.6703L94.3632 75.3094L96.1636 73.5121L94.3632 71.7148Z" fill="#6CB1A9"/>
<path d="M94.3632 80.5322L93.7227 81.1713L94.884 82.3295L93.7227 83.4885L94.3632 84.1267L96.1636 82.3295L94.3632 80.5322Z" fill="#6CB1A9"/>
<path d="M109.945 65.463H96.7053C96.284 65.463 95.9434 65.1224 95.9434 64.7026C95.9434 64.2821 96.2848 63.9414 96.7053 63.9414H109.945C110.366 63.9414 110.707 64.2821 110.707 64.7018C110.707 65.1224 110.365 65.463 109.945 65.463Z" fill="#C4E6E9"/>
<path d="M136.563 63.9375H121.799V65.4599H136.563V63.9375Z" fill="white"/>
<path d="M123.563 69.8658H97.8733C97.452 69.8658 97.1113 69.5252 97.1113 69.1054C97.1113 68.6849 97.4528 68.3442 97.8733 68.3442H123.563C123.984 68.3442 124.325 68.6849 124.325 69.1046C124.325 69.5252 123.983 69.8658 123.563 69.8658Z" fill="#C4E6E9"/>
<path d="M152.244 69.8658H126.555C126.134 69.8658 125.793 69.5252 125.793 69.1054C125.793 68.6849 126.134 68.3442 126.555 68.3442H152.244C152.666 68.3442 153.006 68.6849 153.006 69.1046C153.006 69.5252 152.665 69.8658 152.244 69.8658Z" fill="#C4E6E9"/>
<path d="M169.441 72.7549H142.227V74.2765H169.441V72.7549Z" fill="#898989"/>
<path d="M118.777 78.6796H94.1702C93.7489 78.6796 93.4082 78.339 93.4082 77.9184C93.4082 77.4979 93.7496 77.1572 94.1702 77.1572H118.777C119.198 77.1572 119.539 77.4979 119.539 77.9184C119.539 78.339 119.197 78.6796 118.777 78.6796Z" fill="#E8505B"/>
<path d="M138.636 74.2757H98.6917C98.2703 74.2757 97.9297 73.935 97.9297 73.5153C97.9297 73.0948 98.2711 72.7549 98.6917 72.7549H138.636C139.058 72.7549 139.398 73.0955 139.398 73.5153C139.398 73.9358 139.057 74.2757 138.636 74.2757Z" fill="#E8505B"/>
<path d="M171.305 78.6796H131.362C130.94 78.6796 130.6 78.339 130.6 77.9184C130.6 77.4979 130.941 77.1572 131.362 77.1572H171.305C171.727 77.1572 172.067 77.4979 172.067 77.9184C172.067 78.339 171.726 78.6796 171.305 78.6796Z" fill="#E8505B"/>
<path d="M167.722 81.5723H126.254V83.0947H167.722V81.5723Z" fill="white"/>
<path d="M124.326 81.5723H97.1113V83.0947H124.326V81.5723Z" fill="white"/>
<path d="M118.46 65.4599H113.286C112.865 65.4599 112.523 65.1192 112.523 64.6987C112.523 64.2782 112.865 63.9375 113.286 63.9375H118.46C118.882 63.9375 119.223 64.2782 119.223 64.6987C119.223 65.1192 118.882 65.4599 118.46 65.4599Z" fill="#E8505B"/>
<path d="M145.574 63.9375H138.875V65.4599H145.574V63.9375Z" fill="white"/>
<path d="M154.682 63.9375H147.984V65.4599H154.682V63.9375Z" fill="white"/>
<path d="M161.38 68.3442H154.682V69.8658H161.38V68.3442Z" fill="#898989"/>
<path d="M177.918 72.7549H171.221V74.2765H177.918V72.7549Z" fill="#FCBA4F"/>
<path d="M127.734 78.691H122.561C122.139 78.691 121.799 78.3504 121.799 77.9306C121.799 77.5101 122.14 77.1694 122.561 77.1694H127.734C128.155 77.1694 128.496 77.5101 128.496 77.9298C128.496 78.3504 128.155 78.691 127.734 78.691Z" fill="#C4E6E9"/>
<path d="M169.861 68.3442H163.162V69.8658H169.861V68.3442Z" fill="#898989"/>
<path d="M90.5773 84.9878L89.9375 85.626L91.0996 86.785L89.9375 87.9433L90.5773 88.5823L92.3777 86.785L90.5773 84.9878Z" fill="#6CB1A9"/>
<path d="M93.1027 89.4023L92.4629 90.0414L93.6235 91.1996L92.4629 92.3586L93.1027 92.9969L94.9039 91.1996L93.1027 89.4023Z" fill="#6CB1A9"/>
<path d="M90.5773 98.2158L89.9375 98.8541L91.0996 100.013L89.9375 101.171L90.5773 101.81L92.3777 100.013L90.5773 98.2158Z" fill="#6CB1A9"/>
<path d="M94.3632 93.8052L93.7227 94.4442L94.884 95.6024L93.7227 96.7615L94.3632 97.3997L96.1636 95.6024L94.3632 93.8052Z" fill="#6CB1A9"/>
<path d="M94.3632 102.626L93.7227 103.265L94.884 104.424L93.7227 105.583L94.3632 106.221L96.1636 104.424L94.3632 102.626Z" fill="#6CB1A9"/>
<path d="M109.945 87.5482H96.7053C96.284 87.5482 95.9434 87.2075 95.9434 86.7877C95.9434 86.3672 96.2848 86.0273 96.7053 86.0273H109.945C110.366 86.0273 110.707 86.368 110.707 86.7877C110.707 87.2083 110.365 87.5482 109.945 87.5482Z" fill="#C4E6E9"/>
<path d="M135.801 87.5482H122.561C122.139 87.5482 121.799 87.2075 121.799 86.7877C121.799 86.3672 122.14 86.0273 122.561 86.0273H135.801C136.222 86.0273 136.563 86.368 136.563 86.7877C136.563 87.2083 136.222 87.5482 135.801 87.5482Z" fill="#C4E6E9"/>
<path d="M123.563 91.9648H97.8733C97.452 91.9648 97.1113 91.6241 97.1113 91.2036C97.1113 90.783 97.4528 90.4424 97.8733 90.4424H123.563C123.984 90.4424 124.325 90.783 124.325 91.2036C124.325 91.6241 123.983 91.9648 123.563 91.9648Z" fill="#E8505B"/>
<path d="M153.007 90.4424H125.793V91.964H153.007V90.4424Z" fill="#898989"/>
<path d="M168.678 96.3624H142.989C142.567 96.3624 142.227 96.0218 142.227 95.602C142.227 95.1815 142.568 94.8408 142.989 94.8408H168.678C169.099 94.8408 169.44 95.1815 169.44 95.6012C169.44 96.0218 169.099 96.3624 168.678 96.3624Z" fill="#C4E6E9"/>
<path d="M118.777 100.778H94.171C93.7496 100.778 93.4082 100.437 93.4082 100.017C93.4082 99.596 93.7496 99.2554 94.171 99.2554H118.777C119.198 99.2554 119.539 99.596 119.539 100.017C119.539 100.437 119.198 100.778 118.777 100.778Z" fill="#E8505B"/>
<path d="M138.636 96.3624H98.6917C98.2703 96.3624 97.9297 96.0218 97.9297 95.602C97.9297 95.1815 98.2711 94.8408 98.6917 94.8408H138.636C139.058 94.8408 139.398 95.1815 139.398 95.6012C139.398 96.0218 139.057 96.3624 138.636 96.3624Z" fill="#C4E6E9"/>
<path d="M171.306 100.778H131.362C130.941 100.778 130.6 100.437 130.6 100.017C130.6 99.596 130.941 99.2554 131.362 99.2554H171.306C171.727 99.2554 172.069 99.596 172.069 100.017C172.069 100.437 171.727 100.778 171.306 100.778Z" fill="#E8505B"/>
<path d="M167.722 103.658H126.254V105.18H167.722V103.658Z" fill="white"/>
<path d="M123.563 105.179H97.8733C97.452 105.179 97.1113 104.839 97.1113 104.419C97.1113 103.998 97.4528 103.658 97.8733 103.658H123.563C123.984 103.658 124.325 103.998 124.325 104.418C124.325 104.839 123.983 105.179 123.563 105.179Z" fill="#C4E6E9"/>
<path d="M118.46 87.5482H113.285C112.864 87.5482 112.523 87.2075 112.523 86.7877C112.523 86.3672 112.865 86.0273 113.285 86.0273H118.46C118.882 86.0273 119.222 86.368 119.222 86.7877C119.222 87.2083 118.881 87.5482 118.46 87.5482Z" fill="#C4E6E9"/>
<path d="M145.574 86.0273H138.875V87.5489H145.574V86.0273Z" fill="#898989"/>
<path d="M154.682 86.0273H147.984V87.5489H154.682V86.0273Z" fill="#898989"/>
<path d="M161.38 90.4424H154.682V91.964H161.38V90.4424Z" fill="#898989"/>
<path d="M177.918 94.8408H171.221V96.3632H177.918V94.8408Z" fill="#898989"/>
<path d="M128.496 99.2554H121.799V100.778H128.496V99.2554Z" fill="white"/>
<path d="M90.5773 111.273L89.9375 111.911L91.0996 113.07L89.9375 114.228L90.5773 114.867L92.3777 113.07L90.5773 111.273Z" fill="#6CB1A9"/>
<path d="M94.3632 106.866L93.7227 107.505L94.884 108.664L93.7227 109.822L94.3632 110.462L96.1636 108.664L94.3632 106.866Z" fill="#6CB1A9"/>
<path d="M94.3632 115.684L93.7227 116.322L94.884 117.481L93.7227 118.64L94.3632 119.278L96.1636 117.481L94.3632 115.684Z" fill="#6CB1A9"/>
<path d="M169.441 107.898H142.227V109.42H169.441V107.898Z" fill="#898989"/>
<path d="M118.777 113.835H94.1702C93.7489 113.835 93.4082 113.495 93.4082 113.074C93.4082 112.654 93.7496 112.313 94.1702 112.313H118.777C119.198 112.313 119.539 112.654 119.539 113.074C119.539 113.495 119.197 113.835 118.777 113.835Z" fill="#E8505B"/>
<path d="M138.636 109.42H98.6917C98.2703 109.42 97.9297 109.079 97.9297 108.659C97.9297 108.239 98.2711 107.898 98.6917 107.898H138.636C139.058 107.898 139.398 108.239 139.398 108.658C139.398 109.079 139.057 109.42 138.636 109.42Z" fill="#C4E6E9"/>
<path d="M172.068 112.313H130.6V113.835H172.068V112.313Z" fill="#898989"/>
<path d="M167.722 116.715H126.254V118.238H167.722V116.715Z" fill="white"/>
<path d="M123.563 118.245H97.8733C97.452 118.245 97.1113 117.905 97.1113 117.485C97.1113 117.064 97.4528 116.724 97.8733 116.724H123.563C123.984 116.724 124.325 117.064 124.325 117.484C124.325 117.905 123.983 118.245 123.563 118.245Z" fill="#C4E6E9"/>
<path d="M177.918 107.898H171.221V109.42H177.918V107.898Z" fill="#898989"/>
<path d="M128.496 112.313H121.799V113.835H128.496V112.313Z" fill="#F79744"/>
<path d="M169.861 90.4424H163.162V91.964H169.861V90.4424Z" fill="#898989"/>
<path d="M116.987 36.2651H98.7768C98.0921 36.2651 97.5371 36.8202 97.5371 37.5048V37.5322C97.5371 38.2169 98.0921 38.7719 98.7768 38.7719H116.987C117.672 38.7719 118.227 38.2169 118.227 37.5322V37.5048C118.227 36.8202 117.672 36.2651 116.987 36.2651Z" fill="#7BC3CB"/>
<path d="M134.433 42.9258H99.4409C98.7562 42.9258 98.2012 43.4808 98.2012 44.1655V44.1929C98.2012 44.8775 98.7562 45.4325 99.4409 45.4325H134.433C135.118 45.4325 135.673 44.8775 135.673 44.1929V44.1655C135.673 43.4808 135.118 42.9258 134.433 42.9258Z" fill="#7BC3CB"/>
<path d="M164.457 42.9258H146.722C146.037 42.9258 145.482 43.4808 145.482 44.1655V44.1929C145.482 44.8775 146.037 45.4325 146.722 45.4325H164.457C165.141 45.4325 165.696 44.8775 165.696 44.1929V44.1655C165.696 43.4808 165.141 42.9258 164.457 42.9258Z" fill="#7BC3CB"/>
<path d="M134.956 48.23H99.4409C98.7562 48.23 98.2012 48.785 98.2012 49.4697V49.4971C98.2012 50.1817 98.7562 50.7367 99.4409 50.7367H134.956C135.641 50.7367 136.196 50.1817 136.196 49.4971V49.4697C136.196 48.785 135.641 48.23 134.956 48.23Z" fill="#7BC3CB"/>
<path d="M164.457 48.23H147.078C146.393 48.23 145.838 48.785 145.838 49.4697V49.4971C145.838 50.1817 146.393 50.7367 147.078 50.7367H164.457C165.142 50.7367 165.697 50.1817 165.697 49.4971V49.4697C165.697 48.785 165.142 48.23 164.457 48.23Z" fill="#F4A1A9"/>
<path d="M135.251 53.5259H99.4409C98.7562 53.5259 98.2012 54.0809 98.2012 54.7656V54.793C98.2012 55.4776 98.7562 56.0326 99.4409 56.0326H135.251C135.935 56.0326 136.49 55.4776 136.49 54.793V54.7656C136.49 54.0809 135.935 53.5259 135.251 53.5259Z" fill="#7BC3CB"/>
<path d="M164.441 56.0326H147.346C146.652 56.0326 146.09 55.4711 146.09 54.7797C146.09 54.0874 146.652 53.5259 147.346 53.5259H164.441C165.135 53.5259 165.698 54.0874 165.698 54.7797C165.698 55.4719 165.135 56.0326 164.441 56.0326Z" fill="#7BC3CB"/>
<path d="M95.3318 44.1788C95.3318 44.8711 94.7695 45.4325 94.0757 45.4325C93.3818 45.4325 92.8203 44.8711 92.8203 44.1788C92.8203 43.4865 93.3826 42.9258 94.0757 42.9258C94.7687 42.9258 95.3318 43.4873 95.3318 44.1788Z" fill="white"/>
<path d="M95.3318 49.4755C95.3318 50.1677 94.7695 50.7284 94.0757 50.7284C93.3818 50.7284 92.8203 50.1669 92.8203 49.4755C92.8203 48.784 93.3826 48.2217 94.0757 48.2217C94.7687 48.2217 95.3318 48.7832 95.3318 49.4755Z" fill="white"/>
<path d="M95.3318 54.7797C95.3318 55.4719 94.7695 56.0326 94.0757 56.0326C93.3818 56.0326 92.8203 55.4711 92.8203 54.7797C92.8203 54.0882 93.3826 53.5259 94.0757 53.5259C94.7687 53.5259 95.3318 54.0874 95.3318 54.7797Z" fill="white"/>
<path d="M85.3679 63.9058H56.5233C56.1038 63.9058 55.7637 64.2459 55.7637 64.6654V64.6826C55.7637 65.1021 56.1038 65.4422 56.5233 65.4422H85.3679C85.7875 65.4422 86.1276 65.1021 86.1276 64.6826V64.6654C86.1276 64.2459 85.7875 63.9058 85.3679 63.9058Z" fill="#E8505B"/>
<path d="M85.3328 59.6855H56.4881C56.0686 59.6855 55.7285 60.0256 55.7285 60.4452V60.4624C55.7285 60.8819 56.0686 61.222 56.4881 61.222H85.3328C85.7523 61.222 86.0924 60.8819 86.0924 60.4624V60.4452C86.0924 60.0256 85.7523 59.6855 85.3328 59.6855Z" fill="#E8505B"/>
<path d="M97.1297 55.4497H56.326C55.9065 55.4497 55.5664 55.7898 55.5664 56.2093V56.2266C55.5664 56.6461 55.9065 56.9862 56.326 56.9862H97.1297C97.5492 56.9862 97.8893 56.6461 97.8893 56.2266V56.2093C97.8893 55.7898 97.5492 55.4497 97.1297 55.4497Z" fill="#E8505B"/>
<path d="M74.2942 186.299H70.6582L82.8655 126.392H88.7483L74.2942 186.299Z" fill="#084153"/>
<path d="M86.4395 181.61L87.4802 183.366L102.254 171.688L100.931 170.66L86.4395 181.61Z" fill="black"/>
<path d="M86.4424 181.609C86.4424 181.609 91.1498 178.414 95.3003 175.318C97.7076 173.519 99.7406 171.953 100.743 170.859C99.0522 171.489 97.3607 171.895 95.5525 172.307C90.896 173.371 88.7605 173.198 86.9225 170.15C85.4972 167.786 83.6107 164.027 83.6107 164.027L78.1641 167.307C78.1641 167.307 80.4821 170.949 82.3224 173.787C83.5629 175.698 86.2043 180.774 86.4424 181.609Z" fill="black"/>
<path d="M82.3216 173.787L86.9225 170.15C85.4972 167.786 83.6107 164.027 83.6107 164.027L78.1641 167.307C78.1641 167.307 80.4821 170.949 82.3224 173.786L82.3216 173.787Z" fill="#FAB995"/>
<path d="M84.6454 172.813C85.2633 173.148 86.062 173.21 86.752 173.185C87.0981 173.174 87.4435 173.126 87.781 173.046C88.048 172.983 88.348 172.91 88.6025 172.78C88.521 172.927 88.4427 173.077 88.3699 173.229C88.2516 173.474 88.1428 173.723 88.0473 173.978C87.9956 174.114 87.9321 174.377 88.153 174.402C88.3354 174.424 88.3957 174.221 88.4443 174.086C88.6291 173.575 88.8578 173.078 89.1311 172.608C89.182 172.521 89.182 172.413 89.0943 172.347C89.0841 172.34 89.0716 172.336 89.0598 172.331C89.0559 172.326 89.0543 172.32 89.0497 172.315C89.4201 171.717 89.7231 171.076 89.9181 170.4C90.0129 170.071 90.0841 169.733 90.1327 169.395C90.1781 169.079 90.2008 168.719 90.0372 168.43C89.7427 167.91 89.0395 167.98 88.6785 168.387C88.4568 168.636 88.3652 168.975 88.3143 169.296C88.2579 169.65 88.2305 170.011 88.225 170.369C88.2188 170.724 88.2368 171.079 88.2806 171.431C88.3033 171.616 88.3331 171.799 88.3777 171.979C88.3903 172.03 88.4075 172.077 88.4247 172.126C87.8045 171.792 87.1514 171.525 86.4724 171.329C86.1083 171.225 85.7331 171.125 85.3572 171.077C85.0197 171.035 84.6681 171.068 84.3846 171.272C84.1285 171.457 83.9876 171.773 84.0565 172.085C84.1277 172.411 84.3603 172.658 84.6485 172.813L84.6454 172.813ZM88.6745 172.151C88.6651 172.06 88.6557 171.969 88.6424 171.879C88.6158 171.705 88.5868 171.532 88.5649 171.358C88.5234 171.022 88.503 170.683 88.5069 170.344C88.5109 170.051 88.5312 169.759 88.5735 169.468C88.6166 169.176 88.6792 168.87 88.8633 168.632C89.0058 168.448 89.2533 168.309 89.4929 168.359C89.8061 168.425 89.8516 168.786 89.8312 169.051C89.7873 169.625 89.5947 170.212 89.3903 170.746C89.2016 171.239 88.9596 171.708 88.6737 172.151H88.6745ZM84.3133 171.893C84.3219 171.548 84.6971 171.378 84.9962 171.359C85.3165 171.339 85.6446 171.424 85.9532 171.498C86.2868 171.577 86.6165 171.676 86.9407 171.789C87.4466 171.967 87.9392 172.186 88.4145 172.435C88.1678 172.525 87.9282 172.639 87.6721 172.706C87.355 172.79 87.0284 172.839 86.7011 172.859C86.102 172.894 85.4207 172.831 84.8654 172.589C84.5859 172.467 84.3055 172.225 84.3133 171.893Z" fill="#DFDFE4"/>
<path d="M89.2123 174.697C89.2405 174.6 89.2812 174.506 89.3157 174.412C89.3838 174.228 89.4527 174.044 89.5209 173.859C89.6595 173.485 89.8083 173.115 89.9539 172.743C90.0221 172.568 90.2813 172.675 90.2225 172.852C90.0988 173.225 89.9782 173.599 89.8474 173.971C89.7848 174.15 89.7214 174.329 89.6587 174.509C89.6015 174.673 89.56 174.953 89.3705 175.009C89.3259 175.022 89.2687 175.02 89.2397 174.977C89.1747 174.881 89.181 174.806 89.2123 174.698V174.697Z" fill="#DFDFE4"/>
<path d="M90.5911 175.609C90.6788 175.184 90.7798 174.761 90.8777 174.339C90.9865 173.87 91.0915 173.387 91.2638 172.938C91.3045 172.831 91.458 172.878 91.4517 172.985C91.4267 173.415 91.3358 173.843 91.2591 174.266C91.1831 174.684 91.1009 175.103 91.0093 175.517C90.9732 175.678 90.956 175.988 90.7516 176.027C90.5292 176.069 90.566 175.73 90.5918 175.608L90.5911 175.609Z" fill="#DFDFE4"/>
<path d="M92.5626 174.93C92.6018 174.608 92.6402 174.285 92.6793 173.963C92.7232 173.602 92.7725 173.244 92.825 172.884C92.8477 172.733 93.0623 172.762 93.0584 172.911C93.0388 173.555 93.0012 174.199 92.9644 174.843C92.9558 174.999 92.9746 175.219 92.7921 175.281C92.7193 175.306 92.6496 175.271 92.6034 175.213C92.5368 175.129 92.5509 175.028 92.5626 174.929V174.93Z" fill="#DFDFE4"/>
<path d="M95.3006 175.327C97.8543 174.077 100.183 172.045 100.933 170.668C99.242 171.298 97.3609 171.903 95.5527 172.316C95.2896 173.064 95.1721 173.859 95.2191 174.645C95.2324 174.873 95.2614 175.102 95.3006 175.328V175.327Z" fill="#B0CFC5"/>
<path d="M87.4746 177.261C87.2412 177.697 86.7424 177.972 86.2466 177.955C84.9772 177.909 84.357 176.217 85.5528 175.579C86.628 175.005 88.13 176.035 87.4746 177.261Z" fill="white"/>
<path d="M60.0513 183.771L59.6816 185.717L77.9471 186.664L77.6448 185.069L60.0513 183.771Z" fill="black"/>
<path d="M60.0508 183.776C60.0508 183.776 65.5334 184.461 70.5462 184.862C73.4562 185.091 75.9434 185.252 77.3765 185.097C75.7398 184.473 74.2472 183.686 72.6645 182.83C68.5891 180.624 67.1435 179.132 67.7629 175.735C68.2438 173.1 69.2838 169.154 69.2838 169.154L63.2083 168.058C63.2083 168.058 62.5568 172.195 62.0751 175.439C61.7509 177.627 60.4134 183.015 60.0508 183.776Z" fill="black"/>
<path d="M62.0742 175.439L67.762 175.735C68.2429 173.1 69.2828 169.154 69.2828 169.154L63.2074 168.058C63.2074 168.058 62.5558 172.195 62.0742 175.439Z" fill="#FAB995"/>
<path d="M64.3952 176.224C64.6302 176.863 65.1729 177.42 65.6905 177.844C65.9505 178.057 66.2324 178.243 66.5292 178.401C66.7642 178.526 67.0304 178.664 67.299 178.733C67.1448 178.788 66.992 178.847 66.8417 178.91C66.5981 179.013 66.3585 179.126 66.1251 179.249C65.9998 179.316 65.7853 179.466 65.9294 179.626C66.0484 179.758 66.223 179.649 66.3452 179.581C66.808 179.327 67.2943 179.112 67.7955 178.944C67.8887 178.913 67.9576 178.835 67.9357 178.73C67.9334 178.718 67.9263 178.708 67.9208 178.697C67.9208 178.69 67.924 178.685 67.924 178.679C68.5779 178.48 69.2114 178.206 69.7878 177.839C70.0681 177.66 70.3368 177.46 70.5897 177.245C70.8262 177.043 71.0737 176.795 71.1402 176.48C71.2601 175.913 70.7025 175.514 70.1778 175.58C69.8559 175.62 69.5716 175.808 69.3281 176.01C69.0603 176.231 68.8081 176.477 68.5739 176.734C68.3414 176.989 68.1268 177.259 67.9318 177.543C67.83 177.693 67.7337 177.845 67.6499 178.004C67.6272 178.049 67.6092 178.095 67.5896 178.141C67.3523 177.502 67.0484 176.888 66.6788 176.312C66.4807 176.003 66.2716 175.69 66.028 175.414C65.8095 175.167 65.5323 174.967 65.194 174.934C64.8886 174.905 64.5832 175.045 64.4328 175.317C64.2754 175.599 64.2872 175.928 64.3968 176.226L64.3952 176.224ZM67.7564 178.321C67.8073 178.249 67.8597 178.177 67.9075 178.102C67.9999 177.959 68.09 177.813 68.1863 177.673C68.3719 177.402 68.5747 177.141 68.7956 176.898C68.9867 176.686 69.1895 176.487 69.4072 176.303C69.6257 176.118 69.8677 175.934 70.1559 175.879C70.3783 175.836 70.6477 175.893 70.7894 176.083C70.9758 176.332 70.7761 176.624 70.5913 176.805C70.1911 177.195 69.6735 177.498 69.1817 177.757C68.7274 177.996 68.2497 178.182 67.7564 178.322V178.321ZM64.7445 175.342C64.9732 175.096 65.3546 175.212 65.5848 175.389C65.8307 175.58 66.0155 175.851 66.1933 176.103C66.3859 176.375 66.5621 176.657 66.7258 176.947C66.9803 177.4 67.198 177.875 67.3844 178.361C67.1471 178.268 66.8989 178.198 66.6694 178.084C66.3844 177.942 66.115 177.769 65.8636 177.574C65.4047 177.216 64.9481 176.734 64.6999 176.202C64.5746 175.934 64.5252 175.579 64.7445 175.342V175.342Z" fill="#DFDFE4"/>
<path d="M66.5151 180.523C66.5981 180.471 66.6882 180.427 66.7743 180.381C66.9427 180.291 67.1103 180.2 67.2786 180.11C67.6201 179.927 67.967 179.752 68.3116 179.574C68.4737 179.49 68.5927 179.734 68.4377 179.825C68.1072 180.018 67.7791 180.214 67.4454 180.401C67.2841 180.492 67.1228 180.582 66.9615 180.673C66.8143 180.756 66.6044 180.932 66.4305 180.852C66.389 180.833 66.3499 180.795 66.3561 180.745C66.3702 180.633 66.4227 180.583 66.5151 180.525V180.523Z" fill="#DFDFE4"/>
<path d="M66.9308 182.062C67.2684 181.809 67.6129 181.566 67.9559 181.32C68.3358 181.049 68.7234 180.764 69.1369 180.547C69.2348 180.495 69.3162 180.628 69.2434 180.703C68.9489 181 68.6083 181.253 68.2802 181.512C67.9559 181.768 67.6278 182.021 67.2942 182.263C67.165 182.357 66.9536 182.573 66.7789 182.469C66.5894 182.358 66.8345 182.134 66.9316 182.062H66.9308Z" fill="#DFDFE4"/>
<path d="M68.8053 182.83C69.0402 182.62 69.2759 182.41 69.5109 182.2C69.774 181.965 70.0411 181.735 70.3105 181.507C70.424 181.411 70.5618 181.57 70.4632 181.676C70.0348 182.133 69.5939 182.577 69.1538 183.024C69.0473 183.132 68.9196 183.304 68.7466 183.233C68.6769 183.205 68.6495 183.134 68.6526 183.062C68.6581 182.958 68.734 182.894 68.8061 182.83H68.8053Z" fill="#DFDFE4"/>
<path d="M70.5457 184.874C73.2091 185.599 76.2116 185.607 77.6423 185.085C76.0056 184.462 74.2467 183.699 72.6633 182.842C71.9913 183.219 71.3946 183.723 70.9239 184.326C70.7877 184.5 70.6616 184.686 70.5449 184.874H70.5457Z" fill="#B0CFC5"/>
<path d="M63.5965 181.277C63.1462 181.445 62.6059 181.326 62.2566 180.996C61.3607 180.151 61.9958 178.521 63.2778 178.822C64.4298 179.092 64.8628 180.803 63.5973 181.278L63.5965 181.277Z" fill="white"/>
<path d="M50.8152 154.996H46.584V185.332H50.8152V154.996Z" fill="#3F3E64"/>
<path d="M41.2909 151.699L41.258 154.901C41.2392 156.721 42.7021 158.211 44.5252 158.23L53.4363 158.321C55.2594 158.34 56.7528 156.88 56.7716 155.06L56.8045 151.858L41.2909 151.698V151.699Z" fill="#2D2C4C"/>
<path d="M39.2188 185.18C39.2188 186.389 40.2008 187.37 41.4131 187.37H56.3009C57.5124 187.37 58.4952 186.389 58.4952 185.18C58.4952 183.971 57.5132 182.991 56.3009 182.991H41.4131C40.2016 182.991 39.2188 183.971 39.2188 185.18Z" fill="#2D2C4C"/>
<path d="M23.6996 102.803L26.2111 147.946C26.3661 150.737 28.6787 152.92 31.4791 152.92H75.7136V138.28H52.0227L49.8918 102.385C49.7673 100.29 48.0304 98.6521 45.9277 98.6482L27.681 98.6113C25.3935 98.6066 23.5727 100.524 23.6996 102.803Z" fill="#21657E"/>
<path d="M62.1469 95.403C62.1469 95.403 65.0107 96.5181 66.4799 99.3922C68.3476 103.046 71.7095 110.577 71.7095 110.577L76.4161 104.053L83.2895 106.699C83.2895 106.699 79.0309 115.871 76.1921 119.824C73.9728 122.914 69.0947 125.118 65.3592 119.973C60.8367 113.743 58.2618 106.774 58.1122 103.045C57.9627 99.317 59.756 94.6935 62.1469 95.4022V95.403Z" fill="#A51D38"/>
<path d="M61.9485 130.678C61.9485 130.678 77.6876 134.443 80.8295 138.12C85.0333 143.039 75.6272 173.178 75.6272 173.178L60.8161 170.921L66.8649 144.208C66.8649 144.208 48.1209 136.962 47.0371 130.69C47.3621 130.148 51.479 128.743 51.479 128.743L61.9485 130.678Z" fill="black"/>
<path d="M89.589 164.826L77.4107 173.366L61.6426 152.825C61.6426 152.825 48.9678 148.414 40.3034 145.095C37.7512 144.092 35.4574 142.713 34.2373 141.311C31.722 138.426 32.8825 134.653 32.8825 134.653C36.3079 130.128 50.0102 128.72 50.0102 128.72L52.0243 133.245C52.0243 133.245 69.755 139.278 73.4826 141.59C77.2102 143.903 89.589 164.826 89.589 164.826Z" fill="black"/>
<path d="M58.9424 130.378L34.3454 141.391C31.83 138.506 32.8825 134.653 32.8825 134.653C36.3079 130.128 50.0101 128.72 50.0101 128.72L58.9432 130.378L58.9424 130.378Z" fill="#D78D31"/>
<path d="M65.9781 109.741C64.7369 112.373 61.9333 115.061 60.6482 120.496C59.1681 126.759 61.9451 130.666 61.9451 130.666H53.0747L31.2812 136.006C34.3683 121.114 38.2784 102.523 40.2339 100.162C42.1893 97.7988 50.8279 94.3422 54.3802 93.9138C57.9324 93.4854 63.4549 95.1041 65.0744 98.0424C67.3384 102.151 67.2194 107.107 65.9789 109.74L65.9781 109.741Z" fill="#EE4F50"/>
<path d="M53.2948 130.679L52.8555 130.658C52.8586 130.593 53.1914 124.069 55.2346 116.139L55.6614 116.248C53.63 124.133 53.2987 130.614 53.2956 130.679H53.2948Z" fill="#A51D38"/>
<path d="M51.5929 94.8918C49.9209 96.2074 47.5293 101.071 47.5293 101.071L50.0134 103.349L47.9404 106.018C47.9404 106.018 54.4552 115.532 55.4482 116.197C57.684 114.357 63.4979 109.271 63.4979 109.271L62.1204 106.288L65.48 106.079C65.48 106.079 65.6648 96.4188 61.4759 94.2833C57.287 92.1477 54.2289 92.8165 51.5929 94.891V94.8918Z" fill="#A51D38"/>
<path d="M52.5469 102.757C52.5469 102.757 53.2838 109.292 55.63 114.335C57.8126 112.069 61.4776 105.169 61.9357 103.508C62.3938 101.847 55.0168 97.9278 52.5469 102.757Z" fill="#6CB1A9"/>
<path d="M56.4086 93.4581C55.1532 93.6711 53.4296 94.1285 52.8054 97.2649C52.2032 100.289 52.5462 103.662 52.7811 103.974C56.0225 103.671 58.8378 102.141 58.8378 102.141C58.8378 102.141 60.8833 103.062 62.3728 103.838C62.838 103.584 62.8168 99.6056 62.4715 97.5773C62.1261 95.5483 59.2591 92.9749 56.4086 93.4581Z" fill="white"/>
<path d="M41.2793 126.395H50.3572C50.3572 126.395 48.466 128.943 44.6835 128.66C42.8526 128.523 41.2793 126.395 41.2793 126.395Z" fill="#D43D3C"/>
<path d="M54.4238 126.297H59.6245C59.6245 126.297 58.973 128.184 56.7881 128.184C55.0856 128.184 54.4238 126.297 54.4238 126.297Z" fill="#D43D3C"/>
<path d="M43.3668 99.4787C38.6994 98.2085 35.26 106.642 32.2027 111.683C29.1462 116.724 27.9464 124.783 32.4 125.131C36.8544 125.479 40.3738 121.187 43.4992 113.806C46.6356 106.4 47.7523 100.673 43.3661 99.4787H43.3668Z" fill="#A51D38"/>
<path d="M52.3207 122.254C52.3207 122.254 53.2103 119.868 52.4679 116.074C51.7263 112.28 49.7779 111.578 49.7779 111.578C49.7779 111.578 46.842 116.587 52.3207 122.254Z" fill="#5F2D1F"/>
<path d="M49.7797 111.578C49.7797 111.578 48.9003 116.028 52.3225 122.254C50.9403 122.969 44.8562 124.469 38.8826 125.275C32.9098 126.081 30.6497 125.517 29.8822 123.422C29.1155 121.327 30.6489 118.789 32.7476 117.782C34.8464 116.775 49.7789 111.578 49.7789 111.578H49.7797Z" fill="#A51D38"/>
<path d="M47.2137 121.984C47.2137 122.308 46.9506 122.57 46.6264 122.57C46.3022 122.57 46.0391 122.308 46.0391 121.984C46.0391 121.661 46.3022 121.398 46.6264 121.398C46.9506 121.398 47.2137 121.661 47.2137 121.984Z" fill="#FFCC05"/>
<path d="M49.5262 121.257C49.5262 121.581 49.2631 121.843 48.9389 121.843C48.6147 121.843 48.3516 121.581 48.3516 121.257C48.3516 120.934 48.6147 120.671 48.9389 120.671C49.2631 120.671 49.5262 120.934 49.5262 121.257Z" fill="#FFCC05"/>
<path d="M64.106 87.7685C64.106 88.1014 63.8358 88.3715 63.5022 88.3715C63.1686 88.3715 62.8984 88.1014 62.8984 87.7685C62.8984 87.4357 63.1686 87.1655 63.5022 87.1655C63.8358 87.1655 64.106 87.4357 64.106 87.7685Z" fill="#3F3E64"/>
<path d="M62.5742 86.212C62.5742 86.212 63.1913 86.2355 63.6346 86.2974C64.077 86.3592 64.9447 86.5738 64.9447 86.5738C64.9447 86.5738 64.6879 85.9034 63.8202 85.8314C63.0543 85.768 62.5742 86.212 62.5742 86.212Z" fill="#3F3E64"/>
<path d="M67.4283 88.3633C67.4283 88.6961 67.1581 88.9663 66.8245 88.9663C66.4909 88.9663 66.2207 88.6961 66.2207 88.3633C66.2207 88.0304 66.4909 87.7603 66.8245 87.7603C67.1581 87.7603 67.4283 88.0304 67.4283 88.3633Z" fill="#3F3E64"/>
<path d="M68.2911 87.4496C68.2911 87.4496 67.7938 87.2506 67.4211 87.1488C67.0483 87.047 66.2832 86.9366 66.2832 86.9366C66.2832 86.9366 66.7288 86.4064 67.4422 86.6508C68.0711 86.8661 68.2919 87.4503 68.2919 87.4503L68.2911 87.4496Z" fill="#3F3E64"/>
<path d="M65.2374 91.4363C65.2374 91.4363 64.4003 92.3001 63.2827 91.9383C62.6461 91.7621 62.3602 91.347 62.2341 90.9766C62.1081 90.6133 62.1378 90.293 62.1378 90.293C62.9084 90.6047 63.8419 90.9437 64.4825 91.1716C64.9336 91.3306 65.2382 91.4363 65.2382 91.4363H65.2374Z" fill="#3F3E64"/>
<path d="M90.4689 110.043L89.9207 109.185L67.352 109.289L62.5898 123.078L63.7536 122.957L90.4689 110.043Z" fill="#1BB9EC"/>
<path d="M68.0501 110.045L63.5918 122.96H86.0078L90.4653 110.045H68.0501Z" fill="#212C5E"/>
<path d="M86.0089 122.961H52.8438V125.153H86.0089V122.961Z" fill="#212C5E"/>
<path d="M63.751 122.961H52.8438V125.153H63.751V122.961Z" fill="#1BB9EC"/>
<path d="M78.3003 117.564C77.9636 118.488 76.9745 119.237 76.0904 119.237C75.2062 119.237 74.7622 118.488 75.0989 117.564C75.4357 116.64 76.4248 115.89 77.3089 115.89C78.193 115.89 78.6371 116.64 78.3003 117.564Z" fill="white"/>
<path d="M123.8 75.3389L126.891 79.6907L122.473 82.9555L120.061 77.8989L123.8 75.3389Z" fill="#FAB995"/>
<path d="M144.768 66.9732C144.768 66.9732 142.841 67.595 140.257 73.4261C137.672 79.2572 135.437 85.5566 135.437 85.5566C135.437 85.5566 130.146 79.1703 128.548 80.0568L126.797 78.3026L120.824 82.6098L122.224 84.4799C122.224 84.4799 121.87 86.2301 123.384 88.8011C124.9 91.3721 132.62 102.086 138.748 100.466C144.876 98.847 151.474 77.4169 151.014 73.4473C150.555 69.4776 148.917 65.8894 144.767 66.9732H144.768Z" fill="#F9A337"/>
<path d="M146.387 107.714L141.689 178.921L155.988 179.786L160.486 117.923L165.044 115.504V106.003L146.387 107.714Z" fill="#5F2D1F"/>
<path d="M159.562 117.726L160.104 180.001L174.294 179.677L176.244 108.861C176.244 108.861 173.983 103.347 158.588 103.347L159.563 117.727L159.562 117.726Z" fill="#834532"/>
<path d="M175.647 104.104L175.105 108.98L145.649 108.922L145.335 104.523C145.335 104.523 143.29 102.662 143.292 101.482C143.294 100.302 145.087 96.7674 145.087 96.7674C145.087 96.7674 143.878 81.1277 143.457 76.3687C143.035 71.6073 143.15 67.8225 144.765 66.9673C146.38 66.1106 151.051 64.1395 151.051 64.1395C154.164 63.1951 155.571 62.3916 158.586 62.6148C161.013 62.7941 169.56 65.5883 171.033 66.3675C172.101 69.4804 173.517 96.4236 173.517 96.4236C173.517 96.4236 176.307 99.3274 176.625 100.936C176.944 102.547 175.647 104.104 175.647 104.104H175.647Z" fill="#E8505B"/>
<path d="M176.242 108.859L145.648 108.92L145.334 104.52L175.809 104.263L176.242 108.859Z" fill="#F9A337"/>
<path d="M152.776 61.7408C152.776 61.7408 150.904 62.5584 150.228 64.423C149.551 66.2876 150.256 69.0136 151.599 70.7334C153.286 68.8335 154.447 67.604 154.447 67.604L157.919 70.7835C157.919 70.7835 161.305 66.6549 161.161 63.8552C161.017 61.0556 156.557 59.7329 152.777 61.7408H152.776Z" fill="white"/>
<path d="M154.219 57.1694C153.696 57.9094 152.288 58.1514 151.529 58.0606C150.974 57.9948 150.665 57.6384 150.514 57.3839C150.588 57.3432 150.675 57.3119 150.772 57.2915C151.56 57.1208 152.099 57.2438 153.205 56.8052C153.547 56.6705 154.007 56.8326 154.22 57.1686L154.219 57.1694Z" fill="white"/>
<path d="M49.7404 113.532C49.7404 113.532 50.879 113.681 52.1062 112.838C53.3333 111.995 55.2355 111.307 55.2355 111.307C55.2355 111.307 56.2739 110.979 56.754 110.982C57.234 110.986 58.9303 111.027 59.379 111.206C59.8277 111.384 60.3563 111.559 60.5842 111.589C60.8121 111.618 61.4676 111.654 61.4284 111.948C61.3893 112.242 61.1175 112.708 60.4535 112.766C59.7894 112.824 59.4229 112.694 59.4229 112.694C59.4229 112.694 63.5452 114.405 64.6525 114.699C64.6525 114.699 65.4803 114.993 65.4035 115.356C65.3268 115.72 64.5554 115.756 63.9203 115.586C63.2852 115.416 61.0008 114.764 61.0008 114.764C61.0008 114.764 60.3164 114.676 60.5568 114.972C60.7972 115.267 64.864 116.647 64.864 116.647C64.864 116.647 65.6753 116.875 65.51 117.335C65.3448 117.796 63.3855 117.262 63.3855 117.262L60.1982 116.146C60.1982 116.146 59.852 116.163 60.0611 116.352C60.2702 116.542 62.0745 117.189 62.3752 117.335C62.6759 117.481 63.8733 117.704 63.8804 118.143C63.8874 118.583 62.7582 118.395 62.7582 118.395L61.9242 118.248C61.9242 118.248 62.221 118.314 62.0314 118.55C61.8419 118.785 61.3807 118.9 59.9045 118.423C59.9045 118.423 58.2568 117.715 57.7313 117.593C57.2051 117.471 54.9207 117.119 54.6748 116.998C54.4289 116.876 53.9152 117.243 53.6387 117.322C53.3623 117.402 51.132 118.514 50.8767 119.045C50.8767 119.045 49.5971 115.882 49.7396 113.531L49.7404 113.532Z" fill="#FAB893"/>
<path d="M57.9316 112.399L57.9442 112.278C58.1705 112.301 59.3076 112.43 59.472 112.659L59.3726 112.73C59.2708 112.585 58.4344 112.451 57.9324 112.399H57.9316Z" fill="#F69F8A"/>
<path d="M58.8301 117.019L58.8959 116.916C58.9162 116.929 60.9539 118.22 61.9226 118.187L61.9265 118.309C60.9202 118.343 58.9147 117.073 58.8301 117.019V117.019Z" fill="#F69F8A"/>
<path d="M160.078 52.9202C161.688 53.5952 163.416 51.0321 162.897 46.7797C162.769 45.7233 161.444 45.4797 161.078 46.165C160.426 47.3851 158.891 48.3068 158.891 48.3068L158.539 52.6641L160.077 52.9202H160.078Z" fill="#5F2D1F"/>
<path d="M151.78 55.9693L151.453 64.8781C151.453 64.8781 152.706 64.6142 155.445 64.8249C157.749 65.0018 159.109 64.1788 159.109 64.1788V54.9873L151.78 55.9693Z" fill="#FAB995"/>
<path d="M151.041 65.2615L156.975 59.6904L151.502 61.8605L151.041 65.2615Z" fill="#F5917E"/>
<path d="M146.596 47.6167V58.5225C146.596 59.001 146.826 59.4536 147.214 59.73L150.145 61.8131C150.554 62.106 151.088 62.1671 151.548 61.9682L156.999 59.6697C157.541 59.4411 157.899 58.9023 157.899 58.3024L158.034 46.6167L146.596 47.6167Z" fill="#FAB995"/>
<g opacity="0.32">
<path d="M146.592 53.2254V57.4597C147.765 57.4597 148.716 56.5114 148.716 55.3422C148.716 54.173 147.764 53.2246 146.592 53.2246V53.2254Z" fill="#EE8171"/>
</g>
<path d="M150.922 55.5139H149.285C149.239 55.5139 149.195 55.4943 149.163 55.4599C149.132 55.4254 149.117 55.38 149.122 55.3346L149.597 50.7384C149.607 50.6491 149.687 50.5849 149.776 50.5935C149.865 50.6029 149.931 50.6828 149.922 50.7721L149.465 55.1889H150.921C151.011 55.1889 151.084 55.2617 151.084 55.3518C151.084 55.4418 151.011 55.5147 150.921 55.5147L150.922 55.5139Z" fill="#DE7360"/>
<path d="M159.845 57.6258C161.329 57.6258 162.533 56.426 162.533 54.9459C162.533 53.4659 161.329 52.2661 159.845 52.2661C158.36 52.2661 157.156 53.4659 157.156 54.9459C157.156 56.426 158.36 57.6258 159.845 57.6258Z" fill="#FAB995"/>
<path d="M151.838 49.9101C151.849 50.5264 153.895 50.9289 153.999 50.3659C154.172 49.4308 151.82 48.9335 151.838 49.9101Z" fill="#100F0E"/>
<g opacity="0.32">
<path d="M154.914 57.3304C156.087 57.3304 157.038 56.382 157.038 55.2121C157.038 54.0422 156.087 53.0938 154.914 53.0938C153.74 53.0938 152.789 54.0422 152.789 55.2121C152.789 56.382 153.74 57.3304 154.914 57.3304Z" fill="#EE8171"/>
</g>
<path d="M152.01 52.2986C152.02 52.7262 152.23 53.0677 152.48 53.0614C152.73 53.0559 152.924 52.7043 152.914 52.2775C152.904 51.8499 152.694 51.5085 152.444 51.5147C152.194 51.5202 152 51.8718 152.01 52.2986Z" fill="#281C1C"/>
<path d="M147.551 52.2986C147.561 52.7262 147.771 53.0677 148.021 53.0614C148.271 53.0559 148.465 52.7043 148.455 52.2775C148.445 51.8499 148.235 51.5085 147.985 51.5147C147.735 51.5202 147.541 51.8718 147.551 52.2986Z" fill="#281C1C"/>
<path d="M159.266 56.5447C159.218 56.5447 159.17 56.5236 159.138 56.4821C158.912 56.1939 158.766 55.8156 158.705 55.3583C158.525 54.0074 159.797 53.4702 160.495 53.3746C160.583 53.3621 160.666 53.4248 160.679 53.5133C160.692 53.6025 160.629 53.684 160.54 53.6965C160.468 53.7067 158.847 53.9495 159.028 55.3152C159.081 55.7146 159.204 56.0396 159.395 56.2816C159.45 56.3521 159.438 56.4547 159.366 56.5095C159.337 56.533 159.301 56.5439 159.266 56.5439V56.5447Z" fill="#DE7360"/>
<path d="M158.866 55.4993C158.836 55.4993 158.804 55.4907 158.777 55.4727C158.702 55.4233 158.68 55.3223 158.73 55.2479C159.285 54.4037 160.09 54.6089 160.439 54.8352C160.514 54.8846 160.536 54.9848 160.486 55.06C160.437 55.1352 160.337 55.1563 160.261 55.1077C160.185 55.0592 159.507 54.6582 159.002 55.4257C158.971 55.4735 158.919 55.4993 158.866 55.4993Z" fill="#DE7360"/>
<g opacity="0.59">
<path d="M150.348 51.5181C150.348 51.6207 150.351 51.7295 150.355 51.8431L153.128 54.4517C153.41 54.3123 153.627 54.0969 153.792 53.8369L151.006 51.2158H150.635L150.348 51.5189L150.348 51.5181Z" fill="white"/>
</g>
<g opacity="0.59">
<path d="M150.388 52.3491C150.499 53.429 150.898 54.6327 152.33 54.6327C152.456 54.6327 152.574 54.6217 152.684 54.6022L150.387 52.3491H150.388Z" fill="white"/>
</g>
<g opacity="0.59">
<path d="M146.467 51.2158H145.758C145.758 52.302 145.758 54.6247 147.557 54.6247C148.299 54.6247 148.734 54.2301 148.991 53.6905L146.467 51.2158H146.467Z" fill="white"/>
</g>
<path d="M147.551 54.7791C147.03 54.7571 146.602 54.5575 146.277 54.1855C145.455 53.2442 145.575 51.537 145.607 51.2041C145.615 51.1266 145.68 51.0679 145.758 51.0679H149.357C149.44 51.0679 149.508 51.1352 149.508 51.219C149.508 51.7461 149.508 52.6271 149.286 53.3687C149.007 54.3053 148.452 54.7806 147.638 54.7806C147.609 54.7806 147.581 54.7806 147.551 54.7791ZM145.897 51.3702C145.837 52.2198 145.961 53.364 146.504 53.9873C146.773 54.2943 147.129 54.4588 147.562 54.4768C149.14 54.5457 149.201 52.49 149.204 51.3694H145.896L145.897 51.3702Z" fill="#2C337C"/>
<path d="M150.45 53.3836C150.193 52.6443 150.193 51.7891 150.193 51.219C150.193 51.1352 150.261 51.0679 150.344 51.0679H154.316C154.399 51.0679 154.467 51.1352 154.467 51.219C154.467 52.0992 154.467 54.7791 152.33 54.7791C151.403 54.7791 150.771 54.3092 150.449 53.3828L150.45 53.3836ZM150.497 51.3709C150.499 51.9105 150.518 52.6537 150.737 53.2857C151.015 54.0884 151.537 54.4784 152.331 54.4784C153.537 54.4784 154.137 53.4611 154.165 51.3709H150.497Z" fill="#2C337C"/>
<path d="M149.356 51.3702H158.282C158.366 51.3702 158.433 51.3028 158.433 51.219C158.433 51.1352 158.365 51.0679 158.282 51.0679H149.356C149.272 51.0679 149.205 51.1352 149.205 51.219C149.205 51.3028 149.273 51.3702 149.356 51.3702Z" fill="#2C337C"/>
<path d="M145.707 44.7966C145.707 44.7966 144.028 44.3988 143.573 43.9971C142.796 46.6119 145.05 47.8336 145.133 47.8508C145.133 47.8508 144.279 49.4194 145.705 50.0694C146.65 50.5001 149.367 45.9431 149.367 45.9431L145.708 44.7966H145.707Z" fill="#5F2D1F"/>
<path d="M145.705 50.0772C151.809 49.5274 153.746 46.2015 153.746 46.2015C153.746 46.2015 158.24 49.3653 157.185 52.9254C158.844 52.5103 159.091 51.6223 159.091 51.6223L159.581 46.1216L155.817 42.791L150.75 43.5577L147.542 44.5029L145.705 50.0764V50.0772Z" fill="#5F2D1F"/>
<path d="M155.422 42.8626C155.422 42.8626 155.402 42.7514 155.367 42.5572C155.353 42.4672 155.317 42.3231 155.281 42.1735C155.248 42.0177 155.194 41.8579 155.138 41.6833C155.088 41.5071 155.002 41.3246 154.928 41.1304C154.837 40.9401 154.752 40.738 154.634 40.5399C154.577 40.4412 154.519 40.3402 154.461 40.2384C154.394 40.1405 154.327 40.0418 154.26 39.9424C154.122 39.7458 153.968 39.5547 153.804 39.3738L153.55 39.1092C153.457 39.0285 153.366 38.9478 153.274 38.8687C153.186 38.7865 153.085 38.7192 152.989 38.6502C152.89 38.5845 152.803 38.5077 152.698 38.4553C152.497 38.3401 152.305 38.2305 152.107 38.1561C151.917 38.066 151.724 38.0151 151.548 37.965C151.377 37.9055 151.206 37.8945 151.063 37.8656C150.92 37.8358 150.792 37.8311 150.687 37.8272C150.478 37.8178 150.359 37.8115 150.359 37.8115C150.359 37.8115 150.475 37.8366 150.678 37.8812C150.779 37.9016 150.901 37.9274 151.034 37.9799C151.166 38.0308 151.323 38.0668 151.475 38.1514C151.63 38.2266 151.798 38.3025 151.957 38.4153C152.125 38.5124 152.28 38.6432 152.439 38.7748C152.523 38.8358 152.589 38.9204 152.666 38.9925C152.739 39.0676 152.817 39.1405 152.881 39.2282C152.948 39.3112 153.015 39.395 153.082 39.4796L153.26 39.7497C153.374 39.9314 153.476 40.1202 153.563 40.3105C153.605 40.406 153.647 40.5008 153.688 40.5947C153.722 40.6911 153.756 40.7866 153.789 40.8798C153.857 41.0654 153.897 41.2533 153.944 41.4264C153.974 41.6042 154.019 41.7678 154.032 41.9237C154.052 42.0787 154.071 42.2205 154.073 42.3364C154.078 42.457 154.088 42.5486 154.084 42.6551C154.082 42.8525 154.082 42.9652 154.082 42.9652C154.078 43.3192 154.378 43.6082 154.751 43.6105C155.124 43.6137 155.429 43.3294 155.432 42.9754C155.432 42.9378 155.428 42.8979 155.422 42.8619V42.8626Z" fill="#5F2D1F"/>
<path d="M153.028 46.2781C153.028 46.2781 148.494 48.0769 144.932 46.2476C141.593 44.5333 142.346 39.3718 148.116 41.021C147.163 40.4313 146.57 37.7953 149.852 38.4931C153.135 39.1909 154.471 40.8354 154.471 40.8354C154.471 40.8354 158.059 40.0844 160.53 42.0054C162.805 43.7753 160.952 46.6704 160.952 46.6704C160.952 46.6704 162.63 46.7707 162.426 48.5805C162.222 50.3903 157.501 51.9119 158.9 54.782C157.062 54.9465 156.793 52.0528 157.022 48.622C151.656 49.3855 153.027 46.2773 153.027 46.2773L153.028 46.2781Z" fill="#5F2D1F"/>
<path d="M146.42 50.3242C146.703 50.8168 148.533 50.2357 148.366 49.7353C148.089 48.9052 145.97 49.5442 146.42 50.3242Z" fill="#100F0E"/>
<path d="M151.75 58.2072C151.732 58.284 151.703 58.3568 151.663 58.4265C151.399 58.8682 150.751 58.9238 150.287 58.8901C149.865 58.8596 149.366 58.7178 149.135 58.3357C149.122 58.3153 149.11 58.2942 149.099 58.2722C148.915 57.8987 149.072 57.4923 149.337 57.1735C149.388 57.1132 149.442 57.0568 149.498 57.0036C149.617 56.8916 149.746 56.7968 149.872 56.7279C150.274 56.5047 150.734 56.5564 151.098 56.8008C151.162 56.843 151.222 56.8908 151.279 56.9449C151.591 57.2385 151.857 57.7648 151.75 58.2072Z" fill="#D55454"/>
<path d="M151.75 58.2081C151.732 58.2849 151.703 58.3577 151.663 58.4274C151.4 58.8691 150.751 58.9247 150.287 58.891C149.865 58.8605 149.366 58.7187 149.135 58.3365C149.306 58.1697 149.506 58.0335 149.724 57.9364C150.164 57.7422 150.673 57.7101 151.132 57.8487C151.36 57.9176 151.585 58.0397 151.75 58.2081Z" fill="#F27C7B"/>
<path d="M151.26 56.9256C151.201 56.9664 151.08 57.018 151.006 57.0431C150.62 57.1715 150.137 57.1653 149.73 57.1825C149.6 57.188 149.468 57.1888 149.338 57.1739C149.388 57.1136 149.442 57.0572 149.498 57.004C149.617 56.892 149.744 56.7902 149.872 56.7283C150.502 56.4244 150.912 56.6625 151.26 56.9256Z" fill="white"/>
<path d="M159.111 64.1697C159.111 64.1697 157.722 67.3719 154.256 66.7775C151.307 66.2716 151.045 65.2621 151.045 65.2621L152.591 63.9395L159.112 64.1697H159.111Z" fill="#FAB995"/>
<path d="M68.5452 172.115L62.6961 171.197L62.3711 173.169L68.5452 172.115Z" fill="#F5917E"/>
<path d="M85.5683 167.651L80.5312 171.179L81.5869 172.679L85.5683 167.651Z" fill="#F5917E"/>
<path d="M30.6438 188.286H27.0078L41.281 126.39H47.1637L30.6438 188.286Z" fill="#084153"/>
<path d="M130.816 186.523H134.452L122.245 126.39H116.361L130.816 186.523Z" fill="#084153"/>
<path d="M173.848 188.286H177.484L163.834 126.39H157.951L173.848 188.286Z" fill="#084153"/>
<path d="M171.153 125.265H23.623V128.646H171.153V125.265Z" fill="#1E5E76"/>
<path d="M153.245 125.269H122.155L115.234 106.358L147.833 105.398L153.245 125.269Z" fill="#F16B70"/>
<path d="M154.892 125.266H153.245L147.23 106.355H115.234L116.216 104.841H148.396L154.892 125.266Z" fill="#212C5E"/>
<path d="M150.955 117.862L147.826 125.268H115.145L119.819 117.862H150.955Z" fill="#212C5E"/>
<path d="M83.1003 104.137L82.2498 106.348C80.2662 105.476 81.7487 106.086 77.4023 104.422L79.7909 100.333L83.1003 104.136V104.137Z" fill="#FBC5A9"/>
<path d="M79.7891 100.328L83.028 104.18C83.028 104.18 83.5465 103.277 83.985 103.178C84.4236 103.079 86.368 103.648 87.1222 102.96C87.8763 102.273 88.2679 101.551 88.2679 101.551C88.2679 101.551 90.2711 100.448 91.4959 100.142C92.7207 99.8357 92.2947 99.3603 91.5312 99.0988C90.7676 98.8372 89.1794 99.2711 89.1794 99.2711C89.1794 99.2711 90.8357 96.5544 90.5256 96.3359C90.2155 96.1174 89.7707 95.9843 88.7871 97.3939C88.7871 97.3939 89.3118 96.2286 88.6665 96.0626C88.0204 95.8966 86.4659 99.2476 86.4659 99.2476L84.6702 98.8959C84.6702 98.8959 85.8159 96.9671 85.3273 96.4087C84.8386 95.8504 84.411 96.0556 84.3084 96.6218C84.2059 97.1879 83.8542 98.2992 82.9309 98.3955C82.0076 98.4911 80.8212 98.697 79.7891 100.328Z" fill="#FBC5A9"/>
<path d="M87.4257 101.096L87.302 100.996L87.3638 101.046L87.2949 101.007C87.3419 100.915 88.1689 98.7774 88.7132 97.3623L88.8612 97.4195C87.4648 101.048 87.4351 101.084 87.4257 101.096Z" fill="#F1A97F"/>
<path d="M85.9769 100.794L85.8281 100.739L86.3912 99.2144L86.54 99.2692L85.9769 100.794Z" fill="#F1A97F"/>
<path d="M82.2718 100.631L82.1504 100.528C83.2546 99.2252 84.676 100.084 84.6901 100.093L84.6063 100.228C84.553 100.195 83.2859 99.4335 82.2718 100.631Z" fill="#F1A97F"/>
<path d="M89.1811 99.2723L88.2695 101.553C88.2695 101.553 90.2727 100.449 91.4975 100.143C92.7223 99.8369 92.2963 99.3615 91.5328 99.1C90.7692 98.8384 89.1811 99.2723 89.1811 99.2723Z" fill="#F1A97F"/>
<path d="M46.1505 80.5758C46.1505 80.5758 45.1199 83.7889 46.3698 87.9637C47.6486 92.2356 42.7815 92.4056 43.8794 96.5616C43.8794 96.5616 58.0304 98.9313 69.6308 89.1752C69.6308 89.1752 70.0309 85.3262 67.2869 84.7545C63.4433 83.9534 62.0384 80.2578 62.0384 80.2578L46.1513 80.5758H46.1505Z" fill="#22192B"/>
<path d="M55.9655 89.766C60.3767 88.6318 63.1002 84.3967 62.0485 80.3068C60.9969 76.2169 56.5684 73.8208 52.1571 74.955C47.7459 76.0893 45.0224 80.3243 46.0741 84.4143C47.1257 88.5042 51.5543 90.9003 55.9655 89.766Z" fill="#22192B"/>
<path d="M51.3359 87.49C51.2639 86.9661 52.2452 82.558 49.4063 77.752C49.4063 77.752 47.3561 77.7598 47.5613 81.4757C47.891 87.436 51.3359 87.49 51.3359 87.49Z" fill="#22192B"/>
<path d="M48.8613 78.2488C48.8613 78.2488 51.9672 80.5974 61.7452 77.7664C61.7452 77.7664 59.2847 74.2306 54.0973 74.6707C48.9091 75.1108 48.8621 78.2488 48.8621 78.2488H48.8613Z" fill="#22192B"/>
<path d="M63.8165 85.4336L63.295 81.3144C63.3185 78.1271 63.7821 74.5051 57.4169 75.6524C54.8655 74.1237 53.5083 76.9524 51.3281 78.9799C51.0979 79.1905 49.9397 78.7669 49.7423 79.0065C47.6569 81.5454 46.1548 83.7381 47.2778 86.8228C47.6819 87.9341 50.5975 91.7518 51.9906 90.9389L63.8165 85.4328V85.4336Z" fill="#22192B"/>
<path d="M52.9512 88.29L54.1501 97.3334C54.1501 97.3334 55.743 98.1964 58.0986 97.8464C60.9367 97.4251 61.4574 96.6192 61.4574 96.6192L60.4989 91.0434L59.9538 88.0723L52.9512 88.29Z" fill="#FABA97"/>
<path d="M55.2246 92.531L61.4019 96.243L60.4997 91.0454L55.2246 92.531Z" fill="#F5927E"/>
<path d="M51.5117 79.6283L54.4312 91.5967C54.5635 92.1316 55.0013 92.5318 55.5456 92.6202L60.989 93.4785C61.4503 93.5506 61.9202 93.3807 62.2295 93.029L64.4261 90.5184C64.7182 90.1855 64.8318 89.7313 64.7276 89.3006L64.6258 88.8903L63.4574 84.1038L62.7816 81.3245C62.2154 79.0112 59.8794 77.5945 57.5613 78.156L51.5125 79.6291L51.5117 79.6283Z" fill="#FABA97"/>
<g opacity="0.24">
<path d="M62.7012 86.8485C62.8155 87.7561 63.5658 88.4343 64.4718 88.533L63.6652 84.9385C63.0019 85.33 62.6017 86.0654 62.7004 86.8485H62.7012Z" fill="#F08372"/>
</g>
<path d="M60.8081 88.1945C60.8316 88.1906 60.8559 88.1828 60.8778 88.1687L62.5388 87.1209C62.6179 87.0707 62.6453 86.9681 62.6015 86.8851L60.4181 82.7863C60.3719 82.6994 60.2623 82.6657 60.1754 82.7127C60.0877 82.7589 60.0548 82.8677 60.101 82.9547L62.206 86.9071L60.686 87.8664C60.6022 87.9188 60.5771 88.03 60.6304 88.1131C60.6695 88.1749 60.7408 88.2047 60.8089 88.1945H60.8081Z" fill="#DE7360"/>
<path d="M55.1297 88.145C55.4578 89.4888 54.6324 90.8428 53.2862 91.1702C51.94 91.4975 50.5837 90.6737 50.2555 89.3298C49.9274 87.986 50.7528 86.632 52.099 86.3047C53.4452 85.9773 54.8015 86.8011 55.1297 88.145Z" fill="#FABA97"/>
<path d="M62.8263 81.3933C62.7394 81.9164 60.95 82.0033 60.9319 81.5107C60.903 80.6939 62.9641 80.5647 62.8263 81.3933Z" fill="#281C1C"/>
<path d="M55.5691 83.0216C55.9129 83.4257 57.4932 82.5823 57.2544 82.1515C56.8589 81.4358 55.024 82.3818 55.5691 83.0216Z" fill="#281C1C"/>
<g opacity="0.24">
<path d="M54.9213 88.5417C55.0756 89.5747 56.0396 90.2873 57.0741 90.1338C58.1094 89.9803 58.8236 89.0179 58.6694 87.9849C58.5151 86.952 57.5511 86.2394 56.5166 86.3929C55.4813 86.5464 54.7671 87.5088 54.9213 88.5417Z" fill="#F08372"/>
</g>
<path d="M58.0436 85.5531C58.1509 85.994 58.4547 86.2986 58.7218 86.2336C58.9888 86.1686 59.1181 85.7591 59.0108 85.3182C58.9035 84.8773 58.5996 84.5726 58.3326 84.6376C58.0655 84.7026 57.9363 85.1122 58.0436 85.5531Z" fill="#281C1C"/>
<path d="M62.1328 84.6444C62.2409 85.0861 62.5369 85.393 62.7945 85.3304C63.0522 85.2677 63.1735 84.859 63.0663 84.4173C62.9582 83.9756 62.6622 83.6686 62.4045 83.7313C62.1469 83.7939 62.0255 84.2027 62.1328 84.6444Z" fill="#281C1C"/>
<path d="M53.4366 89.4038L53.5728 89.1869L51.8374 88.0991L51.7012 88.316L53.4366 89.4038Z" fill="#F5927E"/>
<path d="M52.2575 89.5638L52.7454 88.8191L52.5309 88.6797L52.043 89.4244L52.2575 89.5638Z" fill="#F5927E"/>
<path d="M59.3214 78.3353C59.3214 78.3353 59.3864 80.0495 56.6901 81.3049C55.3784 81.9165 54.3886 82.0363 54.1113 82.5446C53.7613 83.1781 54.5264 84.7569 54.25 85.4304C54.0119 86.0059 53.9203 85.7914 53.4848 86.244C53.5083 86.345 53.5874 87.3662 53.8122 88.2472C52.2138 86.8298 49.1941 86.1767 49.1017 84.0474C49.0336 82.4655 49.3132 80.8569 50.0321 79.4458C50.7471 78.0354 51.9194 76.8333 53.3658 76.195C54.6118 75.6468 56.0229 75.5262 57.3723 75.7126C59.6026 76.0235 60.0482 76.8763 61.4977 78.5929C62.9473 80.3095 63.4782 81.9463 64.0992 84.1805C61.807 78.3016 59.3207 78.3369 59.3207 78.3369L59.3214 78.3353Z" fill="#22192B"/>
<path d="M61.4928 89.8584C62.3354 89.6665 62.6894 89.3001 62.7113 89.2773C62.7693 89.2155 62.7653 89.1192 62.7043 89.062C62.6432 89.0048 62.5461 89.0079 62.4889 89.0682C62.4787 89.0792 61.7489 89.8083 59.8396 89.6438C59.7558 89.6368 59.6814 89.6987 59.6744 89.7825C59.6673 89.8662 59.7292 89.9406 59.8138 89.9477C60.5131 90.008 61.066 89.9555 61.4936 89.8584H61.4928Z" fill="#DE7360"/>
<g opacity="0.22">
<path d="M57.8358 83.3047L60.6707 85.7089C60.6707 85.7089 60.3152 87.0973 59.2509 87.2023L56.4121 84.8741C56.4121 84.8741 56.7027 83.4879 57.835 83.3047H57.8358Z" fill="white"/>
</g>
<g opacity="0.22">
<path d="M62.6434 82.1626L65.1439 84.6396C65.1439 84.6396 64.8839 86.0069 63.9771 86.0782L61.4766 83.6764C61.4766 83.6764 61.6817 82.309 62.6434 82.1626Z" fill="white"/>
</g>
<path d="M58.5309 87.5284C57.5058 87.5284 56.5747 86.8267 56.3288 85.7883C56.1902 85.201 56.2888 84.5956 56.606 84.0827C56.924 83.5697 57.4228 83.211 58.0109 83.0724C58.599 82.9338 59.206 83.0325 59.7197 83.3497C60.2334 83.6668 60.5929 84.1649 60.7323 84.7514C61.0189 85.9629 60.264 87.1815 59.0501 87.4681C58.8763 87.5088 58.7016 87.5284 58.5309 87.5284ZM58.5348 83.2204C58.3766 83.2204 58.2177 83.2385 58.0595 83.276C57.5262 83.4013 57.0735 83.7271 56.7853 84.1923C56.4972 84.6575 56.4079 85.2072 56.534 85.7397C56.794 86.8392 57.9013 87.5229 59.0031 87.2629C60.1042 87.0037 60.7894 85.8979 60.5294 84.7984C60.4034 84.2659 60.0776 83.8141 59.6108 83.5266C59.2827 83.3238 58.9123 83.2197 58.5356 83.2197L58.5348 83.2204Z" fill="#D86539"/>
<path d="M63.4322 86.3874C63.104 86.3874 62.7736 86.2918 62.4728 86.1062C61.956 85.7875 61.573 85.2354 61.4227 84.5909C61.1392 83.3786 61.7531 82.1914 62.79 81.944C63.2387 81.8367 63.7164 81.9205 64.1362 82.1797C64.653 82.4984 65.0352 83.0505 65.1864 83.695C65.4698 84.9073 64.8559 86.0945 63.819 86.342C63.6914 86.3725 63.5622 86.3874 63.4322 86.3874ZM63.1776 82.1084C63.0641 82.1084 62.9505 82.1217 62.8393 82.1484C61.9137 82.3692 61.3702 83.4436 61.6271 84.5439C61.7649 85.1344 62.1134 85.6387 62.5833 85.9285C62.9552 86.1579 63.3766 86.2323 63.7705 86.1384C64.6961 85.9175 65.2396 84.8431 64.9827 83.7428C64.8449 83.1523 64.4964 82.648 64.0273 82.3582C63.7603 82.1938 63.4682 82.1084 63.1784 82.1084H63.1776Z" fill="#D86539"/>
<path d="M60.7015 84.856L60.5605 84.7002C60.5786 84.6845 60.9991 84.3118 61.5535 84.466L61.4972 84.6681C61.0563 84.5451 60.7156 84.8427 60.7015 84.856Z" fill="#D86539"/>
<path d="M53.7319 87.8063L53.6191 87.6301L56.4172 85.854L56.53 86.031L53.7319 87.8063Z" fill="#D86539"/>
<path d="M54.1504 97.3236L58.7583 100.757L61.4577 96.6094L54.1504 97.3236Z" fill="#FABA97"/>
<path d="M149.826 75.6375C149.059 75.6814 148.458 75.8842 148.483 76.4128C148.508 76.9704 149.734 77.3252 150.916 77.5382C150.035 77.5061 149.222 77.6157 149.223 78.1255C149.227 79.3581 152.721 78.3017 154.663 80.3253C156.131 81.8555 157.28 82.4922 158.199 82.8015C158.867 83.0263 159.413 83.078 159.873 83.1743C160.667 81.7529 161.128 80.0825 161.397 78.6118C160.98 78.1756 160.47 77.6924 159.849 77.1529C159.229 76.6141 158.499 76.0189 157.643 75.358C156.85 74.7463 155.625 73.4824 154.887 73.1503C153.783 72.6538 148.849 71.2834 148.49 72.4698C148.284 73.1543 149.99 73.6625 151.256 73.9421C149.953 73.7494 148.128 73.6398 148.031 74.513C147.967 75.0854 148.817 75.4292 149.826 75.636V75.6375Z" fill="#FAB995"/>
<path d="M153.595 77.8095C153.595 77.8095 152.451 77.5723 151.404 77.5347C152.519 77.7344 153.595 77.8095 153.595 77.8095Z" fill="#F2C9AC"/>
<path d="M151.746 73.9443C152.428 74.0939 152.981 74.1777 153.038 74.1855C152.985 74.173 152.44 74.0469 151.746 73.9443Z" fill="#F2C9AC"/>
<path d="M154.576 74.4479C154.067 74.3077 153.552 74.1621 153.033 74.0673C152.513 73.9726 151.99 73.8958 151.464 73.8496C150.173 73.7368 149.347 73.8676 149.399 73.8653C150.626 73.805 152.492 74.1159 153.012 74.2106C153.531 74.3054 154.054 74.3735 154.574 74.4683C154.587 74.4706 154.589 74.4518 154.577 74.4487L154.576 74.4479Z" fill="#F5917E"/>
<path d="M154.269 76.3285C153.615 75.9901 151.564 75.5845 150.331 75.626C150.28 75.6276 150.294 75.6495 150.345 75.6573C151.01 75.7599 153.611 76.2102 154.267 76.3441C154.277 76.3465 154.279 76.3332 154.27 76.3285H154.269Z" fill="#F5917E"/>
<path d="M154.294 77.9893C153.417 77.651 152.363 77.51 151.23 77.5351C151.179 77.5358 151.201 77.5672 151.253 77.5742C152.275 77.7058 153.077 77.8021 154.285 78.0237C154.304 78.0268 154.315 77.9971 154.294 77.9893Z" fill="#F5917E"/>
<path d="M158.686 82.8027C159.354 83.0274 159.9 83.0791 160.36 83.1754C161.154 81.7541 161.615 80.0837 161.884 78.613C161.467 78.1768 161.416 78.1768 160.795 77.6372C160.795 77.6372 160.257 81.3743 158.687 82.8019L158.686 82.8027Z" fill="#F5917E"/>
<path d="M159.834 76.727C159.812 76.6675 157.102 73.0275 157.023 72.1191C156.951 71.2984 156.229 70.8693 155.745 71.7957C155.26 72.7221 155.375 73.1528 155.375 73.1528C156.036 73.4504 158.483 75.8992 159.834 76.727H159.834Z" fill="#FAB995"/>
<path d="M171.225 66.3874C174.165 67.4211 176.413 70.1205 177.687 74.6759C178.96 79.2313 182.145 88.6593 181.827 90.6719C181.508 92.6845 175.458 94.4857 171.851 91.3078C168.242 88.1299 167.393 73.4049 167.499 70.7564C167.605 68.1079 169.646 65.8321 171.226 66.3874H171.225Z" fill="#F9A337"/>
<path d="M176.08 95.8939C175.274 95.7358 174.373 95.4436 173.42 95.0591C168.073 92.8969 161.14 87.7957 160.695 86.9076C160.17 85.8606 160.259 84.7266 160.259 84.7266L158.336 83.5058L161.992 77.9824L163.055 78.9684C163.055 78.9684 165.591 77.9213 166.64 78.2714C167.312 78.4946 172.61 81.5809 176.677 84.2529C178.959 85.7525 180.854 87.1214 181.324 87.78C182.637 89.6125 181.411 96.941 176.08 95.8939Z" fill="#F9A337"/>
<path d="M164.734 78.2301L160.401 85.7982L157.91 84.0408L162.162 77.2026L164.734 78.2301Z" fill="#63A1C0"/>
<path d="M125.781 78.1637L123.229 72.8706C123.229 72.8706 122.18 71.0875 120.465 69.8227C118.371 68.2776 115.749 65.6182 115.749 65.6182C115.749 65.6182 114.601 66.063 115.43 67.2212L117.65 70.4171L115.688 71.3443C114.919 71.667 114.673 72.6788 115.263 73.2685C115.294 73.299 115.327 73.3296 115.363 73.3593C115.363 73.3593 114.771 74.3954 115.778 75.1401C115.778 75.1401 115.588 75.935 116.324 76.4338C117.059 76.9319 118.535 76.6805 118.535 76.6805C118.535 76.6805 118.503 78.3885 120.819 79.329L121.581 81.0472L125.781 78.163V78.1637Z" fill="#FAB995"/>
<path d="M120.831 71.8539L115.983 70.4106C115.983 70.4106 115.249 71.6746 116.454 72.2345C117.659 72.7945 118.858 73.5447 118.858 73.5447C118.858 73.5447 118.266 75.4461 120.101 76.3545L120.832 71.8539H120.831Z" fill="#FAB995"/>
<path d="M120.101 76.4522C120.087 76.4522 120.072 76.4491 120.058 76.442C118.378 75.6103 118.659 73.958 118.745 73.5899C118.488 73.4317 117.446 72.8029 116.413 72.3228C116.052 72.1552 115.819 71.9101 115.718 71.5937C115.532 71.004 115.884 70.3885 115.899 70.3627L115.937 70.2969L120.001 71.5068C120.052 71.5225 120.081 71.5757 120.066 71.6274C120.05 71.6791 119.996 71.7081 119.945 71.6924L116.032 70.5279C115.953 70.6931 115.776 71.1332 115.903 71.5373C115.986 71.7989 116.185 72.0041 116.494 72.1482C117.691 72.7042 118.896 73.4568 118.909 73.4638L118.972 73.5037L118.95 73.575C118.928 73.6494 118.407 75.4091 120.145 76.2697C120.192 76.2932 120.212 76.352 120.188 76.3997C120.171 76.4342 120.137 76.4538 120.102 76.4538L120.101 76.4522Z" fill="#F7A18A"/>
<path d="M117.167 73.7403C116.455 73.7403 115.703 73.6777 115.314 73.4506C115.268 73.4239 115.252 73.3644 115.279 73.3182C115.305 73.272 115.366 73.2564 115.412 73.283C116.208 73.7474 118.821 73.4545 118.846 73.4514C118.9 73.4451 118.948 73.4835 118.954 73.5367C118.96 73.59 118.922 73.6377 118.868 73.644C118.809 73.6511 118.016 73.7395 117.167 73.7395V73.7403Z" fill="#F7A18A"/>
<path d="M116.961 75.4002C116.569 75.4002 116.153 75.3547 115.75 75.2302C115.699 75.2145 115.67 75.1597 115.686 75.1088C115.702 75.0579 115.756 75.029 115.807 75.0446C117.209 75.4777 118.825 74.8903 118.84 74.8841C118.89 74.8653 118.947 74.8911 118.965 74.9412C118.984 74.9914 118.958 75.047 118.908 75.0658C118.858 75.0846 117.991 75.4002 116.96 75.4002H116.961Z" fill="#F7A18A"/>
<path d="M118.535 76.7787C118.499 76.7787 118.464 76.7584 118.447 76.7239C118.424 76.6754 118.445 76.6174 118.493 76.5947C118.817 76.4396 119.332 76.1099 119.331 75.8852C119.331 75.8319 119.374 75.7881 119.428 75.7881C119.482 75.7881 119.525 75.8312 119.525 75.8844C119.526 76.3049 118.673 76.7231 118.576 76.7693C118.563 76.7756 118.549 76.7787 118.535 76.7787Z" fill="#F7A18A"/>
</g>
<defs>
<clipPath id="clip0_2084_4522">
<rect width="222" height="222" fill="white"/>
</clipPath>
</defs>
</svg>
