<svg width="272" height="244" viewBox="0 0 272 244" fill="none" xmlns="http://www.w3.org/2000/svg">
<path d="M238.462 233.815H62.9766V235.147H238.462V233.815Z" fill="black"/>
<path d="M189.846 122.634C177.642 107.916 164.076 115.515 160.621 119.702C129.182 157.738 82.0077 165.366 77.3412 189.087C74.8135 201.92 85.6721 234.077 150.719 234.541C218.608 235.02 234.463 195.743 218.952 170.63C203.457 145.548 202.051 137.366 189.846 122.634Z" fill="#AAB6C2"/>
<path d="M157.526 233.404V232.761C146.667 232.761 139.129 225.462 135.689 218.642C132.084 211.493 131.591 201.756 138.605 196.132C143.885 191.899 150.69 191.196 157.271 190.523C167.308 189.491 177.703 188.429 183.296 175.133C192.45 153.415 177.927 117.549 177.777 117.175L177.029 117.384C177.179 117.743 191.612 153.415 182.549 174.923C177.119 187.831 167.427 188.818 157.182 189.88C150.466 190.568 143.541 191.286 138.067 195.668C131.665 200.798 130.454 209.922 134.971 218.881C138.516 225.896 146.308 233.404 157.541 233.404H157.526Z" fill="black"/>
<path d="M103.067 224.52L103.336 223.907C92.8362 220.811 88.2892 209.488 88.4986 200.29C88.6781 192.348 92.3276 182.97 101.99 180.442C108.795 178.662 113.761 178.602 118.562 178.543C127.072 178.438 134.431 178.348 148.431 168.177C169.953 152.562 170.133 118.237 170.133 117.893H169.34C169.34 118.237 169.146 152.278 147.907 167.699C134.117 177.705 126.908 177.795 118.547 177.899C113.91 177.959 108.66 178.019 101.75 179.829C91.6844 182.461 87.9003 192.123 87.7059 200.275C87.4965 209.698 92.2079 221.289 103.067 224.505V224.52Z" fill="black"/>
<path d="M166.992 232.118C172.766 231.61 178.449 230.443 183.908 228.813C189.353 227.137 194.573 224.924 199.239 222.067C203.906 219.21 207.929 215.636 210.935 211.552C213.957 207.469 215.886 202.892 216.828 198.196C217.307 195.848 217.516 193.47 217.516 191.091C217.561 189.91 217.456 188.713 217.412 187.532C217.292 186.35 217.217 185.169 217.008 183.987C216.335 179.276 215.048 174.639 213.328 170.122C211.608 165.605 209.514 161.178 207.166 156.87C204.788 152.563 202.156 148.345 199.359 144.217C202.036 148.405 204.564 152.652 206.807 157.005C209.081 161.342 211.115 165.77 212.745 170.287C213.583 172.545 214.256 174.833 214.899 177.122C215.467 179.425 216.006 181.743 216.29 184.077C216.484 185.243 216.559 186.41 216.664 187.592C216.709 188.758 216.798 189.94 216.754 191.106C216.739 193.455 216.514 195.803 216.036 198.106C215.138 202.728 213.254 207.245 210.307 211.268C207.376 215.307 203.397 218.806 198.865 221.693C194.303 224.565 189.158 226.823 183.774 228.543C178.389 230.263 172.751 231.535 166.992 232.133V232.118Z" fill="black"/>
<path d="M105.608 128.168C102.781 128.168 100.239 127.63 98.0702 126.568C97.786 126.433 97.5467 126.298 97.3223 126.134C91.0853 121.976 94.316 91.1498 94.8844 87.8892C96.3501 87.8892 99.3565 87.2012 100.314 86.9619C100.493 87.5303 101.002 89.2503 101.555 91.1947C105.399 104.491 107.762 111.715 109.318 111.88C110.095 111.88 114.134 108.978 116.093 107.438C117.08 106.645 118.127 105.808 119.189 104.97L120.266 104.102C122.869 102.083 125.695 99.9743 126.892 99.6154C127.819 99.3312 128.687 99.1966 129.45 99.1966C131.469 99.1966 132.935 100.184 133.787 102.128C135.896 106.899 133.757 115.649 132.187 117.369C131.738 117.848 130.586 118.805 128.687 120.046C122.689 123.98 113.461 128.183 105.608 128.183V128.168Z" fill="#FFBCB0"/>
<path d="M143.897 111.745C142.88 116.068 132.245 120.675 127.354 125.281C121.461 121.467 119.442 112.777 121.446 101.844C130.48 94.1112 139.08 93.0942 147.576 94.1262C154.935 95.0236 144.779 108.036 143.897 111.745Z" fill="#FF5225"/>
<path d="M98.0394 90.5517C97.3513 90.5517 96.8428 90.0431 96.3492 89.4748C96.0351 89.1158 95.5864 88.4876 95.2424 87.7547C94.6442 86.8125 93.9711 85.6159 93.9562 84.2847C93.9562 84.0155 93.986 83.7612 94.0308 83.507L94.0608 83.3425L93.9562 83.2079C93.2083 82.2955 92.7596 81.2485 92.595 80.0669C92.5801 79.9323 92.5951 79.8276 92.6699 79.7379C92.7596 79.6332 92.909 79.5734 93.0586 79.5734H93.4325L93.4774 79.1994C93.4774 78.9751 93.5224 78.7806 93.5972 78.6311C93.687 78.4665 93.8215 78.3618 94.0458 78.2871L94.2403 78.2123L94.2852 78.0029C94.33 77.7636 94.4198 77.5392 94.5096 77.3747C94.8685 76.7465 95.4368 76.4025 96.0949 76.4025H96.9326L96.4988 75.7893C95.706 74.9218 94.6441 74.1739 93.1335 73.441C92.9689 73.3663 92.8793 73.2466 92.8643 73.097C92.8344 72.9176 92.924 72.7381 93.0736 72.6035C93.3279 72.3791 93.6271 72.2744 93.9861 72.2744C95.2724 72.2744 96.8726 73.6953 97.5457 74.6675C98.1738 75.5649 98.6526 76.7016 98.9517 78.0328C99.0414 78.2123 99.0713 78.2871 99.1012 78.3619L99.1911 78.5563L99.4302 79.0349L99.7892 78.646L99.9239 78.4965C99.9239 78.4965 100.029 78.3618 100.088 78.317C100.462 77.9879 101.12 77.6589 101.704 77.6589C102.078 77.6589 102.377 77.7935 102.586 78.0478C103.035 78.6161 102.601 79.2593 101.943 80.1267C101.808 80.3062 101.674 80.4708 101.569 80.6203C101.001 81.4729 100.328 82.5946 100.073 83.866C99.9688 84.7783 100.103 85.6458 100.223 86.4834C100.268 86.7526 100.373 87.5753 100.387 87.7248C100.492 88.4128 100.627 89.2803 100.238 89.7141C99.864 90.1329 98.7723 90.5068 98.0693 90.5367H97.9944L98.0394 90.5517Z" fill="#FFBCB0"/>
<path d="M93.9872 72.6482C95.079 72.6482 96.6045 73.9644 97.2476 74.8768C97.8459 75.7293 98.3096 76.8212 98.5938 78.1224L98.6237 78.257L98.6984 78.3618C98.6984 78.3618 98.7583 78.4664 98.7733 78.5113C98.8032 78.5861 98.833 78.6459 98.8629 78.7207L99.3566 79.663L100.089 78.8852C100.089 78.8852 100.194 78.7805 100.239 78.7207C100.284 78.6758 100.314 78.616 100.374 78.5711C100.762 78.2421 101.316 78.0028 101.75 78.0028C102.094 78.0028 102.243 78.1523 102.333 78.257C102.587 78.5711 102.333 79.0348 101.69 79.8724C101.555 80.0519 101.421 80.2313 101.316 80.3959C100.777 81.2035 100.045 82.43 99.7605 83.8509C99.6558 84.7782 99.7903 85.6756 99.91 86.5282C99.9549 86.7974 99.9847 87.0666 100.015 87.3209C100.03 87.4555 100.06 87.6051 100.075 87.7696C100.164 88.3529 100.284 89.1456 100.015 89.4597C99.7304 89.7738 98.7733 90.1328 98.0554 90.1627C97.5767 90.1627 97.1728 89.8187 96.6493 89.2204C96.3502 88.8913 95.9315 88.2781 95.5875 87.5901V87.5452L95.5425 87.5004C94.9891 86.6478 94.3461 85.5111 94.3311 84.2697C94.3311 84.0154 94.3609 83.7611 94.3908 83.5518L94.4507 83.2227L94.2413 82.9684C93.5383 82.1159 93.1046 81.1138 92.955 79.992C92.955 79.992 92.9998 79.9621 93.0746 79.9621L93.8674 80.007V79.2143C93.8674 79.0498 93.8824 78.9301 93.9422 78.8404C93.9722 78.7955 94.0169 78.7357 94.1964 78.6609L94.6003 78.5263L94.6901 78.1224C94.735 77.913 94.7948 77.7336 94.8696 77.5989C95.1537 77.1054 95.6173 76.8062 96.1259 76.8062H96.2157L98.0554 76.9259L96.8138 75.5648C95.9912 74.6524 94.8845 73.8897 93.3439 73.1418C93.2841 73.1119 93.284 73.082 93.284 73.082C93.284 73.0371 93.2991 72.9773 93.3739 72.9175C93.5683 72.7529 93.7776 72.6781 94.0319 72.6781L93.9872 72.6482ZM93.9872 71.9004C93.5684 71.9004 93.1795 72.02 92.8354 72.3341C92.3568 72.7529 92.3718 73.5008 92.985 73.7999C94.1965 74.3832 95.3632 75.1012 96.2307 76.0584C96.1858 76.0584 96.1408 76.0584 96.0959 76.0584C95.393 76.0584 94.6451 76.4173 94.1964 77.225C94.0767 77.4344 93.9871 77.6887 93.9273 77.9729C93.673 78.0626 93.4336 78.2122 93.2691 78.4964C93.1494 78.7207 93.1046 78.975 93.1046 79.2442C93.0896 79.2442 93.0746 79.2442 93.0597 79.2442C92.596 79.2442 92.1324 79.5732 92.2222 80.1566C92.3867 81.4129 92.8952 82.5197 93.658 83.477C93.6131 83.7612 93.5833 84.0304 93.5833 84.3295C93.5982 85.6607 94.1965 86.8572 94.9145 87.964C95.2585 88.6969 95.722 89.355 96.081 89.7588C96.6194 90.3721 97.2028 90.9703 98.0554 90.9703C98.0853 90.9703 98.1151 90.9703 98.145 90.9703C98.8629 90.9255 100.089 90.5665 100.568 90.0131C101.166 89.3251 100.837 88.0837 100.747 87.291C100.613 86.1842 100.374 85.0923 100.478 83.9706C100.703 82.8488 101.286 81.8018 101.914 80.8595C102.453 80.0519 103.724 78.8703 102.901 77.8383C102.602 77.4494 102.168 77.2998 101.735 77.2998C101.062 77.2998 100.344 77.6438 99.8801 78.0476C99.7604 78.1523 99.6557 78.287 99.5511 78.4066C99.4763 78.272 99.4314 78.1224 99.3416 77.9729C99.0575 76.7015 98.5938 75.49 97.8759 74.473C97.1879 73.4858 95.4677 71.9303 94.0019 71.9303L93.9872 71.9004Z" fill="#FFBCB0"/>
<path d="M99.9524 86.6924C99.9524 86.6924 100.79 90.0128 101.239 91.359C101.687 92.72 96.4673 92.4508 96.4673 92.4508L95.0914 88.9659C95.0914 88.9659 95.0615 87.4702 94.882 86.2736C94.7025 85.0771 98.0377 83.1626 98.292 84.0301C98.5463 84.8976 99.9524 86.6775 99.9524 86.6775V86.6924Z" fill="#FFBCB0"/>
<path d="M132.037 121.721L131.618 117.593C131.618 117.593 127.265 111.491 130.451 106.331C133.622 101.171 142.237 108.559 142.237 108.559L138.797 117.698L132.037 121.721Z" fill="#BE4120"/>
<path d="M176.941 152.159C174.667 152.503 172.304 152.772 169.836 152.936C166.77 153.116 163.554 153.116 160.114 152.787C159.74 152.757 159.501 153.041 159.396 153.31C152.711 153.879 146.025 154.612 139.384 155.075C128.959 155.808 118.759 156.496 109.246 152.174C101.603 148.704 100.915 146.714 91.9111 148.958C90.7744 149.242 86.6762 157.424 87.798 157.139C92.4196 155.988 91.5221 153.236 96.1139 153.669C95.6053 157.199 98.6118 159.787 101.065 162.03C105.282 165.919 110.084 169.224 114.705 172.62C119.686 176.284 124.726 179.874 129.812 183.419C133.476 185.961 136.931 189.356 141.643 189.117C152.097 188.594 162.044 182.865 170.689 177.451C174.936 174.788 179.02 171.902 183.013 168.88C181.891 162.808 177.733 153.804 176.941 152.144V152.159Z" fill="black"/>
<path d="M176.983 152.264C176.983 152.368 177.432 153.221 177.417 153.31C176.833 159.338 168.428 160.55 163.836 160.639C161.907 160.699 159.947 160.669 158.018 160.624C150.45 162.03 142.343 162.823 134.82 160.924C133.937 160.714 133.803 159.547 134.655 159.189C139.157 157.304 144.781 157.962 149.926 158.411C151.93 158.127 153.92 157.768 155.909 157.199C159.917 156.078 163.731 154.417 167.8 153.49C168.518 153.325 169.191 153.131 169.819 152.907C172.9 152.712 177.267 152.039 176.968 152.234L176.983 152.264Z" fill="black"/>
<path d="M119.461 155.285C146.623 167.13 176.686 152.219 176.806 152.174C176.297 151.201 170.225 140.956 168.564 137.202C167.757 135.377 167.278 133.178 167.069 130.935C166.68 127.36 166.859 123.696 167.113 121.288C167.218 120.121 167.353 119.224 167.398 118.82C167.413 118.76 167.428 118.715 167.428 118.67C169.611 107.797 174.367 94.9039 161.744 90.9254C160.188 90.4169 158.349 90.0729 156.21 89.8785H156.195C153.907 89.6541 151.244 89.6391 148.193 89.8186C148.193 89.8186 144.364 91.1498 139.952 93.3784C138.456 94.1411 136.856 95.0086 135.345 95.9659C130.798 98.8226 129.796 104.551 129.961 108.455C130.065 111.162 133.296 116.92 134.193 118.102C132.249 130.95 121.555 151.575 119.461 155.3V155.285Z" fill="#FF5225"/>
<path d="M145.755 93.4983C145.591 93.4983 145.426 93.4983 145.276 93.4534C145.112 93.4235 145.052 93.3487 145.022 93.2739C144.828 92.8551 145.202 91.8081 145.531 91.2099L145.576 91.1201V86.1844L152.186 83.4473V89.5796C151.573 90.2078 148.268 93.4983 145.77 93.4983H145.755Z" fill="#FFBCB0"/>
<path d="M151.797 84.0158V89.4302C150.63 90.6267 147.773 93.1245 145.754 93.1245C145.634 93.1245 145.53 93.1245 145.425 93.1245C145.395 93.1245 145.365 93.1245 145.35 93.1245C145.246 92.9002 145.5 92.0476 145.844 91.3895L145.934 91.225V86.4388L151.797 84.0158ZM152.544 82.894L145.186 85.9452V91.0455C145.186 91.0455 143.81 93.5583 145.186 93.8275C145.365 93.8574 145.56 93.8873 145.739 93.8873C148.701 93.8873 152.529 89.7442 152.529 89.7442V82.909L152.544 82.894Z" fill="black"/>
<path d="M152.546 85.6457V82.8188C152.546 82.8188 148.912 86.3636 145.188 87.0068C145.188 87.0068 150.243 90.1327 152.546 85.6457Z" fill="black"/>
<path d="M146.264 86.633C144.259 86.633 142.33 85.6757 141.089 84.0753C140.251 82.9835 139.892 81.757 140.131 80.7848C141.238 76.4623 144.095 70.8535 144.783 69.5522L155.941 73.2167C155.971 74.5777 155.836 81.2036 150.676 85.0475C149.27 86.0945 147.789 86.633 146.264 86.633Z" fill="#FFBCB0"/>
<path d="M144.962 70.0159L155.566 73.5008C155.566 75.2508 155.207 81.2185 150.451 84.7484C149.105 85.7505 147.699 86.259 146.263 86.259C144.378 86.259 142.554 85.3616 141.387 83.851C140.609 82.8638 140.28 81.757 140.505 80.8895C141.522 76.8661 144.109 71.691 144.977 70.0159H144.962ZM144.588 69.1035C144.588 69.1035 141.028 75.6995 139.757 80.6951C139.099 83.3125 142.18 86.9919 146.248 86.9919C147.714 86.9919 149.299 86.5133 150.87 85.3466C156.852 80.9045 156.269 72.9474 156.269 72.9474L144.573 69.1035H144.588Z" fill="black"/>
<path d="M165.633 69.4328C165.035 66.7406 163.21 65.0205 160.428 64.841C159.321 64.7663 158.11 65.0056 157.392 65.9179C156.973 66.4564 156.824 67.0696 156.764 67.7128C153.473 65.1551 138.86 60.5185 140.476 73.0823C143.976 69.029 150.183 70.9135 151.678 74.5929C151.678 75.2211 151.589 75.8941 151.439 76.6868C151.02 78.8556 150.616 80.7402 151.409 82.9089C152.426 85.7507 155.044 86.2293 156.614 84.3597C157.691 83.0884 158.902 80.3662 159.62 77.689C160.907 78.7659 162.926 79.1398 164.347 78.2125C166.815 76.5971 166.216 71.8109 165.678 69.4328H165.633Z" fill="black"/>
<path d="M150.812 77.1803C150.812 77.1803 153.1 76.4325 153.324 78.2124C153.549 80.0072 151.843 80.8448 151.051 80.426C150.258 80.0072 150.228 77.8384 150.812 77.1803Z" fill="#FFBCB0"/>
<path d="M140.236 119.837C144.229 122.874 149.898 122.903 154.52 124.683C158.588 126.254 162.791 130.008 167.069 130.95C166.68 127.376 166.859 123.711 167.113 121.303C167.068 121.243 167.248 119.628 167.398 118.835C167.398 118.775 169.97 112.045 167.981 110.205C162.746 105.254 158.379 100.468 158.379 100.468C157.182 106.541 158.782 111.88 160.802 115.605C161.729 117.25 162.791 118.716 161.849 121.632C161.849 121.707 161.789 121.752 161.789 121.842C161.908 123.831 151.917 119.718 150.452 119.344C147.176 118.461 143.975 118.013 140.565 118.207C139.727 118.267 139.638 119.419 140.221 119.852L140.236 119.837Z" fill="#BE4120"/>
<path d="M165.003 177.451C164.479 177.361 163.956 177.257 163.432 177.167C163.582 177.002 163.716 176.808 163.821 176.584C164 176.24 165.347 162.285 165.033 162.06C163.656 161.013 160.276 162.674 158.601 162.778C156.986 162.868 155.43 163.317 153.785 163.167C151.377 162.943 148.984 163.81 146.695 163.048C139.98 160.819 133.13 163.706 126.608 160.924C122.899 159.338 119.324 162.375 116.109 159.952C113.716 158.157 111.562 156.033 109.004 154.462C107.793 153.715 102.468 150.454 102.318 154.163C102.184 157.409 108.69 160.131 110.949 161.343C117.948 165.142 123.767 170.601 129.809 175.731C133.952 179.246 137.751 184.197 143.584 183.853C150.913 183.404 152.813 186.261 159.738 183.868C160.59 183.568 165.9 177.601 165.018 177.451H165.003Z" fill="black"/>
<path d="M163.836 197.792C163.731 197.792 163.641 197.792 163.537 197.762C163.312 197.732 162.609 197.194 162.34 196.985C162.161 196.85 162.011 196.745 161.951 196.715C161.248 196.356 160.441 196.237 159.663 196.117C159.394 196.072 159.139 196.042 158.885 195.983C157.315 195.683 156.013 195.28 154.787 194.741C153.545 194.188 152.379 193.335 151.242 192.528C149.507 191.271 147.712 189.955 145.559 189.626L145.484 189.431L145.17 189.312C145.065 189.297 145.05 189.237 145.05 189.177C144.885 187.622 145.813 184.87 147.473 184.226C147.608 184.167 147.772 184.152 147.967 184.152C148.356 184.152 148.804 184.256 149.223 184.376C149.492 184.451 149.747 184.511 149.971 184.541C150.644 184.645 151.302 184.69 151.99 184.69C153.575 184.69 155.086 184.421 156.671 184.122C157.03 184.062 157.389 184.017 157.763 184.017C158.96 184.017 160.037 184.361 161.174 184.72C162.355 185.094 163.567 185.483 164.958 185.483H165.661C167.037 185.483 167.65 185.707 167.889 187.173C168.158 188.848 167.515 194.517 165.511 196.865C164.988 197.478 164.419 197.792 163.821 197.792H163.836Z" fill="white"/>
<path d="M157.778 184.391C158.915 184.391 159.962 184.72 161.084 185.079C162.28 185.468 163.537 185.857 164.988 185.857H165.197C165.362 185.857 165.541 185.857 165.69 185.857C166.977 185.857 167.351 186.036 167.545 187.248C167.814 188.923 167.111 194.457 165.257 196.641C164.808 197.179 164.344 197.433 163.851 197.433C163.776 197.433 163.686 197.433 163.626 197.433C163.417 197.373 162.774 196.88 162.565 196.715C162.355 196.551 162.191 196.446 162.131 196.416C161.368 196.027 160.5 195.893 159.723 195.773C159.468 195.728 159.214 195.698 158.96 195.653C157.419 195.354 156.133 194.965 154.937 194.427C153.74 193.888 152.633 193.096 151.467 192.243C149.732 190.987 147.952 189.686 145.753 189.297L145.663 189.042L145.409 188.998C145.334 187.562 146.232 185.124 147.593 184.6C147.683 184.57 147.802 184.54 147.952 184.54C148.296 184.54 148.715 184.645 149.118 184.75C149.403 184.825 149.672 184.884 149.911 184.929C150.599 185.034 151.287 185.079 151.99 185.079C153.605 185.079 155.131 184.795 156.731 184.511C157.075 184.451 157.419 184.421 157.763 184.421L157.778 184.391ZM157.778 183.643C157.404 183.643 157.016 183.673 156.612 183.748C154.996 184.047 153.546 184.301 152.005 184.301C151.377 184.301 150.719 184.256 150.046 184.152C149.447 184.062 148.67 183.763 147.967 183.763C147.742 183.763 147.533 183.793 147.338 183.867C145.544 184.57 144.497 187.487 144.691 189.207C144.721 189.476 144.9 189.626 145.11 189.671C145.17 189.835 145.289 189.955 145.499 190C148.969 190.538 151.467 193.694 154.637 195.1C155.983 195.698 157.375 196.087 158.825 196.371C159.798 196.566 160.889 196.611 161.787 197.074C161.951 197.149 163.028 198.091 163.477 198.151C163.597 198.166 163.716 198.181 163.836 198.181C167.381 198.181 168.637 189.446 168.263 187.128C167.979 185.348 167.066 185.109 165.661 185.109C165.496 185.109 165.332 185.109 165.152 185.109C165.092 185.109 165.032 185.109 164.973 185.109C162.325 185.109 160.321 183.643 157.778 183.643Z" fill="black"/>
<path d="M149.778 183.762C145.755 179.141 126.251 164.498 121.645 160.534C117.232 156.75 112.431 153.325 107.032 151.082C102.874 149.377 97.2051 147.657 92.6882 148.763C88.6648 149.736 87.5879 151.874 86.3764 155.479C85.9876 156.661 85.7183 157.887 85.5837 159.114C85.2098 162.494 85.8081 165.949 87.4832 168.925C90.0708 173.532 94.9317 176.314 99.2543 179.036C104.31 182.222 143.437 191.749 145.591 190.328C146.174 189.94 146.817 189.162 147.445 188.234C148.851 186.35 149.449 185.871 149.793 183.762H149.778Z" fill="black"/>
<path d="M162.668 184.69C162.668 184.69 160.215 184.122 160.2 184.122C158.316 185.049 157.867 187.382 158.51 189.73C158.854 190.987 159.812 192.004 160.35 193.185C161.083 194.756 161.681 196.192 162.743 197.583C163.252 198.256 164.164 197.403 163.715 196.745C161.442 193.395 161.965 189.401 162.773 185.662C162.923 184.959 163.027 184.211 162.698 184.675L162.668 184.69Z" fill="black"/>
<path d="M145.067 186.276C140.819 183.748 135.928 182.611 131.127 181.714C125.489 180.667 119.94 179.709 114.48 177.9C108.109 175.776 101.737 173.293 96.3228 169.225C92.3742 166.263 88.934 162.734 85.5837 159.129C85.2098 162.509 85.8081 165.964 87.4832 168.941C90.0708 173.547 94.9317 176.329 99.2542 179.051C104.31 182.237 143.437 191.765 145.591 190.344C146.174 189.955 146.817 189.177 147.445 188.25C146.802 187.472 145.875 186.769 145.082 186.29L145.067 186.276Z" fill="black"/>
<path d="M171.854 238.146C169.775 238.146 168.1 237.936 167.412 237.727C166.799 237.547 166.425 237.338 166.32 237.084C166.171 236.77 166.35 236.276 166.604 235.663C167.068 234.556 167.023 233.554 166.993 232.582C166.948 231.46 166.918 230.413 167.651 229.276C168.698 227.646 169.596 226.24 169.925 224.385C169.954 224.206 169.969 223.996 169.984 223.787C170.014 223.323 170.029 222.86 170.313 222.561C171.106 221.738 172.991 221.349 174.397 221.349C174.92 221.349 175.399 221.394 175.773 221.484L175.743 221.753L176.027 221.843C175.728 223.458 176.476 224.984 177.209 226.449C177.702 227.422 178.151 228.349 178.33 229.306C178.51 230.263 178.525 231.266 178.375 232.432C178.345 232.627 178.315 232.806 178.286 233.015C178.181 233.614 178.061 234.242 178.226 234.84C178.241 234.915 178.285 234.99 178.39 235.169C178.495 235.349 178.794 235.917 178.794 236.082C178.6 237.323 175.952 238.101 171.884 238.101L171.854 238.146Z" fill="white"/>
<path d="M174.384 221.753C174.758 221.753 175.087 221.783 175.386 221.828V221.992L175.581 222.097C175.416 223.757 176.149 225.238 176.867 226.659C177.346 227.616 177.794 228.513 177.959 229.411C178.123 230.338 178.138 231.295 178.004 232.432C177.989 232.611 177.944 232.806 177.914 232.985C177.809 233.599 177.69 234.287 177.869 234.975C177.899 235.094 177.959 235.199 178.064 235.393C178.138 235.543 178.348 235.932 178.408 236.111C178.168 236.919 176.074 237.771 171.886 237.771C169.852 237.771 168.207 237.562 167.549 237.368C166.831 237.158 166.696 236.964 166.682 236.919C166.592 236.725 166.846 236.126 166.981 235.797C167.474 234.616 167.429 233.524 167.399 232.552C167.355 231.445 167.325 230.502 167.998 229.455C169.015 227.87 169.972 226.359 170.316 224.445C170.346 224.251 170.361 224.026 170.376 223.802C170.391 223.413 170.421 223.009 170.6 222.815C171.198 222.186 172.814 221.723 174.414 221.723L174.384 221.753ZM174.384 221.005C172.814 221.005 170.884 221.424 170.032 222.321C169.508 222.874 169.658 223.742 169.553 224.34C169.239 226.105 168.372 227.481 167.34 229.082C165.904 231.34 167.22 233.255 166.263 235.528C165.754 236.769 165.515 237.577 167.31 238.101C168.117 238.34 169.912 238.534 171.857 238.534C175.132 238.534 178.841 237.996 179.141 236.186C179.2 235.857 178.602 234.93 178.572 234.795C178.378 234.077 178.647 233.269 178.737 232.522C178.871 231.415 178.886 230.353 178.692 229.276C178.243 226.763 175.925 224.49 176.374 221.872C176.403 221.708 176.314 221.603 176.179 221.543C176.194 221.379 176.104 221.229 175.865 221.169C175.461 221.065 174.953 221.02 174.399 221.02L174.384 221.005Z" fill="black"/>
<path d="M167.457 233.778C167.457 233.778 167.457 233.764 167.457 233.749C168.1 232.477 169.162 231.161 171.181 231.296C172.258 231.37 173.185 231.849 174.202 232.058C175.578 232.343 176.82 232.552 178.061 233.061C178.66 233.3 178.016 233.958 177.433 233.749C174.457 232.702 171.136 233.464 168.07 234.377C167.487 234.541 167.083 234.018 167.457 233.764V233.778Z" fill="black"/>
<path d="M184.371 179.051C183.938 174.205 183.653 168.865 181.216 164.707C179.645 162.015 177.312 160.041 174.694 158.934C173.737 158.53 172.75 158.246 171.733 158.081C169.355 157.707 166.902 157.543 164.928 158.889C164.344 159.278 163.791 159.816 163.282 160.504C160.844 163.9 160.037 169.493 159.797 173.771C159.483 179.35 160.246 184.899 161.443 190.283C162.684 195.907 167.261 218.731 169.205 224.131C169.25 224.28 169.669 224.37 170.297 224.4C171.135 224.445 172.361 224.4 173.677 224.191C174.575 224.041 175.397 223.817 175.876 223.502C177.701 222.261 184.865 184.734 184.371 179.066V179.051Z" fill="black"/>
<path d="M170.28 224.4C169.652 224.37 169.248 224.265 169.189 224.131C167.244 218.731 162.668 195.907 161.426 190.284C160.245 184.899 159.467 179.35 159.781 173.771C160.035 169.494 160.828 163.915 163.266 160.505C163.759 159.816 164.313 159.278 164.911 158.889C164.866 159.188 163.281 172.141 164.268 178.961C165.255 185.856 171.043 220.392 170.28 224.4Z" fill="black"/>
<path d="M161.264 76.0139C159.469 73.3217 158.317 70.3902 157.838 67.2044C157.659 66.0527 155.909 66.4715 156.073 67.6082C156.582 70.9436 157.793 74.0546 159.663 76.8665C160.306 77.8237 161.907 76.9861 161.264 76.0289V76.0139Z" fill="black"/>
<path d="M159.408 103.519C158.914 103.429 158.451 103.265 158.361 103.145C158.226 102.936 158.047 102.831 157.852 102.831C157.733 102.831 157.628 102.876 157.538 102.951L156.387 102.038L156.85 96.2948L157.329 92.8248C158.361 92.7501 161.756 92.5107 163.461 92.5107C164.119 92.5107 164.269 92.5407 164.299 92.5556L165.241 93.124C164.927 94.7692 164.583 96.5192 164.493 96.7286C164.403 96.8931 162.953 99.1067 162.01 100.558L159.423 103.519H159.408Z" fill="white"/>
<path d="M163.448 92.8846C163.867 92.8846 164.061 92.8846 164.136 92.9145L164.809 93.3183C164.54 94.7691 164.24 96.2498 164.136 96.5789C163.911 96.9379 162.565 99.0169 161.713 100.333L159.275 103.13C158.991 103.07 158.737 102.98 158.677 102.95C158.407 102.562 158.093 102.472 157.869 102.472C157.779 102.472 157.689 102.487 157.6 102.517L156.792 101.874L157.241 96.3845L157.675 93.1987C158.946 93.1089 161.922 92.8995 163.478 92.8995L163.448 92.8846ZM163.448 92.1367C161.414 92.1367 156.987 92.4807 156.987 92.4807L156.463 96.2648L155.984 102.203L157.615 103.489C157.615 103.489 157.689 103.205 157.839 103.205C157.899 103.205 157.959 103.25 158.033 103.354C158.303 103.758 159.529 103.923 159.529 103.923L162.281 100.767C162.281 100.767 164.644 97.1622 164.779 96.893C164.929 96.6387 165.602 92.9294 165.602 92.9294C165.602 92.9294 164.869 92.4807 164.405 92.2115C164.315 92.1517 163.941 92.1367 163.418 92.1367H163.448Z" fill="black"/>
<path d="M162.775 147.223C162.161 147.223 161.593 147.223 161.04 147.178C157.973 147.013 154.743 146.684 153.95 146.595C153.636 146.011 152.664 143.798 151.781 141.689C152.38 141.494 153.8 141.105 155.386 140.672C158.377 139.849 162.879 138.593 167.426 137.187C173.633 135.302 178.33 133.612 181.396 132.161C183.31 131.249 186.556 129.125 187.244 128.213C187.319 128.108 187.408 127.928 187.349 127.644C187.02 125.879 181.082 120.525 177.058 117.982C176.056 117.339 175.234 116.89 174.531 116.621C174.067 116.412 173.573 113.031 174.531 108.724C175.054 106.346 176.729 100.827 180.992 100.827C182.039 100.827 183.176 101.156 184.402 101.799L184.447 101.859L184.567 101.904C194.199 106.989 202.799 118.984 203.323 128.093C203.547 132.027 202.216 135.108 199.449 137.007C189.173 144.067 171.809 147.238 162.76 147.238L162.775 147.223Z" fill="#FFBCB0"/>
<path d="M176.597 120.54C174.742 119.808 162.582 114.558 158.005 106.9C155.926 103.415 151.813 95.2335 156.001 92.287C162.717 87.5756 176.971 94.351 187.081 99.7205C186.797 108.066 184.015 114.932 176.597 120.525V120.54Z" fill="#FF5225"/>
<path d="M140.22 150.947C140.085 150.947 139.95 150.888 139.831 150.798C139.517 150.529 139.352 150.185 139.337 149.736C139.292 148.48 140.399 146.804 141.162 146.071C141.955 145.309 143.002 144.666 144.273 144.157C144.438 144.037 144.512 143.992 144.572 143.963L144.752 143.843L145.185 143.529L144.737 143.23L144.572 143.125C144.572 143.125 144.423 143.035 144.363 142.99C143.944 142.646 143.48 141.988 143.45 141.36C143.435 141.046 143.525 140.777 143.72 140.552C143.884 140.373 144.079 140.283 144.333 140.283C144.796 140.283 145.365 140.597 145.873 140.867C146.068 140.971 146.262 141.076 146.427 141.151C147.279 141.54 148.551 142.063 149.867 142.123C150.779 142.078 151.617 141.824 152.439 141.569C152.694 141.495 152.963 141.405 153.217 141.33C153.352 141.3 153.486 141.255 153.636 141.196C154.085 141.046 154.593 140.896 155.042 140.896C155.281 140.896 155.476 140.941 155.625 141.046C156.104 141.345 156.642 142.377 156.777 143.065C156.927 143.783 156.493 144.381 155.984 144.98C155.685 145.339 155.117 145.892 154.459 146.341C153.621 147.089 152.544 147.926 151.228 148.15C150.989 148.195 150.749 148.195 150.525 148.195H150.36L150.181 148.315C149.388 149.197 148.431 149.811 147.294 150.14C147.279 150.14 147.264 150.14 147.235 150.14C146.891 150.14 146.756 149.93 146.726 149.721L146.681 149.332L146.292 149.392C146.217 149.392 146.128 149.407 146.053 149.407C145.933 149.407 145.814 149.392 145.724 149.347C145.559 149.287 145.425 149.168 145.32 148.958L145.215 148.779H145.006C144.752 148.749 144.527 148.704 144.348 148.644C143.645 148.375 143.181 147.806 143.121 147.133L143.032 146.221L142.448 146.939C141.715 147.851 141.132 149.018 140.653 150.618C140.564 150.932 140.309 150.962 140.22 150.962V150.947Z" fill="#FFBCB0"/>
<path d="M157.18 140.522L153.695 141.554V146.505C153.695 146.505 154.279 146.176 155.43 146.371C156.597 146.565 159.932 145.563 159.543 144.067C159.155 142.572 157.165 140.537 157.165 140.537L157.18 140.522Z" fill="#FFBCB0"/>
<path d="M151.421 76.6118L151.362 77.8681C151.362 77.8681 150.898 80.4407 150.958 80.9193C151.003 81.3979 149.058 81.6821 148.969 81.1138C148.879 80.5454 148.879 77.9878 148.879 77.9878C148.879 77.9878 149.058 76.8212 149.342 76.8212C149.627 76.8212 150.42 76.5669 150.42 76.5669L151.436 76.6267L151.421 76.6118Z" fill="#FFBCB0"/>
<path d="M144.59 150.738L168.042 152.159L145.682 158.426L144.59 150.738Z" fill="white"/>
<path d="M145.024 151.127L165.799 152.383L145.981 157.932L145.009 151.127H145.024ZM144.156 150.319L145.368 158.889L170.286 151.904L144.156 150.319Z" fill="black"/>
<path d="M145.742 159.174L169.927 152.398L170.032 154.104L145.742 161.537V159.174Z" fill="white"/>
<path d="M169.582 152.892L169.641 153.849L146.114 161.043V159.473L169.582 152.892ZM170.27 151.919L145.352 158.904V162.045L170.404 154.387L170.27 151.919Z" fill="black"/>
<path d="M91.8828 158.096V156.032L144.995 159.248V161.641L91.8828 158.096Z" fill="white"/>
<path d="M92.2557 156.436L144.62 159.607V161.252L92.2557 157.752V156.451V156.436ZM91.5078 155.644V158.44L145.367 162.045V158.904L91.5078 155.644Z" fill="black"/>
<path d="M91.8339 155.285L87.8254 127.136C87.7656 126.642 87.9152 126.134 88.2442 125.76C88.5733 125.386 89.0519 125.162 89.5604 125.162L139.202 128.153C140.04 128.198 140.728 128.841 140.832 129.679L144.916 158.485L91.804 155.27L91.8339 155.285Z" fill="white"/>
<path d="M89.5759 125.535H89.6657L139.203 128.527C139.861 128.572 140.414 129.08 140.489 129.738L144.512 158.096L92.1634 154.926L88.1998 127.091C88.1549 126.687 88.2598 126.298 88.529 125.999C88.7982 125.7 89.1721 125.52 89.5609 125.52L89.5759 125.535ZM89.5759 124.788C88.3046 124.788 87.3024 125.909 87.4669 127.196L91.5054 155.644L145.365 158.904L141.207 129.649C141.072 128.632 140.25 127.854 139.218 127.794L89.6807 124.803C89.6807 124.803 89.5908 124.803 89.546 124.803L89.5759 124.788Z" fill="black"/>
<path d="M112.109 14.2146C111.724 14.1236 111.438 13.7669 111.438 13.3543L111.472 8.41628C111.472 7.93367 111.871 7.54199 112.361 7.54199C112.843 7.54899 113.235 7.94067 113.235 8.43027L113.2 13.3683C113.2 13.8509 112.801 14.2425 112.312 14.2425C112.242 14.2425 112.172 14.2355 112.109 14.2146Z" fill="#FF5225"/>
<path d="M103.752 15.7954C103.535 15.7395 103.339 15.6066 103.213 15.4037L100.562 11.1302C100.303 10.7175 100.436 10.179 100.849 9.92019C101.262 9.6614 101.8 9.79429 102.059 10.207L104.71 14.4805C104.969 14.8931 104.836 15.4317 104.423 15.6905C104.213 15.8234 103.976 15.8514 103.752 15.7954Z" fill="#FF5225"/>
<path d="M98.0999 22.2719C98.0509 22.2579 97.995 22.2439 97.946 22.2229L93.3438 20.1596C92.9031 19.9638 92.7003 19.4392 92.9031 18.9986C93.106 18.5579 93.6235 18.3551 94.0641 18.5579L98.6664 20.6212C99.1071 20.8171 99.3099 21.3417 99.1071 21.7823C98.9322 22.174 98.5055 22.3768 98.0999 22.2789V22.2719Z" fill="#FF5225"/>
<path d="M91.9027 32.7915C91.532 32.7006 91.2453 32.3719 91.2313 31.9662C91.2103 31.4836 91.595 31.0709 92.0776 31.0569L96.2532 30.91C96.7358 30.8961 97.1415 31.2737 97.1625 31.7564C97.1764 32.239 96.7988 32.6446 96.3162 32.6656L92.1405 32.8125C92.0566 32.8125 91.9797 32.8125 91.9027 32.7845V32.7915Z" fill="#FF5225"/>
<path d="M121.055 15.9276C120.964 15.9066 120.873 15.8647 120.789 15.8157C120.384 15.5569 120.265 15.0114 120.524 14.6057L123.237 10.3741C123.496 9.96148 124.042 9.84957 124.454 10.1084C124.86 10.3671 124.979 10.9127 124.72 11.3184L122.006 15.5499C121.797 15.8717 121.412 16.0186 121.062 15.9276H121.055Z" fill="#FF5225"/>
<path d="M126.609 22.4886C126.351 22.4257 126.12 22.2438 126.008 21.978C125.819 21.5304 126.022 21.0128 126.47 20.824L131.1 18.8376C131.548 18.6487 132.065 18.8516 132.254 19.2992C132.443 19.7469 132.24 20.2644 131.792 20.4533L127.162 22.4397C126.98 22.5166 126.784 22.5306 126.609 22.4886Z" fill="#FF5225"/>
<path d="M128.469 32.8892C128.064 32.7913 127.777 32.4206 127.798 31.9939C127.819 31.5113 128.232 31.1336 128.721 31.1616L132.897 31.3714C133.379 31.3994 133.757 31.8051 133.729 32.2947C133.701 32.7773 133.295 33.155 132.806 33.127L128.637 32.9172C128.581 32.9172 128.525 32.9032 128.476 32.8962L128.469 32.8892Z" fill="#FF5225"/>
<path d="M100.18 29.1664C100.224 22.3728 105.763 16.9058 112.556 16.9445C119.35 16.9888 124.817 22.5276 124.778 29.3211C124.773 30.4377 124.612 31.5156 124.331 32.5438C124.331 32.5438 123.745 36.6564 119.897 39.5475C118.139 40.8686 117.891 42.8751 117.675 43.8425C117.46 44.8098 116.199 46.1807 112.374 46.1586C108.549 46.1365 107.305 44.7435 107.101 43.7762C106.896 42.8088 106.675 40.7967 104.934 39.4535C101.125 36.5127 100.589 32.3946 100.589 32.3946C100.318 31.3664 100.174 30.283 100.18 29.1664Z" fill="#FF8160"/>
<path d="M112.238 49.2097C113.736 49.2208 114.698 48.9333 115.295 48.563L115.278 50.7907C115.267 52.4158 113.946 53.7204 112.321 53.7093C110.701 53.6983 109.391 52.3771 109.402 50.752L109.413 48.6514C110.01 48.9665 110.911 49.1987 112.233 49.2042L112.238 49.2097Z" fill="black"/>
<path d="M107.268 44.2295L107.246 47.6733C107.246 47.8281 107.252 47.9773 107.263 48.1265C107.296 48.5245 107.373 48.9115 107.495 49.2818C107.744 50.0502 108.169 50.7412 108.722 51.2995C109.645 52.2337 110.917 52.8141 112.326 52.8196C114.592 52.8307 116.522 51.3769 117.202 49.3426C117.323 48.9778 117.406 48.5909 117.445 48.1929C117.456 48.0436 117.467 47.8944 117.467 47.7396L117.489 44.2958C117.008 45.1858 115.61 46.1753 112.365 46.1531C109.114 46.131 107.733 45.125 107.263 44.2295H107.268Z" fill="white"/>
<path d="M107.197 45.2298L107.263 45.0308C107.733 45.9263 109.115 46.9323 112.365 46.9544C115.61 46.9765 117.003 45.9871 117.49 45.1026L117.55 45.3016C117.589 45.4122 117.589 45.5283 117.556 45.6443L117.484 45.9042C117.003 46.7996 115.605 47.7891 112.36 47.767C109.109 47.7449 107.728 46.7388 107.258 45.8433L107.186 45.5725C107.153 45.4619 107.158 45.3403 107.197 45.2298Z" fill="black"/>
<path d="M107.189 46.7442L107.255 46.5452V46.5176C107.725 47.4131 109.107 48.4191 112.358 48.4412C115.608 48.4633 117.001 47.4739 117.482 46.5839V46.6116L117.543 46.805C117.576 46.9156 117.581 47.0372 117.548 47.1477L117.471 47.4131V47.3965C116.984 48.2865 115.586 49.2649 112.346 49.2483C109.102 49.2262 107.72 48.2256 107.25 47.3302V47.3523L107.178 47.0814C107.145 46.9709 107.15 46.8493 107.189 46.7387V46.7442Z" fill="black"/>
<path d="M107.214 48.3637L107.269 48.1868C107.269 48.1868 107.269 48.1481 107.264 48.126C107.75 49.0104 109.143 49.9888 112.344 50.0109C115.544 50.033 116.949 49.0712 117.452 48.1868C117.452 48.2089 117.446 48.231 117.446 48.2531L117.501 48.43C117.534 48.5406 117.54 48.6622 117.507 48.7727L117.225 49.2923C117.225 49.2923 117.214 49.3255 117.208 49.3421C116.562 50.1104 115.135 50.8401 112.344 50.8235C109.591 50.8069 108.176 50.0828 107.524 49.3144C107.518 49.3034 107.507 49.2923 107.496 49.2813C107.496 49.2813 107.485 49.2481 107.485 49.2371L107.203 48.7064C107.175 48.5958 107.175 48.4742 107.214 48.3637Z" fill="black"/>
</svg>
