<svg width="272" height="244" viewBox="0 0 272 244" fill="none" xmlns="http://www.w3.org/2000/svg">
<path d="M97.6685 38.1836L94.8923 40.4958L93.5 41.4112L96.2762 39.099L97.6685 38.1836Z" fill="#2D2D2D"/>
<path d="M86.6395 29.5472L83.862 31.8603L83.5156 29.3267L86.2931 27.0132L86.6395 29.5472Z" fill="#2D2D2D"/>
<path d="M101.423 47.6074L98.6467 49.921L95.8477 48.2931L98.6239 45.98L101.423 47.6074Z" fill="#2D2D2D"/>
<path d="M93.1478 42.5011L90.3716 44.8138C91.1321 44.1802 90.6257 42.2216 89.1248 40.2079C88.3089 39.1126 87.3558 38.207 86.4717 37.6311C85.5894 37.0544 84.7774 36.8052 84.2442 37.0187C84.1593 37.0535 84.0842 37.0971 84.0195 37.1514L86.7957 34.8392C86.8608 34.7845 86.936 34.7391 87.0204 34.7051C87.5532 34.4926 88.366 34.7408 89.2488 35.3176C90.1315 35.8943 91.0864 36.7991 91.9019 37.8939C93.4019 39.9085 93.9092 41.8671 93.1478 42.5011Z" fill="#2D2D2D"/>
<mask id="mask0_2172_8945" style="mask-type:luminance" maskUnits="userSpaceOnUse" x="84" y="34" width="10" height="11">
<path d="M93.1478 42.5011L90.3716 44.8138C91.1321 44.1802 90.6257 42.2216 89.1248 40.2079C88.3089 39.1126 87.3558 38.207 86.4717 37.6311C85.5894 37.0544 84.7774 36.8052 84.2442 37.0187C84.1593 37.0535 84.0842 37.0971 84.0195 37.1514L86.7957 34.8392C86.8608 34.7845 86.936 34.7391 87.0204 34.7051C87.5532 34.4926 88.366 34.7408 89.2488 35.3176C90.1315 35.8943 91.0864 36.7991 91.9019 37.8939C93.4019 39.9085 93.9092 41.8671 93.1478 42.5011Z" fill="white"/>
</mask>
<g mask="url(#mask0_2172_8945)">
<path d="M93.1473 42.5015L90.3711 44.8141C90.6445 44.5875 90.7531 44.1876 90.7118 43.6774L93.4893 41.3647C93.5298 41.8753 93.4207 42.2739 93.1468 42.5015H93.1473Z" fill="#2D2D2D"/>
<path d="M93.4895 41.3644L90.7119 43.6771C90.7005 43.5214 90.6737 43.3552 90.6328 43.1793L93.4103 40.8657C93.4508 41.0421 93.4767 41.2074 93.4895 41.3644Z" fill="#2D2D2D"/>
<path d="M93.4089 40.8658L90.6314 43.1793C90.598 43.0351 90.5558 42.8843 90.5039 42.7282L93.2805 40.416C93.3329 40.5712 93.3742 40.722 93.4089 40.8658Z" fill="#2D2D2D"/>
<path d="M93.2809 40.4163L90.5043 42.7285C90.4577 42.5869 90.4018 42.4414 90.3398 42.2915L93.1165 39.9775C93.1785 40.127 93.2339 40.2738 93.2805 40.4163H93.2809Z" fill="#2D2D2D"/>
<path d="M93.1199 39.9777L90.3433 42.2916C90.2826 42.1461 90.2162 41.998 90.1406 41.8472L92.9173 39.5332C92.9916 39.6853 93.0597 39.8322 93.1195 39.9781L93.1199 39.9777Z" fill="#2D2D2D"/>
<path d="M92.917 39.5325L90.1403 41.8465C90.0652 41.6908 89.9821 41.5338 89.8906 41.3729L92.6668 39.062C92.7578 39.2212 92.8409 39.3782 92.917 39.5325Z" fill="#2D2D2D"/>
<path d="M92.6665 39.0621L89.8904 41.373C89.7919 41.1997 89.6855 41.0246 89.5703 40.8474L92.3474 38.5352C92.4626 38.7102 92.569 38.8875 92.6665 39.0621Z" fill="#2D2D2D"/>
<path d="M92.3461 38.535L89.569 40.8473C89.4323 40.6361 89.285 40.4222 89.1245 40.2079C89.1144 40.1934 89.1043 40.1801 89.0938 40.1665L91.8699 37.8521C91.8809 37.8666 91.8915 37.8798 91.9016 37.8939C92.0607 38.1087 92.2093 38.3225 92.3461 38.535Z" fill="#2D2D2D"/>
<path d="M91.8697 37.8529L89.0935 40.1673C88.4864 39.3582 87.8037 38.6541 87.1328 38.1135L89.9086 35.8013C90.5803 36.3418 91.2626 37.0447 91.8697 37.8529Z" fill="#2D2D2D"/>
<path d="M89.91 35.8013L87.1343 38.1135C86.9351 37.9539 86.7382 37.8084 86.543 37.6779L89.32 35.3647C89.5152 35.4953 89.7131 35.6403 89.91 35.8013Z" fill="#2D2D2D"/>
<path d="M89.3202 35.3646L86.5431 37.6777C86.5198 37.6618 86.4965 37.6468 86.4732 37.6314C86.3431 37.5463 86.2165 37.4691 86.0898 37.399L88.866 35.0854C88.9922 35.1564 89.1201 35.2323 89.2498 35.3183C89.2727 35.3332 89.296 35.3487 89.3197 35.3646H89.3202Z" fill="#2D2D2D"/>
<path d="M88.8654 35.0854L86.0892 37.3989C85.9551 37.3257 85.8263 37.2583 85.6992 37.2023L88.4741 34.8892C88.6025 34.9452 88.7335 35.0122 88.8658 35.0854H88.8654Z" fill="#2D2D2D"/>
<path d="M88.4747 34.889L85.6998 37.2021C85.5776 37.1483 85.4589 37.1024 85.3438 37.0645L88.1199 34.751C88.2342 34.7885 88.3534 34.8352 88.4743 34.8894L88.4747 34.889Z" fill="#2D2D2D"/>
<path d="M88.1208 34.7508L85.3446 37.0643C85.2281 37.0268 85.1164 36.9969 85.0078 36.9757L87.784 34.6626C87.893 34.6833 88.0047 34.712 88.1208 34.7508Z" fill="#2D2D2D"/>
<path d="M87.7834 34.6625L85.0072 36.9756C84.8916 36.9545 84.7813 36.9439 84.6758 36.9434L87.4524 34.6299C87.5575 34.6299 87.6687 34.64 87.7834 34.6621V34.6625Z" fill="#2D2D2D"/>
<path d="M87.4495 34.6299L84.6728 36.9435C84.5489 36.9426 84.4319 36.958 84.3242 36.9902L87.1013 34.6767C87.2077 34.6453 87.3246 34.629 87.4495 34.6299Z" fill="#2D2D2D"/>
<path d="M87.1026 34.6768L84.3255 36.9903C84.2965 36.9982 84.2714 37.0071 84.2442 37.019C84.1593 37.0538 84.0842 37.0974 84.0195 37.1517L86.7957 34.8395C86.8608 34.7848 86.936 34.7394 87.0204 34.7054C87.0472 34.6957 87.0744 34.6847 87.1026 34.6768Z" fill="#2D2D2D"/>
</g>
<path d="M81.9687 29.4744L79.1934 31.7875L76.957 28.5569L79.7337 26.2446L81.9687 29.4744Z" fill="#2D2D2D"/>
<path d="M98.4721 51.7989L95.6954 54.112L93.125 50.8893L95.9007 48.5762L98.4721 51.7989Z" fill="#2D2D2D"/>
<path d="M100.214 51.0981L97.4379 53.4112L95.6992 54.1119L98.4758 51.7988L100.214 51.0981Z" fill="#2D2D2D"/>
<path d="M81.3231 31.364L78.5469 33.6784C78.5772 32.8839 78.7895 32.2392 79.1931 31.7873L81.9689 29.4746C81.5662 29.9252 81.3538 30.5703 81.3235 31.364H81.3231Z" fill="#2D2D2D"/>
<mask id="mask1_2172_8945" style="mask-type:luminance" maskUnits="userSpaceOnUse" x="78" y="29" width="4" height="5">
<path d="M81.3231 31.364L78.5469 33.6784C78.5772 32.8839 78.7895 32.2392 79.1931 31.7873L81.9689 29.4746C81.5662 29.9252 81.3538 30.5703 81.3235 31.364H81.3231Z" fill="white"/>
</mask>
<g mask="url(#mask1_2172_8945)">
<path d="M81.3231 31.364L78.5469 33.6784C78.5772 32.8839 78.7895 32.2392 79.1931 31.7873L81.9689 29.4746C81.5662 29.9252 81.3538 30.5703 81.3235 31.364H81.3231Z" fill="#2D2D2D"/>
</g>
<path d="M95.9025 48.5759L93.1268 50.889C92.3583 50.8401 91.4764 50.568 90.5312 50.1081L93.3066 47.7959C94.2526 48.254 95.1336 48.5274 95.9025 48.5755V48.5759Z" fill="#2D2D2D"/>
<mask id="mask2_2172_8945" style="mask-type:luminance" maskUnits="userSpaceOnUse" x="90" y="47" width="6" height="4">
<path d="M95.9025 48.5759L93.1268 50.889C92.3583 50.8401 91.4764 50.568 90.5312 50.1081L93.3066 47.7959C94.2526 48.254 95.1336 48.5274 95.9025 48.5755V48.5759Z" fill="white"/>
</mask>
<g mask="url(#mask2_2172_8945)">
<path d="M95.9041 48.5757L93.1283 50.8888C92.9441 50.8778 92.7542 50.8531 92.5586 50.817L95.3357 48.5034C95.5308 48.5396 95.7203 48.5647 95.9041 48.5762V48.5757Z" fill="#2D2D2D"/>
<path d="M95.3366 48.503L92.5595 50.8165C92.2966 50.7662 92.0218 50.6957 91.7383 50.6027L94.5145 48.2896C94.7985 48.3826 95.0724 48.4549 95.3366 48.503Z" fill="#2D2D2D"/>
<path d="M94.5122 48.2895L91.736 50.6026C91.4524 50.5096 91.1596 50.3945 90.8594 50.2613L93.6365 47.9482C93.9363 48.0818 94.2282 48.1969 94.5126 48.2895H94.5122Z" fill="#2D2D2D"/>
<path d="M93.6363 47.9485L90.8592 50.2616C90.7502 50.2126 90.6407 50.1615 90.5312 50.1081L93.3066 47.7959C93.4178 47.8479 93.5273 47.8995 93.6358 47.9485H93.6363Z" fill="#2D2D2D"/>
</g>
<path d="M81.9855 34.7853L79.2098 37.0984L76.3984 35.0724L79.1742 32.7593L81.9855 34.7853Z" fill="#2D2D2D"/>
<path d="M79.176 32.7594L76.4002 35.0725L75.7461 32.0455L78.5223 29.7324L79.176 32.7594Z" fill="#2D2D2D"/>
<path d="M83.67 38.2434L80.8934 40.5574C80.1689 39.3471 79.6035 38.1799 79.2109 37.0992L81.9867 34.7861C82.381 35.8668 82.9451 37.034 83.67 38.2434Z" fill="#2D2D2D"/>
<mask id="mask3_2172_8945" style="mask-type:luminance" maskUnits="userSpaceOnUse" x="79" y="34" width="5" height="7">
<path d="M83.67 38.2434L80.8934 40.5574C80.1689 39.3471 79.6035 38.1799 79.2109 37.0992L81.9867 34.7861C82.381 35.8668 82.9451 37.034 83.67 38.2434Z" fill="white"/>
</mask>
<g mask="url(#mask3_2172_8945)">
<path d="M83.669 38.2436L80.8924 40.5576C80.7865 40.379 80.6827 40.2009 80.582 40.0245L83.3587 37.7114C83.4585 37.8887 83.5618 38.0655 83.669 38.2436Z" fill="#2D2D2D"/>
<path d="M83.3595 37.7109L80.5829 40.024C80.3609 39.6324 80.1565 39.2435 79.9688 38.8639L82.7458 36.5508C82.9318 36.9313 83.1375 37.3189 83.3595 37.7104V37.7109Z" fill="#2D2D2D"/>
<path d="M82.7469 36.5514L79.9698 38.8645C79.7878 38.4959 79.6238 38.1334 79.4766 37.7785L82.2528 35.4658C82.3996 35.8203 82.5653 36.1832 82.7469 36.5518V36.5514Z" fill="#2D2D2D"/>
<path d="M82.2518 35.4651L79.4756 37.7778C79.3798 37.5472 79.2914 37.3219 79.2109 37.0987L81.9867 34.7856C82.0671 35.0088 82.1564 35.235 82.2513 35.4651H82.2518Z" fill="#2D2D2D"/>
</g>
<path d="M89.7118 45.3756L86.9356 47.6882C85.9126 46.8258 84.8879 45.8147 83.9102 44.6882L86.6863 42.3755C87.6636 43.5012 88.6892 44.5127 89.7122 45.376L89.7118 45.3756Z" fill="#2D2D2D"/>
<mask id="mask4_2172_8945" style="mask-type:luminance" maskUnits="userSpaceOnUse" x="83" y="42" width="7" height="6">
<path d="M89.7118 45.3756L86.9356 47.6882C85.9126 46.8258 84.8879 45.8147 83.9102 44.6882L86.6863 42.3755C87.6636 43.5012 88.6892 44.5127 89.7122 45.376L89.7118 45.3756Z" fill="white"/>
</mask>
<g mask="url(#mask4_2172_8945)">
<path d="M89.7118 45.3756L86.9356 47.6882C85.9126 46.8258 84.8879 45.8147 83.9102 44.6882L86.6863 42.3755C87.6636 43.5012 88.6892 44.5127 89.7122 45.376L89.7118 45.3756Z" fill="#2D2D2D"/>
</g>
<path d="M93.6534 50.3289L90.8772 52.642L87.7656 50.612L90.5427 48.2993L93.6534 50.3289Z" fill="#2D2D2D"/>
<path d="M90.5424 48.2997L87.7653 50.6124L86.9336 47.6881L89.7102 45.3755L90.5424 48.2997Z" fill="#2D2D2D"/>
<path d="M84.9398 42.7343L82.1636 45.0487L79.5039 41.4737L82.281 39.1597L84.9398 42.7343Z" fill="#2D2D2D"/>
<path d="M86.6842 42.3755L83.908 44.6882L82.1641 45.0488L84.9402 42.7344L86.6842 42.3755Z" fill="#2D2D2D"/>
<path d="M101.424 47.6072L98.625 45.9797C98.5955 46.772 98.3797 47.4162 97.9774 47.8669L100.213 51.098L98.4746 51.7986L95.9033 48.5759C95.1344 48.5278 94.2534 48.254 93.3074 47.7963L93.6542 50.329L90.5435 48.2994L89.7113 45.3752C88.6883 44.5118 87.6627 43.5008 86.6854 42.3747L84.9414 42.7336L82.2826 39.159L83.6718 38.2427C82.9469 37.0333 82.3828 35.8657 81.9885 34.7854L79.1771 32.7594L78.5234 29.7324L81.326 31.3638C81.3563 30.5702 81.5687 29.9251 81.9714 29.4745L79.7363 26.2442L81.4772 25.5449L84.045 28.7659C84.8148 28.8144 85.698 29.0895 86.6414 29.5472L86.295 27.0128L89.4053 29.0432L90.2415 31.9675C91.2601 32.8304 92.2852 33.8414 93.2652 34.9689L95.0074 34.6077L97.6688 38.1832L96.2765 39.0986C97.0019 40.3063 97.5664 41.4761 97.9607 42.5559L100.774 44.5842L101.424 47.6072ZM92.9249 42.6335C93.9901 42.2036 93.5329 40.0827 91.9041 37.8935C91.0886 36.7987 90.1338 35.8939 89.251 35.3172C88.3683 34.7405 87.5554 34.4922 87.0226 34.7047C85.9561 35.1346 86.4159 37.2595 88.0434 39.4474C88.8589 40.5422 89.8128 41.4478 90.6956 42.0228C91.5792 42.6004 92.3912 42.8487 92.9245 42.6335H92.9249Z" fill="#818181"/>
<path d="M230.63 75.7571C230.138 74.7017 229.616 73.6518 229.078 72.6367L229.851 72.2245C230.396 73.2533 230.925 74.3169 231.423 75.3859L230.63 75.7571ZM227.364 69.6038C226.765 68.6092 226.133 67.6222 225.487 66.67L226.21 66.1751C226.866 67.1403 227.506 68.141 228.113 69.1499L227.364 69.6038ZM223.448 63.8469C222.744 62.9275 222.006 62.0191 221.252 61.1455L221.915 60.5713C222.679 61.4572 223.429 62.3793 224.143 63.3117L223.448 63.8469ZM218.904 58.5774C218.099 57.7476 217.26 56.9314 216.409 56.1515L217 55.5035C217.863 56.295 218.715 57.1235 219.532 57.9656L218.904 58.5781V58.5774ZM171.47 55.1768C171.281 55.1768 171.087 55.161 170.894 55.1289L171.035 54.2622C171.182 54.2861 171.328 54.2984 171.47 54.2984C172.356 54.2984 173.056 53.8411 173.44 53.0099L174.234 53.3797C173.705 54.5212 172.698 55.1761 171.47 55.1761V55.1768ZM213.776 53.8766C212.881 53.148 211.951 52.4364 211.014 51.7617L211.524 51.0481C212.476 51.7323 213.419 52.4549 214.328 53.1945L213.777 53.8766H213.776ZM167.754 53.0878C167.044 52.1623 166.546 51.0303 166.274 49.7227L167.131 49.5436C167.375 50.7207 167.818 51.7323 168.447 52.5519L167.754 53.0878ZM137.592 51.4104C137.568 51.4104 137.546 51.4104 137.522 51.409L137.551 50.5313C137.564 50.5313 137.578 50.532 137.592 50.532C138.304 50.532 138.695 49.7801 138.756 48.2982L139.631 48.3344C139.527 50.8772 138.465 51.4104 137.592 51.4104H137.592ZM173.63 49.8232C173.451 48.8293 173.113 47.806 172.567 46.6023L173.364 46.2387C173.941 47.5101 174.3 48.5996 174.491 49.6673L173.63 49.8232ZM208.132 49.8143C207.157 49.1964 206.15 48.5996 205.14 48.0405L205.563 47.2715C206.588 47.8388 207.61 48.4445 208.599 49.072L208.132 49.8143ZM134.213 49.5956C133.437 48.7445 132.884 47.6317 132.568 46.2886L133.42 46.0876C133.701 47.2831 134.185 48.264 134.859 49.0036L134.213 49.5963V49.5956ZM202.049 46.4458C201.006 45.9468 199.936 45.4724 198.869 45.0377L199.198 44.2242C200.282 44.6658 201.368 45.147 202.426 45.6535L202.049 46.4458ZM167.003 46.2352L166.147 46.052C166.394 44.8921 167.111 43.8599 168.277 42.9836L168.802 43.6863C167.81 44.4313 167.204 45.2892 167.003 46.2352ZM138.472 44.8914C138.298 43.8626 138.105 43.0765 138.079 42.9747C137.93 42.5003 137.769 42.03 137.603 41.5768L138.424 41.2733C138.597 41.7436 138.763 42.2317 138.917 42.7225L138.924 42.7457C138.933 42.7806 139.143 43.6084 139.335 44.7444L138.471 44.8914H138.472ZM195.611 43.8216C194.512 43.4491 193.393 43.108 192.286 42.8072L192.514 41.9596C193.639 42.2645 194.775 42.611 195.891 42.9897L195.611 43.8216ZM170.964 43.5263C170.606 42.8954 170.191 42.1873 169.659 41.2966C169.505 41.0389 169.346 40.7798 169.185 40.5262L169.924 40.0546C170.089 40.315 170.253 40.5809 170.41 40.8448C170.945 41.7402 171.363 42.4538 171.725 43.0902L170.964 43.525V43.5263ZM133.191 42.7293L132.318 42.6644C132.405 41.4928 132.637 40.302 133.008 39.1243L133.843 39.3895C133.492 40.5023 133.273 41.6261 133.191 42.73V42.7293ZM171.798 42.1872L171.518 41.3554C172.558 41.004 173.729 40.7265 174.995 40.5296L175.128 41.3971C173.911 41.5864 172.79 41.8523 171.797 42.1872H171.798ZM188.905 42.0061C187.758 41.7737 186.607 41.5803 185.48 41.4326L185.594 40.5618C186.74 40.7128 187.912 40.909 189.079 41.1455L188.905 42.0061ZM182.026 41.11C181.311 41.0717 180.598 41.0526 179.907 41.0526C179.455 41.0526 179.003 41.0608 178.564 41.0772L178.531 40.1995C178.981 40.1824 179.445 40.1742 179.908 40.1742C180.614 40.1742 181.342 40.194 182.073 40.233L182.026 41.11ZM136.22 38.4154C135.792 37.5842 135.321 36.7872 134.817 36.038L134.453 35.8289C134.487 35.7708 134.52 35.7133 134.554 35.6552C134.512 35.5965 134.471 35.5377 134.429 35.4796L134.846 35.1788C135.357 34.3729 135.935 33.6155 136.569 32.919L137.215 33.5116C136.621 34.1644 136.079 34.8746 135.598 35.6293C136.1 36.3825 136.569 37.1816 136.999 38.0128L136.221 38.4168L136.22 38.4154ZM167.178 37.71C166.447 36.7968 165.669 35.9341 164.865 35.1467L165.476 34.5185C166.305 35.3306 167.108 36.2199 167.861 37.1604L167.178 37.71ZM91.8458 36.6478L91.0859 36.2123C91.5957 35.3183 92.3979 34.3927 93.4706 33.4624L94.0431 34.1268C93.0453 34.9922 92.3065 35.8405 91.8458 36.6484V36.6478ZM162.248 32.906C161.317 32.2149 160.339 31.5963 159.344 31.0672L159.754 30.2914C160.788 30.841 161.803 31.4835 162.768 32.2006L162.248 32.9067V32.906ZM132.211 32.8636C131.401 32.0563 130.518 31.3161 129.586 30.6646L130.087 29.9442C131.06 30.6243 131.983 31.3967 132.828 32.2402L132.212 32.8629L132.211 32.8636ZM96.8216 32.1083L96.3609 31.3612C97.3225 30.7644 98.3728 30.1937 99.4823 29.6646L99.8585 30.4575C98.7783 30.9729 97.7567 31.5286 96.8216 32.1083ZM139.774 31.2744L139.278 30.5505C140.26 29.8738 141.328 29.3057 142.452 28.8635L142.772 29.681C141.71 30.0987 140.701 30.6352 139.774 31.2744ZM156.198 29.7022C155.123 29.3351 154.005 29.0515 152.875 28.858L153.023 27.9926C154.198 28.1936 155.362 28.4896 156.48 28.871L156.198 29.7022ZM103.051 29.1143L102.749 28.29C103.849 27.8846 104.984 27.5217 106.122 27.2113L106.351 28.0589C105.238 28.3624 104.128 28.7172 103.051 29.1143ZM126.622 28.9503C125.608 28.4732 124.528 28.0665 123.411 27.7418L123.655 26.8983C124.815 27.2353 125.938 27.6584 126.994 28.1553L126.622 28.9503ZM146.052 28.7821L145.91 27.9161C146.939 27.7459 148.018 27.6591 149.118 27.6591C149.236 27.6591 149.355 27.6597 149.475 27.6618L149.46 28.5395C149.346 28.5374 149.232 28.5367 149.118 28.5367C148.066 28.5367 147.034 28.6195 146.053 28.7821H146.052ZM109.73 27.2947L109.576 26.4307C110.752 26.2195 111.934 26.0637 113.088 25.968L113.16 26.8429C112.033 26.9366 110.879 27.0883 109.73 27.2947ZM120.049 27.0186C118.942 26.8579 117.786 26.7629 116.614 26.7356L116.634 25.8579C117.842 25.8859 119.033 25.9837 120.175 26.1498L120.049 27.0186Z" fill="#FF5225"/>
<path d="M67.7095 65.3768C67.2829 65.3768 66.8978 65.2893 66.5645 65.1171L66.966 64.3364C67.1711 64.4424 67.428 64.4985 67.7095 64.4985C68.3828 64.4985 69.1148 64.1991 69.7173 63.6761L70.2897 64.3406C69.5305 64.9988 68.5893 65.3761 67.7095 65.3761V65.3768ZM66.5645 61.6064L65.7004 61.4655C65.8851 60.3254 66.189 59.1586 66.6034 57.9979L67.4273 58.2939C67.0307 59.404 66.7404 60.5188 66.5639 61.6064H66.5645ZM71.9663 60.9898L71.096 60.8975C71.1157 60.7082 71.126 60.512 71.126 60.3144C71.126 59.4901 70.9529 58.5933 70.6114 57.65L71.4347 57.3506C71.8109 58.3902 72.0017 59.3875 72.0017 60.3151C72.0017 60.5434 71.9901 60.7711 71.967 60.9905L71.9663 60.9898ZM68.8299 55.1495L68.0578 54.7353C68.2091 54.4509 68.3685 54.1659 68.5341 53.8795C68.3747 53.658 68.2077 53.4352 68.0346 53.2124C67.6816 52.7571 67.3183 52.3142 66.9537 51.8945L67.6141 51.3175C67.9889 51.7489 68.3631 52.2048 68.7256 52.673C68.8272 52.8036 68.926 52.9341 69.0235 53.0647C69.307 52.6095 69.6062 52.1542 69.9203 51.7024L70.6387 52.2041C70.2618 52.7469 69.9067 53.2937 69.5762 53.8392C69.6464 53.9424 69.7152 54.0442 69.782 54.1461L69.1516 54.563C69.0405 54.7592 68.9335 54.9547 68.8292 55.1495H68.8299ZM72.7548 49.4549L72.0869 48.8868C72.8298 48.0085 73.6367 47.1294 74.4859 46.275L75.1061 46.895C74.2732 47.733 73.482 48.5943 72.7541 49.4549H72.7548ZM64.5329 49.4439C63.6469 48.6633 62.7235 47.9716 61.7884 47.3899L62.2505 46.6441C63.2265 47.2518 64.1888 47.9723 65.1109 48.785L64.5329 49.4446V49.4439ZM58.7332 45.8744C57.6489 45.4684 56.5407 45.1909 55.4407 45.0487L55.5525 44.1779C56.7193 44.3282 57.8922 44.6222 59.0392 45.0514L58.7332 45.8744ZM51.1199 45.2476L50.8555 44.411C50.8718 44.4055 51.2623 44.2824 51.9418 44.184L52.0672 45.0528C51.4661 45.1403 51.1233 45.2469 51.1199 45.2483V45.2476ZM77.6481 44.5176L77.075 43.8539C78.6943 42.4471 79.8133 41.6617 79.8603 41.6289L80.3613 42.3494C80.3504 42.3569 79.2299 43.1437 77.6488 44.5176H77.6481Z" fill="#FF5225"/>
<path d="M238.131 83.6645C238.139 84.5825 237.404 85.3331 236.488 85.3413C235.573 85.3495 234.825 84.6119 234.816 83.6939C234.808 82.7759 235.544 82.0254 236.459 82.0172C237.374 82.009 238.123 82.7465 238.131 83.6645Z" fill="#2D2D2D"/>
<g opacity="0.88">
<path d="M241.221 75.8069C238.404 73.677 234.487 73.7118 231.708 75.891C231.272 76.2293 230.662 76.2908 230.301 75.9518C229.941 75.6148 230.054 74.9108 230.609 74.4767C234.023 71.7999 238.835 71.7575 242.295 74.3735C242.858 74.798 242.983 75.4993 242.629 75.8431C242.274 76.1883 241.662 76.1377 241.221 75.8069H241.221Z" fill="#2D2D2D"/>
</g>
<path d="M239.638 78.454C237.733 77.1655 235.215 77.1874 233.333 78.5094C232.887 78.8177 232.277 78.8826 231.913 78.5463C231.549 78.2141 231.69 77.4731 232.309 77.0398C234.793 75.294 238.12 75.2646 240.635 76.9666C241.261 77.3897 241.415 78.1273 241.057 78.4663C240.699 78.8081 240.088 78.7548 239.637 78.454H239.638Z" fill="#2D2D2D"/>
<path d="M237.925 81.1264C236.998 80.6616 235.896 80.6711 234.976 81.1523C234.509 81.3861 233.898 81.4572 233.526 81.1291C233.153 80.8078 233.367 79.9718 234.15 79.5624C235.575 78.816 237.285 78.8009 238.724 79.5221C239.514 79.9185 239.743 80.7497 239.375 81.0772C239.008 81.4114 238.396 81.3513 237.925 81.1257V81.1264Z" fill="#2D2D2D"/>
<path d="M39.4603 43.2255C37.9458 39.14 40.0239 34.5924 44.0981 33.0643C48.1792 31.5287 52.7363 33.6126 54.2507 37.6982C54.9569 39.5999 54.8829 41.6031 54.1871 43.3551C53.3301 45.5281 53.0533 48.0068 53.8616 50.1907L53.9441 50.4084L47.9649 52.6453L47.8904 52.4485C47.0773 50.2521 45.2496 48.5489 43.1807 47.4604C41.52 46.5898 40.1648 45.123 39.4587 43.2213L39.4603 43.2255Z" fill="#FF8160"/>
<path d="M48.0353 53.153L54.2289 50.8405C54.4797 50.7447 54.6083 50.4658 54.5173 50.2132C54.4222 49.9623 54.1439 49.834 53.8915 49.9255L47.6979 52.238C47.4472 52.3338 47.3186 52.6127 47.4095 52.8653C47.5047 53.1162 47.783 53.2446 48.0353 53.153Z" fill="black"/>
<path d="M48.6673 53.838C48.5001 53.9018 48.3061 53.7939 48.2332 53.6015C48.1602 53.4091 48.2395 53.2017 48.4067 53.1379L53.9384 51.0732C54.0095 51.0461 54.0932 51.0524 54.1681 51.086C54.2603 51.1274 54.3344 51.2093 54.3741 51.3138C54.447 51.5062 54.3678 51.7136 54.2048 51.7759L48.6731 53.8406L48.6673 53.838Z" fill="white"/>
<path d="M48.3624 53.0346L48.4417 53.2438L53.9735 51.1791C54.0403 51.1536 54.098 51.1794 54.1268 51.1924C54.186 51.2224 54.2364 51.2798 54.2592 51.3525C54.31 51.4863 54.265 51.6328 54.1522 51.6758L48.6204 53.7405C48.5536 53.766 48.4959 53.7402 48.4671 53.7273C48.4079 53.6972 48.3574 53.6399 48.3346 53.5672C48.2839 53.4333 48.333 53.2853 48.4375 53.2454L48.3582 53.0362L48.3624 53.0346ZM48.3624 53.0346C48.1409 53.1192 48.0331 53.3902 48.1283 53.6412C48.2234 53.8921 48.4808 54.0284 48.7039 53.948L54.2357 51.8834C54.4613 51.7972 54.5649 51.5278 54.4697 51.2769C54.3746 51.0259 54.1172 50.8896 53.8942 50.97L48.3624 53.0346Z" fill="black"/>
<path d="M49.0477 54.8631L54.5794 52.7984C54.8051 52.7122 54.9128 52.4413 54.8177 52.1903C54.7225 51.9393 54.4652 51.803 54.2421 51.8834L48.7103 53.9481C48.4847 54.0343 48.3769 54.3053 48.472 54.5562C48.5672 54.8072 48.8246 54.9435 49.0477 54.8631Z" fill="black"/>
<path d="M49.343 55.6754C49.1759 55.7392 48.9819 55.6314 48.909 55.439C48.836 55.2466 48.9152 55.0391 49.0782 54.9769L54.61 52.9122C54.7771 52.8484 54.9711 52.9563 55.0457 53.1528C55.1186 53.3452 55.0393 53.5527 54.8722 53.6165L49.3404 55.6812L49.343 55.6754Z" fill="white"/>
<path d="M49.042 54.8667L49.1213 55.0758L54.6531 53.0112C54.7617 52.9697 54.8923 53.0491 54.9431 53.1829C54.9938 53.3167 54.9447 53.4648 54.836 53.5063L49.3043 55.571C49.1956 55.6125 49.0651 55.533 49.0143 55.3992C48.9636 55.2653 49.0085 55.1189 49.1171 55.0774L49.0379 54.8683L49.042 54.8667ZM49.042 54.8667C48.8206 54.9513 48.7128 55.2222 48.808 55.4732C48.9031 55.7242 49.1605 55.8605 49.3877 55.7785L54.9195 53.7138C55.141 53.6292 55.2487 53.3583 55.1577 53.1057C55.0626 52.8548 54.8052 52.7184 54.5822 52.7988L49.0504 54.8635L49.042 54.8667Z" fill="black"/>
<path d="M49.7234 56.6966L55.2552 54.6319C55.4809 54.5457 55.5886 54.2748 55.4935 54.0238C55.3983 53.7728 55.1409 53.6365 54.9178 53.7169L49.3861 55.7816C49.1604 55.8678 49.0527 56.1388 49.1478 56.3897C49.243 56.6407 49.5003 56.777 49.7234 56.6966Z" fill="black"/>
<path d="M51.3291 57.0235C51.1118 57.1065 50.8779 57.0953 50.6688 56.998C50.4943 56.9162 50.3531 56.7834 50.2656 56.6157L54.7912 54.9255C54.886 55.3394 54.6616 55.7699 54.2563 55.9247L51.3275 57.0194L51.3291 57.0235Z" fill="white"/>
<path d="M50.4362 56.6751L54.7028 55.0838C54.7187 55.4033 54.5289 55.7104 54.2155 55.8301L51.2909 56.9232C51.1029 56.9951 50.8988 56.9868 50.7186 56.9024C50.6075 56.8491 50.5125 56.7752 50.4378 56.6793L50.4362 56.6751ZM50.1188 56.5569C50.3049 57.0604 50.8672 57.3197 51.3686 57.1282L54.2932 56.0351L54.3016 56.0319C54.803 55.8404 55.0562 55.284 54.8701 54.7805L50.1214 56.5511L50.1188 56.5569Z" fill="black"/>
<path d="M43.1587 30.8591C42.9079 30.8926 42.6553 30.7445 42.5616 30.4973L41.4616 27.5318C41.352 27.2427 41.5016 26.917 41.7946 26.8051C42.0849 26.699 42.4082 26.844 42.5194 27.1373L43.6194 30.1028C43.7289 30.3919 43.5794 30.7176 43.2864 30.8295C43.2446 30.8455 43.2011 30.8573 43.1587 30.8591Z" fill="#FF5225"/>
<path d="M38.5289 33.7105C38.3865 33.7266 38.2393 33.6917 38.118 33.5991L35.5635 31.6461C35.3152 31.4582 35.2725 31.1054 35.4605 30.8561C35.6486 30.6069 36.0007 30.5634 36.2491 30.7513L38.8035 32.7043C39.0518 32.8922 39.0945 33.2451 38.9065 33.4943C38.8112 33.6218 38.6754 33.6929 38.5289 33.7105Z" fill="#FF5225"/>
<path d="M36.6224 38.8784C36.5899 38.8812 36.5533 38.8856 36.5193 38.8843L33.301 38.7005C32.9932 38.684 32.753 38.4164 32.7743 38.1064C32.7957 37.7964 33.059 37.5568 33.3683 37.5775L36.5867 37.7612C36.8945 37.7778 37.1346 38.0454 37.1133 38.3554C37.0976 38.6297 36.8886 38.8486 36.6239 38.8826L36.6224 38.8784Z" fill="#FF5225"/>
<path d="M35.3125 46.595C35.0704 46.6252 34.8246 46.4941 34.7243 46.2547C34.6024 45.9709 34.7387 45.6363 35.0238 45.5178L37.4851 44.4769C37.7703 44.3584 38.0982 44.4917 38.2202 44.7755C38.3379 45.0609 38.2042 45.3897 37.9207 45.5124L35.4593 46.5533C35.4092 46.5724 35.3632 46.59 35.3109 46.5908L35.3125 46.595Z" fill="#FF5225"/>
<path d="M48.8918 29.8469C48.8327 29.8552 48.7688 29.8508 48.7075 29.8407C48.4063 29.7784 48.2114 29.479 48.2741 29.177L48.9368 26.0234C48.9979 25.7172 49.2988 25.5256 49.6042 25.5862C49.9055 25.6485 50.1003 25.9479 50.0376 26.2499L49.3749 29.4035C49.3224 29.6441 49.1257 29.8199 48.896 29.8453L48.8918 29.8469Z" fill="#FF5225"/>
<path d="M53.7025 32.5115C53.5335 32.533 53.3544 32.4768 53.2272 32.3434C53.0129 32.1186 53.0167 31.7626 53.2414 31.5473L55.5583 29.3013C55.783 29.086 56.1383 29.0892 56.3527 29.314C56.567 29.5387 56.5631 29.8947 56.3384 30.11L54.0216 32.356C53.9304 32.4436 53.8165 32.4967 53.7025 32.5115Z" fill="#FF5225"/>
<path d="M57.1765 38.3185C56.9119 38.3525 56.6566 38.1963 56.5724 37.9364C56.4756 37.643 56.6365 37.3229 56.9353 37.2279L59.4775 36.4004C59.7721 36.307 60.0897 36.4634 60.184 36.7625C60.2767 37.0575 60.1199 37.376 59.821 37.471L57.2831 38.2969C57.2497 38.3097 57.2131 38.3141 57.1822 38.3211L57.1765 38.3185Z" fill="#FF5225"/>
<path d="M185.48 57.2156L186.267 56.1283L188.138 57.5305L187.352 58.6177C186.973 59.1413 186.248 59.2495 185.731 58.8618C185.213 58.4742 185.102 57.7352 185.481 57.2116L185.48 57.2156Z" fill="white"/>
<path d="M186.601 59.1582C186.275 59.2091 185.95 59.127 185.682 58.9271C185.135 58.517 185.017 57.7308 185.415 57.1775L186.242 56.0318L188.229 57.5198L187.402 58.6655C187.225 58.9089 186.971 59.0785 186.683 59.1415C186.653 59.1478 186.627 59.151 186.597 59.1574L186.601 59.1582ZM186.277 56.2306L185.535 57.2602C185.18 57.751 185.287 58.4475 185.772 58.8078C186.007 58.9844 186.293 59.0545 186.58 59.0123C186.863 58.9694 187.119 58.8126 187.291 58.5764L188.037 57.5476L186.281 56.2314L186.277 56.2306Z" fill="#101C3A"/>
<path d="M199.145 41.8921L197.801 43.7505L196.423 42.7143L197.749 40.8775L199.145 41.8921Z" fill="white"/>
<path d="M196.318 42.7273L197.73 40.7785L199.245 41.8797L197.816 43.8542L196.317 42.7314L196.318 42.7273ZM197.761 40.9765L196.52 42.6971L197.786 43.6482L199.044 41.91L197.76 40.9805L197.761 40.9765Z" fill="#101C3A"/>
<path d="M199.483 42.6446L199.07 43.2153C198.943 43.3898 198.699 43.428 198.521 43.2964L196.625 41.873C196.451 41.7422 196.414 41.4931 196.54 41.3186L196.953 40.7479L199.483 42.6446Z" fill="white"/>
<path d="M198.823 43.4451C198.699 43.4618 198.576 43.4328 198.478 43.359L196.582 41.9355C196.376 41.7815 196.33 41.489 196.48 41.2777L196.934 40.6485L199.576 42.6304L199.122 43.2596C199.054 43.35 198.958 43.414 198.849 43.4379C198.837 43.4395 198.828 43.4419 198.819 43.4443L198.823 43.4451ZM196.969 40.8513L196.6 41.3644C196.497 41.51 196.53 41.7168 196.672 41.8203L198.568 43.2437C198.637 43.295 198.72 43.316 198.805 43.3041C198.887 43.2913 198.963 43.2442 199.014 43.1753L199.386 42.663L196.973 40.8521L196.969 40.8513Z" fill="#101C3A"/>
<path d="M198.044 41.9315C202.243 45.0816 208.14 44.191 211.209 39.9389C214.281 35.6875 213.363 29.6862 209.164 26.5362C204.962 23.3853 199.068 24.2767 195.996 28.528C192.924 32.7794 193.838 38.7798 198.04 41.9307L198.044 41.9315ZM198.906 40.7386C195.356 38.0732 194.58 33.0049 197.176 29.4116C199.772 25.8184 204.752 25.0638 208.303 27.7291C211.853 30.3944 212.628 35.4628 210.032 39.056C207.436 42.6493 202.456 43.4039 198.906 40.7386Z" fill="white"/>
<path d="M205.065 43.7801C202.56 44.1586 200.053 43.5242 198.005 41.9865C193.781 38.8188 192.857 32.7622 195.943 28.4844C197.442 26.4116 199.644 25.064 202.15 24.6815C204.655 24.303 207.165 24.9422 209.21 26.4751C213.435 29.6428 214.358 35.7034 211.272 39.9772C209.907 41.8643 207.952 43.1537 205.719 43.6535C205.505 43.7021 205.285 43.7411 205.066 43.7761L205.065 43.7801ZM196.059 28.5703C193.015 32.7816 193.928 38.7485 198.09 41.8744C200.105 43.3889 202.576 44.016 205.043 43.6423C207.509 43.2686 209.679 41.9393 211.155 39.8993C214.198 35.688 213.287 29.7172 209.124 26.5952C207.109 25.0808 204.642 24.4544 202.171 24.8274C201.957 24.8592 201.741 24.899 201.527 24.9476C199.328 25.4418 197.403 26.7121 196.055 28.5695L196.059 28.5703ZM204.841 42.3143C202.718 42.6363 200.596 42.0961 198.862 40.7968C195.286 38.1138 194.506 32.9861 197.119 29.3673C198.384 27.6139 200.25 26.4734 202.373 26.1514C204.496 25.8333 206.615 26.3687 208.349 27.6681C211.925 30.351 212.705 35.4787 210.091 39.0976C208.937 40.698 207.284 41.7899 205.39 42.2123C205.207 42.2546 205.025 42.2888 204.837 42.3135L204.841 42.3143ZM197.235 29.4531C194.667 33.0103 195.437 38.0443 198.947 40.6807C200.648 41.9568 202.736 42.4857 204.816 42.1716C206.901 41.8543 208.729 40.7354 209.971 39.0109C212.539 35.4537 211.774 30.4205 208.259 27.7833C206.558 26.5072 204.471 25.9783 202.391 26.2924C202.206 26.3218 202.029 26.3529 201.846 26.3951C199.991 26.8128 198.364 27.8807 197.231 29.4523L197.235 29.4531Z" fill="#101C3A"/>
<path d="M198.148 44.7892L188.874 57.499C188.311 58.2817 187.221 58.4459 186.447 57.8649C185.673 57.2839 185.506 56.1791 186.07 55.3924L195.344 42.6826C195.545 42.4022 195.932 42.3424 196.21 42.5527L198.012 43.9073C198.287 44.1128 198.345 44.508 198.144 44.7884L198.148 44.7892Z" fill="#101C3A"/>
<path d="M204.84 42.3488C202.708 42.674 200.578 42.1328 198.842 40.8289C195.253 38.1353 194.47 32.9891 197.095 29.3542C198.366 27.5928 200.237 26.4443 202.368 26.1231C204.496 25.7971 206.63 26.3391 208.366 27.643C211.955 30.3366 212.738 35.4828 210.113 39.1177C208.952 40.726 207.29 41.8211 205.392 42.2474C205.209 42.2898 205.023 42.3233 204.839 42.3528L204.84 42.3488ZM197.252 29.4649C194.69 33.0125 195.455 38.0385 198.957 40.6687C200.654 41.9397 202.732 42.4704 204.807 42.1548C206.883 41.8392 208.712 40.7194 209.953 39.0021C212.516 35.4505 211.749 30.4286 208.248 27.7984C206.551 26.5274 204.473 25.9966 202.393 26.3114C202.212 26.3417 202.032 26.372 201.853 26.4152C200.002 26.8304 198.379 27.8998 197.247 29.4681L197.252 29.4649Z" fill="#101C3A"/>
<g opacity="0.2">
<path d="M197.175 29.4068C194.579 33.004 195.352 38.0804 198.903 40.7457C202.457 43.4119 207.441 42.6581 210.042 39.0616C212.639 35.4644 211.865 30.388 208.31 27.7259C204.76 25.0606 199.771 25.8136 197.175 29.4108L197.175 29.4068Z" fill="#EEF1FF"/>
</g>
<path d="M137.027 157.74H55.0586C50.184 157.74 46.2305 153.775 46.2305 148.886V84.6576C46.2305 80.4782 49.6112 77.0874 53.7782 77.0874H138.313C142.48 77.0874 145.861 80.4782 145.861 84.6576V148.886C145.861 153.775 141.908 157.74 137.033 157.74H137.027Z" fill="white"/>
<path d="M137.026 158.213H55.0577C49.9304 158.213 45.7578 154.028 45.7578 148.886V84.6576C45.7578 80.2247 49.3576 76.6143 53.7773 76.6143H138.313C142.732 76.6143 146.332 80.2191 146.332 84.6576V148.886C146.332 154.028 142.159 158.213 137.032 158.213H137.026ZM53.7716 77.5605C49.8686 77.5605 46.6957 80.7429 46.6957 84.6576V148.886C46.6957 153.51 50.4471 157.267 55.052 157.267H137.021C141.631 157.267 145.377 153.504 145.377 148.886V84.6576C145.377 80.7429 142.204 77.5605 138.301 77.5605H53.766H53.7716Z" fill="#CFE0FA"/>
<path d="M130.472 79.667C130.096 79.667 129.793 79.9712 129.793 80.3485C129.793 80.7259 130.096 81.0301 130.472 81.0301C130.849 81.0301 131.152 80.7259 131.152 80.3485C131.152 79.9712 130.849 79.667 130.472 79.667Z" fill="#252525"/>
<path d="M133.351 79.667C132.975 79.667 132.672 79.9712 132.672 80.3485C132.672 80.7259 132.975 81.0301 133.351 81.0301C133.728 81.0301 134.031 80.7259 134.031 80.3485C134.031 79.9712 133.728 79.667 133.351 79.667Z" fill="#FF5225"/>
<path d="M136.23 79.667C135.854 79.667 135.551 79.9712 135.551 80.3485C135.551 80.7259 135.854 81.0301 136.23 81.0301C136.607 81.0301 136.91 80.7259 136.91 80.3485C136.91 79.9712 136.607 79.667 136.23 79.667Z" fill="#797979"/>
<path d="M145.856 84.6519H72.0977V85.5981H145.856V84.6519Z" fill="#CFE0FA"/>
<path d="M65.1201 151.009L65.092 149.578H54.0625L54.0962 151.009H65.1201Z" fill="#101C3A"/>
<path d="M72.9332 146.705L72.9051 145.269H53.918L53.946 146.705H72.9332Z" fill="#101C3A"/>
<path d="M69.7481 142.396L69.72 140.96H53.7148L53.7429 142.396H69.7481Z" fill="#797979"/>
<path d="M68.0256 151.009L67.9975 149.578H65.8242L65.8579 151.009H68.0256Z" fill="#101C3A"/>
<path d="M85.7803 151.009L85.7522 149.578H74.7227L74.7563 151.009H85.7803Z" fill="#101C3A"/>
<path d="M93.5934 146.705L93.5653 145.269H74.5781L74.6062 146.705H93.5934Z" fill="#101C3A"/>
<path d="M90.4082 142.396L90.3802 140.96H74.375L74.4087 142.396H90.4082Z" fill="#101C3A"/>
<path d="M88.6858 151.009L88.6577 149.578H86.4844L86.5181 151.009H88.6858Z" fill="#101C3A"/>
<path d="M65.0185 138.246L64.9848 136.815H53.9609L53.989 138.246H65.0185Z" fill="#101C3A"/>
<path d="M67.9241 138.246L67.8904 136.815H65.7227L65.7563 138.246H67.9241Z" fill="#101C3A"/>
<path d="M85.6787 138.246L85.645 136.815H74.6211L74.6548 138.246H85.6787Z" fill="#FF5225"/>
<path d="M88.5842 138.246L88.5505 136.815H86.3828L86.4165 138.246H88.5842Z" fill="#101C3A"/>
<path d="M110.782 134.1L110.754 132.669H99.7305L99.7585 134.1H110.782Z" fill="#101C3A"/>
<path d="M118.599 129.791L118.565 128.36H99.5781L99.6062 129.791H118.599Z" fill="#101C3A"/>
<path d="M115.412 125.482L115.384 124.051H99.3789L99.4126 125.482H115.412Z" fill="#101C3A"/>
<path d="M113.688 134.1L113.66 132.669H111.492L111.52 134.1H113.688Z" fill="#101C3A"/>
<path d="M131.443 134.1L131.415 132.669H120.391L120.419 134.1H131.443Z" fill="#101C3A"/>
<path d="M139.259 129.791L139.225 128.36H120.238L120.266 129.791H139.259Z" fill="#101C3A"/>
<path d="M136.072 125.482L136.044 124.051H120.039L120.073 125.482H136.072Z" fill="#101C3A"/>
<path d="M134.348 134.1L134.32 132.669H132.152L132.18 134.1H134.348Z" fill="#101C3A"/>
<path d="M110.683 121.331L110.655 119.9H99.625L99.6587 121.331H110.683Z" fill="#101C3A"/>
<path d="M118.497 117.028L118.464 115.591H99.4766L99.5047 117.028H118.497Z" fill="#101C3A"/>
<path d="M115.311 112.719L115.282 111.288H99.2773L99.311 112.719H115.311Z" fill="#101C3A"/>
<path d="M113.586 121.331L113.558 119.9H111.391L111.419 121.331H113.586Z" fill="#101C3A"/>
<path d="M131.341 121.331L131.313 119.9H120.289L120.317 121.331H131.341Z" fill="#101C3A"/>
<path d="M139.161 117.028L139.128 115.591H120.141L120.169 117.028H139.161Z" fill="#FF5225"/>
<path d="M135.971 112.719L135.943 111.288H119.938L119.971 112.719H135.971Z" fill="white"/>
<path d="M134.247 121.331L134.219 119.9H132.051L132.079 121.331H134.247Z" fill="#101C3A"/>
<path d="M110.581 108.567L110.553 107.137H99.5234L99.5571 108.567H110.581Z" fill="#101C3A"/>
<path d="M118.4 104.258L118.366 102.828H99.3789L99.407 104.258H118.4Z" fill="#101C3A"/>
<path d="M115.209 99.9492L115.181 98.5186H99.1758L99.2095 99.9492H115.209Z" fill="#101C3A"/>
<path d="M113.483 108.567L113.455 107.137H111.281L111.315 108.567H113.483Z" fill="#101C3A"/>
<path d="M131.241 108.567L131.213 107.137H120.184L120.217 108.567H131.241Z" fill="#101C3A"/>
<path d="M139.06 104.258L139.026 102.828H120.039L120.067 104.258H139.06Z" fill="#101C3A"/>
<path d="M135.869 99.9492L135.841 98.5186H119.836L119.87 99.9492H135.869Z" fill="#101C3A"/>
<path d="M134.143 108.567L134.115 107.137H131.941L131.975 108.567H134.143Z" fill="#101C3A"/>
<path d="M115.412 151.093L115.384 149.657H99.3789L99.4126 151.093H115.412Z" fill="#101C3A"/>
<path d="M136.072 151.093L136.044 149.657H120.039L120.073 151.093H136.072Z" fill="#101C3A"/>
<path d="M110.683 146.942L110.655 145.506H99.625L99.6587 146.942H110.683Z" fill="#101C3A"/>
<path d="M118.497 142.633L118.464 141.203H99.4766L99.5047 142.633H118.497Z" fill="#101C3A"/>
<path d="M115.311 138.324L115.282 136.894H99.2773L99.311 138.324H115.311Z" fill="#797979"/>
<path d="M113.586 146.942L113.558 145.506H111.391L111.419 146.942H113.586Z" fill="#101C3A"/>
<path d="M131.341 146.942L131.313 145.506H120.289L120.317 146.942H131.341Z" fill="#101C3A"/>
<path d="M139.161 142.633L139.128 141.203H120.141L120.169 142.633H139.161Z" fill="#FF5225"/>
<path d="M135.971 138.324L135.943 136.894H119.938L119.971 138.324H135.971Z" fill="white"/>
<path d="M134.247 146.942L134.219 145.506H132.051L132.079 146.942H134.247Z" fill="#101C3A"/>
<path d="M110.479 95.7984L110.446 94.3677H99.4219L99.4556 95.7984H110.479Z" fill="#101C3A"/>
<path d="M113.381 95.7984L113.347 94.3677H111.18L111.213 95.7984H113.381Z" fill="#101C3A"/>
<path d="M131.14 95.7984L131.106 94.3677H120.082L120.116 95.7984H131.14Z" fill="#101C3A"/>
<path d="M134.045 95.7984L134.017 94.3677H131.844L131.877 95.7984H134.045Z" fill="#101C3A"/>
<path d="M87.866 95.7065H74.0391V96.9124H87.866V95.7065Z" fill="black"/>
<path d="M83.0373 102.942H74.6211V104.148H83.0373V102.942Z" fill="#101C3A"/>
<path d="M79.4304 105.354H74.6211V106.56H79.4304V105.354Z" fill="#101C3A"/>
<path d="M83.0373 108.369H74.6211V109.575H83.0373V108.369Z" fill="#101C3A"/>
<path d="M79.4304 110.781H74.6211V111.987H79.4304V110.781Z" fill="#101C3A"/>
<path d="M83.0373 113.795H74.6211V115.001H83.0373V113.795Z" fill="#101C3A"/>
<path d="M79.4304 116.208H74.6211V117.413H79.4304V116.208Z" fill="#101C3A"/>
<path d="M85.4614 98.1187H74.0391V99.3245H85.4614V98.1187Z" fill="#FF5225"/>
<path d="M67.4343 97.8511H59.418V105.891H67.4343V97.8511Z" fill="#FF5225"/>
<path d="M62.721 104.332L60.793 102.398L61.6429 101.546L62.721 102.626L65.9027 99.4351L66.7532 100.288L62.721 104.332Z" fill="white"/>
<path d="M53.9406 220.627H242.824V222.065H53.9406V220.627Z" fill="#131313"/>
<mask id="mask5_2172_8945" style="mask-type:luminance" maskUnits="userSpaceOnUse" x="59" y="57" width="179" height="164">
<path d="M237.075 57.5732H59.6914V220.627H237.075V57.5732Z" fill="white"/>
</mask>
<g mask="url(#mask5_2172_8945)">
<path d="M192.68 183.698C192.584 185.329 201.161 187.18 211.845 187.82C222.528 188.467 226.37 187.022 226.467 185.391C226.563 183.76 222.878 182.549 212.201 181.909C201.525 181.269 192.783 182.067 192.687 183.698H192.68Z" fill="#101C3A"/>
<path d="M199.383 234.453C196.2 235.148 191.074 235.382 191.074 235.382C191.074 235.382 199.034 192.473 200.55 180.312C201.037 176.424 219.062 168.565 220.462 185.102C221.567 198.143 201.387 219.45 201.017 230.241C200.948 232.299 199.987 234.322 199.383 234.453Z" fill="#FFBCB0"/>
<path d="M178.848 129.063C183.342 125.725 194.149 124.851 202.26 133.646C210.37 142.441 220.374 158.049 226.453 185.233C226.453 185.233 209.43 177.986 192.688 183.802C192.688 183.802 178.313 163.995 174.951 153.184C171.589 142.372 173.887 132.745 178.841 129.063H178.848Z" fill="#2D2D2D"/>
<path d="M209.773 225.409C211.578 233.014 212.442 283.486 208.51 291.531C205.711 297.264 174.162 311.482 171.239 295.502C168.673 281.47 161.049 234.59 161.708 226.242C162.346 218.183 204.352 202.555 209.773 225.409Z" fill="#FF5225"/>
<path d="M160.468 209.623C160.825 204.262 179.406 195.336 193.506 196.63L197.575 246.324C196.36 247.755 192.422 253.695 191.688 255.312C186.095 267.624 181.011 276.192 168.379 279.591C164.859 255.202 160.042 216.002 160.468 209.616V209.623Z" fill="#101C3A"/>
<path d="M195.365 219.01C194.212 226.745 169.668 290.43 163.033 296.431C158.306 300.705 140.829 301.724 131.944 288.146C123.051 274.567 146.737 209.327 150.456 201.825C154.045 194.586 198.83 195.776 195.371 219.003L195.365 219.01Z" fill="#FF5225"/>
<path d="M152.466 126.551C141.419 133.309 137.13 149.977 136.334 178.613C135.538 207.255 130.44 225.905 133.576 233.331C133.576 233.331 166.545 263.446 214.562 244.232C214.562 244.232 213.101 236.036 209.828 200.538C206.562 165.035 206.644 155.407 201.937 141.553C197.23 127.7 174.868 115.065 168.83 118.396C162.772 121.74 160.994 121.327 152.466 126.544V126.551Z" fill="#2D2D2D"/>
<path d="M132.557 142.367C132.557 142.367 125.174 146.682 119.177 150.433C117.935 148.871 116.645 147.295 115.362 145.732C111.876 140.95 101.474 125.045 101.412 124.983C99.0314 119.698 102.984 118.294 102.263 116.099C101.783 114.633 97.3641 108.061 95.5046 106.85C95.4909 106.829 95.4703 106.808 95.4497 106.788C93.0825 104.695 86.2415 101.255 84.0321 99.8231C83.0578 99.1968 83.147 100.608 84.4781 102.479C86.0906 104.737 89.1508 107.228 91.2436 108.563C90.5849 109.478 89.9742 110.497 88.5333 111.44C86.8042 112.575 87.0855 114.702 86.1798 116.367C85.2741 118.026 86.8042 120.393 88.8901 122.155C90.976 123.917 93.7549 123.924 94.0774 128.727C94.0774 128.727 102.263 163.839 106.51 172.359C109.234 177.823 112.734 179.674 116.096 179.337C124.604 179.385 138.436 172.94 149.195 164.778C160.599 156.135 148.153 134.515 132.557 142.353V142.367Z" fill="#FFBCB0"/>
<path d="M167.253 130.756C170.238 134.328 172.42 139.62 166.052 148.972C159.685 158.325 142.051 170.816 126.811 177.663C126.811 177.663 110.945 160.591 116.38 143.455C116.38 143.455 139.526 130.412 148.295 127.074C157.07 123.736 163.959 126.813 167.246 130.749L167.253 130.756Z" fill="#2D2D2D"/>
<path d="M133.898 161.057C133.988 161.112 143.237 166.494 152.081 158.655L151.622 158.132C143.168 165.627 134.344 160.507 134.255 160.458L133.898 161.057Z" fill="white"/>
<path d="M119.168 169.522C122.606 174.656 126.276 178.021 126.324 178.062L126.455 178.179L126.626 178.138C126.846 178.09 148.693 173.128 160.955 159.399L160.44 158.938C148.899 171.848 128.747 176.92 126.654 177.422C125.68 176.5 119.511 170.485 116.142 162.585L115.504 162.86C116.54 165.29 117.83 167.54 119.161 169.522H119.168Z" fill="white"/>
<path d="M183.545 217.894C191.957 217.894 197.165 213.277 197.247 213.201L196.781 212.685C196.664 212.788 185.082 223.021 168.518 212.292L168.141 212.877C173.959 216.642 179.181 217.887 183.545 217.887V217.894Z" fill="white"/>
<path d="M163.694 117.907C163.694 117.907 166.123 115.298 168.93 110.165L164.133 111.348L163.688 117.907H163.694Z" fill="#101C3A"/>
<path d="M155.563 97.7773C156.249 92.3062 156.002 83.9446 162.424 85.0939C164.064 85.3898 171.68 86.195 173.368 87.0208C177.375 89.0028 175.941 95.1828 177.005 100.785C177.314 102.45 177.17 105.678 176.545 107.144L178.178 106.985L178.583 120.371C178.583 120.371 169.883 126.255 163.481 121.21L163.968 114.039C162.479 114.404 161.244 114.562 160.572 114.418C155.899 113.441 154.808 103.909 155.576 97.7773H155.563Z" fill="#FFBCB0"/>
<path d="M158.216 88.0325C158.799 88.3146 160.61 89.0648 160.61 89.0648C160.61 89.0648 160.981 93.6963 161.633 95.4374C162.285 97.1786 159.897 103.187 156.693 103.689C153.488 104.198 155.416 107.674 155.663 109.16C156.013 111.287 153.996 113.475 157.948 114.996C160.583 116.008 167.294 114.672 165.654 110.413C164.014 106.153 161.159 100.819 164.247 96.2633C167.335 91.7074 163.602 101.913 169.263 105.753C170.834 106.813 172.076 107.701 173.064 108.417C174.628 109.559 176.687 109.477 178.32 108.424C178.498 108.307 178.697 108.21 178.903 108.142C180.557 107.598 185.38 102.037 185.73 94.708C186.08 87.3787 182.821 84.8117 176.371 83.3596C169.921 81.9007 172.302 79.2236 168.282 78.3634C164.261 77.5031 159.252 72.5068 159.252 72.5068C159.252 72.5068 152.864 85.4242 158.229 88.0394L158.216 88.0325Z" fill="#101C3A"/>
<path d="M170.911 100.482C169.731 102.808 167.158 103.868 165.175 102.856C163.192 101.837 162.533 99.1329 163.72 96.8068C164.9 94.4807 167.466 93.4209 169.456 94.4325C171.439 95.451 172.098 98.1556 170.911 100.482Z" fill="#FFBCB0"/>
<path d="M164.949 101.122C165.045 101.232 165.155 101.328 165.279 101.397C165.539 101.541 165.841 101.548 166.143 101.424C166.788 101.156 166.829 100.654 166.857 100.247C166.884 99.8552 166.912 99.4836 167.399 99.0776C167.783 98.7541 168.195 98.6371 168.565 98.5339C169.196 98.355 169.91 98.1554 169.766 96.9098C169.718 96.5037 169.533 96.1665 169.21 95.9119C168.284 95.1824 166.507 95.4026 166.431 95.4095L166.52 96.0977C166.953 96.0426 168.208 96.0013 168.785 96.4556C168.956 96.5932 169.059 96.7652 169.08 96.9855C169.155 97.6461 168.991 97.6874 168.38 97.8663C167.968 97.9833 167.46 98.1279 166.96 98.5408C166.253 99.1326 166.205 99.7451 166.17 100.192C166.143 100.578 166.122 100.681 165.882 100.777C165.745 100.832 165.67 100.812 165.615 100.777C165.347 100.633 165.169 100.075 165.121 99.8208L164.441 99.9516C164.455 100.041 164.585 100.681 164.956 101.115L164.949 101.122Z" fill="#101C3A"/>
<path d="M207.304 175.055L207.888 175.041C207.517 156.542 201.959 140.79 201.904 140.631L201.355 140.831C201.41 140.989 206.934 156.653 207.304 175.055Z" fill="white"/>
</g>
</svg>
