<svg width="272" height="244" viewBox="0 0 272 244" fill="none" xmlns="http://www.w3.org/2000/svg">
<path d="M67.1692 149.994L75.5659 152.202L77.4112 147.013C80.0051 147.117 82.5471 146.746 84.9556 145.973L88.1276 150.477L95.6127 146.084L93.256 141.104C95.1087 139.379 96.6724 137.343 97.8582 135.024L103.276 135.953L105.477 127.531L100.304 125.68C100.4 123.086 100.037 120.529 99.2663 118.113L103.75 114.932L99.3775 107.425L94.4121 109.788C92.6927 107.93 90.6621 106.362 88.3499 105.172L89.2763 99.7389L80.8796 97.5312L79.0343 102.72C76.4478 102.623 73.8984 102.987 71.4898 103.76L68.3179 99.2632L60.8328 103.656L63.1895 108.636C61.3368 110.361 59.773 112.405 58.5873 114.717L53.1698 113.787L50.9688 122.209L56.1416 124.06C56.0379 126.661 56.4084 129.211 57.1792 131.627L52.6955 134.808L57.0754 142.316L62.0408 139.952C63.7602 141.81 65.7982 143.378 68.103 144.568L67.1766 150.001L67.1692 149.994ZM63.0709 120.879C65.2646 112.487 73.8317 107.462 82.1987 109.662C90.5658 111.862 95.5756 120.455 93.3746 128.847C91.1809 137.239 82.6212 142.263 74.2467 140.063C65.8797 137.863 60.8699 129.27 63.0635 120.879H63.0709Z" fill="#FF5225"/>
<path d="M79.4492 100.995L80.761 97.3008L87.0974 98.9658L87.001 99.3374L81.0055 97.7616L79.8124 101.121L79.4492 100.995Z" fill="#101C3A"/>
<path d="M53.1406 113.966L53.2073 113.586L58.4766 114.493C59.6845 111.847 61.7893 109.773 61.8115 109.751L62.0783 110.026C62.0783 110.026 59.9291 112.152 58.7656 114.791L58.7063 114.924L53.1406 113.966Z" fill="#101C3A"/>
<path d="M65.4219 134.243L65.7257 134.013C73.2034 143.832 83.8234 139.342 83.9272 139.298L84.0828 139.647C83.9716 139.692 73.0849 144.3 65.4219 134.243Z" fill="#101C3A"/>
<path d="M80.7852 146.738C83.0381 146.367 84.8834 145.794 84.8983 145.787L85.0317 145.742L86.1952 147.392L85.8839 147.615L84.8834 146.188C84.4166 146.329 82.7787 146.79 80.8519 147.11L80.7926 146.731L80.7852 146.738Z" fill="#101C3A"/>
<path d="M51.4492 124.558L53.7392 115.794L59.1863 116.731C59.5272 116.062 61.1651 112.969 63.6626 110.806L61.2984 105.797L69.0874 101.225L72.2816 105.752C72.956 105.529 75.9871 104.6 79.6259 104.741L81.486 99.5156L90.2236 101.812L89.2898 107.283C90.0013 107.655 93.4622 109.543 95.2038 111.773L100.191 109.402L104.749 117.214L100.243 120.41C100.503 121.057 101.459 123.792 101.244 127.776L106.454 129.642L104.164 138.405L98.7166 137.469C98.3757 138.145 96.7083 141.304 94.2404 143.393L96.6045 148.396L88.8081 152.967L85.6214 148.44C84.9544 148.685 81.99 149.674 78.2771 149.451L76.4169 154.676L67.6793 152.38L68.6131 146.916C67.9609 146.604 65.1225 145.155 62.7065 142.419L57.7115 144.798L53.1537 136.986L57.6596 133.79C57.3928 133.121 56.3479 130.229 56.6517 126.423L51.4492 124.558ZM54.0208 116.225L51.9087 124.312L57.0593 126.156L57.0445 126.304C56.6592 130.616 58.0524 133.745 58.0672 133.775L58.1339 133.916L53.6577 137.09L57.8597 144.3L62.7955 141.951L62.8918 142.063C65.5746 145.162 68.8577 146.619 68.8873 146.634L69.0207 146.693L68.0943 152.105L76.1575 154.223L77.9955 149.057H78.1363C82.3309 149.347 85.5695 148.054 85.5992 148.039L85.74 147.979L88.8971 152.461L96.0857 148.247L93.7439 143.289L93.8624 143.192C96.6341 140.918 98.398 137.209 98.4202 137.172L98.4795 137.038L103.867 137.967L105.979 129.88L100.829 128.036V127.895C101.11 123.413 99.8283 120.447 99.8135 120.417L99.7542 120.276L104.23 117.102L100.028 109.892L95.0778 112.248L94.9815 112.122C93.1732 109.699 89.023 107.581 88.9786 107.558L88.8526 107.491L89.779 102.087L81.7158 99.969L79.8779 105.128H79.737C75.6388 104.927 72.2964 106.138 72.2667 106.153L72.1333 106.205L68.9763 101.731L61.7876 105.945L64.1295 110.903L64.0183 111C61.2169 113.371 59.4753 116.983 59.4605 117.021L59.4012 117.147L54.0134 116.218L54.0208 116.225Z" fill="#101C3A"/>
<path d="M63.0914 127.747C62.7357 118.976 69.5686 111.558 78.3062 111.201C87.0512 110.844 94.4474 117.697 94.8031 126.461C95.1589 135.232 88.3333 142.65 79.5883 143.007C70.8433 143.364 63.4471 136.518 63.0914 127.747ZM94.4252 126.483C94.0843 117.928 86.8585 111.245 78.3284 111.587C69.7984 111.929 63.1359 119.177 63.4768 127.732C63.8177 136.287 71.0434 142.97 79.5735 142.628C88.1036 142.286 94.7661 135.039 94.4252 126.483Z" fill="#101C3A"/>
<path d="M25.8897 184.438L31.7222 185.97L33.0043 182.365C34.8126 182.431 36.5764 182.179 38.2439 181.644L40.445 184.773L45.6475 181.718L44.0097 178.254C45.2992 177.057 46.3812 175.638 47.2112 174.025L50.976 174.671L52.5027 168.814L48.9083 167.528C48.975 165.722 48.7231 163.945 48.1895 162.273L51.3095 160.065L48.271 154.847L44.8175 156.49C43.6243 155.197 42.2088 154.104 40.6006 153.279L41.2454 149.503L35.4055 147.972L34.1234 151.577C32.3225 151.51 30.5513 151.763 28.8838 152.298L26.6827 149.168L21.4802 152.216L23.118 155.68C21.8285 156.876 20.7391 158.304 19.9165 159.909L16.1517 159.263L14.625 165.12L18.2193 166.406C18.1526 168.219 18.4046 169.988 18.9382 171.661L15.8182 173.869L18.8567 179.087L22.3102 177.444C23.5034 178.737 24.9263 179.83 26.5271 180.655L25.8823 184.431L25.8897 184.438ZM23.0439 164.206C24.5706 158.371 30.5216 154.884 36.3393 156.408C42.1569 157.939 45.6327 163.908 44.106 169.743C42.5793 175.578 36.6283 179.064 30.8106 177.54C24.993 176.009 21.5172 170.04 23.0365 164.206H23.0439Z" fill="black"/>
<path d="M34.418 150.38L35.3369 147.809L39.7317 148.968L39.665 149.228L35.5 148.136L34.67 150.47L34.418 150.38Z" fill="#101C3A"/>
<path d="M16.1363 159.396L16.1808 159.136L19.8418 159.768C20.6793 157.932 22.1466 156.483 22.1615 156.468L22.3467 156.661C22.3467 156.661 20.8571 158.133 20.0419 159.969L19.9975 160.065L16.1289 159.404L16.1363 159.396Z" fill="#101C3A"/>
<path d="M24.6758 173.49L24.8907 173.326C30.0932 180.15 37.4672 177.035 37.5413 176.998L37.6451 177.243C37.5709 177.273 29.9969 180.477 24.6758 173.49Z" fill="#101C3A"/>
<path d="M35.3555 182.18C36.9192 181.919 38.2013 181.518 38.2161 181.518L38.305 181.488L39.1128 182.64L38.8979 182.796L38.2013 181.808C37.8752 181.905 36.7413 182.224 35.3999 182.447L35.3555 182.187V182.18Z" fill="#101C3A"/>
<path d="M14.957 166.763L16.5504 160.668L20.3374 161.322C20.5746 160.861 21.7159 158.713 23.4501 157.204L21.8048 153.726L27.2223 150.552L29.4381 153.696C29.905 153.54 32.0098 152.893 34.5369 152.99L35.8338 149.362L41.9035 150.96L41.2513 154.759C41.7478 155.019 44.1564 156.327 45.3644 157.881L48.8328 156.23L51.9973 161.664L48.8624 163.887C49.0403 164.34 49.7073 166.235 49.559 169.008L53.1756 170.301L51.5822 176.396L47.7952 175.742C47.5581 176.211 46.402 178.411 44.6826 179.86L46.3278 183.339L40.9104 186.513L38.6945 183.369C38.2276 183.54 36.1748 184.223 33.5883 184.067L32.2988 187.695L26.2292 186.097L26.8813 182.298C26.4293 182.083 24.4505 181.072 22.7757 179.169L19.3073 180.819L16.1428 175.385L19.2777 173.163C19.0924 172.695 18.3661 170.688 18.581 168.042L14.9644 166.748L14.957 166.763ZM16.7431 160.973L15.2757 166.592L18.8552 167.871V167.975C18.581 170.97 19.5445 173.148 19.5593 173.17L19.6037 173.267L16.4911 175.475L19.411 180.485L22.8423 178.849L22.909 178.924C24.7766 181.079 27.0592 182.09 27.0814 182.098L27.1778 182.142L26.533 185.903L32.1357 187.375L33.4104 183.785H33.5068C36.4267 183.986 38.6723 183.086 38.6945 183.079L38.7908 183.042L40.9845 186.156L45.9795 183.227L44.3491 179.778L44.4306 179.712C46.3575 178.128 47.5877 175.556 47.5951 175.527L47.6396 175.438L51.3821 176.084L52.8495 170.465L49.27 169.186V169.09C49.4627 165.975 48.5734 163.909 48.566 163.887L48.5215 163.79L51.6341 161.59L48.7142 156.58L45.2755 158.215L45.2088 158.126C43.9489 156.446 41.066 154.967 41.0364 154.952L40.9475 154.907L41.5922 151.154L35.9895 149.682L34.7148 153.265H34.6184C31.7726 153.131 29.4456 153.963 29.4233 153.978L29.327 154.015L27.1333 150.901L22.1383 153.83L23.7687 157.271L23.6946 157.338C21.7455 158.988 20.5375 161.501 20.5301 161.523L20.4857 161.612L16.7431 160.965V160.973Z" fill="#101C3A"/>
<path d="M23.0481 168.978C22.8035 162.883 27.5466 157.724 33.6236 157.479C39.7007 157.234 44.8439 161.991 45.0885 168.086C45.333 174.181 40.59 179.339 34.5129 179.585C28.4359 179.83 23.2927 175.073 23.0481 168.978ZM44.8217 168.101C44.5845 162.154 39.5598 157.509 33.631 157.746C27.7022 157.984 23.0703 163.016 23.3075 168.97C23.5447 174.917 28.5693 179.562 34.4981 179.325C40.4269 179.087 45.0588 174.047 44.8217 168.101Z" fill="#101C3A"/>
<path d="M87.8222 43.349C90.7536 40.4899 90.819 35.7887 87.9684 32.8486C85.1177 29.9085 80.4305 29.8429 77.4991 32.702C74.5678 35.5611 74.5023 40.2623 77.3529 43.2024C80.2036 46.1425 84.8908 46.2082 87.8222 43.349Z" fill="black"/>
<path d="M83.8745 44.4807C79.7392 44.4807 76.3672 41.1061 76.3672 36.9584C76.3672 32.8108 79.7318 29.4287 83.8745 29.4287C88.0173 29.4287 91.3745 32.8033 91.3745 36.9584C91.3745 41.1135 88.0099 44.4807 83.8745 44.4807ZM83.8745 29.6294C79.8504 29.6294 76.5747 32.9148 76.5747 36.951C76.5747 40.9871 79.8504 44.2726 83.8745 44.2726C87.8987 44.2726 91.1744 40.9871 91.1744 36.951C91.1744 32.9148 87.8987 29.6294 83.8745 29.6294Z" fill="#101C3A"/>
<path d="M171.468 24.264C170.111 23.5355 169.6 21.8333 170.326 20.4731C171.06 19.1128 172.75 18.5999 174.106 19.3284C175.462 20.0568 175.974 21.759 175.247 23.1193C174.521 24.4795 172.824 24.9924 171.468 24.264Z" fill="#FF5225"/>
<path d="M43.9522 67.2042L40.2541 62.0977L39.928 62.3132C39.5056 62.6254 39.1054 62.9971 38.7349 63.4802C38.2532 64.1046 37.9197 64.8107 37.7344 65.5392L43.9522 67.2042Z" fill="#ACACAC"/>
<path d="M254.286 91.8744C253.204 91.3615 252.744 90.0682 253.256 88.9829C253.767 87.8977 255.057 87.4368 256.139 87.9497C257.221 88.4626 257.68 89.756 257.169 90.8412C256.657 91.9264 255.368 92.3873 254.286 91.8744Z" fill="black"/>
<path d="M56.6484 224.532L56.8411 222.369C56.8634 222.132 57.0709 221.953 57.3154 221.976C57.5526 221.998 57.7304 222.206 57.7082 222.451V222.466L57.5081 224.599V224.614C57.4859 224.852 57.2784 225.023 57.0412 225.001C56.8041 224.978 56.6336 224.77 56.6558 224.532H56.6484Z" fill="#101C3A"/>
<path d="M57.9158 215.442C58.2049 214.007 58.5458 212.587 58.9237 211.175C58.9904 210.93 59.2424 210.789 59.4796 210.855C59.7241 210.922 59.8649 211.175 59.7982 211.413C59.4203 212.803 59.0794 214.208 58.7829 215.62C58.731 215.865 58.4939 216.021 58.2567 215.969C58.0122 215.917 57.8565 215.687 57.9084 215.442H57.9158Z" fill="#101C3A"/>
<path d="M61.0946 204.508C61.6208 203.147 62.1915 201.795 62.814 200.471C62.9252 200.234 63.2068 200.13 63.4439 200.241C63.6811 200.353 63.7848 200.635 63.6737 200.873C63.0586 202.174 62.4879 203.497 61.9617 204.842C61.8654 205.08 61.5986 205.199 61.354 205.11C61.1169 205.013 60.9909 204.746 61.0872 204.5L61.0946 204.508Z" fill="#101C3A"/>
<path d="M66.1925 194.318C66.978 193.084 67.8229 191.879 68.727 190.727C68.8975 190.512 69.2087 190.475 69.4237 190.646C69.6386 190.817 69.6756 191.129 69.5052 191.344C68.6159 192.474 67.7858 193.641 67.0077 194.853C66.8594 195.083 66.563 195.143 66.3333 195.001C66.1035 194.853 66.0442 194.555 66.185 194.325L66.1925 194.318Z" fill="#101C3A"/>
<path d="M73.5765 185.606C74.6956 184.647 75.8887 183.77 77.1634 183.012C77.408 182.863 77.7267 182.945 77.8749 183.19C78.0231 183.436 77.9416 183.755 77.697 183.904C76.4816 184.625 75.3255 185.465 74.2435 186.386C74.0286 186.572 73.7099 186.543 73.5246 186.327C73.3393 186.111 73.369 185.792 73.5839 185.606H73.5765Z" fill="#101C3A"/>
<path d="M83.8471 180.566C85.3367 180.366 86.8634 180.395 88.3456 180.685C88.6346 180.745 88.8273 181.027 88.768 181.317C88.7087 181.607 88.4271 181.8 88.1381 181.741C86.7745 181.466 85.3738 181.428 83.9879 181.614C83.6989 181.651 83.4321 181.451 83.395 181.153C83.358 180.864 83.5581 180.596 83.8471 180.559V180.566Z" fill="#101C3A"/>
<path d="M94.7945 183.77C95.3799 184.231 95.9358 184.736 96.4619 185.257C96.9881 185.784 97.4624 186.342 97.9664 186.884C98.1739 187.107 98.1665 187.464 97.9367 187.672C97.707 187.88 97.3587 187.873 97.1512 187.643L97.1215 187.605C96.6398 187.085 96.1803 186.543 95.6838 186.037C95.1873 185.539 94.6611 185.063 94.1126 184.625C93.8755 184.432 93.8384 184.09 94.0237 183.852C94.2164 183.614 94.5573 183.569 94.7945 183.763V183.77Z" fill="#101C3A"/>
<path d="M101.485 193.128C101.871 194.615 101.878 196.25 101.374 197.744C101.27 198.056 100.944 198.212 100.64 198.116C100.337 198.011 100.174 197.684 100.277 197.38C100.707 196.116 100.707 194.726 100.374 193.41C100.3 193.106 100.485 192.793 100.789 192.712C101.093 192.637 101.404 192.823 101.485 193.128Z" fill="#101C3A"/>
<path d="M96.6084 203.17C95.3189 203.943 93.9405 204.53 92.5324 204.998C92.2211 205.103 91.8802 204.932 91.7765 204.619C91.6727 204.307 91.8432 203.965 92.1618 203.861C93.5032 203.423 94.8075 202.865 96.0081 202.159C96.2898 201.988 96.6529 202.085 96.816 202.367C96.9864 202.65 96.8901 203.014 96.6084 203.177V203.17Z" fill="#101C3A"/>
<path d="M85.5819 206.359C84.1145 206.478 82.6323 206.5 81.1649 206.426C80.824 206.411 80.5572 206.114 80.5794 205.772C80.6017 205.43 80.8907 205.162 81.2316 205.185C82.6471 205.259 84.0774 205.244 85.4929 205.14C85.8338 205.118 86.1229 205.37 86.1525 205.705C86.1747 206.047 85.9302 206.337 85.5893 206.366L85.5819 206.359Z" fill="#101C3A"/>
<path d="M74.1773 205.274C72.7544 204.858 71.3612 204.315 70.0346 203.616C69.7233 203.453 69.5973 203.059 69.7678 202.747C69.9308 202.434 70.3236 202.308 70.6349 202.479C71.8725 203.141 73.1843 203.653 74.5405 204.055C74.874 204.151 75.0667 204.508 74.9703 204.843C74.874 205.177 74.5183 205.37 74.1848 205.274H74.1773Z" fill="#101C3A"/>
<path d="M64.5785 198.904C63.7188 197.633 63.1185 196.176 62.8147 194.674C62.7406 194.317 62.9703 193.961 63.3334 193.894C63.6892 193.819 64.0449 194.05 64.1116 194.414C64.3784 195.76 64.9046 197.045 65.6605 198.183C65.8606 198.487 65.7791 198.889 65.4826 199.097C65.1862 199.298 64.7786 199.216 64.5785 198.919V198.904Z" fill="#101C3A"/>
<path d="M63.2297 187.464C63.6299 186.022 64.1783 184.624 64.8082 183.286C64.9713 182.944 65.3789 182.796 65.7198 182.959C66.0607 183.123 66.2089 183.531 66.0459 183.873C65.4382 185.159 64.912 186.475 64.534 187.828C64.4303 188.185 64.0597 188.4 63.704 188.296C63.3483 188.192 63.1333 187.82 63.2371 187.464H63.2297Z" fill="#101C3A"/>
<path d="M68.409 177.199C69.2909 176.024 70.1358 174.82 71.0696 173.698C71.3141 173.393 71.7588 173.348 72.0627 173.594C72.3591 173.839 72.4035 174.285 72.159 174.59C71.24 175.697 70.4174 176.864 69.5429 178.009L69.5133 178.046C69.2835 178.351 68.8463 178.41 68.535 178.18C68.2312 177.949 68.1719 177.511 68.4016 177.206L68.409 177.199Z" fill="#101C3A"/>
<path d="M75.7698 168.465C76.7999 167.424 77.8671 166.42 78.9714 165.454C79.2678 165.187 79.7273 165.216 79.9867 165.521C80.2461 165.826 80.2238 166.279 79.92 166.547C78.8454 167.491 77.793 168.472 76.7777 169.49C76.4961 169.773 76.044 169.773 75.7698 169.49C75.4882 169.208 75.4882 168.754 75.7698 168.479V168.465Z" fill="#101C3A"/>
<path d="M84.486 161.091C85.6866 160.244 86.9094 159.441 88.1619 158.683C88.5102 158.468 88.9697 158.587 89.1772 158.936C89.3921 159.285 89.2735 159.746 88.9252 159.954C87.7024 160.698 86.4944 161.478 85.3235 162.296C84.99 162.526 84.5379 162.444 84.3008 162.117C84.071 161.783 84.1451 161.329 84.4786 161.091H84.486Z" fill="#101C3A"/>
<path d="M94.372 155.376C95.706 154.759 97.0548 154.194 98.4332 153.681C98.826 153.532 99.2633 153.733 99.4115 154.127C99.5597 154.521 99.3596 154.959 98.9668 155.108C97.6254 155.606 96.3063 156.156 95.0019 156.751C94.624 156.922 94.1793 156.751 94.0089 156.379C93.8384 156 94.0015 155.554 94.3794 155.383L94.372 155.376Z" fill="#101C3A"/>
<path d="M105.145 151.584C106.568 151.235 108.006 150.93 109.451 150.684C109.873 150.61 110.274 150.9 110.348 151.324C110.422 151.747 110.133 152.149 109.71 152.223C108.302 152.461 106.902 152.743 105.516 153.085C105.101 153.189 104.686 152.929 104.582 152.52C104.478 152.104 104.73 151.688 105.145 151.591V151.584Z" fill="#101C3A"/>
<path d="M116.456 149.942C117.923 149.883 119.391 149.875 120.866 149.935C121.303 149.949 121.644 150.321 121.629 150.767C121.614 151.206 121.244 151.548 120.806 151.533C119.383 151.473 117.953 151.473 116.53 151.533C116.093 151.548 115.73 151.213 115.708 150.775C115.693 150.336 116.026 149.972 116.463 149.949L116.456 149.942Z" fill="#101C3A"/>
<path d="M127.877 150.708C129.33 150.975 130.768 151.317 132.183 151.734C132.613 151.86 132.857 152.313 132.731 152.744C132.605 153.176 132.153 153.428 131.724 153.294C130.367 152.886 128.981 152.559 127.588 152.291C127.151 152.209 126.862 151.786 126.943 151.347C127.025 150.908 127.447 150.619 127.885 150.7L127.877 150.708Z" fill="#101C3A"/>
<path d="M138.771 154.386C140.091 155.077 141.358 155.865 142.558 156.765C142.929 157.04 143.003 157.56 142.729 157.932C142.455 158.303 141.936 158.378 141.565 158.103C140.446 157.263 139.253 156.512 138.008 155.85C137.608 155.635 137.452 155.137 137.667 154.728C137.882 154.327 138.379 154.171 138.779 154.386H138.771Z" fill="#101C3A"/>
<path d="M147.589 161.923C148.442 163.18 149.146 164.547 149.65 165.997C149.805 166.443 149.568 166.926 149.131 167.082C148.686 167.238 148.204 167 148.049 166.554C147.604 165.253 146.974 164.02 146.196 162.875C145.937 162.488 146.033 161.961 146.418 161.7C146.804 161.44 147.33 161.537 147.589 161.923Z" fill="#101C3A"/>
<path d="M150.463 173.237C150.307 174.753 149.959 176.24 149.477 177.667C149.322 178.12 148.833 178.366 148.373 178.21C147.921 178.054 147.676 177.556 147.832 177.102C148.284 175.779 148.603 174.426 148.751 173.051C148.803 172.575 149.225 172.233 149.7 172.286C150.174 172.338 150.515 172.761 150.463 173.237Z" fill="#101C3A"/>
<path d="M146.293 184.089C145.47 185.338 144.551 186.535 143.499 187.627C143.158 187.977 142.595 187.991 142.246 187.65C141.898 187.308 141.883 186.743 142.224 186.393C143.188 185.397 144.047 184.29 144.825 183.123C145.092 182.714 145.641 182.603 146.041 182.87C146.448 183.138 146.56 183.68 146.293 184.089Z" fill="#101C3A"/>
<path d="M137.458 191.708C136.013 192.258 134.472 192.563 132.93 192.615C132.434 192.63 132.011 192.243 131.997 191.745C131.982 191.247 132.367 190.823 132.864 190.808C134.22 190.764 135.554 190.504 136.821 190.028C137.288 189.857 137.799 190.087 137.977 190.556C138.148 191.024 137.918 191.537 137.451 191.708H137.458Z" fill="#101C3A"/>
<path d="M125.777 191.21C124.383 190.623 123.057 189.88 121.812 189.04C121.389 188.757 121.278 188.185 121.567 187.761C121.849 187.338 122.42 187.226 122.842 187.516C123.998 188.304 125.213 188.988 126.481 189.53C126.948 189.724 127.163 190.266 126.962 190.727C126.762 191.195 126.229 191.411 125.769 191.218L125.777 191.21Z" fill="#101C3A"/>
<path d="M116.44 184.304C115.44 183.197 114.514 182.03 113.661 180.811C113.365 180.387 113.469 179.8 113.891 179.503C114.313 179.205 114.899 179.309 115.195 179.733C116.003 180.893 116.878 182.008 117.819 183.056C118.16 183.435 118.13 184.029 117.752 184.371C117.374 184.713 116.789 184.683 116.44 184.304Z" fill="#101C3A"/>
<path d="M110.14 174.612C109.524 173.259 108.991 171.869 108.531 170.45C108.368 169.952 108.643 169.409 109.147 169.245C109.643 169.082 110.184 169.357 110.347 169.862C110.777 171.215 111.288 172.538 111.866 173.824C112.081 174.3 111.866 174.865 111.392 175.08C110.918 175.296 110.355 175.08 110.14 174.612Z" fill="#101C3A"/>
<path d="M106.986 163.478C106.801 161.998 106.712 160.504 106.719 159.01C106.719 158.475 107.156 158.044 107.69 158.044C108.224 158.044 108.653 158.482 108.653 159.018C108.639 160.43 108.72 161.842 108.891 163.24C108.957 163.767 108.579 164.251 108.053 164.31C107.527 164.369 107.045 163.998 106.986 163.47V163.478Z" fill="#101C3A"/>
<path d="M107.532 151.889C107.866 150.432 108.303 148.99 108.836 147.593C109.029 147.087 109.6 146.827 110.111 147.028C110.615 147.221 110.875 147.794 110.674 148.306C110.17 149.622 109.755 150.967 109.437 152.335C109.318 152.863 108.792 153.19 108.266 153.071C107.74 152.952 107.414 152.424 107.532 151.897V151.889Z" fill="#101C3A"/>
<path d="M112.149 141.23C112.979 139.989 113.898 138.8 114.883 137.685C115.246 137.269 115.884 137.231 116.299 137.596C116.714 137.96 116.751 138.599 116.388 139.015C115.454 140.071 114.594 141.186 113.801 142.353C113.49 142.806 112.875 142.925 112.423 142.62C111.971 142.308 111.845 141.691 112.156 141.238L112.149 141.23Z" fill="#101C3A"/>
<path d="M120.064 132.786C121.228 131.864 122.443 131.01 123.688 130.207C124.163 129.902 124.793 130.043 125.096 130.519C125.4 130.995 125.259 131.627 124.785 131.924C123.592 132.69 122.428 133.507 121.317 134.377C120.88 134.719 120.242 134.644 119.901 134.206C119.56 133.767 119.634 133.128 120.072 132.786H120.064Z" fill="#101C3A"/>
<path d="M129.897 126.788L131.891 125.888C132.41 125.658 133.017 125.888 133.254 126.408C133.484 126.929 133.254 127.538 132.736 127.776L132.706 127.791L130.772 128.653L130.742 128.668C130.223 128.899 129.616 128.668 129.386 128.148C129.156 127.627 129.386 127.018 129.905 126.788H129.897Z" fill="#101C3A"/>
<path d="M159.734 120.002C167.338 114.011 167.842 107.626 164.27 103.062C160.69 98.4978 154.391 97.4869 146.787 103.478C139.183 109.469 139.502 122.588 139.502 122.588C139.502 122.588 152.138 125.993 159.741 120.002H159.734Z" fill="#FF5225"/>
<path d="M161.157 115.847C166.76 111.424 167.034 106.586 164.269 103.062C161.505 99.539 156.755 98.6618 151.145 103.077C145.542 107.492 146.001 117.46 146.001 117.46C146.001 117.46 155.547 120.262 161.157 115.847Z" fill="#101C3A"/>
<path d="M253.446 31.4736C253.446 31.4736 242.723 33.6069 230.25 37.212C231.547 40.2967 233.214 43.2848 235.378 45.9979C237.55 48.7184 240.062 51.0226 242.775 52.9701C249.029 41.5306 253.469 31.4885 253.469 31.4885L253.454 31.4736H253.446Z" fill="#FF5225"/>
<path d="M180.73 50.5771C180.73 50.5771 177.121 51.4691 172.785 52.5841C173.282 53.699 173.63 54.814 174.43 55.81C175.223 56.8061 176.024 57.1629 177.002 57.8987C179.047 53.9072 180.737 50.5846 180.737 50.5846L180.73 50.5771Z" fill="#FF5225"/>
<path d="M184.793 97.4794C185.26 103.381 186.438 117.898 186.809 120.091L199.415 109.997L205.314 81.0449L184.793 97.472V97.4794Z" fill="#ACACAC"/>
<path d="M215.073 105.551C214.332 105.024 213.628 104.436 213.072 103.693C212.524 102.95 211.531 100.891 211.694 100.475C211.664 100.489 211.627 100.497 211.597 100.512C211.597 100.512 211.59 100.512 211.582 100.512C206.936 102.221 201.911 104.34 199.317 106.287C196.953 108.064 192.04 112.338 188.282 115.638C186.956 116.805 186.096 118.247 185.77 119.674C185.451 121.101 185.666 122.514 186.481 123.606C188.112 125.799 191.625 126.03 194.611 124.142C198.828 121.458 204.312 117.95 206.684 116.173C209.285 114.226 212.746 109.974 215.71 105.983C215.495 105.841 215.281 105.707 215.066 105.551H215.073Z" fill="black"/>
<path d="M156.445 94.7658L170.526 112.464C173.468 110.36 187.357 101.24 197.784 93.9779L180.464 72.2139C171.089 80.7991 159.143 92.3575 156.445 94.7732V94.7658Z" fill="#ACACAC"/>
<path d="M156.147 94.7445C154.999 95.1384 152.694 95.8297 150.641 96.5804C150.041 96.8034 149.833 97.5467 150.233 98.0522L165.952 117.809C166.352 118.315 167.123 118.27 167.471 117.735C168.657 115.899 169.843 113.795 170.48 112.762C170.688 112.428 170.666 111.997 170.414 111.684L157.178 95.0567C156.933 94.7445 156.518 94.6255 156.147 94.7519V94.7445Z" fill="black"/>
<path d="M152.523 76.9789C154.576 77.8263 168.427 82.1969 174.06 83.966L194.581 67.5389L165.13 66.8848L152.523 76.9789Z" fill="#ACACAC"/>
<path d="M166.279 101.382C163.374 97.7247 162.314 93.1087 162.996 88.5969C163.382 86.0845 164.301 83.6018 165.746 81.3422C166.561 80.0637 167.539 78.8595 168.681 77.7594C172.112 74.4443 175.921 70.7798 179.686 67.2119C182.028 64.9894 184.347 62.8115 186.548 60.7674C188.549 58.9166 190.447 57.1847 192.166 55.6535C194.063 53.9662 195.746 52.5242 197.109 51.4315C204.335 45.6411 218.245 40.6684 230.437 37.1377V37.1526C231.748 40.215 233.423 43.1808 235.572 45.879C237.714 48.5623 240.175 50.8666 242.843 52.8215C242.865 52.8438 242.887 52.8587 242.917 52.8735C238.515 60.8715 233.186 69.5682 227.865 75.9755C225.775 78.4953 223.685 80.6584 221.647 82.2936C217.779 85.3932 210.642 90.3288 203.105 95.3981C202.823 95.584 202.549 95.7698 202.267 95.9556C198.028 98.8025 193.693 101.672 189.765 104.251C188.401 105.15 186.971 105.856 185.504 106.377C183.021 107.261 180.442 107.596 177.952 107.417C177.663 107.395 177.381 107.373 177.092 107.336C172.89 106.815 168.984 104.794 166.265 101.374L166.279 101.382Z" fill="black"/>
<path d="M168.257 68.282C170.859 66.3494 174.112 61.8598 177.084 57.8831C176.869 57.7419 176.661 57.5932 176.454 57.4446C175.728 56.9094 175.053 56.285 174.497 55.5417C173.564 54.293 173.052 52.3604 173.052 52.3604C168.383 54.0551 163.537 56.4262 160.928 58.3588C158.549 60.1205 153.628 64.3871 149.856 67.6725C147.195 69.9916 146.402 73.4331 148.033 75.6333C149.582 77.7294 152.835 78.0491 155.725 76.4435C155.874 76.3618 156.014 76.28 156.155 76.1908C160.379 73.5298 165.878 70.0436 168.25 68.2746L168.257 68.282Z" fill="black"/>
<path d="M219.459 98.7285C219.459 98.7285 215.835 99.5759 211.492 100.646C211.974 101.769 212.315 102.884 213.1 103.887C213.886 104.898 214.679 105.262 215.65 106.005C217.74 102.036 219.466 98.7359 219.466 98.7359L219.459 98.7285Z" fill="#FF5225"/>
<path d="M193.382 88.0471C190.551 90.3216 186.416 89.8607 184.148 87.0213C181.88 84.1819 182.34 80.0342 185.171 77.7597C188.002 75.4852 192.137 75.946 194.405 78.7854C196.673 81.6249 196.213 85.7725 193.382 88.0471Z" fill="#101C3A"/>
<path d="M192.539 86.9837C190.293 88.7825 187.017 88.4183 185.216 86.1661C183.416 83.9139 183.786 80.6285 186.032 78.8222C188.277 77.0234 191.553 77.3876 193.354 79.6399C195.147 81.8921 194.784 85.1775 192.539 86.9837Z" fill="#D9D9D9"/>
<path d="M225.456 62.3059C222.625 64.5804 218.49 64.1195 216.222 61.2801C213.954 58.4406 214.414 54.293 217.245 52.0185C220.076 49.744 224.211 50.2048 226.479 53.0442C228.747 55.8837 228.287 60.0313 225.456 62.3059Z" fill="#101C3A"/>
<path d="M224.606 61.2435C222.36 63.0423 219.085 62.6781 217.284 60.4259C215.49 58.1736 215.853 54.8882 218.099 53.082C220.344 51.2832 223.62 51.6474 225.421 53.8996C227.222 56.1518 226.851 59.4373 224.606 61.2435Z" fill="#D9D9D9"/>
<path d="M211.175 76.5777C207.403 79.6104 201.889 78.9935 198.866 75.21C195.842 71.4192 196.457 65.8964 200.229 62.8637C204.009 59.831 209.515 60.4479 212.539 64.2314C215.563 68.0222 214.948 73.545 211.175 76.5777Z" fill="#101C3A"/>
<path d="M210.04 75.1578C207.046 77.5587 202.681 77.0755 200.28 74.0726C197.886 71.0696 198.368 66.6915 201.362 64.2832C204.356 61.8823 208.721 62.3655 211.115 65.3684C213.508 68.3714 213.027 72.7495 210.033 75.1578H210.04Z" fill="#D9D9D9"/>
</svg>
