<svg width="272" height="244" viewBox="0 0 272 244" fill="none" xmlns="http://www.w3.org/2000/svg">
<path d="M193.794 167.028C177.429 171.579 146.51 203.292 165.677 218.166C184.85 233.039 242.115 153.595 193.794 167.028Z" fill="#ECF2FA"/>
<path d="M198.218 162.22C128.833 176.405 149.648 212.613 103.35 221.145C40.8864 232.651 11.5957 138.702 50.754 80.7223C82.0481 34.3863 136.03 19.7505 183.863 38.7808C251.426 65.6609 252.98 151.028 198.212 162.227L198.218 162.22Z" fill="#ECF2FA"/>
<mask id="mask0_2172_9290" style="mask-type:luminance" maskUnits="userSpaceOnUse" x="30" y="79" width="209" height="144">
<path d="M238.566 79.5273H30.9219V222.116H238.566V79.5273Z" fill="white"/>
</mask>
<g mask="url(#mask0_2172_9290)">
<path d="M115.934 204.663H229.445V300.471H115.934V204.663ZM227.797 206.309H117.575V298.819H227.797V206.309Z" fill="#1A120E"/>
<path d="M70.1719 204.663H197.664V300.471H70.1719V204.663ZM196.016 206.309H71.8196V298.819H196.016V206.309Z" fill="#1A120E"/>
<path d="M235.807 198.578H62.4531V204.757H235.807V198.578Z" fill="#333333"/>
<path d="M235.806 198.578H192.547V204.757H235.806V198.578Z" fill="#1A120E"/>
<path d="M185.854 198.453H168.566L162.299 165.701C161.295 160.455 165.308 155.585 170.638 155.585C174.707 155.585 178.202 158.483 178.97 162.49L185.854 198.447V198.453Z" fill="#757575"/>
<path d="M186.104 198.409L183.695 185.82L183.651 185.57L183.602 185.32L183.289 183.686L183.152 182.978L182.247 178.24L179.226 162.458C178.434 158.339 174.826 155.341 170.644 155.341C168.029 155.341 165.57 156.499 163.904 158.521C162.237 160.543 161.563 163.185 162.056 165.757L164.447 178.233L165.352 182.972L165.489 183.68L165.801 185.313L165.851 185.564L165.895 185.814L167.686 195.179L167.705 195.279L167.755 195.536L167.805 195.786L167.823 195.886L168.267 198.203L168.31 198.453L168.36 198.703H186.16L186.098 198.403L186.104 198.409ZM168.778 198.203L168.335 195.886L168.316 195.786L168.267 195.536L168.217 195.279L168.198 195.179L166.407 185.814L166.357 185.564L166.307 185.313L165.995 183.68L165.864 182.972L164.952 178.233L162.543 165.663C162.081 163.235 162.712 160.749 164.285 158.846C165.857 156.943 168.167 155.848 170.632 155.848C174.57 155.848 177.972 158.665 178.721 162.546L181.723 178.233L182.634 182.972L182.771 183.68L183.083 185.313L183.127 185.564L183.177 185.814L185.549 198.196H168.778V198.203Z" fill="#1A120E"/>
<path d="M168.325 191.142L169.017 191.011L164.105 165.364C163.731 163.405 164.243 161.401 165.51 159.861C166.777 158.321 168.643 157.439 170.634 157.439C173.817 157.439 176.563 159.711 177.162 162.847L180.096 178.172L180.788 178.04L177.855 162.716C177.193 159.248 174.154 156.731 170.634 156.731C168.431 156.731 166.365 157.708 164.967 159.411C163.569 161.113 163.001 163.329 163.413 165.495L168.325 191.142Z" fill="#1A120E"/>
<path d="M182.151 195.536H136.371V198.46H182.151V195.536Z" fill="#757575"/>
<path d="M136.113 195.279V198.71H182.399V195.279H136.113ZM181.894 198.203H136.625V195.786H181.894V198.203Z" fill="#1A120E"/>
<path d="M173.915 195.18H136.367V195.887H173.915V195.18Z" fill="#1A120E"/>
<path d="M114.307 185.564H212.995C215.629 185.564 217.838 183.567 218.113 180.945L224.354 121.15C224.672 118.107 222.288 115.453 219.236 115.453H120.548C117.914 115.453 115.705 117.45 115.43 120.073L109.189 179.868C108.87 182.916 111.255 185.564 114.307 185.564Z" fill="#757575"/>
<path d="M223.248 116.987C222.225 115.854 220.764 115.196 219.241 115.196H120.553C117.782 115.196 115.473 117.281 115.186 120.041L108.944 179.836C108.782 181.358 109.281 182.885 110.305 184.024C111.328 185.164 112.789 185.815 114.312 185.815H213C215.771 185.815 218.081 183.73 218.368 180.963L221.701 149.012L224.609 121.168C224.765 119.641 224.272 118.12 223.255 116.98L223.248 116.987ZM224.103 121.124L221.189 149.019L217.862 180.913C217.606 183.417 215.515 185.314 213 185.314H114.312C112.926 185.314 111.603 184.719 110.679 183.686C109.756 182.66 109.306 181.27 109.45 179.893L115.691 120.098C115.947 117.594 118.044 115.703 120.553 115.703H219.241C220.627 115.703 221.95 116.298 222.874 117.325C223.798 118.358 224.247 119.741 224.103 121.118V121.124Z" fill="#1A120E"/>
<path d="M221.943 120.899L215.957 178.234H111.789L117.837 120.329C117.98 118.934 119.148 117.882 120.546 117.882H219.234C220.014 117.882 220.732 118.201 221.256 118.783C221.774 119.365 222.024 120.117 221.943 120.899Z" fill="#CFE0FA"/>
<path d="M221.945 120.899L215.96 178.234H151.961L158.283 117.882H219.236C220.017 117.882 220.734 118.201 221.259 118.783C221.777 119.365 222.026 120.117 221.945 120.899Z" fill="white"/>
<path d="M114.306 183.68H212.994C213.106 183.68 213.213 183.68 213.319 183.662L213.25 182.96C213.163 182.967 213.081 182.973 212.994 182.973H114.306C113.569 182.973 112.895 182.672 112.402 182.122C111.909 181.577 111.684 180.87 111.759 180.137L118.001 120.349C118.138 119.034 119.23 118.051 120.547 118.051V117.344C118.868 117.344 117.476 118.608 117.302 120.28L111.06 180.068C110.967 181.001 111.254 181.902 111.884 182.604C112.515 183.305 113.376 183.687 114.312 183.687L114.306 183.68Z" fill="#1A120E"/>
<path d="M121.504 150.371H150.988L154.09 120.799H124.6L121.504 150.371Z" fill="#333333"/>
<path d="M148.697 148.349L141.862 131.178L135.584 142.02L132.575 136.286L124.262 148.274L148.697 148.349Z" fill="#FF5225"/>
<path d="M134.649 129.175C134.549 130.233 135.323 131.084 136.378 131.071C137.433 131.059 138.369 130.195 138.469 129.137C138.569 128.079 137.795 127.234 136.74 127.24C135.685 127.253 134.749 128.117 134.649 129.175Z" fill="white"/>
<path d="M149.04 148.493L149.339 148.224L126.546 122.677L126.246 122.952L149.04 148.493Z" fill="white"/>
<path d="M123.845 148.493L151.987 122.952L151.744 122.677L123.602 148.224L123.845 148.493Z" fill="white"/>
<path d="M124.205 148.73C124.829 148.73 124.929 148.593 124.948 148.449C124.96 148.311 124.892 148.167 124.267 148.167C123.643 148.167 123.537 148.311 123.525 148.449C123.512 148.593 123.581 148.73 124.205 148.73Z" fill="white"/>
<path d="M126.291 148.73C126.915 148.73 127.015 148.593 127.034 148.449C127.046 148.311 126.978 148.167 126.353 148.167C125.729 148.167 125.623 148.311 125.611 148.449C125.598 148.593 125.667 148.73 126.291 148.73Z" fill="white"/>
<path d="M128.373 148.73C128.997 148.73 129.097 148.593 129.116 148.449C129.128 148.311 129.06 148.167 128.435 148.167C127.811 148.167 127.705 148.311 127.693 148.449C127.68 148.593 127.749 148.73 128.373 148.73Z" fill="white"/>
<path d="M130.459 148.73C131.083 148.73 131.183 148.593 131.202 148.449C131.214 148.311 131.145 148.167 130.521 148.167C129.897 148.167 129.791 148.311 129.779 148.449C129.766 148.593 129.835 148.73 130.459 148.73Z" fill="white"/>
<path d="M132.545 148.73C133.169 148.73 133.269 148.593 133.288 148.449C133.3 148.311 133.231 148.167 132.607 148.167C131.983 148.167 131.883 148.311 131.865 148.449C131.852 148.593 131.921 148.73 132.545 148.73Z" fill="white"/>
<path d="M134.627 148.73C135.251 148.73 135.351 148.593 135.37 148.449C135.382 148.311 135.313 148.167 134.689 148.167C134.065 148.167 133.965 148.311 133.947 148.449C133.934 148.593 134.003 148.73 134.627 148.73Z" fill="white"/>
<path d="M136.713 148.73C137.337 148.73 137.437 148.593 137.456 148.449C137.468 148.311 137.399 148.167 136.775 148.167C136.151 148.167 136.051 148.311 136.033 148.449C136.02 148.593 136.089 148.73 136.713 148.73Z" fill="white"/>
<path d="M138.799 148.73C139.423 148.73 139.523 148.593 139.541 148.449C139.554 148.311 139.485 148.167 138.861 148.167C138.237 148.167 138.137 148.311 138.118 148.449C138.106 148.593 138.175 148.73 138.799 148.73Z" fill="white"/>
<path d="M140.889 148.73C141.513 148.73 141.613 148.593 141.631 148.449C141.644 148.311 141.575 148.167 140.951 148.167C140.327 148.167 140.221 148.311 140.208 148.449C140.196 148.593 140.264 148.73 140.889 148.73Z" fill="white"/>
<path d="M142.975 148.73C143.599 148.73 143.699 148.593 143.717 148.449C143.73 148.311 143.661 148.167 143.037 148.167C142.413 148.167 142.313 148.311 142.294 148.449C142.282 148.593 142.35 148.73 142.975 148.73Z" fill="white"/>
<path d="M145.058 148.73C145.682 148.73 145.782 148.593 145.801 148.449C145.813 148.311 145.744 148.167 145.12 148.167C144.496 148.167 144.396 148.311 144.377 148.449C144.359 148.593 144.434 148.73 145.058 148.73Z" fill="white"/>
<path d="M147.143 148.73C147.767 148.73 147.867 148.593 147.885 148.449C147.898 148.311 147.829 148.167 147.205 148.167C146.581 148.167 146.475 148.311 146.462 148.449C146.45 148.593 146.518 148.73 147.143 148.73Z" fill="white"/>
<path d="M148.859 148.836L149.015 148.73C149.059 148.73 149.102 148.73 149.146 148.73H149.427L149.471 148.373C149.471 148.367 149.471 148.361 149.471 148.348L149.683 148.154H149.483C149.502 147.722 149.383 147.653 149.258 147.653C149.127 147.653 149.003 147.722 148.928 148.185C148.722 148.217 148.559 148.286 148.541 148.448C148.522 148.611 148.666 148.68 148.865 148.711L148.853 148.836H148.859Z" fill="white"/>
<path d="M149.334 146.996C149.471 146.996 149.627 146.908 149.69 146.282C149.759 145.65 149.621 145.568 149.484 145.568C149.34 145.568 149.197 145.656 149.128 146.282C149.06 146.908 149.191 146.996 149.334 146.996Z" fill="white"/>
<path d="M149.553 144.905C149.69 144.905 149.84 144.817 149.909 144.191C149.977 143.565 149.84 143.478 149.703 143.478C149.565 143.478 149.416 143.565 149.347 144.191C149.278 144.817 149.409 144.905 149.553 144.905Z" fill="white"/>
<path d="M149.768 142.808C149.905 142.808 150.061 142.72 150.123 142.094C150.192 141.462 150.055 141.381 149.918 141.381C149.78 141.381 149.63 141.468 149.562 142.094C149.493 142.72 149.624 142.808 149.768 142.808Z" fill="white"/>
<path d="M149.986 140.717C150.124 140.717 150.28 140.63 150.342 140.004C150.411 139.378 150.274 139.29 150.136 139.29C149.993 139.29 149.849 139.378 149.781 140.004C149.712 140.63 149.843 140.717 149.986 140.717Z" fill="white"/>
<path d="M150.205 138.626C150.343 138.626 150.492 138.539 150.561 137.913C150.63 137.287 150.492 137.199 150.355 137.199C150.218 137.199 150.068 137.287 149.999 137.913C149.931 138.539 150.062 138.626 150.205 138.626Z" fill="white"/>
<path d="M150.424 136.536C150.561 136.536 150.717 136.448 150.78 135.822C150.848 135.196 150.711 135.108 150.574 135.108C150.43 135.108 150.287 135.196 150.218 135.822C150.149 136.448 150.28 136.536 150.424 136.536Z" fill="white"/>
<path d="M150.651 134.445C150.788 134.445 150.944 134.357 151.006 133.731C151.075 133.099 150.938 133.018 150.8 133.018C150.663 133.018 150.513 133.105 150.445 133.731C150.376 134.357 150.507 134.445 150.651 134.445Z" fill="white"/>
<path d="M150.869 132.354C151.007 132.354 151.156 132.266 151.225 131.64C151.294 131.014 151.156 130.927 151.019 130.927C150.882 130.927 150.732 131.014 150.663 131.64C150.595 132.266 150.726 132.354 150.869 132.354Z" fill="white"/>
<path d="M151.088 130.263C151.225 130.263 151.381 130.176 151.444 129.55C151.512 128.917 151.375 128.836 151.238 128.836C151.094 128.836 150.951 128.924 150.882 129.55C150.813 130.176 150.944 130.263 151.088 130.263Z" fill="white"/>
<path d="M151.307 128.172C151.444 128.172 151.594 128.085 151.663 127.459C151.731 126.833 151.594 126.745 151.457 126.745C151.319 126.745 151.169 126.833 151.101 127.459C151.032 128.085 151.163 128.172 151.307 128.172Z" fill="white"/>
<path d="M151.522 126.075C151.659 126.075 151.815 125.987 151.877 125.361C151.946 124.729 151.809 124.647 151.671 124.647C151.534 124.647 151.384 124.735 151.316 125.361C151.247 125.987 151.378 126.075 151.522 126.075Z" fill="white"/>
<path d="M150.107 123.189C150.731 123.189 150.831 123.045 150.85 122.908C150.863 122.764 150.794 122.626 150.17 122.626C149.546 122.626 149.446 122.764 149.427 122.908C149.415 123.045 149.483 123.189 150.107 123.189Z" fill="white"/>
<path d="M148.021 123.189C148.646 123.189 148.745 123.045 148.764 122.908C148.783 122.764 148.708 122.626 148.084 122.626C147.46 122.626 147.36 122.764 147.341 122.908C147.329 123.045 147.397 123.189 148.021 123.189Z" fill="white"/>
<path d="M145.935 123.189C146.56 123.189 146.659 123.045 146.678 122.908C146.691 122.764 146.622 122.626 145.998 122.626C145.374 122.626 145.274 122.764 145.255 122.908C145.243 123.045 145.311 123.189 145.935 123.189Z" fill="white"/>
<path d="M143.853 123.189C144.478 123.189 144.577 123.045 144.596 122.908C144.609 122.764 144.54 122.626 143.916 122.626C143.292 122.626 143.192 122.764 143.173 122.908C143.161 123.045 143.229 123.189 143.853 123.189Z" fill="white"/>
<path d="M141.764 123.189C142.388 123.189 142.488 123.045 142.506 122.908C142.519 122.764 142.45 122.626 141.826 122.626C141.202 122.626 141.102 122.764 141.083 122.908C141.071 123.045 141.139 123.189 141.764 123.189Z" fill="white"/>
<path d="M139.678 123.189C140.308 123.189 140.402 123.045 140.42 122.908C140.433 122.764 140.364 122.626 139.74 122.626C139.116 122.626 139.016 122.764 138.997 122.908C138.985 123.045 139.054 123.189 139.678 123.189Z" fill="white"/>
<path d="M137.592 123.189C138.216 123.189 138.316 123.045 138.334 122.908C138.347 122.764 138.278 122.626 137.654 122.626C137.03 122.626 136.93 122.764 136.911 122.908C136.899 123.045 136.968 123.189 137.592 123.189Z" fill="white"/>
<path d="M135.51 123.189C136.134 123.189 136.234 123.045 136.252 122.908C136.265 122.764 136.196 122.626 135.572 122.626C134.948 122.626 134.848 122.764 134.829 122.908C134.817 123.045 134.886 123.189 135.51 123.189Z" fill="white"/>
<path d="M133.424 123.189C134.054 123.189 134.154 123.045 134.166 122.908C134.179 122.764 134.11 122.626 133.486 122.626C132.862 122.626 132.762 122.764 132.743 122.908C132.731 123.045 132.8 123.189 133.424 123.189Z" fill="white"/>
<path d="M131.338 123.189C131.968 123.189 132.068 123.045 132.081 122.908C132.093 122.764 132.024 122.626 131.4 122.626C130.776 122.626 130.676 122.764 130.658 122.908C130.645 123.045 130.714 123.189 131.338 123.189Z" fill="white"/>
<path d="M129.256 123.189C129.886 123.189 129.986 123.045 129.999 122.908C130.011 122.764 129.942 122.626 129.318 122.626C128.694 122.626 128.594 122.764 128.575 122.908C128.563 123.045 128.632 123.189 129.256 123.189Z" fill="white"/>
<path d="M127.17 123.189C127.8 123.189 127.894 123.045 127.913 122.908C127.925 122.764 127.856 122.626 127.232 122.626C126.608 122.626 126.508 122.764 126.49 122.908C126.477 123.045 126.546 123.189 127.17 123.189Z" fill="white"/>
<path d="M126.179 124.898C126.323 124.898 126.466 124.81 126.535 124.184C126.603 123.558 126.472 123.471 126.329 123.471C126.185 123.471 126.035 123.558 125.973 124.184C125.911 124.81 126.042 124.898 126.179 124.898Z" fill="white"/>
<path d="M125.959 126.996C126.102 126.996 126.246 126.908 126.314 126.282C126.383 125.656 126.252 125.568 126.108 125.568C125.965 125.568 125.815 125.656 125.753 126.282C125.684 126.908 125.821 126.996 125.959 126.996Z" fill="white"/>
<path d="M125.74 129.086C125.883 129.086 126.027 128.999 126.096 128.373C126.158 127.747 126.033 127.659 125.89 127.659C125.746 127.659 125.596 127.747 125.534 128.373C125.465 129.005 125.603 129.086 125.74 129.086Z" fill="white"/>
<path d="M125.523 131.177C125.666 131.177 125.81 131.09 125.878 130.464C125.947 129.838 125.816 129.75 125.673 129.75C125.529 129.75 125.379 129.838 125.317 130.464C125.254 131.09 125.385 131.177 125.523 131.177Z" fill="white"/>
<path d="M125.302 133.268C125.446 133.268 125.589 133.18 125.658 132.554C125.727 131.928 125.596 131.841 125.452 131.841C125.309 131.841 125.159 131.928 125.096 132.554C125.028 133.187 125.165 133.268 125.302 133.268Z" fill="white"/>
<path d="M125.084 135.359C125.227 135.359 125.371 135.271 125.439 134.645C125.508 134.019 125.377 133.932 125.233 133.932C125.09 133.932 124.94 134.019 124.878 134.645C124.809 135.271 124.946 135.359 125.084 135.359Z" fill="white"/>
<path d="M124.865 137.45C125.008 137.45 125.152 137.362 125.221 136.736C125.283 136.11 125.158 136.022 125.015 136.022C124.871 136.022 124.721 136.11 124.659 136.736C124.59 137.368 124.728 137.45 124.865 137.45Z" fill="white"/>
<path d="M124.642 139.541C124.786 139.541 124.929 139.453 124.998 138.827C125.067 138.201 124.936 138.113 124.792 138.113C124.648 138.113 124.499 138.201 124.436 138.827C124.368 139.453 124.505 139.541 124.642 139.541Z" fill="white"/>
<path d="M124.423 141.637C124.567 141.637 124.711 141.55 124.779 140.924C124.848 140.298 124.717 140.21 124.573 140.21C124.43 140.21 124.28 140.298 124.217 140.924C124.149 141.55 124.286 141.637 124.423 141.637Z" fill="white"/>
<path d="M124.205 143.722C124.348 143.722 124.492 143.635 124.56 143.009C124.629 142.383 124.498 142.295 124.354 142.295C124.211 142.295 124.061 142.383 123.999 143.009C123.93 143.635 124.067 143.722 124.205 143.722Z" fill="white"/>
<path d="M123.986 145.819C124.13 145.819 124.273 145.731 124.342 145.105C124.41 144.479 124.279 144.392 124.136 144.392C123.992 144.392 123.842 144.479 123.78 145.105C123.711 145.731 123.849 145.819 123.986 145.819Z" fill="white"/>
<path d="M123.767 147.91C123.911 147.91 124.054 147.822 124.123 147.196C124.192 146.57 124.061 146.482 123.917 146.482C123.773 146.482 123.624 146.57 123.561 147.196C123.493 147.822 123.63 147.91 123.767 147.91Z" fill="white"/>
<path d="M122.695 149.137H124.58L124.78 147.246H122.895L122.695 149.137Z" fill="white"/>
<path d="M122.725 147.059L122.488 149.331H124.754L124.991 147.059H122.725ZM124.417 148.949H122.913L123.069 147.44H124.573L124.417 148.949Z" fill="white"/>
<path d="M148.133 149.393H150.024L150.217 147.503H148.333L148.133 149.393Z" fill="white"/>
<path d="M148.159 147.315L147.922 149.588H150.194L150.431 147.315H148.159ZM149.85 149.206H148.346L148.502 147.704H150.006L149.85 149.206Z" fill="white"/>
<path d="M125.363 123.666H127.248L127.448 121.775H125.563L125.363 123.666Z" fill="white"/>
<path d="M125.39 121.581L125.152 123.86H127.418L127.655 121.581H125.39ZM127.081 123.478H125.577L125.733 121.969H127.237L127.081 123.478Z" fill="white"/>
<path d="M150.809 123.853H152.7L152.893 121.963H151.008L150.809 123.853Z" fill="white"/>
<path d="M150.835 121.775L150.598 124.048H152.87L153.107 121.775H150.835ZM152.526 123.666H151.022L151.178 122.157H152.682L152.526 123.666Z" fill="white"/>
<path d="M147.479 161.25H120.261L120.148 162.308H147.367L147.479 161.25Z" fill="#1A120E"/>
<path d="M129.317 157.513H120.647L120.535 158.577H129.211L129.317 157.513Z" fill="#1A120E"/>
<path d="M139.14 157.513H133.073L132.961 158.577H139.028L139.14 157.513Z" fill="#1A120E"/>
<path d="M139.217 153.782H121.042L120.93 154.846H139.111L139.217 153.782Z" fill="#1A120E"/>
<path d="M150.63 153.782H141.655L141.543 154.846H150.518L150.63 153.782Z" fill="#1A120E"/>
<path d="M143.393 172.712H119.058L118.945 173.77H143.28L143.393 172.712Z" fill="#1A120E"/>
<path d="M128.121 168.975H119.452L119.34 170.039H128.009L128.121 168.975Z" fill="#1A120E"/>
<path d="M147.867 168.975H131.87L131.758 170.039H147.754L147.867 168.975Z" fill="#1A120E"/>
<path d="M138.018 165.244H119.837L119.73 166.308H137.905L138.018 165.244Z" fill="#1A120E"/>
<path d="M149.429 165.244H140.454L140.348 166.308H149.323L149.429 165.244Z" fill="#1A120E"/>
<path d="M183.536 198.679C183.536 198.679 181.926 189.934 174.455 189.934C166.16 189.934 162.509 194.841 160.512 198.591L183.536 198.679Z" fill="#1A120E"/>
<path d="M70.3171 249.898C78.1064 252.521 92.2867 251.156 106.991 251.156C121.696 251.156 150.356 253.072 158.869 249.228C164.942 246.492 178.836 237.247 169.143 224.007C159.45 210.767 78.2187 208.169 69.6993 207.837C61.1798 207.499 49.4273 242.862 70.3109 249.904L70.3171 249.898Z" fill="#1A120E"/>
<path d="M60.2807 120.211C60.2807 120.211 60.2682 120.192 60.262 120.179C59.4568 118.971 55.7619 114.232 55.3687 106.583C55.0816 100.993 61.4041 94.3822 73.7558 93.919C80.1532 93.6811 79.2107 104.279 80.1656 109.606C81.2392 115.578 80.6712 124.975 76.1462 126.183C75.5907 126.333 74.6358 126.289 73.4562 126.108L70.6975 134.258C70.6975 134.258 60.7113 136.787 56.4735 129.995L60.2807 120.217V120.211Z" fill="#FFBCB0"/>
<path d="M77.3461 98.4321C76.7532 98.7639 74.9058 99.6465 74.9058 99.6465C74.9058 99.6465 74.7747 104.511 74.1942 106.363C73.6138 108.216 74.9994 111.96 71.5167 107.378C68.034 102.795 72.5091 113.249 66.8045 117.575C61.0999 121.907 59.6394 123.522 59.6394 123.522C59.6394 123.522 58.6283 121.093 56.8682 120.617C55.1082 120.142 49.7531 114.602 48.9792 106.964C48.2052 99.3273 51.4632 96.4602 58.1228 94.576C64.7823 92.6917 62.1484 90.025 66.2989 88.8982C70.4557 87.7714 75.4051 82.2627 75.4051 82.2627C75.4051 82.2627 82.8073 95.4023 77.3461 98.4321Z" fill="#1A120E"/>
<path d="M75.1617 132.23C87.1451 136.455 90.584 145.914 97.1687 173.245C103.753 200.582 107.411 203.343 109.639 210.936C109.639 210.936 91.1333 225.803 77.2837 251.181C77.2837 251.181 32.8203 255.82 35.7163 217.609C38.6123 179.398 33.4382 170.979 35.1421 156.719C36.846 142.458 46.8009 129.913 54.9958 129.137C61.749 128.492 65.912 128.962 75.1617 132.223V132.23Z" fill="#2D2D2D"/>
<path d="M65.2641 113.068C66.5436 115.284 69.115 116.191 71.0124 115.09C72.9035 113.988 73.4028 111.302 72.1233 109.086C70.8438 106.87 68.2724 105.963 66.375 107.064C64.4839 108.166 63.9846 110.852 65.2641 113.068Z" fill="#FFBCB0"/>
<path d="M70.5634 113.794C70.657 113.769 70.7507 113.731 70.838 113.681C71.4372 113.312 71.5808 112.329 71.5995 112.216L70.9005 112.123C70.8692 112.367 70.7195 112.924 70.4698 113.074C70.4199 113.105 70.3512 113.13 70.2201 113.087C69.983 113.005 69.9643 112.911 69.9143 112.536C69.8581 112.097 69.777 111.497 69.053 110.952C68.5412 110.57 68.0294 110.451 67.6237 110.363C67.0059 110.226 66.8623 110.188 66.8997 109.556C66.9122 109.343 66.9996 109.174 67.1619 109.03C67.7049 108.554 68.9282 108.529 69.3526 108.561L69.4025 107.853C69.3276 107.853 67.5738 107.728 66.7 108.498C66.3942 108.767 66.2257 109.111 66.2007 109.512C66.1258 110.752 66.8436 110.914 67.4739 111.052C67.8359 111.133 68.2479 111.227 68.6348 111.522C69.1217 111.891 69.1716 112.248 69.2215 112.63C69.2715 113.03 69.3401 113.525 69.9955 113.756C70.1952 113.825 70.3887 113.838 70.5759 113.8L70.5634 113.794Z" fill="#1A120E"/>
<path d="M149.235 144.167C143.468 144.924 141.146 145.419 139.442 152.505C138.787 155.235 138.575 157.845 138.562 160.03C138.207 160.318 137.826 160.624 137.445 160.937C137.37 160.987 137.302 161.038 137.239 161.106C137.239 161.106 137.239 161.106 137.233 161.113C133.363 164.293 128.395 168.587 124.189 172.299C122.709 173.463 121.23 174.628 119.782 175.798C115.313 170.928 109.952 165.407 109.952 165.407C97.6752 154.258 79.1696 171.786 87.402 182.597C95.6343 193.414 109.365 202.303 116.974 203.737C117.791 203.893 118.578 203.837 119.333 203.624C121.717 203.442 124.313 202.028 126.928 198.804C134.256 189.752 144.835 168.074 146.133 165.382C146.395 164.981 146.645 164.612 146.882 164.28C146.988 164.136 147.051 163.973 147.094 163.804C147.169 163.685 147.213 163.56 147.219 163.429C147.35 161.626 147.537 160.699 147.843 160.18C149.322 157.682 148.754 155.366 147.731 153.607C148.567 153.763 149.379 153.939 150.015 154.164C152.094 154.909 154.603 154.433 155.096 153.532C155.589 152.637 152.062 151.397 152.062 151.397C152.062 151.397 157.305 152.925 156.257 150.389C155.208 147.848 149.528 148.011 147.232 148.286C146.963 148.317 146.714 148.361 146.476 148.405C147.843 147.71 149.678 147.259 150.427 146.859C151.707 146.176 154.996 143.397 149.229 144.148L149.235 144.167Z" fill="#FFBCB0"/>
<path d="M66.9804 136.543C63.1669 139.053 59.6156 143.397 62.9547 154.002C66.2939 164.606 79.3196 181.358 91.7024 192.131C91.7024 192.131 113.915 181.045 112.155 165.407C112.155 165.407 93.1317 144.117 85.8293 138.49C78.5332 132.856 71.1871 133.782 66.9804 136.549V136.543Z" fill="#2D2D2D"/>
<path d="M86.8258 174.79C88.5672 174.79 89.7094 174.515 89.7468 174.509L89.5783 173.82C89.4847 173.845 79.7481 176.136 73.9312 166.696L73.332 167.066C77.4076 173.676 83.3244 174.784 86.8321 174.784L86.8258 174.79Z" fill="white"/>
<path d="M91.8372 192.744L92.0494 192.644C92.1368 192.606 100.569 188.556 106.517 181.432L105.974 180.976C100.65 187.354 93.2915 191.229 91.9558 191.899C89.996 190.103 72.3767 173.645 65.1991 158.252L64.5625 158.552C72.1832 174.903 91.469 192.412 91.6625 192.588L91.8372 192.744Z" fill="white"/>
<path d="M175.243 135.066H166.118C165.382 135.066 164.845 134.465 164.926 133.726L165.887 124.574C165.962 123.835 166.624 123.234 167.36 123.234H176.485C177.222 123.234 177.758 123.835 177.677 124.574L176.716 133.726C176.641 134.465 175.98 135.066 175.237 135.066H175.243Z" fill="#2D2D2D"/>
<path d="M173.34 127.466C173.227 128.643 172.235 129.601 171.124 129.601C170.013 129.601 169.202 128.656 169.32 127.479C169.432 126.302 170.425 125.344 171.536 125.338C172.647 125.338 173.458 126.283 173.34 127.46V127.466Z" fill="white"/>
<path d="M168.172 132.311C168.322 130.734 169.539 130.627 171.03 130.621C172.522 130.621 173.72 130.715 173.564 132.292L168.172 132.311Z" fill="white"/>
<path d="M173.264 153.97H164.139C163.402 153.97 162.866 153.369 162.941 152.63L163.902 143.478C163.977 142.74 164.638 142.139 165.381 142.139H174.506C175.242 142.139 175.779 142.74 175.704 143.478L174.743 152.63C174.668 153.369 174.006 153.97 173.264 153.97Z" fill="#2D2D2D"/>
<path d="M171.355 146.37C171.243 147.547 170.25 148.505 169.139 148.511C168.029 148.511 167.217 147.566 167.336 146.389C167.448 145.212 168.44 144.254 169.551 144.248C170.662 144.248 171.474 145.193 171.355 146.37Z" fill="white"/>
<path d="M166.188 151.221C166.337 149.644 167.554 149.531 169.046 149.531C170.538 149.531 171.73 149.625 171.58 151.203L166.188 151.221Z" fill="white"/>
<path d="M171.279 172.875H162.155C161.418 172.875 160.881 172.274 160.956 171.536L161.917 162.384C161.992 161.645 162.654 161.044 163.397 161.044H172.521C173.258 161.044 173.795 161.645 173.714 162.384L172.752 171.536C172.677 172.274 172.016 172.875 171.273 172.875H171.279Z" fill="#2D2D2D"/>
<path d="M169.375 165.276C169.262 166.453 168.27 167.41 167.159 167.41C166.048 167.41 165.237 166.465 165.355 165.288C165.468 164.111 166.46 163.154 167.571 163.147C168.682 163.147 169.493 164.093 169.375 165.27V165.276Z" fill="white"/>
<path d="M164.207 170.128C164.357 168.55 165.58 168.438 167.066 168.438C168.557 168.438 169.756 168.531 169.6 170.109L164.207 170.128Z" fill="white"/>
<g opacity="0.5">
<path d="M215.706 134.814H179.219V135.315H215.706V134.814Z" fill="#1A120E"/>
</g>
<g opacity="0.5">
<path d="M213.264 153.119H176.777V153.62H213.264V153.119Z" fill="#1A120E"/>
</g>
<g opacity="0.5">
<path d="M212.19 171.761H175.703V172.262H212.19V171.761Z" fill="#1A120E"/>
</g>
<g opacity="0.5">
<path d="M194.521 131.466L194.608 130.458H181.214L181.133 131.466H194.521Z" fill="#1A120E"/>
</g>
<g opacity="0.5">
<path d="M192.593 128.43L192.68 127.422H181.396L181.309 128.43H192.593Z" fill="#1A120E"/>
</g>
<g opacity="0.5">
<path d="M209.087 131.466L209.174 130.458H195.787L195.699 131.466H209.087Z" fill="#1A120E"/>
</g>
<g opacity="0.5">
<path d="M207.167 128.43L207.248 127.422H195.964L195.883 128.43H207.167Z" fill="#1A120E"/>
</g>
<g opacity="0.5">
<path d="M189.566 125.5L189.647 124.492H181.876L181.789 125.5H189.566Z" fill="#1A120E"/>
</g>
<g opacity="0.5">
<path d="M191.611 125.5L191.699 124.492H190.169L190.082 125.5H191.611Z" fill="#1A120E"/>
</g>
<g opacity="0.5">
<path d="M204.134 125.5L204.221 124.492H196.444L196.363 125.5H204.134Z" fill="#1A120E"/>
</g>
<g opacity="0.5">
<path d="M206.178 125.5L206.265 124.492H204.736L204.648 125.5H206.178Z" fill="#1A120E"/>
</g>
<g opacity="0.5">
<path d="M192.05 151.016L192.131 150.008H178.744L178.656 151.016H192.05Z" fill="#1A120E"/>
</g>
<g opacity="0.5">
<path d="M190.12 147.974L190.201 146.966H178.917L178.836 147.974H190.12Z" fill="#1A120E"/>
</g>
<g opacity="0.5">
<path d="M206.617 151.016L206.698 150.008H193.31L193.223 151.016H206.617Z" fill="#1A120E"/>
</g>
<g opacity="0.5">
<path d="M204.691 147.974L204.772 146.966H193.487L193.406 147.974H204.691Z" fill="#1A120E"/>
</g>
<g opacity="0.5">
<path d="M187.087 145.05L187.174 144.042H179.398L179.316 145.05H187.087Z" fill="#1A120E"/>
</g>
<g opacity="0.5">
<path d="M189.135 145.05L189.222 144.042H187.693L187.605 145.05H189.135Z" fill="#1A120E"/>
</g>
<g opacity="0.5">
<path d="M201.663 145.05L201.745 144.042H193.968L193.887 145.05H201.663Z" fill="#1A120E"/>
</g>
<g opacity="0.5">
<path d="M203.709 145.05L203.79 144.042H202.261L202.18 145.05H203.709Z" fill="#1A120E"/>
</g>
<g opacity="0.5">
<path d="M189.574 170.56L189.655 169.552H176.267L176.18 170.56H189.574Z" fill="#1A120E"/>
</g>
<g opacity="0.5">
<path d="M187.644 167.523L187.725 166.516H176.441L176.359 167.523H187.644Z" fill="#1A120E"/>
</g>
<g opacity="0.5">
<path d="M204.142 170.56L204.229 169.552H190.835L190.754 170.56H204.142Z" fill="#1A120E"/>
</g>
<g opacity="0.5">
<path d="M202.214 167.523L202.301 166.516H191.017L190.93 167.523H202.214Z" fill="#1A120E"/>
</g>
<g opacity="0.5">
<path d="M184.617 164.594L184.698 163.586H176.921L176.84 164.594H184.617Z" fill="#1A120E"/>
</g>
<g opacity="0.5">
<path d="M186.666 164.594L186.747 163.586H185.218L185.137 164.594H186.666Z" fill="#1A120E"/>
</g>
<g opacity="0.5">
<path d="M199.187 164.594L199.268 163.586H191.498L191.41 164.594H199.187Z" fill="#1A120E"/>
</g>
<g opacity="0.5">
<path d="M201.232 164.594L201.313 163.586H199.784L199.703 164.594H201.232Z" fill="#1A120E"/>
</g>
<g opacity="0.3">
<path d="M224.604 121.175L221.696 149.019H162.909C158.727 149.019 155.694 145.62 156.137 141.426L158.565 117.882L158.789 115.71L158.814 115.459L158.839 115.209H219.243C220.772 115.209 222.233 115.86 223.25 116.999C224.274 118.139 224.767 119.66 224.604 121.187V121.175Z" fill="#1A120E"/>
</g>
</g>
<path d="M156.597 139.879C154.469 139.879 152.546 139.047 151.192 137.538C149.825 136.017 149.195 133.989 149.42 131.841L154.388 83.6525C154.781 79.8715 158.17 76.7979 161.94 76.7979H234.439C236.28 76.7979 237.934 77.5178 239.108 78.8198C240.287 80.1344 240.83 81.8809 240.637 83.7339L235.669 131.923C235.207 136.311 231.275 139.879 226.9 139.879H156.597Z" fill="white"/>
<path d="M234.434 77.1923C238.01 77.1923 240.6 80.0969 240.226 83.6839L235.264 131.873C234.821 136.067 231.076 139.466 226.894 139.466H156.591C152.41 139.466 149.376 136.067 149.813 131.873L154.775 83.6839C155.15 80.0969 158.351 77.1923 161.928 77.1923H234.427H234.434ZM234.434 76.3848H161.934C157.964 76.3848 154.394 79.6212 153.976 83.6025L149.008 131.791C148.771 134.058 149.433 136.192 150.881 137.801C152.316 139.397 154.344 140.28 156.591 140.28H226.894C231.469 140.28 235.582 136.549 236.063 131.96L241.031 83.7715C241.237 81.7996 240.656 79.9467 239.402 78.5445C238.153 77.1547 236.387 76.3848 234.434 76.3848Z" fill="#CFE0FA"/>
<path d="M226.896 139.472H156.593C152.412 139.472 149.378 136.073 149.815 131.879L154.777 83.6898C155.152 80.1029 158.353 77.1982 161.93 77.1982H234.429C238.006 77.1982 240.596 80.1029 240.221 83.6898L235.259 131.879C234.816 136.073 231.071 139.472 226.89 139.472H226.896Z" fill="white"/>
<path d="M227.488 79.4082C227.163 79.4082 226.876 79.6711 226.839 79.9966C226.808 80.3222 227.038 80.5851 227.363 80.5851C227.688 80.5851 227.975 80.3222 228.012 79.9966C228.043 79.6711 227.812 79.4082 227.488 79.4082Z" fill="#3E36C7"/>
<path d="M229.953 79.4082C229.628 79.4082 229.341 79.6711 229.304 79.9966C229.272 80.3222 229.503 80.5851 229.828 80.5851C230.152 80.5851 230.44 80.3222 230.477 79.9966C230.508 79.6711 230.277 79.4082 229.953 79.4082Z" fill="#FF5225"/>
<path d="M232.418 79.4082C232.093 79.4082 231.806 79.6711 231.768 79.9966C231.737 80.3222 231.968 80.5851 232.293 80.5851C232.617 80.5851 232.904 80.3222 232.942 79.9966C232.973 79.6711 232.742 79.4082 232.418 79.4082Z" fill="#2D2D2D"/>
<path d="M240.19 83.6836H176.934V84.4911H240.19V83.6836Z" fill="#CFE0FA"/>
<mask id="mask1_2172_9290" style="mask-type:luminance" maskUnits="userSpaceOnUse" x="145" y="66" width="96" height="74">
<path d="M234.435 77.1921H220.467L213.701 68.7975L205.457 66.2998C205.457 66.2998 200.975 73.7617 199.053 77.1921H161.936C158.359 77.1921 155.157 80.0967 154.783 83.6836L152.224 108.536L145.309 109.249C145.309 109.249 148.367 118.019 150.607 124.254L149.821 131.873C149.384 136.067 152.417 139.466 156.599 139.466H226.902C231.084 139.466 234.828 136.067 235.271 131.873L240.233 83.6836C240.608 80.0967 238.018 77.1921 234.441 77.1921H234.435Z" fill="white"/>
</mask>
<g mask="url(#mask1_2172_9290)">
<path d="M223.351 139.822C214.613 137.562 198.747 134.833 187.12 137.181C175.492 139.528 176.509 155.203 186.221 158.083C196.195 161.037 207.392 163.416 220.305 163.879C233.225 164.342 237.693 143.541 223.344 139.829L223.351 139.822Z" fill="#1A120E"/>
<path d="M195.205 141.613C196.117 144.743 196.029 148.249 197.303 151.254C198.626 154.377 202.427 155.78 205.273 153.82C208.587 151.542 209.136 148.374 210.035 144.656C210.54 142.565 211.046 140.424 211.327 138.271C206.496 138.59 200.542 139.291 194.656 140.574C194.893 140.837 195.081 141.181 195.205 141.613Z" fill="#1A120E"/>
<path d="M198.085 120.698C189.428 122.476 180.721 128.467 176.452 129.118L176.471 129.055C176.471 129.055 174.992 129.537 170.404 126.908C165.823 124.279 163.788 126.163 163.788 126.163C163.788 126.163 161.797 128.104 161.498 129.256C161.286 130.076 163.62 133.325 164.874 133.982C165.773 134.458 167.028 134.426 166.965 133.412C166.903 132.423 167.646 132.31 167.958 132.235C168.326 132.148 168.8 132.423 169.119 132.655C169.119 132.667 169.131 132.686 169.137 132.699C169.187 132.855 169.25 132.999 169.325 133.124C169.287 133.193 169.237 133.256 169.187 133.318C168.388 134.239 167.121 135.584 167.196 136.442C167.271 137.3 167.864 136.699 168.32 136.398C168.775 136.104 169.911 135.478 170.535 135.196C171.116 134.933 173.369 134.921 174.212 134.176C174.505 134.126 174.736 134.069 174.879 134.038C179.517 133.926 193.797 140.21 201.249 135.753C207.054 132.279 202.853 119.709 198.085 120.686V120.698Z" fill="#FFBCB0"/>
<path d="M164.188 133.306L166.609 130.095C166.609 130.095 164.706 131.879 164.188 133.306Z" fill="#1A120E"/>
<path d="M161.961 130.983L164.039 127.54C164.039 127.54 162.329 129.512 161.961 130.983Z" fill="#1A120E"/>
<path d="M162.988 132.405L165.379 128.311C165.379 128.311 163.357 130.902 162.988 132.405Z" fill="#1A120E"/>
<path d="M209.556 95.0144C215.897 99.797 215.192 114.652 205.848 134.471C205.848 134.471 199.245 131.015 191.062 122.333C191.062 122.333 193.259 113.556 197.31 103.428C201.361 93.2929 206.909 93.0175 209.549 95.0144H209.556Z" fill="#2D2D2D"/>
<path d="M190.456 119.873C190.275 121.144 190.051 122.527 190.051 122.527C190.051 122.527 190.613 123.548 191.455 124.474C198.483 132.13 208.943 137.689 208.943 137.689L210.335 133.413C204.393 129.933 193.914 123.61 190.456 119.879V119.873Z" fill="#1A120E"/>
<path d="M208.725 137.814C207.595 137.276 197.565 131.435 191.305 124.618C190.45 123.685 189.894 122.677 189.869 122.634L189.832 122.571L189.845 122.502C189.845 122.502 190.075 121.1 190.25 119.848L190.313 119.416L190.606 119.735C191.174 120.349 191.867 120.994 192.728 121.707L192.466 122.026C191.736 121.419 191.118 120.862 190.6 120.324C190.462 121.288 190.306 122.227 190.263 122.49C190.394 122.721 190.899 123.566 191.605 124.33C197.821 131.103 207.782 136.9 208.899 137.432L208.718 137.808L208.725 137.814Z" fill="white"/>
<path d="M236.332 157.069C232.618 162.052 219.424 168.481 207.172 168.976C207.172 168.976 182.725 150.096 194.078 145.125C203.39 141.044 217.976 133.757 223.443 131.622C228.911 129.488 244.421 146.214 236.338 157.075L236.332 157.069Z" fill="#1A120E"/>
<path d="M217.534 91.0701C229.399 93.7118 241.944 126.464 238.006 148.53C238.006 148.53 217.709 151.472 199.141 136.442C199.141 136.442 199.228 131.102 203.491 125.919C203.491 125.919 202.605 107.133 206.393 99.1141C210.182 91.0951 214.401 90.3752 217.528 91.0763L217.534 91.0701Z" fill="white"/>
<path d="M205.55 148.136C206.161 147.341 211.685 145.719 211.092 140.674C210.874 138.852 210.274 126.971 210.156 123.578C210.031 120.191 208.708 98.025 209.862 93.0859C207.809 93.4177 205.163 94.5069 203.49 98.0563C199.702 106.075 204.033 118.119 201.861 125.143C199.876 131.566 192.93 139.716 192.93 139.716C198.291 137.826 200.931 146.295 205.55 148.136Z" fill="#2D2D2D"/>
<path d="M210.155 141.707L209.75 141.632C210.168 139.259 209.75 137.556 207.94 131.854C206.067 125.969 204.513 107.552 204.494 107.371L204.457 106.914L204.825 107.189C205.499 107.696 206.379 108.354 207.022 108.829C206.629 108.147 206.173 107.308 206.042 107.064L206.011 107.008V106.945C206.548 102.357 209.325 94.2689 209.356 94.1875L209.75 94.3252C209.725 94.4066 206.979 102.376 206.442 106.926C207.066 108.085 207.777 109.337 207.915 109.468L208.052 109.599L207.946 109.762C207.89 109.831 207.859 109.869 207.653 109.762L207.64 109.775C207.64 109.775 207.615 109.75 207.603 109.731C207.272 109.537 206.567 109.011 204.963 107.803C205.218 110.701 206.654 126.42 208.345 131.735C210.187 137.513 210.605 139.253 210.168 141.713L210.155 141.707Z" fill="white"/>
<path d="M217.533 91.0645C217.533 91.0645 213.901 97.7563 214.581 103.541C215.374 110.276 213.233 118.37 217.764 133.726C222.077 148.33 215.811 153.758 215.711 153.946C226.596 157.044 239.74 159.486 239.74 159.486C242.91 135.203 239.247 94.6764 217.533 91.0645Z" fill="#2D2D2D"/>
<path d="M219.548 148.9L219.142 148.831C219.411 147.253 219.748 146.195 220.041 145.256C220.746 143.009 221.308 141.231 220.74 133.932C219.991 124.242 217.588 106.983 217.257 104.629L215.828 105.237L216.877 103.002C217.863 97.0798 217.451 91.5335 217.445 91.4835L217.857 91.4521C217.857 91.5085 218.281 97.1237 217.276 103.102L217.257 103.158L216.658 104.442L217.588 104.047L217.626 104.316C217.651 104.51 220.347 123.541 221.152 133.913C221.72 141.294 221.152 143.103 220.428 145.394C220.122 146.364 219.81 147.366 219.542 148.912L219.548 148.9Z" fill="white"/>
<path d="M228 101.018L228.755 125.287C228.755 125.287 240.714 117.988 228 101.018Z" fill="#1A120E"/>
<path d="M201.547 75.095C200.399 77.6428 201.491 83.765 205.56 87.5022C209.636 91.2457 208.094 94.3381 208.094 94.3381C208.094 94.3381 217.107 90.8951 218.798 88.6227C218.798 88.6227 217.643 87.2831 217.213 85.0421C217.213 85.0421 218.211 86.7197 219.778 87.5899C219.778 87.5899 222.312 87.978 223.916 84.9231C223.916 84.9231 219.366 82.9512 216.944 76.6412C214.523 70.3312 209.761 69.9744 207.464 70.4877C205.167 70.9948 202.602 72.7601 201.547 75.095Z" fill="#1A120E"/>
<path d="M206.086 86.3439L209.793 94.5694C209.793 94.5694 215.342 95.7338 217.533 91.0764L214.075 82.6943L206.086 86.3501V86.3439Z" fill="#FFBCB0"/>
<path d="M207.926 90.4193L209.137 93.0798C214.654 92.4413 212.757 85.7619 212.732 85.7744C207.283 88.3848 207.926 90.413 207.926 90.413V90.4193Z" fill="#1A120E"/>
<path d="M207.712 90.8699C209.965 90.3503 213.392 86.344 213.847 84.0716C214.01 83.2641 213.448 81.3298 212.936 80.4534C211.344 77.699 209.996 75.1763 207.519 74.8758C206.476 74.7506 205.521 74.9634 204.666 75.3453C201.87 76.616 200.285 79.0887 200.94 82.0935C201.67 85.4676 203.742 91.7839 207.712 90.8699Z" fill="#FFBCB0"/>
<path d="M204.457 85.7182C204.226 85.6806 203.083 85.4803 202.853 84.9795C202.803 84.8668 202.771 84.6978 202.896 84.4912C203.595 83.3582 203.271 81.9747 203.196 81.693C203.04 81.5553 202.372 81.0796 201.479 81.5052L201.305 81.1296C202.335 80.6476 203.208 81.1171 203.527 81.4364L203.564 81.4739L203.577 81.524C203.601 81.5929 204.138 83.2956 203.252 84.7166C203.215 84.7729 203.227 84.798 203.233 84.8105C203.333 85.0358 204.063 85.2424 204.525 85.3175L204.463 85.7244L204.457 85.7182Z" fill="#1A120E"/>
<path d="M212.519 79.8341C212.519 79.8341 209.168 77.0672 206.303 76.9358C206.303 76.9358 201.266 78.4632 200.817 81.1737C200.817 81.1737 198.957 75.7026 204.668 73.7369C210.222 71.8277 212.607 77.399 212.519 79.8341Z" fill="#1A120E"/>
<path d="M206.64 77.1111L206.234 77.0297C206.559 75.3771 207.589 74.6885 207.632 74.6572L207.857 75.0015C207.857 75.0015 206.921 75.6338 206.64 77.1049V77.1111Z" fill="#2D2D2D"/>
<path d="M211.404 81.6746C211.535 82.864 212.609 83.7216 213.794 83.5839C214.98 83.4524 215.829 82.3757 215.698 81.1863C215.567 79.997 214.493 79.1456 213.308 79.2771C212.122 79.4085 211.273 80.4852 211.404 81.6746Z" fill="#FFBCB0"/>
<path d="M214.019 83.0071C213.975 83.0259 213.931 83.0322 213.881 83.0384C213.719 83.0635 213.569 83.0197 213.438 82.9132C213.132 82.6691 213.232 82.3999 213.295 82.2246C213.357 82.0494 213.401 81.9179 213.263 81.6926C213.139 81.5048 212.97 81.3983 212.808 81.2919C212.552 81.1292 212.165 80.8913 212.514 80.3216C212.995 79.5329 214.412 80.1464 214.474 80.1777L214.306 80.5595C214.006 80.428 213.107 80.1464 212.87 80.5407C212.739 80.7598 212.752 80.7723 213.032 80.9476C213.213 81.0666 213.444 81.2043 213.619 81.4735C213.875 81.8678 213.769 82.1683 213.694 82.3686C213.632 82.5376 213.638 82.5439 213.707 82.594C213.75 82.6253 213.788 82.6378 213.831 82.6315C213.981 82.6128 214.175 82.4187 214.256 82.2998L214.593 82.5439C214.562 82.5815 214.331 82.8945 214.025 83.0071H214.019Z" fill="#1A120E"/>
<path d="M207.565 80.8038C205.724 80.1027 205.312 80.8789 205.312 80.8852L204.938 80.7099C204.962 80.6598 205.487 79.5644 207.715 80.4157L207.565 80.8038Z" fill="#1A120E"/>
<path d="M204.562 87.3022C204.781 88.2036 205.63 88.8234 206.572 88.7169C207.59 88.598 208.326 87.6778 208.207 86.6574C208.182 86.4383 208.114 86.2317 208.02 86.0439C206.897 86.5573 205.736 87.0142 204.562 87.3022Z" fill="#1A120E"/>
<path d="M205.735 88.5669C205.735 88.5669 205.748 88.6107 205.754 88.6295C206.01 88.7171 206.285 88.7547 206.572 88.7234C207.589 88.6044 208.326 87.6842 208.207 86.6639C208.17 86.3258 205.373 87.1772 205.735 88.5731V88.5669Z" fill="#FF5225"/>
<path d="M207.047 81.5554C207.078 81.8245 206.885 82.0687 206.617 82.1C206.348 82.1313 206.105 81.9372 206.074 81.668C206.042 81.3989 206.236 81.1547 206.504 81.1234C206.773 81.0921 207.016 81.2862 207.047 81.5554Z" fill="#1A120E"/>
<path d="M202.707 82.5632C202.739 82.8324 202.545 83.0765 202.277 83.1078C202.008 83.1391 201.765 82.945 201.734 82.6759C201.703 82.4067 201.896 82.1625 202.164 82.1312C202.433 82.0999 202.676 82.294 202.707 82.5632Z" fill="#1A120E"/>
<path d="M212.393 85.349C211.694 84.4601 211.644 83.5274 211.601 82.6259C211.563 81.8497 211.526 81.1173 211.095 80.4162C210.658 79.7088 210.04 79.2706 209.441 78.8449C208.736 78.3442 208.012 77.8308 207.625 76.8918L208.006 76.7354C208.343 77.5617 208.986 78.0186 209.672 78.5069C210.303 78.9576 210.958 79.4209 211.438 80.1971C211.925 80.9921 211.969 81.8122 212.006 82.6072C212.05 83.4836 212.094 84.3099 212.712 85.0924L212.387 85.349H212.393Z" fill="#1A120E"/>
<path d="M225.158 121.838C220.502 119.942 201.229 117.419 199.381 117.175C198.258 116.655 196.298 115.591 193.714 113.6C191.074 111.566 189.021 111.497 187.86 111.722C187.704 111.741 180.745 112.724 179.141 114.145C178.785 114.458 179.016 115.24 179.515 115.103C181.469 114.571 186.924 113.894 186.924 113.894C186.924 113.894 183.416 117.519 183.753 118.057C183.947 118.364 185.332 119.397 186.481 120.223C187.304 120.812 188.216 120.38 188.977 119.71C189.901 118.902 190.656 118.377 190.974 118.345C191.355 118.308 191.786 118.646 192.067 118.921C192.067 118.934 192.073 118.952 192.079 118.971C192.472 121.312 195.612 121.438 196.604 121.419C200.911 122.671 208.369 134.815 215.827 137.369C220.87 139.097 232.635 124.893 225.158 121.851V121.838Z" fill="#FFBCB0"/>
<path d="M186.262 119.973L189.888 116.593C189.888 116.593 187.235 118.452 186.262 119.973Z" fill="#D17F80"/>
<path d="M184.875 119.053L188.701 114.721C188.701 114.721 185.699 117.444 184.875 119.053Z" fill="#D17F80"/>
<path d="M227.501 139.773C226.177 139.929 224.935 139.954 223.98 139.735L224.074 139.328C227.744 140.167 236.17 137.188 236.257 137.156L236.395 137.544C236.132 137.638 231.433 139.297 227.501 139.767V139.773Z" fill="#1A120E"/>
<path d="M223.196 94.113C230.46 97.3056 232.564 112.079 228.033 133.526C228.033 133.526 220.537 129.895 211.48 117.913C211.48 117.913 212.716 116.01 214.333 105.212C215.949 94.4135 220.162 92.7797 223.196 94.113Z" fill="#2D2D2D"/>
<path d="M228.286 133.331L227.88 133.25C231.669 115.077 231.613 104.717 227.699 98.6072L228.049 98.3818C232.031 104.592 232.099 115.046 228.286 133.337V133.331Z" fill="white"/>
<path d="M211.579 114.721C211.267 115.966 210.898 117.319 210.898 117.319C210.898 117.319 211.348 118.389 212.097 119.397C218.294 127.741 228.125 134.358 228.125 134.358L229.947 130.252C224.398 126.176 214.625 118.796 211.572 114.721H211.579Z" fill="#1A120E"/>
<path d="M227.893 134.464C226.826 133.807 217.452 126.965 211.928 119.528C211.173 118.514 210.723 117.45 210.705 117.406L210.68 117.337L210.698 117.268C210.698 117.268 211.073 115.897 211.379 114.67L211.485 114.251L211.747 114.602C212.253 115.271 212.877 115.985 213.657 116.786L213.363 117.074C212.702 116.398 212.146 115.778 211.685 115.19C211.447 116.129 211.198 117.055 211.129 117.312C211.235 117.556 211.653 118.451 212.277 119.284C217.764 126.671 227.069 133.463 228.124 134.114L227.906 134.471L227.893 134.464Z" fill="white"/>
<path d="M171.996 193.358C171.996 193.358 177.782 158.202 178.824 145.838C179.866 133.475 200.425 140.167 202.36 150.139C204.345 160.38 193.778 196.312 193.778 196.312L171.996 193.351V193.358Z" fill="#1A120E"/>
<path d="M177.45 191.092L177.051 190.992C178.542 184.963 179.254 175.868 179.941 167.066C180.796 156.086 181.607 145.72 183.885 143.078C187.892 138.433 189.764 137.907 189.846 137.889L189.952 138.289C189.952 138.289 188.092 138.84 184.203 143.347C182.013 145.883 181.214 156.186 180.359 167.098C179.672 175.912 178.961 185.026 177.456 191.086L177.45 191.092Z" fill="#2B173F"/>
<path d="M183.797 139.297C183.797 139.403 183.884 139.491 183.99 139.491L217.382 139.535C217.594 139.535 217.769 139.359 217.769 139.146V138.214L183.797 138.17V139.297Z" fill="#1A120E"/>
<path d="M213.41 137.806V138.201H214.602V137.675H213.541C213.473 137.675 213.41 137.731 213.41 137.806Z" fill="#1A120E"/>
<path d="M212.027 137.806V138.201H213.219V137.675H212.158C212.084 137.675 212.027 137.731 212.027 137.806Z" fill="#1A120E"/>
<path d="M210.641 137.806V138.201H211.833V137.675H210.772C210.697 137.675 210.641 137.731 210.641 137.806Z" fill="#1A120E"/>
<path d="M204.879 137.8V138.194H206.071V137.675H205.01C204.941 137.675 204.879 137.731 204.879 137.806V137.8Z" fill="#1A120E"/>
<path d="M203.492 137.795V138.189H204.684V137.663H203.623C203.555 137.663 203.492 137.719 203.492 137.795Z" fill="#1A120E"/>
<path d="M187.262 137.775V138.169H188.454V137.644H187.393C187.324 137.644 187.262 137.7 187.262 137.775Z" fill="#1A120E"/>
<path d="M185.879 137.775V138.169H187.071V137.644H186.01C185.935 137.644 185.879 137.7 185.879 137.775Z" fill="#1A120E"/>
<path d="M206.301 137.8V138.195H210.401V137.669H206.432C206.357 137.669 206.301 137.725 206.301 137.8Z" fill="#1A120E"/>
<path d="M181.387 137.769V138.164H185.487V137.638H181.518C181.443 137.638 181.387 137.694 181.387 137.769Z" fill="#1A120E"/>
<path d="M188.777 137.775V138.169L203.008 138.188V137.662L188.908 137.644C188.834 137.644 188.777 137.7 188.777 137.775Z" fill="#1A120E"/>
<path d="M181.714 137.638H178.825C178.662 137.638 178.531 137.769 178.531 137.932V138.164H181.845V137.775C181.845 137.707 181.789 137.644 181.714 137.644V137.638Z" fill="url(#paint0_linear_2172_9290)"/>
<path d="M177.726 137.631H174.836C174.674 137.631 174.543 137.763 174.543 137.925V138.151H177.857V137.756C177.857 137.688 177.801 137.625 177.726 137.625V137.631Z" fill="url(#paint1_linear_2172_9290)"/>
<path d="M173.734 137.632H170.844C170.682 137.632 170.551 137.763 170.551 137.926V138.151H173.865V137.763C173.865 137.688 173.809 137.632 173.734 137.632Z" fill="url(#paint2_linear_2172_9290)"/>
<path d="M169.746 137.625H166.856C166.694 137.625 166.562 137.756 166.562 137.919V138.151H169.877V137.756C169.877 137.681 169.82 137.625 169.746 137.625Z" fill="url(#paint3_linear_2172_9290)"/>
<path d="M165.038 137.619H163.528C163.365 137.619 163.234 137.751 163.234 137.913V138.145H165.169V137.757C165.169 137.682 165.113 137.625 165.038 137.625V137.619Z" fill="url(#paint4_linear_2172_9290)"/>
<path d="M162.687 137.613H161.176C161.014 137.613 160.883 137.744 160.883 137.907V138.132H162.818V137.738C162.818 137.669 162.761 137.606 162.687 137.606V137.613Z" fill="url(#paint5_linear_2172_9290)"/>
<path d="M160.476 137.613H158.965C158.803 137.613 158.672 137.744 158.672 137.907V138.132H160.607V137.738C160.607 137.669 160.551 137.606 160.476 137.606V137.613Z" fill="url(#paint6_linear_2172_9290)"/>
<path d="M186.592 113.155C186.317 112.097 185.313 111.271 184.227 111.283L191.891 139.34C191.891 139.34 193.189 138.902 192.852 137.475C192.565 136.279 188.071 118.87 186.592 113.155Z" fill="#1A120E"/>
<path d="M184.304 111.033L148.734 110.989C148.235 110.989 147.873 111.459 147.991 111.941L154.507 137.888L191.924 137.938L185.346 111.853C185.227 111.371 184.797 111.033 184.297 111.033H184.304Z" fill="#959595"/>
<path d="M192.155 138.114L154.364 138.064L154.332 137.926L147.816 111.979C147.748 111.697 147.81 111.396 147.985 111.165C148.166 110.933 148.434 110.802 148.728 110.802L184.297 110.846C184.878 110.846 185.377 111.24 185.52 111.803L192.155 138.114ZM154.644 137.701L191.687 137.745L185.165 111.891C185.065 111.49 184.709 111.209 184.297 111.209L148.728 111.165C148.547 111.165 148.378 111.246 148.266 111.39C148.153 111.534 148.116 111.716 148.16 111.891L154.638 137.701H154.644Z" fill="#1A120E"/>
<path d="M154.34 139.259C154.34 139.366 154.427 139.453 154.533 139.453L191.232 139.497C191.445 139.497 191.619 139.322 191.619 139.109V137.926L154.34 137.876V139.253V139.259Z" fill="#131313"/>
<path d="M191.196 137.952L191.195 138.396L217.347 138.429L217.347 137.984L191.196 137.952Z" fill="#131313"/>
<path d="M154.333 137.905L154.332 138.35L184.846 138.387L184.847 137.943L154.333 137.905Z" fill="#1A120E"/>
</g>
<path d="M144.659 61.8359H172.495C177.364 61.8359 181.314 65.7985 181.314 70.6812C181.314 75.564 177.364 79.5265 172.495 79.5265H144.659C139.791 79.5265 135.84 75.564 135.84 70.6812C135.84 65.7985 139.791 61.8359 144.659 61.8359Z" fill="#FF5225"/>
<path d="M157.109 78.7256L172.12 88.585L170.909 78.7256H157.109Z" fill="#FF5225"/>
<path d="M152.286 70.2804C152.286 69.0723 151.312 68.0957 150.108 68.0957C148.903 68.0957 147.93 69.0723 147.93 70.2804C147.93 71.4886 148.903 72.4651 150.108 72.4651C151.312 72.4651 152.286 71.4886 152.286 70.2804Z" fill="white"/>
<path d="M160.755 70.2804C160.755 69.0723 159.781 68.0957 158.577 68.0957C157.372 68.0957 156.398 69.0723 156.398 70.2804C156.398 71.4886 157.372 72.4651 158.577 72.4651C159.781 72.4651 160.755 71.4886 160.755 70.2804Z" fill="white"/>
<path d="M169.224 70.2804C169.224 69.0723 168.25 68.0957 167.045 68.0957C165.841 68.0957 164.867 69.0723 164.867 70.2804C164.867 71.4886 165.841 72.4651 167.045 72.4651C168.25 72.4651 169.224 71.4886 169.224 70.2804Z" fill="white"/>
<path fill-rule="evenodd" clip-rule="evenodd" d="M74.0445 42.7005L71.7852 30.3496L83.5813 34.5688L74.0445 42.7005Z" fill="#2D2D2D"/>
<path d="M74.3264 40.315L71.9922 27.5322L84.194 31.8954L74.3264 40.315ZM72.3167 27.9203L74.495 39.8393L83.701 31.9893L72.323 27.9203H72.3167Z" fill="#1A120E"/>
<path d="M42.5716 79.014L42.6028 79.0829L48.0453 76.2722L43.0022 73.0107L42.815 73.2611C41.7665 74.9388 41.6042 77.1173 42.5716 79.014Z" fill="#FF5225"/>
<path d="M51.2376 58.2806C50.9692 58.6499 50.4574 58.725 50.0891 58.4558C49.7209 58.1867 49.646 57.6733 49.9144 57.304C50.1828 56.9347 50.6946 56.8596 51.0628 57.1287C51.431 57.3979 51.5059 57.9112 51.2376 58.2806Z" fill="#390D9F"/>
<path d="M81.929 65.6106C81.6606 65.98 81.1488 66.0551 80.7806 65.7859C80.4123 65.5167 80.3374 65.0034 80.6058 64.6341C80.8742 64.2648 81.386 64.1896 81.7542 64.4588C82.1162 64.728 82.1973 65.2413 81.929 65.6106Z" fill="#2D2D2D"/>
<path d="M115.59 43.5071C115.053 44.2395 114.029 44.396 113.299 43.8639C112.569 43.3256 112.413 42.299 112.943 41.5665C113.48 40.8341 114.504 40.6776 115.234 41.2097C115.964 41.7481 116.12 42.7747 115.59 43.5071Z" fill="#FF5225"/>
<path d="M195.352 37.1773L207.66 38.3594L208.839 26.0149L196.531 24.8328L195.352 37.1773Z" fill="#8A8A8A"/>
<path d="M205.194 36.6152L192.668 35.4133L193.866 22.8496L206.393 24.0515L205.194 36.6152ZM192.905 35.213L205.001 36.3773L206.162 24.2456L194.066 23.0812L192.905 35.213Z" fill="#1A120E"/>
<path d="M144.437 21.391C144.293 21.873 144.568 22.38 145.048 22.5303C145.529 22.6805 146.034 22.3988 146.184 21.9168C146.328 21.4348 146.053 20.9215 145.572 20.7775C145.092 20.6335 144.586 20.9089 144.437 21.391Z" fill="#390D9F"/>
<path d="M152.436 51.8702C152.324 52.2458 152.536 52.6401 152.911 52.7528C153.285 52.8655 153.678 52.6527 153.791 52.2771C153.903 51.9015 153.691 51.5071 153.316 51.3944C152.942 51.2817 152.549 51.4946 152.436 51.8702Z" fill="#390D9F"/>
<path d="M192.112 52.5782C192 52.9538 192.212 53.3481 192.586 53.4608C192.961 53.5735 193.354 53.3607 193.466 52.9851C193.579 52.6095 193.367 52.2151 192.992 52.1024C192.618 51.9897 192.224 52.2026 192.112 52.5782Z" fill="#2D2D2D"/>
<path d="M217.283 61.4298C217.058 62.181 217.483 62.9697 218.231 63.1951C218.98 63.4205 219.767 62.9948 219.992 62.2436C220.216 61.4924 219.792 60.7036 219.043 60.4783C218.294 60.2529 217.507 60.6786 217.283 61.4298Z" fill="#FF5225"/>
<path d="M168.201 37.128C167.976 37.8792 168.4 38.668 169.149 38.8933C169.898 39.1187 170.685 38.693 170.91 37.9418C171.134 37.1906 170.71 36.4019 169.961 36.1765C169.212 35.9512 168.425 36.3768 168.201 37.128Z" fill="#FF5225"/>
<path d="M237.214 222.109H32.9219V223.261H237.214V222.109Z" fill="#1A120E"/>
<defs>
<linearGradient id="paint0_linear_2172_9290" x1="178.534" y1="137.889" x2="181.848" y2="137.893" gradientUnits="userSpaceOnUse">
<stop stop-color="#99CEFF"/>
<stop offset="1" stop-color="#D5E9FF"/>
</linearGradient>
<linearGradient id="paint1_linear_2172_9290" x1="174.539" y1="137.884" x2="177.853" y2="137.888" gradientUnits="userSpaceOnUse">
<stop stop-color="#99CEFF"/>
<stop offset="1" stop-color="#D5E9FF"/>
</linearGradient>
<linearGradient id="paint2_linear_2172_9290" x1="170.553" y1="137.879" x2="173.867" y2="137.883" gradientUnits="userSpaceOnUse">
<stop stop-color="#99CEFF"/>
<stop offset="1" stop-color="#D5E9FF"/>
</linearGradient>
<linearGradient id="paint3_linear_2172_9290" x1="166.559" y1="137.874" x2="169.873" y2="137.878" gradientUnits="userSpaceOnUse">
<stop stop-color="#99CEFF"/>
<stop offset="1" stop-color="#D5E9FF"/>
</linearGradient>
<linearGradient id="paint4_linear_2172_9290" x1="163.237" y1="137.87" x2="165.172" y2="137.872" gradientUnits="userSpaceOnUse">
<stop stop-color="#99CEFF"/>
<stop offset="1" stop-color="#D5E9FF"/>
</linearGradient>
<linearGradient id="paint5_linear_2172_9290" x1="160.879" y1="137.867" x2="162.82" y2="137.869" gradientUnits="userSpaceOnUse">
<stop stop-color="#99CEFF"/>
<stop offset="1" stop-color="#D5E9FF"/>
</linearGradient>
<linearGradient id="paint6_linear_2172_9290" x1="158.662" y1="137.864" x2="160.603" y2="137.867" gradientUnits="userSpaceOnUse">
<stop stop-color="#99CEFF"/>
<stop offset="1" stop-color="#D5E9FF"/>
</linearGradient>
</defs>
</svg>
