<svg width="162" height="100" viewBox="0 0 162 100" fill="none" xmlns="http://www.w3.org/2000/svg">
<g clip-path="url(#clip0_2084_5909)">
<path d="M14.5722 93.9172C14.5722 96.1474 12.8823 99.838 7.66489 99.838C3.53137 99.838 0.874101 98.1134 0.240863 93.7134H1.2354C1.89971 97.7285 5.34173 98.6191 7.33079 98.6191C10.8622 98.6191 11.7052 96.2153 11.7052 95.1625C11.7052 92.8984 9.80547 91.6719 6.18475 89.8568C3.89266 88.7248 0 86.838 0 83.1738C0 78.4908 4.73568 77.5625 6.42561 77.5625C10.6524 77.5625 12.4006 79.7323 13.0027 82.8116H11.9188C11.4643 81.2002 10.26 78.7663 6.45669 78.7663C4.58806 78.7663 2.59511 80.2304 2.59511 82.0795C2.59511 84.2455 5.27957 85.6229 8.05727 86.9851C13.3058 89.5512 14.5722 91.3701 14.5722 93.9172Z" fill="#172044"/>
<path d="M37.9846 88.6793C37.9846 96.4453 33.2178 99.8453 27.3361 99.8453C21.4543 99.8453 16.7031 96.4378 16.7031 88.6793C16.7031 81.1774 21.4699 77.5435 27.3555 77.5435C33.2411 77.5435 37.9846 81.1095 37.9846 88.6793ZM34.3638 88.6793C34.3638 81.7925 31.2287 78.5095 27.3361 78.5095C23.4434 78.5095 20.3044 81.8491 20.3044 88.6793C20.3044 95.7736 23.4745 98.868 27.3361 98.868C31.1977 98.868 34.3638 95.7661 34.3638 88.6793Z" fill="#172044"/>
<path d="M54.8869 99.4567H40.707V78.0039H43.7217V98.1398H54.8869V99.4567Z" fill="#172044"/>
<path d="M60.9209 99.4567H57.9062V78.0039H60.9209V99.4567Z" fill="#172044"/>
<path d="M69.7299 89.7851C68.8247 89.8153 67.9817 89.8153 67.2552 89.8153V99.4568H63.9375V78.004H67.2552C70.7244 78.004 77.7444 77.9172 77.7444 84.0115C77.7444 87.4417 75.6038 88.9172 73.1292 89.5209L80.491 99.4568H76.781L69.7299 89.7851ZM70.8176 88.5851C71.3933 88.5067 71.9468 88.3168 72.4454 88.0266C72.6886 87.8563 72.9115 87.6601 73.1097 87.4417C73.3358 87.198 73.5195 86.9202 73.6536 86.6191C73.8257 86.2633 73.956 85.8899 74.0421 85.5059C74.1287 85.0072 74.169 84.5021 74.1625 83.9964C74.011 79.336 70.301 79.0153 69.6366 79.0153H67.2513V88.6794H69.6366C70.0322 88.6764 70.4269 88.6448 70.8176 88.5851Z" fill="#172044"/>
<path d="M102.41 88.6793C102.41 96.4453 97.6435 99.8453 91.7578 99.8453C85.8722 99.8453 81.1055 96.4491 81.1055 88.6793C81.1055 81.1774 85.8722 77.5435 91.7578 77.5435C97.6435 77.5435 102.41 81.1095 102.41 88.6793ZM98.7895 88.6793C98.7895 81.7925 95.6505 78.5095 91.7578 78.5095C87.8652 78.5095 84.7262 81.8491 84.7262 88.6793C84.7262 95.7736 87.8963 98.868 91.7578 98.868C95.6194 98.868 98.7895 95.7661 98.7895 88.6793Z" fill="#172044"/>
<path d="M122.374 92.5398C122.374 93.8605 122.129 99.8982 113.773 99.8982C113.773 99.8982 105.145 100.31 105.145 92.5398V78.0039H108.462V92.5398C108.462 98.9888 114.076 98.6077 114.076 98.6077C115.824 98.6077 121.014 97.9322 121.014 92.5398V78.0039H122.374V92.5398Z" fill="#172044"/>
<path d="M142.718 79.3247H135.418V99.4567H132.085V79.3247H124.766V78.0039H142.718V79.3247Z" fill="#172044"/>
<path d="M159.045 98.3435V99.4567H145.137V78.0039H159.045V79.1171H148.454V87.619H157.296V88.936H148.454V98.3435H159.045Z" fill="#172044"/>
<path d="M161.05 71.068H2.49573C2.28966 71.068 2.09203 70.9885 1.94632 70.847C1.80061 70.7054 1.71875 70.5135 1.71875 70.3133C1.71875 70.1131 1.80061 69.9212 1.94632 69.7796C2.09203 69.6381 2.28966 69.5586 2.49573 69.5586H161.05C161.256 69.5586 161.454 69.6381 161.599 69.7796C161.745 69.9212 161.827 70.1131 161.827 70.3133C161.827 70.5135 161.745 70.7054 161.599 70.847C161.454 70.9885 161.256 71.068 161.05 71.068Z" fill="#172044"/>
<path d="M89.3781 0.822724C89.1009 0.678512 88.814 0.552446 88.5195 0.445366L88.539 0.377441C88.8407 0.476176 89.1321 0.60253 89.4092 0.7548L89.3781 0.822724Z" fill="#4169B2"/>
<path d="M90.4162 1.50942C90.0942 1.25521 89.7497 1.02918 89.3867 0.833948L89.4178 0.777344C89.7873 0.972421 90.136 1.20247 90.4589 1.46414L90.4162 1.50942Z" fill="#4169B2"/>
<path d="M91.296 2.35492C91.0256 2.05215 90.7321 1.76958 90.418 1.50964L90.4607 1.46436C90.7828 1.72506 91.0805 2.01298 91.3503 2.32473L91.296 2.35492Z" fill="#4169B2"/>
<path d="M91.8408 3.10189C91.6799 2.8379 91.4994 2.58566 91.3008 2.34717L91.3513 2.30566C91.5551 2.54205 91.7383 2.7945 91.8991 3.06038L91.8408 3.10189Z" fill="#4169B2"/>
<path d="M92.6871 6.50589C92.6432 6.30332 92.5888 6.10306 92.5239 5.90589C92.4928 5.804 92.4579 5.70966 92.419 5.60777C92.3802 5.50589 92.3413 5.41155 92.3025 5.31343C92.217 5.12475 92.1238 3.5323 92.0266 3.35494L91.8712 3.08702C91.7059 2.82492 91.5243 2.57288 91.3274 2.3323C91.0559 2.02331 90.7597 1.73562 90.4416 1.47192C90.1187 1.21605 89.7728 0.988731 89.4082 0.792678C89.1291 0.647029 88.8395 0.520922 88.5419 0.41532L88.235 0.313433C88.0284 0.249123 87.8183 0.196208 87.6056 0.154943C87.1721 0.0700668 86.7309 0.0270899 86.2887 0.0266407H45.3341C44.9705 0.0215572 44.6094 0.0873856 44.2724 0.22023C43.9354 0.353075 43.6292 0.550237 43.3721 0.800047C43.1149 1.04986 42.9119 1.34724 42.7751 1.6746C42.6384 2.00196 42.5706 2.35264 42.5758 2.70589C42.6088 3.35727 42.8989 3.97128 43.3858 4.42033C43.8727 4.86939 44.519 5.11896 45.1904 5.11721H59.4091C59.3213 5.53574 59.277 5.96178 59.277 6.38891V9.46438C59.277 11.1518 59.9671 12.77 61.1954 13.9632C62.4238 15.1563 64.0898 15.8266 65.8269 15.8266H77.2252C77.5691 15.8261 77.9096 15.8914 78.2275 16.0188C78.5454 16.1462 78.8343 16.3331 79.0778 16.5689C79.3213 16.8047 79.5146 17.0848 79.6467 17.3932C79.7788 17.7016 79.847 18.0323 79.8475 18.3663V19.6455C79.8475 20.3211 79.5712 20.9689 79.0794 21.4466C78.5877 21.9243 77.9207 22.1927 77.2252 22.1927H47.0085C46.8376 22.1927 46.6744 22.1927 46.5112 22.1927H30.7192C30.3558 22.1861 29.9949 22.2503 29.6575 22.3816C29.3202 22.5128 29.0134 22.7084 28.7551 22.9567C28.4969 23.2051 28.2926 23.5012 28.1542 23.8275C28.0157 24.1539 27.9461 24.5039 27.9492 24.8568C27.9847 25.4908 28.2617 26.0894 28.7262 26.5361C28.9682 26.7749 29.2566 26.9646 29.5748 27.0941C29.8929 27.2237 30.2343 27.2905 30.5793 27.2908H40.579C40.4943 27.7033 40.4513 28.1229 40.4508 28.5436V31.6229C40.4493 32.4601 40.6178 33.2895 40.9467 34.0634C41.2756 34.8373 41.7585 35.5406 42.3676 36.133C42.9768 36.7254 43.7002 37.1952 44.4966 37.5156C45.2929 37.8361 46.1465 38.0007 47.0085 38.0002H77.2407C77.5844 37.9992 77.9249 38.0641 78.2428 38.191C78.5606 38.318 78.8496 38.5045 79.0931 38.7401C79.3367 38.9756 79.5301 39.2554 79.6622 39.5636C79.7943 39.8718 79.8625 40.2022 79.863 40.5361V41.8153C79.863 42.4909 79.5868 43.1388 79.095 43.6164C78.6032 44.0941 77.9362 44.3625 77.2407 44.3625H37.1331C35.396 44.3625 33.73 45.0328 32.5016 46.226C31.2733 47.4191 30.5832 49.0374 30.5832 50.7248V53.8002C30.5828 54.2183 30.6244 54.6353 30.7075 55.0455H20.0007C19.6371 55.0404 19.276 55.1063 18.939 55.2391C18.602 55.3719 18.2959 55.5691 18.0387 55.8189C17.7815 56.0687 17.5785 56.3661 17.4418 56.6935C17.305 57.0208 17.2372 57.3715 17.2425 57.7248C17.2754 58.3761 17.5655 58.9902 18.0524 59.4392C18.5393 59.8883 19.1856 60.1378 19.857 60.1361H36.562C36.7557 60.1545 36.9502 60.1633 37.1448 60.1625H86.2692C86.7115 60.162 87.1526 60.1191 87.5862 60.0342C87.7989 59.9929 88.009 59.94 88.2156 59.8757L88.5225 59.7738C88.8201 59.6682 89.1096 59.5421 89.3888 59.3965C89.7534 59.2004 90.0992 58.9731 90.4222 58.7172C90.7403 58.4535 91.0365 58.1658 91.3079 57.8568C91.5049 57.6163 91.6865 57.3642 91.8518 57.1021L92.0072 56.8342C92.1043 56.6568 92.1976 56.4568 92.283 56.2795C92.3219 56.1851 92.3685 56.0832 92.3996 55.9889C92.4307 55.8946 92.4734 55.7927 92.5045 55.6908C92.5694 55.4936 92.6238 55.2934 92.6676 55.0908C92.7554 54.6659 92.7997 54.2336 92.7997 53.8002V7.79645C92.8063 7.3637 92.7685 6.93139 92.6871 6.50589ZM72.7071 13.8719H68.3171C67.9722 13.8719 67.6306 13.8051 67.3125 13.6756C66.9943 13.546 66.7059 13.3562 66.464 13.1172C66.0978 12.761 65.8484 12.3073 65.7474 11.8135C65.6464 11.3197 65.6983 10.8079 65.8966 10.3427C66.0949 9.87759 66.4307 9.47994 66.8615 9.20003C67.2923 8.92011 67.7988 8.77048 68.3171 8.77004H72.7071C73.3846 8.79538 74.0256 9.07463 74.4957 9.5492C74.9659 10.0238 75.2285 10.6567 75.2285 11.3153C75.2285 11.9739 74.9659 12.6069 74.4957 13.0814C74.0256 13.556 73.3846 13.8353 72.7071 13.8606V13.8719ZM53.1117 36.4078H48.7217C48.0258 36.4031 47.3599 36.1319 46.8687 35.6531C46.5077 35.2961 46.2629 34.8437 46.1649 34.3525C46.067 33.8612 46.1201 33.3528 46.3178 32.8907C46.5155 32.4287 46.8489 32.0334 47.2764 31.7542C47.7039 31.475 48.2066 31.3243 48.7217 31.321H53.1117C53.8076 31.3256 54.4735 31.5968 54.9648 32.0757C55.331 32.4319 55.5804 32.8856 55.6814 33.3794C55.7824 33.8732 55.7305 34.385 55.5322 34.8502C55.3339 35.3153 54.9981 35.713 54.5673 35.9929C54.1365 36.2728 53.63 36.4224 53.1117 36.4229V36.4078ZM41.8105 51.7814H37.4128C36.7353 51.756 36.0943 51.4768 35.6242 51.0022C35.154 50.5276 34.8914 49.8947 34.8914 49.2361C34.8914 48.5775 35.154 47.9445 35.6242 47.47C36.0943 46.9954 36.7353 46.7161 37.4128 46.6908H41.8105C42.5065 46.6954 43.1724 46.9667 43.6636 47.4455C44.0299 47.8017 44.2793 48.2554 44.3803 48.7492C44.4812 49.243 44.4293 49.7548 44.231 50.22C44.0328 50.6851 43.697 51.0828 43.2662 51.3627C42.8354 51.6426 42.3288 51.7922 41.8105 51.7927V51.7814Z" fill="#EBB120"/>
<path d="M37.4425 5.13962C38.9036 5.13962 40.0881 3.98908 40.0881 2.56981C40.0881 1.15054 38.9036 0 37.4425 0C35.9814 0 34.7969 1.15054 34.7969 2.56981C34.7969 3.98908 35.9814 5.13962 37.4425 5.13962Z" fill="#EBB120"/>
<path d="M22.8214 27.3208C24.2825 27.3208 25.467 26.1702 25.467 24.751C25.467 23.3317 24.2825 22.1812 22.8214 22.1812C21.3603 22.1812 20.1758 23.3317 20.1758 24.751C20.1758 26.1702 21.3603 27.3208 22.8214 27.3208Z" fill="#EBB120"/>
<path d="M12.1105 60.1587C13.5716 60.1587 14.7561 59.0081 14.7561 57.5889C14.7561 56.1696 13.5716 55.019 12.1105 55.019C10.6493 55.019 9.46484 56.1696 9.46484 57.5889C9.46484 59.0081 10.6493 60.1587 12.1105 60.1587Z" fill="#EBB120"/>
<path d="M95.9567 4.50568H95.8945C96.2703 3.32064 96.9989 2.2702 97.9885 1.48682L98.0312 1.53587C97.0538 2.32618 96.3332 3.37479 95.9567 4.55474V4.50568Z" fill="#4169B2"/>
<path d="M98.0427 1.50949L98 1.4642C98.2409 1.26313 98.5011 1.08496 98.777 0.932129L98.8119 0.984959C98.543 1.14184 98.286 1.31712 98.0427 1.50949Z" fill="#4169B2"/>
<path d="M98.8045 0.973519L98.7695 0.920688C99.0354 0.753037 99.3178 0.611461 99.6126 0.498047L99.6359 0.554651C99.3494 0.67607 99.0717 0.816007 98.8045 0.973519Z" fill="#4169B2"/>
<path d="M149.745 59.9998H125.787C126.091 59.1409 126.234 58.2361 126.211 57.3281C126.147 55.3279 125.278 53.4317 123.79 52.0475C122.302 50.6634 120.314 49.9017 118.254 49.9264C116.194 49.9512 114.226 50.7603 112.774 52.1797C111.322 53.5992 110.501 55.5156 110.489 57.5168C110.488 58.3618 110.632 59.201 110.916 59.9998H102.175C100.437 59.9998 98.7697 59.3291 97.5407 58.1353C96.3116 56.9414 95.6211 55.3222 95.6211 53.6338V51.7206C95.6206 50.8843 95.7897 50.056 96.1189 49.2832C96.448 48.5104 96.9307 47.8082 97.5393 47.2167C98.1479 46.6251 98.8706 46.1559 99.666 45.8357C100.461 45.5156 101.314 45.3508 102.175 45.3508H126.588C126.979 45.3507 127.364 45.2564 127.708 45.0763C128.053 44.8963 128.346 44.6361 128.561 44.3191C128.777 44.002 128.908 43.638 128.943 43.2596C128.979 42.8812 128.917 42.5002 128.763 42.1508C128.581 41.7373 128.277 41.385 127.89 41.1375C127.504 40.8899 127.051 40.7581 126.588 40.7583H102.175C101.314 40.7588 100.462 40.5946 99.6672 40.2751C98.872 39.9556 98.1495 39.487 97.5409 38.8962C96.9323 38.3053 96.4495 37.6038 96.1201 36.8317C95.7906 36.0595 95.6211 35.2319 95.6211 34.3961V6.38851C95.6211 6.15832 95.6211 5.93568 95.6561 5.72058C95.691 5.50549 95.7143 5.30549 95.7532 5.10926C95.7966 4.90286 95.851 4.69881 95.9163 4.49794C96.0096 4.20203 96.1252 3.9132 96.2621 3.63379C96.3359 3.47907 96.4214 3.33945 96.5068 3.19228C96.5068 3.16586 96.534 3.147 96.5457 3.12436C96.5649 3.08997 96.587 3.05716 96.6117 3.02624C96.6845 2.91023 96.7636 2.79812 96.8487 2.69039C96.8541 2.67425 96.862 2.65899 96.872 2.64511C96.8887 2.62718 96.9043 2.60827 96.9186 2.58851C97.0054 2.47054 97.1001 2.35834 97.2022 2.25266C97.2166 2.22527 97.2364 2.20091 97.2605 2.18096C97.3818 2.04029 97.5115 1.90672 97.649 1.78096C97.7694 1.67907 97.886 1.56964 98.0025 1.4753C98.2468 1.27954 98.5066 1.10289 98.7795 0.946997C99.049 0.788784 99.3293 0.648828 99.6187 0.528129C99.8129 0.44511 100.007 0.373412 100.221 0.309261C100.434 0.24511 100.629 0.196053 100.839 0.15077C101.279 0.0655104 101.726 0.0225359 102.175 0.0224683H116.627C117.89 0.0206079 119.127 0.373722 120.189 1.03925C121.25 1.70478 122.091 2.65431 122.609 3.77341L126.522 10.8262C126.703 11.2138 126.781 11.6394 126.749 12.064C126.718 12.4886 126.576 12.8987 126.339 13.2566C126.102 13.6145 125.776 13.9088 125.391 14.1125C125.006 14.3162 124.575 14.4228 124.136 14.4225H110.966C110.34 14.4235 109.739 14.666 109.296 15.0969C108.853 15.5278 108.604 16.1117 108.604 16.7206V22.6602C108.604 23.269 108.853 23.853 109.296 24.2839C109.739 24.7148 110.34 24.9573 110.966 24.9583H132.901C133.407 24.96 133.901 25.1033 134.326 25.371C134.75 25.6387 135.086 26.0194 135.294 26.4678L152.131 56.4149C152.309 56.8021 152.384 57.2262 152.35 57.6488C152.317 58.0715 152.175 58.4793 151.938 58.8353C151.701 59.1913 151.377 59.4843 150.994 59.6876C150.611 59.891 150.182 59.9983 149.745 59.9998Z" fill="#172044"/>
<path d="M123.677 59.9999H113.024C112.637 59.2237 112.438 58.3718 112.441 57.5094C112.441 55.9851 113.065 54.5233 114.174 53.4455C115.284 52.3677 116.789 51.7622 118.358 51.7622C119.927 51.7622 121.432 52.3677 122.542 53.4455C123.651 54.5233 124.275 55.9851 124.275 57.5094C124.277 58.3721 124.076 59.2238 123.688 59.9999H123.677ZM113.051 59.9735H123.649C124.03 59.2062 124.227 58.365 124.224 57.5132C124.185 56.0248 123.549 54.6103 122.451 53.5712C121.353 52.532 119.881 51.9505 118.348 51.9505C116.816 51.9505 115.344 52.532 114.246 53.5712C113.148 54.6103 112.512 56.0248 112.473 57.5132C112.47 58.3654 112.668 59.2069 113.051 59.9735Z" fill="#4169B2"/>
<path d="M118.35 63.2715C117.234 63.267 116.141 62.9579 115.197 62.3795C114.252 61.801 113.494 60.9765 113.009 59.9998C112.621 59.2224 112.42 58.3694 112.422 57.5055C112.461 56.0043 113.103 54.5775 114.21 53.5293C115.317 52.4811 116.802 51.8944 118.348 51.8944C119.894 51.8944 121.379 52.4811 122.486 53.5293C123.593 54.5775 124.235 56.0043 124.275 57.5055C124.278 58.3692 124.079 59.2223 123.692 59.9998C123.206 60.9762 122.448 61.8005 121.504 62.3789C120.559 62.9573 119.467 63.2666 118.35 63.2715ZM118.35 51.8149C116.795 51.8169 115.304 52.4179 114.204 53.4861C113.105 54.5543 112.486 56.0024 112.484 57.5131C112.475 58.3732 112.669 59.2239 113.051 59.9998C113.529 60.9675 114.279 61.7842 115.214 62.3559C116.149 62.9276 117.232 63.2309 118.337 63.2309C119.442 63.2309 120.524 62.9276 121.459 62.3559C122.394 61.7842 123.144 60.9675 123.622 59.9998C124.008 59.2314 124.208 58.3871 124.205 57.5319C124.207 56.0203 123.592 54.5696 122.494 53.4979C121.397 52.4261 119.906 51.8209 118.35 51.8149Z" fill="#4169B2"/>
<path d="M124.248 57.5133C124.249 58.3735 124.048 59.2227 123.661 59.9963C123.031 61.2625 121.943 62.259 120.605 62.7955C119.267 63.332 117.772 63.3709 116.406 62.9047C115.04 62.4386 113.899 61.5002 113.2 60.2685C112.501 59.0369 112.294 57.5985 112.618 56.2278C112.942 54.8572 113.774 53.6504 114.956 52.838C116.137 52.0255 117.586 51.6643 119.024 51.8233C120.463 51.9823 121.79 52.6504 122.754 53.7C123.717 54.7495 124.249 56.1071 124.248 57.5133Z" fill="#172044"/>
</g>
<defs>
<clipPath id="clip0_2084_5909">
<rect width="162" height="100" fill="white"/>
</clipPath>
</defs>
</svg>
