<svg width="32" height="32" viewBox="0 0 32 32" fill="none" xmlns="http://www.w3.org/2000/svg">
<path d="M29.2491 6.75985C28.6917 6.20049 28.0293 5.75667 27.3 5.45384C26.5707 5.151 25.7888 4.99512 24.9991 4.99512C24.2094 4.99512 23.4275 5.151 22.6982 5.45384C21.9689 5.75667 21.3065 6.20049 20.7491 6.75985L22.1691 8.17985C22.5414 7.80755 22.9834 7.51223 23.4698 7.31074C23.9562 7.10926 24.4776 7.00555 25.0041 7.00555C25.5306 7.00555 26.052 7.10926 26.5384 7.31074C27.0248 7.51223 27.4668 7.80755 27.8391 8.17985C28.2114 8.55215 28.5067 8.99413 28.7082 9.48056C28.9097 9.96699 29.0134 10.4883 29.0134 11.0148C29.0134 11.5414 28.9097 12.0627 28.7082 12.5491C28.5067 13.0356 28.2114 13.4776 27.8391 13.8498L19.8391 21.8498C19.0885 22.6017 18.07 23.0247 17.0076 23.0256C15.9452 23.0265 14.926 22.6054 14.1741 21.8548C13.4222 21.1043 12.9993 20.0858 12.9983 19.0234C12.9974 17.961 13.4185 16.9417 14.1691 16.1898L15.5791 14.7698L14.1691 13.3498L12.7491 14.7698C12.1897 15.3273 11.7459 15.9896 11.4431 16.7189C11.1403 17.4482 10.9844 18.2302 10.9844 19.0198C10.9844 19.8095 11.1403 20.5914 11.4431 21.3208C11.7459 22.0501 12.1897 22.7124 12.7491 23.2698C13.8806 24.3868 15.4092 25.0091 16.9991 24.9998C17.7918 25.0031 18.5773 24.8492 19.3102 24.5472C20.0431 24.2451 20.7089 23.8007 21.2691 23.2398L29.2691 15.2398C30.3901 14.1122 31.0176 12.5857 31.0138 10.9957C31.0101 9.4057 30.3754 7.8822 29.2491 6.75985Z" fill="black"/>
<path d="M4.1885 24.8198C3.8151 24.4481 3.51879 24.0064 3.31661 23.5199C3.11442 23.0333 3.01034 22.5117 3.01034 21.9848C3.01034 21.458 3.11442 20.9363 3.31661 20.4498C3.51879 19.9633 3.8151 19.5215 4.1885 19.1498L12.1885 11.1498C12.5602 10.7764 13.002 10.4801 13.4885 10.2779C13.975 10.0757 14.4967 9.97166 15.0235 9.97166C15.5504 9.97166 16.072 10.0757 16.5585 10.2779C17.0451 10.4801 17.4868 10.7764 17.8585 11.1498C18.2296 11.5244 18.5216 11.9697 18.7175 12.4592C18.9133 12.9488 19.0089 13.4727 18.9985 13.9998C19.0016 14.5286 18.8997 15.0528 18.6989 15.542C18.4981 16.0312 18.2022 16.4757 17.8285 16.8498L15.7085 18.9998L17.1285 20.4198L19.2485 18.2998C20.377 17.1713 21.011 15.6408 21.011 14.0448C21.011 12.4489 20.377 10.9183 19.2485 9.78982C18.12 8.66133 16.5894 8.02734 14.9935 8.02734C13.3976 8.02734 11.867 8.66133 10.7385 9.78982L2.7385 17.7898C2.17764 18.3474 1.73255 19.0104 1.42883 19.7406C1.12511 20.4709 0.96875 21.2539 0.96875 22.0448C0.96875 22.8357 1.12511 23.6188 1.42883 24.349C1.73255 25.0792 2.17764 25.7422 2.7385 26.2998C3.87733 27.4083 5.4094 28.0197 6.9985 27.9998C8.60161 28.0014 10.1402 27.3687 11.2785 26.2398L9.8585 24.8198C9.48683 25.1932 9.04505 25.4895 8.55854 25.6917C8.07202 25.8939 7.55036 25.998 7.0235 25.998C6.49665 25.998 5.97499 25.8939 5.48847 25.6917C5.00196 25.4895 4.56018 25.1932 4.1885 24.8198Z" fill="black"/>
</svg>
