<svg width="60" height="60" viewBox="0 0 60 60" fill="none" xmlns="http://www.w3.org/2000/svg">
<g clip-path="url(#clip0_2211_210)">
<path d="M58.7245 49.9568L50.5123 44.8239C56.2887 40.2097 60 33.1123 60 25.1613C60 11.2868 48.7123 0 34.8387 0C23.2026 0 13.0403 8.09226 10.3761 19.3548H6.77419L14.5161 29.6777L22.2581 19.3548H18.4268C20.8645 12.4568 27.4394 7.74194 34.8387 7.74194C44.4435 7.74194 52.2581 15.5565 52.2581 25.1613C52.2581 34.7661 44.4435 42.5806 34.8387 42.5806H28.5939C28.2039 41.9458 27.5787 41.459 26.8055 41.2626C26.5094 41.1871 26.2606 40.9713 26.1339 40.6665C26.0119 40.3761 26.0332 40.0442 26.2026 39.7597C26.399 39.4297 26.5161 39.0726 26.5723 38.7097H43.5484V15.4839H24.1935V34.6326L23.8045 34.2435C23.3748 33.8139 22.8329 33.5574 22.2581 33.4529V30H6.77419V33.4519C6.19935 33.5565 5.65742 33.8129 5.22774 34.2435L3.27484 36.1964C2.32742 37.1439 2.14452 38.609 2.84032 39.78C2.99806 40.0442 3.02032 40.3761 2.88968 40.6858C2.77065 40.9723 2.52194 41.1881 2.20355 41.2694C0.906774 41.5984 0 42.7635 0 44.1029V46.8648C0 48.2042 0.906774 49.3694 2.22677 49.7061C2.5229 49.7816 2.77161 49.9974 2.89839 50.3023C3.02032 50.5926 2.99903 50.9245 2.82968 51.209C2.14452 52.3597 2.32839 53.8258 3.27484 54.7732L5.22774 56.7261C6.17419 57.6735 7.64032 57.8565 8.81129 57.1606C9.07548 57.0029 9.40742 56.9797 9.7171 57.1103C10.0035 57.2294 10.2194 57.479 10.3006 57.7964C10.6297 59.0932 11.7958 60 13.1352 60H15.8971C17.2365 60 18.4026 59.0932 18.7384 57.7742C18.8139 57.4771 19.0297 57.2284 19.3365 57.1016C19.6268 56.9777 19.9568 57.001 20.2413 57.1703C21.3929 57.8564 22.8581 57.6716 23.8055 56.7242L24.3997 56.129H50.3226V59.8113L58.7245 54.5594C59.5229 54.06 60 53.1997 60 52.2581C60 51.3164 59.5229 50.4561 58.7245 49.9568ZM54.1935 25.1613C54.1935 14.489 45.511 5.80645 34.8387 5.80645C26.1397 5.80645 18.4655 11.6719 16.1777 20.0681L15.8448 21.2903H18.3871L14.5161 26.4513L10.6452 21.2903H11.9448L12.1026 20.5152C14.2916 9.74903 23.8539 1.93548 34.8387 1.93548C47.6448 1.93548 58.0645 12.3552 58.0645 25.1613C58.0645 37.9674 47.6448 48.3871 34.8387 48.3871H28.5958C28.8697 47.939 29.0323 47.4194 29.0323 46.8648V44.5161H34.8387C45.511 44.5161 54.1935 35.8335 54.1935 25.1613ZM50.3226 44.9719V48.3871H44.5094C46.6064 47.5103 48.5574 46.3548 50.3226 44.9719ZM41.6129 17.4194V36.7742H26.1948C26.1726 36.7374 26.1532 36.6987 26.129 36.6629V17.4194H41.6129ZM8.70968 31.9355H20.3226V51.2903H8.70968V31.9355ZM22.4361 55.3558C22.1158 55.6761 21.6194 55.739 21.211 55.4961C20.4194 55.0248 19.4371 54.96 18.57 55.3229C17.7261 55.6761 17.0874 56.4135 16.8571 57.3194C16.7448 57.7577 16.35 58.0645 15.8971 58.0645H13.1352C12.6823 58.0645 12.2874 57.7577 12.1703 57.2961C11.9458 56.4135 11.3071 55.6761 10.4477 55.3171C9.59419 54.959 8.6129 55.0248 7.80194 55.5068C7.4129 55.7371 6.91645 55.6761 6.59613 55.3558L4.64323 53.4029C4.3229 53.0826 4.26097 52.5861 4.50387 52.1777C4.97419 51.3871 5.04097 50.4058 4.67613 49.5358C4.32387 48.6919 3.58548 48.0542 2.68161 47.8239C2.24226 47.7126 1.93548 47.3177 1.93548 46.8648V44.1029C1.93548 43.65 2.24226 43.2552 2.7029 43.1371C3.58645 42.9135 4.32387 42.2748 4.68387 41.4145C5.04194 40.561 4.97419 39.5797 4.49323 38.7716C4.26194 38.3816 4.32387 37.8852 4.64419 37.5648L6.59806 35.6119C6.65032 35.5587 6.71129 35.5142 6.77419 35.4755V53.2258H22.2581V35.4735C22.321 35.5132 22.3819 35.5568 22.4361 35.611L24.389 37.5639C24.7094 37.8842 24.7713 38.3806 24.5284 38.789C24.0581 39.5797 23.9913 40.561 24.3561 41.431C24.7084 42.2748 25.4468 42.9126 26.3506 43.1429C26.79 43.2552 27.0968 43.65 27.0968 44.1029V46.8648C27.0968 47.3177 26.79 47.7126 26.3294 47.8306C25.4458 48.0542 24.7084 48.6929 24.3484 49.5532C23.9903 50.4068 24.0581 51.3881 24.539 52.1961C24.7703 52.5861 24.7084 53.0826 24.3881 53.4029L22.4361 55.3558ZM57.6987 52.919L52.2581 56.3177V54.1935H26.1948C26.7329 53.2877 26.759 52.1419 26.1919 51.1887C26.041 50.9352 26.0187 50.6206 26.131 50.3226H52.2581V48.1984L57.6987 51.5981C57.9271 51.7413 58.0645 51.9881 58.0645 52.2581C58.0645 52.5281 57.9271 52.7748 57.6987 52.919Z" fill="black"/>
<path d="M10.6445 33.8711H18.3865V35.8066H10.6445V33.8711Z" fill="black"/>
<path d="M10.6445 37.7422H18.3865V39.6777H10.6445V37.7422Z" fill="black"/>
<path d="M10.6445 49.3552H18.3865V41.6133H10.6445V49.3552ZM12.58 43.5488H16.451V47.4197H12.58V43.5488Z" fill="black"/>
<path d="M39.6793 27.0967H37.7438V32.9031H35.8083V30.9676H33.8729V32.9031H31.9374V29.0322H30.0019V32.9031H28.0664V34.8386H39.6793V27.0967Z" fill="black"/>
<path d="M28.0664 19.3545H39.6793V21.29H28.0664V19.3545Z" fill="black"/>
<path d="M28.0664 23.2256H39.6793V25.1611H28.0664V23.2256Z" fill="black"/>
</g>
<defs>
<clipPath id="clip0_2211_210">
<rect width="60" height="60" fill="white"/>
</clipPath>
</defs>
</svg>
