<svg width="60" height="60" viewBox="0 0 60 60" fill="none" xmlns="http://www.w3.org/2000/svg">
<path d="M30.0002 52.5227C28.9818 52.5227 28.1533 51.6942 28.1533 50.6758H26.2617C26.2617 52.7376 27.9391 54.4142 30.0002 54.4142C32.0612 54.4142 33.7386 52.7368 33.7386 50.6758H31.8471C31.8471 51.6942 31.0186 52.5227 30.0002 52.5227Z" fill="black"/>
<path d="M57.6424 18.3223C56.1314 14.7496 53.9682 11.5415 51.2134 8.78663C48.4585 6.03178 45.2504 3.8686 41.6777 2.35763C37.9786 0.793695 34.0494 0 30 0C25.9506 0 22.0214 0.793695 18.3223 2.35763C14.7496 3.8686 11.5415 6.03178 8.78663 8.78663C6.03178 11.5415 3.8686 14.7496 2.35763 18.3223C0.793695 22.0214 0 25.9506 0 30C0 34.0494 0.793695 37.9786 2.35763 41.6777C3.8686 45.2504 6.03178 48.4585 8.78663 51.2134C9.15586 51.5826 9.75511 51.5826 10.1243 51.2134L16.9725 44.3652C17.3417 43.996 17.3417 43.3975 16.9725 43.0275C13.4928 39.547 11.5763 34.9203 11.5763 30C11.5763 25.0797 13.4928 20.453 16.9725 16.9725C20.453 13.4928 25.0797 11.5763 30 11.5763C34.9203 11.5763 39.547 13.4928 43.0275 16.9725C43.6146 17.5596 44.1617 18.1884 44.6656 18.8504L29.058 24.289C28.5367 24.3745 28.0305 24.5304 27.5546 24.7536C27.4055 24.8232 27.2542 24.9011 27.1059 24.9866C24.342 26.5823 23.3917 30.1294 24.9866 32.8941C25.7902 34.2855 27.1498 35.2873 28.7153 35.6436C29.1375 35.7397 29.568 35.7874 29.9977 35.7874C30.8398 35.7874 31.6797 35.6043 32.4446 35.2464C32.5937 35.1768 32.745 35.0989 32.8933 35.0134C33.5016 34.6623 34.0313 34.2113 34.4716 33.6734L46.9937 22.8726C47.9425 25.1228 48.4237 27.5145 48.4237 30C48.4237 34.9211 46.5072 39.5478 43.0275 43.0275C42.8504 43.2045 42.7506 43.4451 42.7506 43.6963C42.7506 43.9475 42.8504 44.1881 43.0275 44.3652L49.8757 51.2134C50.0603 51.398 50.3024 51.4903 50.5445 51.4903C50.7866 51.4903 51.0287 51.398 51.2134 51.2134C53.9682 48.4585 56.1314 45.2504 57.6424 41.6777C59.2063 37.9786 60 34.0494 60 30C60 25.9506 59.2063 22.0214 57.6424 18.3223ZM14.9811 43.6812L9.46608 49.1962C4.57453 43.9718 1.89155 37.1917 1.89155 30C1.89155 22.8083 4.57604 16.0298 9.46759 10.8053L14.9818 16.3195C11.5589 20.0694 9.68474 24.8905 9.68474 30C9.68474 35.1095 11.5589 39.9314 14.9811 43.6812ZM30 9.68474C24.8905 9.68474 20.0694 11.5589 16.3195 14.9818L10.8053 9.46759C16.0298 4.57604 22.8083 1.89155 30 1.89155C37.1917 1.89155 43.9702 4.57604 49.1947 9.46759L43.6805 14.9818C39.9306 11.5589 35.1095 9.68474 30 9.68474ZM31.9483 33.3745C31.8484 33.432 31.7478 33.4842 31.6464 33.5319C30.8565 33.9011 29.9886 33.9942 29.1359 33.799C28.0653 33.5561 27.174 32.8986 26.6255 31.9483C25.5511 30.087 26.1912 27.6991 28.0517 26.6255C28.1516 26.568 28.2522 26.5158 28.3543 26.4681C28.6963 26.3077 29.058 26.1987 29.431 26.1443C29.4855 26.1359 29.54 26.1299 29.5945 26.1238C29.6119 26.1223 29.6285 26.1208 29.6459 26.1193C29.6837 26.1155 29.7216 26.1132 29.7601 26.1102C29.7791 26.1087 29.7987 26.1079 29.8177 26.1072C29.8562 26.1057 29.8956 26.1042 29.9342 26.1034C29.9501 26.1034 29.9667 26.1026 29.9826 26.1026C30.0015 26.1026 30.0204 26.1034 30.0386 26.1034C30.0885 26.1042 30.1377 26.1049 30.1876 26.1079C30.2111 26.1095 30.2345 26.111 30.258 26.1125C30.3026 26.1155 30.3473 26.1193 30.3919 26.1238C30.4161 26.1261 30.4404 26.1291 30.4646 26.1314C30.5107 26.1367 30.5569 26.1435 30.603 26.1511C30.6242 26.1541 30.6454 26.1571 30.6666 26.1609C30.7332 26.1723 30.7997 26.1851 30.8656 26.2003C31.9362 26.4431 32.8275 27.1006 33.376 28.0509C34.1803 29.4446 34.0547 31.1599 33.0552 32.4204C33.0545 32.4212 33.0545 32.4212 33.0537 32.4219C32.7496 32.8063 32.3781 33.1271 31.9483 33.3745ZM35.7942 30.0174C35.7942 29.9909 35.7934 29.9644 35.7934 29.9372C35.7927 29.8963 35.7927 29.8562 35.7912 29.8154C35.7904 29.7866 35.7889 29.7586 35.7874 29.7299C35.7859 29.6913 35.7836 29.6527 35.7806 29.6134C35.7783 29.5839 35.776 29.5551 35.7738 29.5264C35.7707 29.4878 35.767 29.4499 35.7632 29.4113C35.7601 29.3826 35.7571 29.3531 35.7533 29.3243C35.7488 29.2857 35.7435 29.2464 35.7382 29.2078C35.7344 29.1798 35.7306 29.1518 35.7261 29.1238C35.72 29.0822 35.7125 29.0414 35.7049 28.9997C35.7004 28.9748 35.6966 28.9491 35.6913 28.9241C35.6815 28.8726 35.6709 28.8219 35.6595 28.7705C35.6565 28.7554 35.6535 28.7402 35.6497 28.7251C35.6345 28.6593 35.6187 28.5942 35.6013 28.5291C35.596 28.5087 35.5892 28.4875 35.5839 28.4671C35.5718 28.4224 35.5589 28.377 35.5453 28.3324C35.5377 28.3067 35.5294 28.281 35.5211 28.256C35.5082 28.2159 35.4953 28.1765 35.4817 28.1364C35.4726 28.1092 35.4628 28.0827 35.453 28.0555C35.4393 28.0177 35.425 27.9791 35.4106 27.9412C35.4 27.914 35.3894 27.8868 35.3788 27.8603C35.3637 27.8224 35.3478 27.7846 35.3319 27.7468C35.3206 27.7203 35.3092 27.6938 35.2979 27.6681C35.2805 27.6295 35.2631 27.5909 35.2449 27.5523C35.2335 27.5274 35.2222 27.5032 35.2101 27.4782C35.1897 27.4358 35.1685 27.3942 35.1465 27.3526C35.1359 27.3322 35.1261 27.3117 35.1147 27.2913C35.0815 27.2293 35.0482 27.1672 35.0126 27.1067C34.968 27.0295 34.9211 26.9538 34.8726 26.8789C34.8613 26.8615 34.8499 26.8441 34.8386 26.8267C34.7902 26.7533 34.741 26.6807 34.6895 26.6103C34.6835 26.602 34.6774 26.5937 34.6714 26.5854C34.6237 26.5211 34.5753 26.4575 34.5253 26.3947C34.5132 26.3796 34.5011 26.3637 34.4883 26.3485C34.4338 26.2812 34.3778 26.2154 34.3203 26.1511C34.3097 26.139 34.2991 26.1276 34.2885 26.1163C34.2371 26.0595 34.1849 26.0043 34.1311 25.9498C34.119 25.9369 34.1069 25.9248 34.0941 25.912C34.0335 25.8514 33.9707 25.7917 33.9079 25.7342C33.8936 25.7213 33.88 25.7092 33.8656 25.6963C33.8081 25.6449 33.7498 25.5942 33.6908 25.545C33.6802 25.5367 33.6704 25.5276 33.6598 25.5185C33.5932 25.4641 33.5251 25.4111 33.4555 25.3596C33.4388 25.3475 33.423 25.3354 33.4063 25.3233C33.3397 25.2749 33.2724 25.228 33.2043 25.1826C33.199 25.1788 33.1937 25.175 33.1884 25.1712C33.1158 25.1236 33.0416 25.0774 32.9667 25.0328C32.9486 25.0222 32.9311 25.0116 32.913 25.001C32.8941 24.9904 32.8759 24.9791 32.857 24.9677L47.6406 19.8166L46.7092 20.6202L35.7942 30.0348C35.795 30.0288 35.7942 30.0235 35.7942 30.0174ZM50.5339 49.1962L45.0189 43.6812C48.4419 39.9322 50.3153 35.1102 50.3153 30C50.3153 27.053 49.7024 24.224 48.4926 21.5796L51.2224 19.225C51.7021 18.8111 51.8164 18.1385 51.4994 17.5892C51.4396 17.4847 51.3677 17.3924 51.2868 17.3115C50.9735 16.9975 50.5226 16.8673 50.0792 16.9725C50.0338 16.9831 49.9892 16.9952 49.9445 17.0111L46.5367 18.1982C46.0683 17.543 45.5599 16.9158 45.0174 16.3203L50.5316 10.8061C55.424 16.0298 58.1084 22.8083 58.1084 30C58.1084 37.1917 55.4255 43.9718 50.5339 49.1962Z" fill="black"/>
<path d="M30.0026 38.5576C24.0911 38.5576 19.2812 43.3675 19.2812 49.2789C19.2812 55.1904 24.0911 60.0002 30.0026 60.0002C35.914 60.0002 40.7239 55.1904 40.7239 49.2789C40.7239 43.3675 35.914 38.5576 30.0026 38.5576ZM30.0026 58.1087C25.1337 58.1087 21.1728 54.1478 21.1728 49.2789C21.1728 44.4101 25.1337 40.4492 30.0026 40.4492C34.8714 40.4492 38.8323 44.4101 38.8323 49.2789C38.8323 54.1478 34.8714 58.1087 30.0026 58.1087Z" fill="black"/>
<path d="M27.2983 47.5829C27.8695 47.5829 28.3341 47.1252 28.3341 46.5615C28.3341 45.9986 27.8695 45.54 27.2983 45.54C26.7263 45.54 26.2617 45.9986 26.2617 46.5615C26.2617 47.1252 26.7263 47.5829 27.2983 47.5829Z" fill="black"/>
<path d="M32.8842 45.54C32.313 45.54 31.8477 45.9986 31.8477 46.5615C31.8477 47.1252 32.313 47.5829 32.8842 47.5829C33.4562 47.5829 33.9208 47.1252 33.9208 46.5615C33.9208 45.9986 33.4562 45.54 32.8842 45.54Z" fill="black"/>
</svg>
