<svg width="371" height="265" viewBox="0 0 371 265" fill="none" xmlns="http://www.w3.org/2000/svg">
<path d="M175.738 46.2234C186.873 59.8641 220.348 73.9792 244.634 54.4959C268.917 35.0092 142.864 5.95665 175.738 46.2234Z" fill="#EAF0F8"/>
<path d="M112.01 204.599C70.9993 160.401 67.2035 117.472 85.3824 84.2188C121.358 18.418 162.535 59.5209 212.854 66.7388C264.146 74.0933 325.663 101.538 282.321 177.871C252.861 229.758 170.565 267.714 112.006 204.599H112.01Z" fill="#EAF0F8"/>
<mask id="mask0_2123_7301" style="mask-type:luminance" maskUnits="userSpaceOnUse" x="75" y="47" width="222" height="191">
<path d="M112.01 204.607C70.9993 160.409 67.2035 117.48 85.3824 84.2267C121.358 18.4258 162.535 59.5287 212.854 66.7467C264.146 74.1011 325.663 101.546 282.321 177.879C252.861 229.766 170.565 267.722 112.006 204.607H112.01Z" fill="white"/>
</mask>
<g mask="url(#mask0_2123_7301)">
<path d="M312.961 47.5859H195.336V48.0194H312.961V47.5859Z" fill="white"/>
<path d="M288.786 34.4531H288.438V47.8037H288.786V34.4531Z" fill="white"/>
<path d="M259.317 34.4531H258.969V47.8037H259.317V34.4531Z" fill="white"/>
<path d="M229.849 34.4531H229.5V47.8037H229.849V34.4531Z" fill="white"/>
<path d="M200.376 34.4531H200.027V47.8037H200.376V34.4531Z" fill="white"/>
<path d="M192.5 61.1133H192.148V61.3317H192.5V61.1133Z" fill="white"/>
<path d="M312.965 61.1133H195.34V61.5501H312.965V61.1133Z" fill="white"/>
<path d="M280.907 47.9805H280.559V61.3311H280.907V47.9805Z" fill="white"/>
<path d="M251.439 47.9805H251.09V61.3311H251.439V47.9805Z" fill="white"/>
<path d="M221.97 47.9805H221.621V61.3311H221.97V47.9805Z" fill="white"/>
<path d="M192.5 61.1172H192.148V61.3356H192.5V61.1172Z" fill="white"/>
<path d="M312.961 74.6445H195.336V75.0848H312.961V74.6445Z" fill="white"/>
<path d="M288.786 61.5156H288.438V74.8628H288.786V61.5156Z" fill="white"/>
<path d="M259.317 61.5156H258.969V74.8628H259.317V61.5156Z" fill="white"/>
<path d="M229.849 61.5156H229.5V74.8628H229.849V61.5156Z" fill="white"/>
<path d="M200.376 61.5156H200.027V74.8628H200.376V61.5156Z" fill="white"/>
<path d="M192.5 88.1719H192.148V88.3937H192.5V88.1719Z" fill="white"/>
<path d="M312.965 88.1719H195.34V88.6121H312.965V88.1719Z" fill="white"/>
<path d="M280.907 75.0508H280.559V88.398H280.907V75.0508Z" fill="white"/>
<path d="M251.439 75.0508H251.09V88.398H251.439V75.0508Z" fill="white"/>
<path d="M221.97 75.0508H221.621V88.398H221.97V75.0508Z" fill="white"/>
<path d="M192.5 88.1836H192.148V88.4054H192.5V88.1836Z" fill="white"/>
<path d="M312.961 101.711H195.336V102.151H312.961V101.711Z" fill="white"/>
<path d="M288.786 88.5859H288.438V101.933H288.786V88.5859Z" fill="white"/>
<path d="M259.317 88.5859H258.969V101.933H259.317V88.5859Z" fill="white"/>
<path d="M229.849 88.5859H229.5V101.933H229.849V88.5859Z" fill="white"/>
<path d="M200.376 88.5859H200.027V101.933H200.376V88.5859Z" fill="white"/>
<path d="M192.5 115.246H192.148V115.465H192.5V115.246Z" fill="white"/>
<path d="M312.965 115.246H195.34V115.686H312.965V115.246Z" fill="white"/>
<path d="M280.907 102.113H280.559V115.46H280.907V102.113Z" fill="white"/>
<path d="M251.439 102.113H251.09V115.46H251.439V102.113Z" fill="white"/>
<path d="M221.97 102.113H221.621V115.46H221.97V102.113Z" fill="white"/>
<path d="M192.5 115.246H192.148V115.465H192.5V115.246Z" fill="white"/>
<path d="M192.5 129.18H192.148V129.217H192.5V129.18Z" fill="white"/>
<path d="M312.965 128.777H195.34V129.218H312.965V128.777Z" fill="white"/>
<path d="M288.786 115.645H288.438V128.995H288.786V115.645Z" fill="white"/>
<path d="M259.317 115.645H258.969V128.995H259.317V115.645Z" fill="white"/>
<path d="M229.849 115.645H229.5V128.995H229.849V115.645Z" fill="white"/>
<path d="M200.376 115.645H200.027V128.995H200.376V115.645Z" fill="white"/>
<path d="M192.5 142.309H192.148V142.527H192.5V142.309Z" fill="white"/>
<path d="M312.965 142.309H195.34V142.749H312.965V142.309Z" fill="white"/>
<path d="M280.899 129.176H280.551V142.523H280.899V129.176Z" fill="white"/>
<path d="M251.435 129.176H251.086V142.523H251.435V129.176Z" fill="white"/>
<path d="M221.962 129.176H221.613V142.523H221.962V129.176Z" fill="white"/>
<path d="M192.497 129.176H192.145V129.213H192.497V129.176Z" fill="white"/>
<path d="M192.497 142.309H192.145V142.527H192.497V142.309Z" fill="white"/>
<path d="M192.5 156H192.148V156.031H192.5V156Z" fill="white"/>
<path d="M312.965 155.598H195.34V156.031H312.965V155.598Z" fill="white"/>
<path d="M288.786 142.473H288.438V155.82H288.786V142.473Z" fill="white"/>
<path d="M259.317 142.473H258.969V155.82H259.317V142.473Z" fill="white"/>
<path d="M229.849 142.473H229.5V155.82H229.849V142.473Z" fill="white"/>
<path d="M200.376 142.473H200.027V155.82H200.376V142.473Z" fill="white"/>
<path d="M312.963 169.129H71.6797V169.566H312.963V169.129Z" fill="white"/>
<path d="M280.899 155.996H280.551V169.347H280.899V155.996Z" fill="white"/>
<path d="M251.431 155.996H251.082V169.347H251.431V155.996Z" fill="white"/>
<path d="M221.962 155.996H221.613V169.347H221.962V155.996Z" fill="white"/>
<path d="M192.497 155.996H192.145V156.027H192.497V155.996Z" fill="white"/>
<path d="M192.497 164.336H192.145V169.342H192.497V164.336Z" fill="white"/>
<path d="M163.024 164.336H162.672V169.342H163.024V164.336Z" fill="white"/>
<path d="M133.551 169.133H133.199V169.351H133.551V169.133Z" fill="white"/>
<path d="M104.079 164.336H103.727V169.342H104.079V164.336Z" fill="white"/>
<path d="M312.963 182.66H71.6758V183.097H312.963V182.66Z" fill="white"/>
<path d="M288.79 169.535H288.441V182.886H288.79V169.535Z" fill="white"/>
<path d="M259.317 169.535H258.969V182.886H259.317V169.535Z" fill="white"/>
<path d="M229.849 169.535H229.5V182.886H229.849V169.535Z" fill="white"/>
<path d="M200.376 169.535H200.027V182.886H200.376V169.535Z" fill="white"/>
<path d="M170.903 169.535H170.555V182.886H170.903V169.535Z" fill="white"/>
<path d="M141.435 169.535H141.086V182.886H141.435V169.535Z" fill="white"/>
<path d="M111.966 169.535H111.617V182.886H111.966V169.535Z" fill="white"/>
<path d="M82.4932 169.535H82.1445V182.886H82.4932V169.535Z" fill="white"/>
<path d="M312.963 196.191H71.6758V196.628H312.963V196.191Z" fill="white"/>
<path d="M280.903 183.062H280.555V196.413H280.903V183.062Z" fill="white"/>
<path d="M251.435 183.062H251.086V196.413H251.435V183.062Z" fill="white"/>
<path d="M221.962 183.062H221.613V196.413H221.962V183.062Z" fill="white"/>
<path d="M192.493 183.062H192.145V196.413H192.493V183.062Z" fill="white"/>
<path d="M163.021 183.062H162.672V196.413H163.021V183.062Z" fill="white"/>
<path d="M133.552 183.062H133.203V196.413H133.552V183.062Z" fill="white"/>
<path d="M104.079 183.062H103.73V196.413H104.079V183.062Z" fill="white"/>
<path d="M312.963 209.727H71.6758V210.163H312.963V209.727Z" fill="white"/>
<path d="M288.79 196.598H288.441V209.948H288.79V196.598Z" fill="white"/>
<path d="M259.317 196.598H258.969V209.948H259.317V196.598Z" fill="white"/>
<path d="M229.849 196.598H229.5V209.948H229.849V196.598Z" fill="white"/>
<path d="M200.376 196.598H200.027V209.948H200.376V196.598Z" fill="white"/>
<path d="M170.903 196.598H170.555V209.948H170.903V196.598Z" fill="white"/>
<path d="M141.435 196.598H141.086V209.948H141.435V196.598Z" fill="white"/>
<path d="M111.966 196.598H111.617V209.948H111.966V196.598Z" fill="white"/>
<path d="M82.4932 196.598H82.1445V209.948H82.4932V196.598Z" fill="white"/>
<path d="M312.963 223.258H71.6758V223.695H312.963V223.258Z" fill="white"/>
<path d="M280.903 210.129H280.555V223.476H280.903V210.129Z" fill="white"/>
<path d="M251.435 210.129H251.086V223.476H251.435V210.129Z" fill="white"/>
<path d="M221.962 210.129H221.613V223.476H221.962V210.129Z" fill="white"/>
<path d="M192.493 210.129H192.145V223.476H192.493V210.129Z" fill="white"/>
<path d="M163.021 210.129H162.672V223.476H163.021V210.129Z" fill="white"/>
<path d="M133.552 210.129H133.203V223.476H133.552V210.129Z" fill="white"/>
<path d="M104.079 210.129H103.73V223.476H104.079V210.129Z" fill="white"/>
<path d="M312.963 236.789H71.6758V237.226H312.963V236.789Z" fill="white"/>
<path d="M288.79 223.652H288.441V237H288.79V223.652Z" fill="white"/>
<path d="M259.317 223.652H258.969V237H259.317V223.652Z" fill="white"/>
<path d="M229.849 223.652H229.5V237H229.849V223.652Z" fill="white"/>
<path d="M200.376 223.652H200.027V237H200.376V223.652Z" fill="white"/>
<path d="M170.903 223.652H170.555V237H170.903V223.652Z" fill="white"/>
<path d="M141.435 223.652H141.086V237H141.435V223.652Z" fill="white"/>
<path d="M111.966 223.652H111.617V237H111.966V223.652Z" fill="white"/>
<path d="M82.4932 223.652H82.1445V237H82.4932V223.652Z" fill="white"/>
<path d="M280.903 237.195H280.555V250.542H280.903V237.195Z" fill="white"/>
<path d="M251.435 237.195H251.086V250.542H251.435V237.195Z" fill="white"/>
<path d="M221.962 237.195H221.613V250.542H221.962V237.195Z" fill="white"/>
<path d="M192.493 237.195H192.145V250.542H192.493V237.195Z" fill="white"/>
<path d="M163.021 237.195H162.672V250.542H163.021V237.195Z" fill="white"/>
<path d="M133.552 237.195H133.203V250.542H133.552V237.195Z" fill="white"/>
<path d="M104.079 237.195H103.73V250.542H104.079V237.195Z" fill="white"/>
<g opacity="0.5">
<path d="M74.2941 163.539L194.34 163.539L194.34 38.0496L74.2941 38.0496L74.2941 163.539Z" fill="white"/>
</g>
<path d="M67.8666 161.185C68.7865 163.27 69.8094 165.294 70.9518 167.242H197.344V33.1801C195.683 32.9617 194.003 32.7228 192.319 32.4498V77.9108H153.042V27.4604C151.073 27.2386 149.147 27.2215 147.271 27.3921V77.9108H112.381V46.9266H106.692V77.9108H80.1276C79.4999 79.4533 78.9187 81.0471 78.3907 82.692H106.692V120.474H70.4735C70.5134 122.051 70.5964 123.645 70.716 125.256H106.689V161.185H67.8633H67.8666ZM153.042 125.256H192.319V161.185H153.042V125.256ZM153.042 82.692H192.319V120.474H153.042V82.692ZM147.274 120.474H112.384V82.692H147.274V120.474ZM147.274 161.185H112.384V125.256H147.274V161.185Z" fill="#D1D8DE"/>
<path d="M238.695 91.8057C231.076 85.9085 226.56 80.5369 224.727 78.1446V41.2734H222.804V78.1446C220.971 80.5369 216.454 85.9119 208.836 91.8091H219.931C219.931 93.9353 221.608 95.6621 223.681 95.6621C225.753 95.6621 227.43 93.9387 227.43 91.8125H238.695V91.8057Z" fill="#D1D8DE"/>
</g>
<path d="M293.459 236.758H77.4141V237.294H293.459V236.758Z" fill="#101C3A"/>
<path d="M166.505 233.167C166.007 233.167 165.602 232.751 165.602 232.239V204.207H167.405V232.239C167.405 232.751 167.003 233.167 166.502 233.167H166.505Z" fill="white"/>
<path d="M170.209 202.52H162.797C162.425 202.52 162.09 202.741 161.934 203.086L161.9 203.165C161.612 203.81 162.07 204.547 162.761 204.547H170.239C170.93 204.547 171.388 203.81 171.099 203.165L171.066 203.086C170.91 202.741 170.575 202.52 170.206 202.52H170.209Z" fill="white"/>
<path d="M161.862 204.165C161.663 203.848 161.636 203.452 161.792 203.111L161.825 203.032C162.001 202.643 162.383 202.391 162.798 202.391H170.211C170.626 202.391 171.008 202.643 171.184 203.032L171.217 203.111C171.37 203.452 171.343 203.848 171.147 204.165C170.951 204.483 170.613 204.67 170.244 204.67H162.765C162.397 204.67 162.061 204.483 161.862 204.165ZM162.798 202.647C162.476 202.647 162.184 202.841 162.048 203.141L162.015 203.217C161.895 203.479 161.918 203.783 162.071 204.029C162.224 204.274 162.483 204.418 162.765 204.418H170.244C170.526 204.418 170.785 204.271 170.938 204.029C171.091 203.783 171.111 203.479 170.991 203.217L170.958 203.141C170.825 202.841 170.53 202.647 170.208 202.647H162.795H162.798Z" fill="#101C3A"/>
<path d="M145.761 186.792C146.95 193.921 150.749 203.115 166.656 203.115C182.563 203.115 188.465 196.713 188.465 195.027C188.465 193.341 182.138 197.402 178.668 193.085C175.194 188.768 180.853 170.616 180.853 163.705C180.853 156.794 162.322 157.132 156.912 157.132C154.136 157.132 149.168 156.716 145.927 162.187C142.865 167.353 144.452 178.926 145.764 186.789L145.761 186.792Z" fill="#202020"/>
<path d="M145.672 186.805C144.194 177.952 142.879 167.147 145.848 162.137C148.91 156.967 153.573 157.008 156.359 157.035C156.552 157.035 156.738 157.035 156.914 157.035H157.641C163.097 157.022 175.88 156.991 179.798 161.011C180.559 161.793 180.947 162.697 180.947 163.7C180.947 166.147 180.237 170.024 179.483 174.133C178.095 181.692 176.521 190.262 178.742 193.023C180.904 195.708 184.175 195.104 186.341 194.702C187.36 194.514 188.094 194.378 188.406 194.644C188.509 194.732 188.562 194.859 188.562 195.023C188.562 196.688 182.847 203.203 166.661 203.203C154.38 203.203 147.519 197.838 145.679 186.801L145.672 186.805ZM186.367 194.886C184.162 195.296 180.825 195.913 178.6 193.142C176.325 190.313 177.909 181.699 179.304 174.099C180.054 170.004 180.765 166.134 180.765 163.704C180.765 162.752 180.396 161.892 179.669 161.148C175.8 157.182 162.603 157.216 157.638 157.223H156.91C156.734 157.223 156.548 157.223 156.356 157.223C153.433 157.196 149.01 157.155 146.001 162.236C143.065 167.192 144.377 177.955 145.848 186.774C147.672 197.705 154.476 203.019 166.654 203.019C175.186 203.019 180.516 201.169 183.481 199.616C186.855 197.852 188.373 195.869 188.373 195.023C188.373 194.917 188.347 194.838 188.283 194.787C188.194 194.712 188.041 194.678 187.835 194.678C187.476 194.678 186.962 194.773 186.367 194.883V194.886Z" fill="#101C3A"/>
<path d="M167.972 199.073C171.798 199.073 176.454 198.442 181.96 196.661L181.887 196.418C171.044 199.93 163.539 198.951 159.155 197.51C154.406 195.951 152.191 193.528 152.168 193.504L151.988 193.675C152.012 193.698 154.26 196.162 159.062 197.743C161.254 198.466 164.213 199.073 167.972 199.073Z" fill="#101C3A"/>
<path d="M152.875 185.867C152.875 185.376 153.264 184.977 153.742 184.977C154.22 184.977 154.612 185.376 154.612 185.867C154.612 186.359 154.223 186.758 153.742 186.758C153.26 186.758 152.875 186.359 152.875 185.867ZM153.121 185.867C153.121 186.219 153.4 186.505 153.742 186.505C154.084 186.505 154.363 186.219 154.363 185.867C154.363 185.516 154.084 185.229 153.742 185.229C153.4 185.229 153.121 185.516 153.121 185.867Z" fill="#101C3A"/>
<path d="M161.758 185.867C161.758 185.376 162.146 184.977 162.625 184.977C163.103 184.977 163.491 185.376 163.491 185.867C163.491 186.359 163.103 186.758 162.625 186.758C162.146 186.758 161.758 186.359 161.758 185.867ZM162.004 185.867C162.004 186.219 162.283 186.505 162.625 186.505C162.967 186.505 163.246 186.219 163.246 185.867C163.246 185.516 162.967 185.229 162.625 185.229C162.283 185.229 162.004 185.516 162.004 185.867Z" fill="#101C3A"/>
<path d="M170.641 185.867C170.641 185.376 171.029 184.977 171.511 184.977C171.992 184.977 172.377 185.376 172.377 185.867C172.377 186.359 171.989 186.758 171.511 186.758C171.032 186.758 170.641 186.359 170.641 185.867ZM170.886 185.867C170.886 186.219 171.165 186.505 171.507 186.505C171.849 186.505 172.128 186.219 172.128 185.867C172.128 185.516 171.849 185.229 171.507 185.229C171.165 185.229 170.886 185.516 170.886 185.867Z" fill="#101C3A"/>
<path d="M166.25 192.742C166.25 192.251 166.639 191.852 167.117 191.852C167.595 191.852 167.984 192.251 167.984 192.742C167.984 193.234 167.595 193.633 167.117 193.633C166.639 193.633 166.25 193.234 166.25 192.742ZM166.496 192.742C166.496 193.094 166.775 193.38 167.117 193.38C167.459 193.38 167.738 193.094 167.738 192.742C167.738 192.391 167.459 192.104 167.117 192.104C166.775 192.104 166.496 192.391 166.496 192.742Z" fill="#101C3A"/>
<path d="M156.727 180.258C156.727 179.766 157.115 179.367 157.593 179.367C158.072 179.367 158.46 179.766 158.46 180.258C158.46 180.749 158.072 181.149 157.593 181.149C157.115 181.149 156.727 180.749 156.727 180.258ZM156.972 180.258C156.972 180.609 157.251 180.896 157.593 180.896C157.935 180.896 158.214 180.609 158.214 180.258C158.214 179.906 157.935 179.62 157.593 179.62C157.251 179.62 156.972 179.906 156.972 180.258Z" fill="#101C3A"/>
<path d="M147.328 180.258C147.328 179.766 147.717 179.367 148.195 179.367C148.673 179.367 149.062 179.766 149.062 180.258C149.062 180.749 148.673 181.149 148.195 181.149C147.717 181.149 147.328 180.749 147.328 180.258ZM147.574 180.258C147.574 180.609 147.853 180.896 148.195 180.896C148.537 180.896 148.816 180.609 148.816 180.258C148.816 179.906 148.537 179.62 148.195 179.62C147.853 179.62 147.574 179.906 147.574 180.258Z" fill="#101C3A"/>
<path d="M165.609 180.258C165.609 179.766 165.998 179.367 166.476 179.367C166.954 179.367 167.343 179.766 167.343 180.258C167.343 180.749 166.954 181.149 166.476 181.149C165.998 181.149 165.609 180.749 165.609 180.258ZM165.855 180.258C165.855 180.609 166.134 180.896 166.476 180.896C166.818 180.896 167.097 180.609 167.097 180.258C167.097 179.906 166.818 179.62 166.476 179.62C166.134 179.62 165.855 179.906 165.855 180.258Z" fill="#101C3A"/>
<path d="M174.492 180.258C174.492 179.766 174.881 179.367 175.359 179.367C175.837 179.367 176.229 179.766 176.229 180.258C176.229 180.749 175.84 181.149 175.359 181.149C174.877 181.149 174.492 180.749 174.492 180.258ZM174.738 180.258C174.738 180.609 175.017 180.896 175.359 180.896C175.701 180.896 175.98 180.609 175.98 180.258C175.98 179.906 175.701 179.62 175.359 179.62C175.017 179.62 174.738 179.906 174.738 180.258Z" fill="#101C3A"/>
<path d="M152.875 174.645C152.875 174.153 153.264 173.754 153.742 173.754C154.22 173.754 154.612 174.153 154.612 174.645C154.612 175.136 154.223 175.535 153.742 175.535C153.26 175.535 152.875 175.136 152.875 174.645ZM153.121 174.645C153.121 174.996 153.4 175.283 153.742 175.283C154.084 175.283 154.363 174.996 154.363 174.645C154.363 174.293 154.084 174.006 153.742 174.006C153.4 174.006 153.121 174.293 153.121 174.645Z" fill="#101C3A"/>
<path d="M161.758 174.645C161.758 174.153 162.146 173.754 162.625 173.754C163.103 173.754 163.491 174.153 163.491 174.645C163.491 175.136 163.103 175.535 162.625 175.535C162.146 175.535 161.758 175.136 161.758 174.645ZM162.004 174.645C162.004 174.996 162.283 175.283 162.625 175.283C162.967 175.283 163.246 174.996 163.246 174.645C163.246 174.293 162.967 174.006 162.625 174.006C162.283 174.006 162.004 174.293 162.004 174.645Z" fill="#101C3A"/>
<path d="M170.641 174.645C170.641 174.153 171.029 173.754 171.511 173.754C171.992 173.754 172.377 174.153 172.377 174.645C172.377 175.136 171.989 175.535 171.511 175.535C171.032 175.535 170.641 175.136 170.641 174.645ZM170.886 174.645C170.886 174.996 171.165 175.283 171.507 175.283C171.849 175.283 172.128 174.996 172.128 174.645C172.128 174.293 171.849 174.006 171.507 174.006C171.165 174.006 170.886 174.293 170.886 174.645Z" fill="#101C3A"/>
<path d="M156.727 169.043C156.727 168.552 157.115 168.152 157.593 168.152C158.072 168.152 158.46 168.552 158.46 169.043C158.46 169.535 158.072 169.934 157.593 169.934C157.115 169.934 156.727 169.535 156.727 169.043ZM156.972 169.043C156.972 169.395 157.251 169.681 157.593 169.681C157.935 169.681 158.214 169.395 158.214 169.043C158.214 168.692 157.935 168.405 157.593 168.405C157.251 168.405 156.972 168.692 156.972 169.043Z" fill="#101C3A"/>
<path d="M147.328 169.043C147.328 168.552 147.717 168.152 148.195 168.152C148.673 168.152 149.062 168.552 149.062 169.043C149.062 169.535 148.673 169.934 148.195 169.934C147.717 169.934 147.328 169.535 147.328 169.043ZM147.574 169.043C147.574 169.395 147.853 169.681 148.195 169.681C148.537 169.681 148.816 169.395 148.816 169.043C148.816 168.692 148.537 168.405 148.195 168.405C147.853 168.405 147.574 168.692 147.574 169.043Z" fill="#101C3A"/>
<path d="M165.609 169.043C165.609 168.552 165.998 168.152 166.476 168.152C166.954 168.152 167.343 168.552 167.343 169.043C167.343 169.535 166.954 169.934 166.476 169.934C165.998 169.934 165.609 169.535 165.609 169.043ZM165.855 169.043C165.855 169.395 166.134 169.681 166.476 169.681C166.818 169.681 167.097 169.395 167.097 169.043C167.097 168.692 166.818 168.405 166.476 168.405C166.134 168.405 165.855 168.692 165.855 169.043Z" fill="#101C3A"/>
<path d="M174.492 169.043C174.492 168.552 174.881 168.152 175.359 168.152C175.837 168.152 176.229 168.552 176.229 169.043C176.229 169.535 175.84 169.934 175.359 169.934C174.877 169.934 174.492 169.535 174.492 169.043ZM174.738 169.043C174.738 169.395 175.017 169.681 175.359 169.681C175.701 169.681 175.98 169.395 175.98 169.043C175.98 168.692 175.701 168.405 175.359 168.405C175.017 168.405 174.738 168.692 174.738 169.043Z" fill="#101C3A"/>
<path d="M152.875 162.113C152.875 161.622 153.264 161.223 153.742 161.223C154.22 161.223 154.612 161.622 154.612 162.113C154.612 162.605 154.223 163.004 153.742 163.004C153.26 163.004 152.875 162.605 152.875 162.113ZM153.121 162.113C153.121 162.465 153.4 162.752 153.742 162.752C154.084 162.752 154.363 162.465 154.363 162.113C154.363 161.762 154.084 161.475 153.742 161.475C153.4 161.475 153.121 161.762 153.121 162.113Z" fill="#101C3A"/>
<path d="M161.758 162.113C161.758 161.622 162.146 161.223 162.625 161.223C163.103 161.223 163.491 161.622 163.491 162.113C163.491 162.605 163.103 163.004 162.625 163.004C162.146 163.004 161.758 162.605 161.758 162.113ZM162.004 162.113C162.004 162.465 162.283 162.752 162.625 162.752C162.967 162.752 163.246 162.465 163.246 162.113C163.246 161.762 162.967 161.475 162.625 161.475C162.283 161.475 162.004 161.762 162.004 162.113Z" fill="#101C3A"/>
<path d="M170.641 162.113C170.641 161.622 171.029 161.223 171.511 161.223C171.992 161.223 172.377 161.622 172.377 162.113C172.377 162.605 171.989 163.004 171.511 163.004C171.032 163.004 170.641 162.605 170.641 162.113ZM170.886 162.113C170.886 162.465 171.165 162.752 171.507 162.752C171.849 162.752 172.128 162.465 172.128 162.113C172.128 161.762 171.849 161.475 171.507 161.475C171.165 161.475 170.886 161.762 170.886 162.113Z" fill="#101C3A"/>
<path d="M167.039 204.602H166.793V231.89H167.039V204.602Z" fill="#101C3A"/>
<path d="M173.182 236.208H173.428V234.242C173.428 232.887 172.356 231.785 171.037 231.785H161.981C160.663 231.785 159.59 232.887 159.59 234.242V235.887H159.836V234.242C159.836 233.027 160.799 232.038 161.981 232.038H171.037C172.219 232.038 173.182 233.027 173.182 234.242V236.208Z" fill="#101C3A"/>
<path d="M176.669 236.208H176.915V234.242C176.915 232.887 175.842 231.785 174.523 231.785H158.497C157.178 231.785 156.105 232.887 156.105 234.242V235.887H156.351V234.242C156.351 233.027 157.314 232.038 158.497 232.038H174.523C175.706 232.038 176.669 233.027 176.669 234.242V236.208Z" fill="#101C3A"/>
<path d="M174.437 235.867C174.437 236.512 173.929 237.031 173.304 237.031C172.68 237.031 172.172 236.508 172.172 235.867C172.172 235.225 172.68 234.703 173.304 234.703C173.929 234.703 174.437 235.225 174.437 235.867Z" fill="#101C3A"/>
<path d="M177.862 235.867C177.862 236.512 177.354 237.031 176.73 237.031C176.105 237.031 175.594 236.508 175.594 235.867C175.594 235.225 176.102 234.703 176.73 234.703C177.357 234.703 177.862 235.225 177.862 235.867Z" fill="#101C3A"/>
<path d="M157.342 235.867C157.342 236.512 156.834 237.031 156.206 237.031C155.578 237.031 155.07 236.508 155.07 235.867C155.07 235.225 155.578 234.703 156.206 234.703C156.834 234.703 157.342 235.225 157.342 235.867Z" fill="#101C3A"/>
<path d="M160.921 235.867C160.921 236.512 160.412 237.031 159.785 237.031C159.157 237.031 158.652 236.508 158.652 235.867C158.652 235.225 159.16 234.703 159.785 234.703C160.409 234.703 160.921 235.225 160.921 235.867Z" fill="#101C3A"/>
<path d="M175.787 179.336L192.159 186.383L185.441 198.307L179.058 197.867C170.032 197.188 170.593 192.84 170.593 192.84L175.787 179.336Z" fill="white"/>
<path d="M189.925 186C195.11 186.283 207.025 191.126 206.759 193.535C206.48 196.081 204.597 198.197 202.641 199.03C200.685 199.859 198.663 199.678 196.704 199.487C191.191 198.951 188.687 198.668 183.174 198.132C179.059 194.293 182.746 186 189.922 186H189.925Z" fill="#F69E9D"/>
<path d="M189.926 186C190.079 186.007 190.235 186.02 190.398 186.038C188.276 186.71 186.22 187.829 184.885 189.396C182.902 191.904 182.962 195.173 184.045 198.221C183.762 198.194 183.477 198.166 183.178 198.136C179.063 194.296 182.75 186.003 189.926 186.003V186Z" fill="#101C3A"/>
<path d="M196.994 192.137L197.96 190.191L206.618 194.334L196.582 224.984C196.293 226.663 194.729 227.779 193.095 227.472C191.056 227.09 190.422 225.274 190.398 223.145L192.159 202.842C192.331 198.566 195.101 195.949 196.994 192.137Z" fill="#F69E9D"/>
<path d="M189.925 186C195.11 186.283 207.025 191.126 206.759 193.535C206.48 196.081 204.597 198.197 202.641 199.03C200.685 199.859 198.663 199.678 196.704 199.487C191.191 198.951 188.687 198.668 183.174 198.132C179.059 194.293 182.746 186 189.922 186H189.925Z" fill="#E14B27"/>
<path d="M196.996 192.137L197.962 190.191L206.62 194.334L197.6 221.879C195.232 222.23 192.718 222.851 190.434 222.773L192.16 202.842C192.333 198.566 195.103 195.949 196.996 192.137Z" fill="#E14B27"/>
<path d="M192.803 226.982C193.985 227.384 195.37 226.432 195.735 225.21C195.862 224.794 195.888 224.333 196.204 224.009C196.376 223.832 196.632 223.743 196.858 223.842C197.134 223.958 197.187 224.262 197.223 224.535C197.31 225.183 197.399 225.835 197.486 226.483C199.262 227.859 201.278 229.367 203.254 230.422C203.742 230.684 204.224 230.954 204.672 231.261C205.994 232.169 206.316 234.087 205.29 235.336C205.207 235.438 205.117 235.531 205.021 235.619C203.978 236.558 203.815 237.104 200.773 237.049C199.388 237.025 196.596 235.367 195.108 234.479C193.62 233.592 192.155 234.067 190.442 233.879C188.237 233.636 187.407 233.022 187.098 231.872C187.898 227.947 188.486 226.859 190.395 224.193C190.708 224.187 190.106 226.057 192.803 226.982Z" fill="#101C3A"/>
<path d="M195.965 225.957C196.022 226.001 196.035 226.086 195.989 226.144C195.314 227.056 195.583 228.393 196.201 229.25C196.875 230.185 197.931 230.786 198.868 231.311C199.635 231.745 200.502 232.236 201.425 232.318C202.239 232.393 203.275 232.062 203.643 231.175C203.67 231.107 203.75 231.076 203.816 231.103C203.883 231.134 203.912 231.212 203.886 231.281C203.501 232.202 202.501 232.594 201.644 232.594C201.561 232.594 201.481 232.591 201.405 232.584C200.425 232.495 199.532 231.99 198.742 231.543C197.785 231.001 196.699 230.386 195.992 229.407C195.318 228.472 195.029 226.991 195.783 225.977C195.826 225.919 195.909 225.909 195.965 225.953V225.957Z" fill="#E9F1FD"/>
<path d="M188.335 230.193C188.8 231.285 190.049 231.722 190.753 231.886C191.155 231.978 191.577 232.039 191.982 232.101C192.606 232.189 193.254 232.285 193.865 232.5C194.841 232.845 195.681 233.476 196.495 234.087C197.09 234.534 197.704 234.995 198.361 235.336C200.238 236.309 202.562 236.302 204.432 235.309C204.495 235.278 204.575 235.302 204.608 235.367C204.641 235.432 204.615 235.513 204.552 235.548C203.572 236.066 202.473 236.326 201.37 236.326C200.268 236.326 199.208 236.077 198.242 235.575C197.564 235.223 196.94 234.752 196.339 234.302C195.539 233.701 194.715 233.08 193.775 232.753C193.187 232.544 192.553 232.452 191.939 232.363C191.527 232.305 191.102 232.244 190.69 232.145C189.939 231.971 188.604 231.5 188.09 230.299C188.06 230.231 188.09 230.152 188.156 230.121C188.223 230.091 188.299 230.121 188.329 230.19L188.335 230.193Z" fill="#E9F1FD"/>
<path d="M169.474 178.053C174.685 178.599 179.819 179.455 184.98 180.384C185.146 182.018 190.639 185.728 192.163 186.233C182.014 187.97 183.499 193.396 178.956 195.505C174.416 197.615 169.285 198.048 164.304 198.191C161.082 198.283 158.283 195.277 157.871 191.994C157.456 188.711 159.037 185.407 161.361 183.114C163.689 180.82 166.27 177.715 169.474 178.053Z" fill="#E14B27"/>
<path d="M208.756 165.095C210.5 166.433 211.224 168.924 210.111 170.723C209.145 172.283 206.608 173.518 205.116 173.576C200.557 173.75 188.977 164.809 188.977 164.809L195.738 155.328C195.738 155.328 208.271 164.727 208.756 165.099V165.095Z" fill="#101C3A"/>
<path d="M167.31 184.617L181.046 187.951L174.327 199.876L167.945 199.435C158.918 198.756 159.48 194.408 159.48 194.408L167.31 184.617Z" fill="#E14B27"/>
<path d="M178.807 187.566C183.991 187.849 191.895 192.692 191.633 195.101C191.354 197.644 189.471 199.766 187.515 200.596C185.559 201.425 183.536 201.244 181.577 201.053C176.064 200.514 177.572 200.237 172.059 199.698C167.948 195.859 171.631 187.562 178.807 187.562V187.566Z" fill="#F69E9D"/>
<path d="M178.791 187.566C176.005 188.433 173.182 190.184 172.259 193.023C171.372 195.498 171.897 197.712 172.953 199.794C172.677 199.764 172.382 199.733 172.059 199.702C167.951 195.866 171.624 187.583 178.788 187.57L178.791 187.566Z" fill="#101C3A"/>
<path d="M181.864 193.711L182.831 191.766L191.489 195.909L182.957 226.302C182.668 227.982 181.104 229.097 179.47 228.79C177.431 228.408 176.797 226.593 176.773 224.46L177.707 205.212C177.879 200.939 179.972 197.519 181.864 193.707V193.711Z" fill="#F69E9D"/>
<path d="M178.155 187.16C183.339 187.443 191.898 192.692 191.632 195.105C191.353 197.647 189.47 199.77 187.514 200.599C185.558 201.429 183.535 201.248 181.576 201.057C176.063 200.518 177.571 200.241 172.058 199.702C166.303 196.071 170.979 187.16 178.152 187.16H178.155Z" fill="#E14B27"/>
<path d="M181.868 193.711L182.835 191.766L191.492 195.909L184.007 222.572C181.543 223.798 179.105 224.057 176.82 223.565L177.71 205.215C177.883 200.942 179.975 197.523 181.868 193.711Z" fill="#E14B27"/>
<path d="M179.174 228.298C180.356 228.701 181.741 227.749 182.11 226.527C182.236 226.111 182.263 225.65 182.578 225.326C182.751 225.148 183.007 225.059 183.232 225.158C183.508 225.274 183.561 225.578 183.598 225.851C183.684 226.5 183.774 227.148 183.86 227.8C185.637 229.172 187.653 230.684 189.625 231.738C190.113 232.001 190.595 232.27 191.043 232.578C192.365 233.485 192.687 235.403 191.661 236.652C191.578 236.755 191.488 236.847 191.392 236.936C190.352 237.874 190.186 238.42 187.144 238.366C185.76 238.342 182.967 236.683 181.479 235.796C179.991 234.909 178.527 235.383 176.813 235.195C174.608 234.956 173.778 234.339 173.469 233.189C174.269 229.264 174.857 228.175 176.766 225.51C177.079 225.503 176.478 227.377 179.174 228.298Z" fill="#101C3A"/>
<path d="M182.336 227.267C182.393 227.311 182.406 227.396 182.36 227.454C181.686 228.362 181.955 229.703 182.572 230.56C183.246 231.495 184.302 232.092 185.239 232.621C186.006 233.055 186.873 233.546 187.796 233.628C188.603 233.703 189.646 233.372 190.014 232.485C190.044 232.417 190.121 232.386 190.187 232.413C190.254 232.444 190.283 232.522 190.257 232.591C189.872 233.512 188.872 233.905 188.015 233.905C187.936 233.905 187.853 233.905 187.776 233.894C186.796 233.809 185.903 233.3 185.113 232.853C184.156 232.311 183.07 231.696 182.363 230.717C181.689 229.779 181.4 228.301 182.154 227.287C182.197 227.229 182.28 227.216 182.336 227.263V227.267Z" fill="#E9F1FD"/>
<path d="M174.712 231.506C175.177 232.598 176.425 233.035 177.129 233.199C177.531 233.291 177.953 233.352 178.358 233.41C178.982 233.502 179.63 233.595 180.241 233.81C181.217 234.151 182.058 234.786 182.875 235.396C183.469 235.844 184.083 236.304 184.741 236.646C186.617 237.622 188.942 237.611 190.812 236.622C190.875 236.591 190.954 236.615 190.988 236.68C191.021 236.748 190.994 236.826 190.931 236.861C189.951 237.379 188.852 237.639 187.75 237.639C186.647 237.639 185.588 237.39 184.621 236.888C183.944 236.536 183.32 236.069 182.718 235.615C181.921 235.014 181.095 234.393 180.158 234.066C179.57 233.857 178.936 233.765 178.322 233.68C177.91 233.622 177.485 233.56 177.073 233.461C176.322 233.287 174.984 232.816 174.473 231.615C174.443 231.547 174.473 231.468 174.539 231.438C174.605 231.407 174.682 231.438 174.712 231.506Z" fill="#E9F1FD"/>
<path d="M166.289 179.598C169.6 179.639 172.944 180.396 175.966 181.792C176.033 181.823 176.063 181.901 176.033 181.969C176.01 182.021 175.963 182.048 175.913 182.048C175.897 182.048 175.877 182.045 175.86 182.038C172.871 180.656 169.564 179.905 166.286 179.867C166.213 179.867 166.156 179.806 166.156 179.731C166.156 179.656 166.216 179.598 166.286 179.598H166.289Z" fill="#E9F1FD"/>
<path d="M166.792 165.451C167.028 164.041 167.243 162.519 167.522 160.768C167.755 159.294 167.961 157.745 169.199 156.516C169.88 155.84 170.83 155.318 171.853 154.871C172.192 154.721 172.537 154.581 172.882 154.448C175.489 153.441 177.565 152.868 179.74 152.568C181.919 152.267 184.19 152.243 187.199 152.339C187.767 152.356 188.312 152.4 188.83 152.469C191.792 152.851 194.05 154.028 196.435 155.834C199.304 158.004 199.692 161.181 197.408 163.642C191.779 169.706 190.244 173.771 185.296 181.119C181.314 181.583 179.312 182.695 174.164 182.695C171.371 182.695 168.97 181.907 167.413 183.613C164.779 186.5 161.678 181.34 158.476 187.476C158.237 186.084 161.877 178.228 162.647 176.928C165.341 172.402 166.141 169.362 166.795 165.451H166.792Z" fill="#101C3A"/>
<path d="M193.787 160.155C193.774 160.084 193.82 160.012 193.89 159.998C193.96 159.985 194.029 160.033 194.043 160.104C194.83 164.418 192.903 169.138 189.357 171.588C189.333 171.602 189.31 171.612 189.284 171.612C189.24 171.612 189.201 171.591 189.174 171.554C189.134 171.492 189.151 171.407 189.211 171.366C192.671 168.977 194.551 164.367 193.784 160.155H193.787Z" fill="#E9F1FD"/>
<path d="M192.292 141.223C193.043 141.277 193.594 142.127 193.525 143.12C193.455 144.113 192.176 145.42 191.429 145.366C190.678 145.311 190.745 143.915 190.811 142.922C190.881 141.929 191.542 141.171 192.292 141.226V141.223Z" fill="#F69E9D"/>
<path d="M192.774 141.723C192.85 141.716 192.923 141.774 192.933 141.853C192.943 141.935 192.887 142.006 192.807 142.017C192.538 142.047 192.243 142.167 191.974 142.645C192.16 142.597 192.389 142.617 192.684 142.709C192.761 142.733 192.804 142.815 192.781 142.894C192.757 142.972 192.678 143.02 192.601 142.993C192.306 142.904 192.09 142.894 191.957 142.965C191.804 143.051 191.744 143.256 191.678 143.491C191.638 143.628 191.595 143.771 191.532 143.904C191.509 143.955 191.456 143.986 191.402 143.986C191.386 143.986 191.369 143.986 191.353 143.976C191.283 143.952 191.243 143.877 191.263 143.805C191.658 142.082 192.249 141.788 192.771 141.723H192.774Z" fill="#101C3A"/>
<path d="M183.56 147.738L188.807 148.568L188.761 150.066L188.644 153.83L182.305 153.635L183.334 148.783L183.56 147.738Z" fill="#F69E9D"/>
<path d="M187.221 135.797C190.054 135.797 192.349 138.001 192.349 140.725C192.349 143.448 190.054 145.653 187.221 145.653C184.389 145.653 182.094 143.448 182.094 140.725C182.094 138.001 184.389 135.797 187.221 135.797Z" fill="#101C3A"/>
<path d="M188.806 148.568L188.759 150.062C188.151 150.421 187.477 150.615 186.773 150.615C186.385 150.615 186.006 150.557 185.644 150.441C184.764 150.168 183.97 149.585 183.336 148.783L183.562 147.738L188.809 148.568H188.806Z" fill="#101C3A"/>
<path d="M187.284 136.984C190.017 136.984 192.236 139.919 192.236 143.54C192.236 144.264 192.149 144.963 191.98 145.615C191.326 148.219 189.473 150.099 187.284 150.099C186.896 150.099 186.517 150.041 186.155 149.925C183.963 149.253 182.336 146.649 182.336 143.54C182.336 139.919 184.548 136.984 187.284 136.984Z" fill="#F69E9D"/>
<path d="M185.576 147.17C185.759 147.089 185.958 147.225 186.121 147.345C186.752 147.802 187.31 148.191 188.077 148.215C188.734 148.235 189.621 148.344 190.149 147.938C190.547 147.631 191.687 146.498 191.743 146.27C191.089 148.873 189.465 150.092 187.28 150.092C186.891 150.092 186.513 150.034 186.151 149.918C186.157 149.744 186.167 149.566 186.144 149.399C186.094 148.983 184.908 147.471 185.573 147.167L185.576 147.17Z" fill="#101C3A"/>
<path d="M181.496 141.222C182.246 141.168 182.907 141.925 182.977 142.918C183.047 143.911 183.11 145.307 182.359 145.362C181.609 145.416 180.333 144.109 180.264 143.116C180.194 142.123 180.749 141.273 181.496 141.219V141.222Z" fill="#F69E9D"/>
<path d="M181.009 141.727C181.534 141.789 182.121 142.085 182.517 143.809C182.533 143.881 182.493 143.956 182.427 143.98C182.41 143.986 182.394 143.99 182.377 143.99C182.324 143.99 182.274 143.959 182.248 143.908C182.184 143.775 182.145 143.631 182.101 143.495C182.032 143.256 181.972 143.055 181.822 142.969C181.69 142.898 181.477 142.905 181.181 142.997C181.105 143.024 181.025 142.976 181.002 142.898C180.979 142.819 181.022 142.737 181.098 142.713C181.394 142.621 181.623 142.601 181.809 142.649C181.54 142.171 181.248 142.055 180.979 142.021C180.899 142.01 180.843 141.939 180.853 141.857C180.863 141.775 180.932 141.72 181.012 141.727H181.009Z" fill="#101C3A"/>
<path d="M187.103 144.827C187.322 144.96 187.568 145.032 187.821 145.036C187.874 145.036 187.94 145.036 187.977 145.005C188.046 144.954 188.043 144.803 188.033 144.691L187.9 142.899C187.894 142.817 187.953 142.746 188.033 142.742C188.11 142.742 188.183 142.797 188.186 142.879L188.319 144.67C188.329 144.797 188.349 145.097 188.139 145.251C188.04 145.322 187.924 145.332 187.827 145.332C187.821 145.332 187.817 145.332 187.811 145.332C187.508 145.329 187.21 145.24 186.95 145.083C186.881 145.042 186.858 144.95 186.901 144.882C186.941 144.814 187.03 144.786 187.097 144.831L187.103 144.827Z" fill="#101C3A"/>
<path d="M186.187 146.368C187.034 147.054 188.263 147.214 189.249 146.771C189.322 146.737 189.409 146.771 189.439 146.846C189.472 146.921 189.439 147.006 189.365 147.04C188.96 147.221 188.515 147.31 188.07 147.31C187.33 147.31 186.589 147.064 186.008 146.597C185.945 146.545 185.935 146.453 185.985 146.388C186.035 146.324 186.124 146.313 186.187 146.365V146.368Z" fill="#101C3A"/>
<path d="M187 147.504C187.425 147.832 188.069 147.839 188.501 147.528C188.567 147.48 188.657 147.497 188.7 147.562C188.747 147.63 188.73 147.722 188.667 147.767C188.405 147.958 188.086 148.05 187.767 148.05C187.432 148.05 187.096 147.948 186.827 147.736C186.764 147.688 186.751 147.596 186.797 147.528C186.844 147.463 186.937 147.449 187 147.497V147.504Z" fill="#101C3A"/>
<path d="M189.96 141.965C190.146 141.965 190.299 142.224 190.299 142.542C190.299 142.859 190.146 143.118 189.96 143.118C189.774 143.118 189.621 142.859 189.621 142.542C189.621 142.224 189.774 141.965 189.96 141.965Z" fill="#101C3A"/>
<path d="M185.581 141.965C185.767 141.965 185.92 142.224 185.92 142.542C185.92 142.859 185.77 143.118 185.581 143.118C185.392 143.118 185.242 142.859 185.242 142.542C185.242 142.224 185.395 141.965 185.581 141.965Z" fill="#101C3A"/>
<path d="M185.379 140.961C185.767 140.831 186.189 140.862 186.588 140.961C186.638 140.975 186.671 141.023 186.664 141.074C186.657 141.139 186.648 141.207 186.641 141.275C186.634 141.347 186.561 141.388 186.498 141.357C186.193 141.21 185.837 141.169 185.508 141.241C185.306 141.285 185.113 141.371 184.944 141.494C184.844 141.565 184.728 141.432 184.808 141.337C184.954 141.162 185.156 141.033 185.382 140.958L185.379 140.961Z" fill="#101C3A"/>
<path d="M189.112 140.961C189.511 140.862 189.933 140.831 190.321 140.961C190.544 141.036 190.746 141.166 190.896 141.34C190.975 141.435 190.859 141.565 190.76 141.497C190.59 141.377 190.394 141.289 190.192 141.244C189.86 141.173 189.508 141.214 189.202 141.36C189.139 141.391 189.066 141.347 189.059 141.279C189.053 141.21 189.043 141.142 189.036 141.077C189.029 141.026 189.063 140.975 189.112 140.965V140.961Z" fill="#101C3A"/>
<path d="M191.251 143.992C191.294 144.009 191.317 144.057 191.304 144.101C191.287 144.146 191.241 144.17 191.197 144.156C191.154 144.139 191.131 144.091 191.144 144.047C191.161 144.002 191.207 143.978 191.251 143.992Z" fill="#FD857A"/>
<path d="M191.251 144.98C191.294 144.997 191.317 145.045 191.304 145.089C191.287 145.133 191.241 145.157 191.197 145.14C191.154 145.123 191.131 145.075 191.144 145.031C191.161 144.987 191.207 144.963 191.251 144.976V144.98Z" fill="#FD857A"/>
<path d="M190.768 143.729C190.811 143.746 190.834 143.794 190.818 143.838C190.804 143.882 190.755 143.906 190.711 143.892C190.668 143.875 190.645 143.828 190.662 143.783C190.678 143.739 190.725 143.715 190.768 143.732V143.729Z" fill="#FD857A"/>
<path d="M190.428 144.285C190.471 144.302 190.494 144.35 190.478 144.394C190.461 144.439 190.415 144.463 190.372 144.449C190.328 144.432 190.305 144.384 190.322 144.34C190.335 144.295 190.385 144.271 190.428 144.285Z" fill="#FD857A"/>
<path d="M189.815 143.851C189.858 143.869 189.881 143.916 189.868 143.961C189.851 144.005 189.805 144.029 189.758 144.015C189.715 143.998 189.692 143.95 189.709 143.906C189.725 143.862 189.772 143.838 189.815 143.851Z" fill="#FD857A"/>
<path d="M189.546 144.359C189.589 144.376 189.612 144.424 189.599 144.469C189.582 144.513 189.536 144.537 189.493 144.523C189.45 144.506 189.426 144.458 189.443 144.414C189.459 144.37 189.506 144.346 189.549 144.359H189.546Z" fill="#FD857A"/>
<path d="M190.131 144.72C190.174 144.737 190.197 144.785 190.18 144.83C190.164 144.874 190.117 144.898 190.071 144.881C190.028 144.864 190.004 144.816 190.021 144.772C190.038 144.727 190.084 144.703 190.131 144.72Z" fill="#FD857A"/>
<path d="M189.463 144.888C189.506 144.905 189.53 144.953 189.513 144.998C189.496 145.042 189.45 145.066 189.407 145.049C189.364 145.032 189.34 144.984 189.357 144.94C189.374 144.895 189.42 144.871 189.463 144.888Z" fill="#FD857A"/>
<path d="M190.892 144.52C190.938 144.52 190.975 144.557 190.975 144.605C190.975 144.653 190.938 144.69 190.892 144.69C190.845 144.69 190.809 144.649 190.809 144.605C190.809 144.56 190.845 144.52 190.892 144.52Z" fill="#FD857A"/>
<path d="M191.692 144.434C191.739 144.434 191.775 144.471 191.775 144.519C191.775 144.567 191.739 144.604 191.692 144.604C191.646 144.604 191.609 144.567 191.609 144.519C191.609 144.471 191.646 144.434 191.692 144.434Z" fill="#FD857A"/>
<path d="M188.976 144.074C189.019 144.091 189.042 144.138 189.029 144.183C189.012 144.227 188.966 144.251 188.922 144.234C188.879 144.217 188.856 144.169 188.873 144.125C188.886 144.08 188.936 144.057 188.979 144.07L188.976 144.074Z" fill="#FD857A"/>
<path d="M184.324 143.994C184.367 143.977 184.417 144.001 184.43 144.048C184.447 144.093 184.424 144.144 184.377 144.158C184.334 144.175 184.284 144.151 184.271 144.103C184.254 144.059 184.278 144.007 184.324 143.994Z" fill="#FD857A"/>
<path d="M184.324 144.978C184.367 144.961 184.417 144.985 184.43 145.033C184.447 145.077 184.424 145.128 184.377 145.142C184.334 145.159 184.284 145.135 184.271 145.091C184.254 145.046 184.278 144.995 184.324 144.982V144.978Z" fill="#FD857A"/>
<path d="M184.809 143.728C184.852 143.711 184.902 143.735 184.915 143.779C184.932 143.824 184.909 143.875 184.866 143.889C184.822 143.906 184.773 143.882 184.759 143.834C184.743 143.79 184.766 143.738 184.809 143.725V143.728Z" fill="#FD857A"/>
<path d="M185.148 144.283C185.192 144.266 185.241 144.29 185.255 144.337C185.271 144.382 185.248 144.433 185.202 144.447C185.158 144.464 185.109 144.44 185.095 144.392C185.079 144.348 185.102 144.296 185.145 144.283H185.148Z" fill="#FD857A"/>
<path d="M185.766 143.849C185.809 143.832 185.859 143.856 185.872 143.904C185.888 143.948 185.865 143.999 185.819 144.013C185.776 144.03 185.726 144.006 185.712 143.958C185.696 143.914 185.719 143.863 185.762 143.849H185.766Z" fill="#FD857A"/>
<path d="M186.031 144.365C186.074 144.348 186.124 144.372 186.137 144.419C186.154 144.464 186.131 144.515 186.084 144.529C186.041 144.546 185.991 144.522 185.978 144.474C185.961 144.43 185.985 144.379 186.028 144.365H186.031Z" fill="#FD857A"/>
<path d="M185.445 144.72C185.488 144.703 185.538 144.727 185.551 144.772C185.568 144.816 185.545 144.867 185.502 144.881C185.458 144.898 185.409 144.874 185.392 144.83C185.375 144.785 185.399 144.734 185.445 144.72Z" fill="#FD857A"/>
<path d="M186.114 144.888C186.157 144.871 186.207 144.895 186.223 144.94C186.237 144.984 186.217 145.035 186.17 145.049C186.127 145.066 186.077 145.042 186.064 144.998C186.047 144.953 186.071 144.902 186.114 144.888Z" fill="#FD857A"/>
<path d="M184.688 144.52C184.735 144.52 184.772 144.557 184.772 144.605C184.772 144.653 184.735 144.69 184.688 144.69C184.642 144.69 184.605 144.649 184.605 144.605C184.605 144.56 184.642 144.52 184.688 144.52Z" fill="#FD857A"/>
<path d="M183.884 144.434C183.93 144.434 183.967 144.471 183.967 144.519C183.967 144.567 183.93 144.604 183.884 144.604C183.837 144.604 183.801 144.567 183.801 144.519C183.801 144.471 183.837 144.434 183.884 144.434Z" fill="#FD857A"/>
<path d="M186.601 144.072C186.645 144.055 186.694 144.079 186.708 144.126C186.724 144.171 186.701 144.222 186.655 144.236C186.611 144.253 186.562 144.229 186.548 144.185C186.532 144.14 186.555 144.089 186.601 144.075V144.072Z" fill="#FD857A"/>
<path d="M190.712 137.988C191.024 137.988 192.223 139.841 192.223 141.848C192.223 143.855 192.09 144.629 192.09 144.629C192.09 144.629 191.097 143.851 191.097 141.848C191.097 139.845 190.403 137.988 190.712 137.988Z" fill="#101C3A"/>
<path d="M183.858 137.988C184.17 137.988 183.473 139.841 183.473 141.848C183.473 143.855 182.477 144.629 182.477 144.629C182.477 144.629 182.344 143.851 182.344 141.848C182.344 139.845 183.543 137.988 183.855 137.988H183.858Z" fill="#101C3A"/>
<path d="M190.684 137.736C191.424 138.517 191.793 139.456 191.511 139.824C191.228 140.196 190.398 139.862 189.658 139.08C188.917 138.299 188.545 137.364 188.831 136.992C189.116 136.62 189.946 136.954 190.684 137.736Z" fill="#101C3A"/>
<path d="M185.876 136.824C186.162 137.196 185.79 138.131 185.05 138.916C184.309 139.697 183.479 140.032 183.196 139.66C182.914 139.288 183.283 138.353 184.023 137.568C184.764 136.786 185.594 136.452 185.876 136.824Z" fill="#101C3A"/>
<path d="M185.069 136.339C186.225 135.728 187.593 135.765 188.892 135.816C189.031 135.342 189.33 134.909 189.689 134.578C189.825 134.451 189.978 134.339 190.157 134.294C190.336 134.25 190.542 134.291 190.662 134.431C190.785 134.574 190.795 134.786 190.775 134.977C190.725 135.458 190.532 135.922 190.23 136.291C190.785 135.554 191.611 135.066 192.508 134.916C192.648 134.892 192.804 134.878 192.927 134.953C193.099 135.055 193.152 135.291 193.132 135.496C193.086 135.97 192.751 136.376 192.349 136.618C191.947 136.861 191.482 136.963 191.027 137.066C191.94 136.946 192.84 137.025 193.707 137.335C194.013 137.444 194.315 137.584 194.541 137.82C194.766 138.059 194.896 138.414 194.8 138.728C194.663 139.164 194.169 139.362 193.727 139.41C192.674 139.519 191.631 139.123 190.648 138.721C189.333 139.379 187.822 139.482 186.358 139.499C185.883 139.502 185.398 139.499 184.946 139.345C184.495 139.192 184.076 138.861 183.927 138.397C183.794 137.987 183.894 137.523 184.123 137.165C184.352 136.803 184.697 136.537 185.073 136.339H185.069Z" fill="#101C3A"/>
<path d="M182.608 136.667C182.827 136.541 183.122 136.572 183.315 136.742C183.401 136.821 183.504 136.93 183.607 136.882C183.674 136.848 183.697 136.759 183.684 136.684C183.67 136.609 183.627 136.541 183.6 136.473C183.551 136.353 183.537 136.217 183.594 136.101C183.647 135.988 183.786 135.91 183.903 135.954C184.092 136.022 184.092 136.302 184.208 136.473C184.245 136.527 184.285 136.565 184.331 136.592C184.514 136.701 184.557 136.951 184.401 137.101C184.394 137.104 184.391 137.111 184.388 137.114C184.248 137.258 184.095 137.418 183.886 137.439C183.76 137.449 183.637 137.404 183.514 137.381C183.232 137.323 182.94 137.37 182.651 137.367C182.422 137.367 182.265 137.108 182.385 136.906C182.438 136.811 182.518 136.729 182.611 136.678L182.608 136.667Z" fill="#101C3A"/>
<path d="M190.963 168.134C195.871 166.626 202.42 164.633 203.247 164.452C203.689 164.356 204.1 164.302 204.489 164.281C207.332 164.141 208.876 165.882 209.607 167.134C210.397 168.793 210.397 170.677 207.358 172.701C207.358 172.701 205.887 173.434 205.14 173.445L187.36 173.567H186.679L185.722 173.578L185.712 173.41L185.477 169.824C185.477 169.824 185.49 169.817 185.523 169.807C185.875 169.697 188.15 168.998 190.966 168.134H190.963Z" fill="#F69E9D"/>
<path d="M180.66 170.898C180.939 170.768 182.556 170.574 182.968 170.437C184.446 169.953 185.867 169.601 186.84 169.854C187.976 170.147 187.926 171.099 187.996 172.382C188.049 173.386 186.468 174.287 185.668 174.413C184.868 174.539 184.047 174.201 183.24 173.986C182.44 173.775 178.727 171.799 180.66 170.895V170.898Z" fill="#F69E9D"/>
<path d="M183.061 173.909C183.709 173.8 184.353 173.687 185 173.578C185.313 173.523 186.385 173.131 186.604 173.434C187.215 174.281 184.575 174.697 184.257 174.745C184.001 174.786 182.31 175.103 182.188 174.847C182.095 174.598 182.221 174.298 182.407 174.144C182.596 173.991 182.832 173.946 183.058 173.909H183.061Z" fill="#F69E9D"/>
<path d="M181.44 173.557C182.084 173.444 182.732 173.335 183.379 173.222C183.691 173.168 184.764 172.775 184.983 173.079C185.594 173.925 182.954 174.342 182.635 174.389C182.38 174.43 180.693 174.748 180.566 174.492C180.473 174.243 180.6 173.942 180.789 173.789C180.978 173.635 181.214 173.591 181.44 173.553V173.557Z" fill="#F69E9D"/>
<path d="M179.999 173.096C180.647 172.983 181.291 172.874 181.938 172.761C182.251 172.707 183.323 172.314 183.542 172.618C184.154 173.464 181.513 173.881 181.195 173.932C180.939 173.973 179.252 174.29 179.129 174.034C179.036 173.785 179.162 173.485 179.351 173.331C179.541 173.178 179.777 173.133 180.002 173.096H179.999Z" fill="#F69E9D"/>
<path d="M178.936 172.284C179.58 172.175 180.228 172.062 180.875 171.953C181.188 171.898 182.26 171.506 182.479 171.809C183.09 172.656 180.45 173.072 180.131 173.12C179.876 173.161 178.189 173.478 178.063 173.222C177.97 172.973 178.096 172.673 178.285 172.519C178.474 172.366 178.71 172.321 178.936 172.284Z" fill="#F69E9D"/>
<path d="M179.739 152.568C181.918 152.267 184.19 152.243 187.198 152.339C187.766 152.356 188.311 152.4 188.829 152.469C189.533 152.844 189.951 153.312 189.951 153.82C189.951 155.059 187.454 156.066 184.372 156.066C181.29 156.066 178.793 155.062 178.793 153.82C178.793 153.356 179.142 152.926 179.739 152.571V152.568Z" fill="#F69E9D"/>
<path d="M205.769 163.527C205.838 163.547 205.878 163.622 205.858 163.694C205.838 163.765 205.765 163.806 205.696 163.786C204.072 163.298 202.451 163.646 201.139 164.762C201.116 164.782 201.086 164.793 201.056 164.793C201.02 164.793 200.98 164.776 200.957 164.745C200.91 164.687 200.917 164.602 200.973 164.554C202.355 163.38 204.058 163.015 205.769 163.527Z" fill="white"/>
<path d="M169.197 156.524C169.878 155.848 170.827 155.326 171.85 154.879C175.6 157.691 181.381 162.029 181.71 162.278C183.454 163.619 184.178 166.11 183.065 167.905C182.099 169.468 179.558 170.7 178.07 170.758C175.45 170.857 170.515 167.953 166.789 165.458C167.025 164.049 167.241 162.527 167.52 160.776C167.752 159.302 167.958 157.752 169.197 156.524Z" fill="#101C3A"/>
<path d="M186.319 150.644L189.278 152.862L178.797 169.663C178.389 170.305 177.001 171.192 177.001 171.192C173.713 172.752 172.162 171.748 171.219 170.175C170.488 168.691 169.801 165.96 172.408 163.217C173.368 162.206 186.319 150.641 186.319 150.641V150.644Z" fill="#F69E9D"/>
<path d="M188.164 148.805C188.496 148.519 189.671 148.372 189.93 148.198C191.704 147.003 191.541 147.191 191.289 148C191.033 148.816 190.528 152.648 189.997 153.276C189.465 153.904 187.878 154.795 187.081 154.214C186.062 153.471 185.251 153.003 185.617 151.86C185.929 150.88 186.978 149.829 188.164 148.805Z" fill="#F69E9D"/>
<path d="M189.665 152.251C190.101 151.749 190.539 151.247 190.974 150.742C191.127 150.565 191.289 150.384 191.515 150.302C191.741 150.22 192.057 150.275 192.213 150.486C192.355 150.729 191.193 152.029 191.024 152.227C190.811 152.476 189.061 154.547 188.689 153.565C188.556 153.213 189.453 152.49 189.665 152.251Z" fill="#F69E9D"/>
<path d="M190.244 150.65C190.679 150.148 191.117 149.646 191.552 149.141C191.705 148.964 191.868 148.783 192.093 148.701C192.323 148.619 192.635 148.67 192.791 148.885C192.934 149.128 191.771 150.428 191.602 150.626C191.389 150.875 189.639 152.946 189.267 151.964C189.134 151.612 190.031 150.889 190.24 150.65H190.244Z" fill="#F69E9D"/>
<path d="M190.63 149.146C191.065 148.645 191.504 148.143 191.939 147.641C192.092 147.464 192.254 147.283 192.48 147.201C192.706 147.119 193.021 147.17 193.178 147.385C193.32 147.628 192.158 148.924 191.989 149.126C191.776 149.375 190.026 151.446 189.654 150.464C189.521 150.112 190.418 149.389 190.63 149.146Z" fill="#F69E9D"/>
<path d="M190.533 147.795C190.968 147.293 191.406 146.791 191.841 146.29C191.994 146.112 192.157 145.931 192.382 145.849C192.612 145.768 192.924 145.819 193.08 146.034C193.223 146.276 192.06 147.576 191.891 147.774C191.678 148.023 189.928 150.095 189.556 149.112C189.423 148.761 190.32 148.037 190.533 147.798V147.795Z" fill="#F69E9D"/>
<path d="M185.644 147.898C185.634 147.734 185.674 147.547 185.817 147.468C185.999 147.373 186.209 147.519 186.375 147.642C186.906 148.045 187.54 148.294 188.194 148.373C188.61 148.42 189.656 148.1 189.885 148.54C190.124 148.994 189.446 149.789 189.174 150.099C188.779 150.55 188.281 150.908 187.73 151.13C187.328 151.29 186.803 151.345 186.541 150.997C186.278 150.649 186.458 150.144 186.401 149.704C186.315 149.048 185.687 148.56 185.641 147.898H185.644Z" fill="#F69E9D"/>
<path d="M168.335 175.121C169.554 175.159 170.719 175.606 171.715 176.019C172.124 176.189 172.532 176.363 172.938 176.541C174.09 177.039 175.285 177.554 176.504 177.906C178.387 178.452 180.071 178.517 181.512 178.094C181.582 178.073 181.652 178.114 181.672 178.186C181.692 178.257 181.652 178.329 181.582 178.353C180.934 178.541 180.237 178.636 179.5 178.636C178.547 178.636 177.52 178.479 176.435 178.162C175.199 177.804 174 177.285 172.838 176.787C172.433 176.612 172.024 176.435 171.619 176.268C170.643 175.862 169.504 175.428 168.328 175.391C167.086 175.357 165.967 175.804 165.319 176.599C165.273 176.657 165.19 176.664 165.133 176.616C165.077 176.568 165.07 176.483 165.117 176.428C165.817 175.568 167.02 175.087 168.335 175.125V175.121Z" fill="#E9F1FD"/>
<path d="M168.777 169.47C168.843 169.443 168.92 169.477 168.946 169.545C169.484 170.931 170.524 172.139 171.796 172.856C173.071 173.572 174.619 173.825 176.043 173.545C176.113 173.532 176.183 173.579 176.196 173.651C176.209 173.723 176.163 173.794 176.093 173.808C175.695 173.886 175.289 173.924 174.881 173.924C173.765 173.924 172.639 173.637 171.67 173.091C170.325 172.334 169.268 171.108 168.701 169.644C168.674 169.576 168.707 169.498 168.774 169.47H168.777Z" fill="#E9F1FD"/>
<path d="M184.998 152.249C185.124 152.147 185.254 152.065 185.376 151.986C185.845 151.686 186.213 151.451 186.147 150.266C186.144 150.184 186.203 150.113 186.283 150.109C186.356 150.109 186.429 150.167 186.436 150.249C186.512 151.611 186.011 151.932 185.529 152.239C185.413 152.314 185.29 152.392 185.177 152.485C183.822 153.59 182.424 154.669 181.023 155.693C180.999 155.71 180.97 155.72 180.94 155.72C180.893 155.72 180.85 155.699 180.823 155.658C180.777 155.59 180.794 155.498 180.857 155.454C182.255 154.433 183.646 153.355 185.001 152.253L184.998 152.249Z" fill="#101C3A"/>
<path d="M168.691 175.605H190.125L186.611 181.977H168.691V175.605Z" fill="#101C3A"/>
<path d="M194.367 237.405L176.68 178.338L179.619 177.484L197.087 237.405H194.367Z" fill="#101C3A"/>
<path d="M197.287 237.562H194.252L194.219 237.453L176.488 178.235L179.723 177.297L197.291 237.562H197.287ZM194.475 237.248H196.879L179.514 177.676L176.864 178.444L194.471 237.248H194.475Z" fill="#101C3A"/>
<path d="M150.07 237.409L167.535 177.488L170.478 178.341L152.79 237.409H150.07Z" fill="#101C3A"/>
<path d="M152.903 237.566H149.867L149.924 237.364L167.435 177.297L170.666 178.235L170.62 178.389L152.899 237.566H152.903ZM150.272 237.252H152.677L170.284 178.447L167.638 177.679L150.272 237.252Z" fill="#101C3A"/>
<path d="M184.125 181.981H162.691L165.292 175.609H184.125V181.981Z" fill="white"/>
<path d="M184.211 182.068H162.555L162.608 181.942L165.228 175.516H184.211V182.068ZM162.824 181.887H184.031V175.703H165.348L162.824 181.887Z" fill="#101C3A"/>
<path d="M229.402 175.605H250.836L247.322 181.977H229.402V175.605Z" fill="#101C3A"/>
<path d="M254.124 237.409L237.387 178.341L240.326 177.488L256.721 237.409H254.124Z" fill="#101C3A"/>
<path d="M256.918 237.566H254.009L253.976 237.453L237.195 178.235L240.427 177.297L240.466 177.447L256.915 237.566H256.918ZM254.235 237.252H256.517L240.217 177.679L237.571 178.447L254.235 237.252Z" fill="#101C3A"/>
<path d="M211.852 237.405L228.244 177.484L231.186 178.338L214.449 237.405H211.852Z" fill="#101C3A"/>
<path d="M214.561 237.562H211.648L228.14 177.297L231.372 178.235L231.328 178.386L214.558 237.566L214.561 237.562ZM212.05 237.248H214.332L230.996 178.444L228.35 177.676L212.05 237.248Z" fill="#101C3A"/>
<path d="M241.317 198.379H221.172V237.393H241.317V198.379Z" fill="#202020"/>
<path d="M241.407 237.484H221.086V198.285H241.407V237.484ZM221.262 237.299H241.228V198.469H221.262V237.299Z" fill="#101C3A"/>
<path d="M221.051 198.25H241.441V237.517H221.051V198.25ZM241.196 198.503H221.297V237.264H241.196V198.503Z" fill="#101C3A"/>
<path d="M249.763 198.371H241.168V237.385H249.763V198.371Z" fill="#101C3A"/>
<path d="M223.566 224.406H238.926V235.221H223.566V224.406ZM238.59 224.751H223.902V234.873H238.59V224.751Z" fill="#101C3A"/>
<path d="M238.73 202.277C238.73 201.95 238.99 201.684 239.305 201.684C239.62 201.684 239.88 201.95 239.88 202.277C239.88 202.605 239.62 202.868 239.305 202.868C238.99 202.868 238.73 202.602 238.73 202.277ZM239.066 202.277C239.066 202.414 239.172 202.523 239.305 202.523C239.438 202.523 239.544 202.414 239.544 202.277C239.544 202.141 239.438 202.032 239.305 202.032C239.172 202.032 239.066 202.141 239.066 202.277Z" fill="#101C3A"/>
<path d="M236.715 202.277C236.715 201.95 236.974 201.684 237.289 201.684C237.605 201.684 237.864 201.95 237.864 202.277C237.864 202.605 237.605 202.868 237.289 202.868C236.974 202.868 236.715 202.602 236.715 202.277ZM237.05 202.277C237.05 202.414 237.157 202.523 237.289 202.523C237.422 202.523 237.528 202.414 237.528 202.277C237.528 202.141 237.422 202.032 237.289 202.032C237.157 202.032 237.05 202.141 237.05 202.277Z" fill="#101C3A"/>
<path d="M234.699 202.277C234.699 201.95 234.958 201.684 235.274 201.684C235.589 201.684 235.848 201.95 235.848 202.277C235.848 202.605 235.589 202.868 235.274 202.868C234.958 202.868 234.699 202.602 234.699 202.277ZM235.035 202.277C235.035 202.414 235.141 202.523 235.274 202.523C235.407 202.523 235.513 202.414 235.513 202.277C235.513 202.141 235.407 202.032 235.274 202.032C235.141 202.032 235.035 202.141 235.035 202.277Z" fill="#101C3A"/>
<path d="M232.68 202.277C232.68 201.95 232.939 201.684 233.254 201.684C233.57 201.684 233.829 201.95 233.829 202.277C233.829 202.605 233.57 202.868 233.254 202.868C232.939 202.868 232.68 202.602 232.68 202.277ZM233.015 202.277C233.015 202.414 233.121 202.523 233.254 202.523C233.387 202.523 233.493 202.414 233.493 202.277C233.493 202.141 233.384 202.032 233.254 202.032C233.125 202.032 233.015 202.141 233.015 202.277Z" fill="#101C3A"/>
<path d="M230.668 202.277C230.668 201.95 230.927 201.684 231.242 201.684C231.558 201.684 231.82 201.95 231.82 202.277C231.82 202.605 231.561 202.868 231.242 202.868C230.924 202.868 230.668 202.602 230.668 202.277ZM231.003 202.277C231.003 202.414 231.11 202.523 231.242 202.523C231.375 202.523 231.482 202.414 231.482 202.277C231.482 202.141 231.375 202.032 231.242 202.032C231.11 202.032 231.003 202.141 231.003 202.277Z" fill="#101C3A"/>
<path d="M228.648 202.277C228.648 201.95 228.907 201.684 229.226 201.684C229.545 201.684 229.801 201.95 229.801 202.277C229.801 202.605 229.542 202.868 229.226 202.868C228.911 202.868 228.648 202.602 228.648 202.277ZM228.987 202.277C228.987 202.414 229.093 202.523 229.226 202.523C229.359 202.523 229.465 202.414 229.465 202.277C229.465 202.141 229.359 202.032 229.226 202.032C229.093 202.032 228.987 202.141 228.987 202.277Z" fill="#101C3A"/>
<path d="M226.633 202.277C226.633 201.95 226.892 201.684 227.207 201.684C227.523 201.684 227.782 201.95 227.782 202.277C227.782 202.605 227.523 202.868 227.207 202.868C226.892 202.868 226.633 202.602 226.633 202.277ZM226.972 202.277C226.972 202.414 227.078 202.523 227.211 202.523C227.343 202.523 227.45 202.414 227.45 202.277C227.45 202.141 227.343 202.032 227.211 202.032C227.078 202.032 226.972 202.141 226.972 202.277Z" fill="#101C3A"/>
<path d="M224.617 202.277C224.617 201.95 224.876 201.684 225.192 201.684C225.507 201.684 225.766 201.95 225.766 202.277C225.766 202.605 225.507 202.868 225.192 202.868C224.876 202.868 224.617 202.602 224.617 202.277ZM224.953 202.277C224.953 202.414 225.059 202.523 225.192 202.523C225.325 202.523 225.431 202.414 225.431 202.277C225.431 202.141 225.325 202.032 225.192 202.032C225.059 202.032 224.953 202.141 224.953 202.277Z" fill="#101C3A"/>
<path d="M222.602 202.277C222.602 201.95 222.861 201.684 223.176 201.684C223.492 201.684 223.751 201.95 223.751 202.277C223.751 202.605 223.492 202.868 223.176 202.868C222.861 202.868 222.602 202.602 222.602 202.277ZM222.937 202.277C222.937 202.414 223.043 202.523 223.176 202.523C223.309 202.523 223.415 202.414 223.415 202.277C223.415 202.141 223.309 202.032 223.176 202.032C223.043 202.032 222.937 202.141 222.937 202.277Z" fill="#101C3A"/>
<path d="M237.727 203.774C237.727 203.446 237.986 203.184 238.301 203.184C238.617 203.184 238.876 203.45 238.876 203.774C238.876 204.098 238.617 204.364 238.301 204.364C237.986 204.364 237.727 204.098 237.727 203.774ZM238.062 203.774C238.062 203.91 238.168 204.02 238.301 204.02C238.434 204.02 238.54 203.91 238.54 203.774C238.54 203.637 238.434 203.528 238.301 203.528C238.168 203.528 238.062 203.637 238.062 203.774Z" fill="#101C3A"/>
<path d="M235.707 203.774C235.707 203.446 235.966 203.184 236.282 203.184C236.597 203.184 236.859 203.45 236.859 203.774C236.859 204.098 236.6 204.364 236.282 204.364C235.963 204.364 235.707 204.098 235.707 203.774ZM236.046 203.774C236.046 203.91 236.152 204.02 236.285 204.02C236.418 204.02 236.524 203.91 236.524 203.774C236.524 203.637 236.418 203.528 236.285 203.528C236.152 203.528 236.046 203.637 236.046 203.774Z" fill="#101C3A"/>
<path d="M233.691 203.774C233.691 203.446 233.95 203.184 234.266 203.184C234.581 203.184 234.84 203.45 234.84 203.774C234.84 204.098 234.581 204.364 234.266 204.364C233.95 204.364 233.691 204.098 233.691 203.774ZM234.027 203.774C234.027 203.91 234.133 204.02 234.266 204.02C234.399 204.02 234.505 203.91 234.505 203.774C234.505 203.637 234.399 203.528 234.266 203.528C234.133 203.528 234.027 203.637 234.027 203.774Z" fill="#101C3A"/>
<path d="M231.676 203.774C231.676 203.446 231.935 203.184 232.25 203.184C232.566 203.184 232.825 203.45 232.825 203.774C232.825 204.098 232.566 204.364 232.25 204.364C231.935 204.364 231.676 204.098 231.676 203.774ZM232.011 203.774C232.011 203.91 232.117 204.02 232.25 204.02C232.383 204.02 232.489 203.91 232.489 203.774C232.489 203.637 232.383 203.528 232.25 203.528C232.117 203.528 232.011 203.637 232.011 203.774Z" fill="#101C3A"/>
<path d="M229.66 203.774C229.66 203.446 229.919 203.184 230.235 203.184C230.55 203.184 230.809 203.45 230.809 203.774C230.809 204.098 230.55 204.364 230.235 204.364C229.919 204.364 229.66 204.098 229.66 203.774ZM229.996 203.774C229.996 203.91 230.102 204.02 230.235 204.02C230.368 204.02 230.474 203.91 230.474 203.774C230.474 203.637 230.368 203.528 230.235 203.528C230.102 203.528 229.996 203.637 229.996 203.774Z" fill="#101C3A"/>
<path d="M227.645 203.774C227.645 203.446 227.904 203.184 228.219 203.184C228.535 203.184 228.794 203.45 228.794 203.774C228.794 204.098 228.535 204.364 228.219 204.364C227.904 204.364 227.645 204.098 227.645 203.774ZM227.98 203.774C227.98 203.91 228.09 204.02 228.219 204.02C228.349 204.02 228.458 203.91 228.458 203.774C228.458 203.637 228.349 203.528 228.219 203.528C228.09 203.528 227.98 203.637 227.98 203.774Z" fill="#101C3A"/>
<path d="M225.629 203.774C225.629 203.446 225.888 203.184 226.203 203.184C226.519 203.184 226.778 203.45 226.778 203.774C226.778 204.098 226.519 204.364 226.203 204.364C225.888 204.364 225.629 204.098 225.629 203.774ZM225.964 203.774C225.964 203.91 226.071 204.02 226.203 204.02C226.336 204.02 226.443 203.91 226.443 203.774C226.443 203.637 226.336 203.528 226.203 203.528C226.071 203.528 225.964 203.637 225.964 203.774Z" fill="#101C3A"/>
<path d="M223.613 203.774C223.613 203.446 223.872 203.184 224.188 203.184C224.503 203.184 224.762 203.45 224.762 203.774C224.762 204.098 224.503 204.364 224.188 204.364C223.872 204.364 223.613 204.098 223.613 203.774ZM223.949 203.774C223.949 203.91 224.055 204.02 224.188 204.02C224.321 204.02 224.427 203.91 224.427 203.774C224.427 203.637 224.321 203.528 224.188 203.528C224.055 203.528 223.949 203.637 223.949 203.774Z" fill="#101C3A"/>
<path d="M238.73 205.313C238.73 204.985 238.99 204.723 239.305 204.723C239.62 204.723 239.88 204.989 239.88 205.313C239.88 205.637 239.62 205.903 239.305 205.903C238.99 205.903 238.73 205.637 238.73 205.313ZM239.066 205.313C239.066 205.45 239.172 205.559 239.305 205.559C239.438 205.559 239.544 205.45 239.544 205.313C239.544 205.177 239.438 205.067 239.305 205.067C239.172 205.067 239.066 205.177 239.066 205.313Z" fill="#101C3A"/>
<path d="M236.715 205.313C236.715 204.985 236.974 204.723 237.289 204.723C237.605 204.723 237.864 204.989 237.864 205.313C237.864 205.637 237.605 205.903 237.289 205.903C236.974 205.903 236.715 205.637 236.715 205.313ZM237.05 205.313C237.05 205.45 237.157 205.559 237.289 205.559C237.422 205.559 237.528 205.45 237.528 205.313C237.528 205.177 237.422 205.067 237.289 205.067C237.157 205.067 237.05 205.177 237.05 205.313Z" fill="#101C3A"/>
<path d="M234.699 205.313C234.699 204.985 234.958 204.723 235.274 204.723C235.589 204.723 235.848 204.989 235.848 205.313C235.848 205.637 235.589 205.903 235.274 205.903C234.958 205.903 234.699 205.637 234.699 205.313ZM235.035 205.313C235.035 205.45 235.141 205.559 235.274 205.559C235.407 205.559 235.513 205.45 235.513 205.313C235.513 205.177 235.407 205.067 235.274 205.067C235.141 205.067 235.035 205.177 235.035 205.313Z" fill="#101C3A"/>
<path d="M232.68 205.313C232.68 204.985 232.939 204.723 233.254 204.723C233.57 204.723 233.829 204.989 233.829 205.313C233.829 205.637 233.57 205.903 233.254 205.903C232.939 205.903 232.68 205.637 232.68 205.313ZM233.015 205.313C233.015 205.45 233.121 205.559 233.254 205.559C233.387 205.559 233.493 205.45 233.493 205.313C233.493 205.177 233.384 205.067 233.254 205.067C233.125 205.067 233.015 205.177 233.015 205.313Z" fill="#101C3A"/>
<path d="M230.668 205.313C230.668 204.985 230.927 204.723 231.242 204.723C231.558 204.723 231.82 204.989 231.82 205.313C231.82 205.637 231.561 205.903 231.242 205.903C230.924 205.903 230.668 205.637 230.668 205.313ZM231.003 205.313C231.003 205.45 231.11 205.559 231.242 205.559C231.375 205.559 231.482 205.45 231.482 205.313C231.482 205.177 231.375 205.067 231.242 205.067C231.11 205.067 231.003 205.177 231.003 205.313Z" fill="#101C3A"/>
<path d="M228.648 205.313C228.648 204.985 228.907 204.723 229.226 204.723C229.545 204.723 229.801 204.989 229.801 205.313C229.801 205.637 229.542 205.903 229.226 205.903C228.911 205.903 228.648 205.637 228.648 205.313ZM228.987 205.313C228.987 205.45 229.093 205.559 229.226 205.559C229.359 205.559 229.465 205.45 229.465 205.313C229.465 205.177 229.359 205.067 229.226 205.067C229.093 205.067 228.987 205.177 228.987 205.313Z" fill="#101C3A"/>
<path d="M226.633 205.313C226.633 204.985 226.892 204.723 227.207 204.723C227.523 204.723 227.782 204.989 227.782 205.313C227.782 205.637 227.523 205.903 227.207 205.903C226.892 205.903 226.633 205.637 226.633 205.313ZM226.972 205.313C226.972 205.45 227.078 205.559 227.211 205.559C227.343 205.559 227.45 205.45 227.45 205.313C227.45 205.177 227.343 205.067 227.211 205.067C227.078 205.067 226.972 205.177 226.972 205.313Z" fill="#101C3A"/>
<path d="M224.617 205.313C224.617 204.985 224.876 204.723 225.192 204.723C225.507 204.723 225.766 204.989 225.766 205.313C225.766 205.637 225.507 205.903 225.192 205.903C224.876 205.903 224.617 205.637 224.617 205.313ZM224.953 205.313C224.953 205.45 225.059 205.559 225.192 205.559C225.325 205.559 225.431 205.45 225.431 205.313C225.431 205.177 225.325 205.067 225.192 205.067C225.059 205.067 224.953 205.177 224.953 205.313Z" fill="#101C3A"/>
<path d="M222.602 205.313C222.602 204.985 222.861 204.723 223.176 204.723C223.492 204.723 223.751 204.989 223.751 205.313C223.751 205.637 223.492 205.903 223.176 205.903C222.861 205.903 222.602 205.637 222.602 205.313ZM222.937 205.313C222.937 205.45 223.043 205.559 223.176 205.559C223.309 205.559 223.415 205.45 223.415 205.313C223.415 205.177 223.309 205.067 223.176 205.067C223.043 205.067 222.937 205.177 222.937 205.313Z" fill="#101C3A"/>
<path d="M237.727 206.813C237.727 206.489 237.986 206.223 238.301 206.223C238.617 206.223 238.876 206.489 238.876 206.813C238.876 207.137 238.617 207.403 238.301 207.403C237.986 207.403 237.727 207.137 237.727 206.813ZM238.062 206.813C238.062 206.95 238.168 207.059 238.301 207.059C238.434 207.059 238.54 206.946 238.54 206.813C238.54 206.68 238.434 206.567 238.301 206.567C238.168 206.567 238.062 206.677 238.062 206.813Z" fill="#101C3A"/>
<path d="M235.707 206.813C235.707 206.489 235.966 206.223 236.282 206.223C236.597 206.223 236.859 206.489 236.859 206.813C236.859 207.137 236.6 207.403 236.282 207.403C235.963 207.403 235.707 207.137 235.707 206.813ZM236.046 206.813C236.046 206.95 236.152 207.059 236.285 207.059C236.418 207.059 236.524 206.946 236.524 206.813C236.524 206.68 236.418 206.567 236.285 206.567C236.152 206.567 236.046 206.677 236.046 206.813Z" fill="#101C3A"/>
<path d="M233.691 206.813C233.691 206.489 233.95 206.223 234.266 206.223C234.581 206.223 234.84 206.489 234.84 206.813C234.84 207.137 234.581 207.403 234.266 207.403C233.95 207.403 233.691 207.137 233.691 206.813ZM234.027 206.813C234.027 206.95 234.133 207.059 234.266 207.059C234.399 207.059 234.505 206.946 234.505 206.813C234.505 206.68 234.399 206.567 234.266 206.567C234.133 206.567 234.027 206.677 234.027 206.813Z" fill="#101C3A"/>
<path d="M231.676 206.813C231.676 206.489 231.935 206.223 232.25 206.223C232.566 206.223 232.825 206.489 232.825 206.813C232.825 207.137 232.566 207.403 232.25 207.403C231.935 207.403 231.676 207.137 231.676 206.813ZM232.011 206.813C232.011 206.95 232.117 207.059 232.25 207.059C232.383 207.059 232.489 206.946 232.489 206.813C232.489 206.68 232.383 206.567 232.25 206.567C232.117 206.567 232.011 206.677 232.011 206.813Z" fill="#101C3A"/>
<path d="M229.66 206.813C229.66 206.489 229.919 206.223 230.235 206.223C230.55 206.223 230.809 206.489 230.809 206.813C230.809 207.137 230.55 207.403 230.235 207.403C229.919 207.403 229.66 207.137 229.66 206.813ZM229.996 206.813C229.996 206.95 230.102 207.059 230.235 207.059C230.368 207.059 230.474 206.946 230.474 206.813C230.474 206.68 230.368 206.567 230.235 206.567C230.102 206.567 229.996 206.677 229.996 206.813Z" fill="#101C3A"/>
<path d="M227.645 206.813C227.645 206.489 227.904 206.223 228.219 206.223C228.535 206.223 228.794 206.489 228.794 206.813C228.794 207.137 228.535 207.403 228.219 207.403C227.904 207.403 227.645 207.137 227.645 206.813ZM227.98 206.813C227.98 206.95 228.09 207.059 228.219 207.059C228.349 207.059 228.458 206.946 228.458 206.813C228.458 206.68 228.349 206.567 228.219 206.567C228.09 206.567 227.98 206.677 227.98 206.813Z" fill="#101C3A"/>
<path d="M225.629 206.813C225.629 206.489 225.888 206.223 226.203 206.223C226.519 206.223 226.778 206.489 226.778 206.813C226.778 207.137 226.519 207.403 226.203 207.403C225.888 207.403 225.629 207.137 225.629 206.813ZM225.964 206.813C225.964 206.95 226.071 207.059 226.203 207.059C226.336 207.059 226.443 206.946 226.443 206.813C226.443 206.68 226.336 206.567 226.203 206.567C226.071 206.567 225.964 206.677 225.964 206.813Z" fill="#101C3A"/>
<path d="M223.613 206.813C223.613 206.489 223.872 206.223 224.188 206.223C224.503 206.223 224.762 206.489 224.762 206.813C224.762 207.137 224.503 207.403 224.188 207.403C223.872 207.403 223.613 207.137 223.613 206.813ZM223.949 206.813C223.949 206.95 224.055 207.059 224.188 207.059C224.321 207.059 224.427 206.946 224.427 206.813C224.427 206.68 224.321 206.567 224.188 206.567C224.055 206.567 223.949 206.677 223.949 206.813Z" fill="#101C3A"/>
<path d="M244.832 181.981H223.402L226.003 175.609H244.832V181.981Z" fill="white"/>
<path d="M244.922 182.068H223.266L223.319 181.942L225.942 175.516H244.922V182.068ZM223.535 181.887H244.742V175.703H226.059L223.535 181.887Z" fill="#101C3A"/>
<path d="M255.251 173.773H161.949V176.254H255.251V173.773Z" fill="#101C3A"/>
<path d="M255.396 176.403H161.805V173.625H255.396V176.403ZM162.094 176.106H255.107V173.922H162.094V176.106Z" fill="#101C3A"/>
<path d="M242.681 137.008H199.92C199.213 137.008 198.296 137.666 198.243 138.455L196.364 166.098C196.31 166.886 196.769 167.726 197.556 167.726H240.579C241.392 167.726 241.897 166.886 241.954 166.098L243.863 138.438C243.916 137.649 243.385 137.008 242.678 137.008H242.681Z" fill="#101C3A"/>
<path d="M243.11 137.008H200.449C199.749 137.008 199.137 137.639 199.081 138.414L197.215 165.873C197.161 166.651 197.69 167.279 198.39 167.279H241.051C241.755 167.279 242.366 166.651 242.419 165.873L244.286 138.414C244.339 137.636 243.811 137.008 243.11 137.008Z" fill="white"/>
<path d="M237.383 165.359H209.062C208.806 165.359 208.57 165.253 208.398 165.062C208.209 164.854 208.116 164.564 208.135 164.263L209.374 146.036C209.414 145.442 209.889 144.961 210.43 144.961H238.751C239.007 144.961 239.243 145.067 239.415 145.258C239.605 145.466 239.698 145.756 239.678 146.056L238.439 164.287C238.399 164.881 237.924 165.362 237.383 165.362V165.359ZM210.427 145.265C210.038 145.265 209.696 145.62 209.666 146.056L208.428 164.287C208.414 164.502 208.481 164.714 208.614 164.857C208.73 164.987 208.889 165.059 209.062 165.059H237.383C237.772 165.059 238.114 164.704 238.144 164.267L239.382 146.039C239.399 145.821 239.329 145.616 239.196 145.469C239.08 145.34 238.921 145.268 238.748 145.268H210.427V145.265Z" fill="#101C3A"/>
<path d="M227.424 167.43H198.392C198.03 167.43 197.691 167.279 197.446 167.006C197.177 166.71 197.041 166.293 197.07 165.86L198.937 138.401C198.997 137.548 199.674 136.852 200.451 136.852H206.499V137.155H200.451C199.827 137.155 199.279 137.722 199.232 138.421L197.366 165.88C197.343 166.228 197.452 166.563 197.665 166.798C197.854 167.01 198.113 167.126 198.396 167.126H227.427V167.43H227.424Z" fill="#101C3A"/>
<path d="M241.055 167.43V167.126C241.679 167.126 242.227 166.559 242.274 165.86L244.14 138.401C244.163 138.053 244.057 137.718 243.841 137.483C243.649 137.271 243.39 137.155 243.111 137.155H226.539V136.852H243.111C243.473 136.852 243.811 137.002 244.057 137.275C244.326 137.572 244.462 137.988 244.436 138.421L242.569 165.88C242.513 166.733 241.832 167.43 241.055 167.43Z" fill="#101C3A"/>
<path d="M216.816 169.427C216.869 169.062 217.47 165.492 217.796 163.537C217.919 162.81 218.533 162.277 219.25 162.277H220.824L224.69 173.249C224.238 173.249 215.043 173.246 211.087 173.246C210.988 173.246 211.044 173.024 211.144 173.027C216.53 173.195 216.683 170.301 216.813 169.427H216.816Z" fill="#101C3A"/>
<path d="M217.213 170.1C217.232 169.939 217.983 165.561 218.348 163.425C218.461 162.762 219.022 162.278 219.68 162.281L227.757 162.309C228.603 162.309 229.238 163.104 229.075 163.957C228.7 165.923 228.122 169.008 228.079 169.509C228.009 170.26 228.109 171.407 229.437 171.909C231.024 172.506 234.966 173.001 235.013 173.042C235.152 173.168 235.013 173.298 234.94 173.301L224.728 173.253C224.705 173.253 224.681 173.253 224.661 173.25C224.206 173.209 219.162 172.745 219.142 172.741C217.834 172.54 217.017 171.595 217.213 170.103V170.1Z" fill="#EAF0F8"/>
<path d="M234.949 173.449L224.877 173.401V173.097L234.747 173.145C234.647 173.128 234.521 173.111 234.388 173.091C233.163 172.903 230.612 172.514 229.387 172.05C228.317 171.647 227.816 170.763 227.929 169.494C227.972 169.006 228.497 166.197 228.929 163.927C228.998 163.566 228.905 163.197 228.679 162.91C228.454 162.627 228.115 162.46 227.756 162.46L219.68 162.433V162.129L227.756 162.16C228.205 162.16 228.623 162.364 228.909 162.723C229.191 163.078 229.307 163.538 229.221 163.989C228.613 167.19 228.258 169.156 228.224 169.524C228.122 170.657 228.547 171.412 229.49 171.766C230.685 172.217 233.312 172.62 234.431 172.79C234.854 172.854 235.081 172.899 235.112 172.927C235.212 173.016 235.248 173.132 235.208 173.244C235.172 173.357 235.059 173.446 234.946 173.452L234.949 173.449Z" fill="#101C3A"/>
<path d="M234.305 147.934H215.711V148.237H234.305V147.934Z" fill="#101C3A"/>
<path d="M234.383 149.305H215.789V149.608H234.383V149.305Z" fill="#101C3A"/>
<path d="M168.557 62.9648H233.286C235.813 62.9648 237.866 65.0739 237.866 67.671V113.47C237.866 117.251 234.88 120.319 231.2 120.319H170.65C166.97 120.319 163.984 117.251 163.984 113.47V67.671C163.984 65.0739 166.037 62.9648 168.564 62.9648H168.557Z" fill="white"/>
<path d="M235.972 62.9688H165.914C164.871 62.9688 164.027 63.8356 164.027 64.9072V67.1664H237.859V64.9072C237.859 63.8356 237.015 62.9688 235.972 62.9688Z" fill="#EAF0F8"/>
<path d="M237.982 67.2969H163.898V64.908C163.898 63.7681 164.802 62.8398 165.911 62.8398H235.97C237.079 62.8398 237.982 63.7681 237.982 64.908V67.2969ZM164.151 67.0375H237.733V64.908C237.733 63.9114 236.943 63.0992 235.973 63.0992H165.914C164.945 63.0992 164.154 63.9114 164.154 64.908V67.0375H164.151Z" fill="#101C3A"/>
<path d="M231.127 64.7227C230.878 64.7227 230.676 64.9308 230.676 65.1868C230.676 65.4427 230.878 65.6509 231.127 65.6509C231.376 65.6509 231.579 65.4427 231.579 65.1868C231.579 64.9308 231.376 64.7227 231.127 64.7227Z" fill="#101C3A"/>
<path d="M233.03 64.7227C232.781 64.7227 232.578 64.9308 232.578 65.1868C232.578 65.4427 232.781 65.6509 233.03 65.6509C233.279 65.6509 233.481 65.4427 233.481 65.1868C233.481 64.9308 233.279 64.7227 233.03 64.7227Z" fill="#E14B27"/>
<path d="M234.936 64.7227C234.687 64.7227 234.484 64.9308 234.484 65.1868C234.484 65.4427 234.687 65.6509 234.936 65.6509C235.185 65.6509 235.388 65.4427 235.388 65.1868C235.388 64.9308 235.185 64.7227 234.936 64.7227Z" fill="#202020"/>
<path d="M187.635 120.206C187.671 120.243 187.708 120.288 187.741 120.322H227.068L227.107 120.206H187.635ZM236.001 62.8516H165.836C164.75 62.8516 163.863 63.7559 163.863 64.8753V117.537C163.863 119.138 165.129 120.438 166.686 120.438H235.154C236.071 120.438 236.881 119.987 237.392 119.295C237.764 118.81 237.977 118.196 237.977 117.537V64.8753C237.977 63.7594 237.094 62.8516 236.004 62.8516H236.001ZM237.748 117.537C237.748 118.155 237.542 118.732 237.187 119.182C236.715 119.803 235.978 120.202 235.151 120.202H166.683C165.251 120.202 164.089 119.008 164.089 117.534V64.8719C164.089 63.8856 164.87 63.0802 165.833 63.0802H235.998C236.961 63.0802 237.744 63.889 237.744 64.8719V117.534L237.748 117.537Z" fill="#101C3A"/>
<path d="M177.853 103.698L177.83 102.609H169.66L169.68 103.698H177.853Z" fill="#101C3A"/>
<path d="M183.652 100.421L183.628 99.3359H169.551L169.574 100.421H183.652Z" fill="#101C3A"/>
<path d="M181.285 97.1517L181.265 96.0664H169.402L169.422 97.1517H181.285Z" fill="#202020"/>
<path d="M180.006 103.698L179.986 102.609H178.379L178.399 103.698H180.006Z" fill="#101C3A"/>
<path d="M193.173 103.698L193.149 102.609H184.977L185 103.698H193.173Z" fill="#101C3A"/>
<path d="M198.964 100.421L198.941 99.3359H184.863L184.887 100.421H198.964Z" fill="#101C3A"/>
<path d="M196.601 97.1517L196.581 96.0664H184.719L184.739 97.1517H196.601Z" fill="#101C3A"/>
<path d="M195.323 103.698L195.303 102.609H193.695L193.715 103.698H195.323Z" fill="#101C3A"/>
<path d="M177.782 94.0027L177.759 92.9141H169.586L169.606 94.0027H177.782Z" fill="#101C3A"/>
<path d="M183.573 90.7293L183.55 89.6406H169.473L169.496 90.7293H183.573Z" fill="#101C3A"/>
<path d="M181.21 87.4598L181.187 86.3711H169.324L169.347 87.4598H181.21Z" fill="#101C3A"/>
<path d="M179.931 94.0027L179.908 92.9141H178.301L178.324 94.0027H179.931Z" fill="#101C3A"/>
<path d="M193.095 94.0027L193.075 92.9141H184.902L184.922 94.0027H193.095Z" fill="#E14B27"/>
<path d="M198.89 90.7293L198.867 89.6406H184.789L184.812 90.7293H198.89Z" fill="#101C3A"/>
<path d="M196.526 87.4598L196.503 86.3711H184.641L184.664 87.4598H196.526Z" fill="white"/>
<path d="M195.252 94.0027L195.228 92.9141H193.621L193.644 94.0027H195.252Z" fill="#101C3A"/>
<path d="M177.704 84.3001L177.681 83.2148H169.508L169.531 84.3001H177.704Z" fill="#101C3A"/>
<path d="M183.496 81.0301L183.476 79.9414H169.398L169.418 81.0301H183.496Z" fill="#101C3A"/>
<path d="M181.136 77.7605L181.112 76.6719H169.25L169.273 77.7605H181.136Z" fill="#101C3A"/>
<path d="M179.857 84.3001L179.834 83.2148H178.227L178.25 84.3001H179.857Z" fill="#101C3A"/>
<path d="M193.024 84.3001L193.001 83.2148H184.828L184.851 84.3001H193.024Z" fill="#202020"/>
<path d="M198.812 81.0301L198.792 79.9414H184.715L184.735 81.0301H198.812Z" fill="#101C3A"/>
<path d="M196.452 77.7605L196.429 76.6719H184.566L184.59 77.7605H196.452Z" fill="#101C3A"/>
<path d="M195.174 84.3001L195.15 83.2148H193.543L193.566 84.3001H195.174Z" fill="#202020"/>
<path d="M177.63 74.6082L177.606 73.5195H169.434L169.457 74.6082H177.63Z" fill="#101C3A"/>
<path d="M179.779 74.6082L179.756 73.5195H178.148L178.172 74.6082H179.779Z" fill="#101C3A"/>
<path d="M192.942 74.6082L192.919 73.5195H184.746L184.769 74.6082H192.942Z" fill="#101C3A"/>
<path d="M195.095 74.6082L195.072 73.5195H193.465L193.488 74.6082H195.095Z" fill="#101C3A"/>
<path d="M211.705 103.698L211.685 102.609H203.512L203.532 103.698H211.705Z" fill="#101C3A"/>
<path d="M217.5 100.421L217.477 99.3359H203.402L203.422 100.421H217.5Z" fill="#101C3A"/>
<path d="M215.14 97.1517L215.116 96.0664H203.254L203.274 97.1517H215.14Z" fill="#101C3A"/>
<path d="M213.861 103.698L213.838 102.609H212.23L212.25 103.698H213.861Z" fill="#101C3A"/>
<path d="M227.021 103.698L227.001 102.609H218.828L218.848 103.698H227.021Z" fill="#101C3A"/>
<path d="M232.816 100.421L232.792 99.3359H218.715L218.738 100.421H232.816Z" fill="#101C3A"/>
<path d="M230.452 97.1517L230.429 96.0664H218.566L218.586 97.1517H230.452Z" fill="#101C3A"/>
<path d="M229.177 103.698L229.154 102.609H227.547L227.567 103.698H229.177Z" fill="#101C3A"/>
<path d="M211.634 94.0027L211.61 92.9141H203.438L203.461 94.0027H211.634Z" fill="#101C3A"/>
<path d="M217.422 90.7293L217.398 89.6406H203.324L203.344 90.7293H217.422Z" fill="#101C3A"/>
<path d="M215.061 87.4598L215.038 86.3711H203.176L203.199 87.4598H215.061Z" fill="#101C3A"/>
<path d="M213.783 94.0027L213.76 92.9141H212.152L212.176 94.0027H213.783Z" fill="#101C3A"/>
<path d="M226.946 94.0027L226.923 92.9141H218.75L218.773 94.0027H226.946Z" fill="#101C3A"/>
<path d="M232.742 90.7293L232.719 89.6406H218.645L218.664 90.7293H232.742Z" fill="#E14B27"/>
<path d="M230.378 87.4598L230.355 86.3711H218.492L218.515 87.4598H230.378Z" fill="white"/>
<path d="M229.103 94.0027L229.08 92.9141H227.473L227.496 94.0027H229.103Z" fill="#101C3A"/>
<path d="M211.555 84.3001L211.532 83.2148H203.359L203.383 84.3001H211.555Z" fill="#101C3A"/>
<path d="M217.351 81.0301L217.331 79.9414H203.254L203.277 81.0301H217.351Z" fill="#101C3A"/>
<path d="M214.983 77.7605L214.96 76.6719H203.098L203.121 77.7605H214.983Z" fill="#101C3A"/>
<path d="M213.709 84.3001L213.689 83.2148H212.082L212.102 84.3001H213.709Z" fill="#101C3A"/>
<path d="M226.872 84.3001L226.849 83.2148H218.676L218.699 84.3001H226.872Z" fill="#101C3A"/>
<path d="M232.664 81.0301L232.644 79.9414H218.566L218.59 81.0301H232.664Z" fill="#101C3A"/>
<path d="M230.304 77.7605L230.28 76.6719H218.418L218.441 77.7605H230.304Z" fill="#101C3A"/>
<path d="M229.025 84.3001L229.002 83.2148H227.395L227.418 84.3001H229.025Z" fill="#101C3A"/>
<path d="M215.14 116.608L215.116 115.52H203.254L203.274 116.608H215.14Z" fill="#101C3A"/>
<path d="M230.452 116.608L230.429 115.52H218.566L218.586 116.608H230.452Z" fill="#101C3A"/>
<path d="M211.634 113.445L211.61 112.359H203.438L203.461 113.445H211.634Z" fill="#101C3A"/>
<path d="M217.422 110.178L217.398 109.09H203.324L203.344 110.178H217.422Z" fill="#101C3A"/>
<path d="M215.061 106.905L215.038 105.816H203.176L203.199 106.905H215.061Z" fill="#202020"/>
<path d="M213.783 113.445L213.76 112.359H212.152L212.176 113.445H213.783Z" fill="#101C3A"/>
<path d="M226.946 113.445L226.923 112.359H218.75L218.773 113.445H226.946Z" fill="#101C3A"/>
<path d="M232.742 110.178L232.719 109.09H218.645L218.664 110.178H232.742Z" fill="#E14B27"/>
<path d="M230.378 106.905L230.355 105.816H218.492L218.515 106.905H230.378Z" fill="white"/>
<path d="M229.103 113.445L229.08 112.359H227.473L227.496 113.445H229.103Z" fill="#101C3A"/>
<path d="M211.477 74.6082L211.457 73.5195H203.281L203.304 74.6082H211.477Z" fill="#101C3A"/>
<path d="M213.631 74.6082L213.611 73.5195H212.004L212.024 74.6082H213.631Z" fill="#101C3A"/>
<path d="M226.794 74.6082L226.774 73.5195H218.598L218.621 74.6082H226.794Z" fill="#101C3A"/>
<path d="M228.948 74.6082L228.928 73.5195H227.32L227.34 74.6082H228.948Z" fill="#101C3A"/>
<path d="M164.058 121.646V113.199H166.721C167.731 113.199 168.389 113.24 168.694 113.325C169.166 113.452 169.557 113.728 169.876 114.151C170.195 114.575 170.351 115.124 170.351 115.796C170.351 116.315 170.262 116.752 170.076 117.103C169.893 117.458 169.66 117.735 169.378 117.936C169.096 118.137 168.81 118.271 168.518 118.335C168.123 118.417 167.548 118.455 166.798 118.455H165.715V121.639H164.055L164.058 121.646ZM165.718 114.633V117.028H166.625C167.279 117.028 167.718 116.984 167.937 116.895C168.156 116.806 168.329 116.67 168.455 116.482C168.581 116.295 168.644 116.076 168.644 115.827C168.644 115.52 168.555 115.267 168.382 115.066C168.206 114.865 167.983 114.742 167.714 114.691C167.515 114.653 167.117 114.633 166.519 114.633H165.718Z" fill="white"/>
<path d="M82.8113 154.328C95.0557 140.741 111.093 176.07 109.515 190.001L103.418 189.984C97.4999 186.486 72.8983 165.33 82.8113 154.328Z" fill="#E14B27"/>
<path d="M106.344 190.07L106.819 189.848C97.7863 169.576 83.1476 154.291 83.0014 154.141L82.6328 154.519C82.7789 154.67 97.3513 169.89 106.348 190.073L106.344 190.07Z" fill="#101C3A"/>
<path d="M86.5379 173.823C90.4433 175.086 98.8055 176.178 99.1974 176.229L99.2605 175.696C99.1542 175.683 88.6932 174.321 85.6579 172.922L85.4453 173.413C85.7475 173.55 86.1161 173.69 86.5346 173.823H86.5379Z" fill="#101C3A"/>
<path d="M91.804 164.37C93.2652 159.978 93.5707 152.951 93.5741 152.879L93.0527 152.855C93.0527 152.927 92.7505 159.879 91.3125 164.196L91.8073 164.37H91.804Z" fill="#101C3A"/>
<path d="M104.178 167.203C107.897 175.199 110.155 184.355 109.515 190C101.016 180.926 102.823 168.688 104.178 167.203Z" fill="#101C3A"/>
<path d="M114.144 144.926C124.994 139.476 121.643 172.388 112.082 190.011L107.645 189.998C105.44 185.585 105.364 149.338 114.144 144.922V144.926Z" fill="#E14B27"/>
<path d="M109.258 189.962L109.769 190.057C111.499 180.283 116.205 148.766 116.252 148.449L115.737 148.367C115.69 148.685 110.985 180.194 109.258 189.962Z" fill="#101C3A"/>
<path d="M116.114 173.17L111.363 178.945L111.761 179.291L116.513 173.516L116.114 173.17Z" fill="#101C3A"/>
<path d="M107.98 161.312L107.645 161.723L113.019 166.354L113.354 165.943L107.98 161.312Z" fill="#101C3A"/>
<path d="M91.3817 189.969L91.375 192.668C91.3684 195.733 92.2451 198.75 93.9255 201.425L94.593 202.49L99.8933 236.952L112.646 236.989L116.588 202.551L117.262 201.494C118.956 198.825 119.849 195.815 119.859 192.75L119.865 190.051L91.385 189.969H91.3817Z" fill="white"/>
<path d="M112.816 237.19L99.7284 237.153L94.4083 202.565L93.764 201.538C92.067 198.835 91.177 195.767 91.1836 192.671L91.1936 189.777L120.056 189.859L120.049 192.753C120.039 195.849 119.133 198.91 117.422 201.606L116.775 202.626L112.816 237.194V237.19ZM100.057 236.76L112.478 236.795L116.406 202.486L117.104 201.387C118.774 198.756 119.661 195.77 119.667 192.75L119.674 190.248L91.5755 190.17L91.5689 192.671C91.5622 195.692 92.4323 198.681 94.0861 201.323L94.7802 202.462L100.057 236.76Z" fill="#101C3A"/>
<path d="M91.5405 196.507L91.5391 197.043L112.753 197.104L112.755 196.568L91.5405 196.507Z" fill="#101C3A"/>
<path d="M109.123 202.245L109.121 202.781L116.713 202.804L116.714 202.269L109.123 202.245Z" fill="#101C3A"/>
<path d="M99.672 237.226H100.366V236.694H100.117L94.84 202.399L94.1426 201.29C92.4921 198.663 91.6253 195.687 91.6353 192.68L91.6419 190.25L119.863 190.329V189.793L91.1239 189.711L91.1172 192.677C91.1106 195.786 92.0039 198.864 93.7076 201.58L94.3452 202.597L99.672 237.23V237.226Z" fill="#101C3A"/>
</svg>
