<svg width="372" height="265" viewBox="0 0 372 265" fill="none" xmlns="http://www.w3.org/2000/svg">
<path d="M154.715 63.9849L152.449 65.8612L151.312 66.604L153.578 64.7277L154.715 63.9849Z" fill="#2D2D2D"/>
<path d="M145.718 56.9762L143.451 58.8532L143.168 56.7973L145.435 54.9199L145.718 56.9762Z" fill="#2D2D2D"/>
<path d="M157.781 71.6317L155.515 73.5091L153.23 72.1881L155.496 70.311L157.781 71.6317Z" fill="#2D2D2D"/>
<path d="M151.028 67.4884L148.763 69.3651C149.383 68.8509 148.97 67.2616 147.745 65.6275C147.079 64.7387 146.301 64.0038 145.58 63.5365C144.859 63.0685 144.197 62.8663 143.761 63.0395C143.692 63.0678 143.631 63.1032 143.578 63.1472L145.844 61.2709C145.897 61.2265 145.958 61.1897 146.027 61.1621C146.462 60.9897 147.126 61.1911 147.846 61.6591C148.567 62.1271 149.346 62.8613 150.012 63.7497C151.236 65.3845 151.65 66.9739 151.028 67.4884Z" fill="#2D2D2D"/>
<mask id="mask0_2123_7778" style="mask-type:luminance" maskUnits="userSpaceOnUse" x="143" y="61" width="9" height="9">
<path d="M151.028 67.4884L148.763 69.3651C149.383 68.8509 148.97 67.2616 147.745 65.6275C147.079 64.7387 146.301 64.0038 145.58 63.5365C144.859 63.0685 144.197 62.8663 143.761 63.0395C143.692 63.0678 143.631 63.1032 143.578 63.1472L145.844 61.2709C145.897 61.2265 145.958 61.1897 146.027 61.1621C146.462 60.9897 147.126 61.1911 147.846 61.6591C148.567 62.1271 149.346 62.8613 150.012 63.7497C151.236 65.3845 151.65 66.9739 151.028 67.4884Z" fill="white"/>
</mask>
<g mask="url(#mask0_2123_7778)">
<path d="M151.028 67.4888L148.762 69.3655C148.985 69.1816 149.074 68.8571 149.04 68.4431L151.307 66.5664C151.34 66.9807 151.251 67.3042 151.027 67.4888H151.028Z" fill="#2D2D2D"/>
<path d="M151.308 66.5663L149.041 68.443C149.032 68.3167 149.01 68.1818 148.977 68.039L151.244 66.1616C151.277 66.3047 151.298 66.4389 151.308 66.5663Z" fill="#2D2D2D"/>
<path d="M151.242 66.1613L148.975 68.0387C148.948 67.9217 148.913 67.7994 148.871 67.6727L151.137 65.7964C151.18 65.9223 151.214 66.0447 151.242 66.1613Z" fill="#2D2D2D"/>
<path d="M151.139 65.7964L148.872 67.6728C148.834 67.5579 148.789 67.4398 148.738 67.3182L151.005 65.4404C151.055 65.5617 151.1 65.6809 151.138 65.7964H151.139Z" fill="#2D2D2D"/>
<path d="M151.006 65.4407L148.74 67.3185C148.69 67.2004 148.636 67.0802 148.574 66.9578L150.84 65.0801C150.901 65.2035 150.957 65.3227 151.005 65.4411L151.006 65.4407Z" fill="#2D2D2D"/>
<path d="M150.841 65.0795L148.575 66.9573C148.514 66.831 148.446 66.7036 148.371 66.573L150.637 64.6978C150.711 64.8269 150.779 64.9543 150.841 65.0795Z" fill="#2D2D2D"/>
<path d="M150.636 64.6976L148.371 66.5728C148.29 66.4322 148.203 66.2902 148.109 66.1463L150.376 64.27C150.47 64.4121 150.557 64.5559 150.636 64.6976Z" fill="#2D2D2D"/>
<path d="M150.373 64.2701L148.107 66.1464C147.995 65.975 147.875 65.8014 147.744 65.6276C147.736 65.6157 147.727 65.605 147.719 65.5939L149.985 63.7158C149.994 63.7276 150.002 63.7384 150.01 63.7498C150.14 63.9241 150.262 64.0976 150.373 64.2701Z" fill="#2D2D2D"/>
<path d="M149.987 63.7161L147.721 65.5942C147.226 64.9377 146.669 64.3662 146.121 63.9276L148.387 62.0513C148.935 62.4899 149.492 63.0603 149.987 63.7161Z" fill="#2D2D2D"/>
<path d="M148.385 62.0515L146.119 63.9278C145.957 63.7983 145.796 63.6802 145.637 63.5743L147.903 61.6973C148.063 61.8032 148.224 61.9209 148.385 62.0515Z" fill="#2D2D2D"/>
<path d="M147.902 61.6972L145.636 63.5742C145.617 63.5613 145.598 63.5492 145.579 63.5366C145.472 63.4676 145.369 63.405 145.266 63.3481L147.531 61.4707C147.634 61.5283 147.739 61.5898 147.845 61.6596C147.863 61.6718 147.882 61.6843 147.902 61.6972H147.902Z" fill="#2D2D2D"/>
<path d="M147.533 61.4707L145.267 63.3481C145.158 63.2887 145.053 63.234 144.949 63.1885L147.214 61.3115C147.319 61.357 147.426 61.4114 147.534 61.4707H147.533Z" fill="#2D2D2D"/>
<path d="M147.212 61.3112L144.947 63.1882C144.847 63.1446 144.75 63.1074 144.656 63.0766L146.922 61.1992C147.015 61.2296 147.113 61.2676 147.211 61.3116L147.212 61.3112Z" fill="#2D2D2D"/>
<path d="M146.924 61.1995L144.658 63.0769C144.563 63.0465 144.471 63.0221 144.383 63.005L146.649 61.1279C146.738 61.1447 146.829 61.168 146.924 61.1995Z" fill="#2D2D2D"/>
<path d="M146.65 61.1276L144.384 63.0046C144.289 62.9874 144.199 62.9788 144.113 62.9785L146.379 61.1011C146.465 61.1011 146.556 61.1093 146.65 61.1272V61.1276Z" fill="#2D2D2D"/>
<path d="M146.379 61.1011L144.113 62.9785C144.011 62.9778 143.916 62.9903 143.828 63.0164L146.095 61.139C146.182 61.1136 146.277 61.1004 146.379 61.1011Z" fill="#2D2D2D"/>
<path d="M146.094 61.1396L143.828 63.017C143.804 63.0235 143.784 63.0306 143.761 63.0403C143.692 63.0686 143.631 63.104 143.578 63.148L145.844 61.2717C145.897 61.2273 145.958 61.1905 146.027 61.1629C146.049 61.155 146.071 61.1461 146.094 61.1396Z" fill="#2D2D2D"/>
</g>
<path d="M141.903 56.9173L139.638 58.7943L137.812 56.1727L140.079 54.2964L141.903 56.9173Z" fill="#2D2D2D"/>
<path d="M155.376 75.0327L153.11 76.9097L151.012 74.2945L153.277 72.4175L155.376 75.0327Z" fill="#2D2D2D"/>
<path d="M156.794 74.4644L154.528 76.3414L153.109 76.9099L155.376 75.0329L156.794 74.4644Z" fill="#2D2D2D"/>
<path d="M141.379 58.4507L139.113 60.3288C139.138 59.684 139.311 59.1609 139.641 58.7941L141.906 56.9175C141.578 57.2832 141.404 57.8066 141.379 58.4507H141.379Z" fill="#2D2D2D"/>
<mask id="mask1_2123_7778" style="mask-type:luminance" maskUnits="userSpaceOnUse" x="139" y="56" width="3" height="5">
<path d="M141.379 58.4507L139.113 60.3288C139.138 59.684 139.311 59.1609 139.641 58.7941L141.906 56.9175C141.578 57.2832 141.404 57.8066 141.379 58.4507H141.379Z" fill="white"/>
</mask>
<g mask="url(#mask1_2123_7778)">
<path d="M141.379 58.4507L139.113 60.3288C139.138 59.684 139.311 59.1609 139.641 58.7941L141.906 56.9175C141.578 57.2832 141.404 57.8066 141.379 58.4507H141.379Z" fill="#2D2D2D"/>
</g>
<path d="M153.275 72.4176L151.009 74.2946C150.382 74.2549 149.662 74.0342 148.891 73.661L151.156 71.7847C151.928 72.1564 152.647 72.3783 153.275 72.4173V72.4176Z" fill="#2D2D2D"/>
<mask id="mask2_2123_7778" style="mask-type:luminance" maskUnits="userSpaceOnUse" x="148" y="71" width="6" height="4">
<path d="M153.275 72.4176L151.009 74.2946C150.382 74.2549 149.662 74.0342 148.891 73.661L151.156 71.7847C151.928 72.1564 152.647 72.3783 153.275 72.4173V72.4176Z" fill="white"/>
</mask>
<g mask="url(#mask2_2123_7778)">
<path d="M153.273 72.4176L151.008 74.2946C150.858 74.2856 150.703 74.2656 150.543 74.2363L152.81 72.3589C152.969 72.3882 153.123 72.4086 153.273 72.4179V72.4176Z" fill="#2D2D2D"/>
<path d="M152.812 72.3587L150.545 74.2361C150.331 74.1953 150.106 74.1381 149.875 74.0626L152.141 72.1855C152.373 72.261 152.596 72.3197 152.812 72.3587Z" fill="#2D2D2D"/>
<path d="M152.141 72.1851L149.876 74.0622C149.644 73.9867 149.405 73.8933 149.16 73.7852L151.427 71.9082C151.671 72.0166 151.91 72.11 152.142 72.1851H152.141Z" fill="#2D2D2D"/>
<path d="M151.425 71.9085L149.158 73.7855C149.069 73.7458 148.98 73.7043 148.891 73.661L151.156 71.7847C151.247 71.8269 151.336 71.8688 151.425 71.9085H151.425Z" fill="#2D2D2D"/>
</g>
<path d="M141.919 61.2271L139.654 63.1041L137.359 61.46L139.625 59.583L141.919 61.2271Z" fill="#2D2D2D"/>
<path d="M139.624 59.5828L137.358 61.4598L136.824 59.0035L139.09 57.1265L139.624 59.5828Z" fill="#2D2D2D"/>
<path d="M143.292 64.0331L141.025 65.9108C140.434 64.9286 139.973 63.9815 139.652 63.1046L141.918 61.2275C142.24 62.1045 142.7 63.0516 143.292 64.0331Z" fill="#2D2D2D"/>
<mask id="mask3_2123_7778" style="mask-type:luminance" maskUnits="userSpaceOnUse" x="139" y="61" width="5" height="5">
<path d="M143.292 64.0331L141.025 65.9108C140.434 64.9286 139.973 63.9815 139.652 63.1046L141.918 61.2275C142.24 62.1045 142.7 63.0516 143.292 64.0331Z" fill="white"/>
</mask>
<g mask="url(#mask3_2123_7778)">
<path d="M143.293 64.0329L141.027 65.9107C140.94 65.7658 140.856 65.6212 140.773 65.4781L143.04 63.6011C143.121 63.7449 143.205 63.8884 143.293 64.0329Z" fill="#2D2D2D"/>
<path d="M143.037 63.601L140.771 65.4781C140.59 65.1603 140.423 64.8448 140.27 64.5367L142.536 62.6597C142.688 62.9685 142.856 63.283 143.037 63.6007V63.601Z" fill="#2D2D2D"/>
<path d="M142.536 62.6597L140.27 64.5367C140.121 64.2376 139.987 63.9435 139.867 63.6555L142.133 61.7788C142.253 62.0665 142.388 62.361 142.536 62.6601V62.6597Z" fill="#2D2D2D"/>
<path d="M142.134 61.7784L139.868 63.6551C139.79 63.468 139.718 63.2851 139.652 63.1041L141.918 61.2271C141.984 61.4081 142.056 61.5917 142.134 61.7784H142.134Z" fill="#2D2D2D"/>
</g>
<path d="M148.223 69.8202L145.958 71.6969C145.123 70.997 144.286 70.1766 143.488 69.2624L145.754 67.3857C146.552 68.2992 147.389 69.12 148.224 69.8206L148.223 69.8202Z" fill="#2D2D2D"/>
<mask id="mask4_2123_7778" style="mask-type:luminance" maskUnits="userSpaceOnUse" x="143" y="67" width="6" height="5">
<path d="M148.223 69.8202L145.958 71.6969C145.123 70.997 144.286 70.1766 143.488 69.2624L145.754 67.3857C146.552 68.2992 147.389 69.12 148.224 69.8206L148.223 69.8202Z" fill="white"/>
</mask>
<g mask="url(#mask4_2123_7778)">
<path d="M148.223 69.8202L145.958 71.6969C145.123 70.997 144.286 70.1766 143.488 69.2624L145.754 67.3857C146.552 68.2992 147.389 69.12 148.224 69.8206L148.223 69.8202Z" fill="#2D2D2D"/>
</g>
<path d="M151.438 73.8403L149.172 75.7173L146.633 74.07L148.899 72.1934L151.438 73.8403Z" fill="#2D2D2D"/>
<path d="M148.902 72.1933L146.636 74.0699L145.957 71.697L148.223 69.8203L148.902 72.1933Z" fill="#2D2D2D"/>
<path d="M144.327 67.6771L142.061 69.5552L139.891 66.6541L142.157 64.7764L144.327 67.6771Z" fill="#2D2D2D"/>
<path d="M145.752 67.3857L143.486 69.2624L142.062 69.5551L144.328 67.677L145.752 67.3857Z" fill="#2D2D2D"/>
<path d="M157.781 71.6315L155.496 70.3108C155.472 70.9538 155.296 71.4765 154.968 71.8422L156.792 74.4642L155.374 75.0327L153.275 72.4176C152.647 72.3786 151.928 72.1564 151.156 71.785L151.439 73.8402L148.9 72.1932L148.221 69.8203C147.386 69.1197 146.549 68.2993 145.751 67.3854L144.328 67.6767L142.158 64.776L143.292 64.0325C142.7 63.051 142.24 62.1036 141.918 61.227L139.623 59.5829L139.09 57.1266L141.377 58.4504C141.402 57.8064 141.575 57.2829 141.904 56.9172L140.08 54.296L141.501 53.7285L143.596 56.3423C144.225 56.3816 144.946 56.6049 145.716 56.9763L145.433 54.9196L147.971 56.5673L148.654 58.9403C149.485 59.6405 150.322 60.4609 151.122 61.3758L152.544 61.0828L154.716 63.9842L153.58 64.727C154.172 65.707 154.632 66.6562 154.954 67.5325L157.25 69.1784L157.781 71.6315ZM150.844 67.5955C151.713 67.2466 151.34 65.5256 150.011 63.7491C149.345 62.8607 148.566 62.1265 147.845 61.6585C147.125 61.1905 146.462 60.989 146.027 61.1615C145.156 61.5103 145.531 63.2346 146.86 65.01C147.525 65.8984 148.304 66.6333 149.024 67.0999C149.746 67.5686 150.408 67.7701 150.844 67.5955H150.844Z" fill="#818181"/>
<path d="M263.236 94.4744C262.835 93.618 262.409 92.766 261.969 91.9423L262.6 91.6078C263.046 92.4426 263.477 93.3057 263.883 94.1732L263.236 94.4744ZM260.57 89.4811C260.082 88.6741 259.566 87.8731 259.039 87.1004L259.629 86.6988C260.164 87.482 260.687 88.2941 261.182 89.1128L260.57 89.4811ZM257.375 84.8096C256.8 84.0635 256.197 83.3263 255.583 82.6175L256.123 82.1515C256.747 82.8704 257.359 83.6187 257.942 84.3752L257.375 84.8096ZM253.666 80.5335C253.009 79.8601 252.324 79.1978 251.629 78.5649L252.112 78.0391C252.816 78.6814 253.512 79.3537 254.178 80.0371L253.666 80.5341V80.5335ZM214.951 77.7739C214.797 77.7739 214.639 77.7612 214.481 77.7351L214.596 77.0318C214.716 77.0512 214.836 77.0612 214.951 77.0612C215.674 77.0612 216.246 76.6901 216.559 76.0156L217.207 76.3157C216.776 77.242 215.954 77.7734 214.951 77.7734V77.7739ZM249.481 76.7189C248.75 76.1276 247.991 75.5502 247.226 75.0027L247.643 74.4237C248.419 74.9789 249.189 75.5652 249.931 76.1654L249.481 76.7189H249.481ZM211.918 76.0788C211.339 75.3278 210.933 74.4092 210.711 73.3481L211.41 73.2028C211.609 74.158 211.971 74.9789 212.484 75.644L211.918 76.0788ZM187.301 74.7176C187.282 74.7176 187.263 74.7176 187.244 74.7165L187.267 74.0043C187.278 74.0043 187.289 74.0049 187.301 74.0049C187.882 74.0049 188.201 73.3947 188.251 72.1922L188.965 72.2216C188.88 74.285 188.013 74.7176 187.301 74.7176H187.301ZM216.714 73.4297C216.568 72.6231 216.292 71.7928 215.847 70.816L216.497 70.5209C216.968 71.5526 217.261 72.4368 217.417 73.3032L216.714 73.4297ZM244.874 73.4224C244.078 72.921 243.256 72.4368 242.432 71.983L242.777 71.359C243.614 71.8194 244.448 72.3109 245.255 72.8201L244.874 73.4224ZM184.543 73.2449C183.91 72.5544 183.458 71.6513 183.201 70.5614L183.896 70.3983C184.125 71.3685 184.52 72.1644 185.07 72.7646L184.543 73.2455V73.2449ZM239.909 70.689C239.058 70.284 238.184 69.8991 237.313 69.5463L237.583 68.8862C238.467 69.2446 239.353 69.6351 240.217 70.0461L239.909 70.689ZM211.306 70.5181L210.607 70.3695C210.808 69.4282 211.394 68.5906 212.345 67.8795L212.774 68.4497C211.964 69.0543 211.47 69.7504 211.306 70.5181ZM188.019 69.4276C187.877 68.5928 187.719 67.9549 187.698 67.8723C187.576 67.4873 187.446 67.1057 187.31 66.7379L187.98 66.4917C188.121 66.8733 188.257 67.2693 188.382 67.6676L188.388 67.6865C188.395 67.7147 188.567 68.3865 188.723 69.3084L188.019 69.4276H188.019ZM234.655 68.5595C233.758 68.2572 232.845 67.9804 231.941 67.7364L232.127 67.0486C233.045 67.296 233.972 67.5772 234.883 67.8845L234.655 68.5595ZM214.539 68.3199C214.246 67.8079 213.907 67.2333 213.473 66.5105C213.348 66.3014 213.218 66.0912 213.086 65.8854L213.689 65.5027C213.824 65.714 213.958 65.9298 214.086 66.1439C214.523 66.8705 214.864 67.4496 215.159 67.966L214.539 68.3188V68.3199ZM183.709 67.6731L182.996 67.6205C183.067 66.6697 183.257 65.7035 183.56 64.7477L184.241 64.963C183.955 65.866 183.776 66.7779 183.709 67.6737V67.6731ZM215.219 67.2333L214.991 66.5582C215.84 66.2731 216.795 66.0479 217.828 65.8882L217.937 66.5921C216.944 66.7457 216.029 66.9615 215.218 67.2333H215.219ZM229.181 67.0863C228.246 66.8977 227.305 66.7407 226.386 66.6209L226.479 65.9142C227.415 66.0368 228.371 66.196 229.323 66.3879L229.181 67.0863ZM223.567 66.3591C222.983 66.328 222.401 66.3125 221.838 66.3125C221.468 66.3125 221.1 66.3192 220.741 66.3325L220.715 65.6203C221.082 65.6064 221.46 65.5997 221.838 65.5997C222.414 65.5997 223.009 65.6158 223.605 65.6474L223.567 66.3591ZM186.181 64.1725C185.832 63.498 185.447 62.8513 185.036 62.2433L184.739 62.0736C184.766 62.0265 184.794 61.9799 184.821 61.9327C184.787 61.885 184.754 61.8373 184.72 61.7902L185.059 61.5461C185.477 60.8921 185.948 60.2775 186.466 59.7123L186.994 60.1932C186.508 60.7229 186.066 61.2993 185.674 61.9116C186.084 62.5229 186.466 63.1713 186.817 63.8458L186.182 64.1736L186.181 64.1725ZM211.448 63.6001C210.852 62.859 210.217 62.159 209.56 61.52L210.059 61.0103C210.736 61.6692 211.391 62.3909 212.006 63.1541L211.448 63.6001ZM149.964 62.7381L149.344 62.3848C149.76 61.6593 150.415 60.9082 151.29 60.1533L151.757 60.6924C150.943 61.3947 150.34 62.083 149.964 62.7387V62.7381ZM207.424 59.7018C206.664 59.141 205.867 58.639 205.055 58.2097L205.389 57.5801C206.233 58.0261 207.061 58.5475 207.849 59.1293L207.424 59.7023V59.7018ZM182.909 59.6674C182.248 59.0123 181.527 58.4116 180.767 57.883L181.176 57.2983C181.97 57.8502 182.723 58.477 183.413 59.1615L182.91 59.6668L182.909 59.6674ZM154.025 59.0545L153.649 58.4482C154.434 57.9639 155.291 57.5008 156.197 57.0715L156.504 57.7149C155.622 58.1331 154.788 58.5841 154.025 59.0545ZM189.082 58.3777L188.677 57.7903C189.479 57.2412 190.35 56.7803 191.268 56.4214L191.529 57.0848C190.662 57.4237 189.839 57.8591 189.082 58.3777ZM202.487 57.102C201.609 56.8041 200.697 56.5739 199.775 56.4169L199.895 55.7147C200.855 55.8778 201.804 56.118 202.717 56.4275L202.487 57.102ZM159.109 56.6249L158.863 55.956C159.761 55.6271 160.687 55.3325 161.616 55.0807L161.803 55.7685C160.894 56.0148 159.988 56.3027 159.109 56.6249ZM178.347 56.4918C177.52 56.1046 176.638 55.7746 175.727 55.5111L175.926 54.8267C176.873 55.1001 177.789 55.4435 178.651 55.8467L178.347 56.4918ZM194.206 56.3554L194.09 55.6526C194.929 55.5145 195.811 55.444 196.708 55.444C196.805 55.444 196.902 55.4446 196.999 55.4462L196.988 56.1584C196.894 56.1568 196.801 56.1562 196.708 56.1562C195.849 56.1562 195.007 56.2233 194.206 56.3554H194.206ZM164.561 55.1484L164.435 54.4472C165.395 54.2759 166.359 54.1494 167.301 54.0717L167.36 54.7817C166.44 54.8577 165.498 54.9809 164.561 55.1484ZM172.983 54.9243C172.079 54.7939 171.136 54.7168 170.179 54.6946L170.196 53.9824C171.181 54.0052 172.154 54.0845 173.085 54.2193L172.983 54.9243Z" fill="#D84426"/>
<path d="M130.264 86.0511C129.915 86.0511 129.601 85.9801 129.329 85.8403L129.657 85.2069C129.824 85.2929 130.034 85.3383 130.264 85.3383C130.813 85.3383 131.411 85.0954 131.902 84.6711L132.37 85.2102C131.75 85.7444 130.982 86.0506 130.264 86.0506V86.0511ZM129.329 82.9915L128.624 82.8772C128.775 81.952 129.023 81.0052 129.361 80.0633L130.033 80.3035C129.71 81.2043 129.473 82.109 129.329 82.9915H129.329ZM133.738 82.4912L133.028 82.4163C133.044 82.2626 133.052 82.1034 133.052 81.9431C133.052 81.2742 132.911 80.5464 132.632 79.781L133.304 79.538C133.611 80.3817 133.767 81.191 133.767 81.9437C133.767 82.1289 133.757 82.3137 133.739 82.4917L133.738 82.4912ZM131.178 77.7519L130.548 77.4158C130.671 77.185 130.802 76.9537 130.937 76.7213C130.807 76.5416 130.67 76.3608 130.529 76.18C130.241 75.8105 129.944 75.4511 129.647 75.1105L130.186 74.6424C130.492 74.9924 130.797 75.3624 131.093 75.7423C131.176 75.8483 131.257 75.9542 131.336 76.0601C131.568 75.6907 131.812 75.3213 132.068 74.9547L132.654 75.3618C132.347 75.8022 132.057 76.246 131.787 76.6886C131.845 76.7724 131.901 76.855 131.955 76.9377L131.441 77.276C131.35 77.4352 131.263 77.5938 131.178 77.7519H131.178ZM134.382 73.1309L133.836 72.6699C134.443 71.9571 135.101 71.2438 135.794 70.5505L136.301 71.0536C135.621 71.7336 134.975 72.4325 134.381 73.1309H134.382ZM127.671 73.122C126.948 72.4885 126.194 71.9272 125.431 71.4552L125.808 70.85C126.605 71.3431 127.39 71.9277 128.143 72.5873L127.671 73.1225V73.122ZM122.937 70.2254C122.052 69.8959 121.148 69.6707 120.25 69.5554L120.341 68.8487C121.294 68.9707 122.251 69.2092 123.187 69.5576L122.937 70.2254ZM116.724 69.7168L116.508 69.0378C116.521 69.0334 116.84 68.9336 117.394 68.8537L117.497 69.5587C117.006 69.6297 116.726 69.7162 116.724 69.7173V69.7168ZM138.375 69.1244L137.908 68.5858C139.229 67.4442 140.143 66.8069 140.181 66.7803L140.59 67.3649C140.581 67.371 139.666 68.0095 138.376 69.1244H138.375Z" fill="#D84426"/>
<path d="M269.357 100.891C269.364 101.636 268.764 102.245 268.017 102.252C267.27 102.258 266.659 101.66 266.652 100.915C266.646 100.17 267.246 99.5609 267.993 99.5543C268.74 99.5476 269.351 100.146 269.357 100.891Z" fill="#2D2D2D"/>
<g opacity="0.88">
<path d="M271.878 94.5149C269.579 92.7865 266.382 92.8148 264.114 94.5831C263.759 94.8577 263.261 94.9076 262.966 94.6325C262.672 94.359 262.764 93.7877 263.218 93.4355C266.004 91.2633 269.932 91.229 272.756 93.3517C273.214 93.6962 273.317 94.2653 273.028 94.5443C272.738 94.8244 272.239 94.7834 271.879 94.5149H271.878Z" fill="#2D2D2D"/>
</g>
<path d="M270.588 96.6628C269.033 95.6172 266.978 95.6349 265.442 96.7077C265.078 96.9579 264.58 97.0106 264.283 96.7377C263.986 96.4681 264.101 95.8668 264.606 95.5151C266.634 94.0985 269.349 94.0746 271.401 95.4558C271.913 95.7991 272.038 96.3976 271.746 96.6728C271.454 96.9501 270.955 96.9068 270.587 96.6628H270.588Z" fill="#2D2D2D"/>
<path d="M269.189 98.8318C268.432 98.4547 267.533 98.4624 266.782 98.8529C266.401 99.0426 265.902 99.1003 265.599 98.8341C265.294 98.5734 265.469 97.895 266.108 97.5627C267.271 96.957 268.667 96.9448 269.841 97.53C270.486 97.8517 270.673 98.5262 270.372 98.7919C270.073 99.0631 269.574 99.0143 269.189 98.8313V98.8318Z" fill="#2D2D2D"/>
<path d="M107.213 68.0638C105.972 64.7442 107.659 61.0549 110.978 59.8203C114.303 58.5798 118.021 60.2789 119.262 63.5986C119.841 65.1438 119.784 66.7703 119.219 68.1917C118.524 69.9549 118.302 71.9671 118.964 73.7415L119.032 73.9185L114.161 75.7256L114.1 75.5656C113.433 73.781 111.941 72.3952 110.252 71.5081C108.897 70.7987 107.79 69.6057 107.211 68.0604L107.213 68.0638Z" fill="#D84426"/>
<path d="M114.203 76.132L119.256 74.2585C119.461 74.181 119.565 73.9541 119.491 73.7483C119.412 73.5439 119.185 73.439 118.979 73.5132L113.926 75.3866C113.721 75.4642 113.617 75.6911 113.691 75.8968C113.769 76.1012 113.997 76.2061 114.203 76.132Z" fill="black"/>
<path d="M114.721 76.6873C114.584 76.739 114.426 76.6509 114.366 76.4942C114.306 76.3375 114.37 76.1687 114.507 76.117L119.02 74.4441C119.078 74.4221 119.146 74.4274 119.208 74.4549C119.283 74.4887 119.344 74.5554 119.376 74.6406C119.436 74.7973 119.372 74.9661 119.239 75.0165L114.725 76.6894L114.721 76.6873Z" fill="white"/>
<path d="M114.471 76.0328L114.536 76.2031L119.05 74.5306C119.104 74.5099 119.151 74.5311 119.175 74.5416C119.223 74.5662 119.265 74.6129 119.283 74.6721C119.325 74.7812 119.289 74.9003 119.196 74.9352L114.683 76.6077C114.629 76.6284 114.581 76.6072 114.558 76.5967C114.509 76.5721 114.468 76.5254 114.449 76.4662C114.408 76.3572 114.448 76.2367 114.533 76.2044L114.468 76.0341L114.471 76.0328ZM114.471 76.0328C114.291 76.1013 114.203 76.3217 114.281 76.5261C114.359 76.7305 114.57 76.8418 114.752 76.7767L119.265 75.1042C119.449 75.0344 119.533 74.8153 119.455 74.6109C119.377 74.4065 119.167 74.2952 118.985 74.3603L114.471 76.0328Z" fill="black"/>
<path d="M115.029 77.5195L119.542 75.847C119.726 75.7772 119.814 75.5568 119.736 75.3524C119.658 75.148 119.447 75.0366 119.265 75.1017L114.752 76.7742C114.568 76.844 114.48 77.0644 114.558 77.2688C114.637 77.4733 114.847 77.5846 115.029 77.5195Z" fill="black"/>
<path d="M115.275 78.1785C115.139 78.2302 114.98 78.1421 114.92 77.9854C114.861 77.8287 114.925 77.66 115.058 77.6095L119.571 75.9367C119.708 75.8849 119.866 75.973 119.927 76.1331C119.987 76.2899 119.923 76.4586 119.786 76.5103L115.273 78.1832L115.275 78.1785Z" fill="white"/>
<path d="M115.026 77.5191L115.091 77.6895L119.604 76.017C119.693 75.9834 119.8 76.0482 119.841 76.1572C119.883 76.2662 119.843 76.3866 119.755 76.4202L115.241 78.0927C115.152 78.1263 115.046 78.0615 115.004 77.9525C114.963 77.8435 114.999 77.7244 115.088 77.6908L115.023 77.5204L115.026 77.5191ZM115.026 77.5191C114.845 77.5876 114.758 77.808 114.836 78.0124C114.914 78.2168 115.124 78.3282 115.31 78.2618L119.823 76.5893C120.004 76.5208 120.091 76.3004 120.017 76.0947C119.939 75.8903 119.728 75.7789 119.546 75.8441L115.033 77.5165L115.026 77.5191Z" fill="black"/>
<path d="M115.584 79.0073L120.097 77.3348C120.281 77.265 120.369 77.0446 120.291 76.8402C120.212 76.6358 120.002 76.5244 119.82 76.5895L115.307 78.262C115.123 78.3318 115.035 78.5522 115.113 78.7566C115.191 78.9611 115.402 79.0724 115.584 79.0073Z" fill="black"/>
<path d="M116.892 79.273C116.715 79.3402 116.524 79.3307 116.353 79.2512C116.211 79.1844 116.095 79.0761 116.023 78.9395L119.716 77.5704C119.794 77.9074 119.611 78.2574 119.281 78.3828L116.891 79.2695L116.892 79.273Z" fill="white"/>
<path d="M116.163 78.9877L119.644 77.6991C119.657 77.9591 119.503 78.2088 119.247 78.3057L116.861 79.191C116.708 79.2491 116.541 79.2421 116.394 79.1732C116.303 79.1296 116.225 79.0694 116.164 78.9911L116.163 78.9877ZM115.904 78.8911C116.056 79.3011 116.516 79.513 116.925 79.3579L119.311 78.4726L119.318 78.4701C119.727 78.3149 119.933 77.8625 119.78 77.4525L115.906 78.8864L115.904 78.8911Z" fill="black"/>
<path d="M110.226 58.0422C110.022 58.069 109.816 57.9484 109.74 57.7478L108.84 55.3401C108.75 55.1054 108.871 54.8414 109.11 54.751C109.346 54.6654 109.609 54.7836 109.7 55.0217L110.6 57.4294C110.69 57.664 110.568 57.9281 110.33 58.0184C110.296 58.0313 110.261 58.0408 110.226 58.0422Z" fill="#D84426"/>
<path d="M106.442 60.3581C106.326 60.3709 106.205 60.3424 106.106 60.267L104.021 58.6775C103.818 58.5245 103.783 58.238 103.936 58.0359C104.089 57.8339 104.376 57.7991 104.579 57.9521L106.664 59.5416C106.867 59.6946 106.902 59.9811 106.749 60.1831C106.672 60.2865 106.561 60.344 106.442 60.3581Z" fill="#D84426"/>
<path d="M104.889 64.5528C104.863 64.555 104.833 64.5585 104.805 64.5574L102.179 64.4031C101.928 64.3892 101.731 64.1713 101.748 63.9194C101.765 63.6675 101.98 63.4732 102.232 63.4906L104.858 63.6448C105.109 63.6588 105.306 63.8766 105.289 64.1285C105.277 64.3514 105.106 64.5289 104.89 64.5562L104.889 64.5528Z" fill="#D84426"/>
<path d="M103.818 70.8116C103.621 70.8358 103.42 70.7287 103.337 70.5338C103.238 70.3027 103.348 70.0307 103.581 69.9347L105.589 69.0918C105.821 68.9958 106.089 69.1047 106.189 69.3358C106.286 69.5682 106.177 69.8355 105.946 69.9349L103.938 70.7779C103.897 70.7934 103.86 70.8076 103.817 70.8082L103.818 70.8116Z" fill="#D84426"/>
<path d="M114.905 57.2206C114.857 57.2272 114.805 57.2236 114.755 57.2153C114.51 57.1643 114.35 56.9208 114.401 56.6757L114.936 54.1163C114.986 53.8678 115.231 53.7127 115.48 53.7624C115.725 53.8134 115.885 54.0568 115.834 54.3019L115.299 56.8613C115.256 57.0566 115.096 57.199 114.909 57.2193L114.905 57.2206Z" fill="#D84426"/>
<path d="M118.828 59.3829C118.69 59.4001 118.544 59.3542 118.44 59.2455C118.265 59.0625 118.267 58.7732 118.45 58.5986L120.337 56.7767C120.52 56.6022 120.81 56.6053 120.985 56.7883C121.161 56.9713 121.158 57.2606 120.975 57.4352L119.088 59.257C119.014 59.3281 118.921 59.371 118.828 59.3829Z" fill="#D84426"/>
<path d="M121.665 64.095C121.449 64.1223 121.24 63.9948 121.171 63.7832C121.092 63.5443 121.223 63.2842 121.466 63.2074L123.54 62.5381C123.781 62.4626 124.04 62.5903 124.118 62.8339C124.194 63.074 124.066 63.3328 123.823 63.4097L121.752 64.0776C121.725 64.088 121.695 64.0915 121.67 64.0971L121.665 64.095Z" fill="#D84426"/>
<path d="M226.387 79.43L227.029 78.5457L228.553 79.6822L227.911 80.5665C227.601 80.9923 227.01 81.0811 226.589 80.7669C226.167 80.4527 226.078 79.8526 226.387 79.4267L226.387 79.43Z" fill="white"/>
<path d="M227.301 81.0067C227.035 81.0485 226.77 80.9822 226.552 80.8202C226.107 80.4878 226.012 79.8493 226.336 79.3993L227.012 78.4675L228.631 79.6736L227.955 80.6054C227.81 80.8033 227.602 80.9414 227.368 80.993C227.343 80.9982 227.322 81.0008 227.298 81.006L227.301 81.0067ZM227.041 78.6289L226.435 79.4663C226.144 79.8655 226.23 80.4311 226.626 80.7232C226.817 80.8663 227.05 80.9228 227.284 80.8882C227.515 80.853 227.724 80.7253 227.864 80.5332L228.473 79.6964L227.044 78.6296L227.041 78.6289Z" fill="#101C3A"/>
<path d="M237.535 66.9924L236.437 68.5037L235.315 67.664L236.399 66.1702L237.535 66.9924Z" fill="white"/>
<path d="M235.231 67.6744L236.385 66.0895L237.619 66.9819L236.451 68.5877L235.231 67.6776L235.231 67.6744ZM236.41 66.2502L235.396 67.6496L236.427 68.4204L237.454 67.0068L236.409 66.2535L236.41 66.2502Z" fill="#101C3A"/>
<path d="M237.814 67.6032L237.477 68.0676C237.373 68.2096 237.174 68.2409 237.029 68.1342L235.485 66.9799C235.343 66.8738 235.313 66.6714 235.416 66.5294L235.754 66.065L237.814 67.6032Z" fill="white"/>
<path d="M237.275 68.2544C237.174 68.2682 237.074 68.2448 236.994 68.1849L235.45 67.0306C235.281 66.9057 235.245 66.668 235.367 66.4961L235.738 65.9842L237.89 67.5913L237.519 68.1033C237.464 68.1769 237.385 68.229 237.297 68.2486C237.286 68.2499 237.279 68.2518 237.272 68.2538L237.275 68.2544ZM235.766 66.1489L235.465 66.5664C235.38 66.6849 235.407 66.8529 235.523 66.9368L237.067 68.0911C237.123 68.1328 237.191 68.1496 237.261 68.1398C237.327 68.1294 237.389 68.091 237.431 68.0349L237.736 67.6181L235.77 66.1495L235.766 66.1489Z" fill="#101C3A"/>
<path d="M236.637 67.0406C240.055 69.594 244.864 68.8626 247.372 65.4042C249.882 61.9464 249.142 57.0724 245.723 54.5191C242.301 51.9651 237.495 52.6972 234.985 56.1549C232.474 59.6127 233.212 64.486 236.633 67.04L236.637 67.0406ZM237.341 66.0704C234.45 63.91 233.825 59.7937 235.946 56.8712C238.067 53.9487 242.128 53.329 245.019 55.4894C247.91 57.6498 248.535 61.7661 246.414 64.6886C244.293 67.6111 240.231 68.2308 237.341 66.0704Z" fill="white"/>
<path d="M242.356 68.5326C240.314 68.8434 238.27 68.3315 236.603 67.085C233.163 64.5174 232.418 59.5985 234.94 56.1193C236.164 54.4334 237.962 53.3356 240.005 53.0216C242.048 52.7107 244.094 53.2266 245.759 54.4691C249.198 57.0367 249.943 61.9589 247.422 65.4349C246.306 66.9697 244.711 68.0198 242.889 68.4288C242.715 68.4686 242.536 68.5006 242.357 68.5293L242.356 68.5326ZM235.034 56.1889C232.547 59.6141 233.283 64.4601 236.672 66.9939C238.313 68.2214 240.327 68.7276 242.338 68.4206C244.349 68.1137 246.12 67.031 247.326 65.3718C249.813 61.9466 249.078 57.0973 245.688 54.5668C244.047 53.3392 242.037 52.8338 240.022 53.14C239.847 53.1661 239.671 53.1988 239.497 53.2386C237.703 53.643 236.132 54.6775 235.031 56.1882L235.034 56.1889ZM242.176 67.3421C240.444 67.6066 238.715 67.1706 237.303 66.1174C234.391 63.9427 233.762 59.7782 235.897 56.8349C236.931 55.4088 238.454 54.4798 240.185 54.2153C241.916 53.9541 243.643 54.3862 245.055 55.4394C247.967 57.6141 248.596 61.7786 246.46 64.7219C245.516 66.0236 244.168 66.9128 242.623 67.2585C242.474 67.2931 242.326 67.3212 242.172 67.3414L242.176 67.3421ZM235.992 56.9045C233.894 59.7977 234.514 63.886 237.373 66.023C238.758 67.0573 240.458 67.4842 242.155 67.2262C243.855 66.9657 245.347 66.0543 246.362 64.6516C248.461 61.7584 247.843 57.6708 244.982 55.5331C243.597 54.4988 241.896 54.0719 240.199 54.3299C240.049 54.354 239.905 54.3795 239.755 54.4141C238.242 54.7559 236.914 55.6256 235.989 56.9038L235.992 56.9045Z" fill="#101C3A"/>
<path d="M236.725 69.3383L229.155 79.6633C228.695 80.2991 227.806 80.4334 227.175 79.9623C226.545 79.4913 226.41 78.5947 226.871 77.9556L234.441 67.6306C234.606 67.4028 234.921 67.3539 235.147 67.5244L236.615 68.6225C236.839 68.7891 236.886 69.1098 236.722 69.3376L236.725 69.3383Z" fill="#101C3A"/>
<path d="M242.183 67.3684C240.444 67.6343 238.707 67.1966 237.292 66.1393C234.367 63.955 233.733 59.7768 235.877 56.823C236.915 55.3917 238.442 54.4575 240.181 54.1949C241.916 53.9284 243.656 54.3667 245.071 55.4241C247.996 57.6083 248.63 61.7865 246.486 64.7403C245.538 66.0473 244.182 66.9379 242.633 67.2857C242.484 67.3202 242.333 67.3476 242.182 67.3717L242.183 67.3684ZM236.005 56.9128C233.912 59.7957 234.532 63.8762 237.386 66.0091C238.769 67.0397 240.463 67.469 242.157 67.211C243.85 66.9529 245.342 66.0422 246.356 64.6466C248.449 61.7605 247.828 57.6832 244.975 55.5503C243.592 54.5197 241.897 54.0904 240.201 54.3478C240.053 54.3726 239.906 54.3973 239.76 54.4325C238.25 54.7712 236.926 55.6409 236.001 56.9154L236.005 56.9128Z" fill="#101C3A"/>
<g opacity="0.2">
<path d="M235.945 56.8675C233.824 59.7933 234.447 63.9161 237.338 66.0765C240.232 68.2376 244.297 67.6185 246.422 64.6934C248.544 61.7677 247.92 57.6448 245.025 55.487C242.134 53.3266 238.067 53.945 235.945 56.8708L235.945 56.8675Z" fill="#EEF1FF"/>
</g>
<path d="M186.841 161.001H119.94C115.961 161.001 112.734 157.784 112.734 153.816V101.697C112.734 98.3053 115.494 95.5537 118.895 95.5537H187.89C191.291 95.5537 194.051 98.3053 194.051 101.697V153.816C194.051 157.784 190.824 161.001 186.845 161.001H186.841Z" fill="white"/>
<path d="M186.839 161.385H119.938C115.753 161.385 112.348 157.989 112.348 153.816V101.697C112.348 98.0997 115.286 95.1699 118.893 95.1699H187.889C191.496 95.1699 194.434 98.0952 194.434 101.697V153.816C194.434 157.989 191.028 161.385 186.844 161.385H186.839ZM118.888 95.9378C115.703 95.9378 113.113 98.5202 113.113 101.697V153.816C113.113 157.569 116.175 160.618 119.933 160.618H186.834C190.597 160.618 193.655 157.564 193.655 153.816V101.697C193.655 98.5202 191.065 95.9378 187.879 95.9378H118.884H118.888Z" fill="#CFE0FA"/>
<path d="M181.488 97.647C181.181 97.647 180.934 97.8938 180.934 98.2C180.934 98.5063 181.181 98.7531 181.488 98.7531C181.795 98.7531 182.043 98.5063 182.043 98.2C182.043 97.8938 181.795 97.647 181.488 97.647Z" fill="#252525"/>
<path d="M183.84 97.647C183.533 97.647 183.285 97.8938 183.285 98.2C183.285 98.5063 183.533 98.7531 183.84 98.7531C184.147 98.7531 184.394 98.5063 184.394 98.2C184.394 97.8938 184.147 97.647 183.84 97.647Z" fill="#D84426"/>
<path d="M186.187 97.647C185.88 97.647 185.633 97.8938 185.633 98.2C185.633 98.5063 185.88 98.7531 186.187 98.7531C186.495 98.7531 186.742 98.5063 186.742 98.2C186.742 97.8938 186.495 97.647 186.187 97.647Z" fill="#797979"/>
<path d="M194.044 101.692H133.844V102.46H194.044V101.692Z" fill="#CFE0FA"/>
<path d="M128.154 155.539L128.131 154.378H119.129L119.156 155.539H128.154Z" fill="#101C3A"/>
<path d="M134.528 152.047L134.505 150.882H119.008L119.031 152.047H134.528Z" fill="#101C3A"/>
<path d="M131.93 148.551L131.907 147.385H118.844L118.867 148.551H131.93Z" fill="#797979"/>
<path d="M130.523 155.539L130.5 154.378H128.727L128.754 155.539H130.523Z" fill="#101C3A"/>
<path d="M145.017 155.539L144.994 154.378H135.992L136.02 155.539H145.017Z" fill="#101C3A"/>
<path d="M151.391 152.047L151.368 150.882H135.871L135.894 152.047H151.391Z" fill="#101C3A"/>
<path d="M148.793 148.551L148.77 147.385H135.707L135.735 148.551H148.793Z" fill="#101C3A"/>
<path d="M147.387 155.539L147.364 154.378H145.59L145.617 155.539H147.387Z" fill="#101C3A"/>
<path d="M128.072 145.182L128.044 144.021H119.047L119.07 145.182H128.072Z" fill="#101C3A"/>
<path d="M130.441 145.182L130.414 144.021H128.645L128.672 145.182H130.441Z" fill="#101C3A"/>
<path d="M144.931 145.182L144.904 144.021H135.906L135.934 145.182H144.931Z" fill="#D84426"/>
<path d="M147.305 145.182L147.277 144.021H145.508L145.535 145.182H147.305Z" fill="#101C3A"/>
<path d="M165.423 141.818L165.4 140.657H156.402L156.425 141.818H165.423Z" fill="#101C3A"/>
<path d="M171.802 138.322L171.774 137.161H156.277L156.3 138.322H171.802Z" fill="#101C3A"/>
<path d="M169.199 134.825L169.176 133.664H156.113L156.141 134.825H169.199Z" fill="#101C3A"/>
<path d="M167.792 141.818L167.769 140.657H166L166.023 141.818H167.792Z" fill="#101C3A"/>
<path d="M182.286 141.818L182.263 140.657H173.266L173.289 141.818H182.286Z" fill="#101C3A"/>
<path d="M188.665 138.322L188.637 137.161H173.141L173.164 138.322H188.665Z" fill="#101C3A"/>
<path d="M186.063 134.825L186.04 133.664H172.977L173.004 134.825H186.063Z" fill="#101C3A"/>
<path d="M184.655 141.818L184.633 140.657H182.863L182.886 141.818H184.655Z" fill="#101C3A"/>
<path d="M165.337 131.456L165.315 130.295H156.312L156.34 131.456H165.337Z" fill="#101C3A"/>
<path d="M171.72 127.965L171.692 126.799H156.195L156.218 127.965H171.72Z" fill="#101C3A"/>
<path d="M169.117 124.468L169.094 123.307H156.031L156.059 124.468H169.117Z" fill="#101C3A"/>
<path d="M167.71 131.456L167.687 130.295H165.918L165.941 131.456H167.71Z" fill="#101C3A"/>
<path d="M182.2 131.456L182.177 130.295H173.18L173.203 131.456H182.2Z" fill="#101C3A"/>
<path d="M188.583 127.965L188.555 126.799H173.059L173.082 127.965H188.583Z" fill="#D84426"/>
<path d="M185.977 124.468L185.954 123.307H172.891L172.918 124.468H185.977Z" fill="white"/>
<path d="M184.57 131.456L184.547 130.295H182.777L182.8 131.456H184.57Z" fill="#101C3A"/>
<path d="M165.255 121.099L165.232 119.938H156.23L156.258 121.099H165.255Z" fill="#101C3A"/>
<path d="M171.638 117.603L171.61 116.442H156.113L156.136 117.603H171.638Z" fill="#101C3A"/>
<path d="M169.031 114.106L169.008 112.945H155.945L155.973 114.106H169.031Z" fill="#101C3A"/>
<path d="M167.625 121.099L167.602 119.938H165.828L165.856 121.099H167.625Z" fill="#101C3A"/>
<path d="M182.119 121.099L182.096 119.938H173.094L173.121 121.099H182.119Z" fill="#101C3A"/>
<path d="M188.501 117.603L188.473 116.442H172.977L172.999 117.603H188.501Z" fill="#101C3A"/>
<path d="M185.895 114.106L185.872 112.945H172.809L172.836 114.106H185.895Z" fill="#101C3A"/>
<path d="M184.488 121.099L184.465 119.938H182.691L182.719 121.099H184.488Z" fill="#101C3A"/>
<path d="M169.199 155.608L169.176 154.442H156.113L156.141 155.608H169.199Z" fill="#101C3A"/>
<path d="M186.063 155.608L186.04 154.442H172.977L173.004 155.608H186.063Z" fill="#101C3A"/>
<path d="M165.337 152.239L165.315 151.074H156.312L156.34 152.239H165.337Z" fill="#101C3A"/>
<path d="M171.72 148.743L171.692 147.582H156.195L156.218 148.743H171.72Z" fill="#101C3A"/>
<path d="M169.117 145.246L169.094 144.085H156.031L156.059 145.246H169.117Z" fill="#797979"/>
<path d="M167.71 152.239L167.687 151.074H165.918L165.941 152.239H167.71Z" fill="#101C3A"/>
<path d="M182.2 152.239L182.177 151.074H173.18L173.203 152.239H182.2Z" fill="#101C3A"/>
<path d="M188.583 148.743L188.555 147.582H173.059L173.082 148.743H188.583Z" fill="#D84426"/>
<path d="M185.977 145.246L185.954 144.085H172.891L172.918 145.246H185.977Z" fill="white"/>
<path d="M184.57 152.239L184.547 151.074H182.777L182.8 152.239H184.57Z" fill="#101C3A"/>
<path d="M165.173 110.738L165.146 109.577H156.148L156.176 110.738H165.173Z" fill="#101C3A"/>
<path d="M167.543 110.738L167.515 109.577H165.746L165.774 110.738H167.543Z" fill="#101C3A"/>
<path d="M182.037 110.738L182.009 109.577H173.012L173.039 110.738H182.037Z" fill="#101C3A"/>
<path d="M184.406 110.738L184.383 109.577H182.609L182.637 110.738H184.406Z" fill="#101C3A"/>
<path d="M146.715 110.663H135.43V111.642H146.715V110.663Z" fill="black"/>
<path d="M142.775 116.535H135.906V117.513H142.775V116.535Z" fill="#101C3A"/>
<path d="M139.831 118.492H135.906V119.47H139.831V118.492Z" fill="#101C3A"/>
<path d="M142.775 120.938H135.906V121.917H142.775V120.938Z" fill="#101C3A"/>
<path d="M139.831 122.896H135.906V123.874H139.831V122.896Z" fill="#101C3A"/>
<path d="M142.775 125.341H135.906V126.32H142.775V125.341Z" fill="#101C3A"/>
<path d="M139.831 127.299H135.906V128.278H139.831V127.299Z" fill="#101C3A"/>
<path d="M144.752 112.62H135.43V113.599H144.752V112.62Z" fill="#D84426"/>
<path d="M130.039 112.403H123.496V118.927H130.039V112.403Z" fill="#D84426"/>
<path d="M126.195 117.662L124.621 116.092L125.315 115.401L126.195 116.278L128.791 113.688L129.486 114.38L126.195 117.662Z" fill="white"/>
<path d="M119.025 212.033H273.188V213.2H119.025V212.033Z" fill="#131313"/>
<mask id="mask5_2123_7778" style="mask-type:luminance" maskUnits="userSpaceOnUse" x="123" y="79" width="146" height="134">
<path d="M268.495 79.7188H123.719V212.033H268.495V79.7188Z" fill="white"/>
</mask>
<g mask="url(#mask5_2123_7778)">
<path d="M232.262 182.066C232.184 183.389 239.184 184.891 247.904 185.411C256.623 185.936 259.759 184.763 259.838 183.439C259.916 182.116 256.909 181.133 248.195 180.614C239.481 180.094 232.346 180.742 232.268 182.066H232.262Z" fill="#101C3A"/>
<path d="M237.735 223.252C235.136 223.816 230.953 224.006 230.953 224.006C230.953 224.006 237.449 189.186 238.687 179.318C239.085 176.163 253.796 169.786 254.939 183.205C255.84 193.788 239.37 211.077 239.068 219.834C239.012 221.504 238.228 223.146 237.735 223.252Z" fill="#FFBCB0"/>
<path d="M220.973 137.731C224.641 135.022 233.461 134.313 240.081 141.45C246.7 148.587 254.865 161.253 259.827 183.311C259.827 183.311 245.933 177.431 232.268 182.15C232.268 182.15 220.536 166.078 217.792 157.304C215.048 148.531 216.924 140.718 220.967 137.731H220.973Z" fill="#2D2D2D"/>
<path d="M246.211 215.914C247.684 222.084 248.39 263.041 245.181 269.57C242.896 274.222 217.146 285.759 214.761 272.792C212.666 261.405 206.444 223.363 206.982 216.589C207.503 210.05 241.787 197.367 246.211 215.914Z" fill="#D84426"/>
<path d="M205.971 203.103C206.262 198.753 221.427 191.509 232.936 192.559L236.257 232.885C235.265 234.047 232.051 238.866 231.452 240.179C226.887 250.169 222.738 257.122 212.428 259.881C209.555 240.089 205.624 208.28 205.971 203.097V203.103Z" fill="#101C3A"/>
<path d="M234.451 210.72C233.51 216.997 213.478 268.676 208.063 273.546C204.205 277.014 189.941 277.84 182.689 266.822C175.431 255.804 194.763 202.863 197.798 196.776C200.727 190.901 237.279 191.867 234.457 210.715L234.451 210.72Z" fill="#D84426"/>
<path d="M199.44 135.692C190.424 141.176 186.924 154.702 186.274 177.939C185.625 201.182 181.464 216.316 184.023 222.341C184.023 222.341 210.932 246.779 250.122 231.187C250.122 231.187 248.929 224.536 246.258 195.731C243.592 166.921 243.66 159.108 239.818 147.866C235.976 136.625 217.725 126.371 212.797 129.074C207.852 131.788 206.402 131.453 199.44 135.686V135.692Z" fill="#2D2D2D"/>
<path d="M183.189 148.527C183.189 148.527 177.163 152.028 172.268 155.072C171.255 153.804 170.202 152.525 169.154 151.257C166.31 147.376 157.82 134.47 157.769 134.42C155.826 130.131 159.052 128.992 158.464 127.211C158.072 126.021 154.465 120.688 152.947 119.705C152.936 119.688 152.919 119.671 152.903 119.655C150.971 117.957 145.387 115.165 143.584 114.003C142.789 113.495 142.862 114.64 143.948 116.159C145.264 117.991 147.762 120.012 149.47 121.095C148.932 121.838 148.434 122.665 147.258 123.43C145.846 124.351 146.076 126.077 145.337 127.428C144.598 128.774 145.846 130.695 147.549 132.125C149.251 133.555 151.519 133.56 151.783 137.458C151.783 137.458 158.464 165.95 161.93 172.864C164.153 177.298 167.01 178.8 169.754 178.527C176.698 178.566 187.987 173.336 196.768 166.713C206.076 159.699 195.918 142.155 183.189 148.515V148.527Z" fill="#FFBCB0"/>
<path d="M211.509 139.104C213.945 142.003 215.726 146.297 210.529 153.886C205.332 161.476 190.94 171.612 178.502 177.168C178.502 177.168 165.552 163.315 169.988 149.409C169.988 149.409 188.879 138.825 196.036 136.116C203.199 133.408 208.821 135.904 211.504 139.099L211.509 139.104Z" fill="#2D2D2D"/>
<path d="M184.285 163.693C184.358 163.737 191.907 168.105 199.126 161.744L198.75 161.319C191.851 167.401 184.649 163.246 184.576 163.207L184.285 163.693Z" fill="white"/>
<path d="M172.26 170.562C175.066 174.728 178.062 177.459 178.101 177.493L178.207 177.587L178.347 177.554C178.527 177.515 196.358 173.488 206.365 162.347L205.945 161.973C196.526 172.45 180.078 176.565 178.37 176.973C177.575 176.225 172.54 171.344 169.79 164.933L169.27 165.156C170.115 167.128 171.168 168.954 172.254 170.562H172.26Z" fill="white"/>
<path d="M224.803 209.815C231.669 209.815 235.919 206.068 235.987 206.007L235.606 205.588C235.511 205.672 226.057 213.976 212.538 205.27L212.23 205.744C216.979 208.799 221.241 209.81 224.803 209.81V209.815Z" fill="white"/>
<path d="M208.599 128.678C208.599 128.678 210.582 126.562 212.872 122.396L208.958 123.356L208.594 128.678H208.599Z" fill="#101C3A"/>
<path d="M201.965 112.343C202.525 107.903 202.324 101.118 207.565 102.051C208.904 102.291 215.12 102.944 216.498 103.614C219.768 105.223 218.598 110.238 219.466 114.783C219.718 116.135 219.6 118.754 219.091 119.944L220.424 119.815L220.754 130.677C220.754 130.677 213.653 135.452 208.428 131.358L208.826 125.539C207.61 125.835 206.602 125.964 206.053 125.846C202.24 125.053 201.349 117.319 201.976 112.343H201.965Z" fill="#FFBCB0"/>
<path d="M204.131 104.436C204.607 104.665 206.085 105.273 206.085 105.273C206.085 105.273 206.388 109.032 206.92 110.445C207.452 111.857 205.503 116.733 202.887 117.14C200.272 117.554 201.846 120.374 202.047 121.58C202.333 123.306 200.687 125.082 203.912 126.316C206.063 127.137 211.54 126.053 210.201 122.596C208.863 119.14 206.533 114.812 209.053 111.115C211.573 107.418 208.527 115.7 213.147 118.816C214.43 119.676 215.443 120.396 216.25 120.977C217.526 121.904 219.206 121.837 220.539 120.983C220.685 120.888 220.847 120.809 221.015 120.754C222.365 120.312 226.302 115.8 226.588 109.853C226.873 103.905 224.213 101.822 218.949 100.644C213.685 99.4598 215.628 97.2874 212.346 96.5893C209.065 95.8913 204.976 91.8369 204.976 91.8369C204.976 91.8369 199.763 102.319 204.142 104.441L204.131 104.436Z" fill="#101C3A"/>
<path d="M214.492 114.538C213.529 116.426 211.429 117.286 209.81 116.465C208.192 115.638 207.654 113.444 208.623 111.556C209.586 109.668 211.681 108.808 213.305 109.629C214.923 110.456 215.461 112.651 214.492 114.538Z" fill="#FFBCB0"/>
<path d="M209.625 115.057C209.704 115.147 209.793 115.225 209.894 115.281C210.107 115.398 210.353 115.404 210.6 115.303C211.126 115.085 211.16 114.678 211.182 114.348C211.205 114.03 211.227 113.728 211.625 113.399C211.938 113.136 212.274 113.041 212.577 112.958C213.092 112.812 213.674 112.65 213.557 111.64C213.517 111.31 213.366 111.036 213.103 110.83C212.347 110.238 210.897 110.417 210.835 110.422L210.908 110.981C211.261 110.936 212.285 110.902 212.756 111.271C212.896 111.383 212.98 111.522 212.997 111.701C213.058 112.237 212.924 112.271 212.425 112.416C212.089 112.511 211.675 112.628 211.266 112.963C210.689 113.443 210.65 113.94 210.622 114.303C210.6 114.616 210.583 114.7 210.387 114.778C210.275 114.823 210.213 114.806 210.169 114.778C209.95 114.661 209.805 114.208 209.765 114.002L209.211 114.108C209.222 114.181 209.329 114.7 209.631 115.052L209.625 115.057Z" fill="#101C3A"/>
<path d="M244.195 175.052L244.671 175.041C244.369 160.03 239.833 147.247 239.788 147.118L239.34 147.28C239.385 147.409 243.893 160.119 244.195 175.052Z" fill="white"/>
</g>
</svg>
