<svg width="371" height="265" viewBox="0 0 371 265" fill="none" xmlns="http://www.w3.org/2000/svg">
<g clip-path="url(#clip0_2123_8036)">
<path d="M81.1089 219.332C78.3416 210.013 73.8754 190.195 80.0349 166.848C82.4612 157.649 90.2857 127.992 118.225 113.606C121.476 111.93 144.102 100.707 169.468 108.681C203.141 119.266 199.112 150.313 233.143 161.519C255.122 168.758 270.311 160.253 282.505 173.831C287.363 179.24 292.25 188.713 291.926 199.964C291.665 209.073 288.091 215.827 286.09 219.036C217.761 219.133 149.438 219.23 81.1089 219.332Z" fill="white"/>
<path d="M243.34 58.583H147.021C144.548 58.583 142.543 60.5939 142.543 63.0745V136.078C142.543 138.559 144.548 140.57 147.021 140.57H243.34C245.813 140.57 247.818 138.559 247.818 136.078V63.0745C247.818 60.5939 245.813 58.583 243.34 58.583Z" fill="white"/>
<path d="M243.342 58.9146C245.632 58.9146 247.49 60.7785 247.49 63.0755V136.085C247.49 138.382 245.632 140.246 243.342 140.246H147.022C144.732 140.246 142.874 138.382 142.874 136.085V63.0755C142.874 60.7785 144.732 58.9146 147.022 58.9146H243.342ZM243.342 58.2534H147.022C144.374 58.2534 142.215 60.4137 142.215 63.0755V136.085C142.215 138.741 144.368 140.907 147.022 140.907H243.342C245.99 140.907 248.149 138.747 248.149 136.085V63.0755C248.149 60.4194 245.996 58.2534 243.342 58.2534Z" fill="#231F20"/>
<path d="M235.434 50.647H139.114C136.641 50.647 134.637 52.6579 134.637 55.1385V128.142C134.637 130.623 136.641 132.634 139.114 132.634H235.434C237.907 132.634 239.912 130.623 239.912 128.142V55.1385C239.912 52.6579 237.907 50.647 235.434 50.647Z" fill="white"/>
<path d="M235.434 50.9786C237.723 50.9786 239.582 52.8424 239.582 55.1395V128.149C239.582 130.446 237.723 132.31 235.434 132.31H139.108C136.818 132.31 134.96 130.446 134.96 128.149V55.1395C134.96 52.8424 136.818 50.9786 139.108 50.9786H235.428M235.434 50.3174H139.108C136.46 50.3174 134.301 52.4776 134.301 55.1395V128.149C134.301 130.805 136.454 132.971 139.108 132.971H235.428C238.076 132.971 240.235 130.811 240.235 128.149V55.1395C240.235 52.4833 238.081 50.3174 235.428 50.3174H235.434Z" fill="#231F20"/>
<path d="M204.635 57.6296C200.976 57.6296 198.004 54.6429 198.004 50.9779C198.004 47.3129 200.981 44.3262 204.635 44.3262H216.051C219.71 44.3262 222.682 47.3129 222.682 50.9779C222.682 54.6429 219.704 57.6296 216.051 57.6296H204.635Z" fill="white"/>
<path d="M216.052 44.6578C219.535 44.6578 222.354 47.4906 222.354 50.9789C222.354 54.4729 219.53 57.3 216.052 57.3H204.637C201.153 57.3 198.335 54.4672 198.335 50.9789C198.335 47.4849 201.159 44.6578 204.637 44.6578H216.052ZM216.052 43.9966H204.637C200.795 43.9966 197.676 47.1315 197.676 50.9789C197.676 54.8263 200.801 57.9612 204.637 57.9612H216.052C219.893 57.9612 223.013 54.8263 223.013 50.9789C223.013 47.1315 219.888 43.9966 216.052 43.9966Z" fill="#231F20"/>
<path d="M158.491 57.6296C154.831 57.6296 151.859 54.6429 151.859 50.9779C151.859 47.3129 154.837 44.3262 158.491 44.3262H169.906C173.566 44.3262 176.537 47.3129 176.537 50.9779C176.537 54.6429 173.56 57.6296 169.906 57.6296H158.491Z" fill="white"/>
<path d="M169.908 44.6578C173.391 44.6578 176.209 47.4906 176.209 50.9789C176.209 54.4729 173.385 57.3 169.908 57.3H158.492C155.009 57.3 152.19 54.4672 152.19 50.9789C152.19 47.4849 155.014 44.6578 158.492 44.6578H169.908ZM169.908 43.9966H158.492C154.651 43.9966 151.531 47.1315 151.531 50.9789C151.531 54.8263 154.656 57.9612 158.492 57.9612H169.908C173.749 57.9612 176.868 54.8263 176.868 50.9789C176.868 47.1315 173.743 43.9966 169.908 43.9966Z" fill="#231F20"/>
<path d="M154.27 107.814H147.457C146.726 107.814 146.133 108.409 146.133 109.142V115.976C146.133 116.71 146.726 117.304 147.457 117.304H154.27C155.001 117.304 155.594 116.71 155.594 115.976V109.142C155.594 108.409 155.001 107.814 154.27 107.814Z" fill="#FF5225"/>
<path d="M196.416 114.426H167.84C167.225 114.426 166.727 114.926 166.727 115.543V115.896C166.727 116.513 167.225 117.014 167.84 117.014H196.416C197.031 117.014 197.53 116.513 197.53 115.896V115.543C197.53 114.926 197.031 114.426 196.416 114.426Z" fill="#231F20"/>
<path d="M205.746 107.814H166.942C166.327 107.814 165.828 108.314 165.828 108.931V109.285C165.828 109.902 166.327 110.402 166.942 110.402H205.746C206.361 110.402 206.86 109.902 206.86 109.285V108.931C206.86 108.314 206.361 107.814 205.746 107.814Z" fill="#231F20"/>
<path d="M154.27 87.9731H147.457C146.726 87.9731 146.133 88.5677 146.133 89.3012V96.1353C146.133 96.8688 146.726 97.4634 147.457 97.4634H154.27C155.001 97.4634 155.594 96.8688 155.594 96.1353V89.3012C155.594 88.5677 155.001 87.9731 154.27 87.9731Z" fill="#FF5225"/>
<path d="M196.416 94.5908H167.84C167.225 94.5908 166.727 95.091 166.727 95.708V96.0614C166.727 96.6784 167.225 97.1786 167.84 97.1786H196.416C197.031 97.1786 197.53 96.6784 197.53 96.0614V95.708C197.53 95.091 197.031 94.5908 196.416 94.5908Z" fill="#231F20"/>
<path d="M226.316 87.9731H166.942C166.327 87.9731 165.828 88.4733 165.828 89.0903V89.4437C165.828 90.0607 166.327 90.5609 166.942 90.5609H226.316C226.931 90.5609 227.429 90.0607 227.429 89.4437V89.0903C227.429 88.4733 226.931 87.9731 226.316 87.9731Z" fill="#231F20"/>
<path d="M154.27 68.1387H147.457C146.726 68.1387 146.133 68.7333 146.133 69.4667V76.3009C146.133 77.0343 146.726 77.6289 147.457 77.6289H154.27C155.001 77.6289 155.594 77.0343 155.594 76.3009V69.4667C155.594 68.7333 155.001 68.1387 154.27 68.1387Z" fill="#FF5225"/>
<path d="M196.416 74.7505H167.84C167.225 74.7505 166.727 75.2507 166.727 75.8677V76.221C166.727 76.838 167.225 77.3382 167.84 77.3382H196.416C197.031 77.3382 197.53 76.838 197.53 76.221V75.8677C197.53 75.2507 197.031 74.7505 196.416 74.7505Z" fill="#231F20"/>
<path d="M226.316 68.1387H166.942C166.327 68.1387 165.828 68.6388 165.828 69.2558V69.6092C165.828 70.2262 166.327 70.7264 166.942 70.7264H226.316C226.931 70.7264 227.429 70.2262 227.429 69.6092V69.2558C227.429 68.6388 226.931 68.1387 226.316 68.1387Z" fill="#231F20"/>
<path d="M237.855 160.342C221.086 160.342 207.438 146.656 207.438 129.83C207.438 113.004 221.081 99.3247 237.855 99.3247C254.629 99.3247 268.266 113.01 268.266 129.83C268.266 146.651 254.623 160.342 237.855 160.342Z" fill="white"/>
<path d="M237.856 99.6563C254.471 99.6563 267.944 113.165 267.944 129.837C267.944 146.509 254.477 160.018 237.856 160.018C221.235 160.018 207.769 146.509 207.769 129.837C207.769 113.165 221.235 99.6563 237.856 99.6563ZM237.856 98.9951C220.906 98.9951 207.109 112.829 207.109 129.837C207.109 146.845 220.9 160.679 237.856 160.679C254.812 160.679 268.603 146.845 268.603 129.837C268.603 112.829 254.812 98.9951 237.856 98.9951Z" fill="#231F20"/>
<path d="M238.084 109.107H237.635C236.872 109.107 236.254 109.728 236.254 110.492V128.447C236.254 129.212 236.872 129.832 237.635 129.832H238.084C238.846 129.832 239.464 129.212 239.464 128.447V110.492C239.464 109.728 238.846 109.107 238.084 109.107Z" fill="#231F20"/>
<path d="M249.269 141.296L249.586 140.977C250.125 140.437 250.125 139.56 249.586 139.019L240.26 129.664C239.721 129.123 238.847 129.123 238.308 129.664L237.99 129.982C237.451 130.523 237.451 131.4 237.99 131.941L247.316 141.296C247.855 141.837 248.729 141.837 249.269 141.296Z" fill="#FF5225"/>
<path d="M211.613 129.976V129.73C211.613 129.305 211.27 128.961 210.846 128.961H209.482C209.059 128.961 208.715 129.305 208.715 129.73V129.976C208.715 130.4 209.059 130.745 209.482 130.745H210.846C211.27 130.745 211.613 130.4 211.613 129.976Z" fill="#231F20"/>
<path d="M266.992 129.976V129.73C266.992 129.305 266.649 128.961 266.225 128.961H264.861C264.438 128.961 264.094 129.305 264.094 129.73V129.976C264.094 130.4 264.438 130.745 264.861 130.745H266.225C266.649 130.745 266.992 130.4 266.992 129.976Z" fill="#231F20"/>
<path d="M237.98 156.174H237.736C237.312 156.174 236.969 156.518 236.969 156.943V158.311C236.969 158.736 237.312 159.081 237.736 159.081H237.98C238.404 159.081 238.747 158.736 238.747 158.311V156.943C238.747 156.518 238.404 156.174 237.98 156.174Z" fill="#231F20"/>
<path d="M237.98 100.624H237.736C237.312 100.624 236.969 100.968 236.969 101.393V102.761C236.969 103.186 237.312 103.53 237.736 103.53H237.98C238.404 103.53 238.747 103.186 238.747 102.761V101.393C238.747 100.968 238.404 100.624 237.98 100.624Z" fill="#231F20"/>
<path d="M237.855 133.052C239.628 133.052 241.065 131.61 241.065 129.832C241.065 128.053 239.628 126.611 237.855 126.611C236.082 126.611 234.645 128.053 234.645 129.832C234.645 131.61 236.082 133.052 237.855 133.052Z" fill="#231F20"/>
<path d="M297 218.666H75V219.999H297V218.666Z" fill="#231F20"/>
<path d="M261.93 199.94C262.288 200.094 262.896 200.39 263.578 200.863C265.64 202.294 265.907 203.651 267.822 204.534C268.129 204.677 268.8 204.956 269.692 205.059C271.101 205.224 272.249 204.853 272.862 204.603C272.862 204.603 274.539 200.493 266.947 198.635L266.68 199.889C266.475 199.552 266.277 199.222 266.072 198.886C265.686 198.789 265.112 198.697 264.43 198.777C263.14 198.937 262.276 199.621 261.93 199.934V199.94Z" fill="#FF5225"/>
<path d="M264.384 185.72C265.049 187.687 266.009 188.832 266.782 189.516C267.952 190.559 268.748 190.611 270.492 192.144C271.424 192.965 272.044 193.517 272.515 194.452C273.265 195.946 273.152 197.439 273.021 198.243C273.021 198.243 269.737 198.06 266.714 195.626L267.481 194.167L266.094 194.994C266.094 194.994 263.14 191.015 264.384 185.714V185.72Z" fill="#FF5225"/>
<path d="M274.97 192.104C269.27 190.856 267.151 184.939 267.151 184.939C267.315 184.626 269.838 183.873 269.838 183.873L266.52 183.406C266.52 183.406 265.901 182.488 266.242 180.476C266.582 178.47 265.219 175.683 265.219 175.683C267.622 176.23 269.418 177.108 270.566 177.78C272.327 178.812 274.998 180.374 276.089 183.406C276.311 184.027 276.418 184.563 276.47 184.928L275.333 186.524L276.572 185.925C276.72 189.328 274.981 192.104 274.981 192.104H274.97Z" fill="#FF5225"/>
<path d="M280.009 195.278C280.009 195.278 275.117 186.124 287.76 182.716C287.76 182.716 286.362 184.278 286.595 187.327C286.828 190.376 285.913 190.878 285.913 190.878L283.549 190.565L285.493 192.343C285.493 192.343 282.964 195.7 280.009 195.284V195.278Z" fill="#FF5225"/>
<path d="M288.114 198.316C288.114 198.316 279.596 195.431 279.932 202.938C279.932 202.938 282.631 205.378 285.165 201.678L284.483 200.259L285.659 200.499C285.659 200.499 287.25 198.544 288.114 198.31V198.316Z" fill="#FF5225"/>
<path d="M276.809 210.354C276.809 210.354 276.804 210.354 276.798 210.354C276.713 210.343 276.65 210.263 276.661 210.177C277.934 201.422 285.049 199.051 285.122 199.029C285.202 199 285.293 199.046 285.321 199.131C285.35 199.217 285.304 199.302 285.219 199.331C285.151 199.353 278.218 201.673 276.974 210.229C276.963 210.314 276.889 210.371 276.804 210.366L276.809 210.354Z" fill="#231F20"/>
<path d="M276.662 212.04C276.577 212.034 276.514 211.96 276.52 211.875C276.793 206.859 277.725 201.911 279.287 197.163C280.435 193.681 281.929 190.295 283.725 187.097C283.77 187.023 283.861 186.995 283.941 187.035C284.015 187.075 284.043 187.171 283.998 187.251C282.208 190.437 280.719 193.806 279.583 197.266C278.031 201.985 277.105 206.904 276.832 211.892C276.832 211.977 276.753 212.046 276.668 212.04H276.662Z" fill="#231F20"/>
<path d="M276.304 215.512C276.304 215.512 276.299 215.512 276.293 215.512C276.208 215.501 276.151 215.415 276.162 215.33C277.185 208.803 277.02 202.254 275.679 195.876C274.833 191.835 273.503 187.879 271.736 184.117C271.702 184.037 271.736 183.946 271.81 183.906C271.889 183.866 271.98 183.906 272.02 183.98C273.799 187.765 275.128 191.744 275.986 195.808C277.333 202.226 277.498 208.809 276.469 215.375C276.458 215.455 276.384 215.518 276.299 215.506L276.304 215.512Z" fill="#231F20"/>
<path d="M276.588 212.759C276.509 212.753 276.441 212.679 276.446 212.599C276.543 208.433 275.867 200.624 270.292 195.106C269.412 194.234 268.434 193.448 267.383 192.758C267.309 192.712 267.292 192.61 267.338 192.541C267.383 192.467 267.485 192.45 267.554 192.496C268.622 193.197 269.616 193.995 270.508 194.884C276.168 200.487 276.85 208.398 276.753 212.611C276.753 212.696 276.679 212.765 276.594 212.765C276.594 212.765 276.588 212.765 276.583 212.765L276.588 212.759Z" fill="#231F20"/>
<path d="M277.377 212.827C277.309 212.822 277.252 212.77 277.235 212.702C276.797 210.616 275.712 207.578 273.001 204.962C271.45 203.463 269.535 202.3 267.461 201.593C267.376 201.565 267.336 201.473 267.365 201.394C267.393 201.314 267.484 201.268 267.563 201.297C269.677 202.015 271.638 203.206 273.223 204.734C275.985 207.407 277.098 210.508 277.541 212.634C277.559 212.719 277.507 212.805 277.422 212.822C277.405 212.822 277.394 212.822 277.377 212.822V212.827Z" fill="#231F20"/>
<path d="M270.715 211.015L272.232 218.784H281.392L282.909 211.015H270.721H270.715ZM281.051 218.367H272.567L271.215 211.425H282.403L281.051 218.367Z" fill="#231F20"/>
<path d="M282.403 211.428L281.051 218.37H272.567L271.215 211.428H282.403Z" fill="white"/>
<path d="M283.295 211.22H270.322L269.578 208.672H284.039L283.295 211.22Z" fill="#231F20"/>
<path d="M116.401 210.293L116.254 213.576L112.23 213.513L112.418 209.483L116.401 210.293Z" fill="white"/>
<path d="M116.252 213.861L112.234 213.799C112.161 213.799 112.087 213.765 112.036 213.708C111.984 213.651 111.956 213.576 111.962 213.502L112.149 209.467C112.149 209.387 112.195 209.307 112.257 209.256C112.32 209.205 112.405 209.188 112.484 209.205L116.468 210.014C116.604 210.043 116.701 210.162 116.695 210.305L116.542 213.588C116.536 213.742 116.411 213.856 116.263 213.856L116.252 213.861ZM112.524 213.24L115.979 213.291L116.104 210.521L112.678 209.826L112.519 213.24H112.524Z" fill="#231F20"/>
<path d="M116.68 213.064C116.538 212.887 116.316 212.808 116.095 212.842C115.561 212.922 114.987 212.984 114.384 213.03C113.617 213.081 112.896 213.093 112.237 213.075C111.89 213.064 111.594 213.332 111.572 213.68C111.481 215.019 111.396 216.364 111.305 217.704L124.141 218.302C124.152 218.08 124.158 217.863 124.169 217.641C124.181 217.322 123.999 217.031 123.709 216.906C122.198 216.245 117.578 214.175 116.691 213.064H116.68Z" fill="#231F20"/>
<path d="M123.274 219.254L112.041 218.733C111.598 218.712 111.257 218.337 111.277 217.893L111.286 217.705L124.12 218.301L124.111 218.489C124.091 218.933 123.717 219.275 123.274 219.254Z" fill="#231F20"/>
<path d="M117.658 215.137C117.658 215.137 117.686 215.137 117.703 215.131C117.783 215.102 118.181 214.948 118.317 214.532C118.368 214.378 118.374 214.213 118.34 214.054C118.329 213.991 118.26 213.951 118.198 213.962C118.135 213.974 118.09 214.042 118.107 214.105C118.124 214.19 118.135 214.321 118.09 214.458C117.988 214.766 117.686 214.886 117.624 214.903C117.561 214.926 117.527 214.994 117.55 215.057C117.567 215.102 117.613 215.137 117.658 215.137Z" fill="white"/>
<path d="M118.97 215.906C118.97 215.906 118.999 215.906 119.016 215.9C119.096 215.871 119.493 215.718 119.63 215.301C119.681 215.148 119.686 214.982 119.652 214.823C119.641 214.76 119.573 214.72 119.51 214.731C119.448 214.743 119.402 214.811 119.419 214.874C119.436 214.959 119.448 215.091 119.402 215.227C119.3 215.535 118.999 215.655 118.936 215.672C118.874 215.695 118.84 215.763 118.863 215.826C118.88 215.871 118.925 215.906 118.97 215.906Z" fill="white"/>
<path d="M120.224 216.579C120.224 216.579 120.253 216.579 120.27 216.574C120.349 216.545 120.747 216.391 120.884 215.975C120.935 215.821 120.94 215.656 120.906 215.496C120.895 215.434 120.827 215.394 120.764 215.405C120.702 215.417 120.656 215.485 120.673 215.548C120.69 215.633 120.702 215.764 120.656 215.901C120.554 216.209 120.253 216.329 120.19 216.346C120.128 216.369 120.094 216.437 120.116 216.5C120.133 216.545 120.179 216.579 120.224 216.579Z" fill="white"/>
<path d="M95.9499 209.653L95.5692 213.997L91.7109 213.455L92.2451 209.043L95.9499 209.653Z" fill="white"/>
<path d="M95.5694 214.283C95.5694 214.283 95.541 214.283 95.5296 214.283L91.6714 213.741C91.5179 213.718 91.41 213.582 91.4327 213.428L91.9668 209.016C91.9782 208.942 92.018 208.868 92.0748 208.822C92.1373 208.777 92.2112 208.76 92.2907 208.771L95.9956 209.381C96.1433 209.404 96.2456 209.535 96.2285 209.683L95.8478 214.026C95.8421 214.106 95.8024 214.174 95.7455 214.22C95.6944 214.26 95.6319 214.283 95.5694 214.283ZM92.0237 213.217L95.3137 213.679L95.6433 209.894L92.4896 209.375L92.0237 213.217Z" fill="#231F20"/>
<path d="M96.14 213.281C96.4298 213.293 96.6912 213.441 96.8446 213.686C97.106 214.096 97.4185 214.53 97.7992 214.974C98.7254 216.051 99.7141 216.787 100.527 217.283C100.765 217.425 100.907 217.687 100.89 217.967L100.868 218.343L90.293 217.744C90.4691 216.359 90.6453 214.98 90.8214 213.595C90.8839 213.105 91.3385 212.768 91.8215 212.848C92.3556 212.939 92.9182 213.019 93.5034 213.082C94.4296 213.19 95.3104 213.247 96.1286 213.276L96.14 213.281Z" fill="#231F20"/>
<path d="M100.868 218.343L100.851 218.656C100.834 218.987 100.55 219.243 100.221 219.226L90.8448 218.816C90.5096 218.799 90.2482 218.514 90.2709 218.177L90.2936 217.744L100.868 218.343Z" fill="#231F20"/>
<path d="M97.5202 215.549C97.56 215.549 97.6055 215.532 97.6282 215.492C97.9123 215.048 97.81 214.672 97.8044 214.655C97.7873 214.592 97.7191 214.558 97.6566 214.575C97.5941 214.592 97.56 214.66 97.5771 214.723C97.5771 214.74 97.6566 215.019 97.4293 215.361C97.3952 215.418 97.4066 215.492 97.4634 215.527C97.4805 215.538 97.5032 215.544 97.5202 215.544V215.549Z" fill="#231F20"/>
<path d="M98.157 216.19C98.1967 216.19 98.2422 216.173 98.2649 216.133C98.549 215.688 98.4468 215.312 98.4411 215.295C98.424 215.232 98.3558 215.192 98.2933 215.215C98.2308 215.232 98.1967 215.3 98.2138 215.363C98.2138 215.375 98.2933 215.66 98.0661 216.002C98.032 216.059 98.0433 216.133 98.1001 216.167C98.1172 216.178 98.1399 216.184 98.157 216.184V216.19Z" fill="#231F20"/>
<path d="M98.739 216.802C98.7788 216.802 98.8242 216.785 98.847 216.745C99.1311 216.301 99.0288 215.925 99.0231 215.907C99.0061 215.845 98.9379 215.811 98.8754 215.828C98.8129 215.845 98.7788 215.913 98.7958 215.976C98.7958 215.987 98.8754 216.272 98.6481 216.614C98.614 216.671 98.6254 216.745 98.6822 216.78C98.6992 216.791 98.722 216.797 98.739 216.797V216.802Z" fill="#231F20"/>
<path d="M142.57 81.9053C143.076 80.9876 143.587 80.07 144.093 79.1523V78.0123C144.173 77.7216 144.315 77.2884 144.588 76.821C145.15 75.8407 145.627 75.778 146.838 74.5639C147.809 73.5892 148.236 72.8995 148.667 73.0363C148.872 73.099 148.969 73.327 148.974 73.3441C149.145 73.7773 148.628 74.239 148.059 75.1795C147.98 75.3049 147.895 75.4588 147.809 75.6298C147.593 76.0402 147.707 76.5418 148.076 76.8153C148.264 76.9578 148.468 77.1231 148.673 77.3226C148.991 77.6304 149.52 78.0465 149.588 78.5481C149.65 79.044 149.264 79.4544 148.673 80.0757C148.366 80.4006 147.866 80.8622 147.15 81.3011C146.741 82.0136 146.338 82.7261 145.929 83.4443C144.809 82.937 143.69 82.424 142.576 81.9167L142.57 81.9053Z" fill="white" stroke="#231F20" stroke-width="0.569279" stroke-linecap="round" stroke-linejoin="round"/>
<path d="M105.707 98.1034L106.622 92.9051L107.537 82.8107C110.634 82.7423 113.73 82.6739 116.833 82.6055C116.918 82.9703 117.037 83.5459 117.174 84.2527C117.947 88.3794 118.663 92.1641 116.935 93.6461C116.452 94.0622 115.731 94.3358 115.537 94.4042C114.52 94.7918 113.617 94.8032 113.088 94.769L112.725 98.0977H105.713L105.707 98.1034Z" fill="white" stroke="#231F20" stroke-width="0.569279" stroke-linecap="round" stroke-linejoin="round"/>
<path d="M106.162 94.1602C109.106 95.0722 112.788 91.5838 112.458 90.5123C112.344 90.1361 111.776 90.1646 111.299 89.4179C111.265 89.3666 110.526 88.2095 111.009 87.5826C111.322 87.1722 112.021 87.1722 112.43 87.2748C112.975 87.4059 113.327 87.782 113.538 88.1012C113.617 88.2209 113.799 88.1696 113.81 88.0271C113.89 87.0639 114.174 85.998 114.97 85.257C115.759 84.5274 116.299 84.8181 117.049 84.0144C118.055 82.9372 118.459 80.9422 117.6 79.7681C117.583 79.7396 117.549 79.694 117.498 79.637C117.197 79.3178 116.419 78.9359 113.373 78.9302C106.685 78.9302 105.031 79.939 104.605 81.1075C104.492 81.4267 104.435 81.9226 103.991 82.4641C103.429 83.1595 102.844 83.1652 102.44 83.5585C101.792 84.1797 101.912 85.485 102.537 87.5427C103.77 91.5895 104.384 93.613 106.162 94.1659V94.1602Z" fill="#231F20"/>
<path d="M121.225 137.268V177.64L117.258 210.978H111.434C111.747 199.664 112.065 188.344 112.377 177.03C111.002 169.706 109.621 162.381 108.246 155.051C107.138 161.367 106.036 167.677 104.928 173.992C104.576 175.805 104.218 177.634 103.843 179.475C101.609 190.436 99.1377 200.844 96.5239 210.671C94.6885 210.471 92.8531 210.277 91.0234 210.078C92.552 199.368 94.0805 188.652 95.609 177.942C95.7113 164.69 95.8136 151.432 95.9159 138.18L121.225 137.262V137.268Z" fill="#231F20"/>
<path d="M147.124 82.8186L139.277 97.4729C138.845 98.2937 138.174 98.9605 137.362 99.3994C134.458 100.967 131.554 102.534 128.651 104.102C127.992 104.461 127.327 104.82 126.668 105.173C124.111 106.553 122.389 109.101 122.065 111.99C121.849 113.923 121.701 116.014 121.656 118.237C121.611 120.318 121.656 122.518 121.826 124.826C121.906 125.887 122.008 126.975 122.145 128.081C122.213 128.645 122.292 129.204 122.372 129.751C122.457 130.338 122.554 130.914 122.65 131.478C122.713 131.837 122.775 132.196 122.844 132.544C123.213 134.499 123.645 136.334 124.111 138.033C124.378 139.002 123.054 139.521 122.838 139.697C122.338 140.131 121.792 140.433 121.235 140.644C120.042 141.088 118.826 141.094 117.997 141.071C110.968 140.86 108.888 137.697 103.785 138.404C100.41 138.871 98.0235 140.718 95.9154 139.39C95.8813 139.367 95.8415 139.338 95.8017 139.315C95.0914 138.831 94.5118 138.21 94.5687 137.851C94.83 136.084 95.0914 134.305 95.3585 132.538C95.4096 132.185 95.4608 131.826 95.5176 131.472C95.6028 130.897 95.6881 130.321 95.779 129.745C95.9494 128.588 96.1199 127.431 96.2904 126.269C96.3017 126.189 96.3074 126.109 96.2904 126.035C96.3358 125.693 96.3756 125.345 96.4154 125.003C95.6994 125.151 94.8698 125.254 93.9607 125.237C93.7561 125.237 93.5686 125.225 93.3754 125.214C93.0231 125.174 92.6537 125.106 92.2787 124.98C91.7787 124.815 91.2786 124.581 90.8013 124.291C88.7557 123.031 87.2101 120.745 87.767 119.053C89.1648 114.806 90.8411 110.343 92.8753 105.749C93.739 103.8 94.6198 101.924 95.5176 100.118C96.1597 98.8237 97.37 97.9004 98.7906 97.6325C100.95 97.2221 103.353 96.8801 105.962 96.6749C106.467 96.635 106.984 96.6008 107.519 96.5723C109.416 96.4697 111.235 96.4526 112.951 96.5039C115.121 96.5666 117.133 96.7376 118.963 96.9542C120.093 97.0967 121.241 96.9941 122.338 96.6635C125.611 95.6717 128.884 94.6742 132.157 93.6882C132.839 93.4773 133.646 92.742 134.685 91.8243C136.299 90.3937 137.203 89.0143 140.453 83.7191C140.902 82.9839 141.453 82.089 142.089 81.0459C142.317 80.6811 142.51 80.3562 142.675 80.094C142.794 79.8945 143.044 79.8375 143.243 79.9572C143.345 80.0199 143.447 80.0769 143.55 80.1396C143.879 80.3448 144.209 80.5386 144.533 80.7438C144.533 80.7438 144.874 80.9547 144.879 80.9547C144.948 80.9946 145.999 81.6387 146.703 82.0662C146.806 82.1289 146.902 82.1859 146.982 82.2372C147.175 82.3569 147.243 82.5963 147.135 82.7958L147.124 82.8186Z" fill="#FF5225"/>
<path d="M96.4798 124.829H121.828C121.908 125.894 122.01 126.977 122.147 128.089C122.215 128.653 122.289 129.212 122.374 129.759H95.7695C96.0082 128.117 96.2468 126.476 96.4798 124.829Z" fill="#FF997E"/>
<path d="M122.833 132.557H95.3477C95.3988 132.203 95.4499 131.844 95.5068 131.491H122.64C122.702 131.85 122.765 132.203 122.833 132.557Z" fill="#FF997E"/>
<path d="M116.251 87.6046C116.445 87.6046 116.603 87.3162 116.603 86.9605C116.603 86.6048 116.445 86.3164 116.251 86.3164C116.056 86.3164 115.898 86.6048 115.898 86.9605C115.898 87.3162 116.056 87.6046 116.251 87.6046Z" fill="#231F20"/>
<path d="M116.143 92.4912C115.972 92.4912 115.83 92.457 115.739 92.4285C115.631 92.3943 115.569 92.2746 115.603 92.1606C115.637 92.0466 115.756 91.9896 115.87 92.0238C115.967 92.058 116.16 92.0979 116.382 92.0295C116.649 91.9497 116.796 91.7559 116.847 91.6761C116.91 91.5792 117.041 91.5507 117.143 91.6134C117.24 91.6761 117.268 91.8072 117.205 91.9098C117.109 92.058 116.893 92.3145 116.512 92.4342C116.382 92.4741 116.257 92.4912 116.149 92.4912H116.143Z" fill="#231F20"/>
<path d="M112.014 89.2288C112.014 89.2288 112.071 89.2231 112.094 89.206C112.157 89.1604 112.174 89.0749 112.128 89.0122C111.924 88.7215 111.855 88.4821 111.924 88.3168C112.009 88.1059 112.304 88.0489 112.304 88.0432C112.378 88.0261 112.429 87.9577 112.412 87.8836C112.401 87.8095 112.327 87.7583 112.253 87.7697C112.236 87.7697 111.81 87.8551 111.668 88.2085C111.56 88.4707 111.639 88.7956 111.901 89.1718C111.929 89.2117 111.969 89.2288 112.014 89.2288Z" fill="#231F20"/>
<path d="M98.1919 111.748C97.5896 116.171 96.9929 120.594 96.3906 125.017L98.1919 111.748Z" fill="white"/>
<path d="M98.1919 111.748C97.5896 116.171 96.9929 120.594 96.3906 125.017" stroke="#231F20" stroke-width="0.569279" stroke-linecap="round" stroke-linejoin="round"/>
</g>
<defs>
<clipPath id="clip0_2123_8036">
<rect width="222" height="176" fill="white" transform="translate(75 44)"/>
</clipPath>
</defs>
</svg>
