<svg width="372" height="265" viewBox="0 0 372 265" fill="none" xmlns="http://www.w3.org/2000/svg">
<path d="M249.144 87.883L248.934 92.2573L249.472 92.2832L249.683 87.9089L249.144 87.883Z" fill="#D84426"/>
<path d="M249.906 72.2646L249.316 84.5317L249.855 84.5576L250.445 72.2905L249.906 72.2646Z" fill="#D84426"/>
<path d="M176.559 65.4458H242.118C245.836 65.4458 248.729 68.487 248.555 72.2L241.912 212.023C241.737 215.741 238.553 218.777 234.835 218.777H169.276C165.558 218.777 162.665 215.736 162.84 212.023L169.483 72.2C169.657 68.4817 172.847 65.4458 176.559 65.4458Z" fill="#282829"/>
<path d="M264.515 125.398L264.668 122.187L262.7 121.616C262.632 120.521 262.468 119.453 262.219 118.421L263.901 117.131L262.811 114.164L260.743 114.396C260.262 113.444 259.696 112.54 259.061 111.688L260.151 109.874L257.988 107.605L256.131 108.61C255.317 107.933 254.439 107.325 253.513 106.796L253.846 104.744L250.937 103.517L249.573 105.135C248.552 104.839 247.494 104.622 246.405 104.5L245.929 102.512H242.718L242.052 104.5C240.952 104.622 239.873 104.839 238.825 105.135L237.614 103.517L234.589 104.744L234.726 106.796C233.748 107.325 232.812 107.933 231.934 108.61L230.167 107.605L227.787 109.874L228.707 111.688C227.993 112.535 227.337 113.439 226.766 114.396L224.725 114.164L223.355 117.131L224.915 118.421C224.571 119.453 224.301 120.521 224.127 121.616L222.106 122.187L221.953 125.398L223.921 125.969C223.989 127.064 224.153 128.132 224.402 129.164L222.72 130.454L223.81 133.421L225.878 133.189C226.359 134.141 226.925 135.045 227.56 135.891L226.47 137.705L228.633 139.974L230.495 138.969C231.31 139.646 232.182 140.255 233.113 140.784L232.78 142.836L235.689 144.063L237.054 142.444C238.069 142.741 239.127 142.957 240.216 143.079L240.692 145.068H243.903L244.569 143.079C245.669 142.957 246.748 142.741 247.796 142.444L249.007 144.063L252.032 142.836L251.895 140.784C252.873 140.255 253.809 139.646 254.687 138.969L256.454 139.974L258.834 137.705L257.914 135.891C258.628 135.045 259.278 134.141 259.855 133.183L261.902 133.416L263.272 130.449L261.711 129.158C262.055 128.127 262.32 127.058 262.494 125.964L264.515 125.392V125.398ZM257.052 123.79C256.692 131.38 250.245 137.531 242.665 137.531C235.086 137.531 229.215 131.38 229.58 123.79C229.94 116.205 236.387 110.049 243.977 110.049C251.567 110.049 257.417 116.205 257.057 123.79H257.052Z" fill="#D84426"/>
<path d="M242.038 67.1328H176.479C173.681 67.1328 171.306 69.4018 171.169 72.1998L164.854 205.131C164.806 206.099 165.557 206.881 166.52 206.881H238.711C239.679 206.881 240.498 206.099 240.546 205.131L246.861 72.1998C246.993 69.4018 244.836 67.1328 242.038 67.1328Z" fill="white"/>
<path opacity="0.2" d="M230.249 200.804H175.596C173.973 200.804 172.47 200.17 171.365 199.011C170.26 197.853 169.694 196.319 169.773 194.69L171.45 159.354C171.608 155.995 174.47 153.261 177.834 153.261H232.486C234.11 153.261 235.612 153.901 236.717 155.054C237.823 156.212 238.388 157.746 238.309 159.375L236.632 194.711C236.474 198.07 233.612 200.804 230.249 200.804ZM177.834 153.747C174.729 153.747 172.084 156.27 171.942 159.375L170.265 194.711C170.196 196.203 170.714 197.61 171.725 198.673C172.735 199.731 174.11 200.318 175.602 200.318H230.254C233.359 200.318 236.003 197.795 236.146 194.69L237.823 159.354C237.891 157.862 237.373 156.455 236.363 155.392C235.353 154.334 233.977 153.747 232.486 153.747H177.834Z" fill="#D84426"/>
<path opacity="0.1" d="M187.155 156.254H166.338L164.613 192.506H185.431C187.801 192.506 189.832 190.57 189.943 188.201L191.254 160.565C191.366 158.195 189.52 156.26 187.15 156.26L187.155 156.254Z" fill="#282829"/>
<path opacity="0.1" d="M215.041 173.814H200.887C199.676 173.814 198.73 172.82 198.788 171.609L199.459 157.455C199.518 156.244 200.56 155.25 201.771 155.25H215.924C217.136 155.25 218.082 156.244 218.024 157.455L217.352 171.609C217.294 172.82 216.258 173.814 215.041 173.814Z" fill="#4D4D4D"/>
<path opacity="0.1" d="M237.639 162.67C235.899 162.67 234.403 164.098 234.323 165.838L233.355 186.164C233.271 187.904 234.63 189.332 236.375 189.332H242.384L243.653 162.67H237.645H237.639Z" fill="#D84426"/>
<path opacity="0.1" d="M220.768 196.15H206.614C205.403 196.15 204.456 195.156 204.514 193.945L205.186 179.791C205.244 178.58 206.281 177.585 207.497 177.585H221.651C222.862 177.585 223.809 178.58 223.751 179.791L223.079 193.945C223.021 195.156 221.984 196.15 220.768 196.15Z" fill="#4D4D4D"/>
<path opacity="0.2" d="M205.703 212.403C205.614 214.249 204.048 215.751 202.197 215.751C200.346 215.751 198.923 214.254 199.007 212.403C199.092 210.552 200.663 209.055 202.514 209.055C204.365 209.055 205.788 210.552 205.703 212.403Z" fill="white"/>
<path opacity="0.2" d="M236.624 145.068H174.504C173.329 145.068 172.425 144.116 172.483 142.942L174.334 103.94C174.392 102.766 175.387 101.813 176.561 101.813H238.682C239.856 101.813 240.76 102.766 240.702 103.94L238.851 142.942C238.793 144.116 237.798 145.068 236.624 145.068Z" fill="#808080"/>
<path opacity="0.6" d="M239.964 92.4836H176.157C175.448 92.4836 174.903 91.9124 174.935 91.2037L175.559 78.0285C175.591 77.3198 176.194 76.7485 176.902 76.7485H240.71C241.419 76.7485 241.964 77.3198 241.932 78.0285L241.308 91.2037C241.276 91.9124 240.673 92.4836 239.964 92.4836Z" fill="#808080"/>
<path d="M181.549 114.925H178.18L177.043 138.848H180.412L181.549 114.925Z" fill="#D84426"/>
<path d="M187.913 123.727H184.544L183.824 138.848H187.193L187.913 123.727Z" fill="#282829"/>
<path d="M194.455 128.804H191.085L190.609 138.848H193.979L194.455 128.804Z" fill="#282829"/>
<path d="M201.003 133.829H197.629L197.391 138.848H200.76L201.003 133.829Z" fill="#D84426"/>
<path d="M208.407 120.68H205.038L204.176 138.848H207.545L208.407 120.68Z" fill="#D84426"/>
<path d="M215.654 110.975H212.279L210.957 138.848H214.326L215.654 110.975Z" fill="#282829"/>
<path d="M222.576 108.039H219.202L217.742 138.848H221.111L222.576 108.039Z" fill="#282829"/>
<path d="M228.792 120.003H225.417L224.523 138.848H227.893L228.792 120.003Z" fill="#D84426"/>
<path d="M235.281 126.096H231.912L231.309 138.848H234.678L235.281 126.096Z" fill="#282829"/>
<path d="M211.58 167.404H197.427C196.215 167.404 195.269 166.409 195.327 165.198L195.998 151.044C196.057 149.833 197.093 148.839 198.31 148.839H212.463C213.675 148.839 214.621 149.833 214.563 151.044L213.891 165.198C213.833 166.409 212.797 167.404 211.58 167.404Z" fill="#808080"/>
<path opacity="0.6" d="M211.58 167.404H197.427C196.215 167.404 195.269 166.409 195.327 165.198L195.998 151.044C196.057 149.833 197.093 148.839 198.31 148.839H212.463C213.675 148.839 214.621 149.833 214.563 151.044L213.891 165.198C213.833 166.409 212.797 167.404 211.58 167.404Z" fill="white"/>
<path d="M243.908 186.729H223.582C221.842 186.729 220.483 185.301 220.562 183.561L221.53 163.235C221.614 161.495 223.106 160.067 224.846 160.067H245.172C246.912 160.067 248.272 161.495 248.192 163.235L247.224 183.561C247.14 185.301 245.648 186.729 243.908 186.729Z" fill="#282829"/>
<path opacity="0.4" d="M243.908 186.729H223.582C221.842 186.729 220.483 185.301 220.562 183.561L221.53 163.235C221.614 161.495 223.106 160.067 224.846 160.067H245.172C246.912 160.067 248.272 161.495 248.192 163.235L247.224 183.561C247.14 185.301 245.648 186.729 243.908 186.729Z" fill="white"/>
<path d="M241.04 173.395L230.742 167.286L230.16 179.509L241.04 173.395Z" fill="white"/>
<path d="M204.166 189.74H190.012C188.801 189.74 187.855 188.745 187.913 187.534L188.584 173.38C188.643 172.169 189.679 171.175 190.896 171.175H205.049C206.261 171.175 207.207 172.169 207.149 173.38L206.477 187.534C206.419 188.745 205.383 189.74 204.166 189.74Z" fill="#282829"/>
<path opacity="0.4" d="M204.166 189.74H190.012C188.801 189.74 187.855 188.745 187.913 187.534L188.584 173.38C188.643 172.169 189.679 171.175 190.896 171.175H205.049C206.261 171.175 207.207 172.169 207.149 173.38L206.477 187.534C206.419 188.745 205.383 189.74 204.166 189.74Z" fill="white"/>
<path d="M195.798 185.862L190.773 180.584L191.942 179.473L195.856 183.577L203.324 176.448L204.435 177.617L195.798 185.862Z" fill="white"/>
<path d="M161.873 107.78L156.997 102.903C155.933 101.84 155.933 100.106 156.997 99.0424C158.06 97.9793 159.794 97.9793 160.858 99.0424L165.734 103.919C166.797 104.982 166.797 106.717 165.734 107.78C164.671 108.843 162.936 108.843 161.873 107.78Z" fill="#282829"/>
<path d="M161.795 103.377L161.387 102.97C160.52 102.102 159.113 102.102 158.246 102.97L155.1 106.115C154.233 106.983 154.233 108.389 155.1 109.257L155.508 109.664C156.375 110.532 157.782 110.532 158.65 109.664L161.795 106.519C162.662 105.651 162.662 104.245 161.795 103.377Z" fill="#282829"/>
<path d="M112.955 156.371L108.401 151.817C107.861 151.278 107.866 150.395 108.417 149.866L154.776 105.136C155.315 104.617 156.167 104.623 156.695 105.152L159.62 108.077C160.149 108.605 160.155 109.457 159.636 109.996L114.906 156.355C114.377 156.906 113.494 156.916 112.955 156.371Z" fill="#282829"/>
<path d="M160.559 96.8213C159.443 95.2293 158.501 93.5579 157.734 91.8284L158.988 65.404C158.993 65.2242 159.009 65.0497 159.025 64.8751C159.586 58.671 164.774 53.6146 170.962 53.1968C171.237 53.1756 171.523 53.165 171.803 53.165H199.259C200.867 54.0272 202.422 55.048 203.887 56.2274C204.733 56.9044 205.553 57.6396 206.341 58.4277C210.668 62.7542 213.392 68.0644 214.518 73.6444C216.454 83.1701 213.73 93.4521 206.336 100.841C205.881 101.296 205.416 101.735 204.934 102.153C193.161 112.535 175.183 112.101 163.923 100.841C162.664 99.5822 161.537 98.2388 160.553 96.8266L160.559 96.8213Z" fill="#D84426"/>
<path d="M163.928 100.836C162.669 99.5769 161.542 98.2335 160.559 96.8213L162.05 65.4041C162.288 60.3318 166.593 56.2222 171.66 56.2222H203.892C204.738 56.8992 205.558 57.6344 206.346 58.4224C210.673 62.7489 213.397 68.0592 214.523 73.6392C216.459 83.1649 213.735 93.4469 206.341 100.836C205.886 101.291 205.421 101.73 204.939 102.147C193.166 112.53 175.188 112.096 163.928 100.836Z" fill="white"/>
<path opacity="0.6" d="M206.343 100.836C205.888 101.291 205.423 101.73 204.942 102.147H171.081C169.801 102.147 168.807 101.111 168.87 99.8255L170.007 75.9611C170.071 74.6811 171.155 73.6392 172.435 73.6392H214.531C216.467 83.1648 213.743 93.4468 206.349 100.836H206.343Z" fill="#4D4D4D"/>
<path opacity="0.5" d="M163.933 100.836C152.218 89.1202 152.223 70.1323 163.933 58.4223C175.648 46.7069 194.636 46.7069 206.352 58.4223C218.067 70.1376 218.062 89.1255 206.352 100.841C194.642 112.551 175.654 112.556 163.938 100.841L163.933 100.836Z" fill="white"/>
<path d="M196.766 83.8518C192.418 88.1995 187.467 87.8451 184.199 84.5764C180.93 81.3078 180.576 76.3572 184.923 72.0095C189.271 67.6619 195.449 66.7839 198.717 70.0578C201.986 73.3265 201.113 79.5042 196.766 83.8518Z" fill="#282829"/>
<path d="M195.559 73.2157C193.835 71.4915 193.486 69.0426 194.787 67.7468C196.088 66.451 198.532 66.7948 200.256 68.519C201.98 70.2433 202.329 72.6921 201.028 73.9879C199.732 75.2838 197.284 74.94 195.559 73.2157Z" fill="#282829"/>
<path d="M194.181 75.2626C193.974 75.2626 193.768 75.1674 193.636 74.9823L188.162 67.3501C188.067 67.2126 188.019 67.0487 188.04 66.8794L188.601 62.1721C188.643 61.8072 188.976 61.5427 189.347 61.585C189.711 61.6273 189.976 61.9605 189.934 62.3308L189.405 66.7789L194.726 74.1995C194.942 74.501 194.874 74.9188 194.572 75.1357C194.456 75.2203 194.318 75.2626 194.181 75.2626Z" fill="#282829"/>
<path d="M201.815 80.7367C201.678 80.7367 201.54 80.6944 201.424 80.6098L193.792 75.1355C193.49 74.9187 193.421 74.5008 193.638 74.1994C193.855 73.8979 194.273 73.8291 194.574 74.046L201.995 79.3668L206.443 78.8379C206.813 78.7903 207.141 79.0548 207.189 79.425C207.231 79.7899 206.972 80.1232 206.602 80.1708L201.895 80.7314C201.895 80.7314 201.842 80.7314 201.815 80.7314V80.7367Z" fill="#282829"/>
<path d="M189.811 79.6312C189.674 79.6312 189.541 79.5888 189.42 79.5042L181.999 74.1834L177.551 74.7123C177.181 74.7599 176.853 74.4954 176.805 74.1252C176.763 73.7603 177.022 73.427 177.392 73.3794L182.1 72.8188C182.264 72.7976 182.433 72.8399 182.57 72.9404L190.203 78.4147C190.504 78.6315 190.573 79.0494 190.356 79.3508C190.224 79.5307 190.017 79.6312 189.811 79.6312Z" fill="#282829"/>
<path d="M194.729 91.9707C194.729 91.9707 194.677 91.9707 194.65 91.9707C194.285 91.9284 194.021 91.5952 194.063 91.2249L194.592 86.7768L189.271 79.3562C189.054 79.0547 189.123 78.6369 189.424 78.42C189.726 78.2031 190.144 78.2719 190.361 78.5734L195.835 86.2056C195.93 86.3431 195.978 86.507 195.956 86.6763L195.396 91.3836C195.354 91.7221 195.068 91.976 194.735 91.976L194.729 91.9707Z" fill="#282829"/>
<path d="M202.207 87.6604C202.038 87.6604 201.864 87.597 201.737 87.4647L181.315 67.0435C181.056 66.7843 181.056 66.3612 181.315 66.0968C181.575 65.8323 181.998 65.8376 182.262 66.0968L202.683 86.518C202.943 86.7771 202.943 87.2003 202.683 87.4647C202.551 87.597 202.382 87.6604 202.213 87.6604H202.207Z" fill="#282829"/>
<path d="M199.462 69.9841C199.372 69.9841 199.283 69.9683 199.198 69.9313C198.859 69.7832 198.701 69.3918 198.849 69.0533C198.907 68.9157 200.203 65.737 197.193 63.4521C196.897 63.23 196.844 62.8068 197.066 62.5159C197.289 62.2197 197.712 62.1616 198.003 62.389C201.091 64.7321 200.711 68.1224 200.081 69.5822C199.97 69.836 199.727 69.9841 199.468 69.9841H199.462Z" fill="#282829"/>
<path d="M205.86 71.8511C205.659 71.8511 205.458 71.7612 205.325 71.5867C203.041 68.5772 199.857 69.873 199.724 69.9312C199.386 70.074 198.994 69.9206 198.846 69.5768C198.703 69.2383 198.857 68.8469 199.195 68.6988C200.66 68.0694 204.045 67.6886 206.389 70.7721C206.611 71.0683 206.552 71.4862 206.262 71.7083C206.14 71.7982 205.997 71.8458 205.86 71.8458V71.8511Z" fill="#282829"/>
<path d="M208.919 55.8516C195.786 42.7188 174.492 42.7135 161.359 55.8516C148.227 68.9845 148.232 90.2784 161.359 103.411C174.492 116.544 195.786 116.549 208.919 103.411C222.057 90.2731 222.052 68.9792 208.919 55.8516ZM165.088 99.6824C154.013 88.607 154.018 70.6505 165.088 59.5804C176.164 48.505 194.12 48.4998 205.195 59.5804C216.271 70.6611 216.266 88.6123 205.195 99.6877C194.125 110.758 176.169 110.763 165.093 99.6877L165.088 99.6824Z" fill="#D84426"/>
</svg>
