<svg width="372" height="265" viewBox="0 0 372 265" fill="none" xmlns="http://www.w3.org/2000/svg">
<g clip-path="url(#clip0_2123_8197)">
<path d="M199.369 134.249C198.512 134.249 197.45 134.249 196.193 134.249C195.881 134.249 195.55 134.22 195.238 134.356C194.926 134.483 194.653 134.717 194.478 135.028C194.39 135.184 194.332 135.36 194.302 135.535C194.273 135.72 194.283 135.905 194.283 136.1C194.283 136.295 194.283 136.49 194.283 136.685C194.283 136.88 194.283 137.084 194.244 137.289C194.156 137.698 193.913 138.078 193.533 138.312C193.348 138.429 193.133 138.507 192.909 138.536C192.685 138.556 192.461 138.536 192.237 138.546C191.331 138.546 190.386 138.546 189.392 138.546C187.404 138.546 185.251 138.546 182.942 138.546C182.367 138.546 181.773 138.546 181.178 138.546C181.032 138.546 180.876 138.546 180.73 138.546C180.584 138.546 180.418 138.546 180.272 138.497C179.97 138.419 179.687 138.253 179.483 138.01C179.278 137.776 179.142 137.464 179.093 137.143C179.074 136.977 179.074 136.821 179.074 136.665C179.074 136.509 179.074 136.344 179.074 136.188C179.074 135.866 179.093 135.545 178.976 135.253C178.869 134.95 178.674 134.687 178.411 134.512C178.148 134.327 177.826 134.239 177.495 134.259H176.492C175.819 134.259 175.128 134.259 174.436 134.259C173.052 134.259 171.63 134.259 170.168 134.259C169.447 134.259 168.707 134.356 168.034 134.668C167.362 134.97 166.748 135.428 166.261 136.003C165.774 136.578 165.433 137.289 165.258 138.039C165.209 138.224 165.189 138.419 165.16 138.614C165.16 138.78 165.141 138.936 165.141 139.101V170.923C165.141 171.352 165.141 171.761 165.141 172.19C165.141 173.476 165.141 174.781 165.141 176.087V217.447C165.141 217.974 165.18 218.49 165.335 218.987C165.647 220.029 166.32 220.974 167.226 221.588C168.132 222.212 169.233 222.494 170.334 222.446C171.435 222.446 172.536 222.446 173.637 222.446C175.829 222.446 178.012 222.446 180.184 222.446C184.52 222.446 188.788 222.446 192.977 222.446C195.072 222.446 197.157 222.446 199.213 222.446C200.236 222.446 201.269 222.465 202.282 222.436C203.286 222.387 204.26 221.988 205.03 221.374C205.41 221.052 205.751 220.682 206.024 220.273C206.297 219.864 206.491 219.406 206.628 218.928C206.774 218.451 206.803 217.964 206.813 217.467C206.813 216.97 206.813 216.473 206.813 215.986C206.813 214.008 206.813 212.059 206.813 210.13C206.813 194.716 206.832 180.832 206.832 169.169C206.842 157.506 206.852 148.075 206.862 141.556C206.862 140.738 206.862 139.968 206.862 139.247C206.862 138.526 206.745 137.854 206.501 137.279C206.267 136.695 205.936 136.217 205.585 135.827C205.225 135.438 204.854 135.136 204.484 134.921C203.744 134.473 203.091 134.337 202.662 134.278C202.448 134.239 202.282 134.249 202.165 134.229C202.058 134.229 202 134.22 202 134.22C202 134.22 201.776 134.22 201.337 134.22C200.899 134.22 200.246 134.22 199.388 134.22L199.369 134.249Z" fill="#E0E0E0"/>
<path d="M118.947 21.5292C118.09 21.5292 117.028 21.5292 115.771 21.5292C115.459 21.5292 115.128 21.5 114.816 21.6364C114.504 21.7631 114.231 21.9969 114.056 22.3087C113.968 22.4646 113.91 22.64 113.881 22.8154C113.851 23.0005 113.861 23.1856 113.861 23.3805C113.861 23.5753 113.861 23.7702 113.861 23.9651C113.861 24.1599 113.861 24.3645 113.822 24.5692C113.734 24.9784 113.491 25.3584 113.111 25.5922C112.926 25.7091 112.711 25.7871 112.487 25.8163C112.263 25.8358 112.039 25.8163 111.815 25.826C110.909 25.826 109.964 25.826 108.97 25.826C106.982 25.826 104.829 25.826 102.52 25.826C101.945 25.826 101.351 25.826 100.756 25.826C100.61 25.826 100.454 25.826 100.308 25.826C100.162 25.826 99.9963 25.826 99.8502 25.7773C99.5481 25.6994 99.2656 25.5337 99.061 25.2902C98.8466 25.0563 98.7199 24.7445 98.6712 24.423C98.6517 24.2574 98.6517 24.1015 98.6517 23.9456C98.6517 23.7897 98.6517 23.624 98.6517 23.4682C98.6517 23.1466 98.6712 22.8251 98.5543 22.5328C98.4471 22.2308 98.2523 21.9677 97.9892 21.7923C97.7261 21.6072 97.4046 21.5195 97.0733 21.539H96.0697C95.3975 21.539 94.7057 21.539 94.0139 21.539C92.6303 21.539 91.2078 21.539 89.7463 21.539C89.0253 21.539 88.2848 21.6364 87.6125 21.9482C86.9402 22.2502 86.3264 22.7082 85.8392 23.283C85.3521 23.8579 85.0111 24.5692 84.8357 25.3194C84.787 25.5045 84.7675 25.6994 84.7382 25.8942C84.7382 26.0599 84.7188 26.2158 84.7188 26.3814V58.2032C84.7188 58.6319 84.7188 59.0411 84.7188 59.4698C84.7188 60.7559 84.7188 62.0615 84.7188 63.3671V104.728C84.7188 105.254 84.7577 105.77 84.9136 106.267C85.2254 107.31 85.8977 108.255 86.8038 108.869C87.71 109.492 88.811 109.775 89.912 109.726C91.0129 109.726 92.1139 109.726 93.2149 109.726C95.4072 109.726 97.5897 109.726 99.7625 109.726C104.098 109.726 108.366 109.726 112.555 109.726C114.65 109.726 116.735 109.726 118.791 109.726C119.814 109.726 120.847 109.745 121.86 109.716C122.864 109.668 123.838 109.268 124.608 108.654C124.988 108.333 125.329 107.962 125.602 107.553C125.875 107.144 126.07 106.686 126.206 106.209C126.352 105.731 126.381 105.244 126.391 104.747C126.391 104.25 126.391 103.753 126.391 103.266C126.391 101.288 126.391 99.3396 126.391 97.4104C126.391 81.9964 126.411 68.1122 126.411 56.4494C126.42 44.7866 126.43 35.355 126.44 28.8367C126.44 28.0183 126.44 27.2486 126.44 26.5276C126.44 25.8066 126.323 25.1343 126.079 24.5594C125.845 23.9748 125.514 23.4974 125.163 23.1077C124.803 22.7179 124.433 22.4159 124.062 22.2015C123.332 21.7533 122.669 21.6169 122.24 21.5585C122.026 21.5195 121.86 21.5292 121.743 21.5097C121.636 21.5097 121.578 21.5 121.578 21.5C121.578 21.5 121.354 21.5 120.915 21.5C120.477 21.5 119.824 21.5 118.967 21.5L118.947 21.5292Z" fill="#E0E0E0"/>
<path d="M118.549 134.346C117.691 134.346 116.629 134.346 115.372 134.346C115.061 134.346 114.729 134.316 114.417 134.453C114.106 134.579 113.833 134.813 113.658 135.125C113.57 135.281 113.511 135.456 113.482 135.632C113.453 135.817 113.463 136.002 113.463 136.197C113.463 136.392 113.463 136.587 113.463 136.781C113.463 136.976 113.463 137.181 113.424 137.386C113.336 137.795 113.092 138.175 112.712 138.409C112.527 138.526 112.313 138.603 112.089 138.633C111.865 138.652 111.641 138.633 111.417 138.642C110.51 138.642 109.565 138.642 108.571 138.642C106.584 138.642 104.431 138.642 102.121 138.642C101.547 138.642 100.952 138.642 100.358 138.642C100.212 138.642 100.056 138.642 99.9097 138.642C99.7635 138.642 99.5979 138.642 99.4517 138.594C99.1497 138.516 98.8671 138.35 98.6625 138.107C98.4482 137.873 98.3215 137.561 98.2728 137.239C98.2533 137.074 98.2533 136.918 98.2533 136.762C98.2533 136.606 98.2533 136.44 98.2533 136.285C98.2533 135.963 98.2728 135.642 98.1559 135.349C98.0487 135.047 97.8538 134.784 97.5907 134.609C97.3277 134.424 97.0061 134.336 96.6749 134.355H95.6713C94.999 134.355 94.3072 134.355 93.6155 134.355C92.2319 134.355 90.8094 134.355 89.3479 134.355C88.6269 134.355 87.8864 134.453 87.2141 134.765C86.5418 135.067 85.928 135.525 85.4408 136.099C84.9536 136.674 84.6126 137.386 84.4372 138.136C84.3885 138.321 84.369 138.516 84.3398 138.711C84.3398 138.876 84.3203 139.032 84.3203 139.198V171.02C84.3203 171.448 84.3203 171.858 84.3203 172.286C84.3203 173.572 84.3203 174.878 84.3203 176.184V217.544C84.3203 218.07 84.3593 218.587 84.5152 219.083C84.827 220.126 85.4993 221.071 86.4054 221.685C87.3115 222.309 88.4125 222.591 89.5135 222.542C90.6145 222.542 91.7155 222.542 92.8165 222.542C95.0088 222.542 97.1913 222.542 99.364 222.542C103.7 222.542 107.967 222.542 112.157 222.542C114.252 222.542 116.337 222.542 118.393 222.542C119.416 222.542 120.449 222.562 121.462 222.533C122.465 222.484 123.44 222.084 124.21 221.471C124.59 221.149 124.931 220.779 125.203 220.37C125.476 219.96 125.671 219.502 125.807 219.025C125.954 218.548 125.983 218.06 125.993 217.564C125.993 217.067 125.993 216.57 125.993 216.083C125.993 214.105 125.993 212.156 125.993 210.227C125.993 194.813 126.012 180.929 126.012 169.266C126.022 157.603 126.032 148.171 126.041 141.653C126.041 140.835 126.041 140.065 126.041 139.344C126.041 138.623 125.924 137.951 125.681 137.376C125.447 136.791 125.116 136.314 124.765 135.924C124.404 135.534 124.034 135.232 123.664 135.018C122.923 134.57 122.271 134.433 121.842 134.375C121.628 134.336 121.462 134.346 121.345 134.326C121.238 134.326 121.179 134.316 121.179 134.316C121.179 134.316 120.955 134.316 120.517 134.316C120.078 134.316 119.426 134.316 118.568 134.316L118.549 134.346Z" fill="#E0E0E0"/>
<path d="M118.714 167.543H91.1602V173.175H118.714V167.543Z" fill="white"/>
<path d="M118.773 175.942H91.2188V181.574H118.773V175.942Z" fill="white"/>
<path d="M118.773 184.106H91.2188V189.738H118.773V184.106Z" fill="white"/>
<path d="M112.146 200.912H98.3197C96.7608 200.912 95.5039 199.655 95.5039 198.096C95.5039 196.537 96.7608 195.28 98.3197 195.28H112.146C113.704 195.28 114.961 196.537 114.961 198.096C114.961 199.655 113.704 200.912 112.146 200.912Z" fill="#FF5225"/>
<path d="M103.494 226.071C103.494 226.071 103.513 226.168 103.523 226.353C103.523 226.568 103.542 226.85 103.552 227.191C103.562 227.961 103.581 229.043 103.601 230.407C103.611 231.819 103.63 233.524 103.64 235.493C103.659 236.477 103.64 237.558 103.679 238.659C103.776 239.741 104.244 240.861 105.111 241.719C105.959 242.566 107.186 243.131 108.511 243.141C109.876 243.141 111.288 243.141 112.76 243.131C115.702 243.131 118.839 243.112 122.133 243.112C128.739 243.112 135.997 243.102 143.617 243.092C151.236 243.092 158.495 243.102 165.101 243.112C168.404 243.112 171.541 243.131 174.474 243.131C175.945 243.131 177.358 243.131 178.722 243.141C180.037 243.141 181.265 242.566 182.122 241.719C182.98 240.871 183.457 239.741 183.555 238.659C183.603 237.558 183.574 236.477 183.594 235.493C183.613 233.515 183.623 231.81 183.633 230.407C183.652 229.043 183.672 227.961 183.681 227.191C183.691 226.85 183.701 226.568 183.711 226.353C183.711 226.168 183.73 226.071 183.74 226.071C183.75 226.071 183.759 226.168 183.769 226.353C183.769 226.568 183.789 226.85 183.798 227.191C183.808 227.961 183.828 229.043 183.847 230.407C183.857 231.819 183.876 233.524 183.886 235.493C183.886 236.486 183.925 237.529 183.886 238.679C183.798 239.828 183.301 241.037 182.395 241.962C181.489 242.888 180.174 243.502 178.751 243.521C177.387 243.521 175.965 243.531 174.503 243.541C171.561 243.541 168.423 243.56 165.13 243.56C158.524 243.56 151.265 243.57 143.646 243.58C136.027 243.58 128.768 243.57 122.162 243.56C118.859 243.56 115.722 243.541 112.789 243.541C111.318 243.541 109.905 243.531 108.541 243.521C107.118 243.502 105.803 242.888 104.897 241.962C103.981 241.037 103.494 239.838 103.396 238.679C103.357 237.529 103.396 236.486 103.396 235.493C103.416 233.515 103.425 231.81 103.435 230.407C103.455 229.043 103.474 227.961 103.484 227.191C103.494 226.85 103.503 226.568 103.513 226.353C103.513 226.168 103.533 226.071 103.542 226.071H103.494Z" fill="#282829"/>
<path d="M102.336 226.073C102.336 225.429 102.852 224.913 103.495 224.913C104.138 224.913 104.655 225.429 104.655 226.073C104.655 226.716 104.138 227.232 103.495 227.232C102.852 227.232 102.336 226.716 102.336 226.073Z" fill="#282829"/>
<path d="M194.613 164.67C195.334 160.214 192.306 156.016 187.849 155.295C183.392 154.574 179.195 157.602 178.474 162.059C177.752 166.516 180.781 170.713 185.238 171.434C189.694 172.156 193.892 169.127 194.613 164.67Z" fill="#FF5225"/>
<path d="M189.358 166.681H183.746V165.99C183.746 164.44 185.003 163.184 186.552 163.184C188.101 163.184 189.358 164.44 189.358 165.99V166.681Z" fill="white"/>
<path d="M186.553 163.377C187.462 163.377 188.2 162.64 188.2 161.73C188.2 160.821 187.462 160.083 186.553 160.083C185.643 160.083 184.906 160.821 184.906 161.73C184.906 162.64 185.643 163.377 186.553 163.377Z" fill="white"/>
<path d="M199.535 180.915H171.98V186.547H199.535V180.915Z" fill="white"/>
<path d="M199.535 189.079H171.98V194.71H199.535V189.079Z" fill="white"/>
<path d="M192.919 205.897H179.093C177.534 205.897 176.277 204.64 176.277 203.081C176.277 201.522 177.534 200.265 179.093 200.265H192.919C194.478 200.265 195.735 201.522 195.735 203.081C195.735 204.64 194.478 205.897 192.919 205.897Z" fill="#FF5225"/>
<path d="M175.792 184.969H174.574C174.457 184.969 174.359 184.871 174.359 184.755C174.359 184.306 174.72 183.946 175.168 183.946H175.197C175.645 183.946 176.006 184.306 176.006 184.755C176.006 184.871 175.909 184.969 175.792 184.969Z" fill="#808080"/>
<path d="M175.186 184.003C175.455 184.003 175.674 183.785 175.674 183.515C175.674 183.246 175.455 183.028 175.186 183.028C174.917 183.028 174.699 183.246 174.699 183.515C174.699 183.785 174.917 184.003 175.186 184.003Z" fill="#808080"/>
<path d="M175.905 191.987H174.453V193.01H175.905V191.987Z" fill="#B3B3B3"/>
<path d="M176.07 192.209H175.583V191.897C175.583 191.673 175.398 191.488 175.174 191.488C174.95 191.488 174.765 191.673 174.765 191.897V192.209H174.277V191.897C174.277 191.4 174.677 191.001 175.174 191.001C175.671 191.001 176.07 191.4 176.07 191.897V192.209Z" fill="#B3B3B3"/>
<path d="M120.156 64.3901H92.6016V70.0218H120.156V64.3901Z" fill="white"/>
<path d="M120.156 73.2568H92.6016V78.8885H120.156V73.2568Z" fill="white"/>
<path d="M120.156 82.1196H92.6016V87.7513H120.156V82.1196Z" fill="white"/>
<path d="M113.317 99.0965H99.4916C97.9327 99.0965 96.6758 97.8396 96.6758 96.2807C96.6758 94.7217 97.9327 93.4648 99.4916 93.4648H113.317C114.876 93.4648 116.133 94.7217 116.133 96.2807C116.133 97.8396 114.876 99.0965 113.317 99.0965Z" fill="#FF5225"/>
<path d="M120.156 55.5229H92.6016V61.1546H120.156V55.5229Z" fill="white"/>
<path d="M120.156 46.6562H92.6016V52.2879H120.156V46.6562Z" fill="white"/>
<path d="M189.393 132.223C189.393 132.866 188.877 133.383 188.234 133.383C187.591 133.383 187.074 132.866 187.074 132.223C187.074 131.58 187.591 131.064 188.234 131.064C188.877 131.064 189.393 131.58 189.393 132.223Z" fill="#282829"/>
<path d="M269.62 132.223C269.62 132.866 269.103 133.383 268.46 133.383C267.817 133.383 267.301 132.866 267.301 132.223C267.301 131.58 267.817 131.064 268.46 131.064C269.103 131.064 269.62 131.58 269.62 132.223Z" fill="#282829"/>
<path d="M268.46 132.224C268.46 132.224 268.441 132.126 268.431 131.941C268.431 131.727 268.412 131.444 268.402 131.103C268.392 130.333 268.373 129.252 268.353 127.888C268.343 126.475 268.324 124.77 268.314 122.802C268.295 121.818 268.314 120.736 268.275 119.635C268.178 118.554 267.71 117.433 266.843 116.576C265.995 115.728 264.768 115.163 263.443 115.153C262.079 115.153 260.666 115.153 259.195 115.163C256.252 115.163 253.115 115.183 249.821 115.183C243.215 115.183 235.957 115.192 228.337 115.202C220.718 115.202 213.459 115.192 206.853 115.183C203.55 115.183 200.413 115.163 197.48 115.163C196.009 115.163 194.596 115.163 193.232 115.153C191.917 115.153 190.689 115.728 189.832 116.576C188.974 117.423 188.497 118.554 188.399 119.635C188.351 120.736 188.38 121.818 188.36 122.802C188.341 124.78 188.331 126.485 188.321 127.888C188.302 129.252 188.282 130.333 188.273 131.103C188.263 131.444 188.253 131.727 188.243 131.941C188.243 132.126 188.224 132.224 188.214 132.224C188.205 132.224 188.195 132.126 188.185 131.941C188.185 131.727 188.166 131.444 188.156 131.103C188.146 130.333 188.127 129.252 188.107 127.888C188.097 126.475 188.078 124.77 188.068 122.802C188.068 121.808 188.029 120.765 188.068 119.616C188.156 118.466 188.653 117.258 189.559 116.332C190.465 115.407 191.78 114.793 193.203 114.773C194.567 114.773 195.989 114.764 197.451 114.754C200.393 114.754 203.531 114.734 206.824 114.734C213.43 114.734 220.689 114.725 228.308 114.715C235.927 114.715 243.186 114.725 249.792 114.734C253.095 114.734 256.233 114.754 259.165 114.754C260.637 114.754 262.049 114.764 263.413 114.773C264.836 114.793 266.151 115.407 267.057 116.332C267.973 117.258 268.46 118.456 268.558 119.616C268.597 120.765 268.558 121.808 268.558 122.802C268.538 124.78 268.529 126.485 268.519 127.888C268.499 129.252 268.48 130.333 268.47 131.103C268.46 131.444 268.451 131.727 268.441 131.941C268.441 132.126 268.421 132.224 268.412 132.224H268.46Z" fill="#282829"/>
<path d="M280.162 134.346C279.305 134.346 278.243 134.346 276.986 134.346C276.674 134.346 276.343 134.316 276.031 134.453C275.719 134.579 275.446 134.813 275.271 135.125C275.183 135.281 275.125 135.456 275.095 135.632C275.066 135.817 275.076 136.002 275.076 136.197C275.076 136.392 275.076 136.587 275.076 136.781C275.076 136.976 275.076 137.181 275.037 137.386C274.949 137.795 274.706 138.175 274.326 138.409C274.141 138.526 273.926 138.603 273.702 138.633C273.478 138.652 273.254 138.633 273.03 138.642C272.124 138.642 271.179 138.642 270.185 138.642C268.197 138.642 266.044 138.642 263.735 138.642C263.16 138.642 262.565 138.642 261.971 138.642C261.825 138.642 261.669 138.642 261.523 138.642C261.377 138.642 261.211 138.642 261.065 138.594C260.763 138.516 260.48 138.35 260.276 138.107C260.061 137.873 259.935 137.561 259.886 137.239C259.867 137.074 259.867 136.918 259.867 136.762C259.867 136.606 259.867 136.44 259.867 136.285C259.867 135.963 259.886 135.642 259.769 135.349C259.662 135.047 259.467 134.784 259.204 134.609C258.941 134.424 258.619 134.336 258.288 134.355H250.961C250.24 134.355 249.5 134.453 248.827 134.765C248.155 135.067 247.541 135.525 247.054 136.099C246.567 136.674 246.226 137.386 246.051 138.136C246.002 138.321 245.982 138.516 245.953 138.711C245.953 138.876 245.934 139.032 245.934 139.198V171.02C245.934 171.448 245.934 171.858 245.934 172.286C245.934 173.572 245.934 174.878 245.934 176.184V217.544C245.934 218.07 245.973 218.587 246.128 219.083C246.44 220.126 247.113 221.071 248.019 221.685C248.925 222.309 250.026 222.591 251.127 222.542C252.228 222.542 253.329 222.542 254.43 222.542C256.622 222.542 258.805 222.542 260.977 222.542C265.313 222.542 269.581 222.542 273.77 222.542C275.865 222.542 277.95 222.542 280.006 222.542C281.029 222.542 282.062 222.562 283.075 222.533C284.079 222.484 285.053 222.084 285.823 221.471C286.203 221.149 286.544 220.779 286.817 220.37C287.089 219.96 287.284 219.502 287.421 219.025C287.567 218.548 287.596 218.06 287.606 217.564C287.606 217.067 287.606 216.57 287.606 216.083C287.606 214.105 287.606 212.156 287.606 210.227C287.606 194.813 287.625 180.929 287.625 169.266C287.635 157.603 287.645 148.171 287.655 141.653C287.655 140.835 287.655 140.065 287.655 139.344C287.655 138.623 287.538 137.951 287.294 137.376C287.06 136.791 286.729 136.314 286.378 135.924C286.018 135.534 285.647 135.232 285.277 135.018C284.537 134.57 283.884 134.433 283.455 134.375C283.241 134.336 283.075 134.346 282.958 134.326C282.851 134.326 282.793 134.316 282.793 134.316C282.793 134.316 282.569 134.316 282.13 134.316C281.692 134.316 281.039 134.316 280.181 134.316L280.162 134.346Z" fill="#E0E0E0"/>
<path d="M270.563 150.198C270.563 152.001 269.102 153.462 267.299 153.462C265.497 153.462 264.035 152.001 264.035 150.198C264.035 148.396 265.497 146.934 267.299 146.934C269.102 146.934 270.563 148.396 270.563 150.198Z" fill="#FF5225"/>
<path d="M268.421 151.513H266.18V151.241C266.18 150.627 266.677 150.12 267.3 150.12C267.914 150.12 268.421 150.617 268.421 151.241V151.513Z" fill="white"/>
<path d="M267.962 149.535C267.962 149.895 267.67 150.197 267.299 150.197C266.929 150.197 266.637 149.905 266.637 149.535C266.637 149.164 266.929 148.872 267.299 148.872C267.67 148.872 267.962 149.164 267.962 149.535Z" fill="white"/>
<path d="M249.137 167.406L249.074 178.63L264.001 178.713L264.063 167.489L249.137 167.406Z" fill="#FF5225"/>
<path d="M249.082 178.631L254.334 171.684L257.539 176.069L259.741 173.75L264.009 178.719L249.082 178.631Z" fill="#FF5225"/>
<path d="M258.942 170.856C258.942 171.509 258.406 172.025 257.763 172.025C257.12 172.025 256.594 171.49 256.594 170.846C256.594 170.203 257.13 169.677 257.773 169.677C258.425 169.677 258.942 170.213 258.942 170.856Z" fill="#FF5225"/>
<g opacity="0.2">
<path d="M249.082 178.629L254.334 171.682L257.539 176.067L259.741 173.748L264.009 178.717L249.082 178.629Z" fill="#282829"/>
</g>
<g opacity="0.2">
<path d="M258.942 170.856C258.942 171.509 258.406 172.025 257.763 172.025C257.12 172.025 256.594 171.489 256.594 170.846C256.594 170.203 257.13 169.677 257.773 169.677C258.425 169.677 258.942 170.213 258.942 170.856Z" fill="#282829"/>
</g>
<path d="M249.086 182.098L248.941 208.034L283.452 208.227L283.597 182.291L249.086 182.098Z" fill="#FF5225"/>
<path d="M248.945 208.034L261.086 191.977L268.5 202.1L273.596 196.741L283.456 208.219L248.945 208.034Z" fill="#FF5225"/>
<path d="M271.736 190.057C271.736 191.557 270.508 192.765 269.008 192.756C267.507 192.746 266.299 191.528 266.309 190.028C266.309 188.527 267.536 187.319 269.037 187.329C270.537 187.329 271.745 188.556 271.736 190.057Z" fill="#FF5225"/>
<g opacity="0.2">
<path d="M248.945 208.033L261.086 191.976L268.5 202.099L273.596 196.74L283.456 208.218L248.945 208.033Z" fill="#282829"/>
</g>
<g opacity="0.2">
<path d="M271.736 190.056C271.736 191.557 270.508 192.765 269.008 192.755C267.507 192.745 266.299 191.528 266.309 190.027C266.309 188.527 267.536 187.318 269.037 187.328C270.537 187.328 271.745 188.556 271.736 190.056Z" fill="#282829"/>
</g>
<path d="M268.848 167.415L268.785 178.639L283.712 178.723L283.774 167.498L268.848 167.415Z" fill="#FF5225"/>
<path d="M268.789 178.627L274.041 171.68L277.246 176.065L279.448 173.746L283.716 178.715L268.789 178.627Z" fill="#FF5225"/>
<path d="M278.649 170.853C278.649 171.506 278.113 172.022 277.47 172.022C276.827 172.022 276.301 171.486 276.301 170.843C276.301 170.2 276.837 169.674 277.48 169.674C278.133 169.674 278.649 170.21 278.649 170.853Z" fill="#FF5225"/>
<g opacity="0.2">
<path d="M268.789 178.629L274.041 171.682L277.246 176.067L279.448 173.748L283.716 178.717L268.789 178.629Z" fill="#282829"/>
</g>
<g opacity="0.2">
<path d="M278.649 170.852C278.649 171.505 278.113 172.021 277.47 172.021C276.827 172.021 276.301 171.485 276.301 170.842C276.301 170.199 276.837 169.673 277.48 169.673C278.133 169.673 278.649 170.209 278.649 170.852Z" fill="#282829"/>
</g>
<path d="M105.218 136.411C105.082 136.411 104.965 131.081 104.965 124.514C104.965 117.947 105.082 112.618 105.218 112.618C105.355 112.618 105.471 117.947 105.471 124.514C105.471 131.081 105.355 136.411 105.218 136.411Z" fill="#282829"/>
<path d="M106.378 112.619C106.378 113.262 105.861 113.779 105.218 113.779C104.575 113.779 104.059 113.262 104.059 112.619C104.059 111.976 104.575 111.46 105.218 111.46C105.861 111.46 106.378 111.976 106.378 112.619Z" fill="#282829"/>
<path d="M106.378 136.082C106.378 136.725 105.861 137.241 105.218 137.241C104.575 137.241 104.059 136.725 104.059 136.082C104.059 135.439 104.575 134.922 105.218 134.922C105.861 134.922 106.378 135.439 106.378 136.082Z" fill="#282829"/>
<path d="M130.132 68.3624C130.772 68.3624 131.292 67.8433 131.292 67.2029C131.292 66.5626 130.772 66.0435 130.132 66.0435C129.492 66.0435 128.973 66.5626 128.973 67.2029C128.973 67.8433 129.492 68.3624 130.132 68.3624Z" fill="#282829"/>
<path d="M183.525 132.223C183.525 132.223 183.506 132.125 183.496 131.93C183.496 131.706 183.476 131.424 183.467 131.063C183.457 130.264 183.437 129.144 183.418 127.731C183.398 124.798 183.369 120.618 183.34 115.464C183.32 105.078 183.291 90.7841 183.262 74.9901C183.262 73.9963 183.311 73.022 183.067 72.1256C182.833 71.2195 182.405 70.362 181.8 69.6605C180.602 68.2477 178.79 67.4196 176.987 67.4585C173.265 67.4585 169.67 67.4488 166.24 67.439C159.401 67.4196 153.233 67.4001 148.04 67.3806C142.886 67.3513 138.706 67.3221 135.773 67.3026C134.35 67.2831 133.24 67.2637 132.441 67.2539C132.08 67.2442 131.798 67.2344 131.574 67.2247C131.379 67.2247 131.281 67.2052 131.281 67.1955C131.281 67.1857 131.379 67.176 131.574 67.1662C131.798 67.1662 132.08 67.1467 132.441 67.137C133.24 67.1273 134.35 67.1078 135.773 67.0883C138.706 67.0688 142.886 67.0396 148.04 67.0103C153.233 66.9908 159.391 66.9811 166.24 66.9519C169.67 66.9519 173.265 66.9519 176.987 66.9324C178.926 66.8934 180.894 67.7801 182.18 69.3098C182.833 70.0697 183.301 70.9954 183.554 71.9697C183.827 72.9635 183.759 73.9866 183.769 74.9609C183.739 90.7549 183.71 105.048 183.691 115.435C183.661 120.589 183.632 124.769 183.613 127.702C183.593 129.124 183.574 130.235 183.564 131.034C183.554 131.394 183.545 131.677 183.535 131.901C183.535 132.096 183.515 132.193 183.506 132.193L183.525 132.223Z" fill="#282829"/>
<path d="M183.527 133.381C184.167 133.381 184.686 132.862 184.686 132.222C184.686 131.582 184.167 131.062 183.527 131.062C182.886 131.062 182.367 131.582 182.367 132.222C182.367 132.862 182.886 133.381 183.527 133.381Z" fill="#282829"/>
</g>
<defs>
<clipPath id="clip0_2123_8197">
<rect width="222" height="222" fill="white" transform="translate(75 21.5)"/>
</clipPath>
</defs>
</svg>
