<svg width="48" height="60" viewBox="0 0 48 60" fill="none" xmlns="http://www.w3.org/2000/svg">
<path fill-rule="evenodd" clip-rule="evenodd" d="M26.857 49.8518H6.27196C6.0049 49.8518 5.75031 49.7383 5.57184 49.5396C5.39337 49.3409 5.30773 49.0757 5.3362 48.8102C6.17314 41.0173 11.7755 34.6503 19.1702 32.6864C16.118 30.9822 14.0468 27.7173 14.0468 23.9849C14.0468 18.5023 18.5161 14.0283 23.9987 14.0283C29.4863 14.0283 33.9553 18.5024 33.9553 23.9849C33.9553 27.7175 31.884 30.9827 28.83 32.6868C30.1208 33.0296 31.3569 33.5064 32.5227 34.1015C32.6061 34.0656 32.6857 34.0187 32.7634 33.9602C32.7641 33.9596 32.7648 33.9591 32.7655 33.9586L34.046 32.9989L34.0478 32.9975C35.1538 32.1728 36.6144 32.1728 37.7206 32.9975L37.7223 32.9989L39.0022 33.9582C39.197 34.1038 39.4008 34.1782 39.6447 34.1916L41.2409 34.2799H41.2416C42.6194 34.357 43.7418 35.2993 44.054 36.6403L44.4202 38.1987L44.4207 38.2007C44.4754 38.4361 44.5834 38.6241 44.7609 38.7898L44.7627 38.7915L45.9284 39.885C46.9356 40.8304 47.1896 42.2738 46.5653 43.5033C46.5653 43.5033 45.8448 44.9283 45.844 44.9297C45.7362 45.1466 45.6969 45.3603 45.7265 45.6024C45.7267 45.6034 45.7268 45.6043 45.7269 45.6054L45.9167 47.1931L45.9169 47.1943C46.0788 48.5634 45.3495 49.832 44.0775 50.3755L43.3756 50.6758C44.1142 52.2629 45.5968 55.4486 45.5988 55.453C45.7918 55.8566 45.7394 56.2909 45.4755 56.6264C45.214 56.9724 44.8137 57.1308 44.3818 57.0529L42.1644 56.6661C42.1644 56.6661 41.031 58.6124 41.0322 58.6106C40.8223 58.9771 40.4422 59.1918 40.0101 59.1758C39.5805 59.16 39.2242 58.9308 39.0334 58.533C39.0317 58.5297 39.0302 58.5263 39.0285 58.523L36.8071 53.7519L36.2256 53.5762C36.224 53.5757 36.2224 53.5753 36.2209 53.5748C35.992 53.5043 35.7763 53.5043 35.5475 53.5748C35.5458 53.5753 35.5443 53.5757 35.5427 53.5762L34.9611 53.7519C34.4061 54.944 32.7424 58.5171 32.7429 58.5162C32.562 58.9162 32.1934 59.1597 31.7582 59.1758C31.3262 59.1918 30.9462 58.9773 30.737 58.6121L29.6058 56.6661L27.3863 57.0529C26.9521 57.1309 26.5505 56.9708 26.2935 56.6274C26.0295 56.2881 25.9777 55.858 26.1668 55.4588L28.3927 50.6758L27.6904 50.3753C27.3784 50.2416 27.0988 50.064 26.857 49.8518ZM23.9987 33.9416C15.6485 33.9416 8.71361 40.0047 7.35255 47.9695H25.8549C25.8222 47.7177 25.8203 47.4578 25.8515 47.1943L25.8516 47.1931L26.0414 45.6054C26.0415 45.6043 26.0416 45.6034 26.0417 45.6024C26.0715 45.3598 26.032 45.1456 25.9236 44.9283C25.9236 44.9283 25.2045 43.5063 25.2038 43.5048C24.5787 42.2738 24.8327 40.8304 25.84 39.885L27.0056 38.7915L27.0074 38.7898C27.185 38.6241 27.2929 38.4361 27.3477 38.2007L27.3482 38.1987C27.3482 38.1987 27.7135 36.6441 27.714 36.6422C27.907 35.8128 28.409 35.1362 29.0893 34.7218C27.483 34.2149 25.7728 33.9416 23.9987 33.9416ZM23.9987 32.0593C28.4489 32.0593 32.0729 28.4309 32.0729 23.9849C32.0729 19.5389 28.4489 15.9107 23.9987 15.9107C19.5528 15.9107 15.9291 19.5391 15.9291 23.9849C15.9291 28.4308 19.5528 32.0593 23.9987 32.0593ZM41.8345 51.8257L41.2097 52.781C40.7048 53.554 39.9244 54.0329 39.0677 54.1473C39.4071 54.8763 39.8057 55.7324 40.1275 56.4235L40.8675 55.1527C41.0657 54.8124 41.4547 54.6315 41.8426 54.6991L43.2893 54.9515L41.8345 51.8257ZM32.7006 54.1473C31.8438 54.033 31.0636 53.5541 30.5588 52.7814L29.9338 51.8257L28.4789 54.9518L29.9285 54.6991C30.3167 54.6315 30.7058 54.8128 30.9038 55.1534L31.6414 56.4223L32.7006 54.1473ZM29.8961 49.2718C30.4787 49.5188 30.9117 49.8843 31.259 50.4129L31.2601 50.4146L32.1344 51.7515C32.4264 52.1983 32.957 52.3896 33.468 52.2363C33.468 52.2363 34.9978 51.7744 34.9977 51.7744C35.6002 51.5898 36.1681 51.5898 36.7705 51.7744L38.3003 52.2363C38.8113 52.3896 39.342 52.1983 39.6338 51.7515L40.5082 50.4146L40.5093 50.4129C40.8565 49.8843 41.2896 49.5188 41.8691 49.2731L43.3368 48.645L43.3373 48.6448C43.8289 48.4347 44.1101 47.9444 44.0476 47.4156C44.0476 47.4156 43.8586 45.8346 43.8582 45.8316C43.7811 45.2033 43.8803 44.648 44.1617 44.0851C44.1624 44.084 44.163 44.0827 44.1636 44.0814L44.8854 42.654L44.8862 42.6524C45.1271 42.178 45.0283 41.6218 44.6401 41.2575C44.6401 41.2575 43.4783 40.1676 43.4765 40.166C43.0127 39.733 42.7303 39.2421 42.5877 38.6293L42.2215 37.0709L42.221 37.0689C42.1005 36.5514 41.6674 36.1891 41.1364 36.1593L39.5416 36.0711C38.9087 36.0364 38.3801 35.8435 37.8745 35.4654L37.8738 35.4648L36.5948 34.5062C36.1667 34.1873 35.6016 34.1873 35.1735 34.5062C35.1735 34.5062 33.8987 35.4617 33.8965 35.4633C33.394 35.8421 32.8608 36.0363 32.2271 36.0711L30.6318 36.1593C30.1009 36.1891 29.6677 36.5514 29.5473 37.0689L29.5468 37.0709C29.5468 37.0709 29.1815 38.6254 29.181 38.6274C29.038 39.2421 28.7556 39.733 28.2935 40.1643L27.1282 41.2575C26.74 41.6218 26.6413 42.178 26.8822 42.6524L26.8829 42.654L27.6047 44.0814C27.6053 44.0827 27.606 44.084 27.6066 44.0851C27.888 44.648 27.9871 45.2033 27.9104 45.8288L27.7208 47.4156C27.6582 47.9448 27.9416 48.435 28.432 48.6451C28.432 48.6451 29.893 49.2706 29.8961 49.2718ZM35.8855 50.0602C32.1496 50.0602 29.1018 47.0123 29.1018 43.2764C29.1018 39.5406 32.1496 36.4928 35.8855 36.4928C39.6183 36.4928 42.6664 39.5404 42.6664 43.2764C42.6664 47.0124 39.6183 50.0602 35.8855 50.0602ZM35.8855 48.1778C38.5823 48.1778 40.7841 45.9756 40.7841 43.2764C40.7841 40.5773 38.5823 38.3751 35.8855 38.3751C33.1863 38.3751 30.9842 40.5771 30.9842 43.2764C30.9842 45.9757 33.1863 48.1778 35.8855 48.1778ZM21.9515 4.00197L22.6707 1.78855C22.8576 1.21326 23.3937 0.82373 23.9987 0.82373C24.6036 0.82373 25.1397 1.21326 25.3267 1.78855L26.0458 4.00197H28.3731C28.9781 4.00197 29.5143 4.39149 29.7011 4.96691C29.8881 5.5422 29.6834 6.17244 29.194 6.52808L27.3111 7.89608L28.0303 10.1095C28.2173 10.6848 28.0124 11.315 27.523 11.6707C27.0336 12.0262 26.3709 12.0262 25.8815 11.6707L23.9987 10.3027L22.1157 11.6707C21.6264 12.0262 20.9637 12.0262 20.4743 11.6707C19.9849 11.315 19.7801 10.6848 19.967 10.1095L20.6862 7.89608L18.8034 6.52808C18.314 6.17244 18.1091 5.5422 18.2961 4.96691C18.483 4.39149 19.0191 4.00197 19.6241 4.00197H21.9515ZM21.1198 5.88432L22.0783 6.58067C22.5677 6.93632 22.7724 7.56655 22.5855 8.14185L22.2195 9.26855L23.1778 8.5722C23.6673 8.21667 24.33 8.21667 24.8194 8.5722L25.7778 9.26855L25.4117 8.14185C25.2248 7.56655 25.4296 6.93632 25.919 6.58067L26.8775 5.88432H25.6928C25.0878 5.88432 24.5517 5.49479 24.3648 4.9195L23.9987 3.79279L23.6325 4.9195C23.4456 5.49479 22.9095 5.88432 22.3046 5.88432H21.1198ZM8.42173 11.3042L7.36514 9.23044C7.09043 8.6915 7.1942 8.03691 7.62184 7.60914C8.04961 7.18138 8.7042 7.07773 9.24326 7.35244L11.3169 8.40902L12.9625 6.76326C13.3903 6.33549 14.0449 6.23185 14.5838 6.50655C15.1229 6.78114 15.4237 7.37161 15.3291 7.96914L14.965 10.2678L17.0387 11.3244C17.5777 11.599 17.8785 12.1895 17.784 12.787C17.6893 13.3844 17.2207 13.853 16.6233 13.9477L14.3245 14.3117L13.9604 16.6104C13.8658 17.208 13.3973 17.6766 12.7997 17.7711C12.2022 17.8658 11.6117 17.565 11.3371 17.026L10.2806 14.9523L7.98184 15.3163C7.38431 15.411 6.79384 15.1101 6.51926 14.5711C6.24455 14.0321 6.34831 13.3776 6.77608 12.9498L8.42173 11.3042ZM9.16467 13.2231L10.3348 13.0378C10.9323 12.9433 11.5228 13.2441 11.7974 13.7831L12.3353 14.8387L12.5205 13.6686C12.6153 13.071 13.0838 12.6024 13.6813 12.5078L14.8514 12.3226L13.7958 11.7847C13.2568 11.5101 12.956 10.9196 13.0505 10.3221L13.236 9.15197L12.3982 9.98973C11.9704 10.4174 11.316 10.5211 10.7769 10.2464L9.72137 9.70867L10.2591 10.7642C10.5338 11.3031 10.4302 11.9577 10.0024 12.3855L9.16467 13.2231ZM4.01808 21.9401V19.6128C4.01808 19.0078 4.40761 18.4717 4.98302 18.2848C5.55831 18.0978 6.18855 18.3026 6.5442 18.792L7.91208 20.6749L10.1256 19.9557C10.7009 19.7688 11.3311 19.9735 11.6867 20.4629C12.0423 20.9523 12.0423 21.615 11.6867 22.1044L10.3188 23.9873L11.6867 25.8702C12.0423 26.3596 12.0423 27.0223 11.6867 27.5117C11.3311 28.001 10.7009 28.2058 10.1256 28.0189L7.91208 27.2997L6.5442 29.1826C6.18855 29.672 5.55831 29.8768 4.98302 29.6898C4.40761 29.5029 4.01808 28.9668 4.01808 28.3618V26.0346L1.80467 25.3153C1.22937 25.1284 0.839844 24.5922 0.839844 23.9873C0.839844 23.3823 1.22937 22.8462 1.80467 22.6593L4.01808 21.9401ZM3.8089 23.9873L4.93561 24.3534C5.5109 24.5403 5.90043 25.0764 5.90043 25.6814V26.8661L6.59679 25.9076C6.95243 25.4182 7.58267 25.2135 8.15796 25.4004L9.28467 25.7666L8.58831 24.8081C8.23278 24.3187 8.23278 23.656 8.58831 23.1666L9.28467 22.2081L8.15796 22.5742C7.58267 22.7611 6.95243 22.5563 6.59679 22.0669L5.90043 21.1086V22.2933C5.90043 22.8981 5.5109 23.4343 4.93561 23.6213L3.8089 23.9873ZM33.0336 10.2644L32.6696 7.96573C32.5749 7.3682 32.8758 6.77773 33.4148 6.50314C33.9538 6.22855 34.6083 6.3322 35.0361 6.75997L36.6818 8.40561L38.7555 7.34902C39.2944 7.07444 39.949 7.17808 40.3768 7.60585C40.8046 8.03361 40.9082 8.68808 40.6336 9.22714L39.577 11.3008L41.2227 12.9464C41.6504 13.3742 41.7541 14.0288 41.4795 14.5677C41.2048 15.1068 40.6143 15.4076 40.0169 15.313L37.7182 14.9489L36.6616 17.0226C36.3869 17.5616 35.7964 17.8624 35.199 17.7678C34.6015 17.6731 34.1329 17.2046 34.0382 16.6071L33.6742 14.3084L31.3755 13.9443C30.778 13.8497 30.3094 13.3811 30.2148 12.7836C30.1201 12.1861 30.421 11.5956 30.96 11.321L33.0336 10.2644ZM33.1473 12.3191L34.3174 12.5044C34.9149 12.5991 35.3835 13.0677 35.4781 13.6653C35.4781 13.6653 35.5674 14.2289 35.6634 14.8353L36.2013 13.7797C36.476 13.2408 37.0664 12.9398 37.6638 13.0346L38.834 13.2198L37.9963 12.3821C37.5685 11.9544 37.4649 11.2998 37.7395 10.7608L38.2774 9.70526L37.2217 10.2431C36.6828 10.5177 36.0282 10.4141 35.6004 9.98632L34.7628 9.14855L34.9481 10.3187C35.0427 10.9162 34.7418 11.5067 34.2029 11.7813L33.1473 12.3191ZM40.09 20.6701L41.4578 18.7873C41.8135 18.2978 42.4437 18.093 43.019 18.28C43.5944 18.4669 43.984 19.003 43.984 19.608V21.9354L46.1974 22.6546C46.7727 22.8415 47.1622 23.3776 47.1622 23.9826C47.1622 24.5875 46.7727 25.1236 46.1974 25.3106L43.984 26.0297V28.3571C43.984 28.9621 43.5944 29.4982 43.019 29.6851C42.4437 29.8721 41.8135 29.6673 41.4578 29.1778L40.09 27.295L37.8764 28.0142C37.3011 28.2011 36.6709 27.9963 36.3154 27.5069C35.9597 27.0175 35.9597 26.3548 36.3154 25.8654L37.6833 23.9826L36.3154 22.0997C35.9597 21.6103 35.9597 20.9476 36.3154 20.4582C36.6709 19.9688 37.3011 19.764 37.8764 19.9509L40.09 20.6701ZM38.7174 22.2034L39.4137 23.1618C39.7693 23.6511 39.7693 24.3138 39.4137 24.8033L38.7174 25.7617L39.8441 25.3956C40.4194 25.2087 41.0496 25.4135 41.4053 25.9029L42.1016 26.8614V25.6767C42.1016 25.0717 42.4911 24.5356 43.0664 24.3487L44.1931 23.9826L43.0664 23.6164C42.4911 23.4295 42.1016 22.8934 42.1016 22.2884V21.1037L41.4053 22.0622C41.0496 22.5516 40.4194 22.7564 39.8441 22.5695L38.7174 22.2034Z" fill="black"/>
</svg>
