<svg width="60" height="60" viewBox="0 0 60 60" fill="none" xmlns="http://www.w3.org/2000/svg">
<g clip-path="url(#clip0_2210_173)">
<mask id="mask0_2210_173" style="mask-type:luminance" maskUnits="userSpaceOnUse" x="0" y="0" width="60" height="61">
<path d="M60 0.00146484H0V60.0015H60V0.00146484Z" fill="white"/>
<path d="M13.6359 28.8313C13.6219 28.8301 13.6078 28.8301 13.5937 28.8301C12.9469 28.8301 12.4219 29.3551 12.4219 30.002C12.4219 30.6488 12.9469 31.1738 13.5937 31.1738C13.6078 31.1738 13.6219 31.1738 13.6348 31.1727C14.2629 31.1516 14.7656 30.6348 14.7656 30.002C14.7656 29.3691 14.2641 28.8535 13.6359 28.8313Z" fill="white"/>
</mask>
<g mask="url(#mask0_2210_173)">
<mask id="mask1_2210_173" style="mask-type:luminance" maskUnits="userSpaceOnUse" x="0" y="0" width="60" height="61">
<path d="M0 0.00342178H60V60.0034H0V0.00342178Z" fill="white"/>
</mask>
<g mask="url(#mask1_2210_173)">
<path d="M13.6359 28.8332C13.6219 28.832 13.6078 28.832 13.5937 28.832C12.9469 28.832 12.4219 29.357 12.4219 30.0039C12.4219 30.6508 12.9469 31.1758 13.5937 31.1758C13.6078 31.1758 13.6219 31.1758 13.6348 31.1746C14.2629 31.1535 14.7656 30.6367 14.7656 30.0039C14.7656 29.3711 14.2641 28.8555 13.6359 28.8332Z" fill="black"/>
<path d="M14.2617 25.3633C16.2844 18.486 22.6279 13.5977 30.0023 13.5977C39.0633 13.5977 46.4086 20.943 46.4086 30.0039C46.4086 39.238 38.8843 46.4102 30.0023 46.4102C22.912 46.4102 16.3923 41.8255 14.2617 34.6445" stroke="black" stroke-width="2.34375" stroke-linecap="round" stroke-linejoin="round"/>
<path d="M26.4844 58.832H33.5156L34.8293 52.873C37.6699 52.2918 40.357 51.1844 42.7875 49.6094L48.1043 53.0805L53.0766 48.1082L49.6383 42.8465C51.2637 40.3984 52.3969 37.675 53.0027 34.8004L58.8281 33.5195V26.4883L53.0473 25.2191C52.4578 22.3094 51.3199 19.5555 49.6887 17.077L53.0766 11.8996L48.1043 6.92734L42.927 10.3152C40.4484 8.68398 37.6945 7.54609 34.7848 6.95664L33.5156 1.17578H26.4844L25.2152 6.95664C22.3055 7.54609 19.5516 8.68398 17.073 10.3152L11.8957 6.92734L6.92344 11.8996L10.3113 17.077C8.68008 19.5555 7.54219 22.3094 6.95156 25.2191L1.17188 26.4883V33.5195L6.99727 34.8004C7.60313 37.675 8.73516 40.3984 10.3617 42.8465L6.92344 48.1082L11.8957 53.0805L17.2125 49.6094C19.643 51.1844 22.3301 52.2918 25.1707 52.873L26.4844 58.832Z" stroke="black" stroke-width="2.34375" stroke-linecap="round" stroke-linejoin="round"/>
<path d="M33.5156 24.1445C33.5156 26.0863 31.9418 27.6602 30 27.6602C28.0582 27.6602 26.4844 26.0863 26.4844 24.1445C26.4844 22.2027 28.0582 20.6289 30 20.6289C31.9418 20.6289 33.5156 22.2027 33.5156 24.1445Z" stroke="black" stroke-width="2.34375" stroke-linecap="round" stroke-linejoin="round"/>
<path d="M30 27.6602V46.4102" stroke="black" stroke-width="2.34375" stroke-linecap="round" stroke-linejoin="round"/>
<path d="M39.375 27.6602V30.0039L34.6875 34.6914V45.7305" stroke="black" stroke-width="2.34375" stroke-linecap="round" stroke-linejoin="round"/>
<path d="M20.625 27.6602V30.0039L25.3125 34.6914V45.7305" stroke="black" stroke-width="2.34375" stroke-linecap="round" stroke-linejoin="round"/>
</g>
</g>
</g>
<defs>
<clipPath id="clip0_2210_173">
<rect width="60" height="60" fill="white"/>
</clipPath>
</defs>
</svg>
