<svg xmlns="http://www.w3.org/2000/svg" width="72" height="72" fill="none"><rect width="72" height="72" fill="#fff" rx="36"/><path fill="#377D7D" d="M26.137 40.287c.167-.571.31-1.057.482-1.65-.026-.02-.15-.096-.254-.195-.589-.565-1.017-1.224-1.163-2.034-.308-1.711.766-2.991 2.57-3.06 1.207-.049 2.201.42 3.022 1.28q.15.16.291.318c1.786-1.058 3.956.242 4.538 2.256.27.02.55.01.819.066.917.189 1.471.808 1.835 1.617.145.323.274.666.335 1.012.056.317.183.401.495.4 2.159-.013 4.316-.006 6.475-.006h9.154c.965 0 1.275.307 1.258 1.256-.041 2.304-.49 4.516-1.583 6.567-1.538 2.884-3.976 4.508-7.204 4.994-.551.083-1.109.125-1.532.172-.363.63-.626 1.243-1.029 1.746-.592.739-1.44 1.087-2.391 1.089q-6.255.017-12.511 0c-1.525-.004-2.815-1.05-3.193-2.525a4 4 0 0 0-.056-.197c-1.203-.238-2.376-.37-3.484-.711-3.012-.929-4.927-3.026-6.038-5.896-.662-1.724-.963-3.516-.973-5.357-.004-.79.332-1.138 1.138-1.14q4.298-.004 8.593-.002zm28.926.984H16.937c.041.65.082 1.263.125 1.923h29.261c.159 0 .322-.012.478.018.27.05.467.235.385.499-.053.17-.26.321-.433.419-.111.062-.286.016-.433.016H17.285c0 .106-.012.172.002.234.399 1.905 1.103 3.673 2.442 5.134 1.783 1.943 4.088 2.757 6.655 2.776 6.41.048 12.822.04 19.232.003 2.168-.013 4.182-.615 5.88-2.035 1.624-1.358 2.511-3.15 3.05-5.143.08-.302.136-.611.214-.968h-.49c-1.253 0-2.506-.003-3.759 0-.331.002-.565-.13-.566-.468-.001-.337.24-.477.563-.484q.14-.002.28 0h4.149l.126-1.923m-17.384-.987c-.049-.614-.349-1.297-.701-1.67-.372-.392-.83-.513-1.348-.414-.698.131-.743.1-.91-.6-.217-.901-.718-1.587-1.605-1.94-.636-.254-1.219-.202-1.707.345-.279.312-.59.277-.828-.061-.083-.12-.154-.248-.242-.364-.77-1.002-1.758-1.478-3.035-1.203-.857.183-1.316.886-1.172 1.747.155.925.712 1.57 1.462 2.086.418.288.421.536.083.905-.174.19-.335.416-.421.655-.15.41-.05.52.39.52q2.179.002 4.358 0c.111 0 .223-.015.433-.031-.246-.149-.408-.236-.559-.34-1.035-.72-2.07-1.44-3.1-2.169-.267-.188-.402-.438-.177-.745.18-.248.48-.236.799.026 1.5 1.244 3.166 2.235 4.887 3.142.093.049.195.11.295.11 1.024.009 2.047.005 3.098.005zM27.467 53.283c.062.188.095.357.17.506.465.911 1.218 1.375 2.247 1.375 3.745.003 7.489 0 11.234 0 .4 0 .8.01 1.2-.006 1.086-.044 2.075-.899 2.171-1.876H27.466zM50.327 31.332c-.034 2.342-1.154 3.946-3.18 5.05-1.567.854-3.096.888-4.74.226-3.091-1.245-4.427-3.919-4.581-6.419-.024-.39.117-.613.487-.75 1.903-.715 3.836-1.087 5.859-.555.09.023.229.016.292-.038q1.4-1.207 2.786-2.432c.106-.096.183-.225.269-.344.328-.456.621-.462.97-.01a8.1 8.1 0 0 1 1.493 3.127c.162.704.233 1.43.345 2.145m-5.665 4.477c1.117-1.645 2.795-6.79 2.633-8.028-.708.575-1.43 1.135-2.122 1.73-.746.64-1.352 1.392-1.578 2.374-.338 1.475.25 2.71 1.068 3.924m-1.07.133c-.558-.933-.974-1.867-1.052-2.924-.008-.096-.134-.213-.233-.268-1.037-.566-2.08-1.122-3.121-1.68-.086-.045-.176-.084-.282-.133.352 2.47 2.412 4.675 4.688 5.005m3.606-3.126c.607-.289 1.207-.583 1.814-.862.227-.103.288-.261.29-.499a7.7 7.7 0 0 0-.474-2.751c-.12-.324-.269-.635-.401-.945zm-1.415 3.049c1.273-.173 3.028-1.707 3.183-2.747-.708.256-1.43.516-2.15.784a.4.4 0 0 0-.197.17c-.284.594-.557 1.191-.836 1.793m-2.236-6.182-1.467-.11.437 2.253 1.03-2.142m-2.129 1.567-.304-1.6-1.636.38-.008.103zM27.714 17.694c-.037 1.918-1.434 3.61-3.306 3.971-1.942.374-3.877-.652-4.613-2.448-.243-.595-.152-.782.478-.983q3.191-1.012 6.381-2.025c.582-.184.767-.087.906.511.074.32.105.649.155.974zm-1.05-.518c-.29.238-.795.015-.809.614-.022.974-.666 1.77-1.59 2.056a2.3 2.3 0 0 1-2.495-.798c-.063-.08-.131-.156-.193-.23-.15.048-.278.087-.403.129q-.18.06-.364.127c.667 1.365 2.258 2.028 3.723 1.57a3.09 3.09 0 0 0 2.133-3.468zm-1.798.601-2.156.685c-.036.012-.067.041-.1.063.382.439.904.579 1.434.387.498-.182.802-.584.822-1.135M43.8 22.803c-.066.424-.098.848-.202 1.254-.23.908-1.017 1.29-1.924.965-.905-.325-1.264-1.111-.865-1.96.173-.366.413-.701.633-1.068-.236-.135-.484-.258-.712-.41q-.976-.653-.769-1.813c.32-1.81 1.723-2.766 3.549-2.41.862.167 1.66.48 2.333 1.054 1.212 1.036 1.287 2.94.165 4.073-.492.497-1.105.523-1.745.422-.157-.025-.31-.07-.462-.105zm-.945-4.566c-.163.008-.27.008-.375.02-.834.088-1.487.804-1.586 1.737-.06.55.268.878 1.176 1.178q.038.01.077.021c.658.21.742.461.348 1.037-.27.393-.558.775-.797 1.184-.191.327-.061.585.297.71.39.137.656-.003.714-.426.064-.471.071-.948.121-1.421.065-.62.298-.75.88-.54.273.1.554.191.839.24.304.054.606.04.839-.233.694-.816.592-2.029-.259-2.682a4.07 4.07 0 0 0-2.274-.826zM26.338 29.445c-.5.034-.974.117-1.438.077-.28-.024-.59-.189-.806-.38-.964-.855-1.166-2.443-.484-3.522.773-1.218 2.911-2.077 4.32-1.733 1.23.3 2.192 1.571 2.131 2.826-.027.57-.322.997-.776 1.32-.214.151-.444.28-.667.418.22.314.451.606.638.923.293.495.403 1.015.029 1.523-.424.578-1.013.802-1.715.687-.604-.098-.894-.535-1.032-1.08-.093-.365-.14-.741-.2-1.062zm.866-4.683c-.795.003-1.953.453-2.487 1.027a2.1 2.1 0 0 0-.494.837c-.192.69.012 1.338.53 1.81.443.405.955.101 1.429-.057.074-.025.144-.068.216-.1.5-.216.759-.085.845.45.078.481.105.973.208 1.448.037.174.22.438.348.445.22.01.499-.1.652-.257.087-.09.036-.41-.06-.559-.27-.422-.602-.803-.898-1.21-.287-.396-.19-.681.255-.87.328-.14.679-.26.958-.472.188-.142.37-.42.379-.645.038-1.017-.842-1.855-1.88-1.85z"/><path fill="#377D7D" d="M16.063 35.017c-.006-1.952 1.57-3.529 3.54-3.542 1.952-.014 3.567 1.568 3.586 3.51.018 1.945-1.61 3.571-3.573 3.569a3.56 3.56 0 0 1-3.555-3.537zm3.543-2.59a2.584 2.584 0 0 0-2.584 2.619 2.6 2.6 0 0 0 2.613 2.557c1.438-.015 2.618-1.209 2.594-2.625a2.61 2.61 0 0 0-2.623-2.55zM52.453 25.254c-1.967.006-3.568-1.566-3.577-3.509-.008-1.958 1.604-3.566 3.573-3.561 1.957.003 3.55 1.59 3.551 3.538a3.533 3.533 0 0 1-3.547 3.532m-.022-.952c1.441.005 2.598-1.127 2.608-2.55a2.593 2.593 0 0 0-2.59-2.616c-1.421-.006-2.602 1.15-2.615 2.56a2.59 2.59 0 0 0 2.596 2.606zM33.646 25.727c-.687-.003-.873-.175-.928-.85-.126-1.58 1.188-2.828 2.71-2.595.33.05.488.218.56.518.362 1.507-.779 2.934-2.341 2.927zm1.422-2.486c-.885.009-1.497.702-1.353 1.508.82.001 1.41-.643 1.353-1.508M51.74 35.584c.001-.683.262-1.252.75-1.728.203-.197.414-.242.686-.13 1.585.65 1.95 2.82.662 3.94-.206.179-.408.207-.657.104a2.37 2.37 0 0 1-1.442-2.185m1.262-.844c-.525.71-.352 1.627.364 1.994.507-.682.367-1.507-.364-1.994M20.46 27.156c-.068.28-.11.567-.207.837-.217.606-.43.711-1.056.571-1.508-.336-2.294-2.025-1.594-3.392.173-.337.413-.444.774-.389 1.184.18 2.045 1.172 2.082 2.374m-2.068-1.348c-.238.867.158 1.582.963 1.779a1.298 1.298 0 0 0-.963-1.78M31.751 30.91a1.42 1.42 0 0 1 1.416-1.422c.793-.01 1.462.648 1.459 1.432-.004.788-.666 1.427-1.47 1.415a1.41 1.41 0 0 1-1.405-1.425m1.426.47c.31-.021.484-.192.477-.478-.008-.288-.198-.464-.495-.45-.274.01-.442.174-.443.455-.002.302.176.448.461.473M53.437 27.689a1.42 1.42 0 0 1 1.4 1.436c-.014.79-.695 1.441-1.477 1.413a1.43 1.43 0 0 1-1.392-1.45c.009-.803.653-1.416 1.469-1.4m.438 1.407c-.04-.282-.188-.46-.494-.45-.282.01-.44.174-.446.45-.008.303.176.477.463.479.291.002.453-.183.478-.48zM54.124 53.789c-.151-.064-.266-.083-.339-.149-.226-.203-.483-.398-.635-.65-.088-.147-.073-.472.036-.585s.442-.145.585-.06c.265.16.488.41.676.661.082.11.09.337.033.47-.055.132-.235.213-.356.314zM54.578 51.55c-.16-.008-.349.036-.47-.035-.159-.094-.36-.276-.365-.426-.005-.152.184-.417.327-.446a2.5 2.5 0 0 1 1.02-.005c.15.033.336.307.339.474.003.138-.218.32-.381.406-.123.066-.311.013-.47.013zM52.31 53.833c-.014.17.03.38-.055.5-.112.157-.327.331-.496.33-.138 0-.353-.228-.395-.39-.068-.26-.026-.55-.022-.826.004-.3.173-.477.465-.486.276-.008.44.17.478.437.02.142.004.29.004.435h.02M49.047 43.659c-.022.302-.168.482-.472.485-.306.003-.473-.183-.473-.468 0-.27.177-.45.448-.46.292-.012.462.16.496.444z"/><path fill="#377D7D" d="M19.63 36.435a1.445 1.445 0 0 1-1.452-1.425c0-.78.663-1.435 1.451-1.43a1.43 1.43 0 0 1 1.423 1.408c.009.8-.621 1.441-1.421 1.446zm.464-1.448c-.04-.288-.207-.46-.503-.444-.274.015-.447.196-.442.466.004.288.18.474.48.467.297-.007.448-.191.465-.489M52.464 20.309c.79.008 1.42.639 1.418 1.42a1.45 1.45 0 0 1-1.46 1.43 1.433 1.433 0 0 1-1.41-1.433c0-.805.637-1.427 1.452-1.417m.455 1.4c-.046-.285-.199-.46-.505-.44-.303.018-.45.204-.433.499.016.283.205.433.47.428.292-.006.449-.194.468-.486"/></svg>