<svg width="180" height="180" viewBox="0 0 180 180" fill="none" xmlns="http://www.w3.org/2000/svg">
<path d="M70.1452 123.503H43.5964C40.2913 123.503 37.8439 120.8 38.1627 117.495L40.9245 88.8083C41.2433 85.5032 44.2071 82.7998 47.5123 82.7998H74.0611C77.3662 82.7998 79.8136 85.5032 79.4948 88.8083L76.733 117.495C76.4142 120.8 73.4503 123.503 70.1452 123.503Z" fill="white"/>
<path d="M70.1457 123.755H43.5969C41.9308 123.755 40.422 123.104 39.3442 121.918C38.262 120.723 37.7545 119.147 37.9162 117.472L40.6779 88.7859C41.0102 85.346 44.0774 82.5483 47.5172 82.5483H74.066C75.7321 82.5483 77.2409 83.1995 78.3187 84.385C79.4009 85.5795 79.9084 87.1558 79.7467 88.8308L76.9849 117.517C76.6526 120.957 73.5855 123.755 70.1457 123.755ZM47.5172 83.0468C44.3288 83.0468 41.4863 85.6424 41.1764 88.8308L38.4146 117.517C38.2665 119.048 38.729 120.494 39.7169 121.581C40.6959 122.659 42.0745 123.256 43.5969 123.256H70.1457C73.334 123.256 76.1766 120.661 76.4865 117.472L79.2482 88.7859C79.3964 87.2546 78.9339 85.8086 77.946 84.7218C76.967 83.6441 75.5883 83.0468 74.066 83.0468H47.5172Z" fill="black"/>
<path d="M69.6288 108.387L66.6829 101.144L65.704 98.737C65.3672 97.9107 64.4376 97.52 63.535 97.8254C62.4527 98.1936 61.851 99.3971 62.2551 100.39L61.7612 99.1726C61.4244 98.3463 60.4948 97.9556 59.5922 98.261C58.5099 98.6292 57.9082 99.8327 58.3123 100.825L55.0207 92.724C54.6839 91.8977 53.7543 91.507 52.8517 91.8124C51.7694 92.1806 51.1677 93.3841 51.5719 94.3766L51.8323 95.0187C51.4955 94.1924 50.5659 93.8018 49.6633 94.1071C48.5811 94.4754 47.9793 95.6789 48.3835 96.6713L51.5135 104.368L53.6196 111.495C53.1885 111.594 52.5194 111.639 51.5225 111.477C49.4074 111.131 46.457 112.209 46.9465 114.324C47.1441 115.182 49.8968 115.047 50.8578 115.572C51.8188 116.098 56.9562 118.15 59.4305 118.083C59.911 118.527 60.6116 118.635 61.2043 118.352L68.9148 114.656C69.31 114.468 69.6063 114.122 69.7456 113.709C70.3383 111.922 70.3024 110.036 69.6288 108.383V108.387Z" fill="#1E1E1E"/>
<path d="M70.2652 94.1342C70.2428 94.1342 70.2203 94.1342 70.1934 94.1252L61.5174 91.6105C61.3827 91.5745 61.3063 91.4353 61.3468 91.3006C61.3872 91.1659 61.5264 91.0895 61.6566 91.13L70.3326 93.6447C70.4673 93.6807 70.5436 93.8199 70.5032 93.9546C70.4718 94.0624 70.373 94.1342 70.2607 94.1342H70.2652Z" fill="#FF5225"/>
<path d="M62.4295 90.0522L59.5195 90.7663L61.5942 92.9308L62.4295 90.0522Z" fill="#FF5225"/>
<path d="M127.61 145.117H88.0964C84.7913 145.117 82.3439 142.414 82.6627 139.108L90.3013 59.7449C90.6202 56.4398 93.584 53.7319 96.8891 53.7319H136.402C139.708 53.7319 142.155 56.4353 141.836 59.7449L134.198 139.108C133.879 142.414 130.915 145.117 127.61 145.117Z" fill="white"/>
<path d="M127.604 145.364H88.091C86.425 145.364 84.9161 144.713 83.8384 143.527C82.7561 142.333 82.2487 140.757 82.4103 139.081L90.0489 59.718C90.3813 56.2782 93.4484 53.4805 96.8882 53.4805H136.402C138.068 53.4805 139.576 54.1316 140.654 55.3171C141.736 56.5117 142.244 58.0879 142.082 59.7629L134.444 139.126C134.111 142.566 131.044 145.364 127.604 145.364ZM96.8882 53.9789C93.6998 53.9789 90.8573 56.5745 90.5474 59.7629L82.9088 139.126C82.7606 140.658 83.2231 142.104 84.2111 143.19C85.19 144.268 86.5687 144.865 88.091 144.865H127.604C130.793 144.865 133.635 142.27 133.945 139.081L141.584 59.718C141.732 58.1867 141.269 56.7407 140.281 55.6539C139.303 54.5762 137.924 53.9789 136.402 53.9789H96.8882Z" fill="black"/>
<path opacity="0.1" d="M95.4209 145.117H88.5547L110.577 53.7271H117.439L95.4209 145.117Z" fill="#407BFF"/>
<path opacity="0.1" d="M107.338 145.117H97.6562L119.674 53.7271H129.356L107.338 145.117Z" fill="#407BFF"/>
<path d="M107.266 142.081C106.475 142.081 105.761 141.771 105.254 141.214C104.742 140.653 104.504 139.903 104.58 139.108C104.738 137.496 106.175 136.185 107.787 136.185C108.577 136.185 109.291 136.494 109.799 137.051C110.31 137.613 110.548 138.363 110.472 139.157C110.315 140.77 108.878 142.081 107.266 142.081ZM107.787 136.683C106.426 136.683 105.209 137.792 105.079 139.153C105.016 139.804 105.209 140.415 105.627 140.873C106.04 141.326 106.624 141.578 107.27 141.578C108.631 141.578 109.848 140.469 109.978 139.108C110.041 138.457 109.848 137.846 109.43 137.388C109.017 136.935 108.433 136.683 107.787 136.683Z" fill="#263238"/>
<path d="M125.602 145.364V144.861C128.79 144.861 131.633 142.265 131.942 139.077L139.581 59.7132C139.729 58.1819 139.267 56.7359 138.279 55.6492C137.3 54.5714 135.921 53.9741 134.399 53.9741V53.4712C136.065 53.4712 137.574 54.1223 138.651 55.3079C139.734 56.5024 140.241 58.0786 140.079 59.7536L132.441 139.117C132.109 142.557 129.041 145.355 125.602 145.355V145.364Z" fill="black"/>
<path d="M97.821 75.5964H71.2722C67.9671 75.5964 65.5196 72.8931 65.8385 69.5879L68.6002 40.9016C68.9191 37.5964 71.8829 34.8931 75.188 34.8931H101.737C105.042 34.8931 107.489 37.5964 107.171 40.9016L104.409 69.5879C104.09 72.8931 101.126 75.5964 97.821 75.5964Z" fill="white"/>
<path d="M97.8215 75.848H71.2726C69.6066 75.848 68.0978 75.1969 67.02 74.0113C65.9377 72.8168 65.4303 71.2406 65.592 69.5611L68.3537 40.8747C68.686 37.4349 71.7532 34.6372 75.193 34.6372H101.742C103.408 34.6372 104.917 35.2884 105.994 36.4739C107.077 37.6684 107.584 39.2446 107.422 40.9196L104.661 69.606C104.328 73.0458 101.261 75.8435 97.8215 75.8435V75.848ZM75.193 35.1357C72.0046 35.1357 69.162 37.7313 68.8522 40.9196L66.0904 69.606C65.9422 71.1373 66.4048 72.5833 67.3927 73.6701C68.3717 74.7478 69.7503 75.3451 71.2726 75.3451H97.8215C101.01 75.3451 103.852 72.7495 104.162 69.5611L106.924 40.8747C107.072 39.3434 106.61 37.8974 105.622 36.8107C104.643 35.7329 103.264 35.1357 101.742 35.1357H75.193Z" fill="black"/>
<path d="M84.3441 47.5437C83.4729 47.5437 82.6825 47.2024 82.1212 46.5872C81.5554 45.9675 81.2949 45.1412 81.3757 44.2655C81.5464 42.4827 83.1361 41.0322 84.9189 41.0322C85.7901 41.0322 86.5804 41.3735 87.1418 41.9887C87.7076 42.6084 87.968 43.4347 87.8872 44.3104C87.7166 46.0932 86.1269 47.5437 84.3441 47.5437ZM84.9234 41.5352C83.3921 41.5352 82.0269 42.7836 81.8787 44.3149C81.8069 45.0469 82.0269 45.7384 82.4939 46.2504C82.9565 46.7623 83.6166 47.0452 84.3441 47.0452C85.8754 47.0452 87.2406 45.7968 87.3888 44.2655C87.4606 43.5335 87.2406 42.842 86.7735 42.33C86.311 41.8181 85.6509 41.5352 84.9234 41.5352Z" fill="#263238"/>
<path d="M84.1521 49.5464C82.7465 49.5464 81.4756 48.9986 80.573 48.0061C79.6659 47.0047 79.2393 45.6755 79.374 44.2654C79.6524 41.3779 82.2256 39.0293 85.1131 39.0293C86.5186 39.0293 87.7895 39.5772 88.6921 40.5696C89.5992 41.571 90.0259 42.9002 89.8911 44.3103C89.6127 47.1978 87.0396 49.5464 84.1521 49.5464ZM85.1176 39.5278C82.4815 39.5278 80.1284 41.6743 79.877 44.3103C79.7557 45.5812 80.1329 46.7757 80.9457 47.6693C81.7541 48.5585 82.8902 49.048 84.1521 49.048C86.7881 49.048 89.1412 46.9014 89.3927 44.2654C89.5139 42.9946 89.1367 41.8 88.3239 40.9064C87.5156 40.0172 86.3794 39.5278 85.1176 39.5278Z" fill="#FF5225"/>
<path d="M95.0774 53.022C93.9906 52.8828 92.9308 53.7405 92.8275 54.8497L92.9578 53.489C93.0476 52.5639 92.4324 51.7826 91.5253 51.6613C90.4385 51.5221 89.3787 52.3798 89.2754 53.489L89.3563 52.6493C89.4461 51.7242 88.8309 50.9428 87.9238 50.8216C86.837 50.6824 85.7772 51.5401 85.6739 52.6493L85.6605 52.7705L86.3969 45.1409C86.4867 44.2158 85.8715 43.4344 84.9644 43.3132C83.8777 43.174 82.8179 44.0317 82.7146 45.1409L81.8838 53.7585L80.4423 61.3791C80.0292 61.2758 79.4409 61.0199 78.6685 60.4226C77.0249 59.1473 74.0296 58.8329 73.4908 61.0333C73.2707 61.9225 75.6732 63.0362 76.2525 63.9568C76.8318 64.8773 80.2672 69.1076 82.4047 70.1584C82.6068 70.7826 83.1906 71.2092 83.8462 71.2092H92.0103C92.4369 71.2092 92.841 71.0296 93.1329 70.7197C94.4577 69.3096 95.2929 67.5134 95.4726 65.6542L96.0743 59.4257L96.3123 56.9468L96.4066 55.9679L96.5144 54.8542C96.6042 53.9291 95.989 53.1477 95.0819 53.0265L95.0774 53.022Z" fill="#1E1E1E"/>
<path d="M116.542 101.211C116.385 100.461 116.156 99.738 115.855 99.0599L116.587 97.2412L113.34 93.6486L111.467 94.2055C110.821 93.8417 110.129 93.5409 109.402 93.3118L108.67 91.6323H103.591L102.535 93.3118C101.763 93.5409 101.013 93.8417 100.299 94.2055L98.5342 93.6486L94.5959 97.2412L94.9776 99.0599C94.5465 99.7425 94.1782 100.461 93.8774 101.211L92.1125 102.105L91.623 107.183L93.2127 108.077C93.3699 108.827 93.5989 109.55 93.8998 110.228L93.1678 112.047L96.4146 115.639L98.2872 115.083C98.9338 115.446 99.6254 115.747 100.353 115.976L101.085 117.656H106.164L107.219 115.976C107.992 115.747 108.741 115.446 109.455 115.083L111.22 115.639L115.159 112.047L114.777 110.228C115.208 109.546 115.576 108.827 115.877 108.077L117.642 107.183L118.131 102.105L116.542 101.211ZM104.305 110.61C101.009 110.61 98.5971 107.938 98.9114 104.646C99.2302 101.35 102.158 98.6827 105.45 98.6827C108.741 98.6827 111.157 101.355 110.843 104.646C110.524 107.942 107.596 110.61 104.305 110.61Z" fill="#FF5225"/>
<path d="M130.445 83.4954L129.287 83.3831C129.017 83.0059 128.707 82.6646 128.366 82.3637V81.1962L125.582 79.9927L124.603 80.7426C124.131 80.6932 123.651 80.6932 123.161 80.7426L122.326 79.9972L119.308 81.2007L119.084 82.3727C118.68 82.6781 118.302 83.0194 117.966 83.3921L116.785 83.5044L115.303 86.4053L115.963 87.3125C115.868 87.7885 115.824 88.269 115.824 88.754L114.988 89.6611L115.909 92.562L117.067 92.6743C117.337 93.0515 117.647 93.3928 117.988 93.6937V94.8613L120.772 96.0648L121.751 95.3148C122.223 95.3642 122.703 95.3642 123.193 95.3148L124.028 96.0648L127.046 94.8613L127.27 93.6892C127.674 93.3793 128.052 93.038 128.388 92.6698L129.569 92.5575L131.051 89.6566L130.391 88.7495C130.486 88.2735 130.53 87.793 130.53 87.308L131.366 86.4009L130.445 83.4999V83.4954ZM124.85 93.285C121.828 94.4885 118.63 93.1099 117.705 90.2044C116.78 87.299 118.482 83.9669 121.504 82.7634C124.526 81.5599 127.724 82.9386 128.649 85.844C129.574 88.7495 127.872 92.0815 124.85 93.285Z" fill="#263238"/>
</svg>
