<svg width="180" height="180" viewBox="0 0 180 180" fill="none" xmlns="http://www.w3.org/2000/svg">
<path d="M119.495 152.928H79.88C77.4262 152.928 75.6126 150.939 75.8302 148.49L86.0635 31.5104C86.2769 29.0566 88.4405 27.0723 90.89 27.0723H130.505C132.958 27.0723 134.768 29.0609 134.554 31.5104L124.321 148.49C124.108 150.943 121.944 152.928 119.495 152.928Z" fill="#FF5225"/>
<path opacity="0.4" d="M119.495 152.928H79.88C77.4262 152.928 75.6126 150.939 75.8302 148.49L86.0635 31.5104C86.2769 29.0566 88.4405 27.0723 90.89 27.0723H130.505C132.958 27.0723 134.768 29.0609 134.554 31.5104L124.321 148.49C124.108 150.943 121.944 152.928 119.495 152.928Z" fill="white"/>
<path d="M115.227 152.928H75.6124C73.1587 152.928 71.345 150.939 71.5626 148.49L81.796 31.5104C82.0093 29.0566 84.1729 27.0723 86.6224 27.0723H126.237C128.691 27.0723 130.5 29.0609 130.287 31.5104L120.054 148.49C119.84 150.943 117.677 152.928 115.227 152.928Z" fill="#263238"/>
<path d="M115.227 152.928H75.6124C73.1587 152.928 71.345 150.939 71.5626 148.49L81.796 31.5104C82.0093 29.0566 84.1729 27.0723 86.6224 27.0723H126.237C128.691 27.0723 130.5 29.0609 130.287 31.5104L120.054 148.49C119.84 150.943 117.677 152.928 115.227 152.928Z" fill="#263238"/>
<path opacity="0.4" d="M128.669 31.284L118.414 148.485C118.329 149.45 117.727 150.196 117.061 150.196H74.1221C73.5076 150.196 73.1064 149.509 73.1832 148.626L83.4635 31.1432C83.5318 30.3751 83.9799 29.7051 84.5133 29.7051H95.2459C95.5489 29.7051 95.8007 29.991 95.8775 30.4007L96.1847 31.9796C96.2616 32.3893 96.5133 32.671 96.8163 32.671H115.09C115.392 32.671 115.691 32.4021 115.841 31.9924L116.425 30.4049C116.575 29.9953 116.873 29.7051 117.176 29.7051H127.755C128.34 29.7051 128.745 30.4391 128.669 31.284Z" fill="white"/>
<path d="M128.172 37.0283L119.372 137.591H74.1543L82.9495 37.0283H128.172Z" fill="#FF5225"/>
<path opacity="0.6" d="M88.1582 34.4299H88.7172L88.8111 33.3545H88.2521L88.1582 34.4299Z" fill="white"/>
<path opacity="0.6" d="M87.248 34.4295H87.8071L87.9308 32.9956H87.3761L87.248 34.4295Z" fill="white"/>
<path opacity="0.6" d="M86.3418 34.4295H86.9008L87.0545 32.6372H86.4997L86.3418 34.4295Z" fill="white"/>
<path opacity="0.6" d="M85.4316 34.4296H85.9864L86.1784 32.2788H85.6194L85.4316 34.4296Z" fill="white"/>
<path opacity="0.6" d="M123.315 34.0373H122.982L123.076 32.9619H123.409L123.315 34.0373Z" fill="white"/>
<path opacity="0.6" d="M123.508 34.4299H126.145L126.307 32.5693H123.67L123.508 34.4299Z" fill="white"/>
<path opacity="0.6" d="M106.18 29.8586C106.138 30.3536 105.826 30.7547 105.48 30.7547C105.135 30.7547 104.896 30.3536 104.939 29.8586C104.981 29.3635 105.293 28.9624 105.638 28.9624C105.984 28.9624 106.223 29.3635 106.18 29.8586Z" fill="#263238"/>
<path opacity="0.6" d="M107.436 29.8585C107.406 30.1742 107.21 30.4303 106.988 30.4303C106.766 30.4303 106.613 30.1742 106.642 29.8585C106.668 29.5427 106.869 29.2866 107.09 29.2866C107.312 29.2866 107.466 29.5427 107.436 29.8585Z" fill="#263238"/>
<path d="M128.166 37.0283L126.945 50.9786L126.736 53.3854L125.759 64.5619L125.605 66.2987L124.218 82.1437L124.069 83.8806L122.738 99.094L122.546 101.283L119.371 137.591H74.1484L82.9479 37.0283H128.166Z" fill="#263238"/>
<path opacity="0.5" d="M83.5034 68.095C83.5503 68.1334 83.6058 68.1505 83.6655 68.1505C83.7509 68.1505 83.8405 68.1121 83.9002 68.0353C84.0027 67.9115 83.9898 67.7366 83.8746 67.647L83.1022 67.041L83.977 66.435C84.1093 66.3454 84.152 66.1704 84.0667 66.0467C83.9856 65.9229 83.8106 65.8973 83.6783 65.9869L82.4792 66.8191C82.4024 66.8703 82.3554 66.9556 82.3469 67.0452C82.3383 67.1349 82.3768 67.2159 82.4408 67.2714L83.5034 68.0993V68.095Z" fill="white"/>
<path opacity="0.5" d="M87.3778 67.0369L86.503 67.6429C86.3707 67.7325 86.328 67.9075 86.4134 68.0313C86.4603 68.1038 86.5414 68.1465 86.631 68.1465C86.6907 68.1465 86.7505 68.1294 86.8017 68.091L88.0008 67.2589C88.0777 67.2076 88.1246 67.1223 88.1331 67.0327C88.1417 66.9431 88.1033 66.862 88.0392 66.8065L86.9767 65.9786C86.8614 65.889 86.6822 65.9146 86.5798 66.0384C86.4774 66.1621 86.4902 66.3371 86.6054 66.4267L87.3778 67.0327V67.0369Z" fill="white"/>
<path opacity="0.5" d="M84.7571 68.1338C84.787 68.1466 84.8169 68.1509 84.851 68.1509C84.9662 68.1509 85.0815 68.0783 85.1327 67.9631L85.8624 66.2988C85.9264 66.1537 85.8624 65.9958 85.7216 65.9446C85.5807 65.8934 85.4143 65.9702 85.3503 66.1153L84.6206 67.7796C84.5566 67.9247 84.6206 68.0826 84.7614 68.1338H84.7571Z" fill="white"/>
<path opacity="0.5" d="M89.4189 68.2401H90.8954C91.1002 68.2401 91.2837 68.0737 91.3008 67.8688C91.3179 67.664 91.1642 67.4976 90.9594 67.4976H89.4829C89.278 67.4976 89.0945 67.664 89.0775 67.8688C89.0604 68.0737 89.214 68.2401 89.4189 68.2401Z" fill="white"/>
<path d="M94.6289 77.8805C94.646 77.6757 94.4924 77.5093 94.2875 77.5093H81.4809C81.2761 77.5093 81.0926 77.6757 81.0755 77.8805C81.0584 78.0854 81.2121 78.2518 81.4169 78.2518H94.2235C94.4283 78.2518 94.6118 78.0854 94.6289 77.8805Z" fill="white"/>
<path opacity="0.5" d="M96.2372 78.2518H100.005C100.21 78.2518 100.394 78.0854 100.411 77.8805C100.428 77.6757 100.274 77.5093 100.069 77.5093H96.3012C96.0964 77.5093 95.9129 77.6757 95.8958 77.8805C95.8788 78.0854 96.0324 78.2518 96.2372 78.2518Z" fill="white"/>
<path opacity="0.5" d="M81.6181 75.8963H86.4659C86.6707 75.8963 86.8542 75.7299 86.8713 75.5251C86.8884 75.3202 86.7348 75.1538 86.5299 75.1538H81.6821C81.4773 75.1538 81.2938 75.3202 81.2767 75.5251C81.2596 75.7299 81.4132 75.8963 81.6181 75.8963Z" fill="white"/>
<path d="M104.337 75.5251C104.354 75.3202 104.201 75.1538 103.996 75.1538H88.936C88.7312 75.1538 88.5477 75.3202 88.5306 75.5251C88.5135 75.7299 88.6671 75.8963 88.872 75.8963H103.932C104.137 75.8963 104.32 75.7299 104.337 75.5251Z" fill="white"/>
<path d="M81.8173 73.5448H90.604C90.8088 73.5448 90.9923 73.3783 91.0094 73.1735C91.0264 72.9687 90.8728 72.8022 90.668 72.8022H81.8813C81.6765 72.8022 81.493 72.9687 81.4759 73.1735C81.4588 73.3783 81.6125 73.5448 81.8173 73.5448Z" fill="white"/>
<path opacity="0.5" d="M92.2865 73.1735C92.2694 73.3783 92.423 73.5448 92.6278 73.5448H94.8042C95.0091 73.5448 95.1926 73.3783 95.2097 73.1735C95.2267 72.9687 95.0731 72.8022 94.8682 72.8022H92.6919C92.487 72.8022 92.3035 72.9687 92.2865 73.1735Z" fill="white"/>
<path opacity="0.5" d="M82.0185 71.1893H92.3969C92.6017 71.1893 92.7852 71.0229 92.8023 70.818C92.8194 70.6132 92.6657 70.4468 92.4609 70.4468H82.0825C81.8776 70.4468 81.6941 70.6132 81.6771 70.818C81.66 71.0229 81.8136 71.1893 82.0185 71.1893Z" fill="white"/>
<path d="M100.104 71.1893H108.063C108.268 71.1893 108.452 71.0229 108.469 70.818C108.486 70.6132 108.332 70.4468 108.127 70.4468H100.168C99.9636 70.4468 99.7801 70.6132 99.763 70.818C99.7459 71.0229 99.8996 71.1893 100.104 71.1893Z" fill="white"/>
<path opacity="0.5" d="M116.759 89.2744H93.6723C93.4675 89.2744 93.284 89.4408 93.2669 89.6457C93.2499 89.8505 93.4035 90.017 93.6083 90.017H116.695C116.9 90.017 117.084 89.8505 117.101 89.6457C117.118 89.4408 116.964 89.2744 116.759 89.2744Z" fill="white"/>
<path d="M121.828 89.2744H118.973C118.768 89.2744 118.585 89.4408 118.568 89.6457C118.551 89.8505 118.704 90.017 118.909 90.017H121.764C121.969 90.017 122.152 89.8505 122.169 89.6457C122.186 89.4408 122.033 89.2744 121.828 89.2744Z" fill="white"/>
<path d="M100.768 87.6659H110.063C110.268 87.6659 110.451 87.4994 110.468 87.2946C110.485 87.0898 110.332 86.9233 110.127 86.9233H100.832C100.628 86.9233 100.444 87.0898 100.427 87.2946C100.41 87.4994 100.564 87.6659 100.768 87.6659Z" fill="white"/>
<path opacity="0.5" d="M116.896 87.6654C117.101 87.6654 117.285 87.499 117.302 87.2941C117.319 87.0893 117.165 86.9229 116.96 86.9229H111.69C111.485 86.9229 111.302 87.0893 111.284 87.2941C111.267 87.499 111.421 87.6654 111.626 87.6654H116.896Z" fill="white"/>
<path opacity="0.5" d="M122.029 86.9229H119.225C119.02 86.9229 118.837 87.0893 118.82 87.2941C118.803 87.499 118.956 87.6654 119.161 87.6654H121.965C122.17 87.6654 122.353 87.499 122.37 87.2941C122.387 87.0893 122.234 86.9229 122.029 86.9229Z" fill="white"/>
<path d="M117.195 84.5674H104.764C104.559 84.5674 104.376 84.7338 104.359 84.9387C104.342 85.1435 104.495 85.3099 104.7 85.3099H117.131C117.336 85.3099 117.52 85.1435 117.537 84.9387C117.554 84.7338 117.4 84.5674 117.195 84.5674Z" fill="white"/>
<path d="M122.225 84.5674H119.387C119.182 84.5674 118.999 84.7338 118.982 84.9387C118.965 85.1435 119.118 85.3099 119.323 85.3099H122.161C122.366 85.3099 122.549 85.1435 122.566 84.9387C122.583 84.7338 122.43 84.5674 122.225 84.5674Z" fill="white"/>
<path opacity="0.5" d="M110.512 82.5876C110.529 82.3827 110.376 82.2163 110.171 82.2163H97.4965C97.2917 82.2163 97.1082 82.3827 97.0911 82.5876C97.0741 82.7924 97.2277 82.9588 97.4325 82.9588H110.107C110.312 82.9588 110.495 82.7924 110.512 82.5876Z" fill="white"/>
<path opacity="0.5" d="M112.469 82.2163C112.264 82.2163 112.081 82.3827 112.064 82.5876C112.047 82.7924 112.2 82.9588 112.405 82.9588H117.321C117.526 82.9588 117.71 82.7924 117.727 82.5876C117.744 82.3827 117.59 82.2163 117.385 82.2163H112.469Z" fill="white"/>
<path d="M122.425 82.2163H119.622C119.417 82.2163 119.233 82.3827 119.216 82.5876C119.199 82.7924 119.353 82.9588 119.558 82.9588H122.361C122.566 82.9588 122.75 82.7924 122.767 82.5876C122.784 82.3827 122.63 82.2163 122.425 82.2163Z" fill="white"/>
<path d="M113.308 80.6029H115.744C115.949 80.6029 116.133 80.4365 116.15 80.2316C116.167 80.0268 116.013 79.8604 115.808 79.8604H113.372C113.167 79.8604 112.983 80.0268 112.966 80.2316C112.949 80.4365 113.103 80.6029 113.308 80.6029Z" fill="white"/>
<path opacity="0.5" d="M117.479 80.6029H122.562C122.767 80.6029 122.95 80.4365 122.967 80.2316C122.984 80.0268 122.831 79.8604 122.626 79.8604H117.543C117.339 79.8604 117.155 80.0268 117.138 80.2316C117.121 80.4365 117.275 80.6029 117.479 80.6029Z" fill="white"/>
<path d="M85.8256 40.6473C85.8726 40.6857 85.928 40.7028 85.9878 40.7028C86.0731 40.7028 86.1628 40.6644 86.2225 40.5875C86.3249 40.4638 86.3121 40.2888 86.1969 40.1992L85.4245 39.5932L86.2993 38.9872C86.4316 38.8976 86.4743 38.7227 86.3889 38.5989C86.3078 38.4752 86.1329 38.4495 86.0006 38.5392L84.8014 39.3713C84.7246 39.4225 84.6777 39.5079 84.6691 39.5975C84.6606 39.6871 84.699 39.7682 84.763 39.8237L85.8256 40.6515V40.6473Z" fill="white"/>
<path d="M89.7001 39.5887L88.8252 40.1947C88.693 40.2843 88.6503 40.4593 88.7356 40.583C88.7826 40.6556 88.8636 40.6982 88.9533 40.6982C89.013 40.6982 89.0727 40.6812 89.124 40.6428L90.3231 39.8106C90.3999 39.7594 90.4469 39.6741 90.4554 39.5844C90.4639 39.4948 90.4255 39.4137 90.3615 39.3583L89.2989 38.5304C89.1837 38.4408 89.0045 38.4664 88.9021 38.5901C88.7996 38.7139 88.8124 38.8888 88.9277 38.9785L89.7001 39.5844V39.5887Z" fill="white"/>
<path d="M87.0778 40.6855C87.1077 40.6983 87.1375 40.7026 87.1717 40.7026C87.2869 40.7026 87.4021 40.6301 87.4491 40.5148L88.1788 38.8505C88.2428 38.7055 88.1788 38.5476 88.038 38.4963C87.8972 38.4451 87.7307 38.522 87.6667 38.667L86.937 40.3313C86.873 40.4764 86.937 40.6343 87.0778 40.6855Z" fill="white"/>
<path opacity="0.5" d="M91.7392 40.7962H93.2157C93.4205 40.7962 93.604 40.6298 93.6211 40.425C93.6382 40.2201 93.4846 40.0537 93.2797 40.0537H91.8032C91.5983 40.0537 91.4148 40.2201 91.3978 40.425C91.3807 40.6298 91.5343 40.7962 91.7392 40.7962Z" fill="white"/>
<path opacity="0.5" d="M110.628 43.7455H112.621C112.826 43.7455 113.009 43.579 113.026 43.3742C113.043 43.1694 112.89 43.0029 112.685 43.0029H110.692C110.487 43.0029 110.304 43.1694 110.286 43.3742C110.269 43.579 110.423 43.7455 110.628 43.7455Z" fill="white"/>
<path d="M89.0677 43.3698C89.0506 43.5746 89.2043 43.7411 89.4091 43.7411H108.062C108.267 43.7411 108.45 43.5746 108.468 43.3698C108.485 43.165 108.331 42.9985 108.126 42.9985H89.4731C89.2683 42.9985 89.0848 43.165 89.0677 43.3698Z" fill="white"/>
<path opacity="0.5" d="M84.3388 43.7455H87.1937C87.3985 43.7455 87.582 43.579 87.5991 43.3742C87.6162 43.1694 87.4626 43.0029 87.2577 43.0029H84.4028C84.198 43.0029 84.0145 43.1694 83.9974 43.3742C83.9803 43.579 84.1339 43.7455 84.3388 43.7455Z" fill="white"/>
<path d="M103.472 46.0965C103.676 46.0965 103.86 45.9301 103.877 45.7253C103.894 45.5204 103.74 45.354 103.536 45.354H96.1059C95.9011 45.354 95.7176 45.5204 95.7005 45.7253C95.6834 45.9301 95.8371 46.0965 96.0419 46.0965H103.472Z" fill="white"/>
<path d="M89.2079 46.0965H94.4782C94.6831 46.0965 94.8666 45.9301 94.8836 45.7253C94.9007 45.5204 94.7471 45.354 94.5422 45.354H89.2719C89.0671 45.354 88.8836 45.5204 88.8665 45.7253C88.8495 45.9301 89.0031 46.0965 89.2079 46.0965Z" fill="white"/>
<path opacity="0.5" d="M84.1396 46.0965H86.9433C87.1481 46.0965 87.3316 45.9301 87.3487 45.7253C87.3657 45.5204 87.2121 45.354 87.0073 45.354H84.2036C83.9987 45.354 83.8152 45.5204 83.7982 45.7253C83.7811 45.9301 83.9347 46.0965 84.1396 46.0965Z" fill="white"/>
<path d="M99.9451 48.0807C99.9622 47.8759 99.8086 47.7095 99.6037 47.7095H89.0376C88.8327 47.7095 88.6492 47.8759 88.6322 48.0807C88.6151 48.2856 88.7687 48.452 88.9735 48.452H99.5397C99.7446 48.452 99.9281 48.2856 99.9451 48.0807Z" fill="white"/>
<path opacity="0.5" d="M83.9384 48.452H86.7762C86.9811 48.452 87.1646 48.2856 87.1817 48.0807C87.1987 47.8759 87.0451 47.7095 86.8403 47.7095H84.0024C83.7976 47.7095 83.6141 47.8759 83.597 48.0807C83.5799 48.2856 83.7336 48.452 83.9384 48.452Z" fill="white"/>
<path d="M95.9931 50.8036H106.803C107.007 50.8036 107.191 50.6371 107.208 50.4323C107.225 50.2275 107.071 50.061 106.867 50.061H96.0571C95.8522 50.061 95.6688 50.2275 95.6517 50.4323C95.6346 50.6371 95.7882 50.8036 95.9931 50.8036Z" fill="white"/>
<path d="M88.8422 50.061C88.6374 50.061 88.4539 50.2275 88.4368 50.4323C88.4198 50.6371 88.5734 50.8036 88.7782 50.8036H93.6943C93.8992 50.8036 94.0827 50.6371 94.0997 50.4323C94.1168 50.2275 93.9632 50.061 93.7583 50.061H88.8422Z" fill="white"/>
<path opacity="0.5" d="M83.7431 50.8036H86.5468C86.7516 50.8036 86.9351 50.6371 86.9522 50.4323C86.9693 50.2275 86.8156 50.061 86.6108 50.061H83.8071C83.6023 50.061 83.4188 50.2275 83.4017 50.4323C83.3846 50.6371 83.5382 50.8036 83.7431 50.8036Z" fill="white"/>
<path d="M92.8629 52.417H90.4262C90.2214 52.417 90.0379 52.5834 90.0208 52.7883C90.0038 52.9931 90.1574 53.1595 90.3622 53.1595H92.7989C93.0038 53.1595 93.1873 52.9931 93.2043 52.7883C93.2214 52.5834 93.0678 52.417 92.8629 52.417Z" fill="white"/>
<path d="M88.6884 52.4165H83.6059C83.4011 52.4165 83.2176 52.5829 83.2005 52.7878C83.1834 52.9926 83.3371 53.159 83.5419 53.159H88.6244C88.8293 53.159 89.0128 52.9926 89.0298 52.7878C89.0469 52.5829 88.8933 52.4165 88.6884 52.4165Z" fill="white"/>
<path d="M104.449 55.1393C104.431 55.3442 104.585 55.5106 104.79 55.5106H124.685C124.89 55.5106 125.073 55.3442 125.09 55.1393C125.107 54.9345 124.954 54.7681 124.749 54.7681H104.854C104.649 54.7681 104.466 54.9345 104.449 55.1393Z" fill="white"/>
<path opacity="0.5" d="M99.0747 54.7681C98.8698 54.7681 98.6863 54.9345 98.6693 55.1393C98.6522 55.3442 98.8058 55.5106 99.0107 55.5106H102.779C102.984 55.5106 103.167 55.3442 103.184 55.1393C103.201 54.9345 103.048 54.7681 102.843 54.7681H99.0747Z" fill="white"/>
<path opacity="0.5" d="M124.549 57.1235H119.702C119.497 57.1235 119.313 57.29 119.296 57.4948C119.279 57.6996 119.433 57.8661 119.638 57.8661H124.485C124.69 57.8661 124.874 57.6996 124.891 57.4948C124.908 57.29 124.754 57.1235 124.549 57.1235Z" fill="white"/>
<path d="M117.635 57.4948C117.652 57.29 117.498 57.1235 117.293 57.1235H97.0102C96.8054 57.1235 96.6219 57.29 96.6048 57.4948C96.5877 57.6996 96.7414 57.8661 96.9462 57.8661H117.229C117.434 57.8661 117.618 57.6996 117.635 57.4948Z" fill="white"/>
<path d="M124.352 59.4746H115.565C115.36 59.4746 115.177 59.641 115.159 59.8459C115.142 60.0507 115.296 60.2171 115.501 60.2171H124.288C124.492 60.2171 124.676 60.0507 124.693 59.8459C124.71 59.641 124.556 59.4746 124.352 59.4746Z" fill="white"/>
<path opacity="0.5" d="M111.362 59.4746C111.157 59.4746 110.973 59.641 110.956 59.8459C110.939 60.0507 111.093 60.2171 111.298 60.2171H113.474C113.679 60.2171 113.863 60.0507 113.88 59.8459C113.897 59.641 113.743 59.4746 113.538 59.4746H111.362Z" fill="white"/>
<path d="M124.151 61.8306H106.684C106.479 61.8306 106.296 61.997 106.279 62.2018C106.262 62.4067 106.415 62.5731 106.62 62.5731H124.087C124.292 62.5731 124.475 62.4067 124.492 62.2018C124.509 61.997 124.356 61.8306 124.151 61.8306Z" fill="white"/>
<path d="M98.9772 61.8306H92.8833C92.6784 61.8306 92.4949 61.997 92.4779 62.2018C92.4608 62.4067 92.6144 62.5731 92.8192 62.5731H98.9132C99.118 62.5731 99.3015 62.4067 99.3186 62.2018C99.3356 61.997 99.182 61.8306 98.9772 61.8306Z" fill="white"/>
<path d="M121.599 111.772L119.303 137.591L119.295 137.68H74.2305L74.239 137.591L79.1124 82.7197L81.5875 83.3684L93.6601 86.5135L94.3301 86.6884L95.1537 86.9018L96.1694 87.1664L96.801 87.3328L104.888 89.4409L104.939 89.4538C105.528 89.6074 106.104 89.7823 106.667 89.9787C110.918 91.4595 114.502 94.1437 117.097 97.5704C118.249 99.0939 119.205 100.767 119.935 102.546C121.117 105.405 121.71 108.538 121.599 111.772Z" fill="#F3F3F3"/>
<path opacity="0.8" d="M121.599 111.772L119.303 137.591L119.295 137.68H74.2305L74.239 137.591L79.1124 82.7197L81.5875 83.3684L93.6601 86.5135L94.3301 86.6884L95.1537 86.9018L96.1694 87.1664L96.801 87.3328L104.888 89.4409L104.939 89.4538C105.528 89.6074 106.104 89.7823 106.667 89.9787C110.918 91.4595 114.502 94.1437 117.097 97.5704C118.249 99.0939 119.205 100.767 119.935 102.546C121.117 105.405 121.71 108.538 121.599 111.772Z" fill="white"/>
<path opacity="0.6" d="M96.8017 87.3331H81.2383L81.3108 86.5138L81.5882 83.3687L93.6608 86.5138L94.3308 86.6887L95.1544 86.9021L96.1701 87.1667L96.8017 87.3331Z" fill="black"/>
<path opacity="0.5" d="M96.8017 87.333H81.2383L81.3108 86.5137H93.6608L94.3308 86.6886L95.1544 86.902L96.1701 87.1666L96.8017 87.333Z" fill="black"/>
<path opacity="0.6" d="M95.1544 86.902L95.116 87.333H81.2383L81.3108 86.5137H93.6608L94.3308 86.6886L95.1544 86.902Z" fill="white"/>
<path d="M96.1688 87.1664C96.1517 87.2219 96.1304 87.2774 96.1005 87.3329C95.9213 87.6785 95.5543 87.9218 95.1531 87.9218C94.752 87.9218 94.432 87.6785 94.3167 87.3329C94.2741 87.2134 94.257 87.0853 94.2698 86.9488C94.2783 86.8592 94.2997 86.7696 94.3295 86.6885L95.1531 86.9018L96.1688 87.1664Z" fill="white"/>
<path opacity="0.4" d="M101.192 93.3498H81.4726C81.0501 93.3498 80.7343 93.0041 80.7727 92.5816C80.8111 92.1591 81.1866 91.8135 81.6091 91.8135H101.329C101.751 91.8135 102.067 92.1591 102.029 92.5816C101.99 93.0041 101.615 93.3498 101.192 93.3498Z" fill="#FF5225"/>
<path opacity="0.4" d="M106.68 90.2091C106.642 90.6315 106.266 90.9729 105.844 90.9729H81.6815C81.2591 90.9729 80.9433 90.6315 80.9817 90.2091C81.0201 89.7823 81.3956 89.4409 81.8181 89.4409H104.888L104.939 89.4537C105.528 89.6073 106.104 89.7823 106.667 89.9786C106.68 90.0512 106.689 90.128 106.68 90.2091Z" fill="#FF5225"/>
<path opacity="0.3" d="M119.934 102.546L118.833 114.947H78.7832L80.328 97.5703H117.096C118.249 99.0938 119.204 100.767 119.934 102.546Z" fill="#FF5225"/>
<path d="M106.867 100.591H103.726C103.342 100.591 103.06 100.28 103.095 99.8958C103.129 99.5117 103.466 99.2002 103.85 99.2002H106.991C107.375 99.2002 107.656 99.5117 107.622 99.8958C107.588 100.28 107.251 100.591 106.867 100.591Z" fill="#FF5225"/>
<path d="M115.546 102.828H103.525C103.141 102.828 102.859 102.516 102.893 102.132C102.928 101.748 103.265 101.437 103.649 101.437H115.67C116.054 101.437 116.336 101.748 116.302 102.132C116.268 102.516 115.93 102.828 115.546 102.828Z" fill="#FF5225"/>
<path opacity="0.3" d="M99.0233 113.313H80.8184L82.073 99.2046H100.274L99.0233 113.313Z" fill="#FF5225"/>
<path d="M81.0957 110.197L86.4599 106.258L89.2722 108.482L95.2167 104.231L99.4713 108.251L99.0233 113.313H80.8184L81.0957 110.197Z" fill="#263238"/>
<path d="M87.1889 102.529C87.1121 103.361 86.4122 104.035 85.627 104.035C84.8418 104.035 84.2699 103.361 84.3468 102.529C84.4236 101.697 85.1234 101.022 85.9086 101.022C86.6939 101.022 87.2657 101.697 87.1889 102.529Z" fill="#263238"/>
<path opacity="0.3" d="M117.093 134.582H77.0391L78.5839 117.201H118.638L117.093 134.582Z" fill="#FF5225"/>
<path d="M105.123 120.226H101.982C101.598 120.226 101.316 119.915 101.35 119.531C101.385 119.146 101.722 118.835 102.106 118.835H105.247C105.631 118.835 105.912 119.146 105.878 119.531C105.844 119.915 105.507 120.226 105.123 120.226Z" fill="#FF5225"/>
<path d="M113.802 122.458H101.781C101.397 122.458 101.115 122.147 101.149 121.762C101.183 121.378 101.521 121.067 101.905 121.067H113.926C114.31 121.067 114.592 121.378 114.558 121.762C114.523 122.147 114.186 122.458 113.802 122.458Z" fill="#FF5225"/>
<path opacity="0.3" d="M97.2791 132.943H79.0742L80.3288 118.839H98.5338L97.2791 132.943Z" fill="#FF5225"/>
<path d="M79.3516 129.832L84.7158 125.889L87.528 128.116L93.4726 123.862L97.7272 127.882L97.2791 132.943H79.0742L79.3516 129.832Z" fill="#263238"/>
<path d="M85.4486 122.16C85.3718 122.992 84.672 123.666 83.8868 123.666C83.1015 123.666 82.5297 122.992 82.6065 122.16C82.6833 121.328 83.3832 120.653 84.1684 120.653C84.9536 120.653 85.5255 121.328 85.4486 122.16Z" fill="#263238"/>
<path opacity="0.2" d="M113.06 93.9901C101.248 88.0925 82.5564 99.7 82.0102 99.9005C80.1283 100.6 77.9391 99.6616 75.959 98.249L77.4953 80.6629L78.3914 80.6074C78.3914 80.6074 103.74 86.8336 113.06 93.9901Z" fill="black"/>
<path d="M51.4082 75.1538C51.4082 75.1538 54.1394 76.7968 55.6244 77.5094C56.4566 77.9106 59.6017 77.3345 62.1323 78.9561C64.5775 80.5223 64.3044 82.0969 65.3414 83.4924C68.4652 87.7044 75.148 87.5721 75.148 87.5721C75.148 87.5721 103.616 82.2164 118.219 99.2051C118.219 99.2051 107.414 78.1325 51.4082 75.1581V75.1538Z" fill="#FF5225"/>
<path opacity="0.4" d="M51.4082 75.1538C51.4082 75.1538 54.1394 76.7968 55.6244 77.5094C56.4566 77.9106 59.6017 77.3345 62.1323 78.9561C64.5775 80.5223 64.3044 82.0969 65.3414 83.4924C68.4652 87.7044 75.148 87.5721 75.148 87.5721C75.148 87.5721 103.616 82.2164 118.219 99.2051C118.219 99.2051 107.414 78.1325 51.4082 75.1581V75.1538Z" fill="white"/>
<path d="M67.2856 34.9927H47.4676C46.341 34.9927 45.4277 35.9059 45.4277 37.0325V47.7523C45.4277 48.8789 46.341 49.7922 47.4676 49.7922H61.2557C61.7891 51.0596 63.2998 53.5945 67.1789 54.768C67.1789 54.768 64.8531 52.6599 64.9726 49.7922H67.2856C68.4122 49.7922 69.3254 48.8789 69.3254 47.7523V37.0325C69.3254 35.9059 68.4122 34.9927 67.2856 34.9927Z" fill="#FF5225"/>
<path opacity="0.6" d="M67.2856 34.9927H47.4676C46.341 34.9927 45.4277 35.9059 45.4277 37.0325V47.7523C45.4277 48.8789 46.341 49.7922 47.4676 49.7922H61.2557C61.7891 51.0596 63.2998 53.5945 67.1789 54.768C67.1789 54.768 64.8531 52.6599 64.9726 49.7922H67.2856C68.4122 49.7922 69.3254 48.8789 69.3254 47.7523V37.0325C69.3254 35.9059 68.4122 34.9927 67.2856 34.9927Z" fill="white"/>
<g opacity="0.5">
<path d="M47.8594 38.5644C47.8594 37.775 48.2733 37.3013 48.8494 37.3013C49.4255 37.3013 49.8437 37.775 49.8437 38.5644C49.8437 39.3539 49.4255 39.8276 48.8494 39.8276C48.2733 39.8276 47.8594 39.3539 47.8594 38.5644ZM49.5792 38.5644C49.5792 37.8987 49.2804 37.536 48.8494 37.536C48.4184 37.536 48.1197 37.903 48.1197 38.5644C48.1197 39.2259 48.4184 39.5929 48.8494 39.5929C49.2804 39.5929 49.5792 39.2259 49.5792 38.5644Z" fill="black"/>
<path d="M50.8895 37.3228V39.8064H50.6335V37.5489H50.0488V37.3228H50.8895Z" fill="black"/>
<path d="M51.4824 38.5644C51.4824 37.775 51.8964 37.3013 52.4725 37.3013C53.0486 37.3013 53.4668 37.775 53.4668 38.5644C53.4668 39.3539 53.0486 39.8276 52.4725 39.8276C51.8964 39.8276 51.4824 39.3539 51.4824 38.5644ZM53.2022 38.5644C53.2022 37.8987 52.9035 37.536 52.4725 37.536C52.0415 37.536 51.7427 37.903 51.7427 38.5644C51.7427 39.2259 52.0415 39.5929 52.4725 39.5929C52.9035 39.5929 53.2022 39.2259 53.2022 38.5644Z" fill="black"/>
<path d="M53.8301 38.5644C53.8301 37.775 54.244 37.3013 54.8201 37.3013C55.3962 37.3013 55.8144 37.775 55.8144 38.5644C55.8144 39.3539 55.3962 39.8276 54.8201 39.8276C54.244 39.8276 53.8301 39.3539 53.8301 38.5644ZM55.5499 38.5644C55.5499 37.8987 55.2511 37.536 54.8201 37.536C54.3891 37.536 54.0904 37.903 54.0904 38.5644C54.0904 39.2259 54.3891 39.5929 54.8201 39.5929C55.2511 39.5929 55.5499 39.2259 55.5499 38.5644Z" fill="black"/>
<path d="M56.8583 37.3228V39.8064H56.6022V37.5489H56.0176V37.3228H56.8583Z" fill="black"/>
<path d="M58.1395 37.3228V39.8064H57.8835V37.5489H57.2988V37.3228H58.1395Z" fill="black"/>
<path d="M59.4188 37.3228V39.8064H59.1628V37.5489H58.5781V37.3228H59.4188Z" fill="black"/>
<path d="M60.0137 38.5644C60.0137 37.775 60.4276 37.3013 61.0037 37.3013C61.5798 37.3013 61.998 37.775 61.998 38.5644C61.998 39.3539 61.5798 39.8276 61.0037 39.8276C60.4276 39.8276 60.0137 39.3539 60.0137 38.5644ZM61.7335 38.5644C61.7335 37.8987 61.4347 37.536 61.0037 37.536C60.5727 37.536 60.274 37.903 60.274 38.5644C60.274 39.2259 60.5727 39.5929 61.0037 39.5929C61.4347 39.5929 61.7335 39.2259 61.7335 38.5644Z" fill="black"/>
<path d="M62.3594 38.5644C62.3594 37.775 62.7733 37.3013 63.3494 37.3013C63.9255 37.3013 64.3437 37.775 64.3437 38.5644C64.3437 39.3539 63.9255 39.8276 63.3494 39.8276C62.7733 39.8276 62.3594 39.3539 62.3594 38.5644ZM64.0792 38.5644C64.0792 37.8987 63.7804 37.536 63.3494 37.536C62.9184 37.536 62.6197 37.903 62.6197 38.5644C62.6197 39.2259 62.9184 39.5929 63.3494 39.5929C63.7804 39.5929 64.0792 39.2259 64.0792 38.5644Z" fill="black"/>
<path d="M65.3895 37.3228V39.8064H65.1335V37.5489H64.5488V37.3228H65.3895Z" fill="black"/>
<path d="M66.6708 37.3228V39.8064H66.4147V37.5489H65.8301V37.3228H66.6708Z" fill="black"/>
<path d="M48.5477 40.916V43.3997H48.2917V41.1422H47.707V40.916H48.5477Z" fill="black"/>
<path d="M49.1406 42.1577C49.1406 41.3682 49.5546 40.8945 50.1307 40.8945C50.7068 40.8945 51.125 41.3682 51.125 42.1577C51.125 42.9472 50.7068 43.4209 50.1307 43.4209C49.5546 43.4209 49.1406 42.9472 49.1406 42.1577ZM50.8604 42.1577C50.8604 41.492 50.5617 41.1292 50.1307 41.1292C49.6997 41.1292 49.4009 41.4962 49.4009 42.1577C49.4009 42.8191 49.6997 43.1861 50.1307 43.1861C50.5617 43.1861 50.8604 42.8191 50.8604 42.1577Z" fill="black"/>
<path d="M51.4883 42.1577C51.4883 41.3682 51.9022 40.8945 52.4783 40.8945C53.0544 40.8945 53.4726 41.3682 53.4726 42.1577C53.4726 42.9472 53.0544 43.4209 52.4783 43.4209C51.9022 43.4209 51.4883 42.9472 51.4883 42.1577ZM53.2081 42.1577C53.2081 41.492 52.9093 41.1292 52.4783 41.1292C52.0473 41.1292 51.7486 41.4962 51.7486 42.1577C51.7486 42.8191 52.0473 43.1861 52.4783 43.1861C52.9093 43.1861 53.2081 42.8191 53.2081 42.1577Z" fill="black"/>
<path d="M54.5184 40.916V43.3997H54.2624V41.1422H53.6777V40.916H54.5184Z" fill="black"/>
<path d="M55.7997 40.916V43.3997H55.5436V41.1422H54.959V40.916H55.7997Z" fill="black"/>
<path d="M57.079 40.916V43.3997H56.8229V41.1422H56.2383V40.916H57.079Z" fill="black"/>
<path d="M57.668 42.1577C57.668 41.3682 58.0819 40.8945 58.658 40.8945C59.2341 40.8945 59.6523 41.3682 59.6523 42.1577C59.6523 42.9472 59.2341 43.4209 58.658 43.4209C58.0819 43.4209 57.668 42.9472 57.668 42.1577ZM59.3878 42.1577C59.3878 41.492 59.089 41.1292 58.658 41.1292C58.227 41.1292 57.9283 41.4962 57.9283 42.1577C57.9283 42.8191 58.227 43.1861 58.658 43.1861C59.089 43.1861 59.3878 42.8191 59.3878 42.1577Z" fill="black"/>
<path d="M60.0156 42.1577C60.0156 41.3682 60.4296 40.8945 61.0057 40.8945C61.5818 40.8945 62 41.3682 62 42.1577C62 42.9472 61.5818 43.4209 61.0057 43.4209C60.4296 43.4209 60.0156 42.9472 60.0156 42.1577ZM61.7354 42.1577C61.7354 41.492 61.4367 41.1292 61.0057 41.1292C60.5747 41.1292 60.2759 41.4962 60.2759 42.1577C60.2759 42.8191 60.5747 43.1861 61.0057 43.1861C61.4367 43.1861 61.7354 42.8191 61.7354 42.1577Z" fill="black"/>
<path d="M63.0458 40.916V43.3997H62.7897V41.1422H62.2051V40.916H63.0458Z" fill="black"/>
<path d="M64.3251 40.916V43.3997H64.069V41.1422H63.4844V40.916H64.3251Z" fill="black"/>
<path d="M64.918 42.1577C64.918 41.3682 65.3319 40.8945 65.908 40.8945C66.4841 40.8945 66.9023 41.3682 66.9023 42.1577C66.9023 42.9472 66.4841 43.4209 65.908 43.4209C65.3319 43.4209 64.918 42.9472 64.918 42.1577ZM66.6377 42.1577C66.6377 41.492 66.339 41.1292 65.908 41.1292C65.477 41.1292 65.1783 41.4962 65.1783 42.1577C65.1783 42.8191 65.477 43.1861 65.908 43.1861C66.339 43.1861 66.6377 42.8191 66.6377 42.1577Z" fill="black"/>
<path d="M47.8594 45.7554C47.8594 44.9659 48.2733 44.4922 48.8494 44.4922C49.4255 44.4922 49.8437 44.9659 49.8437 45.7554C49.8437 46.5448 49.4255 47.0185 48.8494 47.0185C48.2733 47.0185 47.8594 46.5448 47.8594 45.7554ZM49.5792 45.7554C49.5792 45.0896 49.2804 44.7269 48.8494 44.7269C48.4184 44.7269 48.1197 45.0939 48.1197 45.7554C48.1197 46.4168 48.4184 46.7838 48.8494 46.7838C49.2804 46.7838 49.5792 46.4168 49.5792 45.7554Z" fill="black"/>
<path d="M50.2109 45.7554C50.2109 44.9659 50.6249 44.4922 51.201 44.4922C51.7771 44.4922 52.1953 44.9659 52.1953 45.7554C52.1953 46.5448 51.7771 47.0185 51.201 47.0185C50.6249 47.0185 50.2109 46.5448 50.2109 45.7554ZM51.9307 45.7554C51.9307 45.0896 51.632 44.7269 51.201 44.7269C50.77 44.7269 50.4712 45.0939 50.4712 45.7554C50.4712 46.4168 50.77 46.7838 51.201 46.7838C51.632 46.7838 51.9307 46.4168 51.9307 45.7554Z" fill="black"/>
<path d="M53.2372 44.5137V46.9973H52.9811V44.7398H52.3965V44.5137H53.2372Z" fill="black"/>
<path d="M54.5184 44.5137V46.9973H54.2624V44.7398H53.6777V44.5137H54.5184Z" fill="black"/>
<path d="M55.1094 45.7554C55.1094 44.9659 55.5233 44.4922 56.0994 44.4922C56.6755 44.4922 57.0937 44.9659 57.0937 45.7554C57.0937 46.5448 56.6755 47.0185 56.0994 47.0185C55.5233 47.0185 55.1094 46.5448 55.1094 45.7554ZM56.8292 45.7554C56.8292 45.0896 56.5304 44.7269 56.0994 44.7269C55.6684 44.7269 55.3697 45.0939 55.3697 45.7554C55.3697 46.4168 55.6684 46.7838 56.0994 46.7838C56.5304 46.7838 56.8292 46.4168 56.8292 45.7554Z" fill="black"/>
<path d="M57.457 45.7554C57.457 44.9659 57.871 44.4922 58.4471 44.4922C59.0232 44.4922 59.4414 44.9659 59.4414 45.7554C59.4414 46.5448 59.0232 47.0185 58.4471 47.0185C57.871 47.0185 57.457 46.5448 57.457 45.7554ZM59.1768 45.7554C59.1768 45.0896 58.8781 44.7269 58.4471 44.7269C58.0161 44.7269 57.7173 45.0939 57.7173 45.7554C57.7173 46.4168 58.0161 46.7838 58.4471 46.7838C58.8781 46.7838 59.1768 46.4168 59.1768 45.7554Z" fill="black"/>
<path d="M60.4872 44.5137V46.9973H60.2311V44.7398H59.6465V44.5137H60.4872Z" fill="black"/>
<path d="M61.7665 44.5137V46.9973H61.5104V44.7398H60.9258V44.5137H61.7665Z" fill="black"/>
<path d="M63.0477 44.5137V46.9973H62.7917V44.7398H62.207V44.5137H63.0477Z" fill="black"/>
<path d="M63.6387 45.7554C63.6387 44.9659 64.0526 44.4922 64.6287 44.4922C65.2048 44.4922 65.623 44.9659 65.623 45.7554C65.623 46.5448 65.2048 47.0185 64.6287 47.0185C64.0526 47.0185 63.6387 46.5448 63.6387 45.7554ZM65.3585 45.7554C65.3585 45.0896 65.0597 44.7269 64.6287 44.7269C64.1977 44.7269 63.899 45.0939 63.899 45.7554C63.899 46.4168 64.1977 46.7838 64.6287 46.7838C65.0597 46.7838 65.3585 46.4168 65.3585 45.7554Z" fill="black"/>
<path d="M66.6708 44.5137V46.9973H66.4147V44.7398H65.8301V44.5137H66.6708Z" fill="black"/>
</g>
</svg>
