<svg width="180" height="180" viewBox="0 0 180 180" fill="none" xmlns="http://www.w3.org/2000/svg">
<path d="M29.3262 125.69V133.371C29.3262 136.351 31.7427 138.762 34.7176 138.762H108.208C111.188 138.762 113.599 136.346 113.599 133.371V125.69H29.3262Z" fill="#FF5225"/>
<path d="M108.208 76.4917H34.7176C31.74 76.4917 29.3262 78.9055 29.3262 81.8831V132.351C29.3262 135.328 31.74 137.742 34.7176 137.742H108.208C111.185 137.742 113.599 135.328 113.599 132.351V81.8831C113.599 78.9055 111.185 76.4917 108.208 76.4917Z" fill="#A8ADAF"/>
<path opacity="0.8" d="M108.208 76.4917H34.7176C31.74 76.4917 29.3262 78.9055 29.3262 81.8831V132.351C29.3262 135.328 31.74 137.742 34.7176 137.742H108.208C111.185 137.742 113.599 135.328 113.599 132.351V81.8831C113.599 78.9055 111.185 76.4917 108.208 76.4917Z" fill="white"/>
<path d="M62.4598 126.015H61.1855V125.264H64.6529V126.015H63.3787V129.244H62.4598V126.015Z" fill="#263238"/>
<path d="M67.6837 129.249L66.9171 128.142H66.0693V129.249H65.1504V125.269H66.8714C67.2217 125.269 67.5314 125.329 67.7903 125.446C68.0492 125.563 68.2523 125.731 68.3893 125.949C68.5315 126.162 68.5975 126.421 68.5975 126.715C68.5975 127.01 68.5264 127.264 68.3842 127.482C68.2421 127.695 68.039 127.858 67.7801 127.974L68.6736 129.254H67.6837V129.249ZM67.4501 126.198C67.308 126.076 67.0948 126.02 66.8206 126.02H66.0693V127.406H66.8206C67.0948 127.406 67.308 127.345 67.4501 127.223C67.5923 127.101 67.6684 126.929 67.6684 126.71C67.6684 126.492 67.5974 126.314 67.4501 126.198Z" fill="#263238"/>
<path d="M72.4116 128.508V129.249H69.3301V125.269H72.3355V126.01H70.2439V126.873H72.0918V127.589H70.2439V128.508H72.4116Z" fill="#263238"/>
<path d="M76.7927 125.269V129.249H76.0363L74.0513 126.832V129.249H73.1426V125.269H73.9041L75.884 127.685V125.269H76.7927Z" fill="#263238"/>
<path d="M77.7363 125.269H79.5436C79.9751 125.269 80.3559 125.35 80.691 125.517C81.021 125.685 81.2799 125.913 81.4626 126.213C81.6454 126.512 81.7368 126.863 81.7368 127.259C81.7368 127.655 81.6454 128.005 81.4626 128.304C81.2799 128.604 81.021 128.837 80.691 129C80.361 129.167 79.9751 129.249 79.5436 129.249H77.7363V125.269ZM79.4979 128.492C79.8939 128.492 80.2138 128.381 80.4524 128.157C80.691 127.934 80.8077 127.634 80.8077 127.259C80.8077 126.883 80.691 126.578 80.4524 126.36C80.2138 126.137 79.899 126.025 79.4979 126.025H78.6552V128.492H79.4979Z" fill="#263238"/>
<path d="M46.2307 115.501H38.6562V119.045H46.2307V115.501Z" fill="#FF5225"/>
<path d="M57.842 112.323H50.2676V119.049H57.842V112.323Z" fill="#263238"/>
<path d="M69.4455 111.404H61.8711V119.049H69.4455V111.404Z" fill="#FF5225"/>
<path d="M81.0569 105.515H73.4824V119.05H81.0569V105.515Z" fill="#263238"/>
<path d="M92.6623 96.585H85.0879V119.044H92.6623V96.585Z" fill="#FF5225"/>
<path d="M104.268 88.9448H96.6934V119.045H104.268V88.9448Z" fill="#263238"/>
<path d="M66.486 44.7216C63.3841 41.508 59.0385 39.5078 54.2207 39.5078V50.1638C56.9367 50.1638 59.3786 51.3213 61.0996 53.159L66.486 47.7727V44.7267V44.7216Z" fill="#FF5225"/>
<path opacity="0.3" d="M66.486 44.7216C63.3841 41.508 59.0385 39.5078 54.2207 39.5078V50.1638C56.9367 50.1638 59.3786 51.3213 61.0996 53.159L66.486 47.7727V44.7267V44.7216Z" fill="white"/>
<path d="M61.0996 50.108L66.486 44.7216C63.3841 41.508 59.0385 39.5078 54.2207 39.5078V47.1178C56.9367 47.1178 59.3786 48.2753 61.0996 50.113V50.108Z" fill="#FF5225"/>
<path d="M60.0854 56.2001C61.3343 57.5352 62.1973 59.2308 62.507 61.1194C61.776 65.6072 57.8974 69.0339 53.2065 69.0339C48.5157 69.0339 44.6371 65.6072 43.906 61.1194C44.6371 56.6367 48.5157 53.2048 53.2065 53.2048V42.5488C43.7943 42.5488 36.1641 50.1791 36.1641 59.5913C36.1641 60.104 36.1894 60.6117 36.2351 61.1143C36.1894 61.6169 36.1641 62.1246 36.1641 62.6373C36.1641 72.0495 43.7943 79.6798 53.2065 79.6798C62.6187 79.6798 70.249 72.0495 70.249 62.6373C70.249 62.1246 70.2236 61.6118 70.1779 61.1092C70.2236 60.6066 70.249 60.104 70.249 59.5913C70.249 54.9969 68.4264 50.8289 65.4718 47.7626L60.0854 53.149V56.195V56.2001Z" fill="#FF5225"/>
<path opacity="0.3" d="M60.0854 56.2001C61.3343 57.5352 62.1973 59.2308 62.507 61.1194C61.776 65.6072 57.8974 69.0339 53.2065 69.0339C48.5157 69.0339 44.6371 65.6072 43.906 61.1194C44.6371 56.6367 48.5157 53.2048 53.2065 53.2048V42.5488C43.7943 42.5488 36.1641 50.1791 36.1641 59.5913C36.1641 60.104 36.1894 60.6117 36.2351 61.1143C36.1894 61.6169 36.1641 62.1246 36.1641 62.6373C36.1641 72.0495 43.7943 79.6798 53.2065 79.6798C62.6187 79.6798 70.249 72.0495 70.249 62.6373C70.249 62.1246 70.2236 61.6118 70.1779 61.1092C70.2236 60.6066 70.249 60.104 70.249 59.5913C70.249 54.9969 68.4264 50.8289 65.4718 47.7626L60.0854 53.149V56.195V56.2001Z" fill="white"/>
<path opacity="0.6" d="M65.471 47.7677L60.0847 53.154C61.6635 54.8395 62.6382 57.1037 62.6382 59.5964C62.6382 64.8051 58.4144 69.0339 53.2007 69.0339C47.9869 69.0339 43.7631 64.8101 43.7631 59.5964C43.7631 54.3826 47.9869 50.1588 53.2007 50.1588V42.5488C43.7885 42.5488 36.1582 50.1791 36.1582 59.5913C36.1582 69.0035 43.7885 76.6338 53.2007 76.6338C62.6129 76.6338 70.2431 69.0035 70.2431 59.5913C70.2431 54.9969 68.4206 50.8289 65.466 47.7626L65.471 47.7677Z" fill="white"/>
<path d="M49.2872 62.0993V63.0385H45.5253V62.2922L47.4443 60.4799C47.6474 60.2869 47.7845 60.1194 47.8555 59.9773C47.9266 59.8351 47.9621 59.6981 47.9621 59.561C47.9621 59.363 47.8961 59.2107 47.7591 59.1041C47.622 58.9975 47.424 58.9416 47.1651 58.9416C46.9468 58.9416 46.7488 58.9822 46.5762 59.0685C46.3985 59.1498 46.2564 59.2767 46.1345 59.4391L45.2969 58.901C45.4898 58.6116 45.7589 58.3832 46.099 58.2207C46.4391 58.0583 46.83 57.9771 47.2717 57.9771C47.6423 57.9771 47.9672 58.038 48.2414 58.1598C48.5206 58.2817 48.7338 58.4492 48.8861 58.6726C49.0384 58.8909 49.1146 59.1498 49.1146 59.4493C49.1146 59.7184 49.0587 59.9722 48.9419 60.2108C48.8252 60.4494 48.6069 60.7185 48.282 61.0231L47.1397 62.1044H49.277L49.2872 62.0993Z" fill="#263238"/>
<path d="M50.7806 62.8149C50.4607 62.6119 50.2069 62.3174 50.0241 61.9316C49.8414 61.5458 49.75 61.0838 49.75 60.5507C49.75 60.0177 49.8414 59.5557 50.0241 59.1699C50.2069 58.784 50.4607 58.4896 50.7806 58.2865C51.1004 58.0835 51.471 57.9819 51.8822 57.9819C52.2934 57.9819 52.664 58.0835 52.9839 58.2865C53.3037 58.4896 53.5575 58.784 53.7403 59.1699C53.923 59.5557 54.0144 60.0177 54.0144 60.5507C54.0144 61.0838 53.923 61.5458 53.7403 61.9316C53.5575 62.3174 53.3037 62.6119 52.9839 62.8149C52.664 63.018 52.2934 63.1195 51.8822 63.1195C51.471 63.1195 51.1004 63.018 50.7806 62.8149ZM52.598 61.7539C52.7706 61.495 52.8569 61.0889 52.8569 60.5457C52.8569 60.0025 52.7706 59.5963 52.598 59.3374C52.4254 59.0785 52.1868 58.9465 51.8822 58.9465C51.5776 58.9465 51.3492 59.0785 51.1765 59.3374C51.0039 59.5963 50.9176 60.0025 50.9176 60.5457C50.9176 61.0889 51.0039 61.495 51.1765 61.7539C51.3492 62.0128 51.5878 62.1448 51.8822 62.1448C52.1767 62.1448 52.4254 62.0128 52.598 61.7539Z" fill="#263238"/>
<path d="M54.8315 60.3735C54.6031 60.1247 54.4863 59.7896 54.4863 59.3733C54.4863 58.9571 54.6031 58.622 54.8315 58.3732C55.06 58.1245 55.3595 57.9976 55.725 57.9976C56.0906 57.9976 56.385 58.1245 56.6135 58.3732C56.8419 58.622 56.9536 58.9571 56.9536 59.3733C56.9536 59.7896 56.8419 60.1247 56.6135 60.3735C56.385 60.6222 56.0906 60.7491 55.725 60.7491C55.3595 60.7491 55.0651 60.6222 54.8315 60.3735ZM56.1058 59.9673C56.1972 59.8353 56.2429 59.6373 56.2429 59.3784C56.2429 59.1195 56.1972 58.9215 56.1058 58.7895C56.0144 58.6575 55.8875 58.5915 55.725 58.5915C55.5626 58.5915 55.4407 58.6575 55.3494 58.7946C55.2529 58.9317 55.2072 59.1246 55.2072 59.3835C55.2072 59.6424 55.2529 59.8353 55.3494 59.9673C55.4458 60.1044 55.5677 60.1704 55.725 60.1704C55.8824 60.1704 56.0144 60.1044 56.1058 59.9724V59.9673ZM58.6898 58.0636H59.5376L56.1413 63.0387H55.2935L58.6898 58.0636ZM58.4665 62.927C58.2786 62.8153 58.1314 62.658 58.0299 62.4447C57.9232 62.2366 57.8725 61.9929 57.8725 61.7188C57.8725 61.4446 57.9232 61.201 58.0299 60.9928C58.1365 60.7847 58.2786 60.6222 58.4665 60.5156C58.6543 60.4039 58.8675 60.3481 59.101 60.3481C59.4666 60.3481 59.761 60.475 59.9945 60.7187C60.223 60.9674 60.3398 61.3025 60.3398 61.7188C60.3398 62.1351 60.223 62.4701 59.9945 62.7189C59.7661 62.9676 59.4666 63.0895 59.101 63.0895C58.8624 63.0895 58.6543 63.0336 58.4665 62.922V62.927ZM59.4818 62.3077C59.5732 62.1706 59.6189 61.9777 59.6189 61.7239C59.6189 61.47 59.5732 61.272 59.4818 61.135C59.3904 60.9979 59.2635 60.9319 59.101 60.9319C58.9386 60.9319 58.8167 60.9979 58.7254 61.1299C58.6289 61.2619 58.5832 61.4599 58.5832 61.7188C58.5832 61.9777 58.6289 62.1757 58.7254 62.3077C58.8218 62.4397 58.9437 62.5057 59.101 62.5057C59.2584 62.5057 59.3904 62.4397 59.4818 62.3026V62.3077Z" fill="#263238"/>
<path d="M65.4703 109.368C65.2621 109.368 65.0895 109.196 65.0895 108.987V102.987C65.0895 102.332 64.8306 101.702 64.3686 101.24L53.8193 90.6911C53.2151 90.0869 52.875 89.2645 52.875 88.4066V82.6293C52.875 82.4211 53.0476 82.2485 53.2558 82.2485C53.4639 82.2485 53.6365 82.4211 53.6365 82.6293V88.4066C53.6365 89.0665 53.8954 89.6859 54.3574 90.1529L64.9068 100.702C65.516 101.312 65.851 102.124 65.851 102.987V108.987C65.851 109.196 65.6784 109.368 65.4703 109.368Z" fill="#263238"/>
<path d="M89.3764 56.8343H88.5642V57.8801H87.4422V56.8343H84.7617V56.0576L87.1072 52.8999H88.3154L86.1426 55.8901H87.4778V54.961H88.5642V55.8901H89.3764V56.8293V56.8343Z" fill="#263238"/>
<path d="M92.9604 55.1897C93.2954 55.4689 93.4629 55.8446 93.4629 56.3116C93.4629 56.6162 93.3868 56.8904 93.2345 57.1391C93.0822 57.3879 92.8537 57.5859 92.5441 57.7382C92.2344 57.8854 91.8486 57.9616 91.3967 57.9616C91.0464 57.9616 90.7012 57.9159 90.3611 57.8245C90.0209 57.7331 89.7367 57.6011 89.498 57.4285L89.9549 56.5452C90.1428 56.6873 90.3611 56.799 90.6098 56.8751C90.8535 56.9513 91.1074 56.9919 91.3713 56.9919C91.6607 56.9919 91.8892 56.9361 92.0516 56.8193C92.2192 56.7076 92.3004 56.5452 92.3004 56.3421C92.3004 56.139 92.2141 55.9664 92.0415 55.8598C91.8689 55.7532 91.5693 55.6974 91.1429 55.6974H89.8686L90.1225 52.895H93.1583V53.819H91.082L91.0058 54.7632H91.412C92.1125 54.7632 92.6304 54.9054 92.9654 55.1846L92.9604 55.1897Z" fill="#263238"/>
<path d="M94.1167 55.2148C93.8883 54.966 93.7715 54.6309 93.7715 54.2147C93.7715 53.7984 93.8883 53.4633 94.1167 53.2145C94.3452 52.9658 94.6447 52.8389 95.0102 52.8389C95.3757 52.8389 95.6702 52.9658 95.8986 53.2145C96.1271 53.4633 96.2388 53.7984 96.2388 54.2147C96.2388 54.6309 96.1271 54.966 95.8986 55.2148C95.6702 55.4635 95.3757 55.5904 95.0102 55.5904C94.6447 55.5904 94.3502 55.4635 94.1167 55.2148ZM95.391 54.8086C95.4823 54.6766 95.528 54.4786 95.528 54.2197C95.528 53.9608 95.4823 53.7628 95.391 53.6308C95.2996 53.4988 95.1727 53.4328 95.0102 53.4328C94.8477 53.4328 94.7259 53.4988 94.6345 53.6359C94.5381 53.773 94.4924 53.9659 94.4924 54.2248C94.4924 54.4837 94.5381 54.6766 94.6345 54.8086C94.731 54.9457 94.8528 55.0117 95.0102 55.0117C95.1676 55.0117 95.2996 54.9457 95.391 54.8137V54.8086ZM97.975 52.9049H98.8228L95.4265 57.88H94.5787L97.975 52.9049ZM97.7516 57.7683C97.5638 57.6566 97.4166 57.4993 97.315 57.2861C97.2084 57.0779 97.1576 56.8342 97.1576 56.5601C97.1576 56.2859 97.2084 56.0423 97.315 55.8341C97.4216 55.626 97.5638 55.4635 97.7516 55.3569C97.9395 55.2452 98.1527 55.1894 98.3862 55.1894C98.7517 55.1894 99.0462 55.3163 99.2797 55.56C99.5082 55.8087 99.6249 56.1438 99.6249 56.5601C99.6249 56.9764 99.5082 57.3114 99.2797 57.5602C99.0512 57.809 98.7517 57.9308 98.3862 57.9308C98.1476 57.9308 97.9395 57.875 97.7516 57.7633V57.7683ZM98.767 57.149C98.8583 57.0119 98.904 56.819 98.904 56.5652C98.904 56.3113 98.8583 56.1133 98.767 55.9763C98.6756 55.8392 98.5487 55.7732 98.3862 55.7732C98.2238 55.7732 98.1019 55.8392 98.0105 55.9712C97.9141 56.1032 97.8684 56.3012 97.8684 56.5601C97.8684 56.819 97.9141 57.017 98.0105 57.149C98.107 57.281 98.2288 57.347 98.3862 57.347C98.5436 57.347 98.6756 57.281 98.767 57.1439V57.149Z" fill="#263238"/>
<path d="M105.795 62.8196L99.1956 59.0121C97.6167 62.0175 94.4692 64.0684 90.8393 64.0684C86.1434 64.0684 82.2546 60.6315 81.5338 56.1336C82.011 53.2246 83.8183 50.7624 86.316 49.3968V46.3508L82.5136 39.7612C77.315 42.6803 73.7969 48.2444 73.7969 54.6309C73.7969 55.1538 73.8223 55.6665 73.8679 56.1793C73.8223 56.6717 73.7969 57.1743 73.7969 57.6769C73.7969 67.0891 81.4271 74.7193 90.8393 74.7193C97.2867 74.7193 102.896 71.1403 105.79 65.8605V62.8145L105.795 62.8196Z" fill="#263238"/>
<path opacity="0.6" d="M90.8452 64.0684C85.6365 64.0684 81.4076 59.8446 81.4076 54.6309C81.4076 51.0569 83.3926 47.9499 86.3219 46.3508L82.5194 39.7612C77.3209 42.6803 73.8027 48.2444 73.8027 54.6309C73.8027 64.0431 81.433 71.6733 90.8452 71.6733C97.2926 71.6733 102.902 68.0943 105.796 62.8145L99.1964 59.007C97.6175 62.0124 94.47 64.0634 90.8401 64.0634L90.8452 64.0684Z" fill="white"/>
<path opacity="0.6" d="M105.795 62.8196L99.1956 59.0121C97.6167 62.0175 94.4692 64.0684 90.8393 64.0684C86.1434 64.0684 82.2546 60.6315 81.5338 56.1336C82.011 53.2246 83.8183 50.7624 86.316 49.3968V46.3508L82.5136 39.7612C77.315 42.6803 73.7969 48.2444 73.7969 54.6309C73.7969 55.1538 73.8223 55.6665 73.8679 56.1793C73.8223 56.6717 73.7969 57.1743 73.7969 57.6769C73.7969 67.0891 81.4271 74.7193 90.8393 74.7193C97.2867 74.7193 102.896 71.1403 105.79 65.8605V62.8145L105.795 62.8196Z" fill="white"/>
<path d="M101.23 60.0273L107.829 63.8348C109.165 61.4031 109.921 58.616 109.921 55.6461C109.921 55.1232 109.896 54.6105 109.85 54.0977C109.896 53.6053 109.921 53.1027 109.921 52.6001C109.921 43.1879 102.291 35.5576 92.8785 35.5576C89.8528 35.5576 87.0149 36.3496 84.5527 37.7304V40.7765L88.3552 47.366C89.7005 46.6299 91.2387 46.2136 92.8785 46.2136C97.5745 46.2136 101.463 49.6505 102.184 54.1434C102.017 55.1486 101.692 56.103 101.235 56.9762V60.0222L101.23 60.0273Z" fill="#263238"/>
<path opacity="0.4" d="M101.23 60.0273L107.829 63.8348C109.165 61.4031 109.921 58.616 109.921 55.6461C109.921 55.1232 109.896 54.6105 109.85 54.0977C109.896 53.6053 109.921 53.1027 109.921 52.6001C109.921 43.1879 102.291 35.5576 92.8785 35.5576C89.8528 35.5576 87.0149 36.3496 84.5527 37.7304V40.7765L88.3552 47.366C89.7005 46.6299 91.2387 46.2136 92.8785 46.2136C97.5745 46.2136 101.463 49.6505 102.184 54.1434C102.017 55.1486 101.692 56.103 101.235 56.9762V60.0222L101.23 60.0273Z" fill="white"/>
<path d="M92.8746 35.5576C89.8489 35.5576 87.011 36.3496 84.5488 37.7304L88.3513 44.32C89.6966 43.5839 91.2348 43.1676 92.8746 43.1676C98.0833 43.1676 102.312 47.3914 102.312 52.6052C102.312 54.184 101.916 55.6715 101.231 56.9813L107.831 60.7888C109.166 58.3571 109.922 55.5699 109.922 52.6001C109.922 43.1879 102.292 35.5576 92.8797 35.5576H92.8746Z" fill="#263238"/>
<path d="M77.2636 103.514C77.0554 103.514 76.8828 103.341 76.8828 103.133V98.6556C76.8828 97.7977 77.223 96.9803 77.8271 96.3711L88.3765 85.8217C88.8435 85.3547 89.0973 84.7353 89.0973 84.0754V77.7904C89.0973 77.5823 89.2699 77.4097 89.4781 77.4097C89.6862 77.4097 89.8588 77.5823 89.8588 77.7904V84.0754C89.8588 84.9333 89.5187 85.7507 88.9146 86.3599L78.3652 96.9092C77.8982 97.3763 77.6443 97.9957 77.6443 98.6556V103.133C77.6443 103.341 77.4717 103.514 77.2636 103.514Z" fill="#263238"/>
<path d="M128.761 124.04C129.02 124.167 129.228 124.35 129.381 124.583C129.533 124.817 129.609 125.091 129.609 125.395C129.609 125.725 129.528 126.02 129.36 126.268C129.193 126.522 128.969 126.715 128.68 126.847C128.396 126.984 128.076 127.05 127.726 127.05C127.03 127.05 126.482 126.837 126.091 126.411C125.7 125.984 125.502 125.375 125.502 124.583C125.502 124.02 125.609 123.537 125.822 123.131C126.035 122.73 126.335 122.42 126.715 122.212C127.096 122.004 127.538 121.897 128.04 121.897C128.304 121.897 128.558 121.928 128.802 121.984C129.045 122.045 129.254 122.126 129.426 122.238L129 123.085C128.751 122.918 128.441 122.837 128.071 122.837C127.649 122.837 127.314 122.958 127.071 123.207C126.822 123.456 126.69 123.811 126.675 124.278C126.969 123.984 127.38 123.837 127.903 123.837C128.218 123.837 128.507 123.903 128.771 124.03L128.761 124.04ZM128.259 125.994C128.411 125.862 128.492 125.68 128.492 125.456C128.492 125.233 128.416 125.045 128.259 124.913C128.106 124.776 127.898 124.71 127.644 124.71C127.39 124.71 127.187 124.781 127.025 124.918C126.863 125.06 126.781 125.238 126.781 125.456C126.781 125.675 126.857 125.852 127.015 125.989C127.172 126.126 127.385 126.197 127.654 126.197C127.903 126.197 128.101 126.131 128.254 125.999L128.259 125.994Z" fill="#263238"/>
<path d="M131.058 126.746C130.738 126.543 130.484 126.249 130.301 125.863C130.119 125.477 130.027 125.015 130.027 124.482C130.027 123.949 130.119 123.487 130.301 123.101C130.484 122.715 130.738 122.421 131.058 122.218C131.378 122.015 131.748 121.913 132.16 121.913C132.571 121.913 132.941 122.015 133.261 122.218C133.581 122.421 133.835 122.715 134.018 123.101C134.2 123.487 134.292 123.949 134.292 124.482C134.292 125.015 134.2 125.477 134.018 125.863C133.835 126.249 133.581 126.543 133.261 126.746C132.941 126.949 132.571 127.051 132.16 127.051C131.748 127.051 131.378 126.949 131.058 126.746ZM132.875 125.685C133.048 125.426 133.134 125.02 133.134 124.477C133.134 123.934 133.048 123.527 132.875 123.269C132.703 123.01 132.464 122.878 132.16 122.878C131.855 122.878 131.627 123.01 131.454 123.269C131.281 123.527 131.195 123.934 131.195 124.477C131.195 125.02 131.281 125.426 131.454 125.685C131.627 125.944 131.865 126.076 132.16 126.076C132.454 126.076 132.703 125.944 132.875 125.685Z" fill="#263238"/>
<path d="M135.111 124.304C134.882 124.055 134.766 123.72 134.766 123.304C134.766 122.887 134.882 122.552 135.111 122.303C135.339 122.055 135.639 121.928 136.004 121.928C136.37 121.928 136.664 122.055 136.893 122.303C137.121 122.552 137.233 122.887 137.233 123.304C137.233 123.72 137.121 124.055 136.893 124.304C136.664 124.552 136.37 124.679 136.004 124.679C135.639 124.679 135.344 124.552 135.111 124.304ZM136.385 123.897C136.476 123.766 136.522 123.568 136.522 123.309C136.522 123.05 136.476 122.852 136.385 122.72C136.294 122.588 136.167 122.522 136.004 122.522C135.842 122.522 135.72 122.588 135.629 122.725C135.532 122.862 135.487 123.055 135.487 123.314C135.487 123.573 135.532 123.766 135.629 123.897C135.725 124.035 135.847 124.101 136.004 124.101C136.162 124.101 136.294 124.035 136.385 123.903V123.897ZM138.969 121.994H139.817L136.421 126.969H135.573L138.969 121.994ZM138.746 126.857C138.558 126.746 138.411 126.588 138.309 126.375C138.203 126.167 138.152 125.923 138.152 125.649C138.152 125.375 138.203 125.131 138.309 124.923C138.416 124.715 138.558 124.552 138.746 124.446C138.934 124.334 139.147 124.278 139.38 124.278C139.746 124.278 140.04 124.405 140.274 124.649C140.502 124.898 140.619 125.233 140.619 125.649C140.619 126.065 140.502 126.4 140.274 126.649C140.045 126.898 139.746 127.02 139.38 127.02C139.142 127.02 138.934 126.964 138.746 126.852V126.857ZM139.761 126.238C139.852 126.101 139.898 125.908 139.898 125.654C139.898 125.4 139.852 125.202 139.761 125.065C139.67 124.928 139.543 124.862 139.38 124.862C139.218 124.862 139.096 124.928 139.005 125.06C138.908 125.192 138.863 125.39 138.863 125.649C138.863 125.908 138.908 126.106 139.005 126.238C139.101 126.37 139.223 126.436 139.38 126.436C139.538 126.436 139.67 126.37 139.761 126.233V126.238Z" fill="#263238"/>
<path d="M118.676 117.181L125.275 120.989C126.854 117.983 130.002 115.932 133.632 115.932C138.328 115.932 142.216 119.369 142.937 123.867C142.46 126.776 140.653 129.238 138.155 130.604V133.65L141.957 140.239C147.156 137.32 150.674 131.756 150.674 125.37C150.674 124.847 150.649 124.334 150.603 123.821C150.649 123.324 150.674 122.826 150.674 122.324C150.674 112.912 143.044 105.281 133.632 105.281C127.184 105.281 121.575 108.86 118.681 114.14V117.186L118.676 117.181Z" fill="#FF5225"/>
<path d="M123.244 119.973L116.644 116.166C115.309 118.597 114.553 121.384 114.553 124.354C114.553 124.877 114.578 125.39 114.624 125.903C114.578 126.395 114.553 126.898 114.553 127.4C114.553 136.812 122.183 144.443 131.595 144.443C134.621 144.443 137.459 143.651 139.921 142.27V139.224L136.119 132.634C134.773 133.37 133.235 133.787 131.595 133.787C126.899 133.787 123.011 130.35 122.29 125.852C122.457 124.847 122.782 123.892 123.239 123.019V119.973H123.244Z" fill="#FF5225"/>
<path opacity="0.3" d="M118.676 117.181L125.275 120.989C126.854 117.983 130.002 115.932 133.632 115.932C138.328 115.932 142.216 119.369 142.937 123.867C142.46 126.776 140.653 129.238 138.155 130.604V133.65L141.957 140.239C147.156 137.32 150.674 131.756 150.674 125.37C150.674 124.847 150.649 124.334 150.603 123.821C150.649 123.324 150.674 122.826 150.674 122.324C150.674 112.912 143.044 105.281 133.632 105.281C127.184 105.281 121.575 108.86 118.681 114.14V117.186L118.676 117.181Z" fill="white"/>
<path opacity="0.3" d="M123.244 119.973L116.644 116.166C115.309 118.597 114.553 121.384 114.553 124.354C114.553 124.877 114.578 125.39 114.624 125.903C114.578 126.395 114.553 126.898 114.553 127.4C114.553 136.812 122.183 144.443 131.595 144.443C134.621 144.443 137.459 143.651 139.921 142.27V139.224L136.119 132.634C134.773 133.37 133.235 133.787 131.595 133.787C126.899 133.787 123.011 130.35 122.29 125.852C122.457 124.847 122.782 123.892 123.239 123.019V119.973H123.244Z" fill="white"/>
<path d="M133.631 112.886C138.839 112.886 143.068 117.11 143.068 122.324C143.068 125.898 141.083 129.005 138.154 130.604L141.956 137.193C147.155 134.274 150.673 128.71 150.673 122.324C150.673 112.912 143.043 105.281 133.631 105.281C127.183 105.281 121.573 108.86 118.68 114.14L125.279 117.948C126.858 114.942 130.006 112.891 133.636 112.891L133.631 112.886Z" fill="#FF5225"/>
<path opacity="0.6" d="M131.6 141.397C134.626 141.397 137.464 140.605 139.926 139.224L136.124 132.634C134.778 133.37 133.24 133.787 131.6 133.787C126.392 133.787 122.163 129.563 122.163 124.349C122.163 122.77 122.559 121.283 123.244 119.973L116.644 116.166C115.309 118.597 114.553 121.384 114.553 124.354C114.553 133.766 122.183 141.397 131.595 141.397H131.6Z" fill="white"/>
<path d="M111.055 127.075H95.5156C94.6576 127.075 93.8352 126.735 93.2311 126.131L88.8702 121.77C88.723 121.623 88.723 121.379 88.8702 121.232C89.0174 121.085 89.2611 121.085 89.4083 121.232L93.7692 125.593C94.2312 126.055 94.8607 126.314 95.5156 126.314H111.055C111.263 126.314 111.436 126.486 111.436 126.695C111.436 126.903 111.263 127.075 111.055 127.075Z" fill="#263238"/>
</svg>
