<svg width="180" height="180" viewBox="0 0 180 180" fill="none" xmlns="http://www.w3.org/2000/svg">
<path d="M48.6875 45.3255V111.753C48.6875 113.692 50.2595 115.264 52.1984 115.264H156.124C156.858 115.264 157.455 114.667 157.455 113.933V44.8759C157.455 43.8938 156.656 43.0952 155.674 43.0952H50.9178C49.6875 43.0952 48.6875 44.0953 48.6875 45.3255Z" fill="#797979"/>
<path opacity="0.7" d="M48.6875 45.3255V111.753C48.6875 113.692 50.2595 115.264 52.6193 115.25H156.545C156.858 115.264 157.451 114.667 157.451 113.933V44.8759C157.451 43.8938 156.653 43.0952 155.671 43.0952H50.9178C49.6875 43.0952 48.6875 44.0953 48.6875 45.3255Z" fill="white"/>
<path d="M50.4358 43.0952H156.059C156.829 43.0952 157.455 43.7211 157.455 44.491V48.8868H48.6875V44.8435C48.6875 43.8794 49.4717 43.0952 50.4358 43.0952Z" fill="#263238"/>
<path opacity="0.3" d="M156.005 45.991C156.005 46.6709 155.455 47.2213 154.775 47.2213C154.095 47.2213 153.545 46.6709 153.545 45.991C153.545 45.3111 154.095 44.7607 154.775 44.7607C155.455 44.7607 156.005 45.3111 156.005 45.991Z" fill="white"/>
<path opacity="0.3" d="M152.507 45.991C152.507 46.6709 151.957 47.2213 151.277 47.2213C150.597 47.2213 150.047 46.6709 150.047 45.991C150.047 45.3111 150.597 44.7607 151.277 44.7607C151.957 44.7607 152.507 45.3111 152.507 45.991Z" fill="white"/>
<path opacity="0.3" d="M147.779 47.2213C148.459 47.2213 149.009 46.6705 149.009 45.991C149.009 45.3116 148.459 44.7607 147.779 44.7607C147.1 44.7607 146.549 45.3116 146.549 45.991C146.549 46.6705 147.1 47.2213 147.779 47.2213Z" fill="white"/>
<path d="M67.918 40.5161H77.5767" stroke="#FF5225" stroke-width="0.363046" stroke-linecap="round" stroke-linejoin="round"/>
<path d="M80.2383 40.5161H82.2492" stroke="#FF5225" stroke-width="0.363046" stroke-linecap="round" stroke-linejoin="round"/>
<path d="M144.253 60.7216H61.8899C59.9509 60.7216 58.3789 59.1496 58.3789 57.2107C58.3789 55.2717 59.9509 53.6997 61.8899 53.6997H144.253C146.192 53.6997 147.764 55.2717 147.764 57.2107C147.764 59.1496 146.192 60.7216 144.253 60.7216Z" fill="white"/>
<path d="M143.941 57.0236C143.941 57.3473 143.84 57.6495 143.671 57.8977C143.39 58.3042 142.923 58.574 142.39 58.574C141.534 58.574 140.84 57.8797 140.84 57.0236C140.84 56.1674 141.534 55.4731 142.39 55.4731C143.246 55.4731 143.941 56.1674 143.941 57.0236Z" stroke="#FF5225" stroke-width="0.363046" stroke-miterlimit="10"/>
<path d="M144.642 58.9485L143.584 58.1211" stroke="#FF5225" stroke-width="0.363046" stroke-linecap="round" stroke-linejoin="round"/>
<g opacity="0.4">
<path d="M140.495 107.012C140.445 107.268 140.283 107.548 140.071 107.724C139.916 107.854 139.43 108.109 139.376 107.746C139.362 107.645 139.47 107.17 139.513 107.073C139.632 106.789 139.761 106.976 139.955 107.012C140.153 107.052 140.34 106.868 140.499 107.012H140.495Z" fill="white"/>
<path d="M139.172 77.3922C139.241 77.6368 139.287 77.8778 139.341 78.1045C139.154 78.385 138.784 78.2807 138.51 78.4318C138.381 78.5037 138.345 78.7592 138.223 78.7987C138.122 78.8311 138.046 78.6944 137.953 78.698C137.708 78.7052 137.589 79.1872 137.291 79.0649C137.122 79.1872 137.298 79.6549 137.086 79.6945C136.935 79.7232 136.856 79.4894 136.762 79.3491C136.654 79.1764 136.496 79.0829 136.492 78.9426C136.489 78.7987 136.737 78.5541 136.812 78.4534C136.91 78.3311 137.097 78.0973 137.219 78.0649C137.446 78.0037 137.676 78.0901 137.848 78.0037C137.996 77.9282 138.007 77.6476 138.086 77.5757C138.154 77.5145 138.23 77.5325 138.291 77.4929C138.449 77.3922 138.618 77.0397 138.528 76.6763C138.471 76.4497 138.158 76.2015 138.359 75.9209C138.658 75.9605 139.057 76.3166 139.104 76.6763C139.122 76.8166 139.057 76.9569 139.068 77.1044C139.075 77.1871 139.14 77.2807 139.169 77.3886L139.172 77.3922Z" fill="white"/>
<path d="M139.241 75.1688C139.201 75.2731 139.126 75.2515 139.054 75.3127C138.985 75.3703 138.902 75.5573 138.816 75.5789C138.679 75.6113 138.528 75.417 138.392 75.4566C138.233 75.5034 138.327 75.6472 138.273 75.8235C138.133 75.7875 137.906 75.6005 137.899 75.417C137.895 75.3019 138.021 75.23 138.05 75.0897C138.1 74.8558 137.971 74.7407 137.899 74.5177C137.895 74.4853 137.917 74.4817 137.917 74.4566C138.082 74.4134 138.41 74.7911 138.78 74.863C139.021 74.9098 139.223 74.8846 139.237 75.1688H139.241Z" fill="white"/>
<path d="M138.615 95.8496C138.633 96.0187 138.385 96.0007 138.359 95.8892C138.363 95.7597 138.582 95.7165 138.615 95.8496Z" fill="white"/>
<path d="M137.428 73.4604C137.597 73.5684 138.003 73.8094 137.715 74.0324C137.543 73.9569 137.363 73.6907 137.428 73.4604Z" fill="white"/>
<path d="M136.648 94.9535C136.842 94.8276 137.054 94.547 137.393 94.6873C137.317 94.9427 137.062 94.9355 136.9 95.0542C136.738 95.1729 136.598 95.3779 136.393 95.3995C136.378 95.3636 136.353 95.3348 136.324 95.3168C136.324 95.0902 136.511 95.0362 136.648 94.9499V94.9535Z" fill="white"/>
<path d="M136.19 91.1226C136.388 91.1226 136.575 91.0507 136.715 91.1442C136.69 91.655 136.032 91.2665 135.596 91.3493C135.503 91.3672 135.478 91.4536 135.377 91.4104C135.384 91.2377 135.539 91.0651 135.701 91.0435C135.827 91.0291 136.01 91.1226 136.194 91.1262L136.19 91.1226Z" fill="white"/>
<path d="M136.358 91.7523C136.376 92.0329 136.056 92.0653 135.97 92.2811C136.11 92.5401 136.164 92.8998 136.326 93.1372C136.319 93.2919 136.351 93.497 136.276 93.5653C135.934 93.6445 135.751 92.907 135.614 92.648C135.351 92.7056 135.592 93.7092 135.24 93.5833C135.067 93.5222 135.24 93.2344 135.204 93.0149C135.171 92.8207 135.013 92.7811 134.999 92.6264C134.988 92.5005 135.114 92.3674 135.15 92.2379C135.204 92.0545 135.168 91.6983 135.355 91.6875C135.445 91.6839 135.567 91.9178 135.625 91.9322C135.826 91.9861 136.067 91.6839 136.355 91.7487L136.358 91.7523Z" fill="white"/>
<path d="M135.734 94.7884C135.673 94.9431 135.324 94.8675 135.295 94.7272C135.352 94.5653 135.705 94.6157 135.734 94.7884Z" fill="white"/>
<path d="M135.409 95.2777C135.391 95.3065 135.366 95.3353 135.341 95.3604C135.211 95.3101 135.075 95.2741 135.035 95.1158C135.129 94.9467 135.402 95.087 135.409 95.2777Z" fill="white"/>
<path d="M134.954 94.7701C134.867 94.9176 134.569 94.7593 134.461 94.914C134.285 94.9104 134.108 94.9068 134.072 94.7306C134.123 94.5831 134.285 94.6838 134.41 94.6694C134.615 94.6478 134.9 94.4751 134.954 94.7701Z" fill="white"/>
<path d="M132.561 102.573C132.561 102.393 132.467 102.234 132.442 102.044C132.435 101.975 132.449 101.886 132.442 101.799C132.431 101.673 132.377 101.569 132.392 101.493C132.417 101.36 132.546 101.346 132.579 101.227C132.633 101.037 132.514 101.008 132.51 100.778C132.51 100.616 132.611 100.54 132.679 100.328C132.712 100.231 132.712 100.051 132.748 99.9825C132.791 99.8962 132.978 99.8207 133.053 99.7811C133.312 99.6264 133.521 99.3422 133.784 99.2919C133.848 99.2775 133.938 99.3027 133.989 99.2919C134.143 99.2595 134.334 99.1048 134.55 99.0473C134.755 98.9897 134.938 99.0113 135.093 98.9034C135.262 98.7846 135.503 98.4753 135.568 98.2918C135.647 98.0688 135.622 97.8781 135.773 97.8026C135.845 97.7666 135.917 97.8026 135.992 97.781C136.072 97.7558 136.241 97.6587 136.298 97.5975C136.417 97.4716 136.435 97.263 136.568 97.1299C136.661 97.0364 136.834 96.8961 136.96 96.8241C137.032 96.781 137.165 96.7342 137.23 96.7414C137.471 96.7666 137.579 97.1659 137.841 97.0867C137.935 97.058 138.028 96.8205 138.115 96.6802C138.237 96.4716 138.327 96.191 138.539 96.1299C138.712 96.0795 138.903 96.209 138.996 96.0291C139.018 95.8996 138.917 95.8241 138.996 95.7449C139.194 95.7593 139.529 96.0795 139.827 96.0903C139.989 96.0975 140.288 95.878 140.32 96.173C140.334 96.3025 140.198 96.4068 140.169 96.5399C140.147 96.6335 140.201 96.6838 140.151 96.7846C140.014 96.8493 139.867 96.8853 139.863 97.0687C139.859 97.3026 140.136 97.4105 140.302 97.5364C140.417 97.6227 140.511 97.7558 140.572 97.8026C140.626 97.8386 140.705 97.8565 140.741 97.8853C140.852 97.9717 140.928 98.1659 141.079 98.1695C141.252 98.1731 141.424 97.9105 141.518 97.6587C141.629 97.3637 141.637 97.0112 141.687 96.7018C141.705 96.5975 141.766 96.4968 141.788 96.3961C141.852 96.1191 141.942 95.7413 142.144 95.6406C142.345 95.8996 142.414 96.3996 142.381 96.8241C142.518 96.9464 142.755 96.9069 142.788 97.1911C142.798 97.2882 142.748 97.4141 142.755 97.5148C142.766 97.6875 142.874 97.835 142.892 97.9825C142.924 98.2523 142.856 98.4789 142.96 98.6767C143.093 98.9249 143.352 98.9178 143.522 99.1875C143.522 99.353 143.575 99.4214 143.608 99.5545C143.622 99.6156 143.608 99.7199 143.626 99.7595C143.68 99.8962 143.827 99.9106 143.881 100.022C143.906 100.08 143.899 100.184 143.932 100.288C143.978 100.439 144.09 100.551 144.169 100.695C144.245 100.835 144.37 100.99 144.388 101.101C144.421 101.303 144.299 101.443 144.27 101.609C144.234 101.81 144.27 102.073 144.201 102.281C144.122 102.526 143.928 102.767 143.777 103.076C143.651 103.328 143.482 103.616 143.302 103.788C143.194 103.893 143.068 103.95 142.964 104.055C142.802 104.213 142.669 104.422 142.525 104.605C142.374 104.799 142.187 104.947 142.068 105.112C141.896 105.353 141.809 105.745 141.511 105.785C141.334 105.807 141.18 105.789 141.018 105.868C140.766 105.986 140.601 106.209 140.475 106.213C140.345 106.217 140.223 106.03 140.1 106.008C139.964 105.986 139.859 106.13 139.658 106.13C139.579 106.13 139.536 106.073 139.421 106.03C139.18 105.936 138.913 105.94 138.877 105.623C138.859 105.45 138.971 105.371 138.96 105.217C138.953 105.062 138.827 105.022 138.773 104.889C138.805 104.749 138.813 104.573 138.687 104.483C138.683 104.357 138.708 104.267 138.755 104.199C138.658 104.249 138.528 104.281 138.417 104.36C138.295 104.45 138.205 104.655 138.061 104.627C137.928 104.569 138.028 104.411 138.01 104.281C137.996 104.184 137.809 103.76 137.723 103.691C137.626 103.612 137.266 103.45 137.147 103.425C136.622 103.328 136.287 103.663 135.874 103.713C135.766 103.724 135.651 103.691 135.554 103.713C135.212 103.785 134.834 104.109 134.622 104.324C134.273 104.368 133.917 104.238 133.553 104.364C133.194 104.49 132.989 104.85 132.435 104.749C132.327 104.637 132.129 104.58 132.129 104.382C132.129 104.227 132.32 104.127 132.384 104.015C132.453 103.896 132.564 103.616 132.571 103.443C132.571 103.306 132.496 103.145 132.503 102.975C132.51 102.842 132.571 102.698 132.571 102.569L132.561 102.573Z" fill="white"/>
<path d="M132.273 94.0763C132.367 94.0619 132.435 93.9792 132.529 93.9756C132.726 93.9648 132.921 94.1519 133.154 94.1159C133.205 94.1806 133.172 94.2382 133.172 94.3425C133.37 94.4684 133.698 94.4468 133.798 94.6878C133.651 94.8785 133.428 94.7418 133.237 94.7094C133.065 94.6807 132.881 94.695 132.694 94.6699C132.457 94.6375 132.241 94.4792 132.018 94.4468C131.881 94.4252 131.741 94.472 131.611 94.4468C131.46 94.4181 130.892 94.159 130.881 93.9792C130.874 93.7921 131.136 93.7382 131.374 93.7741C131.68 93.8209 131.881 94.1447 132.273 94.0799V94.0763Z" fill="white"/>
<path d="M132.729 92.6695C132.6 92.6263 132.481 92.6515 132.423 92.6083C132.308 92.522 132.323 92.2774 132.287 92.1407C132.251 92.0004 132.11 91.9249 132.031 91.7342C131.92 91.4572 131.873 90.8349 132.168 90.7773C132.287 90.7521 132.409 90.8637 132.492 90.8385C132.654 90.7917 132.625 90.5363 132.762 90.432C132.837 90.3744 132.977 90.3996 133.085 90.3492C133.197 90.2989 133.28 90.173 133.355 90.0651C133.427 89.9643 133.481 89.7917 133.575 89.7197C133.679 89.637 133.776 89.6334 133.862 89.5578C134.085 89.3528 134.093 89.0686 134.269 88.824C134.42 88.6153 134.657 89.0254 134.675 89.1909C134.758 89.3204 134.924 89.3528 134.995 89.4967C134.895 89.8564 134.614 89.8852 134.675 90.3924C134.686 90.4751 134.733 90.6298 134.776 90.7377C134.823 90.8565 134.967 90.986 134.963 91.0651C134.952 91.2162 134.697 91.209 134.639 91.3709C134.589 91.5184 134.643 91.5291 134.621 91.7594C134.549 91.9248 134.359 91.9644 134.298 92.1659C134.226 92.4069 134.308 92.7198 134.147 92.8997C134.035 92.8925 133.909 93.0184 133.772 93.0004C133.625 92.9824 133.481 92.7378 133.247 92.7342C133.157 92.7342 133.049 92.8026 132.959 92.7954C132.887 92.7882 132.83 92.7091 132.722 92.6731L132.729 92.6695Z" fill="white"/>
<path d="M131.632 92.2163C132.064 92.2163 132.064 93.0221 131.632 93.0221C131.201 93.0221 131.201 92.2163 131.632 92.2163Z" fill="white"/>
<path d="M131.003 92.1193C131.057 92.1265 131.244 92.443 131.24 92.5258C131.233 92.6697 131.057 92.6625 131.003 92.8531C130.924 93.1445 131.039 93.4791 130.902 93.6265C130.827 93.6841 130.687 93.6661 130.564 93.6661C130.258 93.4071 130.014 93.0977 129.751 92.7488C129.654 92.6229 129.539 92.5114 129.481 92.3819C129.391 92.1876 129.363 91.9718 129.262 91.7919C129.172 91.6336 129.01 91.5185 128.924 91.3423C128.852 91.1984 128.845 91.0113 128.773 90.8746C128.701 90.7451 128.586 90.6912 128.499 90.5904C128.445 90.5221 128.413 90.4178 128.363 90.3458C128.15 90.0401 127.74 89.8782 127.719 89.4285C127.805 89.3098 127.895 89.4717 128.057 89.5113C128.161 89.5364 128.287 89.5005 128.363 89.5328C128.517 89.594 128.622 89.8854 128.787 90.0436C128.877 90.1336 128.999 90.1947 129.093 90.2883C129.194 90.389 129.266 90.5365 129.348 90.594C129.46 90.6768 129.611 90.7271 129.755 90.8386C129.953 90.9897 130.302 91.1444 130.348 91.4502C130.359 91.5257 130.32 91.6552 130.33 91.7128C130.356 91.8207 130.467 91.8675 130.535 91.9574C130.618 92.0725 130.636 92.2416 130.755 92.2632C130.874 92.3027 130.881 92.1013 131.01 92.1193H131.003Z" fill="white"/>
<path d="M122.999 87.8423C123.146 87.8998 123.632 88.6121 123.491 89.0042C123.452 89.1157 123.283 89.2596 123.117 89.2272C122.783 89.1625 122.848 88.2668 122.948 87.9034C122.959 87.8747 122.973 87.8531 122.999 87.8423Z" fill="white"/>
<path d="M111.721 98.1517C111.735 97.9862 111.832 97.72 111.94 97.6229C112.095 97.4826 112.307 97.497 112.466 97.3999C112.595 97.3171 112.775 97.184 112.872 97.0329C112.955 96.907 112.958 96.7595 113.023 96.666C113.07 96.6013 113.171 96.5833 113.225 96.5041C113.275 96.4322 113.264 96.2991 113.343 96.22C113.577 96.0976 113.645 96.6157 113.681 96.9718C113.692 97.0833 113.739 97.202 113.732 97.256C113.707 97.4178 113.559 97.4538 113.512 97.5617C113.502 98.0078 113.354 98.3963 113.225 98.7632C113.113 99.0798 113.045 99.4287 112.955 99.7021C112.922 99.8028 112.851 99.8784 112.818 99.9683C112.696 100.314 112.649 100.86 112.426 101.008C112.347 101.062 112.038 101.152 111.951 101.152C111.743 101.148 111.563 100.961 111.512 100.745C111.484 100.63 111.512 100.508 111.494 100.378C111.473 100.217 111.394 100.076 111.408 99.8892C111.444 99.4755 111.782 99.274 111.796 98.9323C111.807 98.6733 111.689 98.4179 111.71 98.1589L111.721 98.1517Z" fill="white"/>
<path d="M103.552 69.1617C103.57 69.5034 103.117 69.4603 103.059 69.7516C103.034 69.8847 103.113 70.061 103.095 70.1797C103.059 70.392 102.89 70.3308 102.671 70.4459C102.559 70.5035 102.451 70.7157 102.333 70.7301C102.221 70.7445 102.153 70.651 102.077 70.6689C101.966 70.6941 102.002 70.8596 101.84 70.892C101.71 70.9208 101.48 70.7517 101.466 70.9531C101.455 71.0826 101.671 71.151 101.804 71.1366C101.912 71.1258 101.987 71.0359 102.092 71.0359C102.293 71.0359 102.423 71.2157 102.549 71.2193C102.84 71.2301 103.124 70.8956 103.43 70.9351C103.567 70.9531 103.649 71.0682 103.75 71.0575C103.912 71.0395 104.052 70.8128 104.174 70.7301C104.124 70.3884 104.178 69.9351 104.444 69.9135C104.628 69.8991 104.901 70.2912 104.937 69.9135C104.951 69.7516 104.793 69.6042 104.682 69.6077C104.585 69.6077 104.455 69.8416 104.376 69.6473C104.376 69.4603 104.552 69.5106 104.646 69.4639C104.718 69.4279 104.768 69.3344 104.851 69.302C105.254 69.1329 105.815 69.4675 105.97 69.0574C105.613 68.6904 105.002 69.1905 104.595 69.1581C104.423 69.1437 104.192 68.989 104.139 68.7912C104.121 68.73 104.139 68.6437 104.121 68.525C104.106 68.3955 104.049 68.2588 104.052 68.1796C104.07 67.8127 104.833 67.7408 104.833 67.2839C104.689 67.1148 104.261 67.1436 104.121 67.3235C104.07 67.3882 104.074 67.5177 104.002 67.6508C103.851 67.9278 103.358 67.9638 103.203 68.3019C103.167 68.3775 103.11 68.5861 103.135 68.7084C103.174 68.9027 103.531 68.953 103.541 69.1581L103.552 69.1617ZM99.516 89.087C99.0268 89.0007 98.5267 89.2381 98.1922 89.4108C97.9979 89.5115 97.8037 89.6662 97.631 89.677C97.4691 89.6878 97.3109 89.5727 97.1562 89.5547C96.9547 89.5295 96.6957 89.5547 96.4943 89.5943C96.3 89.6374 96.1238 89.8029 95.9511 89.8173C95.6237 89.8461 95.3108 89.4612 95.1021 89.2669C94.9762 89.1482 94.8467 89.0511 94.728 88.9396C94.6021 88.8208 94.4366 88.7489 94.3395 88.6338C94.2064 88.4791 94.2064 88.2093 94.1345 88.0007C94.0517 87.756 93.7999 87.5798 93.6093 87.3496C93.4654 87.1769 93.138 86.9179 93.102 86.6984C93.0841 86.5869 93.1416 86.4538 93.1344 86.3315C93.1272 86.1517 93.0121 86.0509 93.0157 85.925C93.0157 85.7452 93.1956 85.6085 93.2351 85.4574C93.2567 85.3818 93.2459 85.2703 93.2675 85.1732C93.3143 84.9681 93.4294 84.8422 93.4042 84.5401C93.3934 84.4214 93.3071 84.3098 93.3035 84.1516C93.3035 84.0436 93.361 83.9861 93.3539 83.8854C93.3395 83.7127 93.1524 83.6767 93.1344 83.4789C93.1164 83.2738 93.2999 83.1012 93.4042 82.8673C93.451 82.763 93.4798 82.6011 93.5229 82.522C93.6165 82.3493 93.7711 82.2666 93.8467 82.0939C93.9006 81.968 93.9186 81.781 93.9654 81.6874C94.0265 81.5651 94.1524 81.5004 94.2712 81.3421C94.3683 81.2126 94.4079 81.0543 94.4762 80.9967C94.5625 80.9212 94.6884 80.9032 94.782 80.8529C95.0949 80.6802 95.3252 80.4608 95.4762 80.0974C95.4295 79.7701 95.5014 79.6298 95.6129 79.4032C95.7173 79.1945 95.7928 78.9931 95.9691 78.8744C96.1813 78.7305 96.3792 78.7161 96.5267 78.4463C96.6022 78.3096 96.7137 78.0758 96.7137 77.9355C96.7137 77.734 96.541 77.475 96.39 77.4462C96.2353 77.4175 96.0015 77.5865 95.9151 77.3851C95.8863 77.3203 95.9259 77.1692 95.9151 77.1009C95.8971 76.9678 95.8 76.8743 95.7964 76.7735C95.7892 76.5829 95.9547 76.3814 96.0015 76.162C96.0662 75.8598 96.0015 75.6332 95.9835 75.2843C96.2209 74.8346 96.7461 75.0576 97.2713 75.1008C97.3504 75.108 97.4404 75.0792 97.5267 75.0792C97.8397 75.0864 98.0843 75.2015 98.1886 74.8742C98.2282 74.7519 98.2641 74.295 98.239 74.1799C98.2102 74.0432 97.9872 73.6907 97.8828 73.6115C97.7138 73.482 97.4691 73.5396 97.3756 73.3058C97.4548 72.9029 97.8289 73.2374 98.0555 73.1439C98.1706 73.0935 98.1562 72.8561 98.2605 72.8165C98.3289 72.7913 98.4188 72.8993 98.516 72.8993C98.5987 72.8993 98.8973 72.7194 98.9728 72.6546C99.0807 72.5683 99.1131 72.3848 99.2102 72.3093C99.275 72.2589 99.3613 72.2661 99.4297 72.2266C99.5736 72.151 99.757 71.9999 99.8541 71.8596C99.9944 71.6582 100.056 71.4064 100.228 71.3704C100.455 71.3201 100.969 71.4244 101.009 71.1258C101.045 70.8416 100.8 70.6186 100.89 70.3092C100.962 70.0682 101.142 70.1078 101.397 69.9639C101.52 70.0682 101.484 70.3704 101.498 70.5538C101.656 70.5538 101.977 70.4963 102.005 70.3308C102.045 70.1222 101.775 69.9063 101.718 69.7804C101.653 69.6437 101.642 69.4027 101.512 69.3739C101.253 69.3128 101.002 69.802 100.682 69.802C100.469 69.802 100.246 69.6077 100.189 69.4135C100.156 69.3056 100.189 69.2013 100.171 69.0861C100.149 68.9207 100.066 68.748 100.102 68.5178C100.232 68.2516 100.53 68.2084 100.746 68.0681C100.829 68.0177 100.894 67.9062 100.984 67.8631C101.135 67.7947 101.361 67.8631 101.509 67.7623C101.602 67.6976 101.577 67.5861 101.646 67.4566C101.689 67.3738 101.793 67.3271 101.851 67.2335C101.89 67.1688 101.894 67.0681 101.937 67.0105C102.084 66.7911 102.354 66.7083 102.462 66.4817C102.509 66.381 102.379 66.345 102.412 66.1975C102.466 66.0572 102.678 66.1615 102.8 66.1364C102.969 66.104 103.124 65.8594 103.308 65.809C103.498 65.7587 103.707 65.791 103.883 65.7083C103.991 65.6579 104.088 65.5428 104.189 65.5248C104.225 65.5176 104.326 65.5464 104.376 65.5464C104.441 65.5464 104.509 65.4961 104.595 65.4853C104.721 65.4709 104.876 65.5212 105.038 65.5248C105.304 65.532 105.559 65.4277 105.782 65.5464C105.898 65.6076 105.887 65.7658 106.038 65.8306C106.113 65.863 106.214 65.8162 106.326 65.8306C106.491 65.8486 106.664 65.9889 106.887 66.0141C106.966 66.0249 107.045 66.0033 107.124 66.0141C107.365 66.05 107.631 66.2011 107.872 66.2982C108.07 66.3774 108.491 66.4781 108.498 66.7047C108.509 66.9709 108.131 67.0501 107.973 67.0501C107.707 67.0501 107.354 66.863 107.074 66.9673C107.077 67.4278 107.491 67.7767 107.872 67.7228C107.905 67.5069 107.657 67.6256 107.685 67.417C107.854 67.2623 108.056 67.5213 108.297 67.4782C108.39 67.4494 108.376 67.2875 108.398 67.1724C108.599 67.0249 108.851 66.8091 109.16 66.9673C109.175 66.9314 109.2 66.9026 109.229 66.8846C109.25 66.6616 109.024 66.5429 109.142 66.3342C109.2 66.1903 109.516 66.2407 109.567 66.3558C109.592 66.4925 109.488 66.4781 109.498 66.6004C109.56 66.7623 109.696 66.7875 109.768 66.7839C109.934 66.7731 109.966 66.5932 110.124 66.4997C110.189 66.4601 110.279 66.4565 110.362 66.417C110.459 66.3702 110.538 66.2803 110.617 66.2551C110.675 66.2371 110.758 66.2551 110.837 66.2335C110.937 66.2083 111.042 66.1112 111.124 66.1112C111.225 66.1112 111.301 66.2515 111.43 66.2731C111.502 66.2839 111.581 66.2263 111.686 66.2119C111.768 66.2011 111.855 66.2227 111.923 66.2119C112.085 66.1831 112.196 66.0824 112.33 66.0896C112.423 66.0968 112.585 66.2479 112.653 66.1723C112.761 66.0428 112.506 65.9457 112.585 65.827C112.844 65.8522 113.121 65.845 113.384 65.8882C113.772 65.9529 114.135 66.1867 114.484 66.1939C114.452 65.9097 114.182 65.9925 114.06 65.8666C114.024 65.827 113.873 65.5284 113.873 65.4385C113.873 65.3917 114.063 64.9996 114.11 64.9493C114.261 64.7802 114.75 64.7802 114.891 65.0104C114.988 65.1651 114.956 65.4025 115.096 65.3989C115.215 65.3953 115.279 65.0392 115.42 65.032C115.535 65.0248 115.592 65.2586 115.707 65.255C115.848 65.255 115.945 64.9385 116.132 64.9277C116.233 64.9241 116.265 64.9888 116.42 65.0104C116.528 64.9277 116.384 64.8198 116.438 64.7046C116.628 64.5392 117.06 64.6651 117.301 64.5608C117.369 64.4636 117.215 64.3953 117.283 64.2946C117.492 64.1183 117.844 64.1039 118.2 64.032C118.416 63.9888 118.621 63.8053 118.794 63.7873C118.974 63.7694 119.143 63.9132 119.301 63.9096C119.398 63.9096 119.513 63.8737 119.607 63.8269C119.704 63.7837 119.769 63.6722 119.862 63.6435C120.01 63.6003 120.2 63.665 120.369 63.6435C120.553 63.6219 120.711 63.5355 120.844 63.5607C120.967 63.5859 121.067 63.7406 121.182 63.7658C121.539 63.8341 121.909 63.701 122.233 63.8053C122.29 63.8233 122.352 63.8953 122.42 63.9276C122.639 64.0248 122.787 63.9924 122.826 64.3161C122.999 64.3881 123.1 64.5787 123.301 64.6435C123.438 64.6867 123.571 64.6219 123.726 64.6219C123.927 64.6219 124.183 64.6327 124.352 64.6615C124.449 64.6795 124.528 64.7658 124.621 64.7838C124.69 64.7982 124.78 64.7766 124.859 64.7838C124.963 64.7946 125.06 64.8485 125.147 64.8449C125.323 64.8377 125.46 64.6471 125.604 64.6219C125.683 64.6075 125.783 64.6543 125.859 64.6615C126.143 64.6903 126.474 64.6183 126.708 64.6831C126.834 64.719 127.046 64.8845 127.183 65.0104C127.283 65.1003 127.345 65.2478 127.438 65.3162C127.528 65.3809 127.755 65.4961 127.845 65.4781C127.953 65.4565 127.956 65.3126 128.064 65.255C128.402 65.1651 128.996 65.3845 129.269 65.2334C129.373 65.1759 129.352 65.0428 129.438 64.9673C129.945 64.9385 130.453 64.9924 130.931 65.0068C131.1 65.014 131.273 64.9565 131.424 64.9852C131.593 65.0212 131.715 65.2227 131.881 65.291C131.992 65.3378 132.187 65.3126 132.356 65.3522C132.467 65.3773 132.561 65.4601 132.643 65.4745C132.823 65.5068 132.996 65.4493 133.169 65.4349C133.557 65.3989 134.057 65.3737 134.442 65.5572C134.647 65.6543 134.73 65.8558 134.949 65.8846C135.262 65.9277 135.748 65.8522 136.068 65.8846C136.144 65.8918 136.215 65.9313 136.273 65.9241C136.381 65.9133 136.446 65.8054 136.579 65.8018C136.748 65.7982 137.014 66.1148 137.259 66.068C137.363 65.9817 137.176 65.863 137.277 65.7838C137.374 65.6903 137.503 65.7838 137.651 65.7838C137.73 65.7838 137.831 65.7335 137.906 65.7443C138.093 65.7622 138.27 65.9637 138.5 66.0284C138.683 66.0788 138.935 66.1004 139.162 66.068C139.324 66.0464 139.464 65.9817 139.619 66.0069C139.694 66.0177 139.759 66.086 139.838 66.1076C139.91 66.1292 139.982 66.1076 140.043 66.1292C140.101 66.1472 140.155 66.2119 140.212 66.2299C140.529 66.3378 140.946 66.3918 141.28 66.5141C141.478 66.586 141.676 66.7335 141.842 66.7371C141.921 66.7371 141.993 66.6939 142.097 66.6975C142.608 66.7011 143.212 66.9565 143.165 67.5321C142.565 67.6904 142.065 67.0357 141.435 67.2263C141.334 67.2551 141.223 67.3882 141.234 67.5105C141.255 67.8667 142 67.8343 142.065 68.1832C141.942 68.2911 141.809 68.1904 141.709 68.2048C141.557 68.2264 141.298 68.4206 141.201 68.5322C141.086 68.6617 140.985 68.9926 140.863 69.0214C140.712 69.0574 140.482 68.8415 140.252 68.8991C140.169 68.9207 140.09 69.0466 140.014 69.061C139.827 69.1041 139.59 68.9387 139.471 69.2049C139.532 69.3919 139.496 69.6509 139.622 69.7552C139.705 69.8236 139.809 69.7696 139.91 69.8164C140.029 69.8703 140.093 70.043 140.198 70.1437C140.28 70.2229 140.37 70.2265 140.417 70.3272C140.428 70.4783 140.367 70.4927 140.381 70.5934C140.406 70.7625 140.629 70.802 140.637 70.9208C140.644 71.0682 140.496 71.0359 140.467 71.187C140.457 71.2805 140.557 71.3057 140.568 71.4316C140.575 71.5143 140.511 71.6006 140.518 71.6978C140.525 71.8345 140.615 71.9244 140.601 72.0431C140.59 72.1474 140.518 72.2266 140.446 72.2661C140.122 72.0143 139.827 71.669 139.478 71.3488C139.122 71.0179 138.554 70.615 138.496 69.9243C138.496 69.82 138.683 69.7337 138.716 69.579C138.73 69.5142 138.694 69.4243 138.698 69.3344C138.708 69.0969 138.874 68.8667 138.867 68.7228C138.859 68.5681 138.615 68.2768 138.493 68.2336C138.395 68.2947 138.493 68.4206 138.475 68.5178C138.457 68.6401 138.331 68.7912 138.219 68.802C137.899 68.8343 137.863 68.3055 137.356 68.4566C137.223 68.4962 137.039 68.7336 137.086 69.0286C137.1 69.1185 137.305 69.212 137.291 69.3344C137.277 69.4531 136.831 69.4854 136.73 69.4782C136.457 69.4531 136.316 69.2049 136.068 69.212C135.946 69.212 135.841 69.3344 135.744 69.3559C135.212 69.4746 134.417 69.0394 134.237 69.6006C134.212 69.6797 134.226 69.784 134.201 69.8668C134.169 69.9855 134.089 70.0754 134.064 70.1509C134.043 70.2121 134.046 70.338 134.014 70.4351C133.982 70.5251 133.661 70.8704 133.946 70.9639C134.014 70.9855 134.046 70.928 134.133 70.9423C134.277 70.9675 134.521 71.2481 134.69 71.2481C134.791 71.2481 134.935 71.1114 135.014 71.1042C135.172 71.0934 135.284 71.2157 135.403 71.2877C135.518 71.356 135.69 71.4963 135.777 71.4927C135.935 71.4819 135.859 71.3488 136.014 71.2877C136.309 71.392 136.446 71.7661 136.726 72.0611C136.827 72.169 136.978 72.2589 137.115 72.4064C137.19 72.4892 137.428 72.7086 137.439 72.8129C137.446 72.9101 137.374 72.9532 137.352 73.036C137.323 73.1583 137.388 73.2518 137.32 73.3417C137.05 73.223 136.989 72.8993 136.795 72.6295C136.723 72.5287 136.651 72.4064 136.539 72.2625C136.489 72.1978 136.309 71.9676 136.201 72.0179C135.989 72.1151 136.32 72.5036 136.37 72.5899C136.482 72.7698 136.633 73.0108 136.644 73.2014C136.651 73.3237 136.579 73.5432 136.575 73.7518C136.575 73.8921 136.604 74.018 136.593 74.1403C136.579 74.259 136.51 74.3957 136.474 74.5288C136.435 74.6763 136.424 74.8562 136.392 74.9569C136.327 75.1404 136.104 75.3562 135.949 75.3634C135.809 75.3706 135.748 75.2339 135.611 75.2411C135.403 75.2519 135.363 75.4821 135.237 75.6692C135.248 75.8706 135.302 75.939 135.269 76.0757C135.223 76.2915 134.974 76.3275 134.982 76.5433C134.989 76.7412 135.212 76.7807 135.32 76.8707C135.471 76.993 135.737 77.2592 135.881 77.4822C135.974 77.6261 136.111 77.8995 136.1 78.0506C136.086 78.252 135.604 78.5326 135.406 78.4571C135.215 78.3851 135.28 78.1693 135.237 77.9678C135.201 77.8132 135.1 77.7484 135.05 77.6225C135.021 77.5577 135.036 77.4534 135 77.3779C134.899 77.1692 134.719 77.2844 134.507 77.1549C134.37 77.0685 134.41 76.8887 134.356 76.7268C134.284 76.5073 133.974 76.403 133.73 76.4606C133.55 76.5037 133.492 76.6872 133.323 76.7268C133.075 76.5505 133.374 76.1116 133.068 76.0757C132.834 76.0469 132.679 76.4786 132.543 76.6045C132.449 76.6908 132.284 76.7052 132.273 76.8275C132.251 77.0505 132.471 77.0074 132.647 77.0937C132.805 77.1728 132.823 77.3887 132.971 77.3995C133.093 77.4103 133.172 77.2484 133.294 77.2376C133.503 77.216 133.672 77.3275 133.802 77.421C133.715 77.6693 133.262 77.8491 133.259 78.1765C133.259 78.3635 133.442 78.3995 133.582 78.5218C133.701 78.6261 133.856 78.9247 134.025 79.1334C134.097 79.2233 134.212 79.2808 134.244 79.3384C134.323 79.4715 134.309 79.637 134.395 79.7269C134.41 79.8384 134.352 79.8672 134.363 79.9715C134.406 80.119 134.593 80.0902 134.633 80.2377C134.597 80.5903 134.719 80.9212 134.482 81.0543C134.37 81.6838 134.248 82.1767 133.888 82.522C133.564 82.8314 133.14 82.9213 132.751 83.0724C132.651 83.112 132.571 83.2379 132.482 83.2774C132.255 83.371 131.856 83.3134 131.838 83.6444C131.827 83.8062 132.01 83.907 132.025 84.0724C132.046 84.3278 131.856 84.5832 131.719 84.6012C131.622 84.6156 131.41 84.5329 131.395 84.317C131.381 84.0724 131.647 83.9753 131.665 83.8278C131.701 83.5688 131.478 83.317 131.226 83.3386C131.003 83.3602 130.492 83.8998 130.481 84.1947C130.471 84.4142 130.845 84.8746 130.974 85.0113C131.449 85.5149 131.956 85.8171 131.874 87.0474C131.755 87.3603 131.449 87.4251 131.212 87.5978C131.032 87.7273 130.942 88.1338 130.636 88.1697C130.514 88.1194 130.586 87.8891 130.55 87.7812C130.503 87.6337 130.262 87.5654 130.111 87.4143C129.989 87.292 129.935 87.0977 129.841 86.9862C129.722 86.8459 129.546 86.8172 129.399 86.72C129.309 86.6589 129.237 86.4502 129.143 86.4538C128.992 86.461 129.046 86.6337 129.007 86.9215C128.971 87.2057 128.798 87.4215 128.855 87.756C128.881 87.8927 129.021 88.0043 129.093 88.1445C129.212 88.3748 129.226 88.6446 129.348 88.7777C129.427 88.864 129.564 88.882 129.654 88.9611C129.834 89.1158 130.15 89.4504 130.215 89.6338C130.287 89.8497 130.215 90.1015 130.266 90.3281C130.323 90.5907 130.607 90.7742 130.435 91.0404C130.273 91.0044 130.132 90.8749 129.992 90.7742C129.758 90.6015 129.65 90.4504 129.499 90.1626C129.456 90.0799 129.388 89.9972 129.363 89.918C129.305 89.7346 129.316 89.5295 129.262 89.3065C129.215 89.1158 129.032 88.8136 128.888 88.6554C128.769 88.5223 128.557 88.4431 128.55 88.2489C128.539 87.9755 128.625 87.6553 128.618 87.3316C128.618 87.2632 128.575 87.1913 128.568 87.1085C128.55 86.9539 128.582 86.7596 128.55 86.6193C128.521 86.4898 128.442 86.3711 128.399 86.2524C128.352 86.1337 128.309 86.0186 128.262 85.8639C128.194 85.63 128.114 85.1732 127.956 85.1516C127.787 85.1264 127.618 85.5329 127.395 85.5401C127.28 85.5401 127.129 85.4322 127.107 85.2955C127.086 85.1696 127.161 85.0437 127.158 84.907C127.15 84.6336 126.988 84.5293 126.87 84.335C126.819 84.2559 126.809 84.148 126.769 84.0904C126.693 83.9789 126.546 83.9177 126.445 83.8062C126.352 83.6983 126.251 83.5436 126.208 83.4393C126.143 83.281 126.122 83.0724 126.021 83.0508C125.924 83.0292 125.816 83.1947 125.715 83.2343C125.611 83.2738 125.359 83.3278 125.258 83.335C124.916 83.3638 124.643 83.2558 124.683 83.7415C124.629 83.9609 124.438 83.9645 124.308 84.0688C124.147 84.2019 124.028 84.4681 123.852 84.6804C123.765 84.7847 123.639 84.8494 123.564 84.9466C123.499 85.0257 123.478 85.1552 123.413 85.2308C123.233 85.4358 122.96 85.4538 122.837 85.7416C122.83 86.0797 122.97 86.3351 122.938 86.6589C122.924 86.8064 122.834 86.9359 122.819 87.087C122.808 87.2165 122.862 87.3567 122.837 87.4934C122.823 87.569 122.754 87.605 122.7 87.6985C122.654 87.7812 122.636 87.8891 122.6 87.9431C122.542 88.0294 122.449 88.0906 122.395 88.1661C122.308 88.2884 122.29 88.3748 122.208 88.3892C121.837 88.4539 121.744 87.605 121.582 87.2488C121.506 87.087 121.352 86.9359 121.276 86.738C121.19 86.5114 121.161 86.2236 121.039 85.9646C120.934 85.7416 120.787 85.5221 120.715 85.2919C120.654 85.0977 120.603 84.8566 120.546 84.6408C120.485 84.4142 120.42 84.1264 120.409 83.9501C120.395 83.6839 120.452 83.522 120.272 83.4213C120.11 83.4681 120.035 83.6659 119.848 83.6659C119.661 83.6659 119.182 83.2882 119.323 82.9537C119.204 82.7522 118.905 82.6407 118.679 82.4033C118.549 82.2666 118.431 81.9428 118.204 81.9141C118.143 81.9069 118.06 81.95 117.999 81.9536C117.855 81.968 117.6 81.9392 117.438 81.9536C117.233 81.9716 116.984 82.0292 116.725 81.9932C116.56 81.9716 116.355 81.932 116.182 81.9105C115.966 81.8853 115.675 81.8205 115.556 81.6874C115.481 81.6047 115.452 81.3385 115.319 81.2989C115.161 81.2558 115.074 81.3996 114.93 81.4428C114.621 81.5291 114.358 81.3673 114.15 81.1982C114.002 81.0795 113.866 81.0183 113.761 80.932C113.502 80.7234 113.455 80.101 113.067 80.0974C112.93 80.0974 112.714 80.1981 112.693 80.3816C112.678 80.5111 112.822 80.7521 112.88 80.8493C113.071 81.173 113.42 81.2917 113.524 81.7234C113.596 81.7558 113.736 81.6479 113.812 81.745C113.876 81.932 113.812 82.2738 113.963 82.3565C114.668 82.4968 114.869 82.0328 115.182 81.7054C115.366 81.8493 115.304 81.9752 115.369 82.1335C115.434 82.2954 115.535 82.4249 115.657 82.4788C115.743 82.5184 115.851 82.4788 115.981 82.54C116.06 82.576 116.394 82.9573 116.405 83.0904C116.412 83.2091 116.186 83.6192 116.117 83.7199C116.049 83.8206 115.945 83.8746 115.912 83.9645C115.887 84.0365 115.894 84.1839 115.88 84.2307C115.848 84.3134 115.697 84.4178 115.61 84.5149C115.517 84.6192 115.409 84.6984 115.322 84.7811C115.215 84.8782 115.15 85.0149 115.035 85.0653C114.808 85.166 114.596 85.1228 114.409 85.2703C114.286 85.3675 114.286 85.5833 114.139 85.6984C113.984 85.8207 113.718 85.8207 113.495 85.943C113.351 86.0222 113.265 86.1732 113.139 86.2272C113.089 86.2488 113.024 86.2272 112.97 86.2488C112.858 86.2848 112.754 86.3783 112.646 86.4107C112.563 86.4358 112.473 86.4251 112.391 86.4502C112.128 86.5402 111.891 86.8603 111.628 86.6733C111.506 86.3315 111.484 85.8962 111.34 85.5941C111.268 85.4394 111.121 85.3926 111.07 85.2272C111.063 85.0977 111.196 85.1336 111.207 85.0221C111.164 84.8027 110.991 84.6984 110.887 84.5113C110.837 84.4214 110.811 84.2919 110.75 84.1839C110.549 83.8314 110.15 83.6479 110.07 83.2055C110.049 83.0868 110.07 82.9932 110.052 82.8997C110.02 82.7486 109.934 82.5903 109.847 82.4716C109.783 82.3817 109.65 82.3205 109.578 82.1874C109.527 82.1011 109.516 81.9752 109.477 81.8817C109.308 81.504 109.063 81.1694 108.797 80.9032C108.66 80.9284 108.509 80.9392 108.441 81.0471C108.509 81.3133 108.617 81.5363 108.729 81.7594C108.833 81.9644 108.98 82.1803 109.049 82.4105C109.074 82.4968 109.07 82.6047 109.099 82.6947C109.207 83.0184 109.542 83.1156 109.606 83.4897C109.653 83.7379 109.596 83.9105 109.657 84.1624C109.714 84.4034 110.009 84.5437 110.132 84.7739C110.232 84.961 110.232 85.2272 110.301 85.407C110.401 85.6696 110.686 85.7811 110.894 85.9574C111.081 86.1157 111.214 86.3603 111.369 86.5294C111.459 86.6265 111.585 86.6445 111.606 86.7524C111.635 86.8891 111.56 86.9359 111.538 87.0582C111.668 87.2201 111.794 87.5222 112.013 87.5474C112.103 87.5582 112.214 87.4503 112.351 87.4251C112.419 87.4143 112.499 87.4395 112.556 87.4251C112.646 87.4071 112.725 87.31 112.83 87.2812C113.002 87.238 113.204 87.256 113.423 87.22C113.632 87.1877 113.772 86.9754 113.93 87.0366C114.103 87.2668 113.981 87.5258 113.93 87.7488C113.912 87.828 113.912 87.9071 113.898 87.9719C113.808 88.3352 113.567 88.6014 113.455 88.9288C113.423 89.0295 113.427 89.1518 113.387 89.2561C113.261 89.5835 112.999 89.9036 112.794 90.1734C112.678 90.3245 112.578 90.4612 112.455 90.5799C112.333 90.6986 112.186 90.767 112.049 90.8857C111.779 91.1231 111.495 91.4648 111.304 91.7814C111.229 91.9037 111.196 92.044 111.117 92.1483C111.006 92.2958 110.837 92.3678 110.743 92.5153C110.671 92.6304 110.624 92.839 110.538 93.0441C110.445 93.2779 110.25 93.4362 110.283 93.7563C110.297 93.8786 110.387 93.9578 110.419 94.0837C110.473 94.2995 110.43 94.483 110.401 94.7132C110.499 94.9938 110.567 95.3031 110.74 95.4866C110.761 95.9003 110.711 96.2996 110.74 96.6485C110.758 96.8716 110.829 97.0334 110.758 97.2385C110.693 97.4183 110.448 97.7349 110.301 97.85C110.139 97.9759 109.894 98.0047 109.725 98.1558C109.606 98.2601 109.506 98.44 109.387 98.5623C109.185 98.7637 108.912 98.9508 108.894 99.1522C108.883 99.2674 108.97 99.4472 108.995 99.5587C109.06 99.8609 109.124 100.293 109.013 100.616C108.891 100.969 108.268 100.897 108.2 101.267C108.178 101.379 108.243 101.472 108.232 101.595C108.225 101.699 108.114 102.073 108.063 102.185C107.988 102.354 107.819 102.429 107.707 102.573C107.567 102.753 107.498 103.016 107.351 103.203C107.149 103.462 106.88 103.732 106.621 103.958C106.394 104.152 105.991 104.358 105.639 104.386C105.434 104.404 105.211 104.329 104.995 104.365C104.916 104.379 104.829 104.465 104.725 104.487C104.664 104.498 104.603 104.473 104.538 104.487C104.43 104.509 104.333 104.609 104.232 104.609C104.013 104.609 103.732 104.293 103.725 103.98C103.725 103.857 103.811 103.742 103.811 103.634C103.811 103.505 103.678 103.339 103.574 103.106C103.473 102.879 103.437 102.62 103.336 102.433C103.232 102.235 103.092 102.142 103.013 101.983C102.858 101.67 102.843 101.3 102.793 100.922C102.775 100.8 102.707 100.667 102.692 100.516C102.674 100.329 102.71 100.12 102.674 99.9652C102.646 99.8465 102.538 99.7242 102.469 99.5767C102.351 99.3141 102.264 98.9688 102.164 98.7637C102.066 98.5731 101.876 98.3716 101.858 98.1522C101.847 98.0047 101.872 97.7277 101.89 97.5802C101.908 97.4363 101.998 97.3248 102.027 97.1737C102.045 97.073 102.023 96.9579 102.045 96.8464C102.131 96.3787 102.559 96.2097 102.502 95.6449C102.477 95.4039 102.336 95.2852 102.315 95.0118C102.304 94.8859 102.369 94.7707 102.365 94.6448C102.365 94.4722 102.243 94.2168 102.178 94.0549C102.005 93.6052 101.901 93.1951 101.653 92.8534C101.516 92.6663 101.34 92.5368 101.228 92.3642C101.138 92.2239 101.027 91.9613 101.023 91.8534C101.023 91.7382 101.099 91.6627 101.124 91.5476C101.16 91.3965 101.164 91.1123 101.21 90.8749C101.232 90.767 101.329 90.5008 101.311 90.3245C101.293 90.1554 101.084 89.8281 100.905 89.7741C100.667 89.7022 100.423 89.8641 100.124 89.8353C99.8649 89.641 99.8865 89.1266 99.5124 89.0619L99.516 89.087ZM108.894 96.3787C108.973 96.2276 109.07 95.8068 108.894 95.706H108.862C108.786 95.8751 108.707 96.2852 108.894 96.3787ZM108.657 92.1195C108.714 91.9793 108.847 91.8282 108.826 91.6519C108.775 91.2598 108.167 91.4541 108.096 91.7346C108.049 91.9217 108.124 92.0728 108.06 92.2634C108.128 92.4145 108.293 92.4433 108.502 92.4253C108.617 92.3642 108.603 92.2491 108.653 92.1195H108.657ZM107.624 94.2204C107.693 94.0693 107.516 93.9722 107.488 93.8139C107.455 93.6268 107.527 93.4038 107.387 93.3031H107.336C107.214 93.6376 107.387 94.188 107.624 94.2204ZM119.19 73.9892C119.125 73.8346 118.941 74.036 119.02 74.1727C119.136 74.1799 119.175 74.1008 119.19 73.9892ZM115.24 74.8238C115.513 74.7591 115.24 74.2339 115.035 74.295C114.765 74.3777 115.053 74.867 115.24 74.8238ZM113.984 77.4534C114.071 76.7484 113.61 76.6944 113.527 76.1908C113.567 76.198 113.545 76.1332 113.578 76.1296C113.689 76.0649 113.858 76.2339 113.916 76.0685C113.916 75.8275 113.664 75.6476 113.409 75.7627C113.337 75.7015 113.326 75.5648 113.308 75.4353C113.117 75.2986 112.639 74.9965 112.646 74.7231C112.653 74.4965 112.894 74.3706 113.171 74.3777C113.29 74.2698 113.214 73.9425 113.103 73.8669C112.664 73.7518 112.43 73.831 112.153 74.072C112.02 74.1871 111.873 74.2662 111.797 74.3382C111.729 74.4029 111.639 74.5756 111.646 74.6655C111.657 74.7914 111.808 74.867 111.865 75.0325C111.894 75.1188 111.891 75.2267 111.916 75.2987C111.991 75.4965 112.178 75.6224 112.322 75.7879C112.423 75.903 112.707 76.1584 112.711 76.2987C112.714 76.4138 112.625 76.439 112.592 76.5649C112.56 76.6872 112.524 76.9714 112.542 77.0757C112.578 77.2987 112.772 77.3059 112.948 77.4031C113.125 77.4966 113.294 77.6621 113.473 77.6693C113.668 77.6765 113.873 77.6009 113.981 77.4642L113.984 77.4534ZM109.998 75.9857C110.459 75.885 110.247 75.421 110.016 75.2519C109.84 75.126 109.628 75.0145 109.423 74.8634C109.304 74.777 108.851 74.6116 108.847 74.4353C108.847 74.2446 109.185 74.1799 109.049 73.8453C108.815 73.777 108.265 73.8849 108.304 74.1907C108.326 74.367 108.502 74.2698 108.542 74.4569C108.376 74.5288 108.175 74.7159 107.998 74.6799C107.79 74.6403 107.736 74.3346 107.624 74.1511C107.462 74.1583 107.358 73.9641 107.167 73.9892C106.97 74.0144 106.862 74.3634 106.761 74.5396C106.707 74.6332 106.621 74.6799 106.592 74.7627C106.574 74.813 106.592 74.8922 106.574 74.9677C106.516 75.1943 106.351 75.2771 106.369 75.4785C106.383 75.6548 106.545 75.7339 106.556 75.885C106.545 76.0433 106.336 75.9606 106.351 76.1512C106.653 76.4534 106.671 76.0109 106.826 75.9462C106.948 75.8958 107.193 75.9857 107.351 75.9462C107.477 75.9138 107.578 75.7663 107.725 75.7015C107.815 75.662 107.923 75.626 108.049 75.6188C108.588 75.5936 108.937 76.0145 109.405 76.0253C109.56 76.0289 109.837 76.0181 109.998 75.9857ZM108.912 78.3887C108.923 78.1693 108.844 78.0038 108.826 77.698C108.513 77.4714 108.279 77.9067 107.962 77.8599C107.768 77.8311 107.628 77.5577 107.419 77.5937C107.304 77.6153 107.25 77.7916 107.131 77.8168C106.89 77.8707 106.779 77.5829 106.52 77.6944C106.157 77.3635 105.995 76.8203 105.908 76.2088C105.711 75.8958 105.408 76.1512 105.264 76.3527C105.175 76.3527 105.063 76.2951 105.045 76.4138C104.977 76.7915 105.487 76.8311 105.484 77.0865C105.484 77.252 105.286 77.2376 105.196 77.3527C105.103 77.475 105.164 77.5829 105.045 77.6585C104.71 77.7052 104.599 77.4858 104.603 77.1297C104.459 76.8671 104.275 76.6728 104.146 76.457C104.099 76.3778 104.023 76.2519 104.009 76.1296C103.998 76.0361 104.045 75.9138 104.027 75.8023C103.991 75.608 103.689 75.4605 103.502 75.3526C103.3 75.2375 103.052 75.1296 102.908 74.9857C102.808 74.885 102.761 74.7051 102.671 74.6403C102.595 74.5828 102.502 74.5936 102.433 74.5396C102.34 74.4605 102.354 74.331 102.228 74.295C102.164 74.2662 102.066 74.3706 102.023 74.4389C101.941 74.885 102.243 74.9137 102.379 75.1116C102.473 75.2483 102.52 75.4497 102.617 75.5397C102.718 75.6332 102.858 75.6188 102.991 75.6836C103.081 75.7267 103.142 75.8634 103.228 75.9282C103.39 76.0469 103.649 76.0685 103.671 76.2951C103.57 76.3778 103.344 76.1764 103.264 76.3778C103.243 76.5109 103.351 76.5793 103.351 76.7052C103.347 76.9066 103.16 77.1261 102.995 77.0937C102.977 76.975 103.085 76.8779 103.081 76.7484C103.074 76.4894 102.638 76.0936 102.419 75.9749C102.315 75.9174 102.189 75.9174 102.095 75.8526C101.93 75.7411 101.638 75.4641 101.534 75.3022C101.412 75.108 101.311 74.7519 101.041 74.7734C100.933 74.7806 100.843 74.903 100.753 74.9569C100.671 75.0073 100.581 75.054 100.498 75.1188C100.401 75.1979 100.318 75.2771 100.228 75.2807C100.016 75.2915 99.8362 75.09 99.6527 75.1368C99.5915 75.1512 99.5412 75.2195 99.4656 75.2987C99.4656 75.4174 99.4944 75.4929 99.4836 75.6224C99.4297 75.7375 99.2642 75.7303 99.1455 75.8059C98.9692 75.9174 98.8145 76.144 98.6706 76.3167C98.5771 76.4246 98.4944 76.5145 98.4836 76.6009C98.4764 76.6692 98.5303 76.7951 98.5196 76.8851C98.5052 76.9822 98.3505 77.1872 98.2498 77.2736C98.1886 77.3239 98.1095 77.3311 98.0447 77.3743C97.9116 77.4678 97.8505 77.5937 97.7389 77.6189C97.444 77.6837 96.9044 77.547 96.908 77.9247C96.908 78.1765 97.1922 78.1765 97.3648 78.1693C97.6058 78.1585 97.8073 78.2304 97.9404 78.1909C98.0303 78.1621 98.131 78.0398 98.2282 77.9858C98.2893 77.9534 98.3505 77.9534 98.3972 77.9247C98.498 77.8635 98.5555 77.7628 98.6347 77.7196C98.7893 77.6333 99.0771 77.5685 99.2462 77.5577C99.4764 77.5434 99.7139 77.5865 100.009 77.5577C100.113 77.547 100.217 77.4678 100.333 77.457C100.516 77.439 100.761 77.5434 100.908 77.5398C101.012 77.5362 101.128 77.4139 101.246 77.4175C101.383 77.4175 101.527 77.5362 101.552 77.6405C101.566 77.7016 101.523 77.7952 101.534 77.8851C101.552 78.0326 101.66 78.0937 101.653 78.1909C101.646 78.3168 101.379 78.4894 101.415 78.6405C101.441 78.7377 101.628 78.8384 101.721 78.9067C101.818 78.9787 101.98 79.0758 102.095 79.0902C102.192 79.1046 102.275 79.0578 102.365 79.0686C102.513 79.0866 102.746 79.1945 102.84 79.2737C102.998 79.4068 102.977 79.6262 103.16 79.7017C103.239 79.7341 103.379 79.7161 103.484 79.7413C103.732 79.806 103.915 80.0507 104.095 80.0255C104.38 79.9859 104.25 79.6658 104.282 79.4355C104.354 78.9139 105.2 78.9391 105.369 79.2916C105.491 79.3312 105.603 79.2988 105.743 79.3528C105.826 79.3852 105.883 79.4931 105.962 79.5147C106.02 79.5327 106.106 79.5039 106.182 79.5147C106.506 79.5578 106.8 79.8492 107.081 79.7989C107.257 79.7665 107.387 79.5686 107.556 79.5542C107.88 79.5291 108.088 79.8456 108.437 79.6981C108.696 79.5902 108.639 79.27 108.725 78.9427C108.786 78.7161 108.905 78.5614 108.912 78.3923V78.3887ZM127.19 71.4424C127.258 71.1834 127.154 70.9208 127.021 70.7481C126.827 70.7877 126.967 71.0323 126.952 71.1762C126.935 71.3776 126.755 71.5179 126.765 71.7265C126.701 71.8165 126.589 71.8525 126.578 72.0107C126.686 72.1007 126.733 71.9388 126.816 71.8489C126.945 71.7014 127.143 71.615 127.19 71.4424ZM122.747 64.3737C122.56 64.3737 122.492 64.4636 122.373 64.5356C122.308 64.5751 122.179 64.6003 122.222 64.719C122.384 64.6939 122.708 64.6075 122.747 64.3737ZM115.592 66.881C115.992 66.9925 116.179 66.4529 115.912 66.1472C115.851 66.0752 115.643 66.05 115.556 65.881C115.452 65.6831 115.466 65.4169 115.218 65.4745C115.218 65.4996 115.218 65.532 115.2 65.5356C115.179 65.9817 115.718 66.0932 115.707 66.4529C115.704 66.64 115.538 66.6616 115.589 66.881H115.592Z" fill="white"/>
<path d="M110.009 66.1042C109.959 65.8848 110.307 65.9207 110.246 66.1258C110.192 66.1869 110.045 66.1833 110.009 66.1042Z" fill="white"/>
<path d="M107.926 78.2877C107.933 78.1186 108.253 78.0574 108.314 78.2049C108.293 78.3668 107.991 78.4819 107.926 78.2877Z" fill="white"/>
<path d="M102.109 77.1871C102.286 77.0144 102.681 77.1331 102.922 77.1259C102.876 77.2806 102.868 77.4856 102.771 77.5756C102.494 77.5144 102.235 77.4317 102.109 77.1871Z" fill="white"/>
<path d="M100.872 76.1079C101.105 75.8165 101.35 75.9712 101.26 76.536C101.206 76.705 100.961 76.9317 100.854 76.6799C100.889 76.482 100.875 76.3381 100.872 76.1079Z" fill="white"/>
<path d="M101.212 75.4566C101.23 75.6292 101.172 75.7048 101.093 75.7623C100.87 75.7156 101.039 75.2335 101.212 75.4566Z" fill="white"/>
<path d="M97.9211 71.3194C97.9391 71.2043 97.8635 71.0568 97.77 70.9921C97.716 70.9561 97.6297 70.9705 97.5649 70.9309C97.3995 70.823 97.3383 70.5928 97.2448 70.5424C97.2556 70.3194 97.1944 70.1575 97.2448 70.0136C97.2772 69.9273 97.4966 69.6755 97.6189 69.6251C97.7664 69.564 97.9211 69.6179 98.0074 69.4812C98.047 69.474 98.0722 69.4812 98.0937 69.5028C98.0937 69.6323 98.0038 69.6539 97.993 69.769C98.0146 69.9525 98.2844 69.8373 98.3132 70.0136C98.288 70.2043 98.1441 70.2402 98.1441 70.3805C98.1441 70.5028 98.3491 70.7295 98.4499 70.8914C98.5254 71.0101 98.6549 71.0964 98.7197 71.2187C98.7772 71.323 98.7916 71.4489 98.8384 71.5029C98.9283 71.6036 99.1298 71.6216 99.1441 71.7691C99.1621 71.9633 98.9427 72.0389 98.9751 72.2583C98.7412 72.4778 98.3527 72.3626 97.975 72.4202C97.8024 72.4454 97.6153 72.6504 97.4318 72.4813C97.3887 72.3447 97.5829 72.3267 97.6009 72.1972C97.5865 72.0785 97.4606 72.0928 97.4318 71.9921C97.4822 71.8338 97.6333 71.8015 97.6189 71.564C97.7124 71.4417 97.8959 71.4885 97.9247 71.3194H97.9211Z" fill="white"/>
<path d="M96.6482 70.8303C96.8749 70.6649 97.2706 70.7908 97.2921 70.9922C97.3101 71.1433 97.1734 71.1685 97.1231 71.3375C97.0799 71.4922 97.1303 71.6793 97.0727 71.7872C97.0223 71.8807 96.8785 71.8735 96.7849 71.9095C96.5727 71.9851 96.159 72.2872 95.9863 71.9491C96.0115 71.7692 96.1554 71.7332 96.2058 71.5822C96.2058 71.4634 96.105 71.4023 96.1194 71.2764C96.141 71.1217 96.2381 71.1757 96.3748 71.1145C96.4756 71.0677 96.5187 70.9239 96.6446 70.8303H96.6482Z" fill="white"/>
<path d="M85.0693 66.4095C85.1053 66.5894 84.6232 66.8268 84.5765 66.593C84.5405 66.4059 84.947 66.1721 85.0693 66.4095Z" fill="white"/>
<path d="M84.5093 112.329H84.2539C84.3007 112.297 84.4625 112.297 84.5093 112.329Z" fill="white"/>
<path d="M83.7441 64.9637C83.7659 64.9346 83.824 64.9346 83.8458 64.9637C83.8276 65.0109 83.8167 65.0653 83.7441 65.0472V64.9637Z" fill="white"/>
<path d="M82.2377 68.2046C82.2377 68.3162 81.8995 68.5032 81.8635 68.2874C81.8564 68.2478 81.8636 68.1723 81.9319 68.1255C82.0218 68.0572 82.2341 68.0967 82.2377 68.2082V68.2046Z" fill="white"/>
<path d="M75.1835 87.1299C75.1763 87.1587 75.1583 87.1803 75.1511 87.2127C74.9713 87.2055 75.1331 86.9285 75.1835 87.1299Z" fill="white"/>
<path d="M68.2979 72.8881C68.4166 72.8054 68.5317 73.014 68.449 73.1112C68.3195 73.1399 68.2835 72.9601 68.2979 72.8881Z" fill="white"/>
<path d="M86.7816 73.6435C86.7025 73.6183 86.5946 73.6255 86.4939 73.6039C86.4075 73.5859 86.3032 73.5535 86.2241 73.5427C86.0154 73.5139 85.7888 73.5859 85.6629 73.442C85.8643 73.1182 86.1341 72.8017 86.3931 72.5247C86.4687 72.442 86.6342 72.3844 86.5982 72.2189C86.4543 72.0678 86.278 72.2297 86.1413 72.3197C85.9974 72.4168 85.8284 72.5571 85.6665 72.5859C85.3859 72.6362 85.0154 72.4887 84.7851 72.6686C84.7528 72.8233 85.0441 72.7621 85.0046 72.9959C84.8931 73.0175 84.7851 73.0283 84.6988 72.9348C84.6197 72.8485 84.6664 72.7225 84.6125 72.6686C84.5261 72.5823 84.1988 72.5571 84.0513 72.5859C83.8714 72.6218 83.7168 72.7477 83.6952 72.9312C83.911 73.0499 84.2635 72.8089 84.3391 73.1147C84.2204 73.3701 83.947 73.5068 83.983 73.8485C83.9973 73.978 84.1268 74.1543 84.2204 74.1758C84.3139 74.1938 84.3679 74.0823 84.4578 74.0931C84.5549 74.1039 84.5333 74.237 84.6449 74.2154C84.8067 74.1327 84.8967 73.8557 85.0873 73.8701C85.3103 74.1974 84.8859 74.3557 84.6449 74.46C84.3751 74.5787 84.0189 74.6399 83.8139 74.7442C83.706 74.7982 83.2959 75.2766 83.2383 74.9061C83.1951 74.6399 83.4398 74.719 83.4937 74.4996C83.2311 74.4385 82.9865 74.6363 82.7491 74.7442C82.4073 74.8989 81.8318 74.996 81.749 75.4565C81.7311 75.55 81.7814 75.7227 81.7311 75.7838C81.6915 75.8342 81.4469 75.8414 81.3425 75.8846C81.1807 75.9529 81.0368 76.0968 80.9361 76.1292C80.8605 76.1544 80.749 76.1472 80.6986 76.1687C80.5655 76.2299 80.5152 76.4493 80.3605 76.5968C80.2957 76.658 80.1554 76.7011 80.1051 76.7587C80.0187 76.863 80.0044 77.1256 79.8497 77.1652C79.7525 77.176 79.6698 77.0753 79.5799 77.1436C79.5691 77.4026 79.6554 77.7551 79.5619 78.0213C79.3604 78.2192 79.141 78.3559 78.882 78.5322C78.7381 78.6293 78.6122 78.6545 78.4395 78.7552C78.3172 78.8271 78.2057 79.0034 78.0654 79.1005C77.7417 79.3308 77.3496 79.6006 77.3532 80.1797C77.3532 80.3056 77.4071 80.4387 77.4215 80.5862C77.4287 80.6725 77.4143 80.7553 77.4215 80.8524C77.4431 81.0646 77.569 81.338 77.4215 81.4819C77.1949 81.3704 76.9035 81.3308 76.7416 81.1366C76.6985 80.9351 76.8316 80.7697 76.81 80.5862C76.792 80.4387 76.6229 80.1761 76.5222 80.1581C76.4179 80.1401 76.3243 80.2696 76.2164 80.2589C76.0905 80.2481 75.9718 80.0358 75.8099 80.0142C75.5725 79.9819 75.3962 80.079 75.13 80.0358C74.8746 80.2013 74.7991 80.4927 74.4861 80.4639C74.3746 80.4531 74.2739 80.3524 74.148 80.32C74.0113 80.284 73.799 80.2265 73.6551 80.2373C73.3674 80.2589 73.1587 80.5107 72.9105 80.6653C72.6911 80.802 72.3817 80.9711 72.317 81.2553C72.281 81.4064 72.3098 81.6222 72.2666 81.7661C72.2378 81.8596 72.1695 81.9424 72.1299 82.0323C71.9392 82.4496 71.781 83 71.9285 83.6007C71.95 83.6907 72.1371 84.1907 72.2162 84.2914C72.3026 84.4029 72.5616 84.572 72.7091 84.5756C72.8314 84.5756 72.9789 84.5001 73.0976 84.4749C73.2379 84.4461 73.4105 84.4425 73.54 84.3921C73.907 84.2518 73.835 83.6547 74.2019 83.4532C74.3602 83.3669 74.5473 83.3489 74.8279 83.3309C74.9178 83.4209 74.961 83.5792 74.9466 83.7194C74.9358 83.8238 74.8566 83.9173 74.8099 84.0648C74.7703 84.1943 74.7631 84.3454 74.7235 84.4533C74.6732 84.59 74.5617 84.6907 74.5185 84.8202C74.4933 84.903 74.5077 85.0073 74.4861 85.0828C74.4466 85.2159 74.2991 85.313 74.3674 85.4497C74.7307 85.6224 75.1696 85.3994 75.4862 85.4713C75.6193 85.5001 75.8963 85.6908 75.8927 85.939C75.8927 86.1224 75.774 86.2447 75.756 86.4498C75.7344 86.7052 75.648 87.0182 75.6373 87.2232C75.6229 87.5613 76.0509 88.1441 76.3495 88.1405C76.6733 88.1369 76.8603 87.7556 77.2488 87.957C77.3783 88.0254 77.515 88.2736 77.6553 88.2628C77.774 88.252 77.9503 88.0074 78.0294 87.8347C78.1266 87.6261 78.1302 87.4498 78.2992 87.3455C78.4827 87.234 78.6266 87.2879 78.8604 87.1836C78.9647 87.1369 79.0547 87.0577 79.1482 86.9786C79.2309 86.9102 79.3173 86.734 79.418 86.8563C79.5547 87.0181 79.2525 87.1117 79.3676 87.2843C79.6015 87.4354 79.7238 87.0074 79.8928 87.0002C79.9468 87.0002 80.1339 87.1261 80.231 87.2052C80.3641 87.3095 80.4073 87.457 80.5547 87.4894C80.6483 87.511 80.7958 87.4462 80.9289 87.4678C81.1015 87.4966 81.2058 87.6765 81.3354 87.6729C81.4936 87.6693 81.5728 87.457 81.7095 87.4282C82.008 87.3635 82.1196 87.4678 82.2527 87.6944C82.4001 87.7268 82.4037 87.4894 82.5404 87.5721C82.4649 87.7484 82.5656 87.8311 82.6268 87.9786C82.6663 88.0722 82.6592 88.1405 82.6951 88.1837C82.7743 88.2772 82.9325 88.2772 83.0513 88.3671C83.1772 88.4607 83.2455 88.6369 83.3894 88.8348C83.5369 89.0362 83.7851 89.2485 83.983 89.2629C84.17 89.2772 84.3211 89.1981 84.4758 89.2233C84.8247 89.2736 85.0442 89.4859 85.2888 89.7125C85.4255 89.8384 85.5514 89.9284 85.5945 90.0794C85.6269 90.1838 85.6089 90.3277 85.6449 90.4464C85.7204 90.6982 86.0262 90.8241 85.9147 91.2629C85.9651 91.3924 86.0802 91.4392 86.2025 91.5291C86.2996 91.6011 86.3823 91.7522 86.4903 91.7738C86.5586 91.7882 86.6341 91.7486 86.6953 91.7522C86.8896 91.7702 87.0191 91.8601 87.1881 91.9356C87.2925 91.9824 87.4256 92.004 87.4939 92.0579C87.5802 92.1263 87.591 92.3637 87.6989 92.4249C87.7673 92.4644 87.922 92.4105 88.0371 92.4249C88.2206 92.4501 88.4652 92.5831 88.6306 92.5867C88.7314 92.5867 88.8141 92.5364 88.9004 92.5472C89.3141 92.5867 89.5515 93.1839 89.9508 93.3638C90.0767 93.4213 90.271 93.3817 90.3573 93.4249C90.5084 93.5041 90.6343 94.0544 90.6451 94.299C90.6811 95.0401 90.2063 95.2775 89.9329 95.7667C89.8753 95.8675 89.8429 96.0329 89.7638 96.1732C89.6019 96.461 89.4184 96.5222 89.44 97.051C89.4472 97.1949 89.5084 97.3388 89.5084 97.5006C89.5084 97.6985 89.494 97.9539 89.458 98.1338C89.4292 98.2705 89.3357 98.3784 89.3213 98.5007C89.3069 98.623 89.3501 98.7201 89.3393 98.828C89.3249 98.9467 89.2278 99.1122 89.1522 99.2741C88.994 99.623 88.9616 100.03 88.645 100.17C88.458 100.253 88.2062 100.206 88.0011 100.292C87.9184 100.328 87.8141 100.418 87.7133 100.476C87.4184 100.641 86.9975 100.864 86.9147 101.231C86.8428 101.558 87.0155 101.817 86.9651 102.188C86.9111 102.299 86.8428 102.411 86.7601 102.533C86.6881 102.648 86.6521 102.785 86.573 102.9C86.4723 103.055 86.314 103.12 86.2528 103.328C86.2313 103.397 86.2456 103.483 86.2205 103.594C86.2097 103.634 86.1485 103.699 86.1197 103.778C86.091 103.85 86.0946 103.943 86.0694 104.001C85.9902 104.188 85.76 104.616 85.5945 104.674C85.242 104.792 84.8715 104.494 84.6269 104.551C84.6628 104.756 84.7851 104.735 84.8643 104.879C84.9111 104.961 84.9362 105.073 85.001 105.163C85.0765 105.267 85.1449 105.307 85.1521 105.429C85.1701 105.681 85.0082 105.933 84.8967 106.019C84.7959 106.098 84.5837 106.145 84.4038 106.181C84.2779 106.206 83.9542 106.206 83.8966 106.303C83.8103 106.443 83.9434 106.792 83.8786 106.933C83.7527 107.231 83.411 106.926 83.2347 107.015C83.2203 107.17 83.2671 107.332 83.3714 107.404C83.4793 107.479 83.6412 107.382 83.7096 107.526C83.6736 107.728 83.4937 107.756 83.4542 107.954C83.4577 108.149 83.5081 108.199 83.4865 108.321C83.4434 108.584 83.1052 108.573 83.1124 108.85C83.1268 109.267 83.7779 109.095 83.7923 109.501C83.7995 109.746 83.6052 109.749 83.5369 109.99C83.5009 110.12 83.5585 110.149 83.5369 110.257C83.5081 110.4 83.3678 110.444 83.3678 110.602C83.3678 110.796 83.6052 111.012 83.7239 111.174C83.8391 111.332 83.9901 111.559 84.1484 111.663C84.3858 111.821 84.742 111.785 84.8427 112.07C84.8103 112.242 84.6736 112.285 84.5369 112.336H84.5046C84.4578 112.303 84.2959 112.303 84.2491 112.336H84.0117C83.7851 112.21 83.5081 112.131 83.2311 112.012C83.1304 111.969 83.0189 111.868 82.9074 111.811C82.8246 111.764 82.7347 111.749 82.6699 111.71C82.5225 111.616 82.3606 111.318 82.2131 111.203C82.1232 111.131 81.9829 111.091 81.9253 111.019C81.8713 110.951 81.839 110.8 81.7886 110.713C81.7346 110.62 81.6339 110.552 81.5692 110.447C81.4289 110.221 81.249 109.918 81.2454 109.753C81.2454 109.591 81.3749 109.48 81.3318 109.325C81.2886 109.181 81.0296 109.213 80.9936 109.037C80.972 108.933 81.0692 108.757 81.062 108.609C81.0584 108.523 80.9253 108.408 80.9756 108.282C81.0368 108.138 81.1519 108.292 81.2454 108.221C81.1735 107.926 81.2526 107.454 81.008 107.364C80.8821 107.49 81.1339 107.774 80.9217 107.854C80.7166 107.746 80.7634 107.418 80.7166 107.181C80.6878 107.023 80.6231 106.882 80.6159 106.713C80.6159 106.623 80.6447 106.523 80.6339 106.429C80.5979 106.156 80.3425 105.929 80.3281 105.656C80.3209 105.523 80.3965 105.411 80.4144 105.267C80.4252 105.17 80.4037 105.062 80.4144 104.961C80.4288 104.832 80.49 104.713 80.5008 104.594C80.5224 104.371 80.5008 103.987 80.4684 103.799C80.4252 103.566 80.2706 103.364 80.249 103.109C80.2418 103.015 80.2742 102.861 80.267 102.742C80.2598 102.63 80.2094 102.522 80.1986 102.397C80.1914 102.281 80.2238 102.17 80.231 102.03C80.249 101.774 80.1878 101.49 80.1986 101.235C80.1986 101.159 80.2346 101.105 80.231 101.03C80.231 100.821 80.1698 100.609 80.1626 100.396C80.1483 100.008 80.1986 99.7346 80.1447 99.3784C80.1051 99.1086 80.0547 98.6913 79.9756 98.5223C79.8856 98.3316 79.5295 98.0115 79.3496 97.8891C79.2309 97.81 79.0906 97.7812 78.9611 97.7057C78.6842 97.5438 78.1482 97.1985 78.0294 96.8711C77.9935 96.7776 78.0007 96.6517 77.9611 96.5438C77.8892 96.3351 77.7309 96.1553 77.623 95.9538C77.4143 95.5689 77.2452 95.0869 77.0294 94.6912C76.9215 94.4897 76.828 94.2595 76.7092 94.1012C76.6409 94.0077 76.4143 93.9177 76.3855 93.7738C76.3459 93.5868 76.2308 93.3278 76.2488 93.1839C76.274 92.9896 76.5869 92.8314 76.5869 92.6551C76.5869 92.504 76.4179 92.4177 76.3819 92.2882C76.2956 91.9752 76.4323 91.7953 76.533 91.5327C76.5654 91.4464 76.6013 91.3097 76.6337 91.2486C76.6949 91.137 76.8208 91.1047 76.9035 90.9824C76.9503 90.914 76.979 90.7737 77.0402 90.6766C77.1697 90.4715 77.3783 90.3924 77.4287 90.2089C77.4719 90.0579 77.4971 89.3024 77.4467 89.047C77.4179 88.8995 77.3028 88.7772 77.2596 88.6405C77.1841 88.3959 77.1661 88.1261 76.9539 88.1297C76.8244 88.1297 76.7308 88.306 76.6481 88.4139C76.6265 88.5578 76.6373 88.7161 76.5114 88.7592C76.3171 88.8276 76.2452 88.5146 76.0186 88.4319C75.9286 88.3995 75.7847 88.3995 75.7308 88.3707C75.5653 88.2808 75.5149 87.993 75.3423 87.8815C75.1984 87.788 75.0725 87.8203 74.9861 87.6765C74.9502 87.5793 74.979 87.3995 74.9682 87.27C74.7811 87.1405 74.6264 86.6512 74.407 86.5361C74.2631 86.4606 74.0437 86.4678 73.8638 86.3922C73.7811 86.3563 73.7127 86.3131 73.6264 86.2915C73.5185 86.2627 73.4069 86.2591 73.3206 86.2088C72.9861 86.0073 72.8026 85.3598 72.3889 85.3742C72.2126 85.3814 72.04 85.5792 71.8817 85.5792C71.7234 85.5792 71.4536 85.4246 71.2558 85.313C71.0471 85.1979 70.8169 85.1332 70.6442 85.0289C70.5039 84.9425 70.4104 84.7878 70.2881 84.7231C70.1946 84.6727 70.0579 84.6655 69.9823 84.6224C69.8744 84.5612 69.7593 84.4281 69.6262 84.3166C69.4967 84.2087 69.36 84.0468 69.3564 83.9101C69.3492 83.7518 69.4787 83.6151 69.4931 83.4604C69.5363 82.9748 69.2377 82.6259 69.0506 82.3417C68.9103 82.1294 68.7485 81.9496 68.6118 81.7517C68.619 81.6222 68.619 81.597 68.6118 81.4675C68.5074 81.3452 68.4175 81.1618 68.306 80.9783C68.2053 80.8128 68.011 80.6366 67.9822 80.4495C67.9499 80.2193 68.0542 80.0178 67.9822 79.7984C67.8599 79.4279 67.4354 79.597 67.4894 80.0826C67.5038 80.2157 67.6621 80.3992 67.7088 80.5323C67.7592 80.6689 67.7484 80.838 67.7952 80.9999C67.8383 81.1582 67.9714 81.2913 68.0146 81.4675C68.0866 81.7481 68.083 82.0467 68.1513 82.223C68.2089 82.3777 68.4247 82.5251 68.3024 82.7122C68.1405 82.7518 68.0794 82.5611 67.9786 82.446C67.9247 82.3848 67.7196 82.2661 67.6909 82.1187C67.6657 81.9999 67.7556 81.8381 67.7232 81.6906C67.6657 81.4028 67.1836 81.3956 67.18 81.1006C67.18 80.9136 67.3815 80.892 67.3851 80.7121C67.3851 80.5143 67.1621 80.3488 67.1153 80.1833C67.0721 80.0322 67.0649 79.7876 67.0469 79.5718C67.0326 79.3703 67.0505 79.1365 67.011 78.9818C66.975 78.8415 66.8023 78.6509 66.6908 78.5753C66.5433 78.4746 66.4246 78.5178 66.3527 78.3703C66.2879 78.2444 66.2483 77.9782 66.234 77.8415C66.2088 77.5969 66.2268 77.3271 66.216 77.0681C66.2052 76.8055 66.1836 76.5537 66.216 76.2731C66.2987 76.0752 66.4534 75.9781 66.5397 75.7838C66.6009 75.6471 66.6081 75.4817 66.6764 75.3342C66.8023 75.068 67.0721 74.8234 67.252 74.5608C67.4498 74.2766 67.6297 74.0068 67.7448 73.683C67.7844 73.5679 67.8959 73.3125 67.8815 73.1722C67.8599 72.978 67.5506 72.8161 67.5757 72.5823C67.5901 72.4384 67.7628 72.4384 67.8132 72.2981C67.8383 72.2261 67.8635 72.0211 67.8635 71.9311C67.8635 71.7333 67.7808 71.5282 67.8132 71.3196C67.8419 71.1397 68.0614 71.0678 67.9499 70.8699C67.8383 70.6757 67.6333 70.9743 67.5074 70.8484C67.3923 70.7333 67.529 70.593 67.5398 70.3807C67.5434 70.2944 67.5002 70.2009 67.5074 70.1361C67.5182 70.0462 67.6657 69.8915 67.6261 69.8303C67.5362 69.69 67.4319 69.3375 67.2376 69.2188C66.9894 69.0677 66.7196 69.1684 66.3743 69.0965C66.162 69.0533 66.0613 68.8123 65.867 68.8303C65.7447 68.8411 65.6764 69.0066 65.5109 69.0965C65.3454 69.1828 65.1332 69.154 64.9677 69.1972C64.8058 69.2404 64.7267 69.3771 64.5612 69.3591C64.4209 69.3447 64.4209 69.1936 64.2555 69.1756C64.1907 69.1684 64.0684 69.2224 63.9677 69.2368C63.7051 69.2692 63.2338 69.2871 62.9676 69.2152C62.7266 69.1504 62.5755 69.0605 62.3057 68.9094C62.1043 68.7979 61.7302 68.6576 61.7445 68.4813C61.7553 68.3662 62.1007 68.2475 62.2374 68.1972C62.4568 68.118 62.5935 67.9849 62.7626 67.9741C62.8273 67.9705 62.9137 68.0209 63 68.0137C63.0863 68.0065 63.1943 67.9094 63.3058 67.8914C63.5432 67.8518 63.8777 67.9058 63.849 67.6252C63.6691 67.4525 62.9352 67.7511 62.9173 67.3806C62.9065 67.1576 63.1943 67.0892 63.4101 67.0352C63.6043 66.9849 63.8993 66.9021 64.072 66.9129C64.2662 66.9237 64.5216 67.1863 64.6332 66.8914C64.6871 66.6827 64.5684 66.51 64.5324 66.341C64.6763 66.1035 64.9425 66.1323 65.144 66.0964C65.3742 66.0568 65.5613 66.0064 65.7879 65.8913C65.9857 65.7906 66.198 65.7258 66.4318 65.6863C66.662 65.6503 66.8851 65.546 67.0937 65.5244C67.2628 65.5064 67.4211 65.5244 67.5865 65.4848C67.7304 65.4524 67.8851 65.3553 68.0434 65.3625C68.1513 65.3697 68.2412 65.4632 68.3492 65.4848C68.4499 65.5064 68.565 65.4776 68.6729 65.5064C68.7557 65.528 68.8276 65.5927 68.9103 65.6071C69.0398 65.6287 69.1765 65.5855 69.2988 65.6071C69.414 65.6251 69.5111 65.7114 69.6226 65.7294C69.8852 65.769 70.1838 65.7114 70.4356 65.769C70.5327 65.7906 70.619 65.8481 70.7234 65.8697C70.8241 65.8913 70.932 65.8697 71.0291 65.8913C71.1622 65.9237 71.2773 66.0784 71.4176 66.0964C71.6802 66.1287 71.9752 65.9597 72.2486 65.9345C72.4465 65.9165 72.6515 65.9453 72.8602 65.8949C73.0508 65.8481 73.2343 65.7618 73.4033 65.751C73.4969 65.7474 73.5724 65.7834 73.6588 65.7726C73.7451 65.7582 73.853 65.6323 73.9465 65.6503C74.0724 65.6755 74.0509 65.8661 74.184 65.9165C74.3314 65.823 74.4789 65.9237 74.6408 65.9165C74.7991 65.9093 74.9394 65.823 75.1156 65.8553C75.425 65.9129 75.8567 66.2762 76.0977 66.0784C76.1589 66.028 76.1445 65.9417 76.1984 65.8122C76.274 65.6359 76.4215 65.4309 76.3855 65.179C76.0437 65.1862 75.72 65.3841 75.3351 65.4021C74.943 65.1071 75.4394 64.9236 75.7236 64.7905C75.9574 64.679 76.1445 64.4344 76.4359 64.384C76.6733 64.3445 76.9323 64.4452 77.2165 64.4848C77.3819 64.5064 77.5438 64.4704 77.6409 64.5064C77.8064 64.5675 77.8927 64.7654 78.0294 64.8121C78.0906 64.8337 78.1877 64.8301 78.2669 64.8517C78.418 64.8949 78.5547 64.992 78.7093 64.8517C78.828 64.8769 78.8424 65.0316 78.9647 65.0567C79.0763 64.9848 79.1626 64.7977 79.3389 64.751C79.4144 64.7294 79.4935 64.7654 79.5763 64.751C79.713 64.7258 79.9 64.4992 79.9828 64.7114C79.9468 64.8589 79.7633 64.8805 79.659 64.9956C79.5691 65.0999 79.4288 65.3373 79.4396 65.4452C79.4612 65.6395 79.7022 65.564 79.7094 65.8122C79.6734 65.9561 79.5367 65.8913 79.4216 65.9561C79.3173 66.0136 79.2777 66.1359 79.1662 66.1611C78.8568 66.2295 78.6014 66.0676 78.3352 66.0784C78.3244 66.2187 78.4683 66.2978 78.5403 66.3446C78.7813 66.4957 78.9791 66.4777 79.3209 66.4669C79.4971 66.4633 79.695 66.528 79.8461 66.4057C79.9396 66.3266 79.936 66.1539 80.0152 66.0604C80.1123 65.9453 80.3317 65.8302 80.472 65.8553C80.5475 65.8697 80.6591 65.9812 80.6591 66.0604C80.6591 66.2438 80.4396 66.1863 80.4396 66.3877C80.5835 66.4921 80.9612 66.2762 80.9828 66.1035C80.9972 65.9776 80.8605 65.9057 80.8641 65.7762C80.8713 65.564 81.1123 65.5676 81.0835 65.3481C80.9684 65.2366 80.8461 65.3733 80.7274 65.3481C80.5619 65.3157 80.4108 65.0747 80.3389 64.92C80.4108 64.8121 80.5655 64.8841 80.677 64.8985C80.803 64.6898 81.0332 64.6107 81.3569 64.5711C81.472 64.5567 81.6231 64.5028 81.6807 64.6323C81.7095 64.8265 81.4433 64.9416 81.4936 65.1611C81.7203 65.2294 81.7958 64.8589 81.9865 64.7114C82.0692 64.6466 82.1879 64.6035 82.3102 64.5495C82.4145 64.5028 82.5296 64.384 82.616 64.3876C82.7095 64.3876 82.7275 64.4848 82.821 64.5315C82.9038 64.5747 83.0153 64.5028 83.0405 64.6323C82.8426 65.0423 82.1124 64.8049 81.9217 65.2222C81.9649 65.5028 81.8066 65.769 81.9397 65.9561C82.0332 66.0892 82.2455 65.9992 82.2958 66.1395C82.3606 66.3266 82.0908 66.3266 82.1591 66.546C82.339 66.6755 82.5512 66.4237 82.7167 66.323C82.8966 66.2151 83.1196 66.0856 83.1412 65.8337C83.0513 65.6287 82.7167 65.787 82.6663 65.5711C82.6376 65.4524 82.7671 65.1862 82.803 65.1431C82.9793 64.9057 83.598 64.5675 84.0405 64.6143C84.1232 64.6251 84.2096 64.6862 84.2959 64.697C84.5873 64.733 84.9326 64.5459 85.1593 64.697C85.3427 64.5675 85.5658 64.715 85.8212 64.6754C86.019 64.8157 85.9651 65.1143 86.2636 65.2474C86.3428 65.2834 86.4471 65.2582 86.5514 65.287C86.6306 65.3085 86.7169 65.4201 86.8068 65.4704C86.9363 65.5388 87.0334 65.5244 87.0622 65.6323C87.091 65.7402 86.9687 65.8086 86.9759 65.9165C87.0478 65.9884 86.9867 66.0964 87.0263 66.2007C87.0982 66.3877 87.2853 66.3769 87.4651 66.4669C87.5946 66.5316 87.868 66.7223 87.8536 66.8734C87.8464 66.9741 87.5946 67.1504 87.5155 67.2007C87.4579 67.2331 87.1701 67.4022 87.073 67.3842C86.9147 67.3554 86.85 66.9669 86.6306 66.9777C86.537 66.9813 86.4471 67.0496 86.4435 67.2007C86.4435 67.4669 86.6917 67.4777 86.6989 67.7115C86.7061 67.9885 86.573 68.0065 86.3787 68.1792C86.2385 68.1108 86.1197 68.0137 85.9363 67.9957C85.8284 68.1504 86.1161 68.2044 86.0226 68.4022C85.7492 68.4706 85.5442 68.3087 85.2924 68.2188C85.2132 68.19 85.1017 68.2008 85.037 68.1576C84.9398 68.0892 84.9111 67.8914 84.8319 67.7907C84.742 67.672 84.5585 67.5029 84.4074 67.5065C84.1988 67.5065 83.8966 67.8194 83.7275 67.5281C83.8427 67.0604 84.3858 67.4094 84.7456 67.2439C84.8787 67.1827 84.9254 67.0137 85.0334 66.9381C85.2528 66.787 85.6089 66.7654 85.5765 66.4705C85.5586 66.3194 85.3859 66.323 85.2888 66.2474C85.1557 66.1431 85.0549 65.7762 84.8643 65.7582C84.7672 65.7474 84.6952 65.8481 84.5945 65.8589C84.3751 65.8841 84.1304 65.7546 83.9326 65.8589C83.8391 65.9237 83.9038 66.0244 83.8319 66.1431C83.7743 66.2402 83.634 66.269 83.5765 66.3661C83.5117 66.4813 83.5261 66.6252 83.4398 66.7115C83.2995 66.859 83.0045 66.8842 82.8282 66.9561C82.7491 66.9885 82.6484 67.1 82.5728 67.1C82.4325 67.1 82.3714 66.8734 82.2167 66.9561C82.2023 67.1755 82.4073 67.2619 82.5404 67.3626C82.6807 67.4705 82.8282 67.5784 82.8786 67.7691C82.7419 68.1216 82.5189 67.7511 82.303 67.7475C82.062 67.7475 81.7131 68.2979 81.5044 67.8482C81.5548 67.6108 81.7742 67.5748 81.8282 67.3374C81.5872 67.3878 81.3821 67.6288 81.0979 67.7043C80.9792 67.7367 80.8641 67.7295 80.7598 67.7655C80.5583 67.8374 80.4144 68.0173 80.2022 68.1108C80.1195 68.1468 80.0187 68.136 79.9324 68.172C79.7274 68.2547 79.4827 68.4022 79.2705 68.5389C79.0547 68.6792 78.8101 68.8267 78.677 68.967C78.605 69.0425 78.418 69.3087 78.4216 69.3951C78.4287 69.5174 78.6194 69.5569 78.6266 69.6792C78.623 69.7548 78.5151 69.9167 78.5942 70.0246C78.6626 70.1253 78.8029 70.0426 78.9504 70.0642C79.2094 70.1037 79.3784 70.3591 79.5763 70.4922C79.7274 70.593 79.9504 70.7117 80.1195 70.7368C80.3533 70.7728 80.6123 70.6541 80.6447 70.8807C80.677 71.0966 80.4252 71.1721 80.4073 71.3088C80.5332 71.5067 80.3209 71.6038 80.3209 71.7765C80.3209 71.9168 80.4648 72.129 80.5907 72.1434C80.7598 72.1614 81.0116 71.9419 81.0835 71.7369C81.1663 71.4923 81.1303 71.1613 81.2886 70.9815C82.08 71.0066 82.7455 70.5498 82.6951 69.5749C82.6915 69.4778 82.6448 69.3555 82.6628 69.2476C82.6879 69.0893 82.911 68.9562 82.8822 68.7583C83.1052 68.6756 83.0944 68.2511 83.3246 68.1864C83.5153 68.136 83.7347 68.3483 83.9865 68.3303C84.0693 68.3231 84.1736 68.2367 84.2563 68.2475C84.4218 68.2763 84.5225 68.5209 84.6449 68.636C84.7564 68.7368 84.8715 68.7044 84.9003 68.8411C84.8679 69.0677 84.7348 69.0749 84.7492 69.2907C84.76 69.4778 84.9218 69.6181 85.0046 69.6361C85.1269 69.6649 85.3068 69.5857 85.4291 69.5138C85.6557 69.3843 85.8499 68.9958 86.0406 69.0461C86.1917 69.0857 86.3068 69.6541 86.3284 69.8627C86.3536 70.0821 86.3032 70.2512 86.3104 70.4527C86.332 70.798 86.6917 70.762 86.868 70.9419C86.9219 70.9959 86.9435 71.1361 86.9867 71.2081C87.073 71.3448 87.1773 71.3448 87.1917 71.4923C87.2241 71.8448 86.9255 71.8736 86.9543 72.2657C86.8932 72.4168 86.7385 72.4096 86.7493 72.611C86.7673 72.9312 87.1522 72.6866 87.2565 72.9384C87.314 73.0715 87.2457 73.1722 87.2061 73.3665C87.3392 73.5535 87.3356 73.8557 87.1054 73.8557C86.9651 73.8557 86.9255 73.6722 86.7816 73.6327V73.6435ZM68.4535 73.1147C68.5326 73.0175 68.4211 72.8053 68.3024 72.8916C68.2916 72.9672 68.324 73.147 68.4535 73.1147ZM80.2885 74.9673C80.2166 74.8845 79.9864 74.9097 79.8317 74.9277C79.7202 74.9421 79.5907 74.9708 79.5763 75.0716C79.7525 75.1687 80.2346 75.237 80.2885 74.9708V74.9673ZM79.4072 74.6219C79.5403 74.496 79.4827 74.237 79.3389 74.1938C79.2849 74.1758 79.2094 74.2442 79.1194 74.2334C79.0223 74.2262 78.9288 74.1183 78.8496 74.1111C78.7129 74.0967 78.5762 74.1758 78.5259 74.255C78.5223 74.3773 78.6014 74.3953 78.5942 74.5212C78.4287 74.6615 78.5151 75.1363 78.6806 75.1543C78.8532 75.1723 78.9432 74.6327 79.1734 74.5823C79.2561 74.5644 79.2993 74.6399 79.4108 74.6219H79.4072ZM79.1698 75.4385C78.9288 75.3342 78.7057 75.5068 78.5079 75.5392C78.3892 75.5572 78.1769 75.5104 78.2021 75.7227C78.2237 75.8954 78.4467 75.8342 78.5762 75.7838C78.8424 75.6831 79.0151 75.5932 79.1698 75.4385ZM78.4251 73.8917C78.7633 73.719 78.3568 73.1866 78.2057 73.1362C77.9323 73.0499 77.5402 73.3773 77.2237 73.4816C77.0438 73.5391 76.8747 73.5463 76.8352 73.7262C76.997 74.0463 77.3136 73.6578 77.5474 73.7046C77.6661 73.7298 77.7345 73.924 77.8532 73.9492C77.9323 73.9672 78.3964 73.9061 78.4287 73.8881L78.4251 73.8917ZM78.1877 74.219C78.1194 74.1183 77.7381 74.2298 77.6266 74.3197C77.551 74.3809 77.5006 74.5356 77.4215 74.6471C77.3424 74.7622 77.2524 74.8521 77.1841 74.9529C77.1229 75.0428 76.7812 75.6399 77.0474 75.7083C77.1625 75.7371 77.3963 75.4493 77.4215 75.3414C77.497 74.9673 77.6373 74.7011 77.8784 74.5248C78.0187 74.4241 78.1625 74.4349 78.1841 74.219H78.1877ZM76.0689 71.9383C76.2596 71.9311 76.3855 71.2585 76.0689 71.3484C75.8567 71.4095 75.8063 71.9491 76.0689 71.9383ZM75.1552 87.2196C75.1624 87.1908 75.1804 87.1692 75.1876 87.1369C75.1372 86.9354 74.9718 87.2124 75.1552 87.2196ZM67.9822 70.1685C67.9858 70.1289 67.9643 70.1217 67.9643 70.0857C67.9139 70.0857 67.8527 70.0749 67.8635 70.1469C67.8887 70.2045 67.9535 70.2152 67.9822 70.1685ZM85.8032 66.9705C85.8859 66.9813 85.9327 66.9525 85.9219 66.8482C85.8463 66.7834 85.7348 66.8698 85.8032 66.9705ZM83.8535 64.974C83.8319 64.9452 83.7743 64.9452 83.7527 64.974V65.0567C83.8247 65.0747 83.8391 65.0244 83.8535 64.974ZM77.4107 66.5424C77.4683 66.4992 77.5546 66.4381 77.5114 66.3374C77.3244 66.233 77.0078 66.3122 76.7308 66.2762C76.5725 66.01 76.3135 65.9704 76.2884 66.3985C76.6049 66.7079 77.0834 66.2546 77.4071 66.5424H77.4107ZM74.3746 68.6396C74.4717 68.6001 74.6048 68.6216 74.63 68.4957C74.5509 68.4202 74.4681 68.3159 74.3746 68.3123C74.2523 68.3087 74.1911 68.4382 74.0688 68.5173C73.9249 68.6073 73.7271 68.6288 73.7127 68.7835C73.9753 68.8447 74.2127 68.708 74.3746 68.6396ZM74.2883 67.1719C74.3962 67.1504 74.5077 67.2079 74.5761 67.0892C74.4933 66.6395 73.9789 66.9165 73.6767 66.9453C73.612 67.0712 73.5292 67.1755 73.5077 67.3518C73.7415 67.4237 74.0221 67.2223 74.2883 67.1683V67.1719ZM79.3748 87.993C79.5079 87.9678 79.4684 87.5973 79.3065 87.6872C79.1842 87.7556 79.2489 88.0182 79.3748 87.993Z" fill="white"/>
<path d="M67.9594 70.0787C67.9594 70.1147 67.981 70.1219 67.9774 70.1614C67.9486 70.2082 67.8839 70.201 67.8587 70.1399C67.8479 70.0679 67.909 70.0787 67.9594 70.0787Z" fill="white"/>
<path d="M67.4546 71.2801C67.4186 71.4132 67.3215 71.4707 67.2172 71.5247C67.1848 71.4959 67.156 71.4599 67.1309 71.4239C67.1381 71.2297 67.3683 71.0894 67.4546 71.2801Z" fill="white"/>
</g>
<path d="M70.3277 99.9898C68.3671 99.4754 66.7735 98.7883 65.5469 97.9286L67.9391 92.5578C69.0902 93.3168 70.4284 93.932 71.95 94.396C73.4681 94.8637 74.9646 95.0939 76.4359 95.0939C79.2309 95.0939 80.6303 94.396 80.6303 92.9967C80.6303 92.2592 80.231 91.7161 79.436 91.3599C78.6374 91.0038 77.3568 90.6297 75.5941 90.2376C73.6551 89.8203 72.04 89.3742 70.7378 88.8958C69.4391 88.4173 68.3204 87.6511 67.3923 86.5971C66.4606 85.5431 65.9965 84.1222 65.9965 82.3307C65.9965 80.7623 66.4246 79.345 67.2844 78.0823C68.1441 76.8197 69.4247 75.8197 71.1263 75.0858C72.8314 74.352 74.9214 73.9814 77.3963 73.9814C79.0871 73.9814 80.7562 74.1721 82.4001 74.5498C84.0441 74.9311 85.4902 75.4887 86.7385 76.2226L84.4938 81.6293C82.0404 80.3055 79.6626 79.6436 77.3568 79.6436C75.9107 79.6436 74.8566 79.8594 74.1947 80.2875C73.5328 80.7156 73.2019 81.2731 73.2019 81.9602C73.2019 82.6473 73.594 83.1617 74.3782 83.5071C75.1624 83.8524 76.4251 84.2049 78.1661 84.5754C80.1267 84.9927 81.7526 85.4388 83.0405 85.9172C84.3283 86.3957 85.4434 87.1547 86.3859 88.1979C87.3284 89.2411 87.8033 90.6549 87.8033 92.4463C87.8033 93.9895 87.3752 95.3889 86.5154 96.6407C85.6557 97.8926 84.3679 98.8926 82.652 99.6373C80.9361 100.386 78.8496 100.76 76.3999 100.76C74.3171 100.76 72.2918 100.501 70.3313 99.9862L70.3277 99.9898Z" fill="#263238"/>
<path d="M111.815 94.6191V100.245H91.1445V74.4995H111.336V80.1257H98.3535V84.464H109.793V89.9067H98.3535V94.6155H111.815V94.6191Z" fill="#263238"/>
<path d="M138.875 80.1942C137.727 78.1581 136.148 76.5645 134.137 75.4134C132.126 74.2623 129.86 73.6831 127.338 73.6831C124.816 73.6831 122.55 74.2587 120.539 75.4134C118.528 76.5645 116.949 78.1581 115.802 80.1942C114.654 82.2303 114.082 84.5217 114.082 87.0722C114.082 89.6227 114.654 91.9141 115.802 93.9502C116.949 95.9863 118.528 97.5799 120.539 98.731C122.55 99.8821 124.816 100.461 127.338 100.461C129.86 100.461 132.126 99.8857 134.137 98.731C136.148 97.5799 137.727 95.9863 138.875 93.9502C140.022 91.9141 140.594 89.6227 140.594 87.0722C140.594 84.5217 140.018 82.2303 138.875 80.1942Z" fill="#263238"/>
<path d="M118.978 76.4673C117.693 77.4781 116.632 78.7192 115.801 80.1905C115.441 80.8272 115.147 81.4927 114.898 82.1834L114.463 83.6547C114.211 84.7374 114.078 85.8742 114.078 87.0685C114.078 89.619 114.65 91.9104 115.798 93.9465C116.945 95.9825 118.524 97.5761 120.535 98.7273L127.334 87.0685L118.974 76.4673H118.978Z" fill="#FF5225"/>
<path opacity="0.2" d="M118.979 76.4673L127.339 87.0685L127.871 73.6794C127.871 73.6794 123.133 73.147 118.979 76.4637V76.4673Z" fill="white"/>
<path d="M75.8477 115.25V122.563" stroke="#FF5225" stroke-width="0.363046" stroke-miterlimit="10"/>
<path d="M39.623 56.2183V64.3841H48.8321" stroke="#FF5225" stroke-width="0.363046" stroke-miterlimit="10"/>
<path d="M61.6869 34.0259H24.3111C23.4986 34.0259 22.8398 34.6846 22.8398 35.4972V56.4837C22.8398 57.2963 23.4986 57.955 24.3111 57.955H61.6869C62.4995 57.955 63.1582 57.2963 63.1582 56.4837V35.4972C63.1582 34.6846 62.4995 34.0259 61.6869 34.0259Z" fill="#FF5225"/>
<path opacity="0.5" d="M61.6869 34.0259H24.3111C23.4986 34.0259 22.8398 34.6846 22.8398 35.4972V56.4837C22.8398 57.2963 23.4986 57.955 24.3111 57.955H61.6869C62.4995 57.955 63.1582 57.2963 63.1582 56.4837V35.4972C63.1582 34.6846 62.4995 34.0259 61.6869 34.0259Z" fill="white"/>
<path d="M28.9004 47.3185C29.0767 47.1602 33.7963 42.5017 33.7963 42.5017L38.4512 44.7932L43.0017 39.4404L47.6566 46.1458L52.1964 43.1852" stroke="#263238" stroke-width="0.181523" stroke-miterlimit="10"/>
<path d="M30.3613 49.415H28.1777V54.2498H30.3613V49.415Z" fill="#FF5225"/>
<path d="M34.8554 46.2212H32.6719V54.2503H34.8554V46.2212Z" fill="#FF5225"/>
<path d="M39.4316 47.0269H37.248V54.2502H39.4316V47.0269Z" fill="#FF5225"/>
<path d="M44.0937 42.5015H41.9102V54.2502H44.0937V42.5015Z" fill="#FF5225"/>
<path d="M48.8027 48.7319H46.6191V54.2502H48.8027V48.7319Z" fill="#FF5225"/>
<path d="M30.4411 46.7674C30.4411 47.415 29.9159 47.9402 29.2684 47.9402C28.6209 47.9402 28.0957 47.415 28.0957 46.7674C28.0957 46.1199 28.6209 45.5947 29.2684 45.5947C29.9159 45.5947 30.4411 46.1199 30.4411 46.7674Z" fill="#FF5225"/>
<path d="M34.9353 42.5018C34.9353 43.1493 34.4101 43.6745 33.7626 43.6745C33.115 43.6745 32.5898 43.1493 32.5898 42.5018C32.5898 41.8543 33.115 41.3291 33.7626 41.3291C34.4101 41.3291 34.9353 41.8543 34.9353 42.5018Z" fill="#FF5225"/>
<path d="M39.6208 44.4261C39.6208 45.0736 39.0956 45.5988 38.4481 45.5988C37.8006 45.5988 37.2754 45.0736 37.2754 44.4261C37.2754 43.7786 37.8006 43.2534 38.4481 43.2534C39.0956 43.2534 39.6208 43.7786 39.6208 44.4261Z" fill="#FF5225"/>
<path d="M44.1716 39.4369C44.1716 40.0844 43.6464 40.6096 42.9989 40.6096C42.3514 40.6096 41.8262 40.0844 41.8262 39.4369C41.8262 38.7894 42.3514 38.2642 42.9989 38.2642C43.6464 38.2642 44.1716 38.7894 44.1716 39.4369Z" fill="#FF5225"/>
<path d="M48.8259 46.1454C48.8259 46.7929 48.3007 47.3181 47.6532 47.3181C47.0057 47.3181 46.4805 46.7929 46.4805 46.1454C46.4805 45.4979 47.0057 44.9727 47.6532 44.9727C48.3007 44.9727 48.8259 45.4979 48.8259 46.1454Z" fill="#FF5225"/>
<path d="M53.4648 45.9619H51.2812V54.2501H53.4648V45.9619Z" fill="#FF5225"/>
<path d="M34.8554 46.2212H32.6719V54.2503H34.8554V46.2212Z" fill="#263238"/>
<path d="M44.0937 42.5015H41.9102V54.2502H44.0937V42.5015Z" fill="#263238"/>
<path d="M53.4648 45.9619H51.2812V54.2501H53.4648V45.9619Z" fill="#263238"/>
<path d="M58.291 48.7319H56.1074V54.2502H58.291V48.7319Z" fill="#FF5225"/>
<path d="M52.1934 43.1812L57.2008 45.9619" stroke="#263238" stroke-width="0.181523" stroke-miterlimit="10"/>
<path d="M53.6267 43.181C53.6267 43.8285 53.1015 44.3537 52.454 44.3537C51.8065 44.3537 51.2812 43.8285 51.2812 43.181C51.2812 42.5335 51.8065 42.0083 52.454 42.0083C53.1015 42.0083 53.6267 42.5335 53.6267 43.181Z" fill="#FF5225"/>
<path d="M57.2001 47.135C57.8477 47.135 58.3728 46.6099 58.3728 45.9623C58.3728 45.3146 57.8477 44.7896 57.2001 44.7896C56.5524 44.7896 56.0273 45.3146 56.0273 45.9623C56.0273 46.6099 56.5524 47.135 57.2001 47.135Z" fill="#FF5225"/>
<path d="M94.9951 122.027H70.4724C69.4909 122.027 68.6953 122.822 68.6953 123.804V143.859C68.6953 144.84 69.4909 145.636 70.4724 145.636H94.9951C95.9765 145.636 96.7721 144.84 96.7721 143.859V123.804C96.7721 122.822 95.9765 122.027 94.9951 122.027Z" fill="#FF5225"/>
<path opacity="0.5" d="M94.9951 122.027H70.4724C69.4909 122.027 68.6953 122.822 68.6953 123.804V143.859C68.6953 144.84 69.4909 145.636 70.4724 145.636H94.9951C95.9765 145.636 96.7721 144.84 96.7721 143.859V123.804C96.7721 122.822 95.9765 122.027 94.9951 122.027Z" fill="white"/>
<path d="M70.3573 122.027H95.1353C96.0383 122.027 96.7721 122.761 96.7721 123.664V126.146H68.6953V123.692C68.6953 122.775 69.44 122.027 70.3609 122.027H70.3573Z" fill="#FF5225"/>
<path opacity="0.5" d="M95.1854 124.387C95.1854 124.883 94.7825 125.286 94.286 125.286C93.7896 125.286 93.3867 124.883 93.3867 124.387C93.3867 123.89 93.7896 123.487 94.286 123.487C94.7825 123.487 95.1854 123.89 95.1854 124.387Z" fill="white"/>
<path opacity="0.5" d="M92.6326 124.387C92.6326 124.883 92.2297 125.286 91.7333 125.286C91.2369 125.286 90.834 124.883 90.834 124.387C90.834 123.89 91.2369 123.487 91.7333 123.487C92.2297 123.487 92.6326 123.89 92.6326 124.387Z" fill="white"/>
<path opacity="0.5" d="M90.0779 124.387C90.0779 124.883 89.675 125.286 89.1786 125.286C88.6822 125.286 88.2793 124.883 88.2793 124.387C88.2793 123.89 88.6822 123.487 89.1786 123.487C89.675 123.487 90.0779 123.89 90.0779 124.387Z" fill="white"/>
<path d="M82.293 135.827L84.7283 129.136C85.6348 129.467 86.4658 129.978 87.1709 130.639C87.876 131.301 88.4371 132.096 88.822 132.981L82.2966 135.823L82.293 135.827Z" fill="#F5F5F5"/>
<path d="M82.2929 135.826L84.3685 142.636C83.6958 142.841 82.9979 142.945 82.2929 142.945C78.3862 142.945 75.1738 139.733 75.1738 135.826C75.1738 131.919 78.3862 128.707 82.2929 128.707C83.113 128.707 83.926 128.847 84.6958 129.124L82.2929 135.826Z" fill="#FF5225"/>
<path d="M82.293 135.826L88.8328 133.013C89.2141 133.902 89.412 134.859 89.412 135.826C89.412 138.942 87.3687 141.708 84.3938 142.629L82.293 135.826Z" fill="#FF5225"/>
<path d="M82.293 135.826L88.8328 133.013C89.2141 133.902 89.412 134.859 89.412 135.826C89.412 138.942 87.3687 141.708 84.3938 142.629L82.293 135.826Z" fill="#263238"/>
</svg>
