<svg xmlns="http://www.w3.org/2000/svg" width="62" height="62" fill="none" viewBox="0 0 62 62"><path fill="#D84426" d="M43.709 56.082a4.275 4.275 0 0 1-.28-6.033l3.557-3.912 7.887-8.675.28-.28c.088-.1.177-.203.266-.317a7.627 7.627 0 0 0 1.715-5.322A8.58 8.58 0 0 1 58.72 32.7c.09.076.178.165.267.254a8.911 8.911 0 0 1 .623 12.015l-.61.661-9.26 10.174a4.275 4.275 0 0 1-6.032.28ZM36.315 36.712a8.663 8.663 0 0 1-1.981-1.435c-3.468-3.315-3.722-8.802-.534-12.422l.09-.101 4.127-4.624 7.837-8.776.025-.026a6.474 6.474 0 0 0 1.13-6.82 8.988 8.988 0 0 1 2.807 1.714c.115.102.23.204.33.318 3.443 3.391 3.646 8.929.395 12.574l-4.268 4.789-8.37 9.373-.076.089a6.523 6.523 0 0 0-1.525 5.36l.013-.013Z"/><path fill="#D84426" d="M35.565 58.127a11.919 11.919 0 0 1-2.3-2.782 12.236 12.236 0 0 1 .928-13.946l.94-1.041 10.885-12.104 7.201-8.015c.064-.076.115-.14.178-.203.051-.064.102-.114.165-.178v-.025a9.928 9.928 0 0 0 2.083-8.967c.94.419 1.842.99 2.642 1.714.343.305.66.635.94.966 3.176 3.734 3.188 9.335-.165 13.095l-.05.063-10.124 11.253-7.125 7.926c-.114.114-.216.229-.317.343-.102.114-.204.229-.305.355-3.265 4.001-2.833 9.882 1.041 13.375a9.78 9.78 0 0 0 1.867 1.32 12.196 12.196 0 0 1-8.484-3.124v-.025ZM33.875 16.632c-3.023-3.938-2.909-9.602.533-13.413a10.474 10.474 0 0 1 4.61-2.972c.204-.063.407-.127.61-.178a3.79 3.79 0 0 1 3.24.89l.024.025a3.785 3.785 0 0 1 .28 5.322l-.038.038-9.297 10.288h.038Z"/><path fill="#332771" d="M17.936 56.081a4.274 4.274 0 0 0 .28-6.033l-3.556-3.912-7.888-8.675-.28-.28c-.088-.1-.177-.202-.266-.317a7.627 7.627 0 0 1-1.715-5.321 8.574 8.574 0 0 0-1.587 1.155c-.09.077-.178.165-.267.254a8.912 8.912 0 0 0-.622 12.016l.61.66 9.258 10.174a4.274 4.274 0 0 0 6.033.28ZM25.329 36.712a8.663 8.663 0 0 0 1.981-1.435c3.468-3.315 3.722-8.802.534-12.422l-.09-.101-4.127-4.624-7.837-8.776-.025-.026a6.474 6.474 0 0 1-1.13-6.82 8.987 8.987 0 0 0-2.808 1.715c-.114.101-.228.203-.33.317-3.442 3.391-3.645 8.93-.394 12.574l4.268 4.789 8.37 9.373.076.09a6.522 6.522 0 0 1 1.524 5.359l-.012-.013Z"/><path fill="#332771" d="M26.08 58.126a11.924 11.924 0 0 0 2.298-2.781 12.236 12.236 0 0 0-.927-13.946l-.94-1.042-10.885-12.104-7.202-8.015c-.063-.076-.114-.14-.177-.203a2.11 2.11 0 0 0-.166-.177v-.026a9.928 9.928 0 0 1-2.083-8.967c-.94.42-1.841.99-2.641 1.715-.343.304-.66.635-.94.965-3.176 3.734-3.188 9.335.165 13.095l.05.063 10.123 11.254 7.126 7.925c.114.115.216.229.317.343.102.114.204.229.305.356 3.264 4 2.833 9.881-1.041 13.374a9.784 9.784 0 0 1-1.867 1.321c3.01.076 6.07-.953 8.484-3.124v-.026ZM27.766 16.631c3.023-3.937 2.909-9.602-.533-13.413a10.474 10.474 0 0 0-4.61-2.972 11.029 11.029 0 0 0-.61-.177 3.79 3.79 0 0 0-3.24.889l-.025.025a3.785 3.785 0 0 0-.28 5.322l.039.038 9.297 10.288h-.038Z"/></svg>