<svg width="101" height="101" viewBox="0 0 101 101" fill="none" xmlns="http://www.w3.org/2000/svg">
<rect x="2.87012" y="2.63623" width="96" height="96" rx="48" fill="url(#paint0_linear_802_14075)"/>
<rect x="2.87012" y="2.63623" width="96" height="96" rx="48" stroke="url(#paint1_linear_802_14075)" stroke-width="4"/>
<path d="M29.4876 85.7957C28.8194 85.7957 28.1507 85.6457 27.6306 85.3447C27.0671 85.0194 26.7568 84.5659 26.7568 84.0667C26.7568 83.5675 27.0666 83.1161 27.6291 82.7917C28.6694 82.1917 30.2995 82.1917 31.3408 82.7927C31.9043 83.118 32.214 83.5714 32.214 84.0701C32.214 84.5689 31.9047 85.0208 31.3427 85.3452C30.8226 85.6447 30.1553 85.7952 29.4886 85.7952L29.4876 85.7957ZM29.4832 83.0542C28.9363 83.0542 28.3894 83.1711 27.9827 83.4063C27.6535 83.5953 27.4645 83.8369 27.4645 84.0672C27.4645 84.2976 27.6539 84.5411 27.9846 84.731C28.7999 85.203 30.1753 85.203 30.9881 84.732C31.3169 84.543 31.5054 84.3015 31.5054 84.0711C31.5054 83.8408 31.3164 83.5972 30.9862 83.4073C30.5786 83.1711 30.0306 83.0542 29.4832 83.0542Z" fill="white"/>
<path d="M82.3262 84.0689C82.1309 84.0689 81.9722 83.9101 81.9722 83.7148L81.9692 79.8824C81.9692 79.6871 82.1275 79.5283 82.3228 79.5283C82.5181 79.5283 82.6769 79.6871 82.6769 79.8824L82.6798 83.7148C82.6798 83.9101 82.5215 84.0689 82.3262 84.0689Z" fill="white"/>
<path d="M85.6456 82.1544L79.0074 82.1525C78.8121 82.1525 78.6533 81.9937 78.6533 81.7984C78.6533 81.6031 78.8121 81.4443 79.0074 81.4443L85.6456 81.4463C85.8409 81.4463 85.9997 81.6051 85.9997 81.8004C85.9997 81.9957 85.8409 82.1544 85.6456 82.1544Z" fill="white"/>
<path d="M41.9186 18.3522C41.6264 18.3522 41.3113 18.2592 40.9903 18.0736C39.9491 17.4736 39.1338 16.0627 39.1338 14.8612C39.1338 14.212 39.37 13.7171 39.801 13.4683C40.232 13.2184 40.7809 13.2603 41.3444 13.5856C42.3857 14.1861 43.201 15.5976 43.201 16.7986C43.201 17.4478 42.9638 17.9421 42.5328 18.191C42.3472 18.2986 42.1397 18.3512 41.9186 18.3512V18.3522ZM40.4161 14.0176C40.3173 14.0176 40.2296 14.0391 40.1556 14.0819C39.9554 14.1973 39.8414 14.4818 39.8414 14.8612C39.8414 15.8011 40.5296 16.991 41.3439 17.4609C41.6736 17.6509 41.9761 17.6928 42.1782 17.5788C42.3779 17.4629 42.4923 17.1789 42.4923 16.7995C42.4923 15.8601 41.8042 14.6698 40.9899 14.1993C40.7814 14.079 40.5837 14.0176 40.4157 14.0176H40.4161Z" fill="white"/>
<path d="M85.0278 37.3986C85.019 37.3986 85.0103 37.3986 85.0015 37.3976C84.8564 37.3864 84.7326 37.2885 84.6893 37.1492C84.4901 36.5063 84.1662 35.788 83.7523 35.073C83.3422 34.36 82.8819 33.7196 82.4207 33.2199C82.3219 33.1127 82.2985 32.9564 82.3623 32.8254C82.4266 32.6949 82.5698 32.6218 82.7086 32.6267C83.1104 32.6608 83.5161 32.5634 83.8833 32.352C84.2485 32.143 84.533 31.8401 84.7088 31.4748C84.7716 31.3433 84.9075 31.2659 85.0536 31.2752C85.1987 31.2859 85.3229 31.3843 85.3658 31.5231C85.5674 32.1703 85.8913 32.8882 86.3033 33.6002C86.7163 34.3157 87.177 34.9556 87.6363 35.451C87.7352 35.5576 87.759 35.7139 87.6957 35.845C87.6324 35.976 87.498 36.0524 87.3504 36.0446C86.9491 36.0115 86.5386 36.1089 86.1733 36.3203C85.8085 36.5297 85.5231 36.8327 85.3468 37.1979C85.2874 37.3211 85.1627 37.3981 85.0278 37.3981V37.3986ZM83.404 33.2846C83.7401 33.7123 84.0664 34.1988 84.3659 34.7189C84.6674 35.2401 84.925 35.7651 85.1262 36.2672C85.3229 36.0476 85.5567 35.8581 85.8207 35.7066C86.0842 35.5552 86.3652 35.448 86.6535 35.3881C86.3179 34.9625 85.9911 34.4769 85.6901 33.9558C85.3892 33.4351 85.132 32.9101 84.9299 32.406C84.7336 32.6257 84.4999 32.8151 84.2359 32.9661C83.9719 33.1181 83.6909 33.2252 83.404 33.2846Z" fill="white"/>
<path d="M12.7923 49.0269C12.6696 49.0269 12.5507 48.9631 12.4855 48.8501C12.3876 48.6807 12.446 48.4644 12.615 48.3665L15.9356 46.452C16.1046 46.3531 16.3213 46.4135 16.4192 46.5816C16.5171 46.751 16.4587 46.9673 16.2897 47.0652L12.9691 48.9797C12.9131 49.0118 12.8527 49.0269 12.7928 49.0269H12.7923Z" fill="white"/>
<path d="M16.1138 50.9437C15.9911 50.9437 15.8723 50.8799 15.807 50.767L12.4855 45.0181C12.3876 44.8491 12.446 44.6323 12.615 44.5344C12.7855 44.4365 13.0008 44.4955 13.0986 44.664L16.4202 50.4129C16.5181 50.5819 16.4596 50.7986 16.2906 50.8965C16.2346 50.9287 16.1742 50.9437 16.1143 50.9437H16.1138Z" fill="white"/>
<path d="M71.4426 70.65H70.4632V45.1738C70.4632 43.2577 68.9047 41.6992 66.9897 41.6969H66.9874H63.9004C63.6454 41.6969 63.4389 41.9034 63.4389 42.1583C63.4389 42.4133 63.6454 42.6198 63.9004 42.6198H66.9851C66.9851 42.6198 66.9862 42.6198 66.9874 42.6198C68.3948 42.6198 69.5403 43.7653 69.5415 45.1715V70.6488H55.3626C55.3314 70.6488 55.3003 70.6511 55.2691 70.6581C55.2599 70.6604 55.2507 70.6638 55.2414 70.6661C55.2218 70.6719 55.2022 70.6765 55.1837 70.6846C55.1699 70.6904 55.1572 70.6984 55.1445 70.7054C55.1318 70.7123 55.118 70.718 55.1053 70.7261C55.0799 70.7434 55.0557 70.763 55.0338 70.785L53.3391 72.4796H45.9319L44.2361 70.7826C44.1968 70.7434 44.1507 70.7134 44.1022 70.6915C44.0976 70.6892 44.093 70.6857 44.0884 70.6834C44.0653 70.6742 44.0411 70.6673 44.0157 70.6615C44.0111 70.6615 44.0065 70.6581 44.0019 70.6569C43.9707 70.6511 43.9396 70.6477 43.9084 70.6477H29.7272V45.1704C29.7272 45.1704 29.7272 45.1681 29.7272 45.1669C29.7295 43.7607 30.8739 42.6175 32.2813 42.6175C32.2824 42.6175 32.2836 42.6175 32.2847 42.6175H33.8583C34.1132 42.6175 34.3197 42.411 34.3197 42.156C34.3197 41.9011 34.1132 41.6946 33.8583 41.6946H32.2813C32.2813 41.6946 32.279 41.6946 32.2767 41.6946C30.3617 41.6969 28.8043 43.2554 28.8043 45.1704C28.8043 45.1715 28.8043 45.1738 28.8043 45.175V70.6477H27.8238C26.8363 70.6477 26.0322 71.4517 26.0322 72.4404V73.4417C26.0322 74.4303 26.8363 75.2344 27.8238 75.2344H71.4426C72.4312 75.2344 73.2353 74.4303 73.2353 73.4417V72.4404C73.2353 71.4517 72.4312 70.6477 71.4426 70.6477V70.65ZM72.3124 73.444C72.3124 73.9239 71.9225 74.3138 71.4426 74.3138H27.8238C27.345 74.3138 26.9551 73.9239 26.9551 73.444V72.4427C26.9551 71.9628 27.345 71.5729 27.8238 71.5729H43.7169L45.4127 73.2687C45.4347 73.2906 45.4577 73.309 45.4831 73.3263C45.4946 73.3344 45.5073 73.339 45.52 73.346C45.5339 73.354 45.5477 73.3621 45.5627 73.3679C45.5789 73.3748 45.5939 73.3783 45.61 73.3829C45.6227 73.3863 45.6354 73.3921 45.6481 73.3944C45.6781 73.4002 45.7081 73.4036 45.7381 73.4036H53.5272C53.5572 73.4036 53.5872 73.4002 53.6172 73.3944C53.631 73.3921 53.6437 73.3863 53.6564 73.3829C53.6725 73.3783 53.6887 73.3748 53.7037 73.3679C53.7187 73.3609 53.7325 73.3529 53.7475 73.3448C53.759 73.3379 53.7717 73.3333 53.7833 73.3252C53.8086 73.3079 53.8329 73.2894 53.8536 73.2675L55.5494 71.5717H71.4415C71.9214 71.5717 72.3113 71.9616 72.3113 72.4415V73.4429L72.3124 73.444Z" fill="#383838"/>
<path d="M32.8365 67.6379V45.6341H33.8562C34.1112 45.6341 34.3177 45.4276 34.3177 45.1726C34.3177 44.9177 34.1112 44.7112 33.8562 44.7112H32.375C32.1201 44.7112 31.9136 44.9177 31.9136 45.1726V68.0993C31.9136 68.3542 32.1201 68.5607 32.375 68.5607H66.8908C67.1457 68.5607 67.3522 68.3542 67.3522 68.0993V45.1726C67.3522 44.9177 67.1457 44.7112 66.8908 44.7112H63.8995C63.6445 44.7112 63.4381 44.9177 63.4381 45.1726C63.4381 45.4276 63.6445 45.6341 63.8995 45.6341H66.4293V67.6379H32.8365Z" fill="#383838"/>
<path d="M35.1777 30.1306C35.1777 27.9054 36.9965 26.1094 39.2216 26.1376L63.2661 26.442L62.4561 28.3818C62.3971 28.523 62.3671 28.6746 62.368 28.8276L62.5465 61.9491C62.5499 62.5816 62.0381 63.0962 61.4056 63.0962H36.3187C35.6885 63.0962 35.1777 62.5854 35.1777 61.9553V30.1306Z" fill="white"/>
<path d="M75.2413 35.9704H69.1676V29.7997C69.1676 29.7997 69.1665 29.7917 69.1665 29.7882C69.1607 27.7982 67.5872 26.1694 65.6191 26.0748C65.5638 26.0505 65.5015 26.0378 65.4369 26.0378H62.1687C62.1687 26.0378 62.1664 26.0378 62.1652 26.0378H38.8556C36.7987 26.0378 35.126 27.7106 35.126 29.7674V62.6336C35.126 62.6336 35.126 62.6335 35.126 62.6347C35.126 62.8896 35.3325 63.0961 35.5874 63.0961H62.1629C62.1629 63.0961 62.1676 63.0961 62.1699 63.0961C62.4248 63.0961 62.6313 62.8896 62.6313 62.6347V29.8055C62.6313 29.8055 62.6313 29.802 62.6313 29.7997C62.6313 28.2528 63.8899 26.993 65.438 26.993C66.9861 26.993 68.2447 28.2516 68.2447 29.7997C68.2447 29.8032 68.2447 29.8055 68.2447 29.809V36.4237C68.2447 36.4237 68.2447 36.4295 68.2447 36.4329C68.2447 36.4364 68.2447 36.4387 68.2447 36.4422V40.8512C68.2447 41.1062 68.4512 41.3127 68.7062 41.3127C68.9611 41.3127 69.1676 41.1062 69.1676 40.8512V36.8944H74.7799V47.421C74.7799 47.421 74.7799 47.4256 74.7799 47.4291C74.7799 48.9761 73.5213 50.2358 71.9755 50.2358C71.7205 50.2358 71.514 50.4423 71.514 50.6972C71.514 50.9522 71.7205 51.1587 71.9755 51.1587C74.0277 51.1587 75.697 49.4906 75.7028 47.4395C75.7028 47.436 75.7028 47.4325 75.7028 47.4291V36.4341C75.7028 36.1792 75.4963 35.9727 75.2413 35.9727V35.9704ZM61.7084 29.7917C61.7084 29.7917 61.7084 29.7963 61.7084 29.7986V62.171H36.0489V29.7674C36.0489 28.2205 37.3074 26.9607 38.8556 26.9607H62.1699C62.1699 26.9607 62.1722 26.9607 62.1733 26.9607H63.0235C62.2218 27.6437 61.7107 28.66 61.7084 29.7928V29.7917Z" fill="#383838"/>
<path d="M57.911 39.145H39.8491C38.7774 39.145 37.9053 40.0171 37.9053 41.0888V42.1825C37.9053 43.2541 38.7774 44.1263 39.8491 44.1263H57.911C58.9827 44.1263 59.8549 43.2541 59.8549 42.1825V41.0888C59.8549 40.0171 58.9827 39.145 57.911 39.145ZM58.932 42.1825C58.932 42.7454 58.474 43.2034 57.911 43.2034H39.8491C39.2861 43.2034 38.8282 42.7454 38.8282 42.1825V41.0888C38.8282 40.5259 39.2861 40.0679 39.8491 40.0679H57.9122C58.4751 40.0679 58.9331 40.5259 58.9331 41.0888V42.1825H58.932Z" fill="#383838"/>
<path d="M57.911 32.085H39.8491C38.7774 32.085 37.9053 32.9571 37.9053 34.0288V35.1224C37.9053 36.1941 38.7774 37.0662 39.8491 37.0662H57.911C58.9827 37.0662 59.8549 36.1941 59.8549 35.1224V34.0288C59.8549 32.9571 58.9827 32.085 57.911 32.085ZM58.932 35.1235C58.932 35.6865 58.474 36.1445 57.911 36.1445H39.8491C39.2861 36.1445 38.8282 35.6865 38.8282 35.1235V34.0299C38.8282 33.467 39.2861 33.009 39.8491 33.009H57.9122C58.4751 33.009 58.9331 33.467 58.9331 34.0299V35.1235H58.932Z" fill="#383838"/>
<path d="M48.8781 46.4934C45.092 46.4934 42.0107 49.5735 42.0107 53.3608C42.0107 57.1481 45.0909 60.2282 48.8781 60.2282C52.6654 60.2282 55.7455 57.1481 55.7455 53.3608C55.7455 49.5735 52.6654 46.4934 48.8781 46.4934ZM48.8781 59.3053C45.6008 59.3053 42.9336 56.6382 42.9336 53.3608C42.9336 50.0834 45.6008 47.4163 48.8781 47.4163C52.1555 47.4163 54.8226 50.0834 54.8226 53.3608C54.8226 56.6382 52.1567 59.3053 48.8781 59.3053Z" fill="#383838"/>
<path d="M48.8779 50.6659H50.4561C50.711 50.6659 50.9175 50.4594 50.9175 50.2045C50.9175 49.9496 50.711 49.7431 50.4561 49.7431H49.3394V48.4314C49.3394 48.1765 49.1329 47.97 48.8779 47.97C48.623 47.97 48.4165 48.1765 48.4165 48.4314V49.7984C47.5132 50.0084 46.8384 50.8182 46.8384 51.7838C46.8384 52.9085 47.7532 53.8233 48.8779 53.8233C49.494 53.8233 49.9946 54.324 49.9946 54.94C49.9946 55.5561 49.494 56.0567 48.8779 56.0567H47.2998C47.0449 56.0567 46.8384 56.2632 46.8384 56.5182C46.8384 56.7731 47.0449 56.9796 47.2998 56.9796H48.4165V58.2912C48.4165 58.5462 48.623 58.7527 48.8779 58.7527C49.1329 58.7527 49.3394 58.5462 49.3394 58.2912V56.9254C50.2427 56.7154 50.9175 55.9056 50.9175 54.94C50.9175 53.8153 50.0027 52.9005 48.8779 52.9005C48.2619 52.9005 47.7613 52.3998 47.7613 51.7838C47.7613 51.1678 48.2619 50.6671 48.8779 50.6671V50.6659Z" fill="#383838"/>
<path d="M52.5586 52.8994C52.3037 52.8994 52.0972 53.1059 52.0972 53.3609C52.0972 53.6158 52.3037 53.8223 52.5586 53.8223H53.0143C53.2692 53.8223 53.4757 53.6158 53.4757 53.3609C53.4757 53.1059 53.2692 52.8994 53.0143 52.8994H52.5586Z" fill="#383838"/>
<path d="M45.1974 52.8994H44.7417C44.4868 52.8994 44.2803 53.1059 44.2803 53.3609C44.2803 53.6158 44.4868 53.8223 44.7417 53.8223H45.1974C45.4523 53.8223 45.6588 53.6158 45.6588 53.3609C45.6588 53.1059 45.4523 52.8994 45.1974 52.8994Z" fill="#383838"/>
<defs>
<linearGradient id="paint0_linear_802_14075" x1="50.8701" y1="0.63623" x2="50.8701" y2="100.636" gradientUnits="userSpaceOnUse">
<stop stop-color="#1ACC40"/>
<stop offset="1" stop-color="#82DA48"/>
</linearGradient>
<linearGradient id="paint1_linear_802_14075" x1="50.8701" y1="100.636" x2="50.8701" y2="0.63623" gradientUnits="userSpaceOnUse">
<stop stop-color="#1ABE3C"/>
<stop offset="1" stop-color="#96F557"/>
</linearGradient>
</defs>
</svg>
