<svg width="101" height="101" viewBox="0 0 101 101" fill="none" xmlns="http://www.w3.org/2000/svg">
<rect x="2.14941" y="2.63623" width="96" height="96" rx="48" fill="url(#paint0_linear_802_12230)"/>
<rect x="2.14941" y="2.63623" width="96" height="96" rx="48" stroke="url(#paint1_linear_802_12230)" stroke-width="4"/>
<path d="M36.6028 77.5956C36.1052 77.5956 35.6073 77.4839 35.22 77.2598C34.8004 77.0175 34.5693 76.6799 34.5693 76.3082C34.5693 75.9364 34.8 75.6002 35.2189 75.3587C35.9935 74.9119 37.2074 74.9119 37.9828 75.3594C38.4024 75.6017 38.633 75.9393 38.633 76.3107C38.633 76.6821 38.4027 77.0186 37.9842 77.2602C37.5969 77.4832 37.1 77.5953 36.6035 77.5953L36.6028 77.5956ZM36.5995 75.5542C36.1923 75.5542 35.785 75.6412 35.4822 75.8164C35.237 75.9571 35.0963 76.137 35.0963 76.3085C35.0963 76.4801 35.2374 76.6614 35.4836 76.8028C36.0907 77.1543 37.1149 77.1543 37.7202 76.8036C37.965 76.6628 38.1053 76.483 38.1053 76.3114C38.1053 76.1399 37.9646 75.9585 37.7187 75.8171C37.4152 75.6412 37.0072 75.5542 36.5995 75.5542Z" fill="white"/>
<path d="M69.0564 79.427C68.9109 79.427 68.7927 79.3088 68.7927 79.1634L68.7905 76.3096C68.7905 76.1641 68.9084 76.0459 69.0538 76.0459C69.1993 76.0459 69.3175 76.1641 69.3175 76.3096L69.3197 79.1634C69.3197 79.3088 69.2018 79.427 69.0564 79.427Z" fill="white"/>
<path d="M71.5276 78.0014L66.5845 78C66.439 78 66.3208 77.8817 66.3208 77.7363C66.3208 77.5909 66.439 77.4727 66.5845 77.4727L71.5276 77.4741C71.673 77.4741 71.7913 77.5923 71.7913 77.7378C71.7913 77.8832 71.673 78.0014 71.5276 78.0014Z" fill="white"/>
<path d="M57.6401 25.6023C57.4225 25.6023 57.1879 25.533 56.9489 25.3948C56.1735 24.948 55.5664 23.8974 55.5664 23.0027C55.5664 22.5192 55.7423 22.1508 56.0633 21.9655C56.3842 21.7794 56.7929 21.8106 57.2126 22.0529C57.9879 22.5 58.595 23.551 58.595 24.4454C58.595 24.9288 58.4184 25.2969 58.0975 25.4822C57.9593 25.5624 57.8048 25.6015 57.6401 25.6015V25.6023ZM56.5213 22.3745C56.4477 22.3745 56.3824 22.3905 56.3273 22.4224C56.1782 22.5084 56.0934 22.7202 56.0934 23.0027C56.0934 23.7026 56.6058 24.5886 57.2122 24.9386C57.4577 25.08 57.6829 25.1112 57.8334 25.0264C57.9821 24.94 58.0674 24.7286 58.0674 24.4461C58.0674 23.7465 57.5549 22.8601 56.9485 22.5098C56.7933 22.4202 56.6461 22.3745 56.5209 22.3745H56.5213Z" fill="white"/>
<path d="M75.2717 40.9166C75.2651 40.9166 75.2586 40.9166 75.2521 40.9158C75.144 40.9075 75.0519 40.8346 75.0196 40.7309C74.8713 40.2522 74.6301 39.7172 74.3218 39.1848C74.0165 38.6539 73.6737 38.177 73.3303 37.8049C73.2567 37.7251 73.2393 37.6087 73.2868 37.5111C73.3346 37.4139 73.4413 37.3595 73.5446 37.3632C73.8438 37.3885 74.1459 37.316 74.4194 37.1586C74.6914 37.003 74.9032 36.7775 75.0341 36.5055C75.0809 36.4075 75.1821 36.3499 75.2909 36.3568C75.3989 36.3647 75.4914 36.438 75.5233 36.5414C75.6735 37.0233 75.9147 37.5579 76.2215 38.0881C76.529 38.6209 76.8721 39.0974 77.2141 39.4663C77.2877 39.5457 77.3055 39.6621 77.2583 39.7597C77.2112 39.8572 77.1111 39.9142 77.0012 39.9084C76.7024 39.8837 76.3966 39.9562 76.1246 40.1136C75.853 40.2696 75.6405 40.4951 75.5092 40.7671C75.465 40.8589 75.3721 40.9162 75.2717 40.9162V40.9166ZM74.0625 37.8531C74.3128 38.1715 74.5557 38.5338 74.7788 38.9212C75.0033 39.3092 75.1951 39.7002 75.3449 40.0741C75.4914 39.9105 75.6655 39.7695 75.8621 39.6567C76.0583 39.5439 76.2675 39.4641 76.4822 39.4195C76.2324 39.1025 75.989 38.7409 75.7649 38.3529C75.5407 37.9652 75.3493 37.5742 75.1988 37.1989C75.0526 37.3624 74.8785 37.5035 74.682 37.6159C74.4854 37.7291 74.2761 37.8089 74.0625 37.8531Z" fill="white"/>
<path d="M25.1008 40.4124C25.0094 40.4124 24.9209 40.3649 24.8723 40.2808C24.7994 40.1546 24.8429 39.9935 24.9687 39.9206L27.4414 38.495C27.5673 38.4214 27.7286 38.4663 27.8015 38.5915C27.8744 38.7177 27.8309 38.8787 27.7051 38.9516L25.2324 40.3772C25.1907 40.4012 25.1457 40.4124 25.1011 40.4124H25.1008Z" fill="white"/>
<path d="M27.5741 41.84C27.4827 41.84 27.3943 41.7924 27.3457 41.7083L24.8723 37.4274C24.7994 37.3015 24.8429 37.1402 24.9687 37.0673C25.0957 36.9944 25.256 37.0382 25.3289 37.1637L27.8023 41.4447C27.8752 41.5705 27.8316 41.7319 27.7058 41.8048C27.6641 41.8287 27.6191 41.84 27.5745 41.84H27.5741Z" fill="white"/>
<path d="M65.7536 37.9112L49.294 28.4082C47.6247 29.3725 46.2708 31.7128 46.2708 33.6379L46.2701 58.5817L40.1831 62.0963C40.1831 63.0697 40.5236 63.7646 41.0749 64.0975L41.0742 64.099L57.5302 73.5997L57.5309 73.5976C58.0898 73.9374 58.8641 73.9051 59.7221 73.4101C61.4227 72.4283 62.7305 70.0431 62.7305 68.0843V43.1397H62.7297C62.7305 41.2154 64.0839 38.8755 65.7536 37.9108V37.9112Z" fill="white"/>
<path d="M58.3679 74.0876C58.0263 74.0876 57.7082 74.006 57.425 73.841C57.4156 73.837 57.4069 73.8326 57.3982 73.8279L40.9422 64.3268C40.9316 64.3206 40.9215 64.3141 40.9124 64.3065C40.2716 63.9047 39.9194 63.1213 39.9194 62.096C39.9194 62.0021 39.9695 61.9147 40.0511 61.8679L46.0061 58.4295L46.0068 33.6379C46.0068 31.6335 47.4219 29.1851 49.162 28.1802C49.2436 28.1327 49.3441 28.1327 49.4257 28.1802L65.8853 37.6831C65.9669 37.7303 66.0169 37.8173 66.0169 37.9112C66.0169 38.0052 65.9669 38.0926 65.8853 38.1394C64.2914 39.0602 62.9937 41.3036 62.993 43.1398L62.9937 68.0844C62.9937 70.1824 61.6145 72.6221 59.8538 73.6386C59.3355 73.9371 58.8307 74.0876 58.3679 74.0876ZM57.6332 73.3543C57.6451 73.359 57.6564 73.3652 57.668 73.3721C58.1677 73.6756 58.8503 73.6082 59.5905 73.1813C61.1764 72.2663 62.4668 69.9797 62.4668 68.0844V43.1398C62.4668 41.2811 63.6839 39.0409 65.2484 37.9236L49.2969 28.714C47.7625 29.6783 46.5345 31.8504 46.5345 33.6376L46.5337 58.5814C46.5337 58.6754 46.4837 58.7628 46.4021 58.8095L40.45 62.2465C40.4801 63.0183 40.7481 63.5917 41.2113 63.8717C41.2181 63.8753 41.2243 63.88 41.2308 63.8843L57.6335 73.3543H57.6332Z" fill="#383838"/>
<path d="M60.9044 57.072C60.8598 57.072 60.8145 57.0608 60.7728 57.0369L55.0216 53.7163C54.8958 53.6434 54.8523 53.4824 54.9251 53.3562C54.9977 53.2307 55.1587 53.1868 55.2853 53.2597L61.0364 56.5803C61.1623 56.6532 61.2058 56.8142 61.1329 56.9404C61.0843 57.0249 60.9955 57.072 60.9044 57.072ZM60.9044 54.9675C60.8598 54.9675 60.8145 54.9562 60.7728 54.932L56.8484 52.666C56.7225 52.5931 56.679 52.4321 56.7519 52.3059C56.8244 52.18 56.9855 52.1362 57.112 52.2094L61.0364 54.4754C61.1623 54.5482 61.2058 54.7093 61.1329 54.8355C61.0843 54.92 60.9955 54.9671 60.9044 54.9671V54.9675ZM53.4034 52.7411C53.3588 52.7411 53.3135 52.7298 53.2721 52.7055L47.9663 49.6425C47.8405 49.5696 47.7969 49.4085 47.8698 49.2823C47.9424 49.1568 48.1034 49.113 48.23 49.1859L53.5358 52.2489C53.6616 52.3218 53.7051 52.4829 53.6322 52.6091C53.5836 52.6936 53.4948 52.7407 53.4038 52.7407L53.4034 52.7411ZM55.2294 51.6908C55.1848 51.6908 55.1395 51.6796 55.0981 51.6556L47.9663 47.5383C47.8405 47.4654 47.7969 47.3043 47.8698 47.1781C47.9424 47.0527 48.1034 47.0088 48.23 47.0817L55.3618 51.199C55.4876 51.2719 55.5312 51.4329 55.4583 51.5591C55.4097 51.6437 55.3208 51.6908 55.2298 51.6908H55.2294Z" fill="#383838"/>
<path d="M60.9044 50.7598C60.8598 50.7598 60.8145 50.7486 60.7728 50.7243L55.0216 47.4037C54.8958 47.3308 54.8523 47.1698 54.9251 47.0436C54.9977 46.9181 55.1587 46.8742 55.2853 46.9471L61.0364 50.2677C61.1623 50.3406 61.2058 50.5016 61.1329 50.6278C61.0843 50.7123 60.9955 50.7595 60.9044 50.7595V50.7598ZM60.9044 48.6571C60.8598 48.6571 60.8145 48.6459 60.7728 48.6219L56.8476 46.356C56.7218 46.2831 56.6783 46.1221 56.7512 45.9959C56.8241 45.8704 56.9851 45.8261 57.1113 45.8994L61.0364 48.1653C61.1623 48.2382 61.2058 48.3992 61.1329 48.5255C61.0843 48.61 60.9955 48.6571 60.9044 48.6571ZM53.4034 46.4289C53.3588 46.4289 53.3135 46.4176 53.2721 46.3937L47.9663 43.3306C47.8405 43.2577 47.7969 43.0967 47.8698 42.9705C47.9424 42.8446 48.1034 42.8011 48.23 42.874L53.5358 45.9371C53.6616 46.01 53.7051 46.171 53.6322 46.2972C53.5836 46.3817 53.4948 46.4289 53.4038 46.4289H53.4034ZM55.2294 45.3811C55.1848 45.3811 55.1395 45.3699 55.0981 45.346L47.9663 41.2279C47.8405 41.155 47.7969 40.994 47.8698 40.8677C47.9424 40.7419 48.1034 40.6977 48.23 40.7713L55.3618 44.8894C55.4876 44.9623 55.5312 45.1233 55.4583 45.2495C55.4097 45.334 55.3208 45.3811 55.2298 45.3811H55.2294Z" fill="#383838"/>
<path d="M60.9044 44.4479C60.8598 44.4479 60.8145 44.4366 60.7728 44.4127L55.0216 41.0921C54.8958 41.0192 54.8523 40.8582 54.9251 40.732C54.9977 40.6062 55.1587 40.5619 55.2853 40.6355L61.0364 43.9561C61.1623 44.029 61.2058 44.19 61.1329 44.3162C61.0843 44.4007 60.9955 44.4479 60.9044 44.4479ZM60.9044 42.3451C60.8598 42.3451 60.8145 42.3339 60.7728 42.3096L56.8476 40.0437C56.7218 39.9708 56.6783 39.8097 56.7512 39.6835C56.8241 39.558 56.9851 39.5138 57.1113 39.5871L61.0364 41.853C61.1623 41.9259 61.2058 42.0869 61.1329 42.2131C61.0843 42.2976 60.9955 42.3448 60.9044 42.3448V42.3451ZM53.4034 40.1169C53.3588 40.1169 53.3135 40.1057 53.2721 40.0814L47.9663 37.0183C47.8405 36.9454 47.7969 36.7844 47.8698 36.6582C47.9424 36.5323 48.1034 36.4884 48.23 36.5617L53.5358 39.6248C53.6616 39.6977 53.7051 39.8587 53.6322 39.9849C53.5836 40.0694 53.4948 40.1166 53.4038 40.1166L53.4034 40.1169ZM55.2294 39.0688C55.1848 39.0688 55.1395 39.0576 55.0981 39.0336L47.967 34.9163C47.8412 34.8434 47.7977 34.6824 47.8706 34.5561C47.9435 34.431 48.1045 34.3864 48.2307 34.4597L55.3618 38.577C55.4876 38.6499 55.5312 38.811 55.4583 38.9372C55.4097 39.0217 55.3208 39.0688 55.2298 39.0688H55.2294Z" fill="#383838"/>
<path d="M60.9044 63.3842C60.8598 63.3842 60.8145 63.3729 60.7728 63.3486L55.0216 60.0281C54.8958 59.9552 54.8523 59.7941 54.9251 59.6679C54.9977 59.5424 55.1587 59.4982 55.2853 59.5715L61.0364 62.892C61.1623 62.9649 61.2058 63.126 61.1329 63.2522C61.0843 63.3367 60.9955 63.3838 60.9044 63.3838V63.3842ZM60.9044 61.2793C60.8598 61.2793 60.8145 61.268 60.7728 61.2441L56.8484 58.9781C56.7225 58.9052 56.679 58.7442 56.7519 58.618C56.8244 58.4929 56.9855 58.4483 57.112 58.5215L61.0364 60.7875C61.1623 60.8604 61.2058 61.0214 61.1329 61.1476C61.0843 61.2321 60.9955 61.2793 60.9044 61.2793ZM53.4027 59.0529C53.3581 59.0529 53.3127 59.0416 53.2714 59.0177L47.967 55.9539C47.8412 55.881 47.7977 55.7199 47.8706 55.5937C47.9435 55.4683 48.1045 55.424 48.2307 55.4973L53.535 58.5611C53.6609 58.634 53.7044 58.795 53.6315 58.9212C53.5829 59.0057 53.4941 59.0529 53.403 59.0529H53.4027ZM55.2294 58.0026C55.1848 58.0026 55.1395 57.9913 55.0981 57.9674L47.9663 53.85C47.8405 53.7771 47.7969 53.6161 47.8698 53.4899C47.9424 53.3644 48.1034 53.3205 48.23 53.3934L55.3618 57.5108C55.4876 57.5837 55.5312 57.7447 55.4583 57.8709C55.4097 57.9554 55.3208 58.0026 55.2298 58.0026H55.2294Z" fill="#383838"/>
<path d="M60.9044 67.606C60.8598 67.606 60.8145 67.5948 60.7728 67.5709L56.8484 65.3049C56.7225 65.232 56.679 65.071 56.7519 64.9448C56.8244 64.8189 56.9855 64.7751 57.112 64.8483L61.0364 67.1143C61.1623 67.1872 61.2058 67.3482 61.1329 67.4744C61.0843 67.5589 60.9955 67.606 60.9044 67.606ZM55.2294 64.3293C55.1848 64.3293 55.1395 64.3181 55.0981 64.2938L47.9663 60.1765C47.8405 60.1036 47.7969 59.9425 47.8698 59.8163C47.9424 59.6908 48.1034 59.647 48.23 59.7199L55.3618 63.8372C55.4876 63.9101 55.5312 64.0711 55.4583 64.1973C55.4097 64.2818 55.3208 64.329 55.2298 64.329L55.2294 64.3293Z" fill="#383838"/>
<path d="M60.4263 69.5061C60.3817 69.5061 60.3364 69.4944 60.295 69.4709L54.5438 66.1499C54.418 66.077 54.3745 65.916 54.4474 65.7898C54.5203 65.6643 54.6806 65.6201 54.8075 65.6933L60.5587 69.0136C60.6845 69.0865 60.728 69.2475 60.6551 69.374C60.6065 69.4585 60.5177 69.5057 60.4267 69.5057L60.4263 69.5061ZM52.9253 65.1751C52.8807 65.1751 52.8353 65.1638 52.7936 65.1399L47.4893 62.0761C47.3634 62.0032 47.3199 61.8422 47.3928 61.716C47.4657 61.5901 47.6267 61.5462 47.7529 61.6195L53.0573 64.6833C53.1831 64.7562 53.2266 64.9172 53.1537 65.0434C53.1051 65.1279 53.0163 65.1751 52.9253 65.1751Z" fill="#383838"/>
<path d="M56.6438 71.5994V52.6649H56.6431C56.6431 51.7137 56.3011 51.0482 55.7534 50.7352L55.7542 50.7337L39.2985 41.2329L39.2971 41.2351C38.7494 40.9192 37.9947 40.9606 37.1689 41.4219L40.1838 43.1627L40.1831 62.0972H40.1838C40.1838 63.0706 40.5243 63.7647 41.0756 64.0976L41.0749 64.0991L57.5309 73.5999L57.5316 73.5977C56.9825 73.264 56.6434 72.5699 56.6434 71.5994H56.6438Z" fill="#31CF42"/>
<path d="M57.5299 73.8623C57.4846 73.8623 57.4396 73.8507 57.3993 73.8279L40.9433 64.3267C40.9328 64.3206 40.9227 64.314 40.9136 64.3064C40.2728 63.9046 39.9206 63.1212 39.9206 62.0967V43.3145L37.0374 41.6499C36.9555 41.6024 36.905 41.5146 36.9058 41.42C36.9065 41.325 36.958 41.2376 37.0407 41.1919C37.9122 40.7044 38.7467 40.6319 39.3955 40.988C39.4074 40.9924 39.419 40.9982 39.4307 41.0047L55.8863 50.5055C55.895 50.5106 55.9033 50.5157 55.9113 50.5215C56.5536 50.9037 56.9072 51.6631 56.9072 52.6645L56.9079 71.5989C56.9079 72.4439 57.1785 73.0735 57.6695 73.372C57.7747 73.4358 57.8215 73.5635 57.7827 73.6803C57.7577 73.7557 57.6996 73.817 57.6256 73.8449C57.5948 73.8565 57.5625 73.862 57.5303 73.862L57.5299 73.8623ZM41.2317 63.8843L56.5543 72.7308C56.4397 72.4008 56.3799 72.0203 56.3799 71.5989V52.6645C56.3792 51.8466 56.1101 51.2424 55.6223 50.9636C55.6136 50.9585 55.6052 50.953 55.5972 50.9476L39.1975 41.4787C39.1866 41.4744 39.1757 41.4689 39.1652 41.4628C38.7808 41.2415 38.2839 41.2368 37.7366 41.4446L40.3156 42.9341C40.3972 42.9813 40.4472 43.0683 40.4472 43.1622L40.4465 62.0967C40.4472 62.9435 40.7188 63.5735 41.2117 63.8716C41.2186 63.8752 41.2251 63.8799 41.2313 63.8843H41.2317Z" fill="#383838"/>
<path d="M55.7525 50.7351L55.7532 50.7337L39.2975 41.2329L39.2961 41.2351C38.7372 40.913 37.9637 40.9598 37.1186 41.4472C35.4493 42.4119 34.0955 44.7526 34.0955 46.6776L34.0947 62.512L50.5544 72.0157L50.5551 56.1795H50.5544C50.5551 54.2552 51.9086 51.9152 53.5783 50.9505C54.4226 50.4631 55.1958 50.4163 55.7539 50.7369C55.7532 50.7369 55.7532 50.7355 55.7525 50.7355V50.7351Z" fill="white"/>
<path d="M50.5545 72.2789C50.5088 72.2789 50.4634 72.2673 50.4228 72.2438L33.9632 62.7397C33.8816 62.6926 33.8315 62.6055 33.8315 62.5116L33.8323 46.6772C33.8323 44.6724 35.2474 42.2237 36.9875 41.2187C37.8775 40.7055 38.7301 40.6239 39.3948 40.9877C39.4065 40.992 39.4184 40.9978 39.43 41.0044L55.8857 50.5052C56.0064 50.5748 56.0521 50.7264 55.9898 50.8511C55.9571 50.9164 55.8998 50.9661 55.8305 50.9871C55.7616 51.0082 55.6866 51.0006 55.6231 50.965C55.1244 50.6781 54.4455 50.7539 53.7108 51.1783C52.1168 52.0991 50.8192 54.3425 50.8185 56.1791V72.0153C50.8185 72.1092 50.7684 72.1966 50.6868 72.2438C50.6459 72.267 50.6005 72.2789 50.5552 72.2789H50.5545ZM34.3585 62.3596L50.2908 71.5587L50.2915 56.1791C50.2915 54.175 51.7067 51.727 53.4467 50.722C53.8054 50.5146 54.1586 50.3782 54.4952 50.3122L39.1968 41.4795C39.186 41.4751 39.1751 41.4697 39.1649 41.4635C38.6652 41.1759 37.9863 41.2514 37.2508 41.6757C35.6565 42.5968 34.3592 44.8407 34.3592 46.6776L34.3585 62.3596Z" fill="#383838"/>
<path d="M48.7289 61.0023C48.6843 61.0023 48.6389 60.991 48.5976 60.9667L42.8464 57.6461C42.7206 57.5733 42.6771 57.4122 42.75 57.286C42.8225 57.1602 42.9835 57.1167 43.1101 57.1896L48.8613 60.5101C48.9871 60.583 49.0306 60.744 48.9577 60.8703C48.9091 60.9548 48.8203 61.0019 48.7293 61.0019L48.7289 61.0023ZM48.7289 58.8981C48.6843 58.8981 48.6389 58.8868 48.5976 58.8629L44.6732 56.5962C44.5473 56.5233 44.5038 56.3623 44.5767 56.2361C44.6493 56.1106 44.8099 56.0664 44.9368 56.1396L48.8613 58.4063C48.9871 58.4792 49.0306 58.6402 48.9577 58.7664C48.9091 58.8509 48.8203 58.8981 48.7293 58.8981H48.7289ZM41.2279 56.6713C41.1832 56.6713 41.1379 56.6601 41.0966 56.6361L35.7908 53.573C35.6649 53.5001 35.6214 53.3391 35.6943 53.2129C35.7672 53.0878 35.9278 53.0428 36.0544 53.1164L41.3602 56.1795C41.4861 56.2524 41.5296 56.4134 41.4567 56.5397C41.4081 56.6242 41.3192 56.6713 41.2282 56.6713H41.2279ZM43.0539 55.6217C43.0093 55.6217 42.9639 55.6105 42.9226 55.5862L35.79 51.4688C35.6642 51.396 35.6207 51.2349 35.6936 51.1087C35.7661 50.9832 35.9268 50.939 36.0537 51.0122L43.1863 55.1296C43.3121 55.2025 43.3556 55.3635 43.2827 55.4897C43.2341 55.5742 43.1453 55.6214 43.0542 55.6214L43.0539 55.6217Z" fill="#383838"/>
<path d="M49.4077 52.5717C49.3631 52.5717 49.3178 52.5605 49.2761 52.5366L45.3517 50.2699C45.2258 50.197 45.1823 50.036 45.2552 49.9098C45.3274 49.7839 45.4891 49.74 45.6153 49.8133L49.5397 52.08C49.6656 52.1529 49.7091 52.3139 49.6362 52.4401C49.5876 52.5246 49.4988 52.5717 49.4077 52.5717ZM43.7327 49.295C43.6881 49.295 43.6428 49.2838 43.6011 49.2599L36.4692 45.1425C36.3434 45.0696 36.2999 44.9086 36.3728 44.7824C36.4453 44.6565 36.606 44.6127 36.7329 44.6859L43.8647 48.8033C43.9906 48.8762 44.0341 49.0372 43.9612 49.1634C43.9126 49.2479 43.8238 49.295 43.7327 49.295Z" fill="#383838"/>
<path d="M48.7282 54.6754C48.6836 54.6754 48.6382 54.6641 48.5969 54.6402L42.8457 51.3196C42.7199 51.2467 42.6763 51.0857 42.7492 50.9595C42.8218 50.834 42.9828 50.7901 43.1094 50.863L48.8605 54.1836C48.9864 54.2565 49.0299 54.4175 48.957 54.5437C48.9084 54.6282 48.8196 54.6754 48.7285 54.6754H48.7282ZM41.2271 50.3444C41.1825 50.3444 41.1372 50.3332 41.0958 50.3089L35.79 47.2458C35.6642 47.1729 35.6207 47.0119 35.6936 46.8857C35.7665 46.7602 35.9271 46.7163 36.0537 46.7892L41.3595 49.8523C41.4854 49.9252 41.5289 50.0862 41.456 50.2124C41.4074 50.2969 41.3185 50.344 41.2275 50.344L41.2271 50.3444Z" fill="#383838"/>
<path d="M48.7282 67.3144C48.6836 67.3144 48.6382 67.3031 48.5969 67.2792L42.8457 63.9586C42.7199 63.8857 42.6763 63.7247 42.7492 63.5985C42.8218 63.473 42.9828 63.4291 43.1094 63.502L48.8605 66.8226C48.9864 66.8955 49.0299 67.0565 48.957 67.1827C48.9084 67.2672 48.8196 67.3144 48.7285 67.3144H48.7282ZM48.7282 65.2098C48.6836 65.2098 48.6382 65.1986 48.5969 65.1743L44.6725 62.9083C44.5466 62.8354 44.5031 62.6744 44.576 62.5482C44.6485 62.4223 44.8092 62.3785 44.9361 62.4517L48.8605 64.7177C48.9864 64.7906 49.0299 64.9516 48.957 65.0778C48.9084 65.1623 48.8196 65.2094 48.7285 65.2094L48.7282 65.2098ZM41.2271 62.9834C41.1825 62.9834 41.1372 62.9721 41.0958 62.9482L35.79 59.8851C35.6642 59.8122 35.6207 59.6512 35.6936 59.525C35.7665 59.3995 35.9271 59.3556 36.0537 59.4285L41.3595 62.4916C41.4854 62.5645 41.5289 62.7255 41.456 62.8517C41.4074 62.9362 41.3185 62.9834 41.2275 62.9834H41.2271ZM43.0539 61.9331C43.0093 61.9331 42.9639 61.9219 42.9226 61.8976L35.79 57.7809C35.6642 57.708 35.6207 57.547 35.6936 57.4208C35.7665 57.295 35.9271 57.2511 36.0537 57.3243L43.1863 61.441C43.3121 61.5139 43.3556 61.6749 43.2827 61.8011C43.2341 61.8856 43.1453 61.9327 43.0542 61.9327L43.0539 61.9331Z" fill="#383838"/>
<path d="M36.9737 56.5405L26.3497 50.406C25.8493 50.1177 25.3977 50.0868 25.0641 50.266L25.0612 50.262L23.8212 50.9779C23.4854 51.1708 23.2783 51.5839 23.2783 52.1729L23.279 58.7205C23.279 59.8991 24.1085 61.3338 25.1319 61.925L28.1283 63.6549L30.4439 67.9975L31.6617 67.2946L32.8948 66.4072L35.7566 68.058C36.2563 68.3478 36.7082 68.3772 37.0419 68.1995L37.0441 68.2031L37.0662 68.1908C37.0662 68.1908 37.0669 68.1901 37.0676 68.1893L38.2833 67.4876C38.6195 67.2946 38.8277 66.8808 38.8277 66.2911V59.7443C38.8269 58.5671 37.9971 57.1309 36.9741 56.5405H36.9737Z" fill="#31CF42"/>
<path d="M36.5807 68.5745C36.2804 68.5745 35.9551 68.4777 35.6247 68.2862L32.9109 66.7206L31.8163 67.5086L30.5764 68.2263C30.5144 68.2615 30.4404 68.2702 30.3722 68.251C30.3036 68.2318 30.2456 68.185 30.2119 68.1219L27.9322 63.8453L25.0011 62.1531C23.8877 61.5108 23.0159 60.0032 23.0159 58.7209L23.0151 52.1733C23.0151 51.5052 23.2552 50.9997 23.6904 50.7494L24.93 50.0339C24.9496 50.0227 24.9699 50.0139 24.9909 50.0081C25.4142 49.8069 25.9411 49.8663 26.4819 50.1779L37.1062 56.3124C38.2185 56.9547 39.0907 58.4619 39.0914 59.7443V66.2912C39.0914 66.9599 38.851 67.4662 38.4147 67.7164L37.1998 68.4182C37.1853 68.4265 37.1704 68.4334 37.1544 68.4389C36.9793 68.5295 36.786 68.5749 36.581 68.5749L36.5807 68.5745ZM32.8949 66.1435C32.9402 66.1435 32.9859 66.1552 33.0266 66.1787L35.8884 67.8296C36.2862 68.0599 36.6514 68.1085 36.9176 67.9667C36.9285 67.9605 36.9397 67.9558 36.9517 67.9514L38.151 67.2591C38.4172 67.1064 38.5637 66.7626 38.5637 66.2908V59.7439C38.563 58.6509 37.7909 57.3159 36.8422 56.7683L26.2182 50.6337C25.8193 50.4038 25.4544 50.3556 25.189 50.4977C25.1763 50.5046 25.1628 50.5101 25.1494 50.5148L23.9537 51.2053C23.6882 51.3576 23.5425 51.7011 23.5425 52.1722L23.5432 58.7198C23.5432 59.8128 24.3153 61.1478 25.264 61.6958L28.2604 63.4257C28.3028 63.4504 28.338 63.4867 28.3612 63.5302L30.5484 67.6323L31.5302 67.0654L32.7408 66.1921C32.7868 66.1591 32.8405 66.1425 32.8949 66.1425V66.1435Z" fill="#383838"/>
<path d="M28.251 63.8816L30.4455 67.9979L31.6633 67.295L32.8964 66.4076L35.7582 68.0585C36.2579 68.3482 36.7098 68.3776 37.0435 68.1999L37.0456 68.2035L37.0678 68.1912C37.0678 68.1912 37.0685 68.1905 37.0692 68.1897L38.2849 67.488C38.6211 67.295 38.8292 66.8812 38.8292 66.2915V59.7447C38.8285 59.1981 38.6454 58.5983 38.3516 58.051L28.2517 63.882L28.251 63.8816Z" fill="#383838"/>
<path d="M36.5821 68.5745C36.2818 68.5745 35.9565 68.4777 35.6261 68.2862L32.9123 66.7206L31.8177 67.5086L30.5778 68.2263C30.5158 68.2615 30.4418 68.2702 30.3736 68.251C30.3051 68.2318 30.247 68.185 30.2133 68.1219L28.0188 64.0056C27.9521 63.8805 27.9963 63.7246 28.1196 63.6535L38.2199 57.8225C38.2812 57.787 38.3545 57.7776 38.4237 57.7971C38.4923 57.8167 38.5499 57.8635 38.584 57.9262C38.9115 58.5363 39.0925 59.1818 39.0932 59.7439V66.2912C39.0932 66.9599 38.8528 67.4662 38.4165 67.7164L37.2015 68.4182C37.187 68.4265 37.1722 68.4334 37.1562 68.4389C36.9814 68.5295 36.7877 68.5749 36.5828 68.5749L36.5821 68.5745ZM32.8963 66.1435C32.9417 66.1435 32.9874 66.1552 33.028 66.1787L35.8898 67.8296C36.2876 68.0599 36.6528 68.1085 36.919 67.9667C36.9299 67.9605 36.9411 67.9558 36.9531 67.9514L38.1525 67.2591C38.4186 67.1064 38.5652 66.7626 38.5652 66.2908V59.7439C38.5652 59.3392 38.4502 58.8764 38.2402 58.4187L28.6034 63.9824L30.5499 67.633L31.5316 67.0662L32.7422 66.1929C32.7882 66.1599 32.8419 66.1432 32.8963 66.1432V66.1435Z" fill="#383838"/>
<path d="M35.7562 57.2432L25.1319 51.1091C24.1092 50.5187 23.2783 50.9952 23.2783 52.1732L23.279 58.7208C23.279 59.8994 24.1085 61.3341 25.1319 61.9253L28.1283 63.6552L30.4439 67.9978L32.7606 66.3295L35.7562 68.058C36.779 68.6498 37.6091 68.1726 37.6091 66.9939V60.447C37.6091 59.2698 36.779 57.8337 35.7562 57.2432Z" fill="white"/>
<path d="M36.5869 68.577C36.2862 68.577 35.9591 68.4794 35.6247 68.2858L32.7767 66.6425L30.5981 68.2114C30.5365 68.2553 30.4589 68.272 30.3842 68.2538C30.3102 68.2368 30.2471 68.1878 30.2112 68.1215L27.9314 63.8449L25.0004 62.1527C23.8877 61.5108 23.0159 60.0032 23.0159 58.7208L23.0151 52.1732C23.0151 51.5066 23.2541 51.0014 23.6882 50.7508C24.1231 50.4995 24.6827 50.5445 25.264 50.881L35.8887 57.0155C37.0014 57.6578 37.8732 59.1651 37.8732 60.4474V66.9943C37.8732 67.662 37.6339 68.1675 37.1998 68.4181C37.0152 68.5244 36.8081 68.5773 36.5869 68.5773V68.577ZM32.7611 66.0659C32.8064 66.0659 32.8521 66.0775 32.8927 66.1011L35.8884 67.8295C36.2989 68.0667 36.6703 68.1153 36.9361 67.9605C37.2001 67.8085 37.3456 67.465 37.3456 66.9939V60.4471C37.3456 59.3729 36.5575 58.01 35.6247 57.4714L25.0004 51.3373C24.5891 51.1001 24.2167 51.054 23.9519 51.2071C23.6879 51.3597 23.5425 51.7028 23.5425 52.1728L23.5432 58.7204C23.5432 59.8135 24.3153 61.1485 25.264 61.6965L28.2604 63.4264C28.3028 63.4511 28.338 63.4873 28.3612 63.5308L30.5347 67.6072L32.6069 66.1156C32.653 66.0826 32.7067 66.0659 32.7611 66.0659Z" fill="#383838"/>
<path d="M31.9726 62.4382C31.928 62.4382 31.8826 62.4269 31.8413 62.403L26.2054 59.1492C26.0796 59.0763 26.0361 58.9152 26.109 58.789C26.1819 58.6636 26.3429 58.6193 26.4691 58.6926L32.1049 61.9464C32.2308 62.0193 32.2743 62.1803 32.2014 62.3065C32.1528 62.391 32.064 62.4382 31.9729 62.4382H31.9726ZM34.5515 62.2191C34.5069 62.2191 34.4615 62.2079 34.4202 62.184L26.2051 57.4417C26.0792 57.3688 26.0357 57.2078 26.1086 57.0816C26.1815 56.9561 26.3425 56.9119 26.4687 56.9851L34.6839 61.7274C34.8097 61.8003 34.8532 61.9613 34.7803 62.0875C34.7317 62.172 34.6429 62.2191 34.5518 62.2191H34.5515ZM34.5515 60.5124C34.5069 60.5124 34.4615 60.5012 34.4202 60.4769L26.2051 55.7328C26.0792 55.6599 26.0357 55.4989 26.1086 55.3727C26.1815 55.2472 26.3425 55.2034 26.4687 55.2762L34.6839 60.0207C34.8097 60.0935 34.8532 60.2546 34.7803 60.3808C34.7317 60.4653 34.6429 60.5124 34.5518 60.5124H34.5515Z" fill="#383838"/>
<defs>
<linearGradient id="paint0_linear_802_12230" x1="50.1494" y1="0.63623" x2="50.1494" y2="100.636" gradientUnits="userSpaceOnUse">
<stop stop-color="#1ACC40"/>
<stop offset="1" stop-color="#82DA48"/>
</linearGradient>
<linearGradient id="paint1_linear_802_12230" x1="50.1494" y1="100.636" x2="50.1494" y2="0.63623" gradientUnits="userSpaceOnUse">
<stop stop-color="#1ABE3C"/>
<stop offset="1" stop-color="#96F557"/>
</linearGradient>
</defs>
</svg>
