<svg width="101" height="101" viewBox="0 0 101 101" fill="none" xmlns="http://www.w3.org/2000/svg">
<rect x="2.13013" y="2.63623" width="96" height="96" rx="48" fill="url(#paint0_linear_802_14115)"/>
<rect x="2.13013" y="2.63623" width="96" height="96" rx="48" stroke="url(#paint1_linear_802_14115)" stroke-width="4"/>
<path d="M28.7476 85.7957C28.0794 85.7957 27.4107 85.6457 26.8906 85.3447C26.3271 85.0194 26.0168 84.5659 26.0168 84.0667C26.0168 83.5675 26.3266 83.1161 26.8891 82.7917C27.9294 82.1917 29.5595 82.1917 30.6008 82.7927C31.1643 83.118 31.474 83.5714 31.474 84.0701C31.474 84.5689 31.1647 85.0208 30.6027 85.3452C30.0826 85.6447 29.4153 85.7952 28.7486 85.7952L28.7476 85.7957ZM28.7432 83.0542C28.1963 83.0542 27.6494 83.1711 27.2427 83.4063C26.9135 83.5953 26.7245 83.8369 26.7245 84.0672C26.7245 84.2976 26.914 84.5411 27.2446 84.731C28.0599 85.203 29.4353 85.203 30.2482 84.732C30.5769 84.543 30.7654 84.3015 30.7654 84.0711C30.7654 83.8408 30.5764 83.5972 30.2462 83.4073C29.8386 83.1711 29.2907 83.0542 28.7432 83.0542Z" fill="white"/>
<path d="M81.5862 84.0689C81.3909 84.0689 81.2322 83.9101 81.2322 83.7148L81.2292 79.8824C81.2292 79.6871 81.3875 79.5283 81.5828 79.5283C81.7781 79.5283 81.9369 79.6871 81.9369 79.8824L81.9398 83.7148C81.9398 83.9101 81.7815 84.0689 81.5862 84.0689Z" fill="white"/>
<path d="M84.9056 82.1544L78.2674 82.1525C78.0721 82.1525 77.9133 81.9937 77.9133 81.7984C77.9133 81.6031 78.0721 81.4443 78.2674 81.4443L84.9056 81.4463C85.1009 81.4463 85.2597 81.6051 85.2597 81.8004C85.2597 81.9957 85.1009 82.1544 84.9056 82.1544Z" fill="white"/>
<path d="M41.1784 18.3522C40.8862 18.3522 40.5711 18.2592 40.2501 18.0736C39.2088 17.4736 38.3936 16.0627 38.3936 14.8612C38.3936 14.212 38.6298 13.7171 39.0608 13.4683C39.4918 13.2184 40.0407 13.2603 40.6042 13.5856C41.6455 14.1861 42.4607 15.5976 42.4607 16.7986C42.4607 17.4478 42.2236 17.9421 41.7925 18.191C41.607 18.2986 41.3995 18.3512 41.1784 18.3512V18.3522ZM39.6759 14.0176C39.577 14.0176 39.4894 14.0391 39.4153 14.0819C39.2152 14.1973 39.1012 14.4818 39.1012 14.8612C39.1012 15.8011 39.7894 16.991 40.6037 17.4609C40.9334 17.6509 41.2359 17.6928 41.438 17.5788C41.6377 17.4629 41.7521 17.1789 41.7521 16.7995C41.7521 15.8601 41.0639 14.6698 40.2496 14.1993C40.0412 14.079 39.8434 14.0176 39.6754 14.0176H39.6759Z" fill="white"/>
<path d="M84.2876 37.3986C84.2788 37.3986 84.27 37.3986 84.2613 37.3976C84.1161 37.3864 83.9924 37.2885 83.9491 37.1492C83.7499 36.5063 83.426 35.788 83.012 35.073C82.6019 34.36 82.1417 33.7196 81.6805 33.2199C81.5816 33.1127 81.5582 32.9564 81.622 32.8254C81.6863 32.6949 81.8295 32.6218 81.9683 32.6267C82.3701 32.6608 82.7758 32.5634 83.143 32.352C83.5083 32.143 83.7927 31.8401 83.9685 31.4748C84.0314 31.3433 84.1673 31.2659 84.3134 31.2752C84.4585 31.2859 84.5827 31.3843 84.6256 31.5231C84.8272 32.1703 85.1511 32.8882 85.5631 33.6002C85.9761 34.3157 86.4368 34.9556 86.8961 35.451C86.995 35.5576 87.0188 35.7139 86.9555 35.845C86.8922 35.976 86.7578 36.0524 86.6102 36.0446C86.2089 36.0115 85.7983 36.1089 85.433 36.3203C85.0683 36.5297 84.7829 36.8327 84.6066 37.1979C84.5471 37.3211 84.4225 37.3981 84.2876 37.3981V37.3986ZM82.6638 33.2846C82.9998 33.7123 83.3262 34.1988 83.6257 34.7189C83.9272 35.2401 84.1848 35.7651 84.3859 36.2672C84.5827 36.0476 84.8165 35.8581 85.0804 35.7066C85.3439 35.5552 85.6249 35.448 85.9133 35.3881C85.5777 34.9625 85.2509 34.4769 84.9499 33.9558C84.6489 33.4351 84.3918 32.9101 84.1897 32.406C83.9934 32.6257 83.7596 32.8151 83.4956 32.9661C83.2317 33.1181 82.9507 33.2252 82.6638 33.2846Z" fill="white"/>
<path d="M12.0523 49.0269C11.9296 49.0269 11.8107 48.9631 11.7455 48.8501C11.6476 48.6807 11.706 48.4644 11.875 48.3665L15.1956 46.452C15.3646 46.3531 15.5813 46.4135 15.6792 46.5816C15.7771 46.751 15.7187 46.9673 15.5497 47.0652L12.2291 48.9797C12.1731 49.0118 12.1127 49.0269 12.0528 49.0269H12.0523Z" fill="white"/>
<path d="M15.3739 50.9437C15.2511 50.9437 15.1323 50.8799 15.067 50.767L11.7455 45.0181C11.6476 44.8491 11.706 44.6323 11.875 44.5344C12.0455 44.4365 12.2608 44.4955 12.3587 44.664L15.6802 50.4129C15.7781 50.5819 15.7196 50.7986 15.5506 50.8965C15.4946 50.9287 15.4342 50.9437 15.3743 50.9437H15.3739Z" fill="white"/>
<path d="M35.2468 44.8329C35.5457 44.8329 35.7879 44.5908 35.7879 44.2919V35.0956C35.7879 32.3693 38.0062 30.1509 40.733 30.1509H59.4311C62.1579 30.1509 64.3763 32.3693 64.3763 35.0956V39.8156C64.3763 40.1144 64.6185 40.3566 64.9173 40.3566C65.2162 40.3566 65.4583 40.1144 65.4583 39.8156V35.0956C65.4583 31.7725 62.7547 29.0693 59.4316 29.0693H40.733C37.41 29.0693 34.7063 31.7725 34.7063 35.0956V44.2919C34.7058 44.5908 34.948 44.8329 35.2468 44.8329Z" fill="black"/>
<path d="M64.9161 67.5141C64.6173 67.5141 64.3751 67.7563 64.3751 68.0551V73.7428C64.3751 76.4696 62.1567 78.688 59.4299 78.688H40.7323C38.0055 78.688 35.7871 76.4696 35.7871 73.7428V63.717C35.7871 63.4182 35.5449 63.176 35.2461 63.176C34.9473 63.176 34.7051 63.4182 34.7051 63.717V73.7428C34.7051 77.0659 37.4087 79.7696 40.7318 79.7696H59.4299C62.753 79.7696 65.4566 77.0659 65.4566 73.7428V68.0551C65.4571 67.7563 65.2149 67.5141 64.9161 67.5141Z" fill="black"/>
<path d="M64.3821 27.1626C64.6809 27.1626 64.9231 26.9204 64.9231 26.6216V22.0437C64.9231 21.7449 64.6809 21.5027 64.3821 21.5027C64.0833 21.5027 63.8411 21.7449 63.8411 22.0437V26.6216C63.8415 26.9204 64.0833 27.1626 64.3821 27.1626Z" fill="black"/>
<path d="M72.0195 29.0945H67.4416C67.1428 29.0945 66.9006 29.3367 66.9006 29.6355C66.9006 29.9343 67.1428 30.1765 67.4416 30.1765H72.0195C72.3184 30.1765 72.5605 29.9343 72.5605 29.6355C72.5601 29.3367 72.3179 29.0945 72.0195 29.0945Z" fill="black"/>
<path d="M67.8175 26.6129C67.9558 26.6129 68.0942 26.5601 68.1999 26.4543L71.437 23.2172C71.6481 23.0062 71.6481 22.6634 71.437 22.4524C71.2255 22.2409 70.8833 22.2414 70.6723 22.4524L67.4351 25.6895C67.2241 25.9005 67.2241 26.2433 67.4351 26.4543C67.5404 26.5601 67.6787 26.6129 67.8175 26.6129Z" fill="black"/>
<path d="M54.6892 60.3207C54.6892 60.0403 54.4616 59.8123 54.1807 59.8123H50.0815V60.8291H54.1807C54.4616 60.8291 54.6892 60.6016 54.6892 60.3207Z" fill="white"/>
<path d="M59.1004 57.4655C59.1004 57.1846 58.8733 56.957 58.5924 56.957H50.0815V57.9739H58.5924C58.8733 57.9739 59.1004 57.7459 59.1004 57.4655Z" fill="white"/>
<path d="M66.9541 60.8289C68.0234 60.8289 68.8901 59.9621 68.8901 58.8928C68.8901 57.8235 68.0234 56.9568 66.9541 56.9568H64.2334C63.6985 56.9568 63.2146 57.1735 62.8643 57.5238C62.5141 57.8741 62.2974 58.358 62.2974 58.8928C62.2974 59.9621 63.1641 60.8289 64.2334 60.8289H66.9541Z" fill="white"/>
<path d="M71.7982 42.0522H50.0815V43.0908H71.2789V46.5805H50.0815V50.5173H71.2789V64.8897H50.0815V65.9283H71.7982C72.0848 65.9283 72.3175 65.6955 72.3175 65.409V42.5715C72.3175 42.285 72.0848 42.0522 71.7982 42.0522Z" fill="white"/>
<path d="M35.1349 46.5547C31.0287 46.5547 27.6995 49.8839 27.6995 53.9901C27.6995 58.0964 31.0287 61.4256 35.1349 61.4256C39.2412 61.4256 42.5703 58.0964 42.5703 53.9901C42.5703 49.8839 39.2412 46.5547 35.1349 46.5547ZM38.3895 52.4785L34.5981 56.2699C34.4919 56.3761 34.3531 56.429 34.2143 56.429C34.0755 56.429 33.9363 56.3761 33.8305 56.2699L31.8798 54.3187C31.6679 54.1067 31.6679 53.7631 31.8798 53.5511C32.0918 53.3391 32.4355 53.3391 32.6475 53.5511L34.2143 55.118L37.6219 51.7104C37.8338 51.4984 38.1775 51.4984 38.3895 51.7104C38.6019 51.9228 38.6019 52.2665 38.3895 52.4785Z" fill="white"/>
<defs>
<linearGradient id="paint0_linear_802_14115" x1="50.1301" y1="0.63623" x2="50.1301" y2="100.636" gradientUnits="userSpaceOnUse">
<stop stop-color="#1ACC40"/>
<stop offset="1" stop-color="#82DA48"/>
</linearGradient>
<linearGradient id="paint1_linear_802_14115" x1="50.1301" y1="100.636" x2="50.1301" y2="0.63623" gradientUnits="userSpaceOnUse">
<stop stop-color="#1ABE3C"/>
<stop offset="1" stop-color="#96F557"/>
</linearGradient>
</defs>
</svg>
