<svg width="99" height="94" viewBox="0 0 99 94" fill="none" xmlns="http://www.w3.org/2000/svg">
<g filter="url(#filter0_ddd_802_14742)">
<path d="M78.4324 8.78785C80.1977 10.3507 81.6837 12.1545 82.8558 14.1931C83.945 16.088 84.854 18.07 85.3641 20.2199C85.6496 21.4204 85.848 22.6331 86.0626 23.8457C86.0808 23.9449 86.0909 24.03 86.2063 24.0522V28.9474C85.7042 29.3684 85.9026 29.996 85.8054 30.5123C85.5301 31.9577 85.1637 33.3647 84.6637 34.7474C83.6474 37.5614 82.0278 40.011 80.1107 42.2743C79.645 42.825 79.0903 43.3007 78.5761 43.8109C78.4749 43.7805 78.4405 43.823 78.4587 43.9202C76.3087 45.9062 73.8571 47.4164 71.1606 48.536C69.3305 49.2951 67.4092 49.7344 65.4718 50.1009C65.2107 50.1494 65.0305 50.0422 65.0993 49.6899C65.3038 48.6271 65.2896 47.546 65.2107 46.4791C65.1581 45.7787 65.484 45.064 65.067 44.3615C64.9131 44.1004 65.0467 43.8473 65.5346 43.7501C68.4802 43.1529 71.1464 41.9524 73.4948 40.0272C76.5881 37.4926 78.5903 34.2879 79.5458 30.4353C79.9507 28.8056 80.1269 27.1193 80.0054 25.437C79.7908 22.4651 79.0134 19.643 77.406 17.1104C75.1366 13.5352 72.021 11.0148 67.9801 9.64015C66.1662 9.02471 64.3037 8.65221 62.419 8.67448C58.2952 8.72307 54.4953 9.84867 51.2683 12.5513C49.9018 13.6951 48.6891 14.9442 47.7032 16.4626C47.0271 17.5051 46.4258 18.566 45.8691 19.6652C45.7699 19.8636 45.7132 20.1045 45.3042 19.9608C44.0592 19.5235 42.7717 19.23 41.474 18.9567C41.0509 18.8676 40.5913 18.8352 40.1844 18.7846C39.3827 18.6834 39.6844 18.0902 39.7896 17.9161C40.648 16.4747 41.225 14.8855 42.1522 13.4805C43.4883 11.4541 45.0755 9.65837 46.9299 8.08739C49.2175 6.14999 51.7683 4.70251 54.6005 3.73077C56.3942 3.11534 58.2304 2.74081 60.1192 2.57278C60.9958 2.49383 61.8724 2.4169 62.749 2.46346C66.1156 2.63757 69.3811 3.26312 72.4461 4.73895C74.5859 5.76737 76.5598 7.04075 78.315 8.64412C78.2887 8.74534 78.3474 8.77571 78.4304 8.78583L78.4324 8.78785Z" fill="url(#paint0_linear_802_14742)"/>
<path d="M52.7986 30.1094C54.3959 31.6763 55.8555 33.3526 56.9588 35.3143C58.1654 37.4561 59.1068 39.6891 59.5906 42.1205C59.9732 44.0417 60.3498 45.9609 60.2566 47.9205C60.1433 50.3317 59.7121 52.6861 58.9488 54.994C58.1391 57.4395 56.9689 59.6664 55.4081 61.701C53.2905 64.4603 50.7579 66.7439 47.6787 68.3918C45.628 69.4891 43.4658 70.2907 41.2005 70.8211C38.9128 71.3556 36.5726 71.4467 34.2667 71.2402C30.6915 70.9224 27.3269 69.8474 24.2133 67.9687C19.9174 65.3754 16.7167 61.8144 14.5992 57.3039C13.5404 55.0486 12.8561 52.6679 12.6071 50.1515C12.4451 48.5238 12.4674 46.9043 12.5201 45.2887C12.5626 44.0174 12.8075 42.7278 13.1314 41.4909C14.336 36.8893 16.7309 32.9942 20.2231 29.7571C22.9642 27.2165 26.1102 25.4248 29.7137 24.4409C31.2928 24.0097 32.884 23.698 34.5319 23.5988C38.0444 23.3882 41.4556 23.7911 44.7493 25.0462C47.5006 26.0949 50.023 27.5323 52.1892 29.5547C52.341 29.6964 52.5131 29.8219 52.6751 29.9535C52.6528 30.0547 52.7135 30.0892 52.7965 30.1094H52.7986ZM18.97 43.2501C18.9335 43.2582 18.8951 43.2663 18.8586 43.2724C18.8971 43.2926 18.9355 43.3129 18.974 43.3311C18.972 43.5234 18.9983 43.7198 18.9639 43.906C18.5104 46.2321 18.5124 48.5663 18.9841 50.8783C19.7089 54.4393 21.4074 57.5185 23.9886 60.0571C25.3146 61.3609 26.8795 62.3832 28.5476 63.2416C31.7341 64.8814 35.0967 65.4402 38.6274 64.928C41.4373 64.521 44.063 63.5716 46.3851 61.9075C47.4095 61.1726 48.4116 60.3993 49.2214 59.4053C49.9947 58.4558 50.7721 57.5347 51.3733 56.4394C51.7944 55.6742 52.335 54.9656 52.6852 54.1478C53.7035 51.769 54.0294 49.283 53.9748 46.7079C53.9424 45.2118 53.7318 43.7583 53.3006 42.3391C52.6528 40.2074 51.6628 38.2619 50.27 36.4925C48.8205 34.6523 47.1301 33.1177 45.0935 32.0002C42.8018 30.741 40.3623 29.9738 37.7083 29.7632C36.0077 29.6296 34.37 29.7531 32.7342 30.079C30.7725 30.4698 28.9789 31.2289 27.2419 32.2978C26.013 33.053 24.8469 33.8364 23.8347 34.8304C22.78 35.8649 21.9803 37.0958 21.1827 38.355C20.3446 39.679 19.887 41.1103 19.302 42.5132C19.1987 42.7622 19.219 43.0659 18.972 43.2501H18.97Z" fill="url(#paint1_linear_802_14742)"/>
<path d="M62.0867 12.0977C63.4511 12.0977 64.1395 12.8448 64.188 14.2437C64.2731 16.7175 64.5221 19.1833 64.6435 21.6552C64.6982 22.7808 64.7974 23.9165 64.8824 25.0461C64.927 25.6373 65.2124 26.0766 65.5444 26.4774C66.9028 28.1152 68.324 29.7004 69.6703 31.3462C70.2169 32.0143 70.9538 32.6095 70.8161 33.6663C70.6703 34.7797 69.7047 35.4255 68.5852 35.4822C67.4838 35.5389 67.0385 34.719 66.4068 34.2149C64.7711 32.9132 63.1475 31.5912 61.5603 30.2308C60.8072 29.585 59.8415 29.0809 59.4832 28.0525C59.2909 27.4977 59.0965 26.9694 59.2464 26.3074C59.4245 25.5118 59.3759 24.6534 59.3982 23.8294C59.4508 21.9528 59.6796 20.0903 59.7423 18.2156C59.7889 16.8248 59.8517 15.4199 60.0318 14.0412C60.2059 12.7111 60.7505 11.9196 62.0867 12.0937V12.0977Z" fill="url(#paint2_linear_802_14742)"/>
<path d="M78.4322 8.78777C78.3472 8.77765 78.2905 8.74526 78.3168 8.64606C78.3553 8.69262 78.3937 8.74121 78.4322 8.78777Z" fill="#FBFAFA"/>
<path d="M52.7986 30.1093C52.7176 30.089 52.6549 30.0526 52.6771 29.9534C52.7176 30.006 52.7581 30.0586 52.7986 30.1093Z" fill="#FBFAFA"/>
<path d="M78.4589 43.9162C78.4407 43.8191 78.4731 43.7765 78.5763 43.8069C78.5379 43.8433 78.4994 43.8798 78.4589 43.9162Z" fill="#FBFAFA"/>
<path d="M18.9703 43.2502C18.9703 43.2785 18.9703 43.3048 18.9723 43.3332C18.9339 43.3129 18.8954 43.2927 18.8569 43.2745C18.8934 43.2664 18.9318 43.2583 18.9683 43.2522L18.9703 43.2502Z" fill="#FBFAFA"/>
<path d="M36.0985 62.3447C34.3574 62.3974 34.1813 62.3913 34.2299 60.4316C34.236 60.1927 34.2542 59.9498 34.2319 59.7129C34.1894 59.2756 34.0963 58.97 33.5173 58.8647C32.2722 58.6359 31.013 58.4031 29.849 57.8646C28.5412 57.2593 28.4136 57.0062 28.7902 55.664C28.9785 54.996 29.2072 54.34 29.3631 53.6618C29.4927 53.097 30.0737 52.9391 30.6669 53.2893C32.171 54.1781 33.7946 54.5992 35.5377 54.5809C36.2442 54.5728 36.9001 54.3927 37.5439 54.085C39.1797 53.3035 39.0036 51.2426 37.7342 50.4106C36.3515 49.5016 34.7745 49.0137 33.2602 48.3983C31.2438 47.5784 29.7558 46.2564 29.0513 44.1894C28.0958 41.3856 29.4562 37.8144 32.3694 36.6909C32.833 36.5127 33.2824 36.2657 33.7622 36.0896C34.2663 35.9054 34.5376 35.5187 34.5275 34.9518C34.5174 34.3526 34.574 33.7493 34.5194 33.1541C34.4789 32.7189 34.6955 32.4699 35.0255 32.4516C35.9223 32.4031 36.8273 32.2897 37.7221 32.5387C38.1168 32.648 38.2646 32.8748 38.2606 33.2554C38.2565 33.7594 38.2383 34.2635 38.2646 34.7656C38.2889 35.2393 38.461 35.5875 39.0015 35.7313C40.0725 36.0167 41.192 36.0957 42.2245 36.5674C43.0484 36.9419 43.2164 37.1221 43.0039 37.9764C42.8136 38.7436 42.6111 39.5069 42.3176 40.2458C42.0402 40.9442 41.7771 41.092 41.0989 40.7823C39.5744 40.0838 37.9792 39.8166 36.311 39.8854C34.7117 39.9522 33.6772 41.177 34.236 42.4383C34.5538 43.1529 35.2239 43.578 35.898 43.8999C37.1087 44.4809 38.3719 44.9506 39.5866 45.5235C41.4005 46.3799 42.9188 47.5925 43.6314 49.538C44.7105 52.4877 43.7792 55.8321 40.8337 57.5468C40.1919 57.9213 39.5319 58.2452 38.8173 58.4497C38.3476 58.5833 38.1087 58.8525 38.129 59.3647C38.1533 59.9862 38.1432 60.6118 38.129 61.2353C38.1128 62.1119 37.882 62.3366 37.0257 62.3467C36.7139 62.3508 36.4021 62.3467 36.0904 62.3467L36.0985 62.3447Z" fill="url(#paint3_linear_802_14742)"/>
</g>
<defs>
<filter id="filter0_ddd_802_14742" x="0.481201" y="0.449341" width="97.7251" height="92.8929" filterUnits="userSpaceOnUse" color-interpolation-filters="sRGB">
<feFlood flood-opacity="0" result="BackgroundImageFix"/>
<feColorMatrix in="SourceAlpha" type="matrix" values="0 0 0 0 0 0 0 0 0 0 0 0 0 0 0 0 0 0 127 0" result="hardAlpha"/>
<feOffset/>
<feGaussianBlur stdDeviation="0.5"/>
<feComposite in2="hardAlpha" operator="out"/>
<feColorMatrix type="matrix" values="0 0 0 0 0 0 0 0 0 0 0 0 0 0 0 0 0 0 0.1 0"/>
<feBlend mode="normal" in2="BackgroundImageFix" result="effect1_dropShadow_802_14742"/>
<feColorMatrix in="SourceAlpha" type="matrix" values="0 0 0 0 0 0 0 0 0 0 0 0 0 0 0 0 0 0 127 0" result="hardAlpha"/>
<feMorphology radius="3" operator="erode" in="SourceAlpha" result="effect2_dropShadow_802_14742"/>
<feOffset dy="10"/>
<feGaussianBlur stdDeviation="7.5"/>
<feComposite in2="hardAlpha" operator="out"/>
<feColorMatrix type="matrix" values="0 0 0 0 0 0 0 0 0 0 0 0 0 0 0 0 0 0 0.1 0"/>
<feBlend mode="normal" in2="effect1_dropShadow_802_14742" result="effect2_dropShadow_802_14742"/>
<feColorMatrix in="SourceAlpha" type="matrix" values="0 0 0 0 0 0 0 0 0 0 0 0 0 0 0 0 0 0 127 0" result="hardAlpha"/>
<feMorphology radius="2" operator="erode" in="SourceAlpha" result="effect3_dropShadow_802_14742"/>
<feOffset dy="4"/>
<feGaussianBlur stdDeviation="3"/>
<feComposite in2="hardAlpha" operator="out"/>
<feColorMatrix type="matrix" values="0 0 0 0 0 0 0 0 0 0 0 0 0 0 0 0 0 0 0.05 0"/>
<feBlend mode="normal" in2="effect2_dropShadow_802_14742" result="effect3_dropShadow_802_14742"/>
<feBlend mode="normal" in="SourceGraphic" in2="effect3_dropShadow_802_14742" result="shape"/>
</filter>
<linearGradient id="paint0_linear_802_14742" x1="62.9261" y1="2.44934" x2="62.9261" y2="50.1119" gradientUnits="userSpaceOnUse">
<stop stop-color="#32D042"/>
<stop offset="1" stop-color="#7EDA48"/>
</linearGradient>
<linearGradient id="paint1_linear_802_14742" x1="36.3761" y1="23.5457" x2="36.3761" y2="71.3422" gradientUnits="userSpaceOnUse">
<stop stop-color="#32D042"/>
<stop offset="1" stop-color="#7EDA48"/>
</linearGradient>
<linearGradient id="paint2_linear_802_14742" x1="65.013" y1="12.0698" x2="65.013" y2="35.485" gradientUnits="userSpaceOnUse">
<stop stop-color="#32D042"/>
<stop offset="1" stop-color="#7EDA48"/>
</linearGradient>
<linearGradient id="paint3_linear_802_14742" x1="36.3356" y1="32.3834" x2="36.3356" y2="62.3582" gradientUnits="userSpaceOnUse">
<stop stop-color="#32D042"/>
<stop offset="1" stop-color="#7EDA48"/>
</linearGradient>
</defs>
</svg>
