<svg width="90" height="90" viewBox="0 0 90 90" fill="none" xmlns="http://www.w3.org/2000/svg">
<g filter="url(#filter0_ddd_802_14768)">
<path d="M70.7079 15.1232C71.1173 16.3939 71.5183 17.6832 71.5691 19.0165C71.6131 20.1958 71.7772 21.3616 71.6418 22.5697C71.4777 24.0518 71.2578 25.5036 70.8449 26.9333C70.2781 28.9028 69.3712 30.7115 68.1986 32.3731C66.7266 34.4593 64.8958 36.1835 62.7199 37.5404C60.5576 38.8907 58.2514 39.7959 55.7201 40.2273C54.1077 40.5014 52.4969 40.5488 50.9115 40.4101C48.118 40.1681 45.4903 39.3001 43.0657 37.8196C41.5886 36.9178 40.257 35.84 39.054 34.6302C37.8408 33.4086 36.8476 31.989 36.0152 30.4611C34.9475 28.5035 34.2267 26.4173 33.9052 24.2363C33.6176 22.2837 33.6278 20.3024 33.9526 18.321C34.1844 16.915 34.6176 15.5834 35.0355 14.2366C35.0676 14.1909 35.0981 14.1452 35.1302 14.0995C35.8358 12.3703 36.763 10.7781 37.9542 9.33147C39.6597 7.26047 41.641 5.51433 44.0301 4.30286C45.6172 3.49916 47.2754 2.82743 49.074 2.57194C49.6171 2.49411 50.1941 2.47042 50.7068 2.21155H52.2262C52.2685 2.29784 52.3108 2.29784 52.3531 2.21155H53.2397C53.4935 2.40444 53.7456 2.40444 53.9994 2.21155H54.6322C55.5814 2.50934 56.556 2.66331 57.5458 2.73945C57.5881 2.77329 57.6321 2.80882 57.6744 2.84266C59.4544 3.37395 61.1362 4.15904 62.7572 5.04057C63.3646 5.37051 63.901 5.89164 64.5033 6.27911C64.5371 6.31464 64.5693 6.35186 64.6031 6.3874C65.395 7.24693 66.2985 7.99479 67.0701 8.87801C68.4203 10.4228 69.4812 12.1351 70.2256 14.0454C70.2984 14.2332 70.3847 14.4176 70.4642 14.6037C70.4591 14.756 70.515 14.8575 70.6791 14.8711C70.6876 14.9201 70.696 14.9692 70.7045 15.0183C70.7079 15.0504 70.7096 15.0826 70.7079 15.1164V15.1232ZM58.6828 17.0301C58.8487 17.0267 58.9333 16.9421 58.9349 16.7763C59.0331 16.5326 59.2835 16.3194 59.0889 16.0149C59.1211 15.9844 59.1549 15.9539 59.1871 15.9218C59.429 15.7898 59.2733 15.5614 59.3173 15.382C59.5102 15.1621 59.3241 15.1536 59.1735 15.1249C59.0432 14.9218 59.0365 14.6782 58.8757 14.4667C58.2142 13.5936 56.6051 13.5818 55.6965 14.734C53.9317 16.9725 52.0857 19.1484 50.2668 21.343C49.0114 22.8573 47.7373 24.3547 46.4869 25.8724C45.7898 26.7201 45.9472 27.7489 46.8304 28.5306C47.6849 29.2886 48.8151 28.8723 49.3769 28.2785C50.0892 27.5255 50.7254 26.7015 51.3853 25.8995C52.5324 24.5087 53.6627 23.106 54.8166 21.7203C55.9029 20.4157 57.0416 19.1552 58.0517 17.7881C58.2158 17.7864 58.3004 17.7018 58.3038 17.5377L58.6828 17.0284V17.0301ZM59.3156 27.0399C59.319 25.9638 58.4663 25.1246 57.3411 25.1415C56.4003 25.1567 55.507 26.0873 55.5256 27.0551C55.5442 28.028 56.4697 28.9417 57.4544 28.9299C58.3394 28.918 59.3596 28.1431 59.3156 27.0399ZM49.8202 15.6646C49.8269 14.58 49.0012 13.7679 47.8642 13.7442C46.9996 13.7256 46.0166 14.7408 46.0216 15.646C46.0267 16.6071 46.9573 17.5258 47.942 17.5326C48.8456 17.5393 49.8489 16.7593 49.8202 15.6646Z" fill="url(#paint0_linear_802_14768)"/>
<path d="M43.8712 55.7955C48.2839 55.4521 52.7034 55.7245 57.1195 55.6534C58.023 55.6382 58.8386 55.4487 59.6473 55.0392C60.2446 54.7363 60.6947 54.3015 61.0602 53.7973C61.9941 52.5046 63.0483 51.3117 64.0448 50.0698C64.0838 50.0529 64.1108 50.0224 64.1244 49.9818C65.0905 48.7737 66.0566 47.5673 67.0194 46.3576C68.0853 45.0175 69.1411 43.6673 70.2139 42.3323C71.004 41.3476 71.9109 40.483 73.2628 40.4677C75.2103 40.4457 76.6519 41.3019 77.2492 43.1343C77.2864 43.2494 77.2018 43.4541 77.4201 43.4913V43.8703C77.2323 44.0818 77.2323 44.2916 77.4201 44.5031V45.2628C77.0241 45.5369 77.0022 46.031 76.7467 46.3982C74.3813 49.7872 72.0412 53.1932 69.6961 56.5958C68.3341 58.5738 67.0498 60.6109 65.5981 62.5195C63.9484 64.6904 61.7522 66.137 59.0721 66.78C58.3479 66.9542 57.6169 67.0439 56.864 67.0439C46.1283 67.0338 35.3909 67.0355 24.6552 67.049C24.2051 67.049 24.1086 66.9322 24.1086 66.4957C24.1239 59.2184 24.1222 51.9412 24.112 44.6639C24.112 44.2358 24.2271 44.0717 24.6721 43.9803C25.7854 43.7502 26.6331 43.0193 27.5045 42.3391C29.144 41.0582 31.0171 40.2545 33.0627 39.9669C35.7631 39.5862 38.4331 39.7232 40.9897 40.8298C42.4296 41.4525 43.6766 42.3661 44.839 43.3898C45.4396 43.9194 46.0488 44.2663 46.8795 44.2595C50.0639 44.2375 53.2499 44.2341 56.4342 44.2578C58.2108 44.2713 59.6 45.2645 60.1313 46.9075C60.9417 49.4099 58.9181 51.8802 56.5442 51.8566C52.7897 51.8193 49.0351 51.8176 45.2806 51.8599C43.4972 51.8802 41.8932 52.3828 40.6598 53.8243C39.6395 55.0172 39.8459 56.0375 40.6868 56.8057C41.3873 57.4452 42.8492 57.3589 43.6123 56.1492C43.8576 56.1492 43.8745 55.9816 43.8712 55.7972V55.7955Z" fill="url(#paint1_linear_802_14768)"/>
<path d="M20.3253 55.6433C20.3253 59.2506 20.3152 62.8596 20.3372 66.467C20.3406 66.9407 20.2272 67.0592 19.7534 67.0507C17.9819 67.0186 16.207 66.9881 14.4372 67.0592C13.5675 67.093 12.576 66.0643 12.5811 65.2047C12.6166 58.8327 12.598 52.4606 12.6031 46.0886C12.6031 45.0327 13.3695 44.2629 14.4372 44.2544C16.2307 44.2409 18.0242 44.2629 19.8177 44.2409C20.2289 44.2358 20.3389 44.3424 20.3372 44.757C20.3203 48.3863 20.327 52.0156 20.327 55.6449L20.3253 55.6433Z" fill="url(#paint2_linear_802_14768)"/>
</g>
<defs>
<filter id="filter0_ddd_802_14768" x="0.581055" y="0.211548" width="88.8391" height="88.8484" filterUnits="userSpaceOnUse" color-interpolation-filters="sRGB">
<feFlood flood-opacity="0" result="BackgroundImageFix"/>
<feColorMatrix in="SourceAlpha" type="matrix" values="0 0 0 0 0 0 0 0 0 0 0 0 0 0 0 0 0 0 127 0" result="hardAlpha"/>
<feOffset/>
<feGaussianBlur stdDeviation="0.5"/>
<feComposite in2="hardAlpha" operator="out"/>
<feColorMatrix type="matrix" values="0 0 0 0 0 0 0 0 0 0 0 0 0 0 0 0 0 0 0.1 0"/>
<feBlend mode="normal" in2="BackgroundImageFix" result="effect1_dropShadow_802_14768"/>
<feColorMatrix in="SourceAlpha" type="matrix" values="0 0 0 0 0 0 0 0 0 0 0 0 0 0 0 0 0 0 127 0" result="hardAlpha"/>
<feMorphology radius="3" operator="erode" in="SourceAlpha" result="effect2_dropShadow_802_14768"/>
<feOffset dy="10"/>
<feGaussianBlur stdDeviation="7.5"/>
<feComposite in2="hardAlpha" operator="out"/>
<feColorMatrix type="matrix" values="0 0 0 0 0 0 0 0 0 0 0 0 0 0 0 0 0 0 0.1 0"/>
<feBlend mode="normal" in2="effect1_dropShadow_802_14768" result="effect2_dropShadow_802_14768"/>
<feColorMatrix in="SourceAlpha" type="matrix" values="0 0 0 0 0 0 0 0 0 0 0 0 0 0 0 0 0 0 127 0" result="hardAlpha"/>
<feMorphology radius="2" operator="erode" in="SourceAlpha" result="effect3_dropShadow_802_14768"/>
<feOffset dy="4"/>
<feGaussianBlur stdDeviation="3"/>
<feComposite in2="hardAlpha" operator="out"/>
<feColorMatrix type="matrix" values="0 0 0 0 0 0 0 0 0 0 0 0 0 0 0 0 0 0 0.05 0"/>
<feBlend mode="normal" in2="effect2_dropShadow_802_14768" result="effect3_dropShadow_802_14768"/>
<feBlend mode="normal" in="SourceGraphic" in2="effect3_dropShadow_802_14768" result="shape"/>
</filter>
<linearGradient id="paint0_linear_802_14768" x1="52.6965" y1="2.21155" x2="52.6965" y2="40.4857" gradientUnits="userSpaceOnUse">
<stop stop-color="#32D042"/>
<stop offset="1" stop-color="#7FDA48"/>
</linearGradient>
<linearGradient id="paint1_linear_802_14768" x1="50.7644" y1="39.7753" x2="50.7644" y2="67.049" gradientUnits="userSpaceOnUse">
<stop stop-color="#32D042"/>
<stop offset="1" stop-color="#7FDA48"/>
</linearGradient>
<linearGradient id="paint2_linear_802_14768" x1="16.4592" y1="44.2407" x2="16.4592" y2="67.06" gradientUnits="userSpaceOnUse">
<stop stop-color="#32D042"/>
<stop offset="1" stop-color="#7FDA48"/>
</linearGradient>
</defs>
</svg>
