<svg width="88" height="87" viewBox="0 0 88 87" fill="none" xmlns="http://www.w3.org/2000/svg">
<g filter="url(#filter0_ddd_802_14710)">
<path d="M75.349 58.8997C75.0046 59.3954 74.9985 60.0177 74.7313 60.5443C73.6519 62.6645 71.9625 63.9277 69.6029 64.3477C69.1056 64.4358 68.6362 64.4049 68.1559 64.4049C60.0842 64.4126 52.0125 64.3925 43.9392 64.4219C41.9827 64.4296 40.2624 63.8829 38.8803 62.5209C37.2635 60.9257 36.74 58.9028 36.8944 56.676C36.9068 56.4953 36.9639 56.381 37.1492 56.3177C38.346 55.91 39.549 55.5178 40.7288 55.0638C41.0932 54.9233 41.0917 55.0375 41.0886 55.3155C41.0824 56.0552 41.1272 56.7964 41.0778 57.533C40.9681 59.1607 42.3224 60.2771 43.8311 60.271C52.0465 60.237 60.2633 60.2478 68.4787 60.2617C69.8608 60.2632 71.1518 59.1977 71.1857 57.7647C71.1904 57.5809 71.2043 57.3956 71.2043 57.2118C71.2043 41.4977 71.2043 25.7835 71.2074 10.0694C71.2074 9.19843 71.1394 8.33829 70.3735 7.78236C69.782 7.35307 69.1226 7.0087 68.3505 7.0087C60.1136 7.0087 51.8781 6.98245 43.6412 7.03032C41.8638 7.04113 41.2692 7.8534 40.8554 9.38219C40.7735 9.68332 40.965 9.99989 40.965 10.3304C40.9527 17.8693 40.9419 25.4083 40.9774 32.9457C40.9805 33.5989 40.7056 33.8877 40.213 34.0684C39.1011 34.4745 37.9723 34.8389 36.7879 35.242C36.7879 34.981 36.7879 34.7648 36.7879 34.5471C36.7832 26.1464 36.7523 17.7442 36.7879 9.34359C36.8002 6.36012 38.7846 3.82603 41.7912 3.06472C42.5046 2.88404 43.2397 2.8686 43.9593 2.86706C51.9075 2.84698 59.8572 2.84235 67.8054 2.86706C69.0238 2.87015 70.236 2.99677 71.3865 3.5388C72.9245 4.26305 74.0024 5.40115 74.7174 6.90524C74.9768 7.45035 75.1405 8.04025 75.349 8.61007V58.8981V58.8997Z" fill="url(#paint0_linear_802_14710)"/>
<path d="M12.2468 44.8316C12.2468 42.367 12.2051 39.9024 12.2638 37.4409C12.2931 36.2086 12.8398 35.1153 13.5548 34.11C14.3948 32.9302 15.5916 32.1874 16.7621 31.3999C20.5841 28.8287 24.3567 26.1819 28.225 23.6818C29.8758 22.6147 32.2508 23.2386 32.7218 25.575C32.8083 26.0012 32.8345 26.4151 32.8345 26.8382C32.8376 31.335 32.8438 35.8318 32.8268 40.3287C32.8253 40.866 32.884 40.9865 33.4414 40.7456C34.4019 40.3302 35.4227 40.0569 36.3956 39.6677C38.908 38.6624 41.4607 37.7637 44.0117 36.868C46.6925 35.926 49.5586 36.4032 51.3762 39.0778C52.7027 41.0313 52.573 43.1253 51.5322 45.1729C50.8527 46.5087 49.6961 47.2391 48.2877 47.7255C45.6394 48.6382 43.0327 49.6682 40.4044 50.638C38.3413 51.3993 36.2828 52.1791 34.1981 52.8771C33.5233 53.1041 33.2438 53.5072 33.0646 54.131C32.7882 55.0885 32.3929 55.9872 31.7953 56.8118C30.4796 58.6309 28.6342 59.5451 26.5217 59.9822C26.0708 60.0763 25.5566 60.0964 25.0377 59.8632C24.6841 59.7057 24.1837 59.8679 23.7282 59.7706C21.7021 59.3336 19.6267 59.1606 17.6146 58.651C14.9384 57.9716 12.829 55.5456 12.3626 52.9976C12.1402 51.7776 12.2761 50.553 12.2514 49.33C12.2221 47.8321 12.2437 46.3326 12.2452 44.8332L12.2468 44.8316Z" fill="url(#paint1_linear_802_14710)"/>
<path d="M45.6376 18.9799C45.6376 17.0913 45.687 15.2011 45.619 13.3156C45.5789 12.1991 46.4421 11.3992 47.4721 11.41C50.3459 11.4394 53.2198 11.41 56.092 11.4239C57.2548 11.4301 57.9884 12.2053 57.9914 13.399C57.9976 17.011 57.9822 20.6245 58.0023 24.2365C58.0069 25.095 57.8803 25.8471 57.0757 26.3335C56.7947 26.5034 56.5105 26.5976 56.1785 26.5976C53.2846 26.593 50.3907 26.5976 47.4968 26.593C46.3448 26.5914 45.6515 25.915 45.6422 24.7661C45.6283 22.8374 45.6391 20.9071 45.6376 18.9783V18.9799Z" fill="url(#paint2_linear_802_14710)"/>
<path d="M45.0908 53.2414C46.2969 52.8276 47.5029 52.4183 48.7059 51.9998C50.3227 51.4362 51.904 50.8 53.1625 49.58C53.3448 49.404 53.5363 49.3654 53.7694 49.3669C58.2415 49.3824 62.7152 49.3932 67.1873 49.4117C67.8915 49.4148 68.7624 50.0402 68.9215 50.6193C69.1809 51.5659 68.764 52.6407 67.9424 53.0993C67.7015 53.2337 67.4684 53.3603 67.158 53.3588C59.8105 53.3464 52.463 53.3495 45.1155 53.3495C45.1078 53.314 45.0985 53.2769 45.0908 53.2414Z" fill="url(#paint3_linear_802_14710)"/>
<path d="M49.8486 32.8935C55.55 32.8935 61.1911 32.8827 66.8337 32.9027C68.1108 32.9074 68.886 33.7011 68.9663 34.6616C69.0667 35.8522 68.4876 36.7556 67.3 37.0459C67.0128 37.117 66.6916 37.049 66.3859 37.049C62.7739 37.049 59.1619 37.0336 55.5515 37.066C54.9987 37.0706 54.73 36.8498 54.4227 36.4483C53.7648 35.5866 52.9834 34.8593 52.0893 34.2045C51.3913 33.6934 50.5682 33.4479 49.8486 32.895V32.8935Z" fill="url(#paint4_linear_802_14710)"/>
<path d="M61.6218 45.2577C59.8583 45.2577 58.0948 45.2515 56.3313 45.2623C55.9807 45.2638 55.8433 45.2746 55.9869 44.8145C56.3127 43.7767 56.444 42.6927 56.3606 41.5994C56.3313 41.2195 56.4455 41.1222 56.8285 41.1237C60.1502 41.1407 63.4718 41.1345 66.795 41.1315C67.6814 41.1315 68.3856 41.4805 68.7624 42.2835C69.1144 43.0355 69.0928 43.8292 68.5539 44.5056C68.1169 45.0538 67.4868 45.2577 66.7888 45.2561C65.067 45.253 63.3436 45.2561 61.6218 45.2561V45.2577Z" fill="url(#paint5_linear_802_14710)"/>
</g>
<defs>
<filter id="filter0_ddd_802_14710" x="0.232422" y="0.85022" width="87.1167" height="85.5717" filterUnits="userSpaceOnUse" color-interpolation-filters="sRGB">
<feFlood flood-opacity="0" result="BackgroundImageFix"/>
<feColorMatrix in="SourceAlpha" type="matrix" values="0 0 0 0 0 0 0 0 0 0 0 0 0 0 0 0 0 0 127 0" result="hardAlpha"/>
<feOffset/>
<feGaussianBlur stdDeviation="0.5"/>
<feComposite in2="hardAlpha" operator="out"/>
<feColorMatrix type="matrix" values="0 0 0 0 0 0 0 0 0 0 0 0 0 0 0 0 0 0 0.1 0"/>
<feBlend mode="normal" in2="BackgroundImageFix" result="effect1_dropShadow_802_14710"/>
<feColorMatrix in="SourceAlpha" type="matrix" values="0 0 0 0 0 0 0 0 0 0 0 0 0 0 0 0 0 0 127 0" result="hardAlpha"/>
<feMorphology radius="3" operator="erode" in="SourceAlpha" result="effect2_dropShadow_802_14710"/>
<feOffset dy="10"/>
<feGaussianBlur stdDeviation="7.5"/>
<feComposite in2="hardAlpha" operator="out"/>
<feColorMatrix type="matrix" values="0 0 0 0 0 0 0 0 0 0 0 0 0 0 0 0 0 0 0.1 0"/>
<feBlend mode="normal" in2="effect1_dropShadow_802_14710" result="effect2_dropShadow_802_14710"/>
<feColorMatrix in="SourceAlpha" type="matrix" values="0 0 0 0 0 0 0 0 0 0 0 0 0 0 0 0 0 0 127 0" result="hardAlpha"/>
<feMorphology radius="2" operator="erode" in="SourceAlpha" result="effect3_dropShadow_802_14710"/>
<feOffset dy="4"/>
<feGaussianBlur stdDeviation="3"/>
<feComposite in2="hardAlpha" operator="out"/>
<feColorMatrix type="matrix" values="0 0 0 0 0 0 0 0 0 0 0 0 0 0 0 0 0 0 0.05 0"/>
<feBlend mode="normal" in2="effect2_dropShadow_802_14710" result="effect3_dropShadow_802_14710"/>
<feBlend mode="normal" in="SourceGraphic" in2="effect3_dropShadow_802_14710" result="shape"/>
</filter>
<linearGradient id="paint0_linear_802_14710" x1="56.06" y1="2.85022" x2="56.06" y2="64.422" gradientUnits="userSpaceOnUse">
<stop stop-color="#2DD23D"/>
<stop offset="1" stop-color="#7FDA48"/>
</linearGradient>
<linearGradient id="paint1_linear_802_14710" x1="32.2872" y1="23.1774" x2="32.2872" y2="60.0483" gradientUnits="userSpaceOnUse">
<stop stop-color="#2DD23D"/>
<stop offset="1" stop-color="#7FDA48"/>
</linearGradient>
<linearGradient id="paint2_linear_802_14710" x1="51.81" y1="11.4099" x2="51.81" y2="26.5976" gradientUnits="userSpaceOnUse">
<stop stop-color="#2DD23D"/>
<stop offset="1" stop-color="#7FDA48"/>
</linearGradient>
<linearGradient id="paint3_linear_802_14710" x1="57.0445" y1="49.3669" x2="57.0445" y2="53.3588" gradientUnits="userSpaceOnUse">
<stop stop-color="#2DD23D"/>
<stop offset="1" stop-color="#7FDA48"/>
</linearGradient>
<linearGradient id="paint4_linear_802_14710" x1="59.413" y1="32.8906" x2="59.413" y2="37.0783" gradientUnits="userSpaceOnUse">
<stop stop-color="#2DD23D"/>
<stop offset="1" stop-color="#7FDA48"/>
</linearGradient>
<linearGradient id="paint5_linear_802_14710" x1="62.4643" y1="41.1237" x2="62.4643" y2="45.2626" gradientUnits="userSpaceOnUse">
<stop stop-color="#2DD23D"/>
<stop offset="1" stop-color="#7FDA48"/>
</linearGradient>
</defs>
</svg>
