<svg width="105" height="94" viewBox="0 0 105 94" fill="none" xmlns="http://www.w3.org/2000/svg">
<g filter="url(#filter0_ddd_802_14756)">
<path d="M92.8753 44.7257C92.2691 45.5773 91.6154 46.2986 90.4007 46.1534C89.8872 46.0907 89.484 45.9605 89.1183 45.5898C85.7921 42.2461 82.4459 38.9199 79.1247 35.5712C78.6964 35.1379 78.4033 35.1379 77.8799 35.4635C76.337 36.4177 74.6739 36.9087 72.8355 37.2067C70.7766 37.5398 68.9082 37.099 67.0171 36.6782C66.0629 36.4653 65.1862 35.7715 64.3497 35.188C61.4543 33.1742 59.676 30.4216 59.0899 26.9301C58.6666 24.4029 58.9171 21.9659 59.9966 19.6065C60.738 17.9859 61.7699 16.6334 63.0748 15.4262C64.5801 14.0361 66.3935 13.0818 68.5776 12.6285C69.2037 12.4982 69.8098 12.368 70.4535 12.3304C72.0866 12.2352 73.6896 12.4181 75.245 12.8764C75.5856 12.9766 75.8336 12.661 76.1066 12.8764C77.7246 14.1438 79.6632 14.9954 80.9856 16.6485C82.8566 18.9878 83.9737 21.6402 83.9411 24.6433C83.9136 27.0703 83.4052 29.4322 81.96 31.4836C81.6469 31.9269 81.8222 32.2049 82.1528 32.533C85.2962 35.6563 88.427 38.7922 91.5578 41.9255C92.0387 42.4064 92.5622 42.8547 92.8778 43.4784V44.7307L92.8753 44.7257ZM71.25 33.6175C75.4654 33.9406 80.8905 30.1486 80.2167 23.6715C79.8285 19.9496 76.605 15.7643 70.9094 15.9522C66.5638 16.0949 62.2984 19.877 62.5113 25.262C62.6766 29.4523 66.5989 33.858 71.2525 33.62L71.25 33.6175Z" fill="url(#paint0_linear_802_14756)"/>
<path d="M60.8781 59.8864C51.4932 59.8864 42.1082 59.8939 32.7232 59.8689C32.052 59.8689 31.9292 60.0517 31.9292 60.6854C31.9242 63.2101 32.0595 65.7373 31.8641 68.2595C31.7489 69.7523 30.6569 70.8443 29.1816 71.0071C27.1879 71.23 25.7703 70.163 25.6876 68.1718C25.5824 65.6471 25.6225 63.1174 25.6501 60.5877C25.6576 59.9941 25.4998 59.8613 24.9212 59.8689C21.8705 59.8989 18.8199 59.8914 15.7717 59.8764C14.3641 59.8689 13.4173 59.125 12.9464 57.8426C12.5582 56.7906 12.6659 55.7687 13.3872 54.832C14.0936 53.9153 15.0103 53.5897 16.1349 53.5997C19.0553 53.6247 21.9732 53.5922 24.8937 53.6197C25.4547 53.6247 25.6501 53.5145 25.6501 52.9034C25.6325 37.2367 25.64 21.5676 25.6325 5.90093C25.6325 3.75193 26.1911 2.80266 27.9193 2.27919C29.9806 1.65553 31.8616 3.27354 31.8817 5.17958C32.0445 21.1042 31.8967 37.0289 31.9292 52.9535C31.9292 53.6423 32.2323 53.6122 32.7132 53.6122C51.1976 53.6047 69.6795 53.6047 88.1639 53.6122C88.9303 53.6122 89.7168 53.5145 90.4632 53.7951C91.7831 54.291 92.7625 55.1776 92.5796 57.3216C92.4869 58.4111 91.4625 59.418 90.1676 59.7587C89.549 59.9215 88.9454 59.8764 88.3342 59.8789C79.1847 59.8839 70.0327 59.8814 60.8831 59.8814L60.8781 59.8864Z" fill="url(#paint1_linear_802_14756)"/>
<path d="M38.3036 36.3501C38.3036 33.1717 38.3036 29.9933 38.3036 26.8149C38.3036 25.7904 38.5967 25.4874 39.591 25.4874C42.2485 25.4874 44.9059 25.4849 47.5633 25.4874C48.5076 25.4874 48.9234 25.9006 48.9259 26.8549C48.9309 33.2644 48.9309 39.6738 48.9259 46.0832C48.9259 47.0475 48.5827 47.3906 47.6285 47.3931C44.9184 47.3982 42.2084 47.3982 39.5008 47.3931C38.6367 47.3931 38.2786 47.05 38.2786 46.2761C38.2786 42.9674 38.2786 39.6588 38.2786 36.3501C38.2886 36.3501 38.2961 36.3501 38.3061 36.3501H38.3036Z" fill="url(#paint2_linear_802_14756)"/>
<path d="M58.0078 17.0717C57.2414 18.7773 56.505 20.3452 56.2396 22.101C55.9966 23.709 55.8463 25.317 56.1319 26.9175C56.3848 28.3326 56.7355 29.7227 57.3291 31.0577C57.9377 32.4227 58.7793 33.6124 59.6885 34.7721C60.515 35.8291 61.5244 36.6832 62.639 37.4195C62.9095 37.5974 62.952 37.8603 62.952 38.1659C62.9445 40.7733 62.952 43.3806 62.9445 45.988C62.942 47.0049 62.5463 47.3906 61.5344 47.3931C58.9521 47.3981 56.3723 47.3956 53.79 47.3931C52.4901 47.3931 52.3223 47.2278 52.3223 45.9053C52.3223 37.0664 52.3223 28.2274 52.3223 19.391C52.3223 17.8464 53.0995 17.0742 54.6541 17.0742C55.7436 17.0742 56.8332 17.0742 58.0078 17.0742V17.0717Z" fill="url(#paint3_linear_802_14756)"/>
<path d="M71.4779 47.3906C70.1229 47.3906 68.7704 47.3981 67.4154 47.3881C66.5262 47.3806 66.2933 47.1552 66.2883 46.2911C66.2783 44.1546 66.2883 42.0206 66.2808 39.8841C66.2808 39.4934 66.2983 39.3106 66.7942 39.5009C68.8806 40.3049 71.0772 40.2824 73.2487 40.1496C74.3057 40.0845 75.3526 39.6863 76.3745 39.3507C76.8229 39.2029 76.9155 39.253 76.913 39.6988C76.903 41.8603 76.9206 44.0219 76.903 46.1834C76.8955 46.9673 76.4296 47.3831 75.6181 47.3881C74.2381 47.3956 72.858 47.3881 71.4779 47.3881V47.3906Z" fill="url(#paint4_linear_802_14756)"/>
<path d="M71.4452 17.8457C72.2693 17.6328 72.4771 18.0511 72.3795 18.7699C72.2843 19.4587 72.4245 19.8594 73.2786 19.887C73.8171 19.9045 74.3431 20.2652 74.8716 20.4756C75.1646 20.5908 75.3099 20.7511 75.0494 21.0467C74.9868 21.1193 74.9618 21.227 74.9217 21.3172C74.3607 22.552 74.5435 22.5845 73.0758 22.016C72.4646 21.7805 71.846 21.7455 71.2073 21.7104C70.764 21.6853 70.6988 22.0435 70.5761 22.2564C70.501 22.3892 70.6888 22.7148 70.9618 22.8275C71.6581 23.113 72.3469 23.4035 73.0733 23.6214C74.0075 23.902 74.9292 24.3503 75.1546 25.4098C75.3926 26.5218 75.1421 27.5287 74.1853 28.3177C73.757 28.6708 73.2336 28.5656 72.7802 28.8311C72.4346 29.034 72.372 29.1818 72.377 29.4949C72.3795 29.6502 72.377 29.808 72.377 29.9632C72.382 30.3214 72.4496 30.8073 72.0814 30.9125C71.6556 31.0352 71.1372 31.0002 70.7038 30.8775C70.3382 30.7748 70.4584 30.3114 70.516 30.0434C70.7164 29.1192 70.223 28.731 69.444 28.6333C68.7677 28.5481 68.3344 28.0497 67.7584 27.8067C67.5079 27.7015 67.4703 27.4235 67.5505 27.1981C67.6782 26.8449 67.821 26.4818 68.0364 26.1762C68.377 25.6903 68.7778 25.9984 69.1084 26.2113C69.9149 26.7297 70.7615 27.0779 71.7383 27.0478C72.1641 27.0353 72.5548 26.9852 72.6951 26.4818C72.8528 25.9107 72.4746 25.7304 72.0614 25.55C71.2148 25.1793 70.2906 25.0541 69.439 24.6659C67.7158 23.8794 67.6682 21.9684 68.4897 20.7561C68.8028 20.2953 69.2837 20.0598 69.7345 19.9521C70.4659 19.7768 70.6012 19.3811 70.506 18.7524C70.3933 18.0135 70.6437 17.6328 71.4477 17.8432L71.4452 17.8457Z" fill="url(#paint5_linear_802_14756)"/>
</g>
<defs>
<filter id="filter0_ddd_802_14756" x="0.725098" y="0.14325" width="104.153" height="92.8929" filterUnits="userSpaceOnUse" color-interpolation-filters="sRGB">
<feFlood flood-opacity="0" result="BackgroundImageFix"/>
<feColorMatrix in="SourceAlpha" type="matrix" values="0 0 0 0 0 0 0 0 0 0 0 0 0 0 0 0 0 0 127 0" result="hardAlpha"/>
<feOffset/>
<feGaussianBlur stdDeviation="0.5"/>
<feComposite in2="hardAlpha" operator="out"/>
<feColorMatrix type="matrix" values="0 0 0 0 0 0 0 0 0 0 0 0 0 0 0 0 0 0 0.1 0"/>
<feBlend mode="normal" in2="BackgroundImageFix" result="effect1_dropShadow_802_14756"/>
<feColorMatrix in="SourceAlpha" type="matrix" values="0 0 0 0 0 0 0 0 0 0 0 0 0 0 0 0 0 0 127 0" result="hardAlpha"/>
<feMorphology radius="3" operator="erode" in="SourceAlpha" result="effect2_dropShadow_802_14756"/>
<feOffset dy="10"/>
<feGaussianBlur stdDeviation="7.5"/>
<feComposite in2="hardAlpha" operator="out"/>
<feColorMatrix type="matrix" values="0 0 0 0 0 0 0 0 0 0 0 0 0 0 0 0 0 0 0.1 0"/>
<feBlend mode="normal" in2="effect1_dropShadow_802_14756" result="effect2_dropShadow_802_14756"/>
<feColorMatrix in="SourceAlpha" type="matrix" values="0 0 0 0 0 0 0 0 0 0 0 0 0 0 0 0 0 0 127 0" result="hardAlpha"/>
<feMorphology radius="2" operator="erode" in="SourceAlpha" result="effect3_dropShadow_802_14756"/>
<feOffset dy="4"/>
<feGaussianBlur stdDeviation="3"/>
<feComposite in2="hardAlpha" operator="out"/>
<feColorMatrix type="matrix" values="0 0 0 0 0 0 0 0 0 0 0 0 0 0 0 0 0 0 0.05 0"/>
<feBlend mode="normal" in2="effect2_dropShadow_802_14756" result="effect3_dropShadow_802_14756"/>
<feBlend mode="normal" in="SourceGraphic" in2="effect3_dropShadow_802_14756" result="shape"/>
</filter>
<linearGradient id="paint0_linear_802_14756" x1="75.8864" y1="12.306" x2="75.8864" y2="46.1721" gradientUnits="userSpaceOnUse">
<stop stop-color="#32D042"/>
<stop offset="1" stop-color="#7EDA48"/>
</linearGradient>
<linearGradient id="paint1_linear_802_14756" x1="52.6634" y1="2.14325" x2="52.6634" y2="71.0362" gradientUnits="userSpaceOnUse">
<stop stop-color="#32D042"/>
<stop offset="1" stop-color="#7EDA48"/>
</linearGradient>
<linearGradient id="paint2_linear_802_14756" x1="43.6041" y1="25.4863" x2="43.6041" y2="47.3969" gradientUnits="userSpaceOnUse">
<stop stop-color="#32D042"/>
<stop offset="1" stop-color="#7EDA48"/>
</linearGradient>
<linearGradient id="paint3_linear_802_14756" x1="57.6372" y1="17.0717" x2="57.6372" y2="47.396" gradientUnits="userSpaceOnUse">
<stop stop-color="#32D042"/>
<stop offset="1" stop-color="#7EDA48"/>
</linearGradient>
<linearGradient id="paint4_linear_802_14756" x1="71.5969" y1="39.2761" x2="71.5969" y2="47.3933" gradientUnits="userSpaceOnUse">
<stop stop-color="#32D042"/>
<stop offset="1" stop-color="#7EDA48"/>
</linearGradient>
<linearGradient id="paint5_linear_802_14756" x1="71.3757" y1="17.7856" x2="71.3757" y2="30.9889" gradientUnits="userSpaceOnUse">
<stop stop-color="#32D042"/>
<stop offset="1" stop-color="#7EDA48"/>
</linearGradient>
</defs>
</svg>
