<svg width="106" height="103" viewBox="0 0 106 103" fill="none" xmlns="http://www.w3.org/2000/svg">
<g filter="url(#filter0_ddd_802_14722)">
<path d="M12.7441 28.4859C13.3169 27.8411 13.3227 26.9566 13.5974 26.2027C13.9539 25.2248 14.5948 24.4825 15.152 23.6877C16.4825 21.7922 18.4696 20.7539 20.5774 19.9279C20.9729 19.774 21.2671 19.8344 21.6236 20.1266C23.2795 21.4786 25.1574 22.2753 27.3335 22.3669C28.9543 22.4351 30.5147 22.2266 31.966 21.5292C32.718 21.1688 33.4758 20.7422 34.07 20.1207C34.3369 19.8422 34.5726 19.8149 34.9583 19.9279C38.5506 20.9818 40.9701 23.2942 42.3358 26.7365C42.5403 27.2547 42.6767 27.3735 43.3098 27.2664C45.9573 26.8183 48.6203 26.4871 51.3243 26.5845C53.1049 26.6488 54.8913 26.5241 56.6679 26.6157C58.6667 26.7209 60.6713 26.8729 62.6252 27.3482C63.233 27.4962 63.3967 27.1358 63.5525 26.7131C63.9168 25.7235 64.4623 24.841 65.0837 23.9936C66.5779 21.9558 68.5455 20.6078 70.9572 19.8733C71.2943 19.772 71.5222 19.9454 71.7209 20.1013C73.0222 21.126 74.419 21.9422 76.0749 22.2305C77.3334 22.4507 78.586 22.3727 79.8484 22.2013C81.1322 22.0279 82.1978 21.311 83.3822 20.8922C83.6082 20.8123 83.8147 20.5844 83.9589 20.3759C84.3991 19.7331 84.9524 19.7623 85.5875 20.0116C88.2817 21.0753 90.448 22.8013 91.8643 25.33C92.5539 26.5612 92.9903 27.9151 93.113 29.3781C93.3935 32.723 93.148 36.0659 93.2571 39.4089C93.2708 39.8472 93.1091 40.0576 92.7331 40.231C91.0655 41.0063 89.3337 41.5966 87.5414 41.9706C86.9959 42.0856 87.0447 42.2804 87.1888 42.6252C87.8083 44.1116 88.007 45.6603 88.081 47.2656C88.2486 50.8598 86.7895 53.8092 84.6348 56.5074C82.5718 59.0905 79.977 61.0172 77.1152 62.6458C74.1658 64.3251 71.0371 65.5212 67.7857 66.4427C67.5909 66.4972 67.0786 66.3764 67.2792 67.0212C67.9728 69.2557 67.8325 71.574 67.8286 73.8727C67.8266 75.55 67.8052 77.2273 67.8422 78.9047C67.852 79.4014 67.6786 79.6566 67.2461 79.8456C64.5012 81.0437 61.6297 81.7099 58.6647 82.1229C55.8848 82.5106 53.1029 82.4541 50.3288 82.3625C48.9223 82.3158 47.4924 82.0469 46.08 81.8365C44.165 81.5502 42.291 81.1352 40.4208 80.6716C39.5441 80.4534 38.6967 80.1144 37.8201 79.8923C37.4694 79.8027 37.4246 79.6235 37.4246 79.3449C37.4246 75.8072 37.4051 72.2694 37.446 68.7317C37.4519 68.1745 37.7538 67.6232 37.8824 67.0602C37.9506 66.7582 38.1181 66.503 37.5298 66.3297C34.9642 65.5796 32.4628 64.6485 30.09 63.3919C27.9042 62.2328 25.8432 60.914 23.9535 59.2951C21.6216 57.2983 19.804 54.9664 18.6664 52.1105C17.9514 50.3124 17.5637 48.4383 17.7994 46.5194C17.9709 45.1285 18.115 43.6966 18.8144 42.4187C19.0034 42.0739 19.0345 41.7544 18.5183 41.694C16.5312 41.4641 14.6747 40.7122 12.7402 40.268V28.4761L12.7441 28.4859ZM62.9389 29.7775C61.4077 29.6976 59.9836 29.3606 58.5245 29.2359C57.6965 29.1658 56.8608 29.2281 56.0465 29.0995C54.1218 28.7976 52.1854 28.9067 50.2684 28.9963C48.0476 29.0995 45.819 29.2885 43.6196 29.7112C43.0819 29.8145 43.0877 29.9996 43.0897 30.3853C43.1131 33.4496 43.1247 36.514 43.152 39.5784C43.1559 39.9095 43.0449 40.1082 42.7449 40.2271C40.6253 41.0765 38.4805 41.7797 36.2168 42.2122C33.6433 42.7031 31.0582 42.8375 28.4692 42.9135C27.3412 42.9466 26.1899 42.8064 25.0464 42.7927C24.9217 42.7927 24.799 42.7265 24.6743 42.7109C23.6866 42.5765 22.697 42.4479 21.7093 42.3174C21.4775 42.2862 21.4638 42.4421 21.3703 42.6193C20.4216 44.4213 20.1274 46.3051 20.2618 48.3448C20.369 49.9481 20.8541 51.3955 21.5866 52.7475C22.9775 55.319 24.9918 57.3411 27.4016 59.0087C30.8147 61.3698 34.5492 62.9906 38.5253 64.1186C38.9733 64.2452 39.2539 64.1244 39.4545 63.8108C40.6974 61.8549 42.5033 60.6217 44.5975 59.7587C45.3183 59.4607 45.9456 59.3204 46.6956 59.9496C48.1158 61.1399 49.8282 61.8471 51.6886 61.962C54.3614 62.1296 56.7907 61.3893 58.8615 59.6399C59.1245 59.4178 59.4089 59.4042 59.6583 59.4938C62.1129 60.3802 64.3142 61.625 65.75 63.9238C65.8825 64.1342 66.0013 64.3114 66.3948 64.2218C67.8461 63.8945 69.2663 63.5225 70.6709 62.9984C74.271 61.6562 77.6042 59.9165 80.5205 57.3723C82.0147 56.069 83.242 54.5943 84.2199 52.8839C85.6829 50.3221 85.9128 47.6006 85.4063 44.7447C85.2836 44.057 84.9017 43.5135 84.5823 42.9681C84.1283 42.1888 83.3413 42.7655 82.6926 42.7966C82.6673 42.7966 82.64 42.7986 82.6147 42.7966C80.5692 42.6232 78.5431 43.1181 76.4743 42.8395C74.9021 42.6291 73.3086 42.518 71.7267 42.3213C68.8981 41.9687 66.1571 41.2615 63.4434 40.4199C62.9934 40.2797 62.8239 40.0693 62.8317 39.5569C62.8668 36.7283 62.8395 33.8977 62.859 31.0671C62.8629 30.6444 62.635 30.2158 62.9428 29.7794L62.9389 29.7775Z" fill="url(#paint0_linear_802_14722)"/>
<path d="M19.029 11.7031C18.9316 6.7764 23.0187 2.73409 28.074 2.84513C32.8138 2.94838 36.6905 6.96536 36.8229 11.2356C36.8989 13.6902 36.2151 15.8779 34.5709 17.7052C32.615 19.8793 30.063 20.9332 27.2169 20.7248C22.9408 20.4111 18.8517 16.7409 19.029 11.6992V11.7031Z" fill="url(#paint1_linear_802_14722)"/>
<path d="M77.9006 20.6253C73.6771 20.9253 68.9315 16.8752 69.0328 11.6601C69.1264 6.83858 73.0829 2.78069 78.0311 2.84887C82.9929 2.91705 86.9125 6.77624 86.9573 11.7556C87.0002 16.7213 82.6345 20.8961 77.9006 20.6253Z" fill="url(#paint2_linear_802_14722)"/>
<path d="M43.7167 51.2984C43.4654 46.9463 47.4766 42.004 53.1787 42.4715C55.4443 42.6566 57.371 43.5235 58.9879 45.0859C60.4938 46.5392 61.4834 48.4658 61.5419 50.4062C61.7113 56.005 57.7509 60.1544 52.7988 60.2772C47.7493 60.4019 43.5122 56.0693 43.7167 51.3003V51.2984Z" fill="url(#paint3_linear_802_14722)"/>
</g>
<defs>
<filter id="filter0_ddd_802_14722" x="0.740234" y="0.842896" width="104.518" height="103.586" filterUnits="userSpaceOnUse" color-interpolation-filters="sRGB">
<feFlood flood-opacity="0" result="BackgroundImageFix"/>
<feColorMatrix in="SourceAlpha" type="matrix" values="0 0 0 0 0 0 0 0 0 0 0 0 0 0 0 0 0 0 127 0" result="hardAlpha"/>
<feOffset/>
<feGaussianBlur stdDeviation="0.5"/>
<feComposite in2="hardAlpha" operator="out"/>
<feColorMatrix type="matrix" values="0 0 0 0 0 0 0 0 0 0 0 0 0 0 0 0 0 0 0.1 0"/>
<feBlend mode="normal" in2="BackgroundImageFix" result="effect1_dropShadow_802_14722"/>
<feColorMatrix in="SourceAlpha" type="matrix" values="0 0 0 0 0 0 0 0 0 0 0 0 0 0 0 0 0 0 127 0" result="hardAlpha"/>
<feMorphology radius="3" operator="erode" in="SourceAlpha" result="effect2_dropShadow_802_14722"/>
<feOffset dy="10"/>
<feGaussianBlur stdDeviation="7.5"/>
<feComposite in2="hardAlpha" operator="out"/>
<feColorMatrix type="matrix" values="0 0 0 0 0 0 0 0 0 0 0 0 0 0 0 0 0 0 0.1 0"/>
<feBlend mode="normal" in2="effect1_dropShadow_802_14722" result="effect2_dropShadow_802_14722"/>
<feColorMatrix in="SourceAlpha" type="matrix" values="0 0 0 0 0 0 0 0 0 0 0 0 0 0 0 0 0 0 127 0" result="hardAlpha"/>
<feMorphology radius="2" operator="erode" in="SourceAlpha" result="effect3_dropShadow_802_14722"/>
<feOffset dy="4"/>
<feGaussianBlur stdDeviation="3"/>
<feComposite in2="hardAlpha" operator="out"/>
<feColorMatrix type="matrix" values="0 0 0 0 0 0 0 0 0 0 0 0 0 0 0 0 0 0 0.05 0"/>
<feBlend mode="normal" in2="effect2_dropShadow_802_14722" result="effect3_dropShadow_802_14722"/>
<feBlend mode="normal" in="SourceGraphic" in2="effect3_dropShadow_802_14722" result="shape"/>
</filter>
<linearGradient id="paint0_linear_802_14722" x1="52.9991" y1="19.8431" x2="52.9991" y2="82.4294" gradientUnits="userSpaceOnUse">
<stop stop-color="#2AC139"/>
<stop offset="1" stop-color="#7FDA48"/>
</linearGradient>
<linearGradient id="paint1_linear_802_14722" x1="27.926" y1="2.8429" x2="27.926" y2="20.7507" gradientUnits="userSpaceOnUse">
<stop stop-color="#2AC139"/>
<stop offset="1" stop-color="#7FDA48"/>
</linearGradient>
<linearGradient id="paint2_linear_802_14722" x1="77.9944" y1="2.84802" x2="77.9944" y2="20.6409" gradientUnits="userSpaceOnUse">
<stop stop-color="#2AC139"/>
<stop offset="1" stop-color="#7FDA48"/>
</linearGradient>
<linearGradient id="paint3_linear_802_14722" x1="52.6263" y1="42.4407" x2="52.6263" y2="60.2798" gradientUnits="userSpaceOnUse">
<stop stop-color="#2AC139"/>
<stop offset="1" stop-color="#7FDA48"/>
</linearGradient>
</defs>
</svg>
