<svg width="108" height="99" viewBox="0 0 108 99" fill="none" xmlns="http://www.w3.org/2000/svg">
<g filter="url(#filter0_ddd_802_14732)">
<path d="M95.841 51.0266V51.5158C95.4485 51.633 95.5217 51.9523 95.5129 52.2452C95.4836 53.2266 95.6154 54.1932 95.5656 55.1892C95.4075 58.3792 94.5609 61.3466 93.1665 64.1764C91.6374 67.2785 89.4082 69.8241 86.7162 71.9625C83.2127 74.7424 79.1966 76.3594 74.7675 76.7578C72.3186 76.9775 69.8287 76.9189 67.3944 76.3125C63.5453 75.3488 60.1063 73.6 57.1447 70.9577C54.9096 68.9629 53.1579 66.5784 51.828 63.9039C51.5058 63.2536 51.0781 63.1482 50.5625 63.28C48.9426 63.693 47.3227 63.9918 45.6442 64.1207C42.9815 64.3257 40.3568 64.2642 37.7204 63.8219C36.5252 63.6227 35.3857 63.2097 34.1847 63.0632C34.1671 62.7615 33.9943 62.8875 33.8478 62.9402C33.5871 62.8259 33.3323 62.6912 33.0628 62.6004C31.3667 62.0145 29.7175 61.3203 28.1474 60.4444C28.0859 60.4063 28.0244 60.3653 27.9629 60.3272C27.4824 60.046 27.002 59.7648 26.5216 59.4836C26.5216 59.2199 26.3869 59.2551 26.2258 59.3488C25.344 58.6839 24.4623 58.0189 23.5835 57.354C23.5249 57.3159 23.4663 57.2749 23.4107 57.2368C21.7439 55.7721 20.1445 54.2342 18.7707 52.4854C16.682 49.8286 15.027 46.9285 13.9578 43.7092C13.9168 43.6506 13.8787 43.5891 13.8377 43.5305C13.3426 41.9926 12.9032 40.4489 12.6249 38.8495C12.4902 38.0732 12.5136 37.253 12.168 36.5119V36.0227C12.4463 35.8059 12.1885 35.5891 12.168 35.3694V30.4775C12.3379 30.4218 12.3144 30.2783 12.3262 30.1465C12.5488 27.7561 13.0116 25.4156 13.8055 23.1483C14.447 21.3175 15.2672 19.5687 16.2485 17.899C17.8069 15.245 19.6553 12.8196 21.9343 10.7368C21.9929 10.6929 22.0544 10.6489 22.113 10.605C22.7633 10.1275 23.2759 9.50064 23.9175 8.99972C26.0793 7.30951 28.4315 5.95323 30.939 4.87231C32.6732 4.12534 34.4601 3.56291 36.329 3.17624C37.7497 2.88331 39.188 2.59623 40.6116 2.47613C42.7793 2.29451 44.9675 2.44684 47.147 2.73391C50.9082 3.22897 54.4292 4.37433 57.7716 6.16121C62.1802 8.52224 65.7159 11.8324 68.5778 15.8895C70.2007 18.1861 71.4222 20.6965 72.3156 23.3651C73.0743 25.6295 73.5518 27.9524 73.8242 30.3164C73.8623 30.6532 73.9678 30.7792 74.3076 30.8144C75.0985 30.8964 75.8865 31.0048 76.6715 31.1366C79.6243 31.6258 82.3691 32.6715 84.8824 34.2973C86.1303 35.1029 87.2815 36.0168 88.3742 37.0509C89.2354 37.8652 90.0234 38.7235 90.7762 39.6257C92.1706 41.2984 93.0669 43.2727 94.0483 45.1914C94.0893 45.2354 94.1303 45.2793 94.1684 45.3233C94.2211 45.581 94.2738 45.8418 94.3324 46.0966C94.6693 47.5759 95.261 48.9996 95.3547 50.5345C95.3137 50.8978 95.4719 51.0677 95.841 51.0354V51.0266ZM46.4468 14.9785C46.4117 13.4904 45.694 12.4827 44.3055 11.9642C41.9181 11.0737 39.6245 12.6086 39.5952 15.1513C39.5366 20.6906 39.5717 26.23 39.5717 31.7693C39.5717 32.5397 39.5952 33.2779 39.894 34.0366C40.7728 36.2805 43.207 37.8711 45.8668 37.2882C49.1125 36.5763 52.3699 35.926 55.642 35.3519C56.8225 35.1439 58.0704 34.9623 59.1132 34.4262C60.4373 33.7466 61.5504 32.6071 60.9352 30.1523C60.8913 30.0967 60.8503 30.041 60.8064 29.9854C60.7214 29.6426 60.5398 29.3673 60.3084 29.0978C59.0898 27.68 57.4874 27.8645 55.9261 28.0989C54.4497 28.3186 52.9939 28.6965 51.5292 28.9982C49.9357 29.3233 48.3421 29.6368 46.7486 29.9561C46.7076 29.9121 46.6636 29.8682 46.6226 29.8242C46.6138 29.5284 46.5962 29.2296 46.5962 28.9337C46.5904 24.3904 46.5845 19.8499 46.5816 15.3065C46.8335 15.0839 46.6724 15.0195 46.4556 14.9755L46.4468 14.9785ZM86.8656 60.96C87.1409 60.3184 87.4485 59.6886 87.6828 59.0354C88.172 57.6645 88.5294 56.2672 88.506 54.7908C88.4826 53.4814 88.5558 52.1691 88.3712 50.8655L88.5587 50.7806C88.4943 50.7542 88.4298 50.7279 88.3654 50.7015C88.3097 50.6107 88.2189 50.5287 88.2013 50.432C87.6213 47.4031 86.1391 44.8399 84.0651 42.6136C82.1845 40.5953 79.8147 39.3064 77.2164 38.4892C74.8524 37.7451 72.3918 37.5547 69.9488 38C65.8975 38.7382 62.479 40.6217 59.9569 43.9523C57.3117 47.4441 56.1282 51.3254 56.6819 55.737C57.0012 58.2709 57.921 60.5381 59.2773 62.6531C60.1941 64.0826 61.3102 65.3627 62.6841 66.3763C63.4603 66.9504 64.1926 67.6271 65.1769 67.8614C65.2208 67.9054 65.2648 67.9464 65.3058 67.9903C69.2076 70.0672 73.253 70.3514 77.4332 68.9687C77.4771 68.9248 77.524 68.8808 77.5679 68.834C78.0571 68.8457 78.4994 68.6699 78.9271 68.4678C82.3222 66.8684 85.0201 64.5279 86.7337 61.1387L86.8597 60.96H86.8656Z" fill="url(#paint0_linear_802_14732)"/>
<path d="M12.1606 35.3693C12.1811 35.586 12.4389 35.8028 12.1606 36.0225V35.3693Z" fill="white"/>
<path d="M77.6888 60.9776C77.0649 60.9776 76.438 60.9717 75.8141 60.9776C75.1491 60.9864 74.449 60.7403 74.282 61.8564C74.1678 62.618 73.2538 62.9871 72.3458 62.9285C71.5021 62.8758 70.966 62.3778 70.7288 61.6162C70.5677 61.1006 70.3392 60.9424 69.7914 60.96C68.1627 61.0069 66.5311 60.9776 64.8994 60.9776C63.7892 60.9776 63.2414 60.0461 63.6662 58.971C63.8625 58.4701 64.1847 58.0922 64.5743 57.767C65.2509 57.2046 65.5673 56.4518 65.6523 55.6286C65.8134 54.0761 65.9686 52.5324 66.4842 51.0443C67.2282 48.9 68.3355 47.0809 70.6262 46.2812C70.9426 46.1699 71.1389 45.9326 71.218 45.6133C71.4172 44.8195 71.9474 44.5998 72.709 44.6583C73.4267 44.714 73.8514 45.0802 73.9627 45.7598C74.0038 46.0146 74.0799 46.1406 74.2996 46.2138C77.0385 47.1336 78.1399 49.3628 78.8869 51.8996C79.256 53.1534 79.1974 54.4628 79.4699 55.7341C79.6954 56.7974 80.211 57.5913 80.9111 58.3178C81.3563 58.7806 81.5643 59.2815 81.4823 59.9084C81.3973 60.5558 81.163 61.0186 80.375 60.9834C79.4786 60.9454 78.5823 60.9746 77.6859 60.9746L77.6888 60.9776Z" fill="url(#paint1_linear_802_14732)"/>
</g>
<defs>
<filter id="filter0_ddd_802_14732" x="0.160645" y="0.397461" width="107.68" height="98.4773" filterUnits="userSpaceOnUse" color-interpolation-filters="sRGB">
<feFlood flood-opacity="0" result="BackgroundImageFix"/>
<feColorMatrix in="SourceAlpha" type="matrix" values="0 0 0 0 0 0 0 0 0 0 0 0 0 0 0 0 0 0 127 0" result="hardAlpha"/>
<feOffset/>
<feGaussianBlur stdDeviation="0.5"/>
<feComposite in2="hardAlpha" operator="out"/>
<feColorMatrix type="matrix" values="0 0 0 0 0 0 0 0 0 0 0 0 0 0 0 0 0 0 0.1 0"/>
<feBlend mode="normal" in2="BackgroundImageFix" result="effect1_dropShadow_802_14732"/>
<feColorMatrix in="SourceAlpha" type="matrix" values="0 0 0 0 0 0 0 0 0 0 0 0 0 0 0 0 0 0 127 0" result="hardAlpha"/>
<feMorphology radius="3" operator="erode" in="SourceAlpha" result="effect2_dropShadow_802_14732"/>
<feOffset dy="10"/>
<feGaussianBlur stdDeviation="7.5"/>
<feComposite in2="hardAlpha" operator="out"/>
<feColorMatrix type="matrix" values="0 0 0 0 0 0 0 0 0 0 0 0 0 0 0 0 0 0 0.1 0"/>
<feBlend mode="normal" in2="effect1_dropShadow_802_14732" result="effect2_dropShadow_802_14732"/>
<feColorMatrix in="SourceAlpha" type="matrix" values="0 0 0 0 0 0 0 0 0 0 0 0 0 0 0 0 0 0 127 0" result="hardAlpha"/>
<feMorphology radius="2" operator="erode" in="SourceAlpha" result="effect3_dropShadow_802_14732"/>
<feOffset dy="4"/>
<feGaussianBlur stdDeviation="3"/>
<feComposite in2="hardAlpha" operator="out"/>
<feColorMatrix type="matrix" values="0 0 0 0 0 0 0 0 0 0 0 0 0 0 0 0 0 0 0.05 0"/>
<feBlend mode="normal" in2="effect2_dropShadow_802_14732" result="effect3_dropShadow_802_14732"/>
<feBlend mode="normal" in="SourceGraphic" in2="effect3_dropShadow_802_14732" result="shape"/>
</filter>
<linearGradient id="paint0_linear_802_14732" x1="54.0045" y1="2.39746" x2="54.0045" y2="76.8748" gradientUnits="userSpaceOnUse">
<stop stop-color="#32D042"/>
<stop offset="1" stop-color="#7FDA48"/>
</linearGradient>
<linearGradient id="paint1_linear_802_14732" x1="72.5112" y1="44.6494" x2="72.5112" y2="62.9345" gradientUnits="userSpaceOnUse">
<stop stop-color="#32D042"/>
<stop offset="1" stop-color="#7FDA48"/>
</linearGradient>
</defs>
</svg>
