<svg width="32" height="32" viewBox="0 0 32 32" fill="none" xmlns="http://www.w3.org/2000/svg">
<path d="M17.0017 6.99992C18.1217 6.99992 19.1677 7.30592 20.0617 7.83992C20.1581 6.81431 20.4864 5.82402 21.0217 4.94392C19.7251 4.29635 18.2913 3.9715 16.8422 3.997C15.3931 4.02249 13.9715 4.39758 12.6985 5.09036C11.4255 5.78313 10.3386 6.77311 9.53024 7.97609C8.72191 9.17908 8.21607 10.5595 8.05573 11.9999H5.49972C3.56772 11.9999 1.99973 13.5679 1.99973 15.4999V24.4999C1.99973 24.9597 2.09032 25.415 2.26634 25.8398C2.44235 26.2645 2.70034 26.6505 3.02556 26.9755C3.35077 27.3005 3.73685 27.5583 4.16172 27.7341C4.58659 27.9098 5.04193 28.0002 5.50173 27.9999H14.5017C15.43 27.9999 16.3202 27.6312 16.9766 26.9748C17.633 26.3184 18.0017 25.4282 18.0017 24.4999V21.9459C18.6951 21.869 19.377 21.7113 20.0337 21.4759C20.0137 21.0039 20.0017 20.5119 20.0017 19.9999V19.8399C20.0017 19.3599 20.0017 18.7939 20.0217 18.1859C19.3984 18.551 18.714 18.7997 18.0017 18.9199V15.4999C18.0017 13.5679 16.4337 11.9999 14.5017 11.9999H11.0837C11.3201 10.6015 12.0442 9.33203 13.1276 8.41673C14.2109 7.50142 15.5835 6.99947 17.0017 6.99992ZM8.22373 14.9999C8.60167 16.6528 9.43814 18.1656 10.6371 19.3646C11.836 20.5635 13.3488 21.4 15.0017 21.7779V24.4999C15.0017 24.7759 14.7777 24.9999 14.5017 24.9999H5.50173C5.36912 24.9999 5.24194 24.9472 5.14817 24.8535C5.0544 24.7597 5.00172 24.6325 5.00172 24.4999V15.4999C5.00172 15.3673 5.0544 15.2401 5.14817 15.1464C5.24194 15.0526 5.36912 14.9999 5.50173 14.9999H8.22373ZM11.3437 14.9999H14.5017C14.6343 14.9999 14.7615 15.0526 14.8553 15.1464C14.949 15.2401 15.0017 15.3673 15.0017 15.4999V18.6599C14.1577 18.3607 13.3912 17.8769 12.758 17.2437C12.1248 16.6105 11.6429 15.8439 11.3437 14.9999Z" fill="#FC6B81"/>
<path d="M24.5168 2.80744C24.5599 2.59113 24.6732 2.39512 24.8392 2.24992C25.0045 2.10416 25.2134 2.0171 25.4333 2.00227C25.6532 1.98744 25.8718 2.04567 26.0552 2.16792L26.0592 2.16992L26.0652 2.17392L26.0832 2.18792L26.1432 2.22792C26.4425 2.44196 26.7309 2.67091 27.0072 2.91392C27.5112 3.35392 28.1612 4.00792 28.6232 4.78792C29.0112 5.38792 29.3472 6.13192 29.5872 6.85192C29.8272 7.56992 30.0012 8.34792 30.0012 8.99992C30.0012 10.6639 29.4012 12.0879 28.4572 12.9819C29.0412 13.5759 29.3812 14.3499 29.5912 15.1219C30.0012 16.6299 30.0012 18.4879 30.0012 19.9279V19.9999C30.0012 24.1159 29.2312 26.5619 28.3592 28.0139C28.0298 28.5864 27.5972 29.093 27.0832 29.5079C26.8797 29.6667 26.6582 29.8009 26.4232 29.9079C26.2874 29.9575 26.1454 29.9885 26.0012 29.9999C25.8332 29.9999 25.5792 29.9079 25.5792 29.9079C25.3443 29.8009 25.1228 29.6667 24.9192 29.5079C24.4053 29.093 23.9726 28.5864 23.6432 28.0139C22.7712 26.5599 22.0012 24.1159 22.0012 19.9999V19.9259C22.0012 18.4879 22.0012 16.6279 22.4112 15.1239C22.6212 14.3499 22.9612 13.5759 23.5452 12.9839C22.6012 12.0859 22.0012 10.6639 22.0012 8.99992C22.0012 7.60592 22.2832 6.64792 22.7932 5.88192C23.0392 5.51592 23.3132 5.22392 23.5732 4.97592C23.7072 4.84392 23.8132 4.74792 23.9132 4.65592C24.0352 4.54192 24.1472 4.43792 24.2932 4.29192C24.5952 3.99192 24.6272 3.75192 24.6272 3.62592C24.6269 3.56501 24.6182 3.50443 24.6012 3.44592C24.5034 3.24822 24.4738 3.02375 24.5168 2.80744Z" fill="#52B7B7"/>
</svg>
